<?xml version="1.0" encoding="UTF-8"?>
<svg xmlns="http://www.w3.org/2000/svg" xmlns:xlink="http://www.w3.org/1999/xlink" width="300pt" height="176pt" viewBox="0 0 300 176" version="1.1">
<g id="surface1">
<path style="fill:none;stroke-width:1;stroke-linecap:round;stroke-linejoin:round;stroke:rgb(0%,0%,0%);stroke-opacity:1;stroke-miterlimit:10;" d="M 203.9 516.4 L 227.9 516.4 L 227.9 540.4 L 203.9 540.4 Z M 203.9 516.4 " transform="matrix(1.25,0,0,1.25,-100,-548.75)"/>
<path style=" stroke:none;fill-rule:nonzero;fill:rgb(0%,0%,0%);fill-opacity:1;" d="M 172.160156 115.5 L 172.160156 115.226562 C 171.359375 115.109375 171.164062 114.992188 171.164062 114.40625 L 171.164062 109.015625 C 171.164062 108.410156 171.398438 108.234375 172.160156 108.175781 L 172.160156 107.902344 L 168.351562 107.902344 L 168.351562 108.175781 C 169.132812 108.234375 169.347656 108.371094 169.347656 109.015625 L 169.347656 111.300781 L 166.632812 111.300781 L 166.632812 109.015625 C 166.632812 108.371094 166.847656 108.234375 167.648438 108.175781 L 167.648438 107.902344 L 163.859375 107.902344 L 163.859375 108.175781 C 164.621094 108.234375 164.816406 108.390625 164.816406 109.015625 L 164.816406 114.40625 C 164.816406 114.992188 164.640625 115.109375 163.859375 115.226562 L 163.859375 115.5 L 167.648438 115.5 L 167.648438 115.226562 C 166.828125 115.128906 166.632812 114.992188 166.632812 114.40625 L 166.632812 111.828125 L 169.347656 111.828125 L 169.347656 114.40625 C 169.347656 114.972656 169.171875 115.128906 168.351562 115.226562 L 168.351562 115.5 Z M 172.160156 115.5 "/>
<path style=" stroke:none;fill-rule:nonzero;fill:rgb(0%,0%,0%);fill-opacity:1;" d="M 172.824219 115.421875 C 173.136719 114.875 173.488281 114.621094 173.957031 114.621094 C 174.445312 114.621094 174.757812 114.894531 174.757812 115.402344 C 174.757812 115.851562 174.523438 116.183594 174.152344 116.398438 C 173.996094 116.496094 173.800781 116.574219 173.527344 116.671875 L 173.527344 116.769531 C 173.957031 116.769531 174.113281 116.789062 174.289062 116.847656 C 174.796875 117.003906 175.070312 117.375 175.070312 117.941406 C 175.070312 118.566406 174.640625 119.09375 174.09375 119.09375 C 173.878906 119.09375 173.722656 119.054688 173.449219 118.859375 C 173.234375 118.703125 173.117188 118.664062 172.980469 118.664062 C 172.824219 118.664062 172.6875 118.761719 172.6875 118.917969 C 172.6875 119.191406 172.980469 119.347656 173.527344 119.347656 C 174.191406 119.347656 174.894531 119.132812 175.265625 118.664062 C 175.480469 118.371094 175.617188 118 175.617188 117.609375 C 175.617188 117.21875 175.480469 116.867188 175.285156 116.632812 C 175.128906 116.476562 174.992188 116.378906 174.660156 116.242188 C 175.148438 115.949219 175.34375 115.558594 175.34375 115.207031 C 175.34375 114.601562 174.875 114.171875 174.191406 114.171875 C 173.410156 114.171875 172.921875 114.679688 172.707031 115.402344 Z M 172.824219 115.421875 "/>
<path style="fill-rule:nonzero;fill:rgb(69.803922%,85.098039%,100%);fill-opacity:1;stroke-width:1;stroke-linecap:round;stroke-linejoin:round;stroke:rgb(0%,0%,0%);stroke-opacity:1;stroke-miterlimit:10;" d="M 150.765625 554.6 L 174.765625 554.6 L 174.765625 578.6 L 150.765625 578.6 Z M 150.765625 554.6 " transform="matrix(1.25,0,0,1.25,-100,-548.75)"/>
<path style=" stroke:none;fill-rule:nonzero;fill:rgb(0%,0%,0%);fill-opacity:1;" d="M 105.390625 160.75 L 105.390625 160.476562 C 105 160.457031 104.824219 160.320312 104.296875 159.5 L 102.246094 156.316406 L 103.144531 155.066406 C 104.121094 153.699219 104.414062 153.503906 105.253906 153.425781 L 105.253906 153.152344 L 102.441406 153.152344 L 102.441406 153.425781 L 102.675781 153.445312 C 103.105469 153.484375 103.261719 153.582031 103.261719 153.835938 C 103.261719 154.089844 103.125 154.304688 102.597656 155.027344 L 101.972656 155.90625 L 100.878906 154.207031 C 100.742188 153.992188 100.722656 153.933594 100.722656 153.796875 C 100.722656 153.5625 100.839844 153.464844 101.25 153.445312 L 101.601562 153.425781 L 101.601562 153.152344 L 97.714844 153.152344 L 97.714844 153.425781 C 98.125 153.464844 98.261719 153.582031 98.613281 154.070312 L 100.839844 157.351562 L 98.867188 159.832031 C 98.535156 160.261719 98.261719 160.398438 97.695312 160.476562 L 97.695312 160.75 L 100.507812 160.75 L 100.507812 160.476562 C 99.824219 160.398438 99.609375 160.28125 99.609375 159.988281 C 99.609375 159.753906 99.824219 159.402344 100.664062 158.269531 L 101.09375 157.703125 L 102.226562 159.519531 C 102.363281 159.734375 102.460938 159.988281 102.460938 160.125 C 102.460938 160.320312 102.265625 160.417969 101.875 160.4375 L 101.5625 160.476562 L 101.5625 160.75 Z M 105.390625 160.75 "/>
<path style=" stroke:none;fill-rule:nonzero;fill:rgb(0%,0%,0%);fill-opacity:1;" d="M 109.195312 164.714844 L 109.097656 164.675781 C 108.84375 165.105469 108.6875 165.183594 108.375 165.183594 L 106.617188 165.183594 L 107.847656 163.855469 C 108.511719 163.152344 108.804688 162.585938 108.804688 162 C 108.804688 161.257812 108.277344 160.671875 107.417969 160.671875 C 106.5 160.671875 106.03125 161.296875 105.875 162.175781 L 106.03125 162.214844 C 106.324219 161.472656 106.578125 161.238281 107.125 161.238281 C 107.769531 161.238281 108.160156 161.609375 108.160156 162.292969 C 108.160156 162.9375 107.90625 163.503906 107.183594 164.246094 L 105.855469 165.652344 L 105.855469 165.75 L 108.785156 165.75 Z M 109.195312 164.714844 "/>
<path style="fill:none;stroke-width:1;stroke-linecap:round;stroke-linejoin:round;stroke:rgb(0%,0%,0%);stroke-opacity:1;stroke-miterlimit:10;" d="M 150.765625 478.2 L 174.765625 478.2 L 174.765625 502.2 L 150.765625 502.2 Z M 150.765625 478.2 " transform="matrix(1.25,0,0,1.25,-100,-548.75)"/>
<path style=" stroke:none;fill-rule:nonzero;fill:rgb(0%,0%,0%);fill-opacity:1;" d="M 105.738281 67.75 L 105.738281 67.476562 C 104.9375 67.359375 104.742188 67.242188 104.742188 66.65625 L 104.742188 61.265625 C 104.742188 60.660156 104.976562 60.484375 105.738281 60.425781 L 105.738281 60.152344 L 101.929688 60.152344 L 101.929688 60.425781 C 102.710938 60.484375 102.925781 60.621094 102.925781 61.265625 L 102.925781 63.550781 L 100.210938 63.550781 L 100.210938 61.265625 C 100.210938 60.621094 100.425781 60.484375 101.226562 60.425781 L 101.226562 60.152344 L 97.4375 60.152344 L 97.4375 60.425781 C 98.199219 60.484375 98.394531 60.640625 98.394531 61.265625 L 98.394531 66.65625 C 98.394531 67.242188 98.21875 67.359375 97.4375 67.476562 L 97.4375 67.75 L 101.226562 67.75 L 101.226562 67.476562 C 100.40625 67.378906 100.210938 67.242188 100.210938 66.65625 L 100.210938 64.078125 L 102.925781 64.078125 L 102.925781 66.65625 C 102.925781 67.222656 102.75 67.378906 101.929688 67.476562 L 101.929688 67.75 Z M 105.738281 67.75 "/>
<path style=" stroke:none;fill-rule:nonzero;fill:rgb(0%,0%,0%);fill-opacity:1;" d="M 109.511719 70.464844 L 109.414062 70.425781 C 109.160156 70.855469 109.003906 70.933594 108.691406 70.933594 L 106.933594 70.933594 L 108.164062 69.605469 C 108.828125 68.902344 109.121094 68.335938 109.121094 67.75 C 109.121094 67.007812 108.59375 66.421875 107.734375 66.421875 C 106.816406 66.421875 106.347656 67.046875 106.191406 67.925781 L 106.347656 67.964844 C 106.640625 67.222656 106.894531 66.988281 107.441406 66.988281 C 108.085938 66.988281 108.476562 67.359375 108.476562 68.042969 C 108.476562 68.6875 108.222656 69.253906 107.5 69.996094 L 106.171875 71.402344 L 106.171875 71.5 L 109.101562 71.5 Z M 109.511719 70.464844 "/>
<path style="fill:none;stroke-width:1;stroke-linecap:round;stroke-linejoin:round;stroke:rgb(0%,0%,0%);stroke-opacity:1;stroke-miterlimit:10;" d="M 150.765625 516.4 L 174.765625 516.4 L 174.765625 540.4 L 150.765625 540.4 Z M 150.765625 516.4 " transform="matrix(1.25,0,0,1.25,-100,-548.75)"/>
<path style=" stroke:none;fill-rule:nonzero;fill:rgb(0%,0%,0%);fill-opacity:1;" d="M 105.738281 115.5 L 105.738281 115.226562 C 104.9375 115.109375 104.742188 114.992188 104.742188 114.40625 L 104.742188 109.015625 C 104.742188 108.410156 104.976562 108.234375 105.738281 108.175781 L 105.738281 107.902344 L 101.929688 107.902344 L 101.929688 108.175781 C 102.710938 108.234375 102.925781 108.371094 102.925781 109.015625 L 102.925781 111.300781 L 100.210938 111.300781 L 100.210938 109.015625 C 100.210938 108.371094 100.425781 108.234375 101.226562 108.175781 L 101.226562 107.902344 L 97.4375 107.902344 L 97.4375 108.175781 C 98.199219 108.234375 98.394531 108.390625 98.394531 109.015625 L 98.394531 114.40625 C 98.394531 114.992188 98.21875 115.109375 97.4375 115.226562 L 97.4375 115.5 L 101.226562 115.5 L 101.226562 115.226562 C 100.40625 115.128906 100.210938 114.992188 100.210938 114.40625 L 100.210938 111.828125 L 102.925781 111.828125 L 102.925781 114.40625 C 102.925781 114.972656 102.75 115.128906 101.929688 115.226562 L 101.929688 115.5 Z M 105.738281 115.5 "/>
<path style=" stroke:none;fill-rule:nonzero;fill:rgb(0%,0%,0%);fill-opacity:1;" d="M 109.511719 118.214844 L 109.414062 118.175781 C 109.160156 118.605469 109.003906 118.683594 108.691406 118.683594 L 106.933594 118.683594 L 108.164062 117.355469 C 108.828125 116.652344 109.121094 116.085938 109.121094 115.5 C 109.121094 114.757812 108.59375 114.171875 107.734375 114.171875 C 106.816406 114.171875 106.347656 114.796875 106.191406 115.675781 L 106.347656 115.714844 C 106.640625 114.972656 106.894531 114.738281 107.441406 114.738281 C 108.085938 114.738281 108.476562 115.109375 108.476562 115.792969 C 108.476562 116.4375 108.222656 117.003906 107.5 117.746094 L 106.171875 119.152344 L 106.171875 119.25 L 109.101562 119.25 Z M 109.511719 118.214844 "/>
<path style="fill:none;stroke-width:0.5;stroke-linecap:round;stroke-linejoin:round;stroke:rgb(0%,0%,0%);stroke-opacity:1;stroke-miterlimit:10;" d="M 157.746875 522.6 L 162.546875 522.6 " transform="matrix(1.25,0,0,1.25,-100,-548.75)"/>
<path style="fill:none;stroke-width:0.5;stroke-linecap:butt;stroke-linejoin:miter;stroke:rgb(0%,0%,0%);stroke-opacity:1;stroke-miterlimit:10;" d="M 164.546875 522.6 L 162.546875 522.6 M 162.546875 521.85 L 164.546875 522.6 L 162.546875 523.35 " transform="matrix(1.25,0,0,1.25,-100,-548.75)"/>
<path style="fill:none;stroke-width:1;stroke-linecap:round;stroke-linejoin:round;stroke:rgb(0%,0%,0%);stroke-opacity:1;stroke-miterlimit:10;" d="M 151.090625 554.6 C 146.78125 549.034375 142.58125 541.878125 141.078125 533.86875 M 140.86875 522.9125 C 141.78125 516.875 144.296875 511.390625 147.3125 506.7125 " transform="matrix(1.25,0,0,1.25,-100,-548.75)"/>
<path style="fill:none;stroke-width:1;stroke-linecap:butt;stroke-linejoin:miter;stroke:rgb(0%,0%,0%);stroke-opacity:1;stroke-miterlimit:10;" d="M 149.653125 503.465625 L 147.315625 506.7125 M 146.096875 505.83125 L 149.653125 503.465625 L 148.53125 507.5875 " transform="matrix(1.25,0,0,1.25,-100,-548.75)"/>
<path style="fill:none;stroke-width:1;stroke-linecap:round;stroke-linejoin:round;stroke:rgb(0%,0%,0%);stroke-opacity:1;stroke-miterlimit:10;" d="M 162.765625 554.6 L 162.765625 546.3 " transform="matrix(1.25,0,0,1.25,-100,-548.75)"/>
<path style="fill:none;stroke-width:1;stroke-linecap:butt;stroke-linejoin:miter;stroke:rgb(0%,0%,0%);stroke-opacity:1;stroke-miterlimit:10;" d="M 162.765625 542.3 L 162.765625 546.3 M 161.265625 546.3 L 162.765625 542.3 L 164.265625 546.3 " transform="matrix(1.25,0,0,1.25,-100,-548.75)"/>
<path style="fill-rule:nonzero;fill:rgb(69.803922%,85.098039%,100%);fill-opacity:1;stroke-width:1;stroke-linecap:round;stroke-linejoin:round;stroke:rgb(0%,0%,0%);stroke-opacity:1;stroke-miterlimit:10;" d="M 150.765625 440 L 174.765625 440 L 174.765625 464 L 150.765625 464 Z M 150.765625 440 " transform="matrix(1.25,0,0,1.25,-100,-548.75)"/>
<path style=" stroke:none;fill-rule:nonzero;fill:rgb(0%,0%,0%);fill-opacity:1;" d="M 105.5625 14.355469 C 105.5625 12.03125 103.902344 10.351562 101.636719 10.351562 C 99.292969 10.351562 97.59375 11.972656 97.59375 14.375 C 97.59375 16.699219 99.234375 18.339844 101.558594 18.339844 C 103.902344 18.339844 105.5625 16.699219 105.5625 14.355469 Z M 103.570312 14.433594 C 103.570312 16.757812 102.886719 17.96875 101.597656 17.96875 C 100.308594 17.96875 99.585938 16.777344 99.585938 14.414062 C 99.585938 12.050781 100.289062 10.722656 101.539062 10.722656 C 102.847656 10.722656 103.570312 12.03125 103.570312 14.433594 Z M 103.570312 14.433594 "/>
<path style=" stroke:none;fill-rule:nonzero;fill:rgb(0%,0%,0%);fill-opacity:1;" d="M 109.511719 20.839844 L 109.414062 20.800781 C 109.160156 21.230469 109.003906 21.308594 108.691406 21.308594 L 106.933594 21.308594 L 108.164062 19.980469 C 108.828125 19.277344 109.121094 18.710938 109.121094 18.125 C 109.121094 17.382812 108.59375 16.796875 107.734375 16.796875 C 106.816406 16.796875 106.347656 17.421875 106.191406 18.300781 L 106.347656 18.339844 C 106.640625 17.597656 106.894531 17.363281 107.441406 17.363281 C 108.085938 17.363281 108.476562 17.734375 108.476562 18.417969 C 108.476562 19.0625 108.222656 19.628906 107.5 20.371094 L 106.171875 21.777344 L 106.171875 21.875 L 109.101562 21.875 Z M 109.511719 20.839844 "/>
<path style="fill:none;stroke-width:1;stroke-linecap:round;stroke-linejoin:round;stroke:rgb(0%,0%,0%);stroke-opacity:1;stroke-miterlimit:10;" d="M 162.765625 478.2 L 162.765625 469.9 " transform="matrix(1.25,0,0,1.25,-100,-548.75)"/>
<path style="fill:none;stroke-width:1;stroke-linecap:butt;stroke-linejoin:miter;stroke:rgb(0%,0%,0%);stroke-opacity:1;stroke-miterlimit:10;" d="M 162.765625 465.9 L 162.765625 469.9 M 161.265625 469.9 L 162.765625 465.9 L 164.265625 469.9 " transform="matrix(1.25,0,0,1.25,-100,-548.75)"/>
<path style="fill:none;stroke-width:1;stroke-linecap:round;stroke-linejoin:round;stroke:rgb(0%,0%,0%);stroke-opacity:1;stroke-miterlimit:10;" d="M 174.765625 523.33125 C 180.653125 519.475 186.5 512.940625 186.5 502.2 C 186.5 500.034375 186.2625 497.80625 185.8375 495.534375 M 182.70625 485.00625 C 180.49375 479.36875 177.565625 473.846875 174.6375 468.99375 " transform="matrix(1.25,0,0,1.25,-100,-548.75)"/>
<path style="fill:none;stroke-width:1;stroke-linecap:butt;stroke-linejoin:miter;stroke:rgb(0%,0%,0%);stroke-opacity:1;stroke-miterlimit:10;" d="M 172.503125 465.60625 L 174.6375 468.99375 M 173.36875 469.79375 L 172.503125 465.60625 L 175.90625 468.190625 " transform="matrix(1.25,0,0,1.25,-100,-548.75)"/>
<path style="fill-rule:nonzero;fill:rgb(69.803922%,85.098039%,100%);fill-opacity:1;stroke-width:1;stroke-linecap:round;stroke-linejoin:round;stroke:rgb(0%,0%,0%);stroke-opacity:1;stroke-miterlimit:10;" d="M 203.9 554.6 L 227.9 554.6 L 227.9 578.6 L 203.9 578.6 Z M 203.9 554.6 " transform="matrix(1.25,0,0,1.25,-100,-548.75)"/>
<path style=" stroke:none;fill-rule:nonzero;fill:rgb(0%,0%,0%);fill-opacity:1;" d="M 171.808594 160.75 L 171.808594 160.476562 C 171.417969 160.457031 171.242188 160.320312 170.714844 159.5 L 168.664062 156.316406 L 169.5625 155.066406 C 170.539062 153.699219 170.832031 153.503906 171.671875 153.425781 L 171.671875 153.152344 L 168.859375 153.152344 L 168.859375 153.425781 L 169.09375 153.445312 C 169.523438 153.484375 169.679688 153.582031 169.679688 153.835938 C 169.679688 154.089844 169.542969 154.304688 169.015625 155.027344 L 168.390625 155.90625 L 167.296875 154.207031 C 167.160156 153.992188 167.140625 153.933594 167.140625 153.796875 C 167.140625 153.5625 167.257812 153.464844 167.667969 153.445312 L 168.019531 153.425781 L 168.019531 153.152344 L 164.132812 153.152344 L 164.132812 153.425781 C 164.542969 153.464844 164.679688 153.582031 165.03125 154.070312 L 167.257812 157.351562 L 165.285156 159.832031 C 164.953125 160.261719 164.679688 160.398438 164.113281 160.476562 L 164.113281 160.75 L 166.925781 160.75 L 166.925781 160.476562 C 166.242188 160.398438 166.027344 160.28125 166.027344 159.988281 C 166.027344 159.753906 166.242188 159.402344 167.082031 158.269531 L 167.511719 157.703125 L 168.644531 159.519531 C 168.78125 159.734375 168.878906 159.988281 168.878906 160.125 C 168.878906 160.320312 168.683594 160.417969 168.292969 160.4375 L 167.980469 160.476562 L 167.980469 160.75 Z M 171.808594 160.75 "/>
<path style=" stroke:none;fill-rule:nonzero;fill:rgb(0%,0%,0%);fill-opacity:1;" d="M 172.511719 161.921875 C 172.824219 161.375 173.175781 161.121094 173.644531 161.121094 C 174.132812 161.121094 174.445312 161.394531 174.445312 161.902344 C 174.445312 162.351562 174.210938 162.683594 173.839844 162.898438 C 173.683594 162.996094 173.488281 163.074219 173.214844 163.171875 L 173.214844 163.269531 C 173.644531 163.269531 173.800781 163.289062 173.976562 163.347656 C 174.484375 163.503906 174.757812 163.875 174.757812 164.441406 C 174.757812 165.066406 174.328125 165.59375 173.78125 165.59375 C 173.566406 165.59375 173.410156 165.554688 173.136719 165.359375 C 172.921875 165.203125 172.804688 165.164062 172.667969 165.164062 C 172.511719 165.164062 172.375 165.261719 172.375 165.417969 C 172.375 165.691406 172.667969 165.847656 173.214844 165.847656 C 173.878906 165.847656 174.582031 165.632812 174.953125 165.164062 C 175.167969 164.871094 175.304688 164.5 175.304688 164.109375 C 175.304688 163.71875 175.167969 163.367188 174.972656 163.132812 C 174.816406 162.976562 174.679688 162.878906 174.347656 162.742188 C 174.835938 162.449219 175.03125 162.058594 175.03125 161.707031 C 175.03125 161.101562 174.5625 160.671875 173.878906 160.671875 C 173.097656 160.671875 172.609375 161.179688 172.394531 161.902344 Z M 172.511719 161.921875 "/>
<path style="fill:none;stroke-width:1;stroke-linecap:round;stroke-linejoin:round;stroke:rgb(0%,0%,0%);stroke-opacity:1;stroke-miterlimit:10;" d="M 203.9 478.2 L 227.9 478.2 L 227.9 502.2 L 203.9 502.2 Z M 203.9 478.2 " transform="matrix(1.25,0,0,1.25,-100,-548.75)"/>
<path style=" stroke:none;fill-rule:nonzero;fill:rgb(0%,0%,0%);fill-opacity:1;" d="M 172.160156 67.75 L 172.160156 67.476562 C 171.359375 67.359375 171.164062 67.242188 171.164062 66.65625 L 171.164062 61.265625 C 171.164062 60.660156 171.398438 60.484375 172.160156 60.425781 L 172.160156 60.152344 L 168.351562 60.152344 L 168.351562 60.425781 C 169.132812 60.484375 169.347656 60.621094 169.347656 61.265625 L 169.347656 63.550781 L 166.632812 63.550781 L 166.632812 61.265625 C 166.632812 60.621094 166.847656 60.484375 167.648438 60.425781 L 167.648438 60.152344 L 163.859375 60.152344 L 163.859375 60.425781 C 164.621094 60.484375 164.816406 60.640625 164.816406 61.265625 L 164.816406 66.65625 C 164.816406 67.242188 164.640625 67.359375 163.859375 67.476562 L 163.859375 67.75 L 167.648438 67.75 L 167.648438 67.476562 C 166.828125 67.378906 166.632812 67.242188 166.632812 66.65625 L 166.632812 64.078125 L 169.347656 64.078125 L 169.347656 66.65625 C 169.347656 67.222656 169.171875 67.378906 168.351562 67.476562 L 168.351562 67.75 Z M 172.160156 67.75 "/>
<path style=" stroke:none;fill-rule:nonzero;fill:rgb(0%,0%,0%);fill-opacity:1;" d="M 172.824219 67.671875 C 173.136719 67.125 173.488281 66.871094 173.957031 66.871094 C 174.445312 66.871094 174.757812 67.144531 174.757812 67.652344 C 174.757812 68.101562 174.523438 68.433594 174.152344 68.648438 C 173.996094 68.746094 173.800781 68.824219 173.527344 68.921875 L 173.527344 69.019531 C 173.957031 69.019531 174.113281 69.039062 174.289062 69.097656 C 174.796875 69.253906 175.070312 69.625 175.070312 70.191406 C 175.070312 70.816406 174.640625 71.34375 174.09375 71.34375 C 173.878906 71.34375 173.722656 71.304688 173.449219 71.109375 C 173.234375 70.953125 173.117188 70.914062 172.980469 70.914062 C 172.824219 70.914062 172.6875 71.011719 172.6875 71.167969 C 172.6875 71.441406 172.980469 71.597656 173.527344 71.597656 C 174.191406 71.597656 174.894531 71.382812 175.265625 70.914062 C 175.480469 70.621094 175.617188 70.25 175.617188 69.859375 C 175.617188 69.46875 175.480469 69.117188 175.285156 68.882812 C 175.128906 68.726562 174.992188 68.628906 174.660156 68.492188 C 175.148438 68.199219 175.34375 67.808594 175.34375 67.457031 C 175.34375 66.851562 174.875 66.421875 174.191406 66.421875 C 173.410156 66.421875 172.921875 66.929688 172.707031 67.652344 Z M 172.824219 67.671875 "/>
<path style="fill:none;stroke-width:0.5;stroke-linecap:round;stroke-linejoin:round;stroke:rgb(0%,0%,0%);stroke-opacity:1;stroke-miterlimit:10;" d="M 217.25 484.45 L 212.45 484.45 " transform="matrix(1.25,0,0,1.25,-100,-548.75)"/>
<path style="fill:none;stroke-width:0.5;stroke-linecap:butt;stroke-linejoin:miter;stroke:rgb(0%,0%,0%);stroke-opacity:1;stroke-miterlimit:10;" d="M 210.45 484.45 L 212.45 484.45 M 212.45 485.2 L 210.45 484.45 L 212.45 483.7 " transform="matrix(1.25,0,0,1.25,-100,-548.75)"/>
<path style="fill:none;stroke-width:0.5;stroke-linecap:round;stroke-linejoin:round;stroke:rgb(0%,0%,0%);stroke-opacity:1;stroke-miterlimit:10;" d="M 210.4 522.6 L 215.2 522.6 " transform="matrix(1.25,0,0,1.25,-100,-548.75)"/>
<path style="fill:none;stroke-width:0.5;stroke-linecap:butt;stroke-linejoin:miter;stroke:rgb(0%,0%,0%);stroke-opacity:1;stroke-miterlimit:10;" d="M 217.2 522.6 L 215.2 522.6 M 215.2 521.85 L 217.2 522.6 L 215.2 523.35 " transform="matrix(1.25,0,0,1.25,-100,-548.75)"/>
<path style="fill:none;stroke-width:1;stroke-linecap:round;stroke-linejoin:round;stroke:rgb(0%,0%,0%);stroke-opacity:1;stroke-miterlimit:10;" d="M 204.940625 554.6 C 200.9 549.034375 196.95625 541.878125 195.546875 533.875 M 195.34375 522.909375 C 196.18125 517.04375 198.434375 511.7 201.15625 507.109375 " transform="matrix(1.25,0,0,1.25,-100,-548.75)"/>
<path style="fill:none;stroke-width:1;stroke-linecap:butt;stroke-linejoin:miter;stroke:rgb(0%,0%,0%);stroke-opacity:1;stroke-miterlimit:10;" d="M 203.375 503.78125 L 201.15625 507.109375 M 199.909375 506.278125 L 203.375 503.78125 L 202.40625 507.940625 " transform="matrix(1.25,0,0,1.25,-100,-548.75)"/>
<path style="fill:none;stroke-width:1;stroke-linecap:round;stroke-linejoin:round;stroke:rgb(0%,0%,0%);stroke-opacity:1;stroke-miterlimit:10;" d="M 215.9 554.6 L 215.9 546.3 " transform="matrix(1.25,0,0,1.25,-100,-548.75)"/>
<path style="fill:none;stroke-width:1;stroke-linecap:butt;stroke-linejoin:miter;stroke:rgb(0%,0%,0%);stroke-opacity:1;stroke-miterlimit:10;" d="M 215.9 542.3 L 215.9 546.3 M 214.4 546.3 L 215.9 542.3 L 217.4 546.3 " transform="matrix(1.25,0,0,1.25,-100,-548.75)"/>
<path style="fill-rule:nonzero;fill:rgb(69.803922%,85.098039%,100%);fill-opacity:1;stroke-width:1;stroke-linecap:round;stroke-linejoin:round;stroke:rgb(0%,0%,0%);stroke-opacity:1;stroke-miterlimit:10;" d="M 204.434375 440 L 228.434375 440 L 228.434375 464 L 204.434375 464 Z M 204.434375 440 " transform="matrix(1.25,0,0,1.25,-100,-548.75)"/>
<path style=" stroke:none;fill-rule:nonzero;fill:rgb(0%,0%,0%);fill-opacity:1;" d="M 172.652344 14.355469 C 172.652344 12.03125 170.992188 10.351562 168.726562 10.351562 C 166.382812 10.351562 164.683594 11.972656 164.683594 14.375 C 164.683594 16.699219 166.324219 18.339844 168.648438 18.339844 C 170.992188 18.339844 172.652344 16.699219 172.652344 14.355469 Z M 170.660156 14.433594 C 170.660156 16.757812 169.976562 17.96875 168.6875 17.96875 C 167.398438 17.96875 166.675781 16.777344 166.675781 14.414062 C 166.675781 12.050781 167.378906 10.722656 168.628906 10.722656 C 169.9375 10.722656 170.660156 12.03125 170.660156 14.433594 Z M 170.660156 14.433594 "/>
<path style=" stroke:none;fill-rule:nonzero;fill:rgb(0%,0%,0%);fill-opacity:1;" d="M 173.492188 18.046875 C 173.804688 17.5 174.15625 17.246094 174.625 17.246094 C 175.113281 17.246094 175.425781 17.519531 175.425781 18.027344 C 175.425781 18.476562 175.191406 18.808594 174.820312 19.023438 C 174.664062 19.121094 174.46875 19.199219 174.195312 19.296875 L 174.195312 19.394531 C 174.625 19.394531 174.78125 19.414062 174.957031 19.472656 C 175.464844 19.628906 175.738281 20 175.738281 20.566406 C 175.738281 21.191406 175.308594 21.71875 174.761719 21.71875 C 174.546875 21.71875 174.390625 21.679688 174.117188 21.484375 C 173.902344 21.328125 173.785156 21.289062 173.648438 21.289062 C 173.492188 21.289062 173.355469 21.386719 173.355469 21.542969 C 173.355469 21.816406 173.648438 21.972656 174.195312 21.972656 C 174.859375 21.972656 175.5625 21.757812 175.933594 21.289062 C 176.148438 20.996094 176.285156 20.625 176.285156 20.234375 C 176.285156 19.84375 176.148438 19.492188 175.953125 19.257812 C 175.796875 19.101562 175.660156 19.003906 175.328125 18.867188 C 175.816406 18.574219 176.011719 18.183594 176.011719 17.832031 C 176.011719 17.226562 175.542969 16.796875 174.859375 16.796875 C 174.078125 16.796875 173.589844 17.304688 173.375 18.027344 Z M 173.492188 18.046875 "/>
<path style="fill:none;stroke-width:1;stroke-linecap:round;stroke-linejoin:round;stroke:rgb(0%,0%,0%);stroke-opacity:1;stroke-miterlimit:10;" d="M 216.065625 478.2 L 216.184375 469.9 " transform="matrix(1.25,0,0,1.25,-100,-548.75)"/>
<path style="fill:none;stroke-width:1;stroke-linecap:butt;stroke-linejoin:miter;stroke:rgb(0%,0%,0%);stroke-opacity:1;stroke-miterlimit:10;" d="M 216.2375 465.9 L 216.184375 469.9 M 214.684375 469.878125 L 216.2375 465.9 L 217.684375 469.921875 " transform="matrix(1.25,0,0,1.25,-100,-548.75)"/>
<path style="fill:none;stroke-width:1;stroke-linecap:round;stroke-linejoin:round;stroke:rgb(0%,0%,0%);stroke-opacity:1;stroke-miterlimit:10;" d="M 227.9 522.88125 C 233.26875 518.975 238.425 512.5375 238.5 502.2 C 238.515625 499.8625 238.275 497.45 237.825 494.996875 M 234.825 484.421875 C 232.8125 479.025 230.2 473.753125 227.58125 469.0875 " transform="matrix(1.25,0,0,1.25,-100,-548.75)"/>
<path style="fill:none;stroke-width:1;stroke-linecap:butt;stroke-linejoin:miter;stroke:rgb(0%,0%,0%);stroke-opacity:1;stroke-miterlimit:10;" d="M 225.55625 465.6375 L 227.58125 469.0875 M 226.2875 469.846875 L 225.55625 465.6375 L 228.875 468.328125 " transform="matrix(1.25,0,0,1.25,-100,-548.75)"/>
<path style="fill-rule:nonzero;fill:rgb(69.803922%,85.098039%,100%);fill-opacity:1;stroke-width:1;stroke-linecap:round;stroke-linejoin:round;stroke:rgb(0%,0%,0%);stroke-opacity:1;stroke-miterlimit:10;" d="M 277.9 554.6 L 301.9 554.6 L 301.9 578.6 L 277.9 578.6 Z M 277.9 554.6 " transform="matrix(1.25,0,0,1.25,-100,-548.75)"/>
<path style=" stroke:none;fill-rule:nonzero;fill:rgb(0%,0%,0%);fill-opacity:1;" d="M 264.101562 160.75 L 264.101562 160.476562 C 263.710938 160.457031 263.535156 160.320312 263.007812 159.5 L 260.957031 156.316406 L 261.855469 155.066406 C 262.832031 153.699219 263.125 153.503906 263.964844 153.425781 L 263.964844 153.152344 L 261.152344 153.152344 L 261.152344 153.425781 L 261.386719 153.445312 C 261.816406 153.484375 261.972656 153.582031 261.972656 153.835938 C 261.972656 154.089844 261.835938 154.304688 261.308594 155.027344 L 260.683594 155.90625 L 259.589844 154.207031 C 259.453125 153.992188 259.433594 153.933594 259.433594 153.796875 C 259.433594 153.5625 259.550781 153.464844 259.960938 153.445312 L 260.3125 153.425781 L 260.3125 153.152344 L 256.425781 153.152344 L 256.425781 153.425781 C 256.835938 153.464844 256.972656 153.582031 257.324219 154.070312 L 259.550781 157.351562 L 257.578125 159.832031 C 257.246094 160.261719 256.972656 160.398438 256.40625 160.476562 L 256.40625 160.75 L 259.21875 160.75 L 259.21875 160.476562 C 258.535156 160.398438 258.320312 160.28125 258.320312 159.988281 C 258.320312 159.753906 258.535156 159.402344 259.375 158.269531 L 259.804688 157.703125 L 260.9375 159.519531 C 261.074219 159.734375 261.171875 159.988281 261.171875 160.125 C 261.171875 160.320312 260.976562 160.417969 260.585938 160.4375 L 260.273438 160.476562 L 260.273438 160.75 Z M 264.101562 160.75 "/>
<path style=" stroke:none;fill-rule:nonzero;fill:rgb(0%,0%,0%);fill-opacity:1;" d="M 269.097656 160.847656 L 265.113281 160.847656 L 264.800781 162.019531 L 264.9375 162.039062 C 265.289062 161.238281 265.523438 161.121094 266.714844 161.121094 L 265.640625 165.066406 C 265.523438 165.476562 265.347656 165.59375 264.839844 165.632812 L 264.839844 165.75 L 267.007812 165.75 L 267.007812 165.632812 L 266.734375 165.613281 C 266.421875 165.574219 266.34375 165.515625 266.34375 165.28125 C 266.34375 165.125 266.402344 164.949219 266.441406 164.792969 L 267.476562 161.121094 L 267.90625 161.121094 C 268.394531 161.121094 268.667969 161.316406 268.667969 161.726562 C 268.667969 161.824219 268.648438 161.941406 268.648438 162.058594 L 268.765625 162.078125 Z M 269.097656 160.847656 "/>
<path style="fill:none;stroke-width:1;stroke-linecap:round;stroke-linejoin:round;stroke:rgb(0%,0%,0%);stroke-opacity:1;stroke-miterlimit:10;" d="M 277.9 478.2 L 301.9 478.2 L 301.9 502.2 L 277.9 502.2 Z M 277.9 478.2 " transform="matrix(1.25,0,0,1.25,-100,-548.75)"/>
<path style=" stroke:none;fill-rule:nonzero;fill:rgb(0%,0%,0%);fill-opacity:1;" d="M 264.449219 67.75 L 264.449219 67.476562 C 263.648438 67.359375 263.453125 67.242188 263.453125 66.65625 L 263.453125 61.265625 C 263.453125 60.660156 263.6875 60.484375 264.449219 60.425781 L 264.449219 60.152344 L 260.640625 60.152344 L 260.640625 60.425781 C 261.421875 60.484375 261.636719 60.621094 261.636719 61.265625 L 261.636719 63.550781 L 258.921875 63.550781 L 258.921875 61.265625 C 258.921875 60.621094 259.136719 60.484375 259.9375 60.425781 L 259.9375 60.152344 L 256.148438 60.152344 L 256.148438 60.425781 C 256.910156 60.484375 257.105469 60.640625 257.105469 61.265625 L 257.105469 66.65625 C 257.105469 67.242188 256.929688 67.359375 256.148438 67.476562 L 256.148438 67.75 L 259.9375 67.75 L 259.9375 67.476562 C 259.117188 67.378906 258.921875 67.242188 258.921875 66.65625 L 258.921875 64.078125 L 261.636719 64.078125 L 261.636719 66.65625 C 261.636719 67.222656 261.460938 67.378906 260.640625 67.476562 L 260.640625 67.75 Z M 264.449219 67.75 "/>
<path style=" stroke:none;fill-rule:nonzero;fill:rgb(0%,0%,0%);fill-opacity:1;" d="M 269.414062 66.597656 L 265.429688 66.597656 L 265.117188 67.769531 L 265.253906 67.789062 C 265.605469 66.988281 265.839844 66.871094 267.03125 66.871094 L 265.957031 70.816406 C 265.839844 71.226562 265.664062 71.34375 265.15625 71.382812 L 265.15625 71.5 L 267.324219 71.5 L 267.324219 71.382812 L 267.050781 71.363281 C 266.738281 71.324219 266.660156 71.265625 266.660156 71.03125 C 266.660156 70.875 266.71875 70.699219 266.757812 70.542969 L 267.792969 66.871094 L 268.222656 66.871094 C 268.710938 66.871094 268.984375 67.066406 268.984375 67.476562 C 268.984375 67.574219 268.964844 67.691406 268.964844 67.808594 L 269.082031 67.828125 Z M 269.414062 66.597656 "/>
<path style="fill:none;stroke-width:0.5;stroke-linecap:round;stroke-linejoin:round;stroke:rgb(0%,0%,0%);stroke-opacity:1;stroke-miterlimit:10;" d="M 291.2 484.45 L 286.4 484.45 " transform="matrix(1.25,0,0,1.25,-100,-548.75)"/>
<path style="fill:none;stroke-width:0.5;stroke-linecap:butt;stroke-linejoin:miter;stroke:rgb(0%,0%,0%);stroke-opacity:1;stroke-miterlimit:10;" d="M 284.4 484.45 L 286.4 484.45 M 286.4 485.2 L 284.4 484.45 L 286.4 483.7 " transform="matrix(1.25,0,0,1.25,-100,-548.75)"/>
<path style="fill:none;stroke-width:1;stroke-linecap:round;stroke-linejoin:round;stroke:rgb(0%,0%,0%);stroke-opacity:1;stroke-miterlimit:10;" d="M 277.9 516.4 L 301.9 516.4 L 301.9 540.4 L 277.9 540.4 Z M 277.9 516.4 " transform="matrix(1.25,0,0,1.25,-100,-548.75)"/>
<path style=" stroke:none;fill-rule:nonzero;fill:rgb(0%,0%,0%);fill-opacity:1;" d="M 264.449219 115.5 L 264.449219 115.226562 C 263.648438 115.109375 263.453125 114.992188 263.453125 114.40625 L 263.453125 109.015625 C 263.453125 108.410156 263.6875 108.234375 264.449219 108.175781 L 264.449219 107.902344 L 260.640625 107.902344 L 260.640625 108.175781 C 261.421875 108.234375 261.636719 108.371094 261.636719 109.015625 L 261.636719 111.300781 L 258.921875 111.300781 L 258.921875 109.015625 C 258.921875 108.371094 259.136719 108.234375 259.9375 108.175781 L 259.9375 107.902344 L 256.148438 107.902344 L 256.148438 108.175781 C 256.910156 108.234375 257.105469 108.390625 257.105469 109.015625 L 257.105469 114.40625 C 257.105469 114.992188 256.929688 115.109375 256.148438 115.226562 L 256.148438 115.5 L 259.9375 115.5 L 259.9375 115.226562 C 259.117188 115.128906 258.921875 114.992188 258.921875 114.40625 L 258.921875 111.828125 L 261.636719 111.828125 L 261.636719 114.40625 C 261.636719 114.972656 261.460938 115.128906 260.640625 115.226562 L 260.640625 115.5 Z M 264.449219 115.5 "/>
<path style=" stroke:none;fill-rule:nonzero;fill:rgb(0%,0%,0%);fill-opacity:1;" d="M 269.414062 114.347656 L 265.429688 114.347656 L 265.117188 115.519531 L 265.253906 115.539062 C 265.605469 114.738281 265.839844 114.621094 267.03125 114.621094 L 265.957031 118.566406 C 265.839844 118.976562 265.664062 119.09375 265.15625 119.132812 L 265.15625 119.25 L 267.324219 119.25 L 267.324219 119.132812 L 267.050781 119.113281 C 266.738281 119.074219 266.660156 119.015625 266.660156 118.78125 C 266.660156 118.625 266.71875 118.449219 266.757812 118.292969 L 267.792969 114.621094 L 268.222656 114.621094 C 268.710938 114.621094 268.984375 114.816406 268.984375 115.226562 C 268.984375 115.324219 268.964844 115.441406 268.964844 115.558594 L 269.082031 115.578125 Z M 269.414062 114.347656 "/>
<path style="fill:none;stroke-width:0.5;stroke-linecap:round;stroke-linejoin:round;stroke:rgb(0%,0%,0%);stroke-opacity:1;stroke-miterlimit:10;" d="M 284.65 522.6 L 289.45 522.6 " transform="matrix(1.25,0,0,1.25,-100,-548.75)"/>
<path style="fill:none;stroke-width:0.5;stroke-linecap:butt;stroke-linejoin:miter;stroke:rgb(0%,0%,0%);stroke-opacity:1;stroke-miterlimit:10;" d="M 291.45 522.6 L 289.45 522.6 M 289.45 521.85 L 291.45 522.6 L 289.45 523.35 " transform="matrix(1.25,0,0,1.25,-100,-548.75)"/>
<path style="fill:none;stroke-width:1;stroke-linecap:round;stroke-linejoin:round;stroke:rgb(0%,0%,0%);stroke-opacity:1;stroke-miterlimit:10;" d="M 278.278125 554.6 C 274.015625 548.953125 269.95 541.628125 268.8125 533.3125 M 269.109375 522.35625 C 270.171875 516.734375 272.50625 511.5625 275.246875 507.078125 " transform="matrix(1.25,0,0,1.25,-100,-548.75)"/>
<path style="fill:none;stroke-width:1;stroke-linecap:butt;stroke-linejoin:miter;stroke:rgb(0%,0%,0%);stroke-opacity:1;stroke-miterlimit:10;" d="M 277.49375 503.775 L 275.246875 507.08125 M 274.003125 506.2375 L 277.49375 503.775 L 276.4875 507.921875 " transform="matrix(1.25,0,0,1.25,-100,-548.75)"/>
<path style="fill:none;stroke-width:1;stroke-linecap:round;stroke-linejoin:round;stroke:rgb(0%,0%,0%);stroke-opacity:1;stroke-miterlimit:10;" d="M 289.9 554.6 L 289.9 546.3 " transform="matrix(1.25,0,0,1.25,-100,-548.75)"/>
<path style="fill:none;stroke-width:1;stroke-linecap:butt;stroke-linejoin:miter;stroke:rgb(0%,0%,0%);stroke-opacity:1;stroke-miterlimit:10;" d="M 289.9 542.3 L 289.9 546.3 M 288.4 546.3 L 289.9 542.3 L 291.4 546.3 " transform="matrix(1.25,0,0,1.25,-100,-548.75)"/>
<path style="fill-rule:nonzero;fill:rgb(69.803922%,85.098039%,100%);fill-opacity:1;stroke-width:1;stroke-linecap:round;stroke-linejoin:round;stroke:rgb(0%,0%,0%);stroke-opacity:1;stroke-miterlimit:10;" d="M 277.9 440 L 301.9 440 L 301.9 464 L 277.9 464 Z M 277.9 440 " transform="matrix(1.25,0,0,1.25,-100,-548.75)"/>
<path style=" stroke:none;fill-rule:nonzero;fill:rgb(0%,0%,0%);fill-opacity:1;" d="M 264.273438 14.355469 C 264.273438 12.03125 262.613281 10.351562 260.347656 10.351562 C 258.003906 10.351562 256.304688 11.972656 256.304688 14.375 C 256.304688 16.699219 257.945312 18.339844 260.269531 18.339844 C 262.613281 18.339844 264.273438 16.699219 264.273438 14.355469 Z M 262.28125 14.433594 C 262.28125 16.757812 261.597656 17.96875 260.308594 17.96875 C 259.019531 17.96875 258.296875 16.777344 258.296875 14.414062 C 258.296875 12.050781 259 10.722656 260.25 10.722656 C 261.558594 10.722656 262.28125 12.03125 262.28125 14.433594 Z M 262.28125 14.433594 "/>
<path style=" stroke:none;fill-rule:nonzero;fill:rgb(0%,0%,0%);fill-opacity:1;" d="M 269.414062 16.972656 L 265.429688 16.972656 L 265.117188 18.144531 L 265.253906 18.164062 C 265.605469 17.363281 265.839844 17.246094 267.03125 17.246094 L 265.957031 21.191406 C 265.839844 21.601562 265.664062 21.71875 265.15625 21.757812 L 265.15625 21.875 L 267.324219 21.875 L 267.324219 21.757812 L 267.050781 21.738281 C 266.738281 21.699219 266.660156 21.640625 266.660156 21.40625 C 266.660156 21.25 266.71875 21.074219 266.757812 20.917969 L 267.792969 17.246094 L 268.222656 17.246094 C 268.710938 17.246094 268.984375 17.441406 268.984375 17.851562 C 268.984375 17.949219 268.964844 18.066406 268.964844 18.183594 L 269.082031 18.203125 Z M 269.414062 16.972656 "/>
<path style="fill:none;stroke-width:1;stroke-linecap:round;stroke-linejoin:round;stroke:rgb(0%,0%,0%);stroke-opacity:1;stroke-miterlimit:10;" d="M 289.9 478.2 L 289.9 469.9 " transform="matrix(1.25,0,0,1.25,-100,-548.75)"/>
<path style="fill:none;stroke-width:1;stroke-linecap:butt;stroke-linejoin:miter;stroke:rgb(0%,0%,0%);stroke-opacity:1;stroke-miterlimit:10;" d="M 289.9 465.9 L 289.9 469.9 M 288.4 469.9 L 289.9 465.9 L 291.4 469.9 " transform="matrix(1.25,0,0,1.25,-100,-548.75)"/>
<path style="fill:none;stroke-width:1;stroke-linecap:round;stroke-linejoin:round;stroke:rgb(0%,0%,0%);stroke-opacity:1;stroke-miterlimit:10;" d="M 301.9 523.45 C 307.940625 519.609375 314 513.05 314 502.2 C 314 491.375 307.96875 478.815625 301.940625 468.96875 " transform="matrix(1.25,0,0,1.25,-100,-548.75)"/>
<path style="fill:none;stroke-width:1;stroke-linecap:butt;stroke-linejoin:miter;stroke:rgb(0%,0%,0%);stroke-opacity:1;stroke-miterlimit:10;" d="M 299.784375 465.6 L 301.940625 468.96875 M 300.68125 469.778125 L 299.784375 465.6 L 303.203125 468.159375 " transform="matrix(1.25,0,0,1.25,-100,-548.75)"/>
<path style=" stroke:none;fill-rule:nonzero;fill:rgb(0%,0%,0%);fill-opacity:1;" d="M 219.699219 113.136719 C 219.699219 112.785156 219.40625 112.492188 219.074219 112.492188 C 218.722656 112.492188 218.449219 112.785156 218.449219 113.136719 C 218.449219 113.46875 218.722656 113.742188 219.054688 113.742188 C 219.40625 113.742188 219.699219 113.488281 219.699219 113.136719 Z M 216.359375 113.136719 C 216.359375 112.785156 216.066406 112.492188 215.734375 112.492188 C 215.382812 112.492188 215.109375 112.785156 215.109375 113.136719 C 215.109375 113.46875 215.382812 113.742188 215.695312 113.742188 C 216.066406 113.742188 216.359375 113.488281 216.359375 113.136719 Z M 213.019531 113.136719 C 213.019531 112.785156 212.726562 112.492188 212.394531 112.492188 C 212.042969 112.492188 211.769531 112.785156 211.769531 113.136719 C 211.769531 113.46875 212.042969 113.742188 212.355469 113.742188 C 212.726562 113.742188 213.019531 113.488281 213.019531 113.136719 Z M 213.019531 113.136719 "/>
<path style=" stroke:none;fill-rule:nonzero;fill:rgb(0%,0%,0%);fill-opacity:1;" d="M 219.699219 65.386719 C 219.699219 65.035156 219.40625 64.742188 219.074219 64.742188 C 218.722656 64.742188 218.449219 65.035156 218.449219 65.386719 C 218.449219 65.71875 218.722656 65.992188 219.054688 65.992188 C 219.40625 65.992188 219.699219 65.738281 219.699219 65.386719 Z M 216.359375 65.386719 C 216.359375 65.035156 216.066406 64.742188 215.734375 64.742188 C 215.382812 64.742188 215.109375 65.035156 215.109375 65.386719 C 215.109375 65.71875 215.382812 65.992188 215.695312 65.992188 C 216.066406 65.992188 216.359375 65.738281 216.359375 65.386719 Z M 213.019531 65.386719 C 213.019531 65.035156 212.726562 64.742188 212.394531 64.742188 C 212.042969 64.742188 211.769531 65.035156 211.769531 65.386719 C 211.769531 65.71875 212.042969 65.992188 212.355469 65.992188 C 212.726562 65.992188 213.019531 65.738281 213.019531 65.386719 Z M 213.019531 65.386719 "/>
<path style="fill:none;stroke-width:1;stroke-linecap:round;stroke-linejoin:round;stroke:rgb(0%,0%,0%);stroke-opacity:1;stroke-miterlimit:10;" d="M 174.765625 528.4 L 198 528.4 " transform="matrix(1.25,0,0,1.25,-100,-548.75)"/>
<path style="fill:none;stroke-width:1;stroke-linecap:butt;stroke-linejoin:miter;stroke:rgb(0%,0%,0%);stroke-opacity:1;stroke-miterlimit:10;" d="M 202 528.4 L 198 528.4 M 198 526.9 L 202 528.4 L 198 529.9 " transform="matrix(1.25,0,0,1.25,-100,-548.75)"/>
<path style="fill:none;stroke-width:1;stroke-linecap:round;stroke-linejoin:round;stroke:rgb(0%,0%,0%);stroke-opacity:1;stroke-miterlimit:10;" d="M 227.9 528.075 L 238 527.8 " transform="matrix(1.25,0,0,1.25,-100,-548.75)"/>
<path style="fill:none;stroke-width:1;stroke-linecap:butt;stroke-linejoin:miter;stroke:rgb(0%,0%,0%);stroke-opacity:1;stroke-miterlimit:10;" d="M 242 527.69375 L 238 527.8 M 237.9625 526.30625 L 242 527.69375 L 238.04375 529.3 " transform="matrix(1.25,0,0,1.25,-100,-548.75)"/>
<path style="fill:none;stroke-width:1;stroke-linecap:round;stroke-linejoin:round;stroke:rgb(0%,0%,0%);stroke-opacity:1;stroke-miterlimit:10;" d="M 261.903125 527.64375 L 272.003125 527.91875 " transform="matrix(1.25,0,0,1.25,-100,-548.75)"/>
<path style="fill:none;stroke-width:1;stroke-linecap:butt;stroke-linejoin:miter;stroke:rgb(0%,0%,0%);stroke-opacity:1;stroke-miterlimit:10;" d="M 276 528.025 L 272.003125 527.91875 M 272.04375 526.41875 L 276 528.025 L 271.9625 529.4125 " transform="matrix(1.25,0,0,1.25,-100,-548.75)"/>
<path style="fill:none;stroke-width:1;stroke-linecap:round;stroke-linejoin:round;stroke:rgb(0%,0%,0%);stroke-opacity:1;stroke-miterlimit:10;" d="M 277.9 489.875 L 267.796875 489.6 " transform="matrix(1.25,0,0,1.25,-100,-548.75)"/>
<path style="fill:none;stroke-width:1;stroke-linecap:butt;stroke-linejoin:miter;stroke:rgb(0%,0%,0%);stroke-opacity:1;stroke-miterlimit:10;" d="M 263.8 489.496875 L 267.796875 489.6 M 267.75625 491.1 L 263.8 489.496875 L 267.840625 488.1 " transform="matrix(1.25,0,0,1.25,-100,-548.75)"/>
<path style="fill:none;stroke-width:1;stroke-linecap:round;stroke-linejoin:round;stroke:rgb(0%,0%,0%);stroke-opacity:1;stroke-miterlimit:10;" d="M 243.9 489.440625 L 233.796875 489.715625 " transform="matrix(1.25,0,0,1.25,-100,-548.75)"/>
<path style="fill:none;stroke-width:1;stroke-linecap:butt;stroke-linejoin:miter;stroke:rgb(0%,0%,0%);stroke-opacity:1;stroke-miterlimit:10;" d="M 229.8 489.825 L 233.796875 489.715625 M 233.840625 491.215625 L 229.8 489.825 L 233.75625 488.21875 " transform="matrix(1.25,0,0,1.25,-100,-548.75)"/>
<path style="fill:none;stroke-width:1;stroke-linecap:round;stroke-linejoin:round;stroke:rgb(0%,0%,0%);stroke-opacity:1;stroke-miterlimit:10;" d="M 203.9 490.2 L 180.6625 490.2 " transform="matrix(1.25,0,0,1.25,-100,-548.75)"/>
<path style="fill:none;stroke-width:1;stroke-linecap:butt;stroke-linejoin:miter;stroke:rgb(0%,0%,0%);stroke-opacity:1;stroke-miterlimit:10;" d="M 176.6625 490.2 L 180.6625 490.2 M 180.6625 491.7 L 176.6625 490.2 L 180.6625 488.7 " transform="matrix(1.25,0,0,1.25,-100,-548.75)"/>
<path style="fill:none;stroke-width:0.5;stroke-linecap:round;stroke-linejoin:round;stroke:rgb(0%,0%,0%);stroke-opacity:1;stroke-miterlimit:10;" d="M 164.4 484.45 L 159.6 484.45 " transform="matrix(1.25,0,0,1.25,-100,-548.75)"/>
<path style="fill:none;stroke-width:0.5;stroke-linecap:butt;stroke-linejoin:miter;stroke:rgb(0%,0%,0%);stroke-opacity:1;stroke-miterlimit:10;" d="M 157.6 484.45 L 159.6 484.45 M 159.6 485.2 L 157.6 484.45 L 159.6 483.7 " transform="matrix(1.25,0,0,1.25,-100,-548.75)"/>
<path style="fill-rule:nonzero;fill:rgb(69.803922%,85.098039%,100%);fill-opacity:1;stroke-width:1;stroke-linecap:round;stroke-linejoin:round;stroke:rgb(0%,0%,0%);stroke-opacity:1;stroke-miterlimit:10;" d="M 97.09375 554.6 L 121.09375 554.6 L 121.09375 578.6 L 97.09375 578.6 Z M 97.09375 554.6 " transform="matrix(1.25,0,0,1.25,-100,-548.75)"/>
<path style=" stroke:none;fill-rule:nonzero;fill:rgb(0%,0%,0%);fill-opacity:1;" d="M 38.300781 160.75 L 38.300781 160.476562 C 37.910156 160.457031 37.734375 160.320312 37.207031 159.5 L 35.15625 156.316406 L 36.054688 155.066406 C 37.03125 153.699219 37.324219 153.503906 38.164062 153.425781 L 38.164062 153.152344 L 35.351562 153.152344 L 35.351562 153.425781 L 35.585938 153.445312 C 36.015625 153.484375 36.171875 153.582031 36.171875 153.835938 C 36.171875 154.089844 36.035156 154.304688 35.507812 155.027344 L 34.882812 155.90625 L 33.789062 154.207031 C 33.652344 153.992188 33.632812 153.933594 33.632812 153.796875 C 33.632812 153.5625 33.75 153.464844 34.160156 153.445312 L 34.511719 153.425781 L 34.511719 153.152344 L 30.625 153.152344 L 30.625 153.425781 C 31.035156 153.464844 31.171875 153.582031 31.523438 154.070312 L 33.75 157.351562 L 31.777344 159.832031 C 31.445312 160.261719 31.171875 160.398438 30.605469 160.476562 L 30.605469 160.75 L 33.417969 160.75 L 33.417969 160.476562 C 32.734375 160.398438 32.519531 160.28125 32.519531 159.988281 C 32.519531 159.753906 32.734375 159.402344 33.574219 158.269531 L 34.003906 157.703125 L 35.136719 159.519531 C 35.273438 159.734375 35.371094 159.988281 35.371094 160.125 C 35.371094 160.320312 35.175781 160.417969 34.785156 160.4375 L 34.472656 160.476562 L 34.472656 160.75 Z M 38.300781 160.75 "/>
<path style=" stroke:none;fill-rule:nonzero;fill:rgb(0%,0%,0%);fill-opacity:1;" d="M 41.5 165.75 L 41.5 165.632812 C 40.933594 165.632812 40.796875 165.496094 40.796875 165.183594 L 40.796875 160.710938 L 40.71875 160.671875 L 39.390625 161.355469 L 39.390625 161.472656 L 39.585938 161.394531 C 39.722656 161.335938 39.839844 161.296875 39.917969 161.296875 C 40.074219 161.296875 40.152344 161.414062 40.152344 161.667969 L 40.152344 165.046875 C 40.152344 165.457031 39.996094 165.613281 39.429688 165.632812 L 39.429688 165.75 Z M 41.5 165.75 "/>
<path style="fill:none;stroke-width:1;stroke-linecap:round;stroke-linejoin:round;stroke:rgb(0%,0%,0%);stroke-opacity:1;stroke-miterlimit:10;" d="M 97.09375 478.2 L 121.09375 478.2 L 121.09375 502.2 L 97.09375 502.2 Z M 97.09375 478.2 " transform="matrix(1.25,0,0,1.25,-100,-548.75)"/>
<path style=" stroke:none;fill-rule:nonzero;fill:rgb(0%,0%,0%);fill-opacity:1;" d="M 38.648438 67.75 L 38.648438 67.476562 C 37.847656 67.359375 37.652344 67.242188 37.652344 66.65625 L 37.652344 61.265625 C 37.652344 60.660156 37.886719 60.484375 38.648438 60.425781 L 38.648438 60.152344 L 34.839844 60.152344 L 34.839844 60.425781 C 35.621094 60.484375 35.835938 60.621094 35.835938 61.265625 L 35.835938 63.550781 L 33.121094 63.550781 L 33.121094 61.265625 C 33.121094 60.621094 33.335938 60.484375 34.136719 60.425781 L 34.136719 60.152344 L 30.347656 60.152344 L 30.347656 60.425781 C 31.109375 60.484375 31.304688 60.640625 31.304688 61.265625 L 31.304688 66.65625 C 31.304688 67.242188 31.128906 67.359375 30.347656 67.476562 L 30.347656 67.75 L 34.136719 67.75 L 34.136719 67.476562 C 33.316406 67.378906 33.121094 67.242188 33.121094 66.65625 L 33.121094 64.078125 L 35.835938 64.078125 L 35.835938 66.65625 C 35.835938 67.222656 35.660156 67.378906 34.839844 67.476562 L 34.839844 67.75 Z M 38.648438 67.75 "/>
<path style=" stroke:none;fill-rule:nonzero;fill:rgb(0%,0%,0%);fill-opacity:1;" d="M 41.816406 71.5 L 41.816406 71.382812 C 41.25 71.382812 41.113281 71.246094 41.113281 70.933594 L 41.113281 66.460938 L 41.035156 66.421875 L 39.707031 67.105469 L 39.707031 67.222656 L 39.902344 67.144531 C 40.039062 67.085938 40.15625 67.046875 40.234375 67.046875 C 40.390625 67.046875 40.46875 67.164062 40.46875 67.417969 L 40.46875 70.796875 C 40.46875 71.207031 40.3125 71.363281 39.746094 71.382812 L 39.746094 71.5 Z M 41.816406 71.5 "/>
<path style="fill:none;stroke-width:1;stroke-linecap:round;stroke-linejoin:round;stroke:rgb(0%,0%,0%);stroke-opacity:1;stroke-miterlimit:10;" d="M 97.09375 516.4 L 121.09375 516.4 L 121.09375 540.4 L 97.09375 540.4 Z M 97.09375 516.4 " transform="matrix(1.25,0,0,1.25,-100,-548.75)"/>
<path style=" stroke:none;fill-rule:nonzero;fill:rgb(0%,0%,0%);fill-opacity:1;" d="M 38.648438 115.5 L 38.648438 115.226562 C 37.847656 115.109375 37.652344 114.992188 37.652344 114.40625 L 37.652344 109.015625 C 37.652344 108.410156 37.886719 108.234375 38.648438 108.175781 L 38.648438 107.902344 L 34.839844 107.902344 L 34.839844 108.175781 C 35.621094 108.234375 35.835938 108.371094 35.835938 109.015625 L 35.835938 111.300781 L 33.121094 111.300781 L 33.121094 109.015625 C 33.121094 108.371094 33.335938 108.234375 34.136719 108.175781 L 34.136719 107.902344 L 30.347656 107.902344 L 30.347656 108.175781 C 31.109375 108.234375 31.304688 108.390625 31.304688 109.015625 L 31.304688 114.40625 C 31.304688 114.992188 31.128906 115.109375 30.347656 115.226562 L 30.347656 115.5 L 34.136719 115.5 L 34.136719 115.226562 C 33.316406 115.128906 33.121094 114.992188 33.121094 114.40625 L 33.121094 111.828125 L 35.835938 111.828125 L 35.835938 114.40625 C 35.835938 114.972656 35.660156 115.128906 34.839844 115.226562 L 34.839844 115.5 Z M 38.648438 115.5 "/>
<path style=" stroke:none;fill-rule:nonzero;fill:rgb(0%,0%,0%);fill-opacity:1;" d="M 41.816406 119.25 L 41.816406 119.132812 C 41.25 119.132812 41.113281 118.996094 41.113281 118.683594 L 41.113281 114.210938 L 41.035156 114.171875 L 39.707031 114.855469 L 39.707031 114.972656 L 39.902344 114.894531 C 40.039062 114.835938 40.15625 114.796875 40.234375 114.796875 C 40.390625 114.796875 40.46875 114.914062 40.46875 115.167969 L 40.46875 118.546875 C 40.46875 118.957031 40.3125 119.113281 39.746094 119.132812 L 39.746094 119.25 Z M 41.816406 119.25 "/>
<path style="fill:none;stroke-width:0.5;stroke-linecap:round;stroke-linejoin:round;stroke:rgb(0%,0%,0%);stroke-opacity:1;stroke-miterlimit:10;" d="M 103.8 522.6 L 108.6 522.6 " transform="matrix(1.25,0,0,1.25,-100,-548.75)"/>
<path style="fill:none;stroke-width:0.5;stroke-linecap:butt;stroke-linejoin:miter;stroke:rgb(0%,0%,0%);stroke-opacity:1;stroke-miterlimit:10;" d="M 110.6 522.6 L 108.6 522.6 M 108.6 521.85 L 110.6 522.6 L 108.6 523.35 " transform="matrix(1.25,0,0,1.25,-100,-548.75)"/>
<path style="fill:none;stroke-width:1;stroke-linecap:round;stroke-linejoin:round;stroke:rgb(0%,0%,0%);stroke-opacity:1;stroke-miterlimit:10;" d="M 97.41875 554.6 C 92.0375 547.653125 86.828125 538.21875 86.828125 527.75 C 86.828125 519.79375 89.840625 512.6125 93.64375 506.7125 " transform="matrix(1.25,0,0,1.25,-100,-548.75)"/>
<path style="fill:none;stroke-width:1;stroke-linecap:butt;stroke-linejoin:miter;stroke:rgb(0%,0%,0%);stroke-opacity:1;stroke-miterlimit:10;" d="M 95.98125 503.465625 L 93.64375 506.7125 M 92.425 505.83125 L 95.98125 503.465625 L 94.859375 507.5875 " transform="matrix(1.25,0,0,1.25,-100,-548.75)"/>
<path style="fill:none;stroke-width:1;stroke-linecap:round;stroke-linejoin:round;stroke:rgb(0%,0%,0%);stroke-opacity:1;stroke-miterlimit:10;" d="M 109.09375 554.6 L 109.09375 546.3 " transform="matrix(1.25,0,0,1.25,-100,-548.75)"/>
<path style="fill:none;stroke-width:1;stroke-linecap:butt;stroke-linejoin:miter;stroke:rgb(0%,0%,0%);stroke-opacity:1;stroke-miterlimit:10;" d="M 109.09375 542.3 L 109.09375 546.3 M 107.59375 546.3 L 109.09375 542.3 L 110.59375 546.3 " transform="matrix(1.25,0,0,1.25,-100,-548.75)"/>
<path style="fill-rule:nonzero;fill:rgb(69.803922%,85.098039%,100%);fill-opacity:1;stroke-width:1;stroke-linecap:round;stroke-linejoin:round;stroke:rgb(0%,0%,0%);stroke-opacity:1;stroke-miterlimit:10;" d="M 97.09375 440 L 121.09375 440 L 121.09375 464 L 97.09375 464 Z M 97.09375 440 " transform="matrix(1.25,0,0,1.25,-100,-548.75)"/>
<path style=" stroke:none;fill-rule:nonzero;fill:rgb(0%,0%,0%);fill-opacity:1;" d="M 38.472656 14.355469 C 38.472656 12.03125 36.8125 10.351562 34.546875 10.351562 C 32.203125 10.351562 30.503906 11.972656 30.503906 14.375 C 30.503906 16.699219 32.144531 18.339844 34.46875 18.339844 C 36.8125 18.339844 38.472656 16.699219 38.472656 14.355469 Z M 36.480469 14.433594 C 36.480469 16.757812 35.796875 17.96875 34.507812 17.96875 C 33.21875 17.96875 32.496094 16.777344 32.496094 14.414062 C 32.496094 12.050781 33.199219 10.722656 34.449219 10.722656 C 35.757812 10.722656 36.480469 12.03125 36.480469 14.433594 Z M 36.480469 14.433594 "/>
<path style=" stroke:none;fill-rule:nonzero;fill:rgb(0%,0%,0%);fill-opacity:1;" d="M 41.816406 21.875 L 41.816406 21.757812 C 41.25 21.757812 41.113281 21.621094 41.113281 21.308594 L 41.113281 16.835938 L 41.035156 16.796875 L 39.707031 17.480469 L 39.707031 17.597656 L 39.902344 17.519531 C 40.039062 17.460938 40.15625 17.421875 40.234375 17.421875 C 40.390625 17.421875 40.46875 17.539062 40.46875 17.792969 L 40.46875 21.171875 C 40.46875 21.582031 40.3125 21.738281 39.746094 21.757812 L 39.746094 21.875 Z M 41.816406 21.875 "/>
<path style="fill:none;stroke-width:1;stroke-linecap:round;stroke-linejoin:round;stroke:rgb(0%,0%,0%);stroke-opacity:1;stroke-miterlimit:10;" d="M 109.09375 478.2 L 109.09375 469.9 " transform="matrix(1.25,0,0,1.25,-100,-548.75)"/>
<path style="fill:none;stroke-width:1;stroke-linecap:butt;stroke-linejoin:miter;stroke:rgb(0%,0%,0%);stroke-opacity:1;stroke-miterlimit:10;" d="M 109.09375 465.9 L 109.09375 469.9 M 107.59375 469.9 L 109.09375 465.9 L 110.59375 469.9 " transform="matrix(1.25,0,0,1.25,-100,-548.75)"/>
<path style="fill:none;stroke-width:1;stroke-linecap:round;stroke-linejoin:round;stroke:rgb(0%,0%,0%);stroke-opacity:1;stroke-miterlimit:10;" d="M 121.09375 528.4 L 144.8625 528.4 " transform="matrix(1.25,0,0,1.25,-100,-548.75)"/>
<path style="fill:none;stroke-width:1;stroke-linecap:butt;stroke-linejoin:miter;stroke:rgb(0%,0%,0%);stroke-opacity:1;stroke-miterlimit:10;" d="M 148.8625 528.4 L 144.8625 528.4 M 144.8625 526.9 L 148.8625 528.4 L 144.8625 529.9 " transform="matrix(1.25,0,0,1.25,-100,-548.75)"/>
<path style="fill:none;stroke-width:1;stroke-linecap:round;stroke-linejoin:round;stroke:rgb(0%,0%,0%);stroke-opacity:1;stroke-miterlimit:10;" d="M 150.765625 490.2 L 126.99375 490.2 " transform="matrix(1.25,0,0,1.25,-100,-548.75)"/>
<path style="fill:none;stroke-width:1;stroke-linecap:butt;stroke-linejoin:miter;stroke:rgb(0%,0%,0%);stroke-opacity:1;stroke-miterlimit:10;" d="M 122.99375 490.2 L 126.99375 490.2 M 126.99375 491.7 L 122.99375 490.2 L 126.99375 488.7 " transform="matrix(1.25,0,0,1.25,-100,-548.75)"/>
<path style="fill:none;stroke-width:0.5;stroke-linecap:round;stroke-linejoin:round;stroke:rgb(0%,0%,0%);stroke-opacity:1;stroke-miterlimit:10;" d="M 110.59375 484.45 L 105.79375 484.45 " transform="matrix(1.25,0,0,1.25,-100,-548.75)"/>
<path style="fill:none;stroke-width:0.5;stroke-linecap:butt;stroke-linejoin:miter;stroke:rgb(0%,0%,0%);stroke-opacity:1;stroke-miterlimit:10;" d="M 103.79375 484.45 L 105.79375 484.45 M 105.79375 485.2 L 103.79375 484.45 L 105.79375 483.7 " transform="matrix(1.25,0,0,1.25,-100,-548.75)"/>
<path style="fill:none;stroke-width:1;stroke-linecap:round;stroke-linejoin:round;stroke:rgb(0%,0%,0%);stroke-opacity:1;stroke-miterlimit:10;" d="M 121.09375 523.49375 C 127.19375 519.659375 133.3375 513.09375 133.3375 502.2 C 133.3375 491.371875 127.265625 478.809375 121.2 468.9625 " transform="matrix(1.25,0,0,1.25,-100,-548.75)"/>
<path style="fill:none;stroke-width:1;stroke-linecap:butt;stroke-linejoin:miter;stroke:rgb(0%,0%,0%);stroke-opacity:1;stroke-miterlimit:10;" d="M 119.034375 465.596875 L 121.2 468.9625 M 119.940625 469.775 L 119.034375 465.596875 L 122.4625 468.15 " transform="matrix(1.25,0,0,1.25,-100,-548.75)"/>
</g>
</svg>
