<?xml version="1.0" encoding="UTF-8"?>
<svg xmlns="http://www.w3.org/2000/svg" xmlns:xlink="http://www.w3.org/1999/xlink" width="223pt" height="146pt" viewBox="0 0 223 146" version="1.1">
<g id="surface1">
<path style=" stroke:none;fill-rule:nonzero;fill:rgb(0%,0%,0%);fill-opacity:1;" d="M 98.582031 16.609375 L 98.503906 8.5625 L 99.480469 8.542969 L 99.558594 16.589844 Z M 98.582031 16.609375 "/>
<path style=" stroke:none;fill-rule:nonzero;fill:rgb(0%,0%,0%);fill-opacity:1;" d="M 100.6875 13.671875 C 100.6875 12.59375 100.980469 11.785156 101.566406 11.25 C 102.074219 10.820312 102.6875 10.601562 103.402344 10.585938 C 104.210938 10.585938 104.867188 10.847656 105.375 11.367188 C 105.894531 11.875 106.15625 12.59375 106.15625 13.515625 C 106.167969 14.273438 106.066406 14.863281 105.84375 15.292969 C 105.621094 15.722656 105.296875 16.0625 104.867188 16.308594 C 104.4375 16.558594 103.96875 16.679688 103.460938 16.679688 C 102.640625 16.6875 101.976562 16.441406 101.46875 15.917969 C 100.960938 15.398438 100.699219 14.648438 100.6875 13.671875 Z M 101.703125 13.652344 C 101.714844 14.394531 101.886719 14.957031 102.210938 15.332031 C 102.550781 15.699219 102.964844 15.875 103.460938 15.859375 C 103.957031 15.859375 104.359375 15.671875 104.671875 15.292969 C 104.996094 14.917969 105.152344 14.34375 105.140625 13.574219 C 105.140625 12.859375 104.972656 12.320312 104.632812 11.953125 C 104.308594 11.578125 103.898438 11.386719 103.402344 11.386719 C 102.90625 11.402344 102.496094 11.597656 102.171875 11.972656 C 101.859375 12.339844 101.703125 12.898438 101.703125 13.652344 Z M 101.703125 13.652344 "/>
<path style=" stroke:none;fill-rule:nonzero;fill:rgb(0%,0%,0%);fill-opacity:1;" d="M 108.976562 16.496094 L 106.691406 10.675781 L 107.746094 10.65625 L 109.035156 14.152344 C 109.164062 14.53125 109.289062 14.914062 109.40625 15.304688 C 109.496094 15.007812 109.621094 14.640625 109.777344 14.210938 L 111.027344 10.636719 L 112.042969 10.617188 L 109.894531 16.476562 Z M 108.976562 16.496094 "/>
<path style=" stroke:none;fill-rule:nonzero;fill:rgb(0%,0%,0%);fill-opacity:1;" d="M 116.945312 14.523438 L 117.980469 14.640625 C 117.824219 15.242188 117.523438 15.710938 117.082031 16.046875 C 116.652344 16.386719 116.097656 16.554688 115.421875 16.554688 C 114.574219 16.5625 113.898438 16.316406 113.390625 15.792969 C 112.882812 15.273438 112.621094 14.539062 112.609375 13.585938 C 112.609375 12.609375 112.855469 11.847656 113.351562 11.300781 C 113.859375 10.753906 114.515625 10.476562 115.324219 10.460938 C 116.105469 10.460938 116.742188 10.722656 117.238281 11.242188 C 117.730469 11.765625 117.980469 12.507812 117.980469 13.46875 C 117.980469 13.535156 117.984375 13.625 118 13.742188 L 113.644531 13.78125 C 113.683594 14.421875 113.863281 14.910156 114.191406 15.246094 C 114.527344 15.585938 114.945312 15.75 115.441406 15.734375 C 115.804688 15.734375 116.109375 15.644531 116.359375 15.460938 C 116.605469 15.265625 116.800781 14.953125 116.945312 14.523438 Z M 113.683594 12.960938 L 116.945312 12.921875 C 116.90625 12.429688 116.78125 12.0625 116.574219 11.828125 C 116.246094 11.453125 115.832031 11.261719 115.324219 11.261719 C 114.867188 11.277344 114.488281 11.4375 114.191406 11.75 C 113.890625 12.050781 113.722656 12.453125 113.683594 12.960938 Z M 113.683594 12.960938 "/>
<path style=" stroke:none;fill-rule:nonzero;fill:rgb(0%,0%,0%);fill-opacity:1;" d="M 118.828125 14.652344 L 119.804688 14.476562 C 119.851562 14.867188 120.007812 15.167969 120.273438 15.375 C 120.53125 15.585938 120.882812 15.683594 121.328125 15.667969 C 121.78125 15.667969 122.113281 15.578125 122.324219 15.394531 C 122.542969 15.214844 122.65625 15 122.65625 14.75 C 122.65625 14.515625 122.558594 14.339844 122.363281 14.222656 C 122.214844 14.132812 121.878906 14.015625 121.347656 13.871094 C 120.613281 13.703125 120.105469 13.554688 119.824219 13.421875 C 119.535156 13.292969 119.320312 13.117188 119.179688 12.894531 C 119.03125 12.660156 118.964844 12.402344 118.964844 12.113281 C 118.949219 11.855469 119.003906 11.613281 119.121094 11.390625 C 119.238281 11.171875 119.398438 10.976562 119.609375 10.804688 C 119.765625 10.703125 119.96875 10.609375 120.234375 10.53125 C 120.507812 10.453125 120.789062 10.414062 121.09375 10.414062 C 121.546875 10.402344 121.941406 10.460938 122.285156 10.589844 C 122.636719 10.722656 122.894531 10.898438 123.066406 11.117188 C 123.230469 11.328125 123.359375 11.621094 123.4375 11.996094 L 122.460938 12.152344 C 122.421875 11.855469 122.289062 11.621094 122.070312 11.449219 C 121.84375 11.28125 121.546875 11.203125 121.171875 11.214844 C 120.710938 11.214844 120.390625 11.292969 120.195312 11.449219 C 120 11.59375 119.90625 11.769531 119.921875 11.976562 C 119.921875 12.109375 119.960938 12.21875 120.039062 12.308594 C 120.117188 12.425781 120.242188 12.519531 120.429688 12.582031 C 120.515625 12.621094 120.804688 12.699219 121.289062 12.816406 C 121.992188 13 122.480469 13.148438 122.753906 13.265625 C 123.035156 13.371094 123.261719 13.539062 123.417969 13.773438 C 123.582031 13.996094 123.671875 14.277344 123.671875 14.613281 C 123.671875 14.953125 123.574219 15.273438 123.378906 15.570312 C 123.191406 15.859375 122.917969 16.085938 122.558594 16.253906 C 122.207031 16.410156 121.796875 16.488281 121.328125 16.488281 C 120.570312 16.496094 119.988281 16.351562 119.589844 16.039062 C 119.199219 15.726562 118.945312 15.265625 118.828125 14.652344 Z M 118.828125 14.652344 "/>
<path style="fill-rule:nonzero;fill:rgb(40%,74.901961%,100%);fill-opacity:1;stroke-width:1;stroke-linecap:round;stroke-linejoin:round;stroke:rgb(0%,0%,0%);stroke-opacity:1;stroke-miterlimit:10;" d="M 472.51875 551.55 C 477.25625 556.1875 477.3375 563.784375 472.7 568.51875 C 468.0625 573.25625 460.465625 573.3375 455.73125 568.7 C 450.996875 564.0625 450.9125 556.465625 455.55 551.73125 C 460.1875 546.996875 467.784375 546.9125 472.51875 551.55 " transform="matrix(1.25,0,0,1.25,-468.75,-655)"/>
<path style="fill-rule:nonzero;fill:rgb(69.803922%,85.098039%,100%);fill-opacity:1;stroke-width:1;stroke-linecap:round;stroke-linejoin:round;stroke:rgb(0%,0%,0%);stroke-opacity:1;stroke-miterlimit:10;" d="M 440.484375 595.515625 C 445.171875 600.2 445.171875 607.8 440.484375 612.484375 C 435.8 617.171875 428.2 617.171875 423.515625 612.484375 C 418.828125 607.8 418.828125 600.2 423.515625 595.515625 C 428.2 590.828125 435.8 590.828125 440.484375 595.515625 " transform="matrix(1.25,0,0,1.25,-468.75,-655)"/>
<path style="fill-rule:nonzero;fill:rgb(69.803922%,85.098039%,100%);fill-opacity:1;stroke-width:1;stroke-linecap:round;stroke-linejoin:round;stroke:rgb(0%,0%,0%);stroke-opacity:1;stroke-miterlimit:10;" d="M 396.484375 595.515625 C 401.171875 600.2 401.171875 607.8 396.484375 612.484375 C 391.8 617.171875 384.2 617.171875 379.515625 612.484375 C 374.828125 607.8 374.828125 600.2 379.515625 595.515625 C 384.2 590.828125 391.8 590.828125 396.484375 595.515625 " transform="matrix(1.25,0,0,1.25,-468.75,-655)"/>
<path style="fill-rule:nonzero;fill:rgb(69.803922%,85.098039%,100%);fill-opacity:1;stroke-width:1;stroke-linecap:round;stroke-linejoin:round;stroke:rgb(0%,0%,0%);stroke-opacity:1;stroke-miterlimit:10;" d="M 504.484375 595.515625 C 509.171875 600.2 509.171875 607.8 504.484375 612.484375 C 499.8 617.171875 492.2 617.171875 487.515625 612.484375 C 482.828125 607.8 482.828125 600.2 487.515625 595.515625 C 492.2 590.828125 499.8 590.828125 504.484375 595.515625 " transform="matrix(1.25,0,0,1.25,-468.75,-655)"/>
<path style="fill-rule:nonzero;fill:rgb(69.803922%,85.098039%,100%);fill-opacity:1;stroke-width:1;stroke-linecap:round;stroke-linejoin:round;stroke:rgb(0%,0%,0%);stroke-opacity:1;stroke-miterlimit:10;" d="M 548.484375 595.515625 C 553.171875 600.2 553.171875 607.8 548.484375 612.484375 C 543.8 617.171875 536.2 617.171875 531.515625 612.484375 C 526.828125 607.8 526.828125 600.2 531.515625 595.515625 C 536.2 590.828125 543.8 590.828125 548.484375 595.515625 " transform="matrix(1.25,0,0,1.25,-468.75,-655)"/>
<path style="fill:none;stroke-width:1;stroke-linecap:round;stroke-linejoin:round;stroke:rgb(0%,0%,0%);stroke-opacity:1;stroke-miterlimit:10;" d="M 439.090625 594.315625 L 453.55 574.56875 " transform="matrix(1.25,0,0,1.25,-468.75,-655)"/>
<path style="fill:none;stroke-width:1;stroke-linecap:butt;stroke-linejoin:miter;stroke:rgb(0%,0%,0%);stroke-opacity:1;stroke-miterlimit:10;" d="M 455.9125 571.340625 L 453.55 574.56875 M 452.340625 573.684375 L 455.9125 571.340625 L 454.7625 575.45625 " transform="matrix(1.25,0,0,1.25,-468.75,-655)"/>
<path style="fill:none;stroke-width:1;stroke-linecap:round;stroke-linejoin:round;stroke:rgb(0%,0%,0%);stroke-opacity:1;stroke-miterlimit:10;" d="M 398.4 598.00625 L 448.6125 569.065625 " transform="matrix(1.25,0,0,1.25,-468.75,-655)"/>
<path style="fill:none;stroke-width:1;stroke-linecap:butt;stroke-linejoin:miter;stroke:rgb(0%,0%,0%);stroke-opacity:1;stroke-miterlimit:10;" d="M 452.078125 567.065625 L 448.6125 569.065625 M 447.8625 567.765625 L 452.078125 567.065625 L 449.3625 570.3625 " transform="matrix(1.25,0,0,1.25,-468.75,-655)"/>
<path style="fill:none;stroke-width:1;stroke-linecap:round;stroke-linejoin:round;stroke:rgb(0%,0%,0%);stroke-opacity:1;stroke-miterlimit:10;" d="M 488.94375 594.2875 L 474.65 574.609375 " transform="matrix(1.25,0,0,1.25,-468.75,-655)"/>
<path style="fill:none;stroke-width:1;stroke-linecap:butt;stroke-linejoin:miter;stroke:rgb(0%,0%,0%);stroke-opacity:1;stroke-miterlimit:10;" d="M 472.296875 571.371875 L 474.65 574.609375 M 473.434375 575.49375 L 472.296875 571.371875 L 475.859375 573.725 " transform="matrix(1.25,0,0,1.25,-468.75,-655)"/>
<path style="fill:none;stroke-width:1;stroke-linecap:round;stroke-linejoin:round;stroke:rgb(0%,0%,0%);stroke-opacity:1;stroke-miterlimit:10;" d="M 529.609375 597.99375 L 479.625 569.0875 " transform="matrix(1.25,0,0,1.25,-468.75,-655)"/>
<path style="fill:none;stroke-width:1;stroke-linecap:butt;stroke-linejoin:miter;stroke:rgb(0%,0%,0%);stroke-opacity:1;stroke-miterlimit:10;" d="M 476.159375 567.0875 L 479.625 569.0875 M 478.871875 570.3875 L 476.159375 567.0875 L 480.375 567.7875 " transform="matrix(1.25,0,0,1.25,-468.75,-655)"/>
<path style=" stroke:none;fill-rule:nonzero;fill:rgb(0%,0%,0%);fill-opacity:1;" d="M 10.714844 135.015625 L 10.851562 135.875 C 10.5625 135.9375 10.316406 135.972656 10.109375 135.972656 C 9.742188 135.972656 9.464844 135.914062 9.269531 135.796875 C 9.074219 135.679688 8.929688 135.53125 8.839844 135.347656 C 8.761719 135.164062 8.722656 134.78125 8.722656 134.195312 L 8.722656 130.835938 L 8 130.835938 L 8 130.054688 L 8.722656 130.054688 L 8.722656 128.609375 L 9.71875 128.023438 L 9.71875 130.054688 L 10.714844 130.054688 L 10.714844 130.835938 L 9.71875 130.835938 L 9.71875 134.234375 C 9.71875 134.519531 9.730469 134.703125 9.757812 134.78125 C 9.796875 134.859375 9.855469 134.925781 9.933594 134.976562 C 10.011719 135.027344 10.121094 135.054688 10.265625 135.054688 C 10.382812 135.054688 10.53125 135.042969 10.714844 135.015625 Z M 10.714844 135.015625 "/>
<path style=" stroke:none;fill-rule:nonzero;fill:rgb(0%,0%,0%);fill-opacity:1;" d="M 11.671875 135.894531 L 11.671875 127.847656 L 12.667969 127.847656 L 12.667969 130.738281 C 13.125 130.203125 13.703125 129.9375 14.40625 129.9375 C 14.835938 129.9375 15.207031 130.023438 15.519531 130.191406 C 15.84375 130.359375 16.074219 130.59375 16.203125 130.894531 C 16.347656 131.195312 16.417969 131.628906 16.417969 132.203125 L 16.417969 135.894531 L 15.441406 135.894531 L 15.441406 132.203125 C 15.441406 131.707031 15.332031 131.351562 15.109375 131.128906 C 14.902344 130.894531 14.601562 130.777344 14.210938 130.777344 C 13.910156 130.777344 13.632812 130.855469 13.371094 131.011719 C 13.109375 131.15625 12.929688 131.355469 12.824219 131.617188 C 12.71875 131.878906 12.667969 132.242188 12.667969 132.710938 L 12.667969 135.894531 Z M 11.671875 135.894531 "/>
<path style=" stroke:none;fill-rule:nonzero;fill:rgb(0%,0%,0%);fill-opacity:1;" d="M 21.910156 134.019531 L 22.945312 134.136719 C 22.773438 134.734375 22.464844 135.203125 22.027344 135.542969 C 21.597656 135.867188 21.039062 136.03125 20.367188 136.03125 C 19.515625 136.03125 18.84375 135.769531 18.335938 135.25 C 17.835938 134.714844 17.59375 133.972656 17.59375 133.023438 C 17.59375 132.046875 17.847656 131.292969 18.355469 130.757812 C 18.863281 130.210938 19.515625 129.9375 20.328125 129.9375 C 21.109375 129.9375 21.738281 130.203125 22.222656 130.738281 C 22.714844 131.257812 22.964844 132 22.964844 132.964844 C 22.964844 133.03125 22.964844 133.121094 22.964844 133.238281 L 18.609375 133.238281 C 18.648438 133.875 18.828125 134.363281 19.15625 134.703125 C 19.476562 135.042969 19.886719 135.210938 20.386719 135.210938 C 20.746094 135.210938 21.054688 135.121094 21.304688 134.9375 C 21.5625 134.742188 21.761719 134.4375 21.910156 134.019531 Z M 18.667969 132.417969 L 21.929688 132.417969 C 21.890625 131.921875 21.761719 131.550781 21.558594 131.304688 C 21.246094 130.925781 20.835938 130.738281 20.328125 130.738281 C 19.867188 130.738281 19.488281 130.894531 19.175781 131.207031 C 18.871094 131.507812 18.707031 131.910156 18.667969 132.417969 Z M 18.667969 132.417969 "/>
<path style=" stroke:none;fill-rule:nonzero;fill:rgb(0%,0%,0%);fill-opacity:1;" d="M 59.703125 135.894531 L 59.703125 130.054688 L 60.582031 130.054688 L 60.582031 130.875 C 60.761719 130.589844 61 130.359375 61.304688 130.191406 C 61.617188 130.023438 61.96875 129.9375 62.359375 129.9375 C 62.789062 129.9375 63.140625 130.027344 63.414062 130.210938 C 63.6875 130.378906 63.882812 130.628906 64 130.953125 C 64.46875 130.277344 65.0625 129.9375 65.796875 129.9375 C 66.382812 129.9375 66.832031 130.101562 67.144531 130.425781 C 67.457031 130.738281 67.613281 131.226562 67.613281 131.890625 L 67.613281 135.894531 L 66.617188 135.894531 L 66.617188 132.222656 C 66.617188 131.820312 66.582031 131.53125 66.519531 131.363281 C 66.464844 131.195312 66.351562 131.058594 66.1875 130.953125 C 66.015625 130.835938 65.816406 130.777344 65.582031 130.777344 C 65.175781 130.777344 64.839844 130.914062 64.566406 131.1875 C 64.292969 131.460938 64.15625 131.898438 64.15625 132.496094 L 64.15625 135.894531 L 63.160156 135.894531 L 63.160156 132.105469 C 63.160156 131.664062 63.082031 131.332031 62.925781 131.109375 C 62.769531 130.886719 62.503906 130.777344 62.144531 130.777344 C 61.855469 130.777344 61.597656 130.855469 61.363281 131.011719 C 61.128906 131.15625 60.957031 131.371094 60.855469 131.65625 C 60.746094 131.929688 60.699219 132.332031 60.699219 132.867188 L 60.699219 135.894531 Z M 59.703125 135.894531 "/>
<path style=" stroke:none;fill-rule:nonzero;fill:rgb(0%,0%,0%);fill-opacity:1;" d="M 72.882812 135.171875 C 72.515625 135.484375 72.164062 135.707031 71.828125 135.835938 C 71.484375 135.960938 71.125 136.03125 70.734375 136.03125 C 70.09375 136.03125 69.601562 135.875 69.25 135.5625 C 68.90625 135.25 68.742188 134.847656 68.742188 134.351562 C 68.742188 134.066406 68.804688 133.804688 68.9375 133.570312 C 69.0625 133.335938 69.234375 133.148438 69.445312 133.003906 C 69.648438 132.859375 69.882812 132.75 70.148438 132.671875 C 70.34375 132.632812 70.636719 132.585938 71.027344 132.535156 C 71.832031 132.445312 72.421875 132.328125 72.804688 132.183594 C 72.804688 132.054688 72.804688 131.96875 72.804688 131.929688 C 72.804688 131.527344 72.710938 131.246094 72.53125 131.089844 C 72.265625 130.855469 71.890625 130.738281 71.398438 130.738281 C 70.929688 130.738281 70.582031 130.824219 70.363281 130.992188 C 70.136719 131.148438 69.976562 131.433594 69.875 131.851562 L 68.917969 131.734375 C 68.996094 131.316406 69.132812 130.984375 69.328125 130.738281 C 69.53125 130.476562 69.824219 130.28125 70.207031 130.152344 C 70.597656 130.007812 71.035156 129.9375 71.535156 129.9375 C 72.042969 129.9375 72.441406 129.996094 72.746094 130.113281 C 73.058594 130.230469 73.28125 130.378906 73.429688 130.5625 C 73.585938 130.730469 73.6875 130.953125 73.742188 131.226562 C 73.78125 131.394531 73.800781 131.695312 73.800781 132.125 L 73.800781 133.453125 C 73.800781 134.363281 73.820312 134.945312 73.859375 135.191406 C 73.898438 135.4375 73.980469 135.671875 74.113281 135.894531 L 73.078125 135.894531 C 72.96875 135.6875 72.90625 135.445312 72.882812 135.171875 Z M 72.804688 132.964844 C 72.4375 133.109375 71.894531 133.230469 71.183594 133.335938 C 70.777344 133.402344 70.488281 133.472656 70.324219 133.550781 C 70.152344 133.617188 70.019531 133.71875 69.933594 133.863281 C 69.839844 134.007812 69.796875 134.164062 69.796875 134.332031 C 69.796875 134.59375 69.894531 134.8125 70.089844 134.996094 C 70.285156 135.164062 70.578125 135.25 70.96875 135.25 C 71.34375 135.25 71.679688 135.164062 71.984375 134.996094 C 72.28125 134.828125 72.5 134.597656 72.648438 134.3125 C 72.75 134.089844 72.804688 133.765625 72.804688 133.335938 Z M 72.804688 132.964844 "/>
<path style=" stroke:none;fill-rule:nonzero;fill:rgb(0%,0%,0%);fill-opacity:1;" d="M 75.332031 135.894531 L 75.332031 130.054688 L 76.230469 130.054688 L 76.230469 130.894531 C 76.644531 130.257812 77.265625 129.9375 78.085938 129.9375 C 78.4375 129.9375 78.753906 130.003906 79.042969 130.132812 C 79.339844 130.25 79.558594 130.414062 79.707031 130.621094 C 79.847656 130.816406 79.949219 131.058594 80.019531 131.34375 C 80.058594 131.527344 80.078125 131.84375 80.078125 132.300781 L 80.078125 135.894531 L 79.082031 135.894531 L 79.082031 132.339844 C 79.082031 131.9375 79.042969 131.636719 78.964844 131.441406 C 78.886719 131.246094 78.75 131.089844 78.554688 130.972656 C 78.359375 130.84375 78.128906 130.777344 77.871094 130.777344 C 77.449219 130.777344 77.089844 130.914062 76.777344 131.1875 C 76.472656 131.449219 76.328125 131.957031 76.328125 132.710938 L 76.328125 135.894531 Z M 75.332031 135.894531 "/>
<path style=" stroke:none;fill-rule:nonzero;fill:rgb(0%,0%,0%);fill-opacity:1;" d="M 144.128906 135.894531 L 144.128906 127.847656 L 145.125 127.847656 L 145.125 130.738281 C 145.578125 130.203125 146.160156 129.9375 146.863281 129.9375 C 147.292969 129.9375 147.664062 130.023438 147.976562 130.191406 C 148.296875 130.359375 148.527344 130.59375 148.660156 130.894531 C 148.800781 131.195312 148.875 131.628906 148.875 132.203125 L 148.875 135.894531 L 147.898438 135.894531 L 147.898438 132.203125 C 147.898438 131.707031 147.785156 131.351562 147.566406 131.128906 C 147.355469 130.894531 147.058594 130.777344 146.667969 130.777344 C 146.363281 130.777344 146.085938 130.855469 145.828125 131.011719 C 145.5625 131.15625 145.382812 131.355469 145.28125 131.617188 C 145.171875 131.878906 145.125 132.242188 145.125 132.710938 L 145.125 135.894531 Z M 144.128906 135.894531 "/>
<path style=" stroke:none;fill-rule:nonzero;fill:rgb(0%,0%,0%);fill-opacity:1;" d="M 150.386719 128.980469 L 150.386719 127.847656 L 151.382812 127.847656 L 151.382812 128.980469 Z M 150.386719 135.894531 L 150.386719 130.054688 L 151.382812 130.054688 L 151.382812 135.894531 Z M 150.386719 135.894531 "/>
<path style=" stroke:none;fill-rule:nonzero;fill:rgb(0%,0%,0%);fill-opacity:1;" d="M 152.492188 134.15625 L 153.46875 134 C 153.519531 134.390625 153.671875 134.691406 153.917969 134.898438 C 154.179688 135.105469 154.53125 135.210938 154.972656 135.210938 C 155.429688 135.210938 155.765625 135.121094 155.988281 134.9375 C 156.210938 134.753906 156.320312 134.539062 156.320312 134.292969 C 156.320312 134.058594 156.222656 133.882812 156.027344 133.765625 C 155.882812 133.675781 155.546875 133.558594 155.011719 133.414062 C 154.28125 133.230469 153.773438 133.074219 153.488281 132.945312 C 153.214844 132.816406 153.007812 132.632812 152.863281 132.398438 C 152.71875 132.164062 152.648438 131.902344 152.648438 131.617188 C 152.648438 131.355469 152.707031 131.117188 152.824219 130.894531 C 152.941406 130.671875 153.105469 130.484375 153.3125 130.328125 C 153.46875 130.222656 153.675781 130.132812 153.9375 130.054688 C 154.210938 129.976562 154.496094 129.9375 154.796875 129.9375 C 155.253906 129.9375 155.648438 130.003906 155.988281 130.132812 C 156.339844 130.261719 156.601562 130.4375 156.769531 130.660156 C 156.9375 130.882812 157.054688 131.179688 157.121094 131.558594 L 156.144531 131.695312 C 156.105469 131.394531 155.976562 131.160156 155.753906 130.992188 C 155.546875 130.824219 155.253906 130.738281 154.875 130.738281 C 154.417969 130.738281 154.09375 130.816406 153.898438 130.972656 C 153.703125 131.117188 153.605469 131.292969 153.605469 131.5 C 153.605469 131.628906 153.644531 131.742188 153.722656 131.832031 C 153.800781 131.949219 153.929688 132.039062 154.113281 132.105469 C 154.203125 132.144531 154.492188 132.230469 154.972656 132.359375 C 155.675781 132.542969 156.164062 132.691406 156.4375 132.808594 C 156.722656 132.925781 156.945312 133.101562 157.101562 133.335938 C 157.257812 133.558594 157.335938 133.835938 157.335938 134.175781 C 157.335938 134.515625 157.238281 134.828125 157.042969 135.113281 C 156.847656 135.398438 156.566406 135.628906 156.203125 135.796875 C 155.851562 135.953125 155.441406 136.03125 154.972656 136.03125 C 154.21875 136.03125 153.636719 135.875 153.234375 135.5625 C 152.84375 135.238281 152.597656 134.769531 152.492188 134.15625 Z M 152.492188 134.15625 "/>
<path style=" stroke:none;fill-rule:nonzero;fill:rgb(0%,0%,0%);fill-opacity:1;" d="M 198.15625 134.15625 L 199.132812 134 C 199.183594 134.390625 199.335938 134.691406 199.582031 134.898438 C 199.84375 135.105469 200.195312 135.210938 200.636719 135.210938 C 201.09375 135.210938 201.429688 135.121094 201.652344 134.9375 C 201.875 134.753906 201.984375 134.539062 201.984375 134.292969 C 201.984375 134.058594 201.886719 133.882812 201.691406 133.765625 C 201.546875 133.675781 201.210938 133.558594 200.675781 133.414062 C 199.945312 133.230469 199.4375 133.074219 199.152344 132.945312 C 198.878906 132.816406 198.671875 132.632812 198.527344 132.398438 C 198.382812 132.164062 198.3125 131.902344 198.3125 131.617188 C 198.3125 131.355469 198.371094 131.117188 198.488281 130.894531 C 198.605469 130.671875 198.769531 130.484375 198.976562 130.328125 C 199.132812 130.222656 199.339844 130.132812 199.601562 130.054688 C 199.875 129.976562 200.160156 129.9375 200.460938 129.9375 C 200.917969 129.9375 201.3125 130.003906 201.652344 130.132812 C 202.003906 130.261719 202.265625 130.4375 202.433594 130.660156 C 202.601562 130.882812 202.71875 131.179688 202.785156 131.558594 L 201.808594 131.695312 C 201.769531 131.394531 201.640625 131.160156 201.417969 130.992188 C 201.210938 130.824219 200.917969 130.738281 200.539062 130.738281 C 200.082031 130.738281 199.757812 130.816406 199.5625 130.972656 C 199.367188 131.117188 199.269531 131.292969 199.269531 131.5 C 199.269531 131.628906 199.308594 131.742188 199.386719 131.832031 C 199.464844 131.949219 199.59375 132.039062 199.777344 132.105469 C 199.867188 132.144531 200.15625 132.230469 200.636719 132.359375 C 201.339844 132.542969 201.828125 132.691406 202.101562 132.808594 C 202.386719 132.925781 202.609375 133.101562 202.765625 133.335938 C 202.921875 133.558594 203 133.835938 203 134.175781 C 203 134.515625 202.902344 134.828125 202.707031 135.113281 C 202.511719 135.398438 202.230469 135.628906 201.867188 135.796875 C 201.515625 135.953125 201.105469 136.03125 200.636719 136.03125 C 199.882812 136.03125 199.300781 135.875 198.898438 135.5625 C 198.507812 135.238281 198.261719 134.769531 198.15625 134.15625 Z M 198.15625 134.15625 "/>
<path style=" stroke:none;fill-rule:nonzero;fill:rgb(0%,0%,0%);fill-opacity:1;" d="M 203.800781 132.984375 C 203.800781 131.902344 204.101562 131.101562 204.699219 130.582031 C 205.207031 130.152344 205.820312 129.9375 206.535156 129.9375 C 207.34375 129.9375 208 130.199219 208.507812 130.71875 C 209.015625 131.238281 209.269531 131.960938 209.269531 132.886719 C 209.269531 133.640625 209.152344 134.234375 208.917969 134.664062 C 208.695312 135.09375 208.371094 135.433594 207.941406 135.679688 C 207.511719 135.914062 207.042969 136.03125 206.535156 136.03125 C 205.714844 136.03125 205.050781 135.769531 204.542969 135.25 C 204.046875 134.714844 203.800781 133.960938 203.800781 132.984375 Z M 204.816406 132.984375 C 204.816406 133.726562 204.980469 134.285156 205.304688 134.664062 C 205.628906 135.027344 206.039062 135.210938 206.535156 135.210938 C 207.03125 135.210938 207.441406 135.027344 207.765625 134.664062 C 208.089844 134.285156 208.253906 133.714844 208.253906 132.945312 C 208.253906 132.230469 208.089844 131.683594 207.765625 131.304688 C 207.441406 130.925781 207.03125 130.738281 206.535156 130.738281 C 206.039062 130.738281 205.628906 130.925781 205.304688 131.304688 C 204.980469 131.667969 204.816406 132.230469 204.816406 132.984375 Z M 204.816406 132.984375 "/>
<path style=" stroke:none;fill-rule:nonzero;fill:rgb(0%,0%,0%);fill-opacity:1;" d="M 210.429688 135.894531 L 210.429688 130.054688 L 211.328125 130.054688 L 211.328125 130.894531 C 211.742188 130.257812 212.363281 129.9375 213.183594 129.9375 C 213.535156 129.9375 213.851562 130.003906 214.140625 130.132812 C 214.4375 130.25 214.660156 130.414062 214.804688 130.621094 C 214.945312 130.816406 215.050781 131.058594 215.117188 131.34375 C 215.15625 131.527344 215.175781 131.84375 215.175781 132.300781 L 215.175781 135.894531 L 214.179688 135.894531 L 214.179688 132.339844 C 214.179688 131.9375 214.140625 131.636719 214.0625 131.441406 C 213.984375 131.246094 213.847656 131.089844 213.652344 130.972656 C 213.457031 130.84375 213.226562 130.777344 212.96875 130.777344 C 212.550781 130.777344 212.1875 130.914062 211.875 131.1875 C 211.574219 131.449219 211.425781 131.957031 211.425781 132.710938 L 211.425781 135.894531 Z M 210.429688 135.894531 "/>
</g>
</svg>
