<?xml version="1.0" encoding="UTF-8"?>
<svg xmlns="http://www.w3.org/2000/svg" xmlns:xlink="http://www.w3.org/1999/xlink" width="493pt" height="114pt" viewBox="0 0 493 114" version="1.1">
<g id="surface1">
<path style="fill-rule:nonzero;fill:rgb(69.803922%,85.098039%,100%);fill-opacity:1;stroke-width:1;stroke-linecap:round;stroke-linejoin:round;stroke:rgb(0%,0%,0%);stroke-opacity:1;stroke-miterlimit:10;" d="M 211.25 72 L 232.25 72 L 232.25 93 L 211.25 93 Z M 211.25 72 " transform="matrix(1.25,0,0,1.25,-5,-56.25)"/>
<path style=" stroke:none;fill-rule:nonzero;fill:rgb(0%,0%,0%);fill-opacity:1;" d="M 267.539062 47.578125 L 267.539062 46.582031 L 270.585938 46.582031 L 270.585938 47.578125 Z M 267.539062 47.578125 "/>
<path style=" stroke:none;fill-rule:nonzero;fill:rgb(0%,0%,0%);fill-opacity:1;" d="M 271.402344 47.871094 L 272.398438 47.734375 C 272.515625 48.296875 272.699219 48.703125 272.964844 48.945312 C 273.238281 49.195312 273.574219 49.316406 273.980469 49.316406 C 274.433594 49.316406 274.820312 49.160156 275.132812 48.847656 C 275.453125 48.523438 275.621094 48.121094 275.621094 47.636719 C 275.621094 47.183594 275.46875 46.8125 275.171875 46.523438 C 274.882812 46.226562 274.511719 46.074219 274.058594 46.074219 C 273.863281 46.074219 273.628906 46.113281 273.355469 46.191406 L 273.472656 45.3125 C 273.535156 45.328125 273.589844 45.332031 273.628906 45.332031 C 274.042969 45.332031 274.417969 45.226562 274.761719 45 C 275.097656 44.78125 275.269531 44.445312 275.269531 43.984375 C 275.269531 43.625 275.140625 43.320312 274.898438 43.085938 C 274.648438 42.851562 274.332031 42.734375 273.941406 42.734375 C 273.558594 42.734375 273.242188 42.859375 272.984375 43.105469 C 272.734375 43.339844 272.574219 43.703125 272.496094 44.179688 L 271.5 44.003906 C 271.625 43.339844 271.898438 42.828125 272.320312 42.460938 C 272.75 42.101562 273.28125 41.914062 273.921875 41.914062 C 274.359375 41.914062 274.765625 42.011719 275.132812 42.207031 C 275.507812 42.390625 275.796875 42.648438 275.992188 42.96875 C 276.1875 43.296875 276.285156 43.640625 276.285156 44.003906 C 276.285156 44.355469 276.1875 44.679688 275.992188 44.960938 C 275.804688 45.25 275.53125 45.476562 275.171875 45.644531 C 275.648438 45.75 276.019531 45.976562 276.285156 46.328125 C 276.542969 46.671875 276.675781 47.101562 276.675781 47.617188 C 276.675781 48.320312 276.410156 48.921875 275.894531 49.414062 C 275.386719 49.898438 274.742188 50.136719 273.960938 50.136719 C 273.257812 50.136719 272.671875 49.929688 272.203125 49.511719 C 271.734375 49.097656 271.464844 48.550781 271.402344 47.871094 Z M 271.402344 47.871094 "/>
<path style="fill-rule:nonzero;fill:rgb(69.803922%,85.098039%,100%);fill-opacity:1;stroke-width:1;stroke-linecap:round;stroke-linejoin:round;stroke:rgb(0%,0%,0%);stroke-opacity:1;stroke-miterlimit:10;" d="M 190.25 72 L 211.25 72 L 211.25 93 L 190.25 93 Z M 190.25 72 " transform="matrix(1.25,0,0,1.25,-5,-56.25)"/>
<path style=" stroke:none;fill-rule:nonzero;fill:rgb(0%,0%,0%);fill-opacity:1;" d="M 241.289062 47.578125 L 241.289062 46.582031 L 244.335938 46.582031 L 244.335938 47.578125 Z M 241.289062 47.578125 "/>
<path style=" stroke:none;fill-rule:nonzero;fill:rgb(0%,0%,0%);fill-opacity:1;" d="M 248.882812 50 L 247.886719 50 L 247.886719 43.691406 C 247.652344 43.925781 247.339844 44.160156 246.949219 44.394531 C 246.558594 44.617188 246.210938 44.78125 245.914062 44.882812 L 245.914062 43.925781 C 246.460938 43.679688 246.9375 43.375 247.359375 43.007812 C 247.773438 42.632812 248.066406 42.265625 248.238281 41.914062 L 248.882812 41.914062 Z M 248.882812 50 "/>
<path style="fill-rule:nonzero;fill:rgb(69.803922%,85.098039%,100%);fill-opacity:1;stroke-width:1;stroke-linecap:round;stroke-linejoin:round;stroke:rgb(0%,0%,0%);stroke-opacity:1;stroke-miterlimit:10;" d="M 4.5 72 L 25.5 72 L 25.5 93 L 4.5 93 Z M 4.5 72 " transform="matrix(1.25,0,0,1.25,-5,-56.25)"/>
<path style=" stroke:none;fill-rule:nonzero;fill:rgb(0%,0%,0%);fill-opacity:1;" d="M 16.285156 49.042969 L 16.285156 50 L 10.953125 50 C 10.953125 49.765625 10.992188 49.539062 11.070312 49.316406 C 11.210938 48.953125 11.433594 48.59375 11.734375 48.242188 C 12.03125 47.890625 12.460938 47.492188 13.023438 47.03125 C 13.894531 46.304688 14.480469 45.734375 14.78125 45.3125 C 15.09375 44.898438 15.25 44.5 15.25 44.121094 C 15.25 43.730469 15.105469 43.40625 14.820312 43.144531 C 14.546875 42.871094 14.1875 42.734375 13.746094 42.734375 C 13.261719 42.734375 12.878906 42.882812 12.59375 43.164062 C 12.304688 43.453125 12.164062 43.847656 12.164062 44.355469 L 11.148438 44.238281 C 11.210938 43.484375 11.472656 42.910156 11.929688 42.519531 C 12.382812 42.117188 12.996094 41.914062 13.765625 41.914062 C 14.53125 41.914062 15.136719 42.128906 15.582031 42.558594 C 16.035156 42.988281 16.265625 43.515625 16.265625 44.140625 C 16.265625 44.46875 16.199219 44.785156 16.070312 45.097656 C 15.9375 45.410156 15.71875 45.742188 15.40625 46.09375 C 15.105469 46.4375 14.605469 46.90625 13.902344 47.5 C 13.300781 48 12.917969 48.335938 12.75 48.515625 C 12.578125 48.703125 12.441406 48.875 12.339844 49.042969 Z M 16.285156 49.042969 "/>
<path style="fill-rule:nonzero;fill:rgb(69.803922%,85.098039%,100%);fill-opacity:1;stroke-width:1;stroke-linecap:round;stroke-linejoin:round;stroke:rgb(0%,0%,0%);stroke-opacity:1;stroke-miterlimit:10;" d="M 25.5 72 L 46.5 72 L 46.5 93 L 25.5 93 Z M 25.5 72 " transform="matrix(1.25,0,0,1.25,-5,-56.25)"/>
<path style=" stroke:none;fill-rule:nonzero;fill:rgb(0%,0%,0%);fill-opacity:1;" d="M 37.339844 47.871094 L 38.335938 47.734375 C 38.453125 48.296875 38.640625 48.703125 38.902344 48.945312 C 39.175781 49.195312 39.511719 49.316406 39.917969 49.316406 C 40.371094 49.316406 40.757812 49.160156 41.070312 48.847656 C 41.394531 48.523438 41.558594 48.121094 41.558594 47.636719 C 41.558594 47.183594 41.40625 46.8125 41.109375 46.523438 C 40.820312 46.226562 40.449219 46.074219 39.996094 46.074219 C 39.800781 46.074219 39.566406 46.113281 39.292969 46.191406 L 39.410156 45.3125 C 39.472656 45.328125 39.527344 45.332031 39.566406 45.332031 C 39.980469 45.332031 40.359375 45.226562 40.699219 45 C 41.035156 44.78125 41.207031 44.445312 41.207031 43.984375 C 41.207031 43.625 41.082031 43.320312 40.835938 43.085938 C 40.585938 42.851562 40.269531 42.734375 39.878906 42.734375 C 39.5 42.734375 39.179688 42.859375 38.921875 43.105469 C 38.671875 43.339844 38.511719 43.703125 38.433594 44.179688 L 37.4375 44.003906 C 37.566406 43.339844 37.839844 42.828125 38.257812 42.460938 C 38.6875 42.101562 39.21875 41.914062 39.859375 41.914062 C 40.300781 41.914062 40.703125 42.011719 41.070312 42.207031 C 41.445312 42.390625 41.734375 42.648438 41.929688 42.96875 C 42.125 43.296875 42.222656 43.640625 42.222656 44.003906 C 42.222656 44.355469 42.125 44.679688 41.929688 44.960938 C 41.746094 45.25 41.472656 45.476562 41.109375 45.644531 C 41.589844 45.75 41.960938 45.976562 42.222656 46.328125 C 42.480469 46.671875 42.613281 47.101562 42.613281 47.617188 C 42.613281 48.320312 42.351562 48.921875 41.832031 49.414062 C 41.324219 49.898438 40.679688 50.136719 39.898438 50.136719 C 39.195312 50.136719 38.609375 49.929688 38.140625 49.511719 C 37.671875 49.097656 37.402344 48.550781 37.339844 47.871094 Z M 37.339844 47.871094 "/>
<path style="fill-rule:nonzero;fill:rgb(100%,100%,100%);fill-opacity:1;stroke-width:1;stroke-linecap:round;stroke-linejoin:round;stroke:rgb(0%,0%,0%);stroke-opacity:1;stroke-miterlimit:10;" d="M 46.5 72 L 67.5 72 L 67.5 93 L 46.5 93 Z M 46.5 72 " transform="matrix(1.25,0,0,1.25,-5,-56.25)"/>
<path style=" stroke:none;fill-rule:nonzero;fill:rgb(0%,0%,0%);fill-opacity:1;" d="M 66.753906 50 L 66.753906 48.066406 L 63.257812 48.066406 L 63.257812 47.167969 L 66.929688 41.953125 L 67.75 41.953125 L 67.75 47.167969 L 68.84375 47.167969 L 68.84375 48.066406 L 67.75 48.066406 L 67.75 50 Z M 66.753906 47.167969 L 66.753906 43.535156 L 64.234375 47.167969 Z M 66.753906 47.167969 "/>
<path style="fill-rule:nonzero;fill:rgb(100%,100%,100%);fill-opacity:1;stroke-width:1;stroke-linecap:round;stroke-linejoin:round;stroke:rgb(0%,0%,0%);stroke-opacity:1;stroke-miterlimit:10;" d="M 67.5 72 L 88.5 72 L 88.5 93 L 67.5 93 Z M 67.5 72 " transform="matrix(1.25,0,0,1.25,-5,-56.25)"/>
<path style=" stroke:none;fill-rule:nonzero;fill:rgb(0%,0%,0%);fill-opacity:1;" d="M 89.839844 47.890625 L 90.875 47.792969 C 90.953125 48.300781 91.128906 48.6875 91.402344 48.945312 C 91.6875 49.195312 92.027344 49.316406 92.417969 49.316406 C 92.898438 49.316406 93.300781 49.140625 93.628906 48.789062 C 93.964844 48.429688 94.136719 47.949219 94.136719 47.363281 C 94.136719 46.792969 93.972656 46.34375 93.648438 46.015625 C 93.335938 45.695312 92.925781 45.527344 92.417969 45.527344 C 92.089844 45.527344 91.796875 45.605469 91.539062 45.761719 C 91.289062 45.90625 91.089844 46.089844 90.933594 46.308594 L 90.015625 46.191406 L 90.796875 42.050781 L 94.800781 42.050781 L 94.800781 43.007812 L 91.578125 43.007812 L 91.148438 45.15625 C 91.628906 44.835938 92.136719 44.667969 92.671875 44.667969 C 93.375 44.667969 93.964844 44.914062 94.449219 45.390625 C 94.929688 45.875 95.171875 46.5 95.171875 47.265625 C 95.171875 48 94.960938 48.628906 94.546875 49.160156 C 94.023438 49.8125 93.316406 50.136719 92.417969 50.136719 C 91.6875 50.136719 91.089844 49.9375 90.621094 49.53125 C 90.164062 49.117188 89.902344 48.570312 89.839844 47.890625 Z M 89.839844 47.890625 "/>
<path style="fill-rule:nonzero;fill:rgb(100%,100%,100%);fill-opacity:1;stroke-width:1;stroke-linecap:round;stroke-linejoin:round;stroke:rgb(0%,0%,0%);stroke-opacity:1;stroke-miterlimit:10;" d="M 130.5 72 L 151.5 72 L 151.5 93 L 130.5 93 Z M 130.5 72 " transform="matrix(1.25,0,0,1.25,-5,-56.25)"/>
<path style=" stroke:none;fill-rule:nonzero;fill:rgb(0%,0%,0%);fill-opacity:1;" d="M 170.113281 45.625 C 169.695312 45.484375 169.390625 45.273438 169.195312 45 C 169 44.71875 168.902344 44.375 168.902344 43.984375 C 168.902344 43.398438 169.109375 42.910156 169.527344 42.519531 C 169.957031 42.117188 170.515625 41.914062 171.207031 41.914062 C 171.910156 41.914062 172.476562 42.125 172.90625 42.539062 C 173.335938 42.945312 173.550781 43.4375 173.550781 44.023438 C 173.550781 44.390625 173.453125 44.71875 173.257812 45 C 173.0625 45.273438 172.761719 45.484375 172.359375 45.625 C 172.851562 45.796875 173.230469 46.0625 173.492188 46.425781 C 173.75 46.777344 173.882812 47.203125 173.882812 47.695312 C 173.882812 48.390625 173.632812 48.964844 173.140625 49.433594 C 172.65625 49.902344 172.019531 50.136719 171.226562 50.136719 C 170.429688 50.136719 169.785156 49.902344 169.292969 49.433594 C 168.808594 48.964844 168.570312 48.378906 168.570312 47.675781 C 168.570312 47.15625 168.699219 46.71875 168.960938 46.367188 C 169.234375 46.007812 169.617188 45.757812 170.113281 45.625 Z M 169.917969 43.964844 C 169.917969 44.34375 170.035156 44.65625 170.269531 44.902344 C 170.515625 45.136719 170.835938 45.253906 171.226562 45.253906 C 171.617188 45.253906 171.929688 45.136719 172.164062 44.902344 C 172.410156 44.65625 172.535156 44.355469 172.535156 44.003906 C 172.535156 43.652344 172.410156 43.355469 172.164062 43.105469 C 171.914062 42.859375 171.601562 42.734375 171.226562 42.734375 C 170.847656 42.734375 170.535156 42.859375 170.289062 43.105469 C 170.039062 43.339844 169.917969 43.628906 169.917969 43.964844 Z M 169.585938 47.675781 C 169.585938 47.964844 169.648438 48.238281 169.78125 48.496094 C 169.921875 48.757812 170.125 48.960938 170.386719 49.101562 C 170.644531 49.25 170.933594 49.316406 171.246094 49.316406 C 171.714844 49.316406 172.097656 49.171875 172.398438 48.867188 C 172.710938 48.570312 172.867188 48.183594 172.867188 47.714844 C 172.867188 47.234375 172.710938 46.835938 172.398438 46.523438 C 172.085938 46.210938 171.6875 46.054688 171.207031 46.054688 C 170.738281 46.054688 170.347656 46.210938 170.035156 46.523438 C 169.734375 46.835938 169.585938 47.222656 169.585938 47.675781 Z M 169.585938 47.675781 "/>
<path style="fill-rule:nonzero;fill:rgb(100%,100%,100%);fill-opacity:1;stroke-width:1;stroke-linecap:round;stroke-linejoin:round;stroke:rgb(0%,0%,0%);stroke-opacity:1;stroke-miterlimit:10;" d="M 88.5 72 L 109.5 72 L 109.5 93 L 88.5 93 Z M 88.5 72 " transform="matrix(1.25,0,0,1.25,-5,-56.25)"/>
<path style=" stroke:none;fill-rule:nonzero;fill:rgb(0%,0%,0%);fill-opacity:1;" d="M 121.226562 43.925781 L 120.230469 44.003906 C 120.152344 43.613281 120.027344 43.328125 119.859375 43.144531 C 119.597656 42.871094 119.273438 42.734375 118.882812 42.734375 C 118.554688 42.734375 118.277344 42.820312 118.042969 42.988281 C 117.730469 43.222656 117.480469 43.554688 117.300781 43.984375 C 117.128906 44.414062 117.039062 45.035156 117.027344 45.839844 C 117.261719 45.488281 117.546875 45.230469 117.886719 45.058594 C 118.238281 44.878906 118.601562 44.785156 118.980469 44.785156 C 119.644531 44.785156 120.203125 45.03125 120.660156 45.507812 C 121.128906 45.992188 121.363281 46.617188 121.363281 47.382812 C 121.363281 47.890625 121.25 48.367188 121.03125 48.808594 C 120.808594 49.238281 120.507812 49.570312 120.132812 49.804688 C 119.753906 50.023438 119.324219 50.136719 118.84375 50.136719 C 118.023438 50.136719 117.351562 49.839844 116.832031 49.238281 C 116.308594 48.628906 116.050781 47.625 116.050781 46.230469 C 116.050781 44.683594 116.335938 43.550781 116.910156 42.832031 C 117.402344 42.222656 118.082031 41.914062 118.941406 41.914062 C 119.566406 41.914062 120.078125 42.101562 120.484375 42.460938 C 120.886719 42.8125 121.132812 43.300781 121.226562 43.925781 Z M 117.183594 47.382812 C 117.183594 47.734375 117.253906 48.066406 117.398438 48.378906 C 117.539062 48.679688 117.742188 48.914062 118.003906 49.082031 C 118.261719 49.238281 118.535156 49.316406 118.824219 49.316406 C 119.238281 49.316406 119.597656 49.15625 119.898438 48.828125 C 120.195312 48.492188 120.347656 48.027344 120.347656 47.441406 C 120.347656 46.882812 120.195312 46.445312 119.898438 46.132812 C 119.609375 45.8125 119.238281 45.644531 118.785156 45.644531 C 118.339844 45.644531 117.964844 45.8125 117.652344 46.132812 C 117.339844 46.445312 117.183594 46.867188 117.183594 47.382812 Z M 117.183594 47.382812 "/>
<path style="fill-rule:nonzero;fill:rgb(100%,100%,100%);fill-opacity:1;stroke-width:1;stroke-linecap:round;stroke-linejoin:round;stroke:rgb(0%,0%,0%);stroke-opacity:1;stroke-miterlimit:10;" d="M 109.5 72 L 130.5 72 L 130.5 93 L 109.5 93 Z M 109.5 72 " transform="matrix(1.25,0,0,1.25,-5,-56.25)"/>
<path style=" stroke:none;fill-rule:nonzero;fill:rgb(0%,0%,0%);fill-opacity:1;" d="M 142.398438 43.007812 L 142.398438 42.050781 L 147.613281 42.050781 L 147.613281 42.8125 C 147.105469 43.359375 146.597656 44.09375 146.089844 45 C 145.582031 45.898438 145.191406 46.832031 144.917969 47.792969 C 144.722656 48.457031 144.597656 49.195312 144.546875 50 L 143.53125 50 C 143.542969 49.367188 143.667969 48.601562 143.902344 47.714844 C 144.136719 46.816406 144.472656 45.953125 144.917969 45.117188 C 145.371094 44.289062 145.847656 43.585938 146.34375 43.007812 Z M 142.398438 43.007812 "/>
<path style=" stroke:none;fill-rule:nonzero;fill:rgb(0%,0%,0%);fill-opacity:1;" d="M 205.410156 70.605469 L 205.917969 69.042969 C 207.074219 69.449219 207.917969 69.800781 208.457031 70.097656 C 208.308594 68.785156 208.242188 67.871094 208.242188 67.363281 L 209.824219 67.363281 C 209.792969 68.09375 209.710938 69.003906 209.570312 70.097656 C 210.320312 69.722656 211.191406 69.371094 212.167969 69.042969 L 212.675781 70.605469 C 211.738281 70.90625 210.824219 71.109375 209.941406 71.210938 C 210.378906 71.601562 211.015625 72.296875 211.835938 73.28125 L 210.507812 74.21875 C 210.078125 73.648438 209.574219 72.859375 209.003906 71.855469 C 208.457031 72.898438 207.976562 73.6875 207.578125 74.21875 L 206.269531 73.28125 C 207.128906 72.242188 207.738281 71.554688 208.105469 71.210938 C 207.152344 71.03125 206.253906 70.828125 205.410156 70.605469 Z M 205.410156 70.605469 "/>
<path style=" stroke:none;fill-rule:nonzero;fill:rgb(0%,0%,0%);fill-opacity:1;" d="M 314.550781 70.527344 L 303.90625 70.527344 L 303.90625 68.691406 L 314.550781 68.691406 Z M 314.550781 75.410156 L 303.90625 75.410156 L 303.90625 73.574219 L 314.550781 73.574219 Z M 314.550781 75.410156 "/>
<path style="fill-rule:nonzero;fill:rgb(100%,100%,100%);fill-opacity:1;stroke-width:1;stroke-linecap:round;stroke-linejoin:round;stroke:rgb(0%,0%,0%);stroke-opacity:1;stroke-miterlimit:10;" d="M 130.5 93 L 151.5 93 L 151.5 114 L 130.5 114 Z M 130.5 93 " transform="matrix(1.25,0,0,1.25,-5,-56.25)"/>
<path style=" stroke:none;fill-rule:nonzero;fill:rgb(0%,0%,0%);fill-opacity:1;" d="M 168.648438 69.257812 L 168.648438 68.300781 L 173.863281 68.300781 L 173.863281 69.0625 C 173.355469 69.609375 172.847656 70.34375 172.339844 71.25 C 171.832031 72.148438 171.441406 73.082031 171.167969 74.042969 C 170.972656 74.707031 170.847656 75.445312 170.796875 76.25 L 169.78125 76.25 C 169.792969 75.617188 169.917969 74.851562 170.152344 73.964844 C 170.386719 73.066406 170.722656 72.203125 171.167969 71.367188 C 171.621094 70.539062 172.097656 69.835938 172.59375 69.257812 Z M 168.648438 69.257812 "/>
<path style="fill-rule:nonzero;fill:rgb(100%,100%,100%);fill-opacity:1;stroke-width:1;stroke-linecap:round;stroke-linejoin:round;stroke:rgb(0%,0%,0%);stroke-opacity:1;stroke-miterlimit:10;" d="M 46.5 93 L 67.5 93 L 67.5 114 L 46.5 114 Z M 46.5 93 " transform="matrix(1.25,0,0,1.25,-5,-56.25)"/>
<path style=" stroke:none;fill-rule:nonzero;fill:rgb(0%,0%,0%);fill-opacity:1;" d="M 63.589844 74.121094 L 64.585938 73.984375 C 64.703125 74.546875 64.890625 74.953125 65.152344 75.195312 C 65.425781 75.445312 65.761719 75.566406 66.167969 75.566406 C 66.621094 75.566406 67.007812 75.410156 67.320312 75.097656 C 67.644531 74.773438 67.808594 74.371094 67.808594 73.886719 C 67.808594 73.433594 67.65625 73.0625 67.359375 72.773438 C 67.070312 72.476562 66.699219 72.324219 66.246094 72.324219 C 66.050781 72.324219 65.816406 72.363281 65.542969 72.441406 L 65.660156 71.5625 C 65.722656 71.578125 65.777344 71.582031 65.816406 71.582031 C 66.230469 71.582031 66.609375 71.476562 66.949219 71.25 C 67.285156 71.03125 67.457031 70.695312 67.457031 70.234375 C 67.457031 69.875 67.332031 69.570312 67.085938 69.335938 C 66.835938 69.101562 66.519531 68.984375 66.128906 68.984375 C 65.75 68.984375 65.429688 69.109375 65.171875 69.355469 C 64.921875 69.589844 64.761719 69.953125 64.683594 70.429688 L 63.6875 70.253906 C 63.816406 69.589844 64.089844 69.078125 64.507812 68.710938 C 64.9375 68.351562 65.46875 68.164062 66.109375 68.164062 C 66.550781 68.164062 66.953125 68.261719 67.320312 68.457031 C 67.695312 68.640625 67.984375 68.898438 68.179688 69.21875 C 68.375 69.546875 68.472656 69.890625 68.472656 70.253906 C 68.472656 70.605469 68.375 70.929688 68.179688 71.210938 C 67.996094 71.5 67.722656 71.726562 67.359375 71.894531 C 67.839844 72 68.210938 72.226562 68.472656 72.578125 C 68.730469 72.921875 68.863281 73.351562 68.863281 73.867188 C 68.863281 74.570312 68.601562 75.171875 68.082031 75.664062 C 67.574219 76.148438 66.929688 76.386719 66.148438 76.386719 C 65.445312 76.386719 64.859375 76.179688 64.390625 75.761719 C 63.921875 75.347656 63.652344 74.800781 63.589844 74.121094 Z M 63.589844 74.121094 "/>
<path style="fill-rule:nonzero;fill:rgb(100%,100%,100%);fill-opacity:1;stroke-width:1;stroke-linecap:round;stroke-linejoin:round;stroke:rgb(0%,0%,0%);stroke-opacity:1;stroke-miterlimit:10;" d="M 109.5 93 L 130.5 93 L 130.5 114 L 109.5 114 Z M 109.5 93 " transform="matrix(1.25,0,0,1.25,-5,-56.25)"/>
<path style=" stroke:none;fill-rule:nonzero;fill:rgb(0%,0%,0%);fill-opacity:1;" d="M 147.476562 70.175781 L 146.480469 70.253906 C 146.402344 69.863281 146.277344 69.578125 146.109375 69.394531 C 145.847656 69.121094 145.523438 68.984375 145.132812 68.984375 C 144.804688 68.984375 144.527344 69.070312 144.292969 69.238281 C 143.980469 69.472656 143.730469 69.804688 143.550781 70.234375 C 143.378906 70.664062 143.289062 71.285156 143.277344 72.089844 C 143.511719 71.738281 143.796875 71.480469 144.136719 71.308594 C 144.488281 71.128906 144.851562 71.035156 145.230469 71.035156 C 145.894531 71.035156 146.453125 71.28125 146.910156 71.757812 C 147.378906 72.242188 147.613281 72.867188 147.613281 73.632812 C 147.613281 74.140625 147.5 74.617188 147.28125 75.058594 C 147.058594 75.488281 146.757812 75.820312 146.382812 76.054688 C 146.003906 76.273438 145.574219 76.386719 145.09375 76.386719 C 144.273438 76.386719 143.601562 76.089844 143.082031 75.488281 C 142.558594 74.878906 142.300781 73.875 142.300781 72.480469 C 142.300781 70.933594 142.585938 69.800781 143.160156 69.082031 C 143.652344 68.472656 144.332031 68.164062 145.191406 68.164062 C 145.816406 68.164062 146.328125 68.351562 146.734375 68.710938 C 147.136719 69.0625 147.382812 69.550781 147.476562 70.175781 Z M 143.433594 73.632812 C 143.433594 73.984375 143.503906 74.316406 143.648438 74.628906 C 143.789062 74.929688 143.992188 75.164062 144.253906 75.332031 C 144.511719 75.488281 144.785156 75.566406 145.074219 75.566406 C 145.488281 75.566406 145.847656 75.40625 146.148438 75.078125 C 146.445312 74.742188 146.597656 74.277344 146.597656 73.691406 C 146.597656 73.132812 146.445312 72.695312 146.148438 72.382812 C 145.859375 72.0625 145.488281 71.894531 145.035156 71.894531 C 144.589844 71.894531 144.214844 72.0625 143.902344 72.382812 C 143.589844 72.695312 143.433594 73.117188 143.433594 73.632812 Z M 143.433594 73.632812 "/>
<path style="fill-rule:nonzero;fill:rgb(69.803922%,85.098039%,100%);fill-opacity:1;stroke-width:1;stroke-linecap:round;stroke-linejoin:round;stroke:rgb(0%,0%,0%);stroke-opacity:1;stroke-miterlimit:10;" d="M 25.5 93 L 46.5 93 L 46.5 114 L 25.5 114 Z M 25.5 93 " transform="matrix(1.25,0,0,1.25,-5,-56.25)"/>
<path style=" stroke:none;fill-rule:nonzero;fill:rgb(0%,0%,0%);fill-opacity:1;" d="M 42.535156 75.292969 L 42.535156 76.25 L 37.203125 76.25 C 37.203125 76.015625 37.242188 75.789062 37.320312 75.566406 C 37.460938 75.203125 37.683594 74.84375 37.984375 74.492188 C 38.28125 74.140625 38.710938 73.742188 39.273438 73.28125 C 40.144531 72.554688 40.730469 71.984375 41.03125 71.5625 C 41.34375 71.148438 41.5 70.75 41.5 70.371094 C 41.5 69.980469 41.355469 69.65625 41.070312 69.394531 C 40.796875 69.121094 40.4375 68.984375 39.996094 68.984375 C 39.511719 68.984375 39.128906 69.132812 38.84375 69.414062 C 38.554688 69.703125 38.414062 70.097656 38.414062 70.605469 L 37.398438 70.488281 C 37.460938 69.734375 37.722656 69.160156 38.179688 68.769531 C 38.632812 68.367188 39.246094 68.164062 40.015625 68.164062 C 40.78125 68.164062 41.386719 68.378906 41.832031 68.808594 C 42.285156 69.238281 42.515625 69.765625 42.515625 70.390625 C 42.515625 70.71875 42.449219 71.035156 42.320312 71.347656 C 42.1875 71.660156 41.96875 71.992188 41.65625 72.34375 C 41.355469 72.6875 40.855469 73.15625 40.152344 73.75 C 39.550781 74.25 39.167969 74.585938 39 74.765625 C 38.828125 74.953125 38.691406 75.125 38.589844 75.292969 Z M 42.535156 75.292969 "/>
<path style="fill-rule:nonzero;fill:rgb(100%,100%,100%);fill-opacity:1;stroke-width:1;stroke-linecap:round;stroke-linejoin:round;stroke:rgb(0%,0%,0%);stroke-opacity:1;stroke-miterlimit:10;" d="M 88.5 93 L 109.5 93 L 109.5 114 L 88.5 114 Z M 88.5 93 " transform="matrix(1.25,0,0,1.25,-5,-56.25)"/>
<path style=" stroke:none;fill-rule:nonzero;fill:rgb(0%,0%,0%);fill-opacity:1;" d="M 116.089844 74.140625 L 117.125 74.042969 C 117.203125 74.550781 117.378906 74.9375 117.652344 75.195312 C 117.9375 75.445312 118.277344 75.566406 118.667969 75.566406 C 119.148438 75.566406 119.550781 75.390625 119.878906 75.039062 C 120.214844 74.679688 120.386719 74.199219 120.386719 73.613281 C 120.386719 73.042969 120.222656 72.59375 119.898438 72.265625 C 119.585938 71.945312 119.175781 71.777344 118.667969 71.777344 C 118.339844 71.777344 118.046875 71.855469 117.789062 72.011719 C 117.539062 72.15625 117.339844 72.339844 117.183594 72.558594 L 116.265625 72.441406 L 117.046875 68.300781 L 121.050781 68.300781 L 121.050781 69.257812 L 117.828125 69.257812 L 117.398438 71.40625 C 117.878906 71.085938 118.386719 70.917969 118.921875 70.917969 C 119.625 70.917969 120.214844 71.164062 120.699219 71.640625 C 121.179688 72.125 121.421875 72.75 121.421875 73.515625 C 121.421875 74.25 121.210938 74.878906 120.796875 75.410156 C 120.273438 76.0625 119.566406 76.386719 118.667969 76.386719 C 117.9375 76.386719 117.339844 76.1875 116.871094 75.78125 C 116.414062 75.367188 116.152344 74.820312 116.089844 74.140625 Z M 116.089844 74.140625 "/>
<path style="fill-rule:nonzero;fill:rgb(69.803922%,85.098039%,100%);fill-opacity:1;stroke-width:1;stroke-linecap:round;stroke-linejoin:round;stroke:rgb(0%,0%,0%);stroke-opacity:1;stroke-miterlimit:10;" d="M 4.5 93 L 25.5 93 L 25.5 114 L 4.5 114 Z M 4.5 93 " transform="matrix(1.25,0,0,1.25,-5,-56.25)"/>
<path style=" stroke:none;fill-rule:nonzero;fill:rgb(0%,0%,0%);fill-opacity:1;" d="M 14.820312 76.25 L 13.824219 76.25 L 13.824219 69.941406 C 13.589844 70.175781 13.277344 70.410156 12.886719 70.644531 C 12.496094 70.867188 12.148438 71.03125 11.851562 71.132812 L 11.851562 70.175781 C 12.398438 69.929688 12.878906 69.625 13.296875 69.257812 C 13.710938 68.882812 14.003906 68.515625 14.175781 68.164062 L 14.820312 68.164062 Z M 14.820312 76.25 "/>
<path style="fill-rule:nonzero;fill:rgb(100%,100%,100%);fill-opacity:1;stroke-width:1;stroke-linecap:round;stroke-linejoin:round;stroke:rgb(0%,0%,0%);stroke-opacity:1;stroke-miterlimit:10;" d="M 67.5 93 L 88.5 93 L 88.5 114 L 67.5 114 Z M 67.5 93 " transform="matrix(1.25,0,0,1.25,-5,-56.25)"/>
<path style=" stroke:none;fill-rule:nonzero;fill:rgb(0%,0%,0%);fill-opacity:1;" d="M 93.003906 76.25 L 93.003906 74.316406 L 89.507812 74.316406 L 89.507812 73.417969 L 93.179688 68.203125 L 94 68.203125 L 94 73.417969 L 95.09375 73.417969 L 95.09375 74.316406 L 94 74.316406 L 94 76.25 Z M 93.003906 73.417969 L 93.003906 69.785156 L 90.484375 73.417969 Z M 93.003906 73.417969 "/>
<path style="fill-rule:nonzero;fill:rgb(69.803922%,85.098039%,100%);fill-opacity:1;stroke-width:1;stroke-linecap:round;stroke-linejoin:round;stroke:rgb(0%,0%,0%);stroke-opacity:1;stroke-miterlimit:10;" d="M 211.25 93 L 232.25 93 L 232.25 114 L 211.25 114 Z M 211.25 93 " transform="matrix(1.25,0,0,1.25,-5,-56.25)"/>
<path style=" stroke:none;fill-rule:nonzero;fill:rgb(0%,0%,0%);fill-opacity:1;" d="M 272.691406 76.25 L 272.691406 74.316406 L 269.195312 74.316406 L 269.195312 73.417969 L 272.867188 68.203125 L 273.6875 68.203125 L 273.6875 73.417969 L 274.78125 73.417969 L 274.78125 74.316406 L 273.6875 74.316406 L 273.6875 76.25 Z M 272.691406 73.417969 L 272.691406 69.785156 L 270.171875 73.417969 Z M 272.691406 73.417969 "/>
<path style="fill-rule:nonzero;fill:rgb(69.803922%,85.098039%,100%);fill-opacity:1;stroke-width:1;stroke-linecap:round;stroke-linejoin:round;stroke:rgb(0%,0%,0%);stroke-opacity:1;stroke-miterlimit:10;" d="M 190.25 93 L 211.25 93 L 211.25 114 L 190.25 114 Z M 190.25 93 " transform="matrix(1.25,0,0,1.25,-5,-56.25)"/>
<path style=" stroke:none;fill-rule:nonzero;fill:rgb(0%,0%,0%);fill-opacity:1;" d="M 243.277344 74.121094 L 244.273438 73.984375 C 244.390625 74.546875 244.578125 74.953125 244.839844 75.195312 C 245.113281 75.445312 245.449219 75.566406 245.855469 75.566406 C 246.308594 75.566406 246.695312 75.410156 247.007812 75.097656 C 247.332031 74.773438 247.496094 74.371094 247.496094 73.886719 C 247.496094 73.433594 247.34375 73.0625 247.046875 72.773438 C 246.757812 72.476562 246.386719 72.324219 245.933594 72.324219 C 245.738281 72.324219 245.503906 72.363281 245.230469 72.441406 L 245.347656 71.5625 C 245.410156 71.578125 245.464844 71.582031 245.503906 71.582031 C 245.917969 71.582031 246.296875 71.476562 246.636719 71.25 C 246.972656 71.03125 247.144531 70.695312 247.144531 70.234375 C 247.144531 69.875 247.019531 69.570312 246.773438 69.335938 C 246.523438 69.101562 246.207031 68.984375 245.816406 68.984375 C 245.4375 68.984375 245.117188 69.109375 244.859375 69.355469 C 244.609375 69.589844 244.449219 69.953125 244.371094 70.429688 L 243.375 70.253906 C 243.503906 69.589844 243.777344 69.078125 244.195312 68.710938 C 244.625 68.351562 245.15625 68.164062 245.796875 68.164062 C 246.238281 68.164062 246.640625 68.261719 247.007812 68.457031 C 247.382812 68.640625 247.671875 68.898438 247.867188 69.21875 C 248.0625 69.546875 248.160156 69.890625 248.160156 70.253906 C 248.160156 70.605469 248.0625 70.929688 247.867188 71.210938 C 247.683594 71.5 247.410156 71.726562 247.046875 71.894531 C 247.527344 72 247.898438 72.226562 248.160156 72.578125 C 248.417969 72.921875 248.550781 73.351562 248.550781 73.867188 C 248.550781 74.570312 248.289062 75.171875 247.769531 75.664062 C 247.261719 76.148438 246.617188 76.386719 245.835938 76.386719 C 245.132812 76.386719 244.546875 76.179688 244.078125 75.761719 C 243.609375 75.347656 243.339844 74.800781 243.277344 74.121094 Z M 243.277344 74.121094 "/>
<path style="fill-rule:nonzero;fill:rgb(100%,100%,100%);fill-opacity:1;stroke-width:1;stroke-linecap:round;stroke-linejoin:round;stroke:rgb(0%,0%,0%);stroke-opacity:1;stroke-miterlimit:10;" d="M 376 93 L 397 93 L 397 114 L 376 114 Z M 376 93 " transform="matrix(1.25,0,0,1.25,-5,-56.25)"/>
<path style=" stroke:none;fill-rule:nonzero;fill:rgb(0%,0%,0%);fill-opacity:1;" d="M 472.335938 74.121094 L 473.332031 73.984375 C 473.449219 74.546875 473.636719 74.953125 473.898438 75.195312 C 474.171875 75.445312 474.511719 75.566406 474.914062 75.566406 C 475.371094 75.566406 475.753906 75.410156 476.066406 75.097656 C 476.390625 74.773438 476.554688 74.371094 476.554688 73.886719 C 476.554688 73.433594 476.40625 73.0625 476.105469 72.773438 C 475.820312 72.476562 475.449219 72.324219 474.992188 72.324219 C 474.796875 72.324219 474.5625 72.363281 474.289062 72.441406 L 474.40625 71.5625 C 474.472656 71.578125 474.523438 71.582031 474.5625 71.582031 C 474.980469 71.582031 475.355469 71.476562 475.695312 71.25 C 476.035156 71.03125 476.203125 70.695312 476.203125 70.234375 C 476.203125 69.875 476.078125 69.570312 475.832031 69.335938 C 475.585938 69.101562 475.265625 68.984375 474.875 68.984375 C 474.496094 68.984375 474.179688 69.109375 473.917969 69.355469 C 473.671875 69.589844 473.507812 69.953125 473.429688 70.429688 L 472.433594 70.253906 C 472.5625 69.589844 472.835938 69.078125 473.253906 68.710938 C 473.683594 68.351562 474.21875 68.164062 474.855469 68.164062 C 475.296875 68.164062 475.703125 68.261719 476.066406 68.457031 C 476.445312 68.640625 476.730469 68.898438 476.925781 69.21875 C 477.121094 69.546875 477.21875 69.890625 477.21875 70.253906 C 477.21875 70.605469 477.121094 70.929688 476.925781 71.210938 C 476.742188 71.5 476.46875 71.726562 476.105469 71.894531 C 476.585938 72 476.957031 72.226562 477.21875 72.578125 C 477.480469 72.921875 477.609375 73.351562 477.609375 73.867188 C 477.609375 74.570312 477.347656 75.171875 476.828125 75.664062 C 476.320312 76.148438 475.675781 76.386719 474.894531 76.386719 C 474.191406 76.386719 473.605469 76.179688 473.136719 75.761719 C 472.667969 75.347656 472.402344 74.800781 472.335938 74.121094 Z M 472.335938 74.121094 "/>
<path style=" stroke:none;fill-rule:nonzero;fill:rgb(0%,0%,0%);fill-opacity:1;" d="M 483.789062 75.292969 L 483.789062 76.25 L 478.457031 76.25 C 478.457031 76.015625 478.496094 75.789062 478.574219 75.566406 C 478.714844 75.203125 478.9375 74.84375 479.238281 74.492188 C 479.535156 74.140625 479.964844 73.742188 480.527344 73.28125 C 481.398438 72.554688 481.984375 71.984375 482.285156 71.5625 C 482.597656 71.148438 482.753906 70.75 482.753906 70.371094 C 482.753906 69.980469 482.609375 69.65625 482.324219 69.394531 C 482.050781 69.121094 481.691406 68.984375 481.25 68.984375 C 480.765625 68.984375 480.382812 69.132812 480.097656 69.414062 C 479.808594 69.703125 479.667969 70.097656 479.667969 70.605469 L 478.652344 70.488281 C 478.714844 69.734375 478.976562 69.160156 479.433594 68.769531 C 479.886719 68.367188 480.5 68.164062 481.269531 68.164062 C 482.035156 68.164062 482.640625 68.378906 483.085938 68.808594 C 483.539062 69.238281 483.769531 69.765625 483.769531 70.390625 C 483.769531 70.71875 483.703125 71.035156 483.574219 71.347656 C 483.441406 71.660156 483.222656 71.992188 482.910156 72.34375 C 482.609375 72.6875 482.109375 73.15625 481.40625 73.75 C 480.804688 74.25 480.421875 74.585938 480.253906 74.765625 C 480.082031 74.953125 479.945312 75.125 479.84375 75.292969 Z M 483.789062 75.292969 "/>
<path style="fill-rule:nonzero;fill:rgb(69.803922%,85.098039%,100%);fill-opacity:1;stroke-width:1;stroke-linecap:round;stroke-linejoin:round;stroke:rgb(0%,0%,0%);stroke-opacity:1;stroke-miterlimit:10;" d="M 271 93 L 292 93 L 292 114 L 271 114 Z M 271 93 " transform="matrix(1.25,0,0,1.25,-5,-56.25)"/>
<path style=" stroke:none;fill-rule:nonzero;fill:rgb(0%,0%,0%);fill-opacity:1;" d="M 349.410156 75.292969 L 349.410156 76.25 L 344.078125 76.25 C 344.078125 76.015625 344.117188 75.789062 344.195312 75.566406 C 344.335938 75.203125 344.558594 74.84375 344.859375 74.492188 C 345.15625 74.140625 345.585938 73.742188 346.148438 73.28125 C 347.019531 72.554688 347.605469 71.984375 347.90625 71.5625 C 348.21875 71.148438 348.375 70.75 348.375 70.371094 C 348.375 69.980469 348.230469 69.65625 347.945312 69.394531 C 347.671875 69.121094 347.3125 68.984375 346.871094 68.984375 C 346.386719 68.984375 346.003906 69.132812 345.71875 69.414062 C 345.429688 69.703125 345.289062 70.097656 345.289062 70.605469 L 344.273438 70.488281 C 344.335938 69.734375 344.597656 69.160156 345.054688 68.769531 C 345.507812 68.367188 346.121094 68.164062 346.890625 68.164062 C 347.65625 68.164062 348.261719 68.378906 348.707031 68.808594 C 349.160156 69.238281 349.390625 69.765625 349.390625 70.390625 C 349.390625 70.71875 349.324219 71.035156 349.195312 71.347656 C 349.0625 71.660156 348.84375 71.992188 348.53125 72.34375 C 348.230469 72.6875 347.730469 73.15625 347.027344 73.75 C 346.425781 74.25 346.042969 74.585938 345.875 74.765625 C 345.703125 74.953125 345.566406 75.125 345.464844 75.292969 Z M 349.410156 75.292969 "/>
<path style="fill-rule:nonzero;fill:rgb(100%,100%,100%);fill-opacity:1;stroke-width:1;stroke-linecap:round;stroke-linejoin:round;stroke:rgb(0%,0%,0%);stroke-opacity:1;stroke-miterlimit:10;" d="M 292 93 L 313 93 L 313 114 L 292 114 Z M 292 93 " transform="matrix(1.25,0,0,1.25,-5,-56.25)"/>
<path style=" stroke:none;fill-rule:nonzero;fill:rgb(0%,0%,0%);fill-opacity:1;" d="M 371.988281 71.875 C 371.570312 71.734375 371.265625 71.523438 371.070312 71.25 C 370.875 70.96875 370.777344 70.625 370.777344 70.234375 C 370.777344 69.648438 370.984375 69.160156 371.402344 68.769531 C 371.832031 68.367188 372.390625 68.164062 373.082031 68.164062 C 373.785156 68.164062 374.351562 68.375 374.78125 68.789062 C 375.210938 69.195312 375.425781 69.6875 375.425781 70.273438 C 375.425781 70.640625 375.328125 70.96875 375.132812 71.25 C 374.9375 71.523438 374.636719 71.734375 374.234375 71.875 C 374.726562 72.046875 375.105469 72.3125 375.367188 72.675781 C 375.625 73.027344 375.757812 73.453125 375.757812 73.945312 C 375.757812 74.640625 375.507812 75.214844 375.015625 75.683594 C 374.53125 76.152344 373.894531 76.386719 373.101562 76.386719 C 372.304688 76.386719 371.660156 76.152344 371.167969 75.683594 C 370.683594 75.214844 370.445312 74.628906 370.445312 73.925781 C 370.445312 73.40625 370.574219 72.96875 370.835938 72.617188 C 371.109375 72.257812 371.492188 72.007812 371.988281 71.875 Z M 371.792969 70.214844 C 371.792969 70.59375 371.910156 70.90625 372.144531 71.152344 C 372.390625 71.386719 372.710938 71.503906 373.101562 71.503906 C 373.492188 71.503906 373.804688 71.386719 374.039062 71.152344 C 374.285156 70.90625 374.410156 70.605469 374.410156 70.253906 C 374.410156 69.902344 374.285156 69.605469 374.039062 69.355469 C 373.789062 69.109375 373.476562 68.984375 373.101562 68.984375 C 372.722656 68.984375 372.410156 69.109375 372.164062 69.355469 C 371.914062 69.589844 371.792969 69.878906 371.792969 70.214844 Z M 371.460938 73.925781 C 371.460938 74.214844 371.523438 74.488281 371.65625 74.746094 C 371.796875 75.007812 372 75.210938 372.261719 75.351562 C 372.519531 75.5 372.808594 75.566406 373.121094 75.566406 C 373.589844 75.566406 373.972656 75.421875 374.273438 75.117188 C 374.585938 74.820312 374.742188 74.433594 374.742188 73.964844 C 374.742188 73.484375 374.585938 73.085938 374.273438 72.773438 C 373.960938 72.460938 373.5625 72.304688 373.082031 72.304688 C 372.613281 72.304688 372.222656 72.460938 371.910156 72.773438 C 371.609375 73.085938 371.460938 73.472656 371.460938 73.925781 Z M 371.460938 73.925781 "/>
<path style="fill-rule:nonzero;fill:rgb(100%,100%,100%);fill-opacity:1;stroke-width:1;stroke-linecap:round;stroke-linejoin:round;stroke:rgb(0%,0%,0%);stroke-opacity:1;stroke-miterlimit:10;" d="M 313 93 L 334 93 L 334 114 L 313 114 Z M 313 93 " transform="matrix(1.25,0,0,1.25,-5,-56.25)"/>
<path style=" stroke:none;fill-rule:nonzero;fill:rgb(0%,0%,0%);fill-opacity:1;" d="M 397.316406 76.25 L 396.320312 76.25 L 396.320312 69.941406 C 396.085938 70.175781 395.773438 70.410156 395.382812 70.644531 C 394.992188 70.867188 394.648438 71.03125 394.347656 71.132812 L 394.347656 70.175781 C 394.894531 69.929688 395.375 69.625 395.792969 69.257812 C 396.210938 68.882812 396.503906 68.515625 396.671875 68.164062 L 397.316406 68.164062 Z M 397.316406 76.25 "/>
<path style=" stroke:none;fill-rule:nonzero;fill:rgb(0%,0%,0%);fill-opacity:1;" d="M 403.007812 76.25 L 403.007812 74.316406 L 399.511719 74.316406 L 399.511719 73.417969 L 403.183594 68.203125 L 404.003906 68.203125 L 404.003906 73.417969 L 405.097656 73.417969 L 405.097656 74.316406 L 404.003906 74.316406 L 404.003906 76.25 Z M 403.007812 73.417969 L 403.007812 69.785156 L 400.488281 73.417969 Z M 403.007812 73.417969 "/>
<path style="fill-rule:nonzero;fill:rgb(100%,100%,100%);fill-opacity:1;stroke-width:1;stroke-linecap:round;stroke-linejoin:round;stroke:rgb(0%,0%,0%);stroke-opacity:1;stroke-miterlimit:10;" d="M 334 93 L 355 93 L 355 114 L 334 114 Z M 334 93 " transform="matrix(1.25,0,0,1.25,-5,-56.25)"/>
<path style=" stroke:none;fill-rule:nonzero;fill:rgb(0%,0%,0%);fill-opacity:1;" d="M 425.03125 75.292969 L 425.03125 76.25 L 419.699219 76.25 C 419.699219 76.015625 419.738281 75.789062 419.816406 75.566406 C 419.960938 75.203125 420.179688 74.84375 420.480469 74.492188 C 420.78125 74.140625 421.210938 73.742188 421.769531 73.28125 C 422.640625 72.554688 423.226562 71.984375 423.527344 71.5625 C 423.839844 71.148438 423.996094 70.75 423.996094 70.371094 C 423.996094 69.980469 423.851562 69.65625 423.566406 69.394531 C 423.292969 69.121094 422.933594 68.984375 422.492188 68.984375 C 422.011719 68.984375 421.625 69.132812 421.339844 69.414062 C 421.054688 69.703125 420.910156 70.097656 420.910156 70.605469 L 419.894531 70.488281 C 419.960938 69.734375 420.21875 69.160156 420.675781 68.769531 C 421.132812 68.367188 421.742188 68.164062 422.511719 68.164062 C 423.28125 68.164062 423.886719 68.378906 424.328125 68.808594 C 424.785156 69.238281 425.011719 69.765625 425.011719 70.390625 C 425.011719 70.71875 424.945312 71.035156 424.816406 71.347656 C 424.6875 71.660156 424.464844 71.992188 424.152344 72.34375 C 423.851562 72.6875 423.351562 73.15625 422.648438 73.75 C 422.050781 74.25 421.664062 74.585938 421.496094 74.765625 C 421.328125 74.953125 421.191406 75.125 421.085938 75.292969 Z M 425.03125 75.292969 "/>
<path style=" stroke:none;fill-rule:nonzero;fill:rgb(0%,0%,0%);fill-opacity:1;" d="M 426.09375 72.285156 C 426.09375 71.335938 426.191406 70.566406 426.386719 69.980469 C 426.582031 69.394531 426.867188 68.945312 427.246094 68.632812 C 427.636719 68.320312 428.125 68.164062 428.710938 68.164062 C 429.152344 68.164062 429.535156 68.257812 429.863281 68.4375 C 430.1875 68.609375 430.453125 68.859375 430.664062 69.179688 C 430.871094 69.507812 431.035156 69.902344 431.152344 70.371094 C 431.28125 70.839844 431.347656 71.480469 431.347656 72.285156 C 431.347656 73.222656 431.25 73.984375 431.054688 74.570312 C 430.859375 75.148438 430.566406 75.59375 430.175781 75.917969 C 429.796875 76.230469 429.308594 76.386719 428.710938 76.386719 C 427.941406 76.386719 427.335938 76.109375 426.894531 75.546875 C 426.359375 74.882812 426.09375 73.796875 426.09375 72.285156 Z M 427.109375 72.285156 C 427.109375 73.601562 427.257812 74.484375 427.558594 74.921875 C 427.871094 75.351562 428.253906 75.566406 428.710938 75.566406 C 429.164062 75.566406 429.550781 75.351562 429.863281 74.921875 C 430.175781 74.484375 430.332031 73.601562 430.332031 72.285156 C 430.332031 70.957031 430.175781 70.078125 429.863281 69.648438 C 429.550781 69.210938 429.164062 68.984375 428.710938 68.984375 C 428.253906 68.984375 427.890625 69.175781 427.617188 69.550781 C 427.277344 70.046875 427.109375 70.957031 427.109375 72.285156 Z M 427.109375 72.285156 "/>
<path style="fill-rule:nonzero;fill:rgb(100%,100%,100%);fill-opacity:1;stroke-width:1;stroke-linecap:round;stroke-linejoin:round;stroke:rgb(0%,0%,0%);stroke-opacity:1;stroke-miterlimit:10;" d="M 355 93 L 376 93 L 376 114 L 355 114 Z M 355 93 " transform="matrix(1.25,0,0,1.25,-5,-56.25)"/>
<path style=" stroke:none;fill-rule:nonzero;fill:rgb(0%,0%,0%);fill-opacity:1;" d="M 451.28125 75.292969 L 451.28125 76.25 L 445.949219 76.25 C 445.949219 76.015625 445.988281 75.789062 446.066406 75.566406 C 446.210938 75.203125 446.429688 74.84375 446.730469 74.492188 C 447.03125 74.140625 447.460938 73.742188 448.019531 73.28125 C 448.890625 72.554688 449.476562 71.984375 449.777344 71.5625 C 450.089844 71.148438 450.246094 70.75 450.246094 70.371094 C 450.246094 69.980469 450.101562 69.65625 449.816406 69.394531 C 449.542969 69.121094 449.183594 68.984375 448.742188 68.984375 C 448.261719 68.984375 447.875 69.132812 447.589844 69.414062 C 447.304688 69.703125 447.160156 70.097656 447.160156 70.605469 L 446.144531 70.488281 C 446.210938 69.734375 446.46875 69.160156 446.925781 68.769531 C 447.382812 68.367188 447.992188 68.164062 448.761719 68.164062 C 449.53125 68.164062 450.136719 68.378906 450.578125 68.808594 C 451.035156 69.238281 451.261719 69.765625 451.261719 70.390625 C 451.261719 70.71875 451.195312 71.035156 451.066406 71.347656 C 450.9375 71.660156 450.714844 71.992188 450.402344 72.34375 C 450.101562 72.6875 449.601562 73.15625 448.898438 73.75 C 448.300781 74.25 447.914062 74.585938 447.746094 74.765625 C 447.578125 74.953125 447.441406 75.125 447.335938 75.292969 Z M 451.28125 75.292969 "/>
<path style=" stroke:none;fill-rule:nonzero;fill:rgb(0%,0%,0%);fill-opacity:1;" d="M 457.480469 70.175781 L 456.484375 70.253906 C 456.40625 69.863281 456.28125 69.578125 456.113281 69.394531 C 455.851562 69.121094 455.527344 68.984375 455.136719 68.984375 C 454.808594 68.984375 454.53125 69.070312 454.296875 69.238281 C 453.984375 69.472656 453.734375 69.804688 453.554688 70.234375 C 453.382812 70.664062 453.292969 71.285156 453.28125 72.089844 C 453.515625 71.738281 453.800781 71.480469 454.140625 71.308594 C 454.492188 71.128906 454.855469 71.035156 455.234375 71.035156 C 455.898438 71.035156 456.457031 71.28125 456.914062 71.757812 C 457.382812 72.242188 457.617188 72.867188 457.617188 73.632812 C 457.617188 74.140625 457.503906 74.617188 457.285156 75.058594 C 457.0625 75.488281 456.761719 75.820312 456.386719 76.054688 C 456.007812 76.273438 455.578125 76.386719 455.097656 76.386719 C 454.277344 76.386719 453.605469 76.089844 453.085938 75.488281 C 452.5625 74.878906 452.304688 73.875 452.304688 72.480469 C 452.304688 70.933594 452.589844 69.800781 453.164062 69.082031 C 453.65625 68.472656 454.335938 68.164062 455.195312 68.164062 C 455.820312 68.164062 456.332031 68.351562 456.738281 68.710938 C 457.140625 69.0625 457.386719 69.550781 457.480469 70.175781 Z M 453.4375 73.632812 C 453.4375 73.984375 453.507812 74.316406 453.652344 74.628906 C 453.792969 74.929688 453.996094 75.164062 454.257812 75.332031 C 454.515625 75.488281 454.789062 75.566406 455.078125 75.566406 C 455.492188 75.566406 455.851562 75.40625 456.152344 75.078125 C 456.449219 74.742188 456.601562 74.277344 456.601562 73.691406 C 456.601562 73.132812 456.449219 72.695312 456.152344 72.382812 C 455.863281 72.0625 455.492188 71.894531 455.039062 71.894531 C 454.59375 71.894531 454.21875 72.0625 453.90625 72.382812 C 453.59375 72.695312 453.4375 73.117188 453.4375 73.632812 Z M 453.4375 73.632812 "/>
<path style="fill-rule:nonzero;fill:rgb(69.803922%,85.098039%,100%);fill-opacity:1;stroke-width:1;stroke-linecap:round;stroke-linejoin:round;stroke:rgb(0%,0%,0%);stroke-opacity:1;stroke-miterlimit:10;" d="M 4.5 114 L 25.5 114 L 25.5 135 L 4.5 135 Z M 4.5 114 " transform="matrix(1.25,0,0,1.25,-5,-56.25)"/>
<path style=" stroke:none;fill-rule:nonzero;fill:rgb(0%,0%,0%);fill-opacity:1;" d="M 11.089844 98.535156 C 11.089844 97.585938 11.1875 96.816406 11.382812 96.230469 C 11.578125 95.644531 11.863281 95.195312 12.242188 94.882812 C 12.632812 94.570312 13.121094 94.414062 13.707031 94.414062 C 14.148438 94.414062 14.53125 94.507812 14.859375 94.6875 C 15.183594 94.859375 15.449219 95.109375 15.660156 95.429688 C 15.867188 95.757812 16.03125 96.152344 16.148438 96.621094 C 16.277344 97.089844 16.34375 97.730469 16.34375 98.535156 C 16.34375 99.472656 16.246094 100.234375 16.050781 100.820312 C 15.855469 101.398438 15.5625 101.84375 15.171875 102.167969 C 14.792969 102.480469 14.304688 102.636719 13.707031 102.636719 C 12.9375 102.636719 12.332031 102.359375 11.890625 101.796875 C 11.355469 101.132812 11.089844 100.046875 11.089844 98.535156 Z M 12.105469 98.535156 C 12.105469 99.851562 12.253906 100.734375 12.554688 101.171875 C 12.867188 101.601562 13.25 101.816406 13.707031 101.816406 C 14.160156 101.816406 14.546875 101.601562 14.859375 101.171875 C 15.171875 100.734375 15.328125 99.851562 15.328125 98.535156 C 15.328125 97.207031 15.171875 96.328125 14.859375 95.898438 C 14.546875 95.460938 14.160156 95.234375 13.707031 95.234375 C 13.25 95.234375 12.886719 95.425781 12.613281 95.800781 C 12.273438 96.296875 12.105469 97.207031 12.105469 98.535156 Z M 12.105469 98.535156 "/>
<path style="fill-rule:nonzero;fill:rgb(69.803922%,85.098039%,100%);fill-opacity:1;stroke-width:1;stroke-linecap:round;stroke-linejoin:round;stroke:rgb(0%,0%,0%);stroke-opacity:1;stroke-miterlimit:10;" d="M 25.5 114 L 46.5 114 L 46.5 135 L 25.5 135 Z M 25.5 114 " transform="matrix(1.25,0,0,1.25,-5,-56.25)"/>
<path style=" stroke:none;fill-rule:nonzero;fill:rgb(0%,0%,0%);fill-opacity:1;" d="M 41.070312 102.5 L 40.074219 102.5 L 40.074219 96.191406 C 39.839844 96.425781 39.527344 96.660156 39.136719 96.894531 C 38.746094 97.117188 38.398438 97.28125 38.101562 97.382812 L 38.101562 96.425781 C 38.648438 96.179688 39.128906 95.875 39.546875 95.507812 C 39.960938 95.132812 40.253906 94.765625 40.425781 94.414062 L 41.070312 94.414062 Z M 41.070312 102.5 "/>
<path style="fill-rule:nonzero;fill:rgb(100%,100%,100%);fill-opacity:1;stroke-width:1;stroke-linecap:round;stroke-linejoin:round;stroke:rgb(0%,0%,0%);stroke-opacity:1;stroke-miterlimit:10;" d="M 46.5 114 L 67.5 114 L 67.5 135 L 46.5 135 Z M 46.5 114 " transform="matrix(1.25,0,0,1.25,-5,-56.25)"/>
<path style=" stroke:none;fill-rule:nonzero;fill:rgb(0%,0%,0%);fill-opacity:1;" d="M 68.785156 101.542969 L 68.785156 102.5 L 63.453125 102.5 C 63.453125 102.265625 63.492188 102.039062 63.570312 101.816406 C 63.710938 101.453125 63.933594 101.09375 64.234375 100.742188 C 64.53125 100.390625 64.960938 99.992188 65.523438 99.53125 C 66.394531 98.804688 66.980469 98.234375 67.28125 97.8125 C 67.59375 97.398438 67.75 97 67.75 96.621094 C 67.75 96.230469 67.605469 95.90625 67.320312 95.644531 C 67.046875 95.371094 66.6875 95.234375 66.246094 95.234375 C 65.761719 95.234375 65.378906 95.382812 65.09375 95.664062 C 64.804688 95.953125 64.664062 96.347656 64.664062 96.855469 L 63.648438 96.738281 C 63.710938 95.984375 63.972656 95.410156 64.429688 95.019531 C 64.882812 94.617188 65.496094 94.414062 66.265625 94.414062 C 67.03125 94.414062 67.636719 94.628906 68.082031 95.058594 C 68.535156 95.488281 68.765625 96.015625 68.765625 96.640625 C 68.765625 96.96875 68.699219 97.285156 68.570312 97.597656 C 68.4375 97.910156 68.21875 98.242188 67.90625 98.59375 C 67.605469 98.9375 67.105469 99.40625 66.402344 100 C 65.800781 100.5 65.417969 100.835938 65.25 101.015625 C 65.078125 101.203125 64.941406 101.375 64.839844 101.542969 Z M 68.785156 101.542969 "/>
<path style="fill-rule:nonzero;fill:rgb(100%,100%,100%);fill-opacity:1;stroke-width:1;stroke-linecap:round;stroke-linejoin:round;stroke:rgb(0%,0%,0%);stroke-opacity:1;stroke-miterlimit:10;" d="M 67.5 114 L 88.5 114 L 88.5 135 L 67.5 135 Z M 67.5 114 " transform="matrix(1.25,0,0,1.25,-5,-56.25)"/>
<path style=" stroke:none;fill-rule:nonzero;fill:rgb(0%,0%,0%);fill-opacity:1;" d="M 89.839844 100.371094 L 90.835938 100.234375 C 90.953125 100.796875 91.140625 101.203125 91.402344 101.445312 C 91.675781 101.695312 92.011719 101.816406 92.417969 101.816406 C 92.871094 101.816406 93.257812 101.660156 93.570312 101.347656 C 93.894531 101.023438 94.058594 100.621094 94.058594 100.136719 C 94.058594 99.683594 93.90625 99.3125 93.609375 99.023438 C 93.320312 98.726562 92.949219 98.574219 92.496094 98.574219 C 92.300781 98.574219 92.066406 98.613281 91.792969 98.691406 L 91.910156 97.8125 C 91.972656 97.828125 92.027344 97.832031 92.066406 97.832031 C 92.480469 97.832031 92.859375 97.726562 93.199219 97.5 C 93.535156 97.28125 93.707031 96.945312 93.707031 96.484375 C 93.707031 96.125 93.582031 95.820312 93.335938 95.585938 C 93.085938 95.351562 92.769531 95.234375 92.378906 95.234375 C 92 95.234375 91.679688 95.359375 91.421875 95.605469 C 91.171875 95.839844 91.011719 96.203125 90.933594 96.679688 L 89.9375 96.503906 C 90.066406 95.839844 90.339844 95.328125 90.757812 94.960938 C 91.1875 94.601562 91.71875 94.414062 92.359375 94.414062 C 92.800781 94.414062 93.203125 94.511719 93.570312 94.707031 C 93.945312 94.890625 94.234375 95.148438 94.429688 95.46875 C 94.625 95.796875 94.722656 96.140625 94.722656 96.503906 C 94.722656 96.855469 94.625 97.179688 94.429688 97.460938 C 94.246094 97.75 93.972656 97.976562 93.609375 98.144531 C 94.089844 98.25 94.460938 98.476562 94.722656 98.828125 C 94.980469 99.171875 95.113281 99.601562 95.113281 100.117188 C 95.113281 100.820312 94.851562 101.421875 94.332031 101.914062 C 93.824219 102.398438 93.179688 102.636719 92.398438 102.636719 C 91.695312 102.636719 91.109375 102.429688 90.640625 102.011719 C 90.171875 101.597656 89.902344 101.050781 89.839844 100.371094 Z M 89.839844 100.371094 "/>
<path style="fill-rule:nonzero;fill:rgb(100%,100%,100%);fill-opacity:1;stroke-width:1;stroke-linecap:round;stroke-linejoin:round;stroke:rgb(0%,0%,0%);stroke-opacity:1;stroke-miterlimit:10;" d="M 109.5 114 L 130.5 114 L 130.5 135 L 109.5 135 Z M 109.5 114 " transform="matrix(1.25,0,0,1.25,-5,-56.25)"/>
<path style=" stroke:none;fill-rule:nonzero;fill:rgb(0%,0%,0%);fill-opacity:1;" d="M 142.339844 100.390625 L 143.375 100.292969 C 143.453125 100.800781 143.628906 101.1875 143.902344 101.445312 C 144.1875 101.695312 144.527344 101.816406 144.917969 101.816406 C 145.398438 101.816406 145.800781 101.640625 146.128906 101.289062 C 146.464844 100.929688 146.636719 100.449219 146.636719 99.863281 C 146.636719 99.292969 146.472656 98.84375 146.148438 98.515625 C 145.835938 98.195312 145.425781 98.027344 144.917969 98.027344 C 144.589844 98.027344 144.296875 98.105469 144.039062 98.261719 C 143.789062 98.40625 143.589844 98.589844 143.433594 98.808594 L 142.515625 98.691406 L 143.296875 94.550781 L 147.300781 94.550781 L 147.300781 95.507812 L 144.078125 95.507812 L 143.648438 97.65625 C 144.128906 97.335938 144.636719 97.167969 145.171875 97.167969 C 145.875 97.167969 146.464844 97.414062 146.949219 97.890625 C 147.429688 98.375 147.671875 99 147.671875 99.765625 C 147.671875 100.5 147.460938 101.128906 147.046875 101.660156 C 146.523438 102.3125 145.816406 102.636719 144.917969 102.636719 C 144.1875 102.636719 143.589844 102.4375 143.121094 102.03125 C 142.664062 101.617188 142.402344 101.070312 142.339844 100.390625 Z M 142.339844 100.390625 "/>
<path style="fill-rule:nonzero;fill:rgb(100%,100%,100%);fill-opacity:1;stroke-width:1;stroke-linecap:round;stroke-linejoin:round;stroke:rgb(0%,0%,0%);stroke-opacity:1;stroke-miterlimit:10;" d="M 130.5 114 L 151.5 114 L 151.5 135 L 130.5 135 Z M 130.5 114 " transform="matrix(1.25,0,0,1.25,-5,-56.25)"/>
<path style=" stroke:none;fill-rule:nonzero;fill:rgb(0%,0%,0%);fill-opacity:1;" d="M 173.726562 96.425781 L 172.730469 96.503906 C 172.652344 96.113281 172.527344 95.828125 172.359375 95.644531 C 172.097656 95.371094 171.773438 95.234375 171.382812 95.234375 C 171.054688 95.234375 170.777344 95.320312 170.542969 95.488281 C 170.230469 95.722656 169.980469 96.054688 169.800781 96.484375 C 169.628906 96.914062 169.539062 97.535156 169.527344 98.339844 C 169.761719 97.988281 170.046875 97.730469 170.386719 97.558594 C 170.738281 97.378906 171.101562 97.285156 171.480469 97.285156 C 172.144531 97.285156 172.703125 97.53125 173.160156 98.007812 C 173.628906 98.492188 173.863281 99.117188 173.863281 99.882812 C 173.863281 100.390625 173.75 100.867188 173.53125 101.308594 C 173.308594 101.738281 173.007812 102.070312 172.632812 102.304688 C 172.253906 102.523438 171.824219 102.636719 171.34375 102.636719 C 170.523438 102.636719 169.851562 102.339844 169.332031 101.738281 C 168.808594 101.128906 168.550781 100.125 168.550781 98.730469 C 168.550781 97.183594 168.835938 96.050781 169.410156 95.332031 C 169.902344 94.722656 170.582031 94.414062 171.441406 94.414062 C 172.066406 94.414062 172.578125 94.601562 172.984375 94.960938 C 173.386719 95.3125 173.632812 95.800781 173.726562 96.425781 Z M 169.683594 99.882812 C 169.683594 100.234375 169.753906 100.566406 169.898438 100.878906 C 170.039062 101.179688 170.242188 101.414062 170.503906 101.582031 C 170.761719 101.738281 171.035156 101.816406 171.324219 101.816406 C 171.738281 101.816406 172.097656 101.65625 172.398438 101.328125 C 172.695312 100.992188 172.847656 100.527344 172.847656 99.941406 C 172.847656 99.382812 172.695312 98.945312 172.398438 98.632812 C 172.109375 98.3125 171.738281 98.144531 171.285156 98.144531 C 170.839844 98.144531 170.464844 98.3125 170.152344 98.632812 C 169.839844 98.945312 169.683594 99.367188 169.683594 99.882812 Z M 169.683594 99.882812 "/>
<path style="fill-rule:nonzero;fill:rgb(100%,100%,100%);fill-opacity:1;stroke-width:1;stroke-linecap:round;stroke-linejoin:round;stroke:rgb(0%,0%,0%);stroke-opacity:1;stroke-miterlimit:10;" d="M 88.5 114 L 109.5 114 L 109.5 135 L 88.5 135 Z M 88.5 114 " transform="matrix(1.25,0,0,1.25,-5,-56.25)"/>
<path style=" stroke:none;fill-rule:nonzero;fill:rgb(0%,0%,0%);fill-opacity:1;" d="M 119.253906 102.5 L 119.253906 100.566406 L 115.757812 100.566406 L 115.757812 99.667969 L 119.429688 94.453125 L 120.25 94.453125 L 120.25 99.667969 L 121.34375 99.667969 L 121.34375 100.566406 L 120.25 100.566406 L 120.25 102.5 Z M 119.253906 99.667969 L 119.253906 96.035156 L 116.734375 99.667969 Z M 119.253906 99.667969 "/>
<path style="fill-rule:nonzero;fill:rgb(69.803922%,85.098039%,100%);fill-opacity:1;stroke-width:1;stroke-linecap:round;stroke-linejoin:round;stroke:rgb(0%,0%,0%);stroke-opacity:1;stroke-miterlimit:10;" d="M 211.25 114 L 232.25 114 L 232.25 135 L 211.25 135 Z M 211.25 114 " transform="matrix(1.25,0,0,1.25,-5,-56.25)"/>
<path style=" stroke:none;fill-rule:nonzero;fill:rgb(0%,0%,0%);fill-opacity:1;" d="M 274.722656 101.542969 L 274.722656 102.5 L 269.390625 102.5 C 269.390625 102.265625 269.429688 102.039062 269.507812 101.816406 C 269.648438 101.453125 269.871094 101.09375 270.171875 100.742188 C 270.46875 100.390625 270.898438 99.992188 271.460938 99.53125 C 272.332031 98.804688 272.917969 98.234375 273.21875 97.8125 C 273.53125 97.398438 273.6875 97 273.6875 96.621094 C 273.6875 96.230469 273.542969 95.90625 273.257812 95.644531 C 272.984375 95.371094 272.625 95.234375 272.183594 95.234375 C 271.699219 95.234375 271.316406 95.382812 271.03125 95.664062 C 270.742188 95.953125 270.601562 96.347656 270.601562 96.855469 L 269.585938 96.738281 C 269.648438 95.984375 269.910156 95.410156 270.367188 95.019531 C 270.820312 94.617188 271.433594 94.414062 272.203125 94.414062 C 272.96875 94.414062 273.574219 94.628906 274.019531 95.058594 C 274.472656 95.488281 274.703125 96.015625 274.703125 96.640625 C 274.703125 96.96875 274.636719 97.285156 274.507812 97.597656 C 274.375 97.910156 274.15625 98.242188 273.84375 98.59375 C 273.542969 98.9375 273.042969 99.40625 272.339844 100 C 271.738281 100.5 271.355469 100.835938 271.1875 101.015625 C 271.015625 101.203125 270.878906 101.375 270.777344 101.542969 Z M 274.722656 101.542969 "/>
<path style="fill-rule:nonzero;fill:rgb(69.803922%,85.098039%,100%);fill-opacity:1;stroke-width:1;stroke-linecap:round;stroke-linejoin:round;stroke:rgb(0%,0%,0%);stroke-opacity:1;stroke-miterlimit:10;" d="M 190.25 114 L 211.25 114 L 211.25 135 L 190.25 135 Z M 190.25 114 " transform="matrix(1.25,0,0,1.25,-5,-56.25)"/>
<path style=" stroke:none;fill-rule:nonzero;fill:rgb(0%,0%,0%);fill-opacity:1;" d="M 247.007812 102.5 L 246.011719 102.5 L 246.011719 96.191406 C 245.777344 96.425781 245.464844 96.660156 245.074219 96.894531 C 244.683594 97.117188 244.335938 97.28125 244.039062 97.382812 L 244.039062 96.425781 C 244.585938 96.179688 245.066406 95.875 245.484375 95.507812 C 245.898438 95.132812 246.191406 94.765625 246.363281 94.414062 L 247.007812 94.414062 Z M 247.007812 102.5 "/>
<path style=" stroke:none;fill-rule:nonzero;fill:rgb(0%,0%,0%);fill-opacity:1;" d="M 81.042969 16.25 L 81.042969 8.203125 L 82.097656 8.203125 L 82.097656 16.25 Z M 81.042969 16.25 "/>
<path style=" stroke:none;fill-rule:nonzero;fill:rgb(0%,0%,0%);fill-opacity:1;" d="M 83.855469 16.25 L 83.855469 10.410156 L 84.753906 10.410156 L 84.753906 11.25 C 85.171875 10.617188 85.789062 10.292969 86.609375 10.292969 C 86.960938 10.292969 87.28125 10.359375 87.566406 10.488281 C 87.867188 10.605469 88.085938 10.773438 88.230469 10.976562 C 88.375 11.171875 88.476562 11.414062 88.542969 11.699219 C 88.582031 11.882812 88.601562 12.203125 88.601562 12.65625 L 88.601562 16.25 L 87.605469 16.25 L 87.605469 12.695312 C 87.605469 12.296875 87.566406 11.992188 87.488281 11.796875 C 87.410156 11.601562 87.273438 11.445312 87.078125 11.328125 C 86.882812 11.203125 86.65625 11.132812 86.394531 11.132812 C 85.976562 11.132812 85.613281 11.269531 85.300781 11.542969 C 85 11.804688 84.851562 12.3125 84.851562 13.066406 L 84.851562 16.25 Z M 83.855469 16.25 "/>
<path style=" stroke:none;fill-rule:nonzero;fill:rgb(0%,0%,0%);fill-opacity:1;" d="M 90.109375 18.476562 L 90.109375 10.410156 L 91.007812 10.410156 L 91.007812 11.171875 C 91.214844 10.875 91.449219 10.65625 91.710938 10.507812 C 91.984375 10.367188 92.316406 10.292969 92.707031 10.292969 C 93.199219 10.292969 93.636719 10.425781 94.015625 10.683594 C 94.390625 10.933594 94.679688 11.289062 94.875 11.757812 C 95.070312 12.226562 95.167969 12.734375 95.167969 13.28125 C 95.167969 13.882812 95.054688 14.421875 94.835938 14.902344 C 94.625 15.386719 94.320312 15.757812 93.917969 16.015625 C 93.511719 16.257812 93.082031 16.386719 92.628906 16.386719 C 92.300781 16.386719 92.007812 16.3125 91.75 16.171875 C 91.488281 16.03125 91.273438 15.855469 91.105469 15.644531 L 91.105469 18.476562 Z M 91.007812 13.359375 C 91.007812 14.117188 91.15625 14.679688 91.457031 15.039062 C 91.769531 15.390625 92.140625 15.566406 92.570312 15.566406 C 93 15.566406 93.371094 15.386719 93.683594 15.019531 C 94.007812 14.644531 94.171875 14.0625 94.171875 13.28125 C 94.171875 12.539062 94.015625 11.988281 93.703125 11.621094 C 93.402344 11.246094 93.039062 11.054688 92.609375 11.054688 C 92.191406 11.054688 91.820312 11.257812 91.496094 11.660156 C 91.167969 12.050781 91.007812 12.617188 91.007812 13.359375 Z M 91.007812 13.359375 "/>
<path style=" stroke:none;fill-rule:nonzero;fill:rgb(0%,0%,0%);fill-opacity:1;" d="M 100.191406 16.25 L 100.191406 15.390625 C 99.730469 16.054688 99.117188 16.386719 98.335938 16.386719 C 97.992188 16.386719 97.675781 16.320312 97.378906 16.191406 C 97.074219 16.050781 96.851562 15.878906 96.695312 15.683594 C 96.546875 15.488281 96.449219 15.25 96.402344 14.960938 C 96.363281 14.765625 96.34375 14.453125 96.34375 14.023438 L 96.34375 10.410156 L 97.320312 10.410156 L 97.320312 13.652344 C 97.320312 14.175781 97.34375 14.523438 97.398438 14.6875 C 97.445312 14.953125 97.574219 15.15625 97.769531 15.3125 C 97.972656 15.460938 98.226562 15.527344 98.53125 15.527344 C 98.828125 15.527344 99.105469 15.460938 99.371094 15.3125 C 99.628906 15.15625 99.808594 14.953125 99.917969 14.6875 C 100.019531 14.429688 100.074219 14.042969 100.074219 13.535156 L 100.074219 10.410156 L 101.070312 10.410156 L 101.070312 16.25 Z M 100.191406 16.25 "/>
<path style=" stroke:none;fill-rule:nonzero;fill:rgb(0%,0%,0%);fill-opacity:1;" d="M 104.78125 15.371094 L 104.917969 16.230469 C 104.632812 16.292969 104.382812 16.328125 104.175781 16.328125 C 103.8125 16.328125 103.53125 16.269531 103.335938 16.152344 C 103.140625 16.035156 102.996094 15.890625 102.90625 15.703125 C 102.828125 15.523438 102.789062 15.136719 102.789062 14.550781 L 102.789062 11.191406 L 102.066406 11.191406 L 102.066406 10.410156 L 102.789062 10.410156 L 102.789062 8.964844 L 103.785156 8.378906 L 103.785156 10.410156 L 104.78125 10.410156 L 104.78125 11.191406 L 103.785156 11.191406 L 103.785156 14.589844 C 103.785156 14.878906 103.796875 15.058594 103.824219 15.136719 C 103.863281 15.214844 103.921875 15.28125 104 15.332031 C 104.078125 15.386719 104.1875 15.410156 104.332031 15.410156 C 104.449219 15.410156 104.597656 15.398438 104.78125 15.371094 Z M 104.78125 15.371094 "/>
<path style=" stroke:none;fill-rule:nonzero;fill:rgb(0%,0%,0%);fill-opacity:1;" d="M 396.160156 12.324219 C 396.160156 10.996094 396.515625 9.957031 397.234375 9.199219 C 397.949219 8.433594 398.875 8.046875 400.007812 8.046875 C 400.75 8.046875 401.417969 8.234375 402.019531 8.59375 C 402.617188 8.945312 403.074219 9.445312 403.386719 10.078125 C 403.699219 10.71875 403.855469 11.4375 403.855469 12.226562 C 403.855469 13.046875 403.691406 13.785156 403.367188 14.433594 C 403.039062 15.074219 402.570312 15.5625 401.960938 15.898438 C 401.359375 16.226562 400.710938 16.386719 400.007812 16.386719 C 399.25 16.386719 398.574219 16.207031 397.976562 15.839844 C 397.375 15.476562 396.921875 14.976562 396.609375 14.335938 C 396.308594 13.703125 396.160156 13.027344 396.160156 12.324219 Z M 397.253906 12.34375 C 397.253906 13.320312 397.511719 14.09375 398.035156 14.648438 C 398.554688 15.195312 399.210938 15.46875 400.007812 15.46875 C 400.800781 15.46875 401.457031 15.191406 401.980469 14.628906 C 402.5 14.070312 402.761719 13.273438 402.761719 12.226562 C 402.761719 11.578125 402.648438 11.011719 402.429688 10.527344 C 402.207031 10.035156 401.882812 9.648438 401.453125 9.375 C 401.023438 9.101562 400.546875 8.964844 400.027344 8.964844 C 399.269531 8.964844 398.621094 9.226562 398.074219 9.746094 C 397.527344 10.269531 397.253906 11.132812 397.253906 12.34375 Z M 397.253906 12.34375 "/>
<path style=" stroke:none;fill-rule:nonzero;fill:rgb(0%,0%,0%);fill-opacity:1;" d="M 408.933594 16.25 L 408.933594 15.390625 C 408.476562 16.054688 407.859375 16.386719 407.078125 16.386719 C 406.738281 16.386719 406.417969 16.320312 406.121094 16.191406 C 405.820312 16.050781 405.59375 15.878906 405.4375 15.683594 C 405.292969 15.488281 405.195312 15.25 405.144531 14.960938 C 405.105469 14.765625 405.085938 14.453125 405.085938 14.023438 L 405.085938 10.410156 L 406.0625 10.410156 L 406.0625 13.652344 C 406.0625 14.175781 406.085938 14.523438 406.140625 14.6875 C 406.191406 14.953125 406.316406 15.15625 406.511719 15.3125 C 406.71875 15.460938 406.972656 15.527344 407.273438 15.527344 C 407.570312 15.527344 407.851562 15.460938 408.113281 15.3125 C 408.371094 15.15625 408.554688 14.953125 408.660156 14.6875 C 408.761719 14.429688 408.816406 14.042969 408.816406 13.535156 L 408.816406 10.410156 L 409.8125 10.410156 L 409.8125 16.25 Z M 408.933594 16.25 "/>
<path style=" stroke:none;fill-rule:nonzero;fill:rgb(0%,0%,0%);fill-opacity:1;" d="M 413.527344 15.371094 L 413.664062 16.230469 C 413.375 16.292969 413.125 16.328125 412.921875 16.328125 C 412.554688 16.328125 412.277344 16.269531 412.082031 16.152344 C 411.886719 16.035156 411.738281 15.890625 411.652344 15.703125 C 411.574219 15.523438 411.535156 15.136719 411.535156 14.550781 L 411.535156 11.191406 L 410.8125 11.191406 L 410.8125 10.410156 L 411.535156 10.410156 L 411.535156 8.964844 L 412.53125 8.378906 L 412.53125 10.410156 L 413.527344 10.410156 L 413.527344 11.191406 L 412.53125 11.191406 L 412.53125 14.589844 C 412.53125 14.878906 412.539062 15.058594 412.570312 15.136719 C 412.609375 15.214844 412.667969 15.28125 412.746094 15.332031 C 412.824219 15.386719 412.929688 15.410156 413.078125 15.410156 C 413.195312 15.410156 413.339844 15.398438 413.527344 15.371094 Z M 413.527344 15.371094 "/>
<path style=" stroke:none;fill-rule:nonzero;fill:rgb(0%,0%,0%);fill-opacity:1;" d="M 414.484375 18.476562 L 414.484375 10.410156 L 415.382812 10.410156 L 415.382812 11.171875 C 415.589844 10.875 415.824219 10.65625 416.085938 10.507812 C 416.359375 10.367188 416.691406 10.292969 417.082031 10.292969 C 417.574219 10.292969 418.011719 10.425781 418.390625 10.683594 C 418.765625 10.933594 419.054688 11.289062 419.25 11.757812 C 419.445312 12.226562 419.542969 12.734375 419.542969 13.28125 C 419.542969 13.882812 419.429688 14.421875 419.210938 14.902344 C 419 15.386719 418.695312 15.757812 418.292969 16.015625 C 417.886719 16.257812 417.457031 16.386719 417.003906 16.386719 C 416.675781 16.386719 416.382812 16.3125 416.125 16.171875 C 415.863281 16.03125 415.648438 15.855469 415.480469 15.644531 L 415.480469 18.476562 Z M 415.382812 13.359375 C 415.382812 14.117188 415.53125 14.679688 415.832031 15.039062 C 416.144531 15.390625 416.515625 15.566406 416.945312 15.566406 C 417.375 15.566406 417.746094 15.386719 418.058594 15.019531 C 418.382812 14.644531 418.546875 14.0625 418.546875 13.28125 C 418.546875 12.539062 418.390625 11.988281 418.078125 11.621094 C 417.777344 11.246094 417.414062 11.054688 416.984375 11.054688 C 416.566406 11.054688 416.195312 11.257812 415.871094 11.660156 C 415.542969 12.050781 415.382812 12.617188 415.382812 13.359375 Z M 415.382812 13.359375 "/>
<path style=" stroke:none;fill-rule:nonzero;fill:rgb(0%,0%,0%);fill-opacity:1;" d="M 424.566406 16.25 L 424.566406 15.390625 C 424.105469 16.054688 423.492188 16.386719 422.710938 16.386719 C 422.367188 16.386719 422.050781 16.320312 421.753906 16.191406 C 421.449219 16.050781 421.226562 15.878906 421.070312 15.683594 C 420.921875 15.488281 420.824219 15.25 420.777344 14.960938 C 420.738281 14.765625 420.71875 14.453125 420.71875 14.023438 L 420.71875 10.410156 L 421.695312 10.410156 L 421.695312 13.652344 C 421.695312 14.175781 421.71875 14.523438 421.773438 14.6875 C 421.820312 14.953125 421.949219 15.15625 422.144531 15.3125 C 422.347656 15.460938 422.601562 15.527344 422.90625 15.527344 C 423.203125 15.527344 423.480469 15.460938 423.746094 15.3125 C 424.003906 15.15625 424.183594 14.953125 424.292969 14.6875 C 424.394531 14.429688 424.449219 14.042969 424.449219 13.535156 L 424.449219 10.410156 L 425.445312 10.410156 L 425.445312 16.25 Z M 424.566406 16.25 "/>
<path style=" stroke:none;fill-rule:nonzero;fill:rgb(0%,0%,0%);fill-opacity:1;" d="M 429.15625 15.371094 L 429.292969 16.230469 C 429.007812 16.292969 428.757812 16.328125 428.550781 16.328125 C 428.1875 16.328125 427.90625 16.269531 427.710938 16.152344 C 427.515625 16.035156 427.371094 15.890625 427.28125 15.703125 C 427.203125 15.523438 427.164062 15.136719 427.164062 14.550781 L 427.164062 11.191406 L 426.441406 11.191406 L 426.441406 10.410156 L 427.164062 10.410156 L 427.164062 8.964844 L 428.160156 8.378906 L 428.160156 10.410156 L 429.15625 10.410156 L 429.15625 11.191406 L 428.160156 11.191406 L 428.160156 14.589844 C 428.160156 14.878906 428.171875 15.058594 428.199219 15.136719 C 428.238281 15.214844 428.296875 15.28125 428.375 15.332031 C 428.453125 15.386719 428.5625 15.410156 428.707031 15.410156 C 428.824219 15.410156 428.972656 15.398438 429.15625 15.371094 Z M 429.15625 15.371094 "/>
<path style=" stroke:none;fill-rule:nonzero;fill:rgb(0%,0%,0%);fill-opacity:1;" d="M 243.625 16.25 L 243.625 8.203125 L 244.699219 8.203125 L 244.699219 12.1875 L 248.703125 8.203125 L 250.128906 8.203125 L 246.769531 11.464844 L 250.285156 16.25 L 248.878906 16.25 L 246.007812 12.167969 L 244.699219 13.457031 L 244.699219 16.25 Z M 243.625 16.25 "/>
<path style=" stroke:none;fill-rule:nonzero;fill:rgb(0%,0%,0%);fill-opacity:1;" d="M 255.03125 14.375 L 256.066406 14.492188 C 255.898438 15.09375 255.589844 15.5625 255.148438 15.898438 C 254.71875 16.226562 254.164062 16.386719 253.488281 16.386719 C 252.640625 16.386719 251.964844 16.128906 251.457031 15.605469 C 250.960938 15.074219 250.714844 14.332031 250.714844 13.378906 C 250.714844 12.402344 250.96875 11.648438 251.476562 11.113281 C 251.984375 10.566406 252.640625 10.292969 253.449219 10.292969 C 254.230469 10.292969 254.863281 10.5625 255.34375 11.09375 C 255.839844 11.617188 256.085938 12.359375 256.085938 13.320312 C 256.085938 13.390625 256.085938 13.476562 256.085938 13.59375 L 251.730469 13.59375 C 251.769531 14.234375 251.953125 14.722656 252.277344 15.058594 C 252.601562 15.398438 253.011719 15.566406 253.507812 15.566406 C 253.871094 15.566406 254.179688 15.476562 254.425781 15.292969 C 254.6875 15.097656 254.886719 14.796875 255.03125 14.375 Z M 251.789062 12.773438 L 255.050781 12.773438 C 255.011719 12.28125 254.886719 11.910156 254.679688 11.660156 C 254.367188 11.285156 253.957031 11.09375 253.449219 11.09375 C 252.992188 11.09375 252.609375 11.25 252.296875 11.5625 C 251.996094 11.867188 251.828125 12.265625 251.789062 12.773438 Z M 251.789062 12.773438 "/>
<path style=" stroke:none;fill-rule:nonzero;fill:rgb(0%,0%,0%);fill-opacity:1;" d="M 257.285156 16.25 L 257.285156 10.410156 L 258.183594 10.410156 L 258.183594 11.308594 C 258.40625 10.894531 258.613281 10.621094 258.808594 10.488281 C 259.003906 10.359375 259.21875 10.292969 259.453125 10.292969 C 259.777344 10.292969 260.117188 10.398438 260.46875 10.605469 L 260.117188 11.523438 C 259.882812 11.382812 259.640625 11.308594 259.394531 11.308594 C 259.1875 11.308594 258.992188 11.375 258.808594 11.503906 C 258.640625 11.636719 258.515625 11.816406 258.4375 12.050781 C 258.332031 12.402344 258.28125 12.789062 258.28125 13.203125 L 258.28125 16.25 Z M 257.285156 16.25 "/>
<path style=" stroke:none;fill-rule:nonzero;fill:rgb(0%,0%,0%);fill-opacity:1;" d="M 261.050781 16.25 L 261.050781 10.410156 L 261.949219 10.410156 L 261.949219 11.25 C 262.367188 10.617188 262.984375 10.292969 263.804688 10.292969 C 264.15625 10.292969 264.476562 10.359375 264.761719 10.488281 C 265.0625 10.605469 265.28125 10.773438 265.425781 10.976562 C 265.570312 11.171875 265.671875 11.414062 265.738281 11.699219 C 265.777344 11.882812 265.796875 12.203125 265.796875 12.65625 L 265.796875 16.25 L 264.800781 16.25 L 264.800781 12.695312 C 264.800781 12.296875 264.761719 11.992188 264.683594 11.796875 C 264.605469 11.601562 264.46875 11.445312 264.273438 11.328125 C 264.078125 11.203125 263.851562 11.132812 263.589844 11.132812 C 263.171875 11.132812 262.808594 11.269531 262.496094 11.542969 C 262.195312 11.804688 262.046875 12.3125 262.046875 13.066406 L 262.046875 16.25 Z M 261.050781 16.25 "/>
<path style=" stroke:none;fill-rule:nonzero;fill:rgb(0%,0%,0%);fill-opacity:1;" d="M 271.292969 14.375 L 272.328125 14.492188 C 272.15625 15.09375 271.851562 15.5625 271.410156 15.898438 C 270.980469 16.226562 270.425781 16.386719 269.75 16.386719 C 268.902344 16.386719 268.226562 16.128906 267.71875 15.605469 C 267.222656 15.074219 266.976562 14.332031 266.976562 13.378906 C 266.976562 12.402344 267.230469 11.648438 267.738281 11.113281 C 268.246094 10.566406 268.902344 10.292969 269.710938 10.292969 C 270.492188 10.292969 271.121094 10.5625 271.605469 11.09375 C 272.097656 11.617188 272.347656 12.359375 272.347656 13.320312 C 272.347656 13.390625 272.347656 13.476562 272.347656 13.59375 L 267.992188 13.59375 C 268.03125 14.234375 268.210938 14.722656 268.539062 15.058594 C 268.863281 15.398438 269.273438 15.566406 269.769531 15.566406 C 270.132812 15.566406 270.4375 15.476562 270.6875 15.292969 C 270.945312 15.097656 271.148438 14.796875 271.292969 14.375 Z M 268.050781 12.773438 L 271.3125 12.773438 C 271.273438 12.28125 271.148438 11.910156 270.941406 11.660156 C 270.628906 11.285156 270.21875 11.09375 269.710938 11.09375 C 269.253906 11.09375 268.871094 11.25 268.558594 11.5625 C 268.257812 11.867188 268.089844 12.265625 268.050781 12.773438 Z M 268.050781 12.773438 "/>
<path style=" stroke:none;fill-rule:nonzero;fill:rgb(0%,0%,0%);fill-opacity:1;" d="M 273.546875 16.25 L 273.546875 8.203125 L 274.523438 8.203125 L 274.523438 16.25 Z M 273.546875 16.25 "/>
</g>
</svg>
