<?xml version="1.0" encoding="UTF-8"?>
<svg xmlns="http://www.w3.org/2000/svg" xmlns:xlink="http://www.w3.org/1999/xlink" width="250pt" height="283pt" viewBox="0 0 250 283" version="1.1">
<g id="surface1">
<path style="fill:none;stroke-width:1;stroke-linecap:round;stroke-linejoin:round;stroke:rgb(0%,0%,0%);stroke-opacity:1;stroke-miterlimit:10;" d="M 229.60625 646.29375 L 253.60625 646.29375 L 253.60625 670.29375 L 229.60625 670.29375 Z M 229.60625 646.29375 " transform="matrix(1.25,0,0,1.25,-68.75,-667.5)"/>
<path style=" stroke:none;fill-rule:nonzero;fill:rgb(0%,0%,0%);fill-opacity:1;" d="M 233.039062 160.363281 L 233.039062 160.089844 C 232.238281 159.972656 232.042969 159.855469 232.042969 159.269531 L 232.042969 153.878906 C 232.042969 153.273438 232.277344 153.097656 233.039062 153.039062 L 233.039062 152.765625 L 229.230469 152.765625 L 229.230469 153.039062 C 230.011719 153.097656 230.226562 153.234375 230.226562 153.878906 L 230.226562 156.164062 L 227.511719 156.164062 L 227.511719 153.878906 C 227.511719 153.234375 227.726562 153.097656 228.527344 153.039062 L 228.527344 152.765625 L 224.738281 152.765625 L 224.738281 153.039062 C 225.5 153.097656 225.695312 153.253906 225.695312 153.878906 L 225.695312 159.269531 C 225.695312 159.855469 225.519531 159.972656 224.738281 160.089844 L 224.738281 160.363281 L 228.527344 160.363281 L 228.527344 160.089844 C 227.707031 159.992188 227.511719 159.855469 227.511719 159.269531 L 227.511719 156.691406 L 230.226562 156.691406 L 230.226562 159.269531 C 230.226562 159.835938 230.050781 159.992188 229.230469 160.089844 L 229.230469 160.363281 Z M 233.039062 160.363281 "/>
<path style=" stroke:none;fill-rule:nonzero;fill:rgb(0%,0%,0%);fill-opacity:1;" d="M 238.003906 159.210938 L 234.019531 159.210938 L 233.707031 160.382812 L 233.84375 160.402344 C 234.195312 159.601562 234.429688 159.484375 235.621094 159.484375 L 234.546875 163.429688 C 234.429688 163.839844 234.253906 163.957031 233.746094 163.996094 L 233.746094 164.113281 L 235.914062 164.113281 L 235.914062 163.996094 L 235.640625 163.976562 C 235.328125 163.9375 235.25 163.878906 235.25 163.644531 C 235.25 163.488281 235.308594 163.3125 235.347656 163.15625 L 236.382812 159.484375 L 236.8125 159.484375 C 237.300781 159.484375 237.574219 159.679688 237.574219 160.089844 C 237.574219 160.1875 237.554688 160.304688 237.554688 160.421875 L 237.671875 160.441406 Z M 238.003906 159.210938 "/>
<path style=" stroke:none;fill-rule:nonzero;fill:rgb(0%,0%,0%);fill-opacity:1;" d="M 237.070312 153.570312 C 236.015625 152.691406 235.78125 151.851562 235.78125 150.445312 C 235.78125 149 236.015625 148.296875 237.070312 147.417969 L 236.992188 147.28125 C 235.800781 148.003906 235.136719 149.078125 235.136719 150.464844 C 235.136719 151.753906 235.78125 153.003906 236.972656 153.6875 Z M 237.070312 153.570312 "/>
<path style=" stroke:none;fill-rule:nonzero;fill:rgb(0%,0%,0%);fill-opacity:1;" d="M 240.839844 151.324219 L 240.742188 151.285156 C 240.488281 151.714844 240.332031 151.792969 240.019531 151.792969 L 238.261719 151.792969 L 239.492188 150.464844 C 240.15625 149.761719 240.449219 149.195312 240.449219 148.609375 C 240.449219 147.867188 239.921875 147.28125 239.0625 147.28125 C 238.144531 147.28125 237.675781 147.90625 237.519531 148.785156 L 237.675781 148.824219 C 237.96875 148.082031 238.222656 147.847656 238.769531 147.847656 C 239.414062 147.847656 239.804688 148.21875 239.804688 148.902344 C 239.804688 149.546875 239.550781 150.113281 238.828125 150.855469 L 237.5 152.261719 L 237.5 152.359375 L 240.429688 152.359375 Z M 240.839844 151.324219 "/>
<path style=" stroke:none;fill-rule:nonzero;fill:rgb(0%,0%,0%);fill-opacity:1;" d="M 241.25 147.417969 C 242.34375 148.257812 242.519531 149.117188 242.519531 150.523438 C 242.519531 151.988281 242.324219 152.691406 241.25 153.570312 L 241.328125 153.6875 C 242.519531 152.964844 243.164062 151.890625 243.164062 150.503906 C 243.164062 149.234375 242.480469 147.984375 241.347656 147.28125 Z M 241.25 147.417969 "/>
<path style="fill-rule:nonzero;fill:rgb(69.803922%,85.098039%,100%);fill-opacity:1;stroke-width:1;stroke-linecap:round;stroke-linejoin:round;stroke:rgb(0%,0%,0%);stroke-opacity:1;stroke-miterlimit:10;" d="M 229.60625 734.859375 L 253.60625 734.859375 L 253.60625 758.859375 L 229.60625 758.859375 Z M 229.60625 734.859375 " transform="matrix(1.25,0,0,1.25,-68.75,-667.5)"/>
<path style=" stroke:none;fill-rule:nonzero;fill:rgb(0%,0%,0%);fill-opacity:1;" d="M 234.980469 267.949219 L 234.980469 267.675781 C 234.589844 267.65625 234.414062 267.519531 233.886719 266.699219 L 231.835938 263.515625 L 232.734375 262.265625 C 233.710938 260.898438 234.003906 260.703125 234.84375 260.625 L 234.84375 260.351562 L 232.03125 260.351562 L 232.03125 260.625 L 232.265625 260.644531 C 232.695312 260.683594 232.851562 260.78125 232.851562 261.035156 C 232.851562 261.289062 232.714844 261.503906 232.1875 262.226562 L 231.5625 263.105469 L 230.46875 261.40625 C 230.332031 261.191406 230.3125 261.132812 230.3125 260.996094 C 230.3125 260.761719 230.429688 260.664062 230.839844 260.644531 L 231.191406 260.625 L 231.191406 260.351562 L 227.304688 260.351562 L 227.304688 260.625 C 227.714844 260.664062 227.851562 260.78125 228.203125 261.269531 L 230.429688 264.550781 L 228.457031 267.03125 C 228.125 267.460938 227.851562 267.597656 227.285156 267.675781 L 227.285156 267.949219 L 230.097656 267.949219 L 230.097656 267.675781 C 229.414062 267.597656 229.199219 267.480469 229.199219 267.1875 C 229.199219 266.953125 229.414062 266.601562 230.253906 265.46875 L 230.683594 264.902344 L 231.816406 266.71875 C 231.953125 266.933594 232.050781 267.1875 232.050781 267.324219 C 232.050781 267.519531 231.855469 267.617188 231.464844 267.636719 L 231.152344 267.675781 L 231.152344 267.949219 Z M 234.980469 267.949219 "/>
<path style=" stroke:none;fill-rule:nonzero;fill:rgb(0%,0%,0%);fill-opacity:1;" d="M 239.976562 266.796875 L 235.992188 266.796875 L 235.679688 267.96875 L 235.816406 267.988281 C 236.167969 267.1875 236.402344 267.070312 237.59375 267.070312 L 236.519531 271.015625 C 236.402344 271.425781 236.226562 271.542969 235.71875 271.582031 L 235.71875 271.699219 L 237.886719 271.699219 L 237.886719 271.582031 L 237.613281 271.5625 C 237.300781 271.523438 237.222656 271.464844 237.222656 271.230469 C 237.222656 271.074219 237.28125 270.898438 237.320312 270.742188 L 238.355469 267.070312 L 238.785156 267.070312 C 239.273438 267.070312 239.546875 267.265625 239.546875 267.675781 C 239.546875 267.773438 239.527344 267.890625 239.527344 268.007812 L 239.644531 268.027344 Z M 239.976562 266.796875 "/>
<path style="fill-rule:nonzero;fill:rgb(69.803922%,85.098039%,100%);fill-opacity:1;stroke-width:1;stroke-linecap:round;stroke-linejoin:round;stroke:rgb(0%,0%,0%);stroke-opacity:1;stroke-miterlimit:10;" d="M 100.80625 734.859375 L 124.80625 734.859375 L 124.80625 758.859375 L 100.80625 758.859375 Z M 100.80625 734.859375 " transform="matrix(1.25,0,0,1.25,-68.75,-667.5)"/>
<path style=" stroke:none;fill-rule:nonzero;fill:rgb(0%,0%,0%);fill-opacity:1;" d="M 74.1875 267.949219 L 74.1875 267.675781 C 73.796875 267.65625 73.621094 267.519531 73.09375 266.699219 L 71.042969 263.515625 L 71.941406 262.265625 C 72.917969 260.898438 73.210938 260.703125 74.050781 260.625 L 74.050781 260.351562 L 71.238281 260.351562 L 71.238281 260.625 L 71.472656 260.644531 C 71.902344 260.683594 72.058594 260.78125 72.058594 261.035156 C 72.058594 261.289062 71.921875 261.503906 71.394531 262.226562 L 70.769531 263.105469 L 69.675781 261.40625 C 69.539062 261.191406 69.519531 261.132812 69.519531 260.996094 C 69.519531 260.761719 69.636719 260.664062 70.046875 260.644531 L 70.398438 260.625 L 70.398438 260.351562 L 66.511719 260.351562 L 66.511719 260.625 C 66.921875 260.664062 67.058594 260.78125 67.410156 261.269531 L 69.636719 264.550781 L 67.664062 267.03125 C 67.332031 267.460938 67.058594 267.597656 66.492188 267.675781 L 66.492188 267.949219 L 69.304688 267.949219 L 69.304688 267.675781 C 68.621094 267.597656 68.40625 267.480469 68.40625 267.1875 C 68.40625 266.953125 68.621094 266.601562 69.460938 265.46875 L 69.890625 264.902344 L 71.023438 266.71875 C 71.160156 266.933594 71.257812 267.1875 71.257812 267.324219 C 71.257812 267.519531 71.0625 267.617188 70.671875 267.636719 L 70.359375 267.675781 L 70.359375 267.949219 Z M 74.1875 267.949219 "/>
<path style=" stroke:none;fill-rule:nonzero;fill:rgb(0%,0%,0%);fill-opacity:1;" d="M 77.996094 270.664062 L 77.898438 270.625 C 77.644531 271.054688 77.488281 271.132812 77.175781 271.132812 L 75.417969 271.132812 L 76.648438 269.804688 C 77.3125 269.101562 77.605469 268.535156 77.605469 267.949219 C 77.605469 267.207031 77.078125 266.621094 76.21875 266.621094 C 75.300781 266.621094 74.832031 267.246094 74.675781 268.125 L 74.832031 268.164062 C 75.125 267.421875 75.378906 267.1875 75.925781 267.1875 C 76.570312 267.1875 76.960938 267.558594 76.960938 268.242188 C 76.960938 268.886719 76.707031 269.453125 75.984375 270.195312 L 74.65625 271.601562 L 74.65625 271.699219 L 77.585938 271.699219 Z M 77.996094 270.664062 "/>
<path style="fill-rule:nonzero;fill:rgb(69.803922%,85.098039%,100%);fill-opacity:1;stroke-width:1;stroke-linecap:round;stroke-linejoin:round;stroke:rgb(0%,0%,0%);stroke-opacity:1;stroke-miterlimit:10;" d="M 55.80625 734.859375 L 79.80625 734.859375 L 79.80625 758.859375 L 55.80625 758.859375 Z M 55.80625 734.859375 " transform="matrix(1.25,0,0,1.25,-68.75,-667.5)"/>
<path style=" stroke:none;fill-rule:nonzero;fill:rgb(0%,0%,0%);fill-opacity:1;" d="M 17.9375 267.949219 L 17.9375 267.675781 C 17.546875 267.65625 17.371094 267.519531 16.84375 266.699219 L 14.792969 263.515625 L 15.691406 262.265625 C 16.667969 260.898438 16.960938 260.703125 17.800781 260.625 L 17.800781 260.351562 L 14.988281 260.351562 L 14.988281 260.625 L 15.222656 260.644531 C 15.652344 260.683594 15.808594 260.78125 15.808594 261.035156 C 15.808594 261.289062 15.671875 261.503906 15.144531 262.226562 L 14.519531 263.105469 L 13.425781 261.40625 C 13.289062 261.191406 13.269531 261.132812 13.269531 260.996094 C 13.269531 260.761719 13.386719 260.664062 13.796875 260.644531 L 14.148438 260.625 L 14.148438 260.351562 L 10.261719 260.351562 L 10.261719 260.625 C 10.671875 260.664062 10.808594 260.78125 11.160156 261.269531 L 13.386719 264.550781 L 11.414062 267.03125 C 11.082031 267.460938 10.808594 267.597656 10.242188 267.675781 L 10.242188 267.949219 L 13.054688 267.949219 L 13.054688 267.675781 C 12.371094 267.597656 12.15625 267.480469 12.15625 267.1875 C 12.15625 266.953125 12.371094 266.601562 13.210938 265.46875 L 13.640625 264.902344 L 14.773438 266.71875 C 14.910156 266.933594 15.007812 267.1875 15.007812 267.324219 C 15.007812 267.519531 14.8125 267.617188 14.421875 267.636719 L 14.109375 267.675781 L 14.109375 267.949219 Z M 17.9375 267.949219 "/>
<path style=" stroke:none;fill-rule:nonzero;fill:rgb(0%,0%,0%);fill-opacity:1;" d="M 21.140625 271.699219 L 21.140625 271.582031 C 20.574219 271.582031 20.4375 271.445312 20.4375 271.132812 L 20.4375 266.660156 L 20.359375 266.621094 L 19.03125 267.304688 L 19.03125 267.421875 L 19.226562 267.34375 C 19.363281 267.285156 19.480469 267.246094 19.558594 267.246094 C 19.714844 267.246094 19.792969 267.363281 19.792969 267.617188 L 19.792969 270.996094 C 19.792969 271.40625 19.636719 271.5625 19.070312 271.582031 L 19.070312 271.699219 Z M 21.140625 271.699219 "/>
<path style="fill:none;stroke-width:1;stroke-linecap:round;stroke-linejoin:round;stroke:rgb(0%,0%,0%);stroke-opacity:1;stroke-miterlimit:10;" d="M 55.80625 646.29375 L 79.80625 646.29375 L 79.80625 670.29375 L 55.80625 670.29375 Z M 55.80625 646.29375 " transform="matrix(1.25,0,0,1.25,-68.75,-667.5)"/>
<path style=" stroke:none;fill-rule:nonzero;fill:rgb(0%,0%,0%);fill-opacity:1;" d="M 15.789062 160.363281 L 15.789062 160.089844 C 14.988281 159.972656 14.792969 159.855469 14.792969 159.269531 L 14.792969 153.878906 C 14.792969 153.273438 15.027344 153.097656 15.789062 153.039062 L 15.789062 152.765625 L 11.980469 152.765625 L 11.980469 153.039062 C 12.761719 153.097656 12.976562 153.234375 12.976562 153.878906 L 12.976562 156.164062 L 10.261719 156.164062 L 10.261719 153.878906 C 10.261719 153.234375 10.476562 153.097656 11.277344 153.039062 L 11.277344 152.765625 L 7.488281 152.765625 L 7.488281 153.039062 C 8.25 153.097656 8.445312 153.253906 8.445312 153.878906 L 8.445312 159.269531 C 8.445312 159.855469 8.269531 159.972656 7.488281 160.089844 L 7.488281 160.363281 L 11.277344 160.363281 L 11.277344 160.089844 C 10.457031 159.992188 10.261719 159.855469 10.261719 159.269531 L 10.261719 156.691406 L 12.976562 156.691406 L 12.976562 159.269531 C 12.976562 159.835938 12.800781 159.992188 11.980469 160.089844 L 11.980469 160.363281 Z M 15.789062 160.363281 "/>
<path style=" stroke:none;fill-rule:nonzero;fill:rgb(0%,0%,0%);fill-opacity:1;" d="M 18.957031 164.113281 L 18.957031 163.996094 C 18.390625 163.996094 18.253906 163.859375 18.253906 163.546875 L 18.253906 159.074219 L 18.175781 159.035156 L 16.847656 159.71875 L 16.847656 159.835938 L 17.042969 159.757812 C 17.179688 159.699219 17.296875 159.660156 17.375 159.660156 C 17.53125 159.660156 17.609375 159.777344 17.609375 160.03125 L 17.609375 163.410156 C 17.609375 163.820312 17.453125 163.976562 16.886719 163.996094 L 16.886719 164.113281 Z M 18.957031 164.113281 "/>
<path style=" stroke:none;fill-rule:nonzero;fill:rgb(0%,0%,0%);fill-opacity:1;" d="M 19.820312 153.570312 C 18.765625 152.691406 18.53125 151.851562 18.53125 150.445312 C 18.53125 149 18.765625 148.296875 19.820312 147.417969 L 19.742188 147.28125 C 18.550781 148.003906 17.886719 149.078125 17.886719 150.464844 C 17.886719 151.753906 18.53125 153.003906 19.722656 153.6875 Z M 19.820312 153.570312 "/>
<path style=" stroke:none;fill-rule:nonzero;fill:rgb(0%,0%,0%);fill-opacity:1;" d="M 23.589844 151.324219 L 23.492188 151.285156 C 23.238281 151.714844 23.082031 151.792969 22.769531 151.792969 L 21.011719 151.792969 L 22.242188 150.464844 C 22.90625 149.761719 23.199219 149.195312 23.199219 148.609375 C 23.199219 147.867188 22.671875 147.28125 21.8125 147.28125 C 20.894531 147.28125 20.425781 147.90625 20.269531 148.785156 L 20.425781 148.824219 C 20.71875 148.082031 20.972656 147.847656 21.519531 147.847656 C 22.164062 147.847656 22.554688 148.21875 22.554688 148.902344 C 22.554688 149.546875 22.300781 150.113281 21.578125 150.855469 L 20.25 152.261719 L 20.25 152.359375 L 23.179688 152.359375 Z M 23.589844 151.324219 "/>
<path style=" stroke:none;fill-rule:nonzero;fill:rgb(0%,0%,0%);fill-opacity:1;" d="M 24 147.417969 C 25.09375 148.257812 25.269531 149.117188 25.269531 150.523438 C 25.269531 151.988281 25.074219 152.691406 24 153.570312 L 24.078125 153.6875 C 25.269531 152.964844 25.914062 151.890625 25.914062 150.503906 C 25.914062 149.234375 25.230469 147.984375 24.097656 147.28125 Z M 24 147.417969 "/>
<path style=" stroke:none;fill-rule:nonzero;fill:rgb(0%,0%,0%);fill-opacity:1;" d="M 187.785156 213.921875 C 187.785156 213.550781 187.453125 213.21875 187.082031 213.21875 C 186.710938 213.21875 186.398438 213.53125 186.398438 213.921875 C 186.398438 214.292969 186.710938 214.605469 187.0625 214.605469 C 187.453125 214.605469 187.785156 214.3125 187.785156 213.921875 Z M 184.074219 213.921875 C 184.074219 213.550781 183.742188 213.21875 183.371094 213.21875 C 183 213.21875 182.6875 213.53125 182.6875 213.921875 C 182.6875 214.292969 183 214.605469 183.332031 214.605469 C 183.742188 214.605469 184.074219 214.3125 184.074219 213.921875 Z M 180.363281 213.921875 C 180.363281 213.550781 180.03125 213.21875 179.660156 213.21875 C 179.269531 213.21875 178.957031 213.53125 178.957031 213.921875 C 178.957031 214.292969 179.269531 214.605469 179.621094 214.605469 C 180.03125 214.605469 180.363281 214.3125 180.363281 213.921875 Z M 180.363281 213.921875 "/>
<path style=" stroke:none;fill-rule:nonzero;fill:rgb(0%,0%,0%);fill-opacity:1;" d="M 190.980469 158.566406 C 190.980469 158.195312 190.648438 157.863281 190.277344 157.863281 C 189.90625 157.863281 189.59375 158.175781 189.59375 158.566406 C 189.59375 158.9375 189.90625 159.25 190.257812 159.25 C 190.648438 159.25 190.980469 158.957031 190.980469 158.566406 Z M 187.269531 158.566406 C 187.269531 158.195312 186.9375 157.863281 186.566406 157.863281 C 186.195312 157.863281 185.882812 158.175781 185.882812 158.566406 C 185.882812 158.9375 186.195312 159.25 186.527344 159.25 C 186.9375 159.25 187.269531 158.957031 187.269531 158.566406 Z M 183.558594 158.566406 C 183.558594 158.195312 183.226562 157.863281 182.855469 157.863281 C 182.464844 157.863281 182.152344 158.175781 182.152344 158.566406 C 182.152344 158.9375 182.464844 159.25 182.816406 159.25 C 183.226562 159.25 183.558594 158.957031 183.558594 158.566406 Z M 183.558594 158.566406 "/>
<path style=" stroke:none;fill-rule:nonzero;fill:rgb(0%,0%,0%);fill-opacity:1;" d="M 190.980469 75.160156 C 190.980469 74.789062 190.648438 74.457031 190.277344 74.457031 C 189.90625 74.457031 189.59375 74.769531 189.59375 75.160156 C 189.59375 75.53125 189.90625 75.84375 190.257812 75.84375 C 190.648438 75.84375 190.980469 75.550781 190.980469 75.160156 Z M 187.269531 75.160156 C 187.269531 74.789062 186.9375 74.457031 186.566406 74.457031 C 186.195312 74.457031 185.882812 74.769531 185.882812 75.160156 C 185.882812 75.53125 186.195312 75.84375 186.527344 75.84375 C 186.9375 75.84375 187.269531 75.550781 187.269531 75.160156 Z M 183.558594 75.160156 C 183.558594 74.789062 183.226562 74.457031 182.855469 74.457031 C 182.464844 74.457031 182.152344 74.769531 182.152344 75.160156 C 182.152344 75.53125 182.464844 75.84375 182.816406 75.84375 C 183.226562 75.84375 183.558594 75.550781 183.558594 75.160156 Z M 183.558594 75.160156 "/>
<path style="fill-rule:nonzero;fill:rgb(69.803922%,85.098039%,100%);fill-opacity:1;stroke-width:1;stroke-linecap:round;stroke-linejoin:round;stroke:rgb(0%,0%,0%);stroke-opacity:1;stroke-miterlimit:10;" d="M 229.60625 535 L 253.60625 535 L 253.60625 559 L 229.60625 559 Z M 229.60625 535 " transform="matrix(1.25,0,0,1.25,-68.75,-667.5)"/>
<path style=" stroke:none;fill-rule:nonzero;fill:rgb(0%,0%,0%);fill-opacity:1;" d="M 235.152344 14.355469 C 235.152344 12.03125 233.492188 10.351562 231.226562 10.351562 C 228.882812 10.351562 227.183594 11.972656 227.183594 14.375 C 227.183594 16.699219 228.824219 18.339844 231.148438 18.339844 C 233.492188 18.339844 235.152344 16.699219 235.152344 14.355469 Z M 233.160156 14.433594 C 233.160156 16.757812 232.476562 17.96875 231.1875 17.96875 C 229.898438 17.96875 229.175781 16.777344 229.175781 14.414062 C 229.175781 12.050781 229.878906 10.722656 231.128906 10.722656 C 232.4375 10.722656 233.160156 12.03125 233.160156 14.433594 Z M 233.160156 14.433594 "/>
<path style=" stroke:none;fill-rule:nonzero;fill:rgb(0%,0%,0%);fill-opacity:1;" d="M 240.292969 16.972656 L 236.308594 16.972656 L 235.996094 18.144531 L 236.132812 18.164062 C 236.484375 17.363281 236.71875 17.246094 237.910156 17.246094 L 236.835938 21.191406 C 236.71875 21.601562 236.542969 21.71875 236.035156 21.757812 L 236.035156 21.875 L 238.203125 21.875 L 238.203125 21.757812 L 237.929688 21.738281 C 237.617188 21.699219 237.539062 21.640625 237.539062 21.40625 C 237.539062 21.25 237.597656 21.074219 237.636719 20.917969 L 238.671875 17.246094 L 239.101562 17.246094 C 239.589844 17.246094 239.863281 17.441406 239.863281 17.851562 C 239.863281 17.949219 239.84375 18.066406 239.84375 18.183594 L 239.960938 18.203125 Z M 240.292969 16.972656 "/>
<path style="fill-rule:nonzero;fill:rgb(69.803922%,85.098039%,100%);fill-opacity:1;stroke-width:1;stroke-linecap:round;stroke-linejoin:round;stroke:rgb(0%,0%,0%);stroke-opacity:1;stroke-miterlimit:10;" d="M 100.80625 535 L 124.80625 535 L 124.80625 559 L 100.80625 559 Z M 100.80625 535 " transform="matrix(1.25,0,0,1.25,-68.75,-667.5)"/>
<path style=" stroke:none;fill-rule:nonzero;fill:rgb(0%,0%,0%);fill-opacity:1;" d="M 74.363281 14.355469 C 74.363281 12.03125 72.703125 10.351562 70.4375 10.351562 C 68.09375 10.351562 66.394531 11.972656 66.394531 14.375 C 66.394531 16.699219 68.035156 18.339844 70.359375 18.339844 C 72.703125 18.339844 74.363281 16.699219 74.363281 14.355469 Z M 72.371094 14.433594 C 72.371094 16.757812 71.6875 17.96875 70.398438 17.96875 C 69.109375 17.96875 68.386719 16.777344 68.386719 14.414062 C 68.386719 12.050781 69.089844 10.722656 70.339844 10.722656 C 71.648438 10.722656 72.371094 12.03125 72.371094 14.433594 Z M 72.371094 14.433594 "/>
<path style=" stroke:none;fill-rule:nonzero;fill:rgb(0%,0%,0%);fill-opacity:1;" d="M 78.308594 20.839844 L 78.210938 20.800781 C 77.957031 21.230469 77.800781 21.308594 77.488281 21.308594 L 75.730469 21.308594 L 76.960938 19.980469 C 77.625 19.277344 77.917969 18.710938 77.917969 18.125 C 77.917969 17.382812 77.390625 16.796875 76.53125 16.796875 C 75.613281 16.796875 75.144531 17.421875 74.988281 18.300781 L 75.144531 18.339844 C 75.4375 17.597656 75.691406 17.363281 76.238281 17.363281 C 76.882812 17.363281 77.273438 17.734375 77.273438 18.417969 C 77.273438 19.0625 77.019531 19.628906 76.296875 20.371094 L 74.96875 21.777344 L 74.96875 21.875 L 77.898438 21.875 Z M 78.308594 20.839844 "/>
<path style="fill-rule:nonzero;fill:rgb(69.803922%,85.098039%,100%);fill-opacity:1;stroke-width:1;stroke-linecap:round;stroke-linejoin:round;stroke:rgb(0%,0%,0%);stroke-opacity:1;stroke-miterlimit:10;" d="M 55.80625 535 L 79.80625 535 L 79.80625 559 L 55.80625 559 Z M 55.80625 535 " transform="matrix(1.25,0,0,1.25,-68.75,-667.5)"/>
<path style=" stroke:none;fill-rule:nonzero;fill:rgb(0%,0%,0%);fill-opacity:1;" d="M 18.113281 14.355469 C 18.113281 12.03125 16.453125 10.351562 14.1875 10.351562 C 11.84375 10.351562 10.144531 11.972656 10.144531 14.375 C 10.144531 16.699219 11.785156 18.339844 14.109375 18.339844 C 16.453125 18.339844 18.113281 16.699219 18.113281 14.355469 Z M 16.121094 14.433594 C 16.121094 16.757812 15.4375 17.96875 14.148438 17.96875 C 12.859375 17.96875 12.136719 16.777344 12.136719 14.414062 C 12.136719 12.050781 12.839844 10.722656 14.089844 10.722656 C 15.398438 10.722656 16.121094 12.03125 16.121094 14.433594 Z M 16.121094 14.433594 "/>
<path style=" stroke:none;fill-rule:nonzero;fill:rgb(0%,0%,0%);fill-opacity:1;" d="M 21.453125 21.875 L 21.453125 21.757812 C 20.886719 21.757812 20.75 21.621094 20.75 21.308594 L 20.75 16.835938 L 20.671875 16.796875 L 19.34375 17.480469 L 19.34375 17.597656 L 19.539062 17.519531 C 19.675781 17.460938 19.792969 17.421875 19.871094 17.421875 C 20.027344 17.421875 20.105469 17.539062 20.105469 17.792969 L 20.105469 21.171875 C 20.105469 21.582031 19.949219 21.738281 19.382812 21.757812 L 19.382812 21.875 Z M 21.453125 21.875 "/>
<path style=" stroke:none;fill-rule:nonzero;fill:rgb(0%,0%,0%);fill-opacity:1;" d="M 19.980469 115.988281 C 19.980469 115.617188 19.648438 115.285156 19.277344 115.285156 C 18.90625 115.285156 18.59375 115.597656 18.59375 115.988281 C 18.59375 116.359375 18.90625 116.671875 19.257812 116.671875 C 19.648438 116.671875 19.980469 116.378906 19.980469 115.988281 Z M 16.269531 115.988281 C 16.269531 115.617188 15.9375 115.285156 15.566406 115.285156 C 15.195312 115.285156 14.882812 115.597656 14.882812 115.988281 C 14.882812 116.359375 15.195312 116.671875 15.527344 116.671875 C 15.9375 116.671875 16.269531 116.378906 16.269531 115.988281 Z M 12.558594 115.988281 C 12.558594 115.617188 12.226562 115.285156 11.855469 115.285156 C 11.464844 115.285156 11.152344 115.597656 11.152344 115.988281 C 11.152344 116.359375 11.464844 116.671875 11.816406 116.671875 C 12.226562 116.671875 12.558594 116.378906 12.558594 115.988281 Z M 12.558594 115.988281 "/>
<path style="fill:none;stroke-width:1;stroke-linecap:round;stroke-linejoin:round;stroke:rgb(0%,0%,0%);stroke-opacity:1;stroke-miterlimit:10;" d="M 112.80625 734.859375 L 112.80625 720.475 " transform="matrix(1.25,0,0,1.25,-68.75,-667.5)"/>
<path style="fill:none;stroke-width:1;stroke-linecap:butt;stroke-linejoin:miter;stroke:rgb(0%,0%,0%);stroke-opacity:1;stroke-miterlimit:10;" d="M 112.80625 716.475 L 112.80625 720.475 M 111.30625 720.475 L 112.80625 716.475 L 114.30625 720.475 " transform="matrix(1.25,0,0,1.25,-68.75,-667.5)"/>
<path style="fill:none;stroke-width:1;stroke-linecap:round;stroke-linejoin:round;stroke:rgb(0%,0%,0%);stroke-opacity:1;stroke-miterlimit:10;" d="M 55.80625 690.575 L 79.80625 690.575 L 79.80625 714.575 L 55.80625 714.575 Z M 55.80625 690.575 " transform="matrix(1.25,0,0,1.25,-68.75,-667.5)"/>
<path style=" stroke:none;fill-rule:nonzero;fill:rgb(0%,0%,0%);fill-opacity:1;" d="M 15.789062 215.71875 L 15.789062 215.445312 C 14.988281 215.328125 14.792969 215.210938 14.792969 214.625 L 14.792969 209.234375 C 14.792969 208.628906 15.027344 208.453125 15.789062 208.394531 L 15.789062 208.121094 L 11.980469 208.121094 L 11.980469 208.394531 C 12.761719 208.453125 12.976562 208.589844 12.976562 209.234375 L 12.976562 211.519531 L 10.261719 211.519531 L 10.261719 209.234375 C 10.261719 208.589844 10.476562 208.453125 11.277344 208.394531 L 11.277344 208.121094 L 7.488281 208.121094 L 7.488281 208.394531 C 8.25 208.453125 8.445312 208.609375 8.445312 209.234375 L 8.445312 214.625 C 8.445312 215.210938 8.269531 215.328125 7.488281 215.445312 L 7.488281 215.71875 L 11.277344 215.71875 L 11.277344 215.445312 C 10.457031 215.347656 10.261719 215.210938 10.261719 214.625 L 10.261719 212.046875 L 12.976562 212.046875 L 12.976562 214.625 C 12.976562 215.191406 12.800781 215.347656 11.980469 215.445312 L 11.980469 215.71875 Z M 15.789062 215.71875 "/>
<path style=" stroke:none;fill-rule:nonzero;fill:rgb(0%,0%,0%);fill-opacity:1;" d="M 18.957031 219.46875 L 18.957031 219.351562 C 18.390625 219.351562 18.253906 219.214844 18.253906 218.902344 L 18.253906 214.429688 L 18.175781 214.390625 L 16.847656 215.074219 L 16.847656 215.191406 L 17.042969 215.113281 C 17.179688 215.054688 17.296875 215.015625 17.375 215.015625 C 17.53125 215.015625 17.609375 215.132812 17.609375 215.386719 L 17.609375 218.765625 C 17.609375 219.175781 17.453125 219.332031 16.886719 219.351562 L 16.886719 219.46875 Z M 18.957031 219.46875 "/>
<path style=" stroke:none;fill-rule:nonzero;fill:rgb(0%,0%,0%);fill-opacity:1;" d="M 19.820312 208.925781 C 18.765625 208.046875 18.53125 207.207031 18.53125 205.800781 C 18.53125 204.355469 18.765625 203.652344 19.820312 202.773438 L 19.742188 202.636719 C 18.550781 203.359375 17.886719 204.433594 17.886719 205.820312 C 17.886719 207.109375 18.53125 208.359375 19.722656 209.042969 Z M 19.820312 208.925781 "/>
<path style=" stroke:none;fill-rule:nonzero;fill:rgb(0%,0%,0%);fill-opacity:1;" d="M 22.984375 207.714844 L 22.984375 207.597656 C 22.417969 207.597656 22.28125 207.460938 22.28125 207.148438 L 22.28125 202.675781 L 22.203125 202.636719 L 20.875 203.320312 L 20.875 203.4375 L 21.070312 203.359375 C 21.207031 203.300781 21.324219 203.261719 21.402344 203.261719 C 21.558594 203.261719 21.636719 203.378906 21.636719 203.632812 L 21.636719 207.011719 C 21.636719 207.421875 21.480469 207.578125 20.914062 207.597656 L 20.914062 207.714844 Z M 22.984375 207.714844 "/>
<path style=" stroke:none;fill-rule:nonzero;fill:rgb(0%,0%,0%);fill-opacity:1;" d="M 24 202.773438 C 25.09375 203.613281 25.269531 204.472656 25.269531 205.878906 C 25.269531 207.34375 25.074219 208.046875 24 208.925781 L 24.078125 209.042969 C 25.269531 208.320312 25.914062 207.246094 25.914062 205.859375 C 25.914062 204.589844 25.230469 203.339844 24.097656 202.636719 Z M 24 202.773438 "/>
<path style="fill:none;stroke-width:1;stroke-linecap:round;stroke-linejoin:round;stroke:rgb(0%,0%,0%);stroke-opacity:1;stroke-miterlimit:10;" d="M 55.80625 579.565625 L 79.80625 579.565625 L 79.80625 603.565625 L 55.80625 603.565625 Z M 55.80625 579.565625 " transform="matrix(1.25,0,0,1.25,-68.75,-667.5)"/>
<path style=" stroke:none;fill-rule:nonzero;fill:rgb(0%,0%,0%);fill-opacity:1;" d="M 15.789062 76.957031 L 15.789062 76.683594 C 14.988281 76.566406 14.792969 76.449219 14.792969 75.863281 L 14.792969 70.472656 C 14.792969 69.867188 15.027344 69.691406 15.789062 69.632812 L 15.789062 69.359375 L 11.980469 69.359375 L 11.980469 69.632812 C 12.761719 69.691406 12.976562 69.828125 12.976562 70.472656 L 12.976562 72.757812 L 10.261719 72.757812 L 10.261719 70.472656 C 10.261719 69.828125 10.476562 69.691406 11.277344 69.632812 L 11.277344 69.359375 L 7.488281 69.359375 L 7.488281 69.632812 C 8.25 69.691406 8.445312 69.847656 8.445312 70.472656 L 8.445312 75.863281 C 8.445312 76.449219 8.269531 76.566406 7.488281 76.683594 L 7.488281 76.957031 L 11.277344 76.957031 L 11.277344 76.683594 C 10.457031 76.585938 10.261719 76.449219 10.261719 75.863281 L 10.261719 73.285156 L 12.976562 73.285156 L 12.976562 75.863281 C 12.976562 76.429688 12.800781 76.585938 11.980469 76.683594 L 11.980469 76.957031 Z M 15.789062 76.957031 "/>
<path style=" stroke:none;fill-rule:nonzero;fill:rgb(0%,0%,0%);fill-opacity:1;" d="M 18.957031 80.707031 L 18.957031 80.589844 C 18.390625 80.589844 18.253906 80.453125 18.253906 80.140625 L 18.253906 75.667969 L 18.175781 75.628906 L 16.847656 76.3125 L 16.847656 76.429688 L 17.042969 76.351562 C 17.179688 76.292969 17.296875 76.253906 17.375 76.253906 C 17.53125 76.253906 17.609375 76.371094 17.609375 76.625 L 17.609375 80.003906 C 17.609375 80.414062 17.453125 80.570312 16.886719 80.589844 L 16.886719 80.707031 Z M 18.957031 80.707031 "/>
<path style=" stroke:none;fill-rule:nonzero;fill:rgb(0%,0%,0%);fill-opacity:1;" d="M 19.609375 70.164062 C 18.554688 69.285156 18.320312 68.445312 18.320312 67.039062 C 18.320312 65.59375 18.554688 64.890625 19.609375 64.011719 L 19.53125 63.875 C 18.339844 64.597656 17.675781 65.671875 17.675781 67.058594 C 17.675781 68.347656 18.320312 69.597656 19.511719 70.28125 Z M 19.609375 70.164062 "/>
<path style=" stroke:none;fill-rule:nonzero;fill:rgb(0%,0%,0%);fill-opacity:1;" d="M 24.023438 67.605469 L 23.867188 67.566406 C 23.652344 67.996094 23.496094 68.25 23.242188 68.40625 C 22.890625 68.640625 22.65625 68.679688 21.894531 68.679688 C 21.289062 68.679688 21.113281 68.601562 21.113281 68.367188 C 21.113281 68.269531 21.152344 68.152344 21.191406 67.976562 L 22.089844 64.753906 C 22.207031 64.324219 22.402344 64.207031 22.851562 64.167969 L 22.851562 64.050781 L 20.800781 64.050781 L 20.800781 64.167969 C 21.269531 64.207031 21.367188 64.285156 21.367188 64.5 C 21.367188 64.617188 21.347656 64.753906 21.289062 64.96875 L 20.371094 68.25 C 20.253906 68.71875 20.175781 68.796875 19.765625 68.835938 L 19.765625 68.953125 L 23.574219 68.953125 Z M 24.023438 67.605469 "/>
<path style=" stroke:none;fill-rule:nonzero;fill:rgb(0%,0%,0%);fill-opacity:1;" d="M 24.207031 64.011719 C 25.300781 64.851562 25.476562 65.710938 25.476562 67.117188 C 25.476562 68.582031 25.28125 69.285156 24.207031 70.164062 L 24.285156 70.28125 C 25.476562 69.558594 26.121094 68.484375 26.121094 67.097656 C 26.121094 65.828125 25.4375 64.578125 24.304688 63.875 Z M 24.207031 64.011719 "/>
<path style="fill:none;stroke-width:1;stroke-linecap:round;stroke-linejoin:round;stroke:rgb(0%,0%,0%);stroke-opacity:1;stroke-miterlimit:10;" d="M 100.80625 690.575 L 124.80625 690.575 L 124.80625 714.575 L 100.80625 714.575 Z M 100.80625 690.575 " transform="matrix(1.25,0,0,1.25,-68.75,-667.5)"/>
<path style=" stroke:none;fill-rule:nonzero;fill:rgb(0%,0%,0%);fill-opacity:1;" d="M 72.039062 215.71875 L 72.039062 215.445312 C 71.238281 215.328125 71.042969 215.210938 71.042969 214.625 L 71.042969 209.234375 C 71.042969 208.628906 71.277344 208.453125 72.039062 208.394531 L 72.039062 208.121094 L 68.230469 208.121094 L 68.230469 208.394531 C 69.011719 208.453125 69.226562 208.589844 69.226562 209.234375 L 69.226562 211.519531 L 66.511719 211.519531 L 66.511719 209.234375 C 66.511719 208.589844 66.726562 208.453125 67.527344 208.394531 L 67.527344 208.121094 L 63.738281 208.121094 L 63.738281 208.394531 C 64.5 208.453125 64.695312 208.609375 64.695312 209.234375 L 64.695312 214.625 C 64.695312 215.210938 64.519531 215.328125 63.738281 215.445312 L 63.738281 215.71875 L 67.527344 215.71875 L 67.527344 215.445312 C 66.707031 215.347656 66.511719 215.210938 66.511719 214.625 L 66.511719 212.046875 L 69.226562 212.046875 L 69.226562 214.625 C 69.226562 215.191406 69.050781 215.347656 68.230469 215.445312 L 68.230469 215.71875 Z M 72.039062 215.71875 "/>
<path style=" stroke:none;fill-rule:nonzero;fill:rgb(0%,0%,0%);fill-opacity:1;" d="M 75.8125 218.433594 L 75.714844 218.394531 C 75.460938 218.824219 75.304688 218.902344 74.992188 218.902344 L 73.234375 218.902344 L 74.464844 217.574219 C 75.128906 216.871094 75.421875 216.304688 75.421875 215.71875 C 75.421875 214.976562 74.894531 214.390625 74.035156 214.390625 C 73.117188 214.390625 72.648438 215.015625 72.492188 215.894531 L 72.648438 215.933594 C 72.941406 215.191406 73.195312 214.957031 73.742188 214.957031 C 74.386719 214.957031 74.777344 215.328125 74.777344 216.011719 C 74.777344 216.65625 74.523438 217.222656 73.800781 217.964844 L 72.472656 219.371094 L 72.472656 219.46875 L 75.402344 219.46875 Z M 75.8125 218.433594 "/>
<path style=" stroke:none;fill-rule:nonzero;fill:rgb(0%,0%,0%);fill-opacity:1;" d="M 76.070312 208.925781 C 75.015625 208.046875 74.78125 207.207031 74.78125 205.800781 C 74.78125 204.355469 75.015625 203.652344 76.070312 202.773438 L 75.992188 202.636719 C 74.800781 203.359375 74.136719 204.433594 74.136719 205.820312 C 74.136719 207.109375 74.78125 208.359375 75.972656 209.042969 Z M 76.070312 208.925781 "/>
<path style=" stroke:none;fill-rule:nonzero;fill:rgb(0%,0%,0%);fill-opacity:1;" d="M 79.234375 207.714844 L 79.234375 207.597656 C 78.667969 207.597656 78.53125 207.460938 78.53125 207.148438 L 78.53125 202.675781 L 78.453125 202.636719 L 77.125 203.320312 L 77.125 203.4375 L 77.320312 203.359375 C 77.457031 203.300781 77.574219 203.261719 77.652344 203.261719 C 77.808594 203.261719 77.886719 203.378906 77.886719 203.632812 L 77.886719 207.011719 C 77.886719 207.421875 77.730469 207.578125 77.164062 207.597656 L 77.164062 207.714844 Z M 79.234375 207.714844 "/>
<path style=" stroke:none;fill-rule:nonzero;fill:rgb(0%,0%,0%);fill-opacity:1;" d="M 80.25 202.773438 C 81.34375 203.613281 81.519531 204.472656 81.519531 205.878906 C 81.519531 207.34375 81.324219 208.046875 80.25 208.925781 L 80.328125 209.042969 C 81.519531 208.320312 82.164062 207.246094 82.164062 205.859375 C 82.164062 204.589844 81.480469 203.339844 80.347656 202.636719 Z M 80.25 202.773438 "/>
<path style="fill:none;stroke-width:1;stroke-linecap:round;stroke-linejoin:round;stroke:rgb(0%,0%,0%);stroke-opacity:1;stroke-miterlimit:10;" d="M 229.60625 690.575 L 253.60625 690.575 L 253.60625 714.575 L 229.60625 714.575 Z M 229.60625 690.575 " transform="matrix(1.25,0,0,1.25,-68.75,-667.5)"/>
<path style=" stroke:none;fill-rule:nonzero;fill:rgb(0%,0%,0%);fill-opacity:1;" d="M 233.039062 215.71875 L 233.039062 215.445312 C 232.238281 215.328125 232.042969 215.210938 232.042969 214.625 L 232.042969 209.234375 C 232.042969 208.628906 232.277344 208.453125 233.039062 208.394531 L 233.039062 208.121094 L 229.230469 208.121094 L 229.230469 208.394531 C 230.011719 208.453125 230.226562 208.589844 230.226562 209.234375 L 230.226562 211.519531 L 227.511719 211.519531 L 227.511719 209.234375 C 227.511719 208.589844 227.726562 208.453125 228.527344 208.394531 L 228.527344 208.121094 L 224.738281 208.121094 L 224.738281 208.394531 C 225.5 208.453125 225.695312 208.609375 225.695312 209.234375 L 225.695312 214.625 C 225.695312 215.210938 225.519531 215.328125 224.738281 215.445312 L 224.738281 215.71875 L 228.527344 215.71875 L 228.527344 215.445312 C 227.707031 215.347656 227.511719 215.210938 227.511719 214.625 L 227.511719 212.046875 L 230.226562 212.046875 L 230.226562 214.625 C 230.226562 215.191406 230.050781 215.347656 229.230469 215.445312 L 229.230469 215.71875 Z M 233.039062 215.71875 "/>
<path style=" stroke:none;fill-rule:nonzero;fill:rgb(0%,0%,0%);fill-opacity:1;" d="M 238.003906 214.566406 L 234.019531 214.566406 L 233.707031 215.738281 L 233.84375 215.757812 C 234.195312 214.957031 234.429688 214.839844 235.621094 214.839844 L 234.546875 218.785156 C 234.429688 219.195312 234.253906 219.3125 233.746094 219.351562 L 233.746094 219.46875 L 235.914062 219.46875 L 235.914062 219.351562 L 235.640625 219.332031 C 235.328125 219.292969 235.25 219.234375 235.25 219 C 235.25 218.84375 235.308594 218.667969 235.347656 218.511719 L 236.382812 214.839844 L 236.8125 214.839844 C 237.300781 214.839844 237.574219 215.035156 237.574219 215.445312 C 237.574219 215.542969 237.554688 215.660156 237.554688 215.777344 L 237.671875 215.796875 Z M 238.003906 214.566406 "/>
<path style=" stroke:none;fill-rule:nonzero;fill:rgb(0%,0%,0%);fill-opacity:1;" d="M 237.070312 208.925781 C 236.015625 208.046875 235.78125 207.207031 235.78125 205.800781 C 235.78125 204.355469 236.015625 203.652344 237.070312 202.773438 L 236.992188 202.636719 C 235.800781 203.359375 235.136719 204.433594 235.136719 205.820312 C 235.136719 207.109375 235.78125 208.359375 236.972656 209.042969 Z M 237.070312 208.925781 "/>
<path style=" stroke:none;fill-rule:nonzero;fill:rgb(0%,0%,0%);fill-opacity:1;" d="M 240.234375 207.714844 L 240.234375 207.597656 C 239.667969 207.597656 239.53125 207.460938 239.53125 207.148438 L 239.53125 202.675781 L 239.453125 202.636719 L 238.125 203.320312 L 238.125 203.4375 L 238.320312 203.359375 C 238.457031 203.300781 238.574219 203.261719 238.652344 203.261719 C 238.808594 203.261719 238.886719 203.378906 238.886719 203.632812 L 238.886719 207.011719 C 238.886719 207.421875 238.730469 207.578125 238.164062 207.597656 L 238.164062 207.714844 Z M 240.234375 207.714844 "/>
<path style=" stroke:none;fill-rule:nonzero;fill:rgb(0%,0%,0%);fill-opacity:1;" d="M 241.25 202.773438 C 242.34375 203.613281 242.519531 204.472656 242.519531 205.878906 C 242.519531 207.34375 242.324219 208.046875 241.25 208.925781 L 241.328125 209.042969 C 242.519531 208.320312 243.164062 207.246094 243.164062 205.859375 C 243.164062 204.589844 242.480469 203.339844 241.347656 202.636719 Z M 241.25 202.773438 "/>
<path style="fill:none;stroke-width:1;stroke-linecap:round;stroke-linejoin:round;stroke:rgb(0%,0%,0%);stroke-opacity:1;stroke-miterlimit:10;" d="M 100.80625 646.29375 L 124.80625 646.29375 L 124.80625 670.29375 L 100.80625 670.29375 Z M 100.80625 646.29375 " transform="matrix(1.25,0,0,1.25,-68.75,-667.5)"/>
<path style=" stroke:none;fill-rule:nonzero;fill:rgb(0%,0%,0%);fill-opacity:1;" d="M 72.039062 160.363281 L 72.039062 160.089844 C 71.238281 159.972656 71.042969 159.855469 71.042969 159.269531 L 71.042969 153.878906 C 71.042969 153.273438 71.277344 153.097656 72.039062 153.039062 L 72.039062 152.765625 L 68.230469 152.765625 L 68.230469 153.039062 C 69.011719 153.097656 69.226562 153.234375 69.226562 153.878906 L 69.226562 156.164062 L 66.511719 156.164062 L 66.511719 153.878906 C 66.511719 153.234375 66.726562 153.097656 67.527344 153.039062 L 67.527344 152.765625 L 63.738281 152.765625 L 63.738281 153.039062 C 64.5 153.097656 64.695312 153.253906 64.695312 153.878906 L 64.695312 159.269531 C 64.695312 159.855469 64.519531 159.972656 63.738281 160.089844 L 63.738281 160.363281 L 67.527344 160.363281 L 67.527344 160.089844 C 66.707031 159.992188 66.511719 159.855469 66.511719 159.269531 L 66.511719 156.691406 L 69.226562 156.691406 L 69.226562 159.269531 C 69.226562 159.835938 69.050781 159.992188 68.230469 160.089844 L 68.230469 160.363281 Z M 72.039062 160.363281 "/>
<path style=" stroke:none;fill-rule:nonzero;fill:rgb(0%,0%,0%);fill-opacity:1;" d="M 75.8125 163.078125 L 75.714844 163.039062 C 75.460938 163.46875 75.304688 163.546875 74.992188 163.546875 L 73.234375 163.546875 L 74.464844 162.21875 C 75.128906 161.515625 75.421875 160.949219 75.421875 160.363281 C 75.421875 159.621094 74.894531 159.035156 74.035156 159.035156 C 73.117188 159.035156 72.648438 159.660156 72.492188 160.539062 L 72.648438 160.578125 C 72.941406 159.835938 73.195312 159.601562 73.742188 159.601562 C 74.386719 159.601562 74.777344 159.972656 74.777344 160.65625 C 74.777344 161.300781 74.523438 161.867188 73.800781 162.609375 L 72.472656 164.015625 L 72.472656 164.113281 L 75.402344 164.113281 Z M 75.8125 163.078125 "/>
<path style=" stroke:none;fill-rule:nonzero;fill:rgb(0%,0%,0%);fill-opacity:1;" d="M 76.070312 153.570312 C 75.015625 152.691406 74.78125 151.851562 74.78125 150.445312 C 74.78125 149 75.015625 148.296875 76.070312 147.417969 L 75.992188 147.28125 C 74.800781 148.003906 74.136719 149.078125 74.136719 150.464844 C 74.136719 151.753906 74.78125 153.003906 75.972656 153.6875 Z M 76.070312 153.570312 "/>
<path style=" stroke:none;fill-rule:nonzero;fill:rgb(0%,0%,0%);fill-opacity:1;" d="M 79.839844 151.324219 L 79.742188 151.285156 C 79.488281 151.714844 79.332031 151.792969 79.019531 151.792969 L 77.261719 151.792969 L 78.492188 150.464844 C 79.15625 149.761719 79.449219 149.195312 79.449219 148.609375 C 79.449219 147.867188 78.921875 147.28125 78.0625 147.28125 C 77.144531 147.28125 76.675781 147.90625 76.519531 148.785156 L 76.675781 148.824219 C 76.96875 148.082031 77.222656 147.847656 77.769531 147.847656 C 78.414062 147.847656 78.804688 148.21875 78.804688 148.902344 C 78.804688 149.546875 78.550781 150.113281 77.828125 150.855469 L 76.5 152.261719 L 76.5 152.359375 L 79.429688 152.359375 Z M 79.839844 151.324219 "/>
<path style=" stroke:none;fill-rule:nonzero;fill:rgb(0%,0%,0%);fill-opacity:1;" d="M 80.25 147.417969 C 81.34375 148.257812 81.519531 149.117188 81.519531 150.523438 C 81.519531 151.988281 81.324219 152.691406 80.25 153.570312 L 80.328125 153.6875 C 81.519531 152.964844 82.164062 151.890625 82.164062 150.503906 C 82.164062 149.234375 81.480469 147.984375 80.347656 147.28125 Z M 80.25 147.417969 "/>
<path style="fill:none;stroke-width:1;stroke-linecap:round;stroke-linejoin:round;stroke:rgb(0%,0%,0%);stroke-opacity:1;stroke-miterlimit:10;" d="M 100.80625 579.565625 L 124.80625 579.565625 L 124.80625 603.565625 L 100.80625 603.565625 Z M 100.80625 579.565625 " transform="matrix(1.25,0,0,1.25,-68.75,-667.5)"/>
<path style=" stroke:none;fill-rule:nonzero;fill:rgb(0%,0%,0%);fill-opacity:1;" d="M 72.039062 76.957031 L 72.039062 76.683594 C 71.238281 76.566406 71.042969 76.449219 71.042969 75.863281 L 71.042969 70.472656 C 71.042969 69.867188 71.277344 69.691406 72.039062 69.632812 L 72.039062 69.359375 L 68.230469 69.359375 L 68.230469 69.632812 C 69.011719 69.691406 69.226562 69.828125 69.226562 70.472656 L 69.226562 72.757812 L 66.511719 72.757812 L 66.511719 70.472656 C 66.511719 69.828125 66.726562 69.691406 67.527344 69.632812 L 67.527344 69.359375 L 63.738281 69.359375 L 63.738281 69.632812 C 64.5 69.691406 64.695312 69.847656 64.695312 70.472656 L 64.695312 75.863281 C 64.695312 76.449219 64.519531 76.566406 63.738281 76.683594 L 63.738281 76.957031 L 67.527344 76.957031 L 67.527344 76.683594 C 66.707031 76.585938 66.511719 76.449219 66.511719 75.863281 L 66.511719 73.285156 L 69.226562 73.285156 L 69.226562 75.863281 C 69.226562 76.429688 69.050781 76.585938 68.230469 76.683594 L 68.230469 76.957031 Z M 72.039062 76.957031 "/>
<path style=" stroke:none;fill-rule:nonzero;fill:rgb(0%,0%,0%);fill-opacity:1;" d="M 75.8125 79.671875 L 75.714844 79.632812 C 75.460938 80.0625 75.304688 80.140625 74.992188 80.140625 L 73.234375 80.140625 L 74.464844 78.8125 C 75.128906 78.109375 75.421875 77.542969 75.421875 76.957031 C 75.421875 76.214844 74.894531 75.628906 74.035156 75.628906 C 73.117188 75.628906 72.648438 76.253906 72.492188 77.132812 L 72.648438 77.171875 C 72.941406 76.429688 73.195312 76.195312 73.742188 76.195312 C 74.386719 76.195312 74.777344 76.566406 74.777344 77.25 C 74.777344 77.894531 74.523438 78.460938 73.800781 79.203125 L 72.472656 80.609375 L 72.472656 80.707031 L 75.402344 80.707031 Z M 75.8125 79.671875 "/>
<path style=" stroke:none;fill-rule:nonzero;fill:rgb(0%,0%,0%);fill-opacity:1;" d="M 75.859375 70.164062 C 74.804688 69.285156 74.570312 68.445312 74.570312 67.039062 C 74.570312 65.59375 74.804688 64.890625 75.859375 64.011719 L 75.78125 63.875 C 74.589844 64.597656 73.925781 65.671875 73.925781 67.058594 C 73.925781 68.347656 74.570312 69.597656 75.761719 70.28125 Z M 75.859375 70.164062 "/>
<path style=" stroke:none;fill-rule:nonzero;fill:rgb(0%,0%,0%);fill-opacity:1;" d="M 80.273438 67.605469 L 80.117188 67.566406 C 79.902344 67.996094 79.746094 68.25 79.492188 68.40625 C 79.140625 68.640625 78.90625 68.679688 78.144531 68.679688 C 77.539062 68.679688 77.363281 68.601562 77.363281 68.367188 C 77.363281 68.269531 77.402344 68.152344 77.441406 67.976562 L 78.339844 64.753906 C 78.457031 64.324219 78.652344 64.207031 79.101562 64.167969 L 79.101562 64.050781 L 77.050781 64.050781 L 77.050781 64.167969 C 77.519531 64.207031 77.617188 64.285156 77.617188 64.5 C 77.617188 64.617188 77.597656 64.753906 77.539062 64.96875 L 76.621094 68.25 C 76.503906 68.71875 76.425781 68.796875 76.015625 68.835938 L 76.015625 68.953125 L 79.824219 68.953125 Z M 80.273438 67.605469 "/>
<path style=" stroke:none;fill-rule:nonzero;fill:rgb(0%,0%,0%);fill-opacity:1;" d="M 80.457031 64.011719 C 81.550781 64.851562 81.726562 65.710938 81.726562 67.117188 C 81.726562 68.582031 81.53125 69.285156 80.457031 70.164062 L 80.535156 70.28125 C 81.726562 69.558594 82.371094 68.484375 82.371094 67.097656 C 82.371094 65.828125 81.6875 64.578125 80.554688 63.875 Z M 80.457031 64.011719 "/>
<path style="fill:none;stroke-width:1;stroke-linecap:round;stroke-linejoin:round;stroke:rgb(0%,0%,0%);stroke-opacity:1;stroke-miterlimit:10;" d="M 229.60625 579.525 L 253.60625 579.525 L 253.60625 603.525 L 229.60625 603.525 Z M 229.60625 579.525 " transform="matrix(1.25,0,0,1.25,-68.75,-667.5)"/>
<path style=" stroke:none;fill-rule:nonzero;fill:rgb(0%,0%,0%);fill-opacity:1;" d="M 233.039062 76.902344 L 233.039062 76.628906 C 232.238281 76.511719 232.042969 76.394531 232.042969 75.808594 L 232.042969 70.417969 C 232.042969 69.8125 232.277344 69.636719 233.039062 69.578125 L 233.039062 69.304688 L 229.230469 69.304688 L 229.230469 69.578125 C 230.011719 69.636719 230.226562 69.773438 230.226562 70.417969 L 230.226562 72.703125 L 227.511719 72.703125 L 227.511719 70.417969 C 227.511719 69.773438 227.726562 69.636719 228.527344 69.578125 L 228.527344 69.304688 L 224.738281 69.304688 L 224.738281 69.578125 C 225.5 69.636719 225.695312 69.792969 225.695312 70.417969 L 225.695312 75.808594 C 225.695312 76.394531 225.519531 76.511719 224.738281 76.628906 L 224.738281 76.902344 L 228.527344 76.902344 L 228.527344 76.628906 C 227.707031 76.53125 227.511719 76.394531 227.511719 75.808594 L 227.511719 73.230469 L 230.226562 73.230469 L 230.226562 75.808594 C 230.226562 76.375 230.050781 76.53125 229.230469 76.628906 L 229.230469 76.902344 Z M 233.039062 76.902344 "/>
<path style=" stroke:none;fill-rule:nonzero;fill:rgb(0%,0%,0%);fill-opacity:1;" d="M 238.003906 75.75 L 234.019531 75.75 L 233.707031 76.921875 L 233.84375 76.941406 C 234.195312 76.140625 234.429688 76.023438 235.621094 76.023438 L 234.546875 79.96875 C 234.429688 80.378906 234.253906 80.496094 233.746094 80.535156 L 233.746094 80.652344 L 235.914062 80.652344 L 235.914062 80.535156 L 235.640625 80.515625 C 235.328125 80.476562 235.25 80.417969 235.25 80.183594 C 235.25 80.027344 235.308594 79.851562 235.347656 79.695312 L 236.382812 76.023438 L 236.8125 76.023438 C 237.300781 76.023438 237.574219 76.21875 237.574219 76.628906 C 237.574219 76.726562 237.554688 76.84375 237.554688 76.960938 L 237.671875 76.980469 Z M 238.003906 75.75 "/>
<path style=" stroke:none;fill-rule:nonzero;fill:rgb(0%,0%,0%);fill-opacity:1;" d="M 236.859375 70.109375 C 235.804688 69.230469 235.570312 68.390625 235.570312 66.984375 C 235.570312 65.539062 235.804688 64.835938 236.859375 63.957031 L 236.78125 63.820312 C 235.589844 64.542969 234.925781 65.617188 234.925781 67.003906 C 234.925781 68.292969 235.570312 69.542969 236.761719 70.226562 Z M 236.859375 70.109375 "/>
<path style=" stroke:none;fill-rule:nonzero;fill:rgb(0%,0%,0%);fill-opacity:1;" d="M 241.273438 67.550781 L 241.117188 67.511719 C 240.902344 67.941406 240.746094 68.195312 240.492188 68.351562 C 240.140625 68.585938 239.90625 68.625 239.144531 68.625 C 238.539062 68.625 238.363281 68.546875 238.363281 68.3125 C 238.363281 68.214844 238.402344 68.097656 238.441406 67.921875 L 239.339844 64.699219 C 239.457031 64.269531 239.652344 64.152344 240.101562 64.113281 L 240.101562 63.996094 L 238.050781 63.996094 L 238.050781 64.113281 C 238.519531 64.152344 238.617188 64.230469 238.617188 64.445312 C 238.617188 64.5625 238.597656 64.699219 238.539062 64.914062 L 237.621094 68.195312 C 237.503906 68.664062 237.425781 68.742188 237.015625 68.78125 L 237.015625 68.898438 L 240.824219 68.898438 Z M 241.273438 67.550781 "/>
<path style=" stroke:none;fill-rule:nonzero;fill:rgb(0%,0%,0%);fill-opacity:1;" d="M 241.457031 63.957031 C 242.550781 64.796875 242.726562 65.65625 242.726562 67.0625 C 242.726562 68.527344 242.53125 69.230469 241.457031 70.109375 L 241.535156 70.226562 C 242.726562 69.503906 243.371094 68.429688 243.371094 67.042969 C 243.371094 65.773438 242.6875 64.523438 241.554688 63.820312 Z M 241.457031 63.957031 "/>
<path style="fill:none;stroke-width:1;stroke-linecap:round;stroke-linejoin:round;stroke:rgb(0%,0%,0%);stroke-opacity:1;stroke-miterlimit:10;" d="M 67.80625 734.859375 L 67.80625 720.475 " transform="matrix(1.25,0,0,1.25,-68.75,-667.5)"/>
<path style="fill:none;stroke-width:1;stroke-linecap:butt;stroke-linejoin:miter;stroke:rgb(0%,0%,0%);stroke-opacity:1;stroke-miterlimit:10;" d="M 67.80625 716.475 L 67.80625 720.475 M 66.30625 720.475 L 67.80625 716.475 L 69.30625 720.475 " transform="matrix(1.25,0,0,1.25,-68.75,-667.5)"/>
<path style="fill:none;stroke-width:1;stroke-linecap:round;stroke-linejoin:round;stroke:rgb(0%,0%,0%);stroke-opacity:1;stroke-miterlimit:10;" d="M 79.80625 702.575 L 94.903125 702.575 " transform="matrix(1.25,0,0,1.25,-68.75,-667.5)"/>
<path style="fill:none;stroke-width:1;stroke-linecap:butt;stroke-linejoin:miter;stroke:rgb(0%,0%,0%);stroke-opacity:1;stroke-miterlimit:10;" d="M 98.903125 702.575 L 94.903125 702.575 M 94.903125 701.075 L 98.903125 702.575 L 94.903125 704.075 " transform="matrix(1.25,0,0,1.25,-68.75,-667.5)"/>
<path style="fill:none;stroke-width:1;stroke-linecap:round;stroke-linejoin:round;stroke:rgb(0%,0%,0%);stroke-opacity:1;stroke-miterlimit:10;" d="M 171.703125 702.575 L 188.703125 702.575 " transform="matrix(1.25,0,0,1.25,-68.75,-667.5)"/>
<path style="fill:none;stroke-width:1;stroke-linecap:butt;stroke-linejoin:miter;stroke:rgb(0%,0%,0%);stroke-opacity:1;stroke-miterlimit:10;" d="M 192.703125 702.575 L 188.703125 702.575 M 188.703125 701.075 L 192.703125 702.575 L 188.703125 704.075 " transform="matrix(1.25,0,0,1.25,-68.75,-667.5)"/>
<path style="fill:none;stroke-width:1;stroke-linecap:round;stroke-linejoin:round;stroke:rgb(0%,0%,0%);stroke-opacity:1;stroke-miterlimit:10;" d="M 209.49375 702.575 L 223.703125 702.575 " transform="matrix(1.25,0,0,1.25,-68.75,-667.5)"/>
<path style="fill:none;stroke-width:1;stroke-linecap:butt;stroke-linejoin:miter;stroke:rgb(0%,0%,0%);stroke-opacity:1;stroke-miterlimit:10;" d="M 227.703125 702.575 L 223.703125 702.575 M 223.703125 701.075 L 227.703125 702.575 L 223.703125 704.075 " transform="matrix(1.25,0,0,1.25,-68.75,-667.5)"/>
<path style="fill:none;stroke-width:1;stroke-linecap:round;stroke-linejoin:round;stroke:rgb(0%,0%,0%);stroke-opacity:1;stroke-miterlimit:10;" d="M 67.80625 579.565625 L 67.80625 564.9 " transform="matrix(1.25,0,0,1.25,-68.75,-667.5)"/>
<path style="fill:none;stroke-width:1;stroke-linecap:butt;stroke-linejoin:miter;stroke:rgb(0%,0%,0%);stroke-opacity:1;stroke-miterlimit:10;" d="M 67.80625 560.9 L 67.80625 564.9 M 66.30625 564.9 L 67.80625 560.9 L 69.30625 564.9 " transform="matrix(1.25,0,0,1.25,-68.75,-667.5)"/>
<path style="fill:none;stroke-width:1;stroke-linecap:round;stroke-linejoin:round;stroke:rgb(0%,0%,0%);stroke-opacity:1;stroke-miterlimit:10;" d="M 241.60625 734.859375 L 241.60625 720.475 " transform="matrix(1.25,0,0,1.25,-68.75,-667.5)"/>
<path style="fill:none;stroke-width:1;stroke-linecap:butt;stroke-linejoin:miter;stroke:rgb(0%,0%,0%);stroke-opacity:1;stroke-miterlimit:10;" d="M 241.60625 716.475 L 241.60625 720.475 M 240.10625 720.475 L 241.60625 716.475 L 243.10625 720.475 " transform="matrix(1.25,0,0,1.25,-68.75,-667.5)"/>
<path style="fill:none;stroke-width:1;stroke-linecap:round;stroke-linejoin:round;stroke:rgb(0%,0%,0%);stroke-opacity:1;stroke-miterlimit:10;" d="M 79.80625 591.565625 L 94.903125 591.565625 " transform="matrix(1.25,0,0,1.25,-68.75,-667.5)"/>
<path style="fill:none;stroke-width:1;stroke-linecap:butt;stroke-linejoin:miter;stroke:rgb(0%,0%,0%);stroke-opacity:1;stroke-miterlimit:10;" d="M 98.903125 591.565625 L 94.903125 591.565625 M 94.903125 590.065625 L 98.903125 591.565625 L 94.903125 593.065625 " transform="matrix(1.25,0,0,1.25,-68.75,-667.5)"/>
<path style="fill:none;stroke-width:1;stroke-linecap:round;stroke-linejoin:round;stroke:rgb(0%,0%,0%);stroke-opacity:1;stroke-miterlimit:10;" d="M 171.703125 591.565625 L 191.25625 591.565625 " transform="matrix(1.25,0,0,1.25,-68.75,-667.5)"/>
<path style="fill:none;stroke-width:1;stroke-linecap:butt;stroke-linejoin:miter;stroke:rgb(0%,0%,0%);stroke-opacity:1;stroke-miterlimit:10;" d="M 195.25625 591.565625 L 191.25625 591.565625 M 191.25625 590.065625 L 195.25625 591.565625 L 191.25625 593.065625 " transform="matrix(1.25,0,0,1.25,-68.75,-667.5)"/>
<path style="fill:none;stroke-width:1;stroke-linecap:round;stroke-linejoin:round;stroke:rgb(0%,0%,0%);stroke-opacity:1;stroke-miterlimit:10;" d="M 212.046875 591.55625 L 223.703125 591.54375 " transform="matrix(1.25,0,0,1.25,-68.75,-667.5)"/>
<path style="fill:none;stroke-width:1;stroke-linecap:butt;stroke-linejoin:miter;stroke:rgb(0%,0%,0%);stroke-opacity:1;stroke-miterlimit:10;" d="M 227.703125 591.5375 L 223.703125 591.54375 M 223.703125 590.04375 L 227.703125 591.5375 L 223.70625 593.04375 " transform="matrix(1.25,0,0,1.25,-68.75,-667.5)"/>
<path style="fill:none;stroke-width:1;stroke-linecap:round;stroke-linejoin:round;stroke:rgb(0%,0%,0%);stroke-opacity:1;stroke-miterlimit:10;" d="M 241.60625 579.525 L 241.60625 564.9 " transform="matrix(1.25,0,0,1.25,-68.75,-667.5)"/>
<path style="fill:none;stroke-width:1;stroke-linecap:butt;stroke-linejoin:miter;stroke:rgb(0%,0%,0%);stroke-opacity:1;stroke-miterlimit:10;" d="M 241.60625 560.9 L 241.60625 564.9 M 240.10625 564.9 L 241.60625 560.9 L 243.10625 564.9 " transform="matrix(1.25,0,0,1.25,-68.75,-667.5)"/>
<path style="fill:none;stroke-width:1;stroke-linecap:round;stroke-linejoin:round;stroke:rgb(0%,0%,0%);stroke-opacity:1;stroke-miterlimit:10;" d="M 79.80625 658.29375 L 94.903125 658.29375 " transform="matrix(1.25,0,0,1.25,-68.75,-667.5)"/>
<path style="fill:none;stroke-width:1;stroke-linecap:butt;stroke-linejoin:miter;stroke:rgb(0%,0%,0%);stroke-opacity:1;stroke-miterlimit:10;" d="M 98.903125 658.29375 L 94.903125 658.29375 M 94.903125 656.79375 L 98.903125 658.29375 L 94.903125 659.79375 " transform="matrix(1.25,0,0,1.25,-68.75,-667.5)"/>
<path style="fill:none;stroke-width:1;stroke-linecap:round;stroke-linejoin:round;stroke:rgb(0%,0%,0%);stroke-opacity:1;stroke-miterlimit:10;" d="M 171.703125 658.29375 L 191.25625 658.29375 " transform="matrix(1.25,0,0,1.25,-68.75,-667.5)"/>
<path style="fill:none;stroke-width:1;stroke-linecap:butt;stroke-linejoin:miter;stroke:rgb(0%,0%,0%);stroke-opacity:1;stroke-miterlimit:10;" d="M 195.25625 658.29375 L 191.25625 658.29375 M 191.25625 656.79375 L 195.25625 658.29375 L 191.25625 659.79375 " transform="matrix(1.25,0,0,1.25,-68.75,-667.5)"/>
<path style="fill:none;stroke-width:1;stroke-linecap:round;stroke-linejoin:round;stroke:rgb(0%,0%,0%);stroke-opacity:1;stroke-miterlimit:10;" d="M 212.046875 658.29375 L 223.703125 658.29375 " transform="matrix(1.25,0,0,1.25,-68.75,-667.5)"/>
<path style="fill:none;stroke-width:1;stroke-linecap:butt;stroke-linejoin:miter;stroke:rgb(0%,0%,0%);stroke-opacity:1;stroke-miterlimit:10;" d="M 227.703125 658.29375 L 223.703125 658.29375 M 223.703125 656.79375 L 227.703125 658.29375 L 223.703125 659.79375 " transform="matrix(1.25,0,0,1.25,-68.75,-667.5)"/>
<path style="fill:none;stroke-width:1;stroke-linecap:round;stroke-linejoin:round;stroke:rgb(0%,0%,0%);stroke-opacity:1;stroke-miterlimit:10;" d="M 112.80625 579.565625 L 112.80625 564.9 " transform="matrix(1.25,0,0,1.25,-68.75,-667.5)"/>
<path style="fill:none;stroke-width:1;stroke-linecap:butt;stroke-linejoin:miter;stroke:rgb(0%,0%,0%);stroke-opacity:1;stroke-miterlimit:10;" d="M 112.80625 560.9 L 112.80625 564.9 M 111.30625 564.9 L 112.80625 560.9 L 114.30625 564.9 " transform="matrix(1.25,0,0,1.25,-68.75,-667.5)"/>
<path style="fill:none;stroke-width:1;stroke-linecap:round;stroke-linejoin:round;stroke:rgb(0%,0%,0%);stroke-opacity:1;stroke-miterlimit:10;" d="M 67.80625 690.575 L 67.80625 676.190625 " transform="matrix(1.25,0,0,1.25,-68.75,-667.5)"/>
<path style="fill:none;stroke-width:1;stroke-linecap:butt;stroke-linejoin:miter;stroke:rgb(0%,0%,0%);stroke-opacity:1;stroke-miterlimit:10;" d="M 67.80625 672.190625 L 67.80625 676.190625 M 66.30625 676.190625 L 67.80625 672.190625 L 69.30625 676.190625 " transform="matrix(1.25,0,0,1.25,-68.75,-667.5)"/>
<path style="fill:none;stroke-width:1;stroke-linecap:round;stroke-linejoin:round;stroke:rgb(0%,0%,0%);stroke-opacity:1;stroke-miterlimit:10;" d="M 67.80625 646.29375 L 67.80625 639.128125 " transform="matrix(1.25,0,0,1.25,-68.75,-667.5)"/>
<path style="fill:none;stroke-width:1;stroke-linecap:butt;stroke-linejoin:miter;stroke:rgb(0%,0%,0%);stroke-opacity:1;stroke-miterlimit:10;" d="M 67.80625 635.128125 L 67.80625 639.128125 M 66.30625 639.128125 L 67.80625 635.128125 L 69.30625 639.128125 " transform="matrix(1.25,0,0,1.25,-68.75,-667.5)"/>
<path style="fill:none;stroke-width:1;stroke-linecap:round;stroke-linejoin:round;stroke:rgb(0%,0%,0%);stroke-opacity:1;stroke-miterlimit:10;" d="M 67.80625 615.23125 L 67.80625 609.465625 " transform="matrix(1.25,0,0,1.25,-68.75,-667.5)"/>
<path style="fill:none;stroke-width:1;stroke-linecap:butt;stroke-linejoin:miter;stroke:rgb(0%,0%,0%);stroke-opacity:1;stroke-miterlimit:10;" d="M 67.80625 605.465625 L 67.80625 609.465625 M 66.30625 609.465625 L 67.80625 605.465625 L 69.30625 609.465625 " transform="matrix(1.25,0,0,1.25,-68.75,-667.5)"/>
<path style="fill:none;stroke-width:1;stroke-linecap:round;stroke-linejoin:round;stroke:rgb(0%,0%,0%);stroke-opacity:1;stroke-miterlimit:10;" d="M 112.80625 690.575 L 112.80625 676.190625 " transform="matrix(1.25,0,0,1.25,-68.75,-667.5)"/>
<path style="fill:none;stroke-width:1;stroke-linecap:butt;stroke-linejoin:miter;stroke:rgb(0%,0%,0%);stroke-opacity:1;stroke-miterlimit:10;" d="M 112.80625 672.190625 L 112.80625 676.190625 M 111.30625 676.190625 L 112.80625 672.190625 L 114.30625 676.190625 " transform="matrix(1.25,0,0,1.25,-68.75,-667.5)"/>
<path style="fill:none;stroke-width:1;stroke-linecap:round;stroke-linejoin:round;stroke:rgb(0%,0%,0%);stroke-opacity:1;stroke-miterlimit:10;" d="M 241.60625 690.575 L 241.60625 676.190625 " transform="matrix(1.25,0,0,1.25,-68.75,-667.5)"/>
<path style="fill:none;stroke-width:1;stroke-linecap:butt;stroke-linejoin:miter;stroke:rgb(0%,0%,0%);stroke-opacity:1;stroke-miterlimit:10;" d="M 241.60625 672.190625 L 241.60625 676.190625 M 240.10625 676.190625 L 241.60625 672.190625 L 243.10625 676.190625 " transform="matrix(1.25,0,0,1.25,-68.75,-667.5)"/>
<path style=" stroke:none;fill-rule:nonzero;fill:rgb(0%,0%,0%);fill-opacity:1;" d="M 76.230469 117.738281 C 76.230469 117.367188 75.898438 117.035156 75.527344 117.035156 C 75.15625 117.035156 74.84375 117.347656 74.84375 117.738281 C 74.84375 118.109375 75.15625 118.421875 75.507812 118.421875 C 75.898438 118.421875 76.230469 118.128906 76.230469 117.738281 Z M 72.519531 117.738281 C 72.519531 117.367188 72.1875 117.035156 71.816406 117.035156 C 71.445312 117.035156 71.132812 117.347656 71.132812 117.738281 C 71.132812 118.109375 71.445312 118.421875 71.777344 118.421875 C 72.1875 118.421875 72.519531 118.128906 72.519531 117.738281 Z M 68.808594 117.738281 C 68.808594 117.367188 68.476562 117.035156 68.105469 117.035156 C 67.714844 117.035156 67.402344 117.347656 67.402344 117.738281 C 67.402344 118.109375 67.714844 118.421875 68.066406 118.421875 C 68.476562 118.421875 68.808594 118.128906 68.808594 117.738281 Z M 68.808594 117.738281 "/>
<path style="fill:none;stroke-width:1;stroke-linecap:round;stroke-linejoin:round;stroke:rgb(0%,0%,0%);stroke-opacity:1;stroke-miterlimit:10;" d="M 112.80625 646.29375 L 112.80625 640.53125 " transform="matrix(1.25,0,0,1.25,-68.75,-667.5)"/>
<path style="fill:none;stroke-width:1;stroke-linecap:butt;stroke-linejoin:miter;stroke:rgb(0%,0%,0%);stroke-opacity:1;stroke-miterlimit:10;" d="M 112.80625 636.53125 L 112.80625 640.53125 M 111.30625 640.53125 L 112.80625 636.53125 L 114.30625 640.53125 " transform="matrix(1.25,0,0,1.25,-68.75,-667.5)"/>
<path style="fill:none;stroke-width:1;stroke-linecap:round;stroke-linejoin:round;stroke:rgb(0%,0%,0%);stroke-opacity:1;stroke-miterlimit:10;" d="M 112.80625 616.628125 L 112.80625 609.465625 " transform="matrix(1.25,0,0,1.25,-68.75,-667.5)"/>
<path style="fill:none;stroke-width:1;stroke-linecap:butt;stroke-linejoin:miter;stroke:rgb(0%,0%,0%);stroke-opacity:1;stroke-miterlimit:10;" d="M 112.80625 605.465625 L 112.80625 609.465625 M 111.30625 609.465625 L 112.80625 605.465625 L 114.30625 609.465625 " transform="matrix(1.25,0,0,1.25,-68.75,-667.5)"/>
<path style=" stroke:none;fill-rule:nonzero;fill:rgb(0%,0%,0%);fill-opacity:1;" d="M 237.230469 116.488281 C 237.230469 116.117188 236.898438 115.785156 236.527344 115.785156 C 236.15625 115.785156 235.84375 116.097656 235.84375 116.488281 C 235.84375 116.859375 236.15625 117.171875 236.507812 117.171875 C 236.898438 117.171875 237.230469 116.878906 237.230469 116.488281 Z M 233.519531 116.488281 C 233.519531 116.117188 233.1875 115.785156 232.816406 115.785156 C 232.445312 115.785156 232.132812 116.097656 232.132812 116.488281 C 232.132812 116.859375 232.445312 117.171875 232.777344 117.171875 C 233.1875 117.171875 233.519531 116.878906 233.519531 116.488281 Z M 229.808594 116.488281 C 229.808594 116.117188 229.476562 115.785156 229.105469 115.785156 C 228.714844 115.785156 228.402344 116.097656 228.402344 116.488281 C 228.402344 116.859375 228.714844 117.171875 229.066406 117.171875 C 229.476562 117.171875 229.808594 116.878906 229.808594 116.488281 Z M 229.808594 116.488281 "/>
<path style="fill:none;stroke-width:1;stroke-linecap:round;stroke-linejoin:round;stroke:rgb(0%,0%,0%);stroke-opacity:1;stroke-miterlimit:10;" d="M 241.60625 646.29375 L 241.60625 639.53125 " transform="matrix(1.25,0,0,1.25,-68.75,-667.5)"/>
<path style="fill:none;stroke-width:1;stroke-linecap:butt;stroke-linejoin:miter;stroke:rgb(0%,0%,0%);stroke-opacity:1;stroke-miterlimit:10;" d="M 241.60625 635.53125 L 241.60625 639.53125 M 240.10625 639.53125 L 241.60625 635.53125 L 243.10625 639.53125 " transform="matrix(1.25,0,0,1.25,-68.75,-667.5)"/>
<path style="fill:none;stroke-width:1;stroke-linecap:round;stroke-linejoin:round;stroke:rgb(0%,0%,0%);stroke-opacity:1;stroke-miterlimit:10;" d="M 241.60625 615.628125 L 241.60625 609.421875 " transform="matrix(1.25,0,0,1.25,-68.75,-667.5)"/>
<path style="fill:none;stroke-width:1;stroke-linecap:butt;stroke-linejoin:miter;stroke:rgb(0%,0%,0%);stroke-opacity:1;stroke-miterlimit:10;" d="M 241.60625 605.421875 L 241.60625 609.421875 M 240.10625 609.421875 L 241.60625 605.421875 L 243.10625 609.421875 " transform="matrix(1.25,0,0,1.25,-68.75,-667.5)"/>
<path style="fill-rule:nonzero;fill:rgb(69.803922%,85.098039%,100%);fill-opacity:1;stroke-width:1;stroke-linecap:round;stroke-linejoin:round;stroke:rgb(0%,0%,0%);stroke-opacity:1;stroke-miterlimit:10;" d="M 147.703125 734.859375 L 171.703125 734.859375 L 171.703125 758.859375 L 147.703125 758.859375 Z M 147.703125 734.859375 " transform="matrix(1.25,0,0,1.25,-68.75,-667.5)"/>
<path style=" stroke:none;fill-rule:nonzero;fill:rgb(0%,0%,0%);fill-opacity:1;" d="M 132.8125 267.949219 L 132.8125 267.675781 C 132.421875 267.65625 132.246094 267.519531 131.71875 266.699219 L 129.667969 263.515625 L 130.566406 262.265625 C 131.542969 260.898438 131.835938 260.703125 132.675781 260.625 L 132.675781 260.351562 L 129.863281 260.351562 L 129.863281 260.625 L 130.097656 260.644531 C 130.527344 260.683594 130.683594 260.78125 130.683594 261.035156 C 130.683594 261.289062 130.546875 261.503906 130.019531 262.226562 L 129.394531 263.105469 L 128.300781 261.40625 C 128.164062 261.191406 128.144531 261.132812 128.144531 260.996094 C 128.144531 260.761719 128.261719 260.664062 128.671875 260.644531 L 129.023438 260.625 L 129.023438 260.351562 L 125.136719 260.351562 L 125.136719 260.625 C 125.546875 260.664062 125.683594 260.78125 126.035156 261.269531 L 128.261719 264.550781 L 126.289062 267.03125 C 125.957031 267.460938 125.683594 267.597656 125.117188 267.675781 L 125.117188 267.949219 L 127.929688 267.949219 L 127.929688 267.675781 C 127.246094 267.597656 127.03125 267.480469 127.03125 267.1875 C 127.03125 266.953125 127.246094 266.601562 128.085938 265.46875 L 128.515625 264.902344 L 129.648438 266.71875 C 129.785156 266.933594 129.882812 267.1875 129.882812 267.324219 C 129.882812 267.519531 129.6875 267.617188 129.296875 267.636719 L 128.984375 267.675781 L 128.984375 267.949219 Z M 132.8125 267.949219 "/>
<path style=" stroke:none;fill-rule:nonzero;fill:rgb(0%,0%,0%);fill-opacity:1;" d="M 133.515625 267.871094 C 133.828125 267.324219 134.179688 267.070312 134.648438 267.070312 C 135.136719 267.070312 135.449219 267.34375 135.449219 267.851562 C 135.449219 268.300781 135.214844 268.632812 134.84375 268.847656 C 134.6875 268.945312 134.492188 269.023438 134.21875 269.121094 L 134.21875 269.21875 C 134.648438 269.21875 134.804688 269.238281 134.980469 269.296875 C 135.488281 269.453125 135.761719 269.824219 135.761719 270.390625 C 135.761719 271.015625 135.332031 271.542969 134.785156 271.542969 C 134.570312 271.542969 134.414062 271.503906 134.140625 271.308594 C 133.925781 271.152344 133.808594 271.113281 133.671875 271.113281 C 133.515625 271.113281 133.378906 271.210938 133.378906 271.367188 C 133.378906 271.640625 133.671875 271.796875 134.21875 271.796875 C 134.882812 271.796875 135.585938 271.582031 135.957031 271.113281 C 136.171875 270.820312 136.308594 270.449219 136.308594 270.058594 C 136.308594 269.667969 136.171875 269.316406 135.976562 269.082031 C 135.820312 268.925781 135.683594 268.828125 135.351562 268.691406 C 135.839844 268.398438 136.035156 268.007812 136.035156 267.65625 C 136.035156 267.050781 135.566406 266.621094 134.882812 266.621094 C 134.101562 266.621094 133.613281 267.128906 133.398438 267.851562 Z M 133.515625 267.871094 "/>
<path style="fill-rule:nonzero;fill:rgb(69.803922%,85.098039%,100%);fill-opacity:1;stroke-width:1;stroke-linecap:round;stroke-linejoin:round;stroke:rgb(0%,0%,0%);stroke-opacity:1;stroke-miterlimit:10;" d="M 147.703125 535 L 171.703125 535 L 171.703125 559 L 147.703125 559 Z M 147.703125 535 " transform="matrix(1.25,0,0,1.25,-68.75,-667.5)"/>
<path style=" stroke:none;fill-rule:nonzero;fill:rgb(0%,0%,0%);fill-opacity:1;" d="M 132.988281 14.355469 C 132.988281 12.03125 131.328125 10.351562 129.0625 10.351562 C 126.71875 10.351562 125.019531 11.972656 125.019531 14.375 C 125.019531 16.699219 126.660156 18.339844 128.984375 18.339844 C 131.328125 18.339844 132.988281 16.699219 132.988281 14.355469 Z M 130.996094 14.433594 C 130.996094 16.757812 130.3125 17.96875 129.023438 17.96875 C 127.734375 17.96875 127.011719 16.777344 127.011719 14.414062 C 127.011719 12.050781 127.714844 10.722656 128.964844 10.722656 C 130.273438 10.722656 130.996094 12.03125 130.996094 14.433594 Z M 130.996094 14.433594 "/>
<path style=" stroke:none;fill-rule:nonzero;fill:rgb(0%,0%,0%);fill-opacity:1;" d="M 133.828125 18.046875 C 134.140625 17.5 134.492188 17.246094 134.960938 17.246094 C 135.449219 17.246094 135.761719 17.519531 135.761719 18.027344 C 135.761719 18.476562 135.527344 18.808594 135.15625 19.023438 C 135 19.121094 134.804688 19.199219 134.53125 19.296875 L 134.53125 19.394531 C 134.960938 19.394531 135.117188 19.414062 135.292969 19.472656 C 135.800781 19.628906 136.074219 20 136.074219 20.566406 C 136.074219 21.191406 135.644531 21.71875 135.097656 21.71875 C 134.882812 21.71875 134.726562 21.679688 134.453125 21.484375 C 134.238281 21.328125 134.121094 21.289062 133.984375 21.289062 C 133.828125 21.289062 133.691406 21.386719 133.691406 21.542969 C 133.691406 21.816406 133.984375 21.972656 134.53125 21.972656 C 135.195312 21.972656 135.898438 21.757812 136.269531 21.289062 C 136.484375 20.996094 136.621094 20.625 136.621094 20.234375 C 136.621094 19.84375 136.484375 19.492188 136.289062 19.257812 C 136.132812 19.101562 135.996094 19.003906 135.664062 18.867188 C 136.152344 18.574219 136.347656 18.183594 136.347656 17.832031 C 136.347656 17.226562 135.878906 16.796875 135.195312 16.796875 C 134.414062 16.796875 133.925781 17.304688 133.710938 18.027344 Z M 133.828125 18.046875 "/>
<path style="fill:none;stroke-width:1;stroke-linecap:round;stroke-linejoin:round;stroke:rgb(0%,0%,0%);stroke-opacity:1;stroke-miterlimit:10;" d="M 159.703125 734.859375 L 159.703125 720.475 " transform="matrix(1.25,0,0,1.25,-68.75,-667.5)"/>
<path style="fill:none;stroke-width:1;stroke-linecap:butt;stroke-linejoin:miter;stroke:rgb(0%,0%,0%);stroke-opacity:1;stroke-miterlimit:10;" d="M 159.703125 716.475 L 159.703125 720.475 M 158.203125 720.475 L 159.703125 716.475 L 161.203125 720.475 " transform="matrix(1.25,0,0,1.25,-68.75,-667.5)"/>
<path style="fill:none;stroke-width:1;stroke-linecap:round;stroke-linejoin:round;stroke:rgb(0%,0%,0%);stroke-opacity:1;stroke-miterlimit:10;" d="M 147.703125 690.575 L 171.703125 690.575 L 171.703125 714.575 L 147.703125 714.575 Z M 147.703125 690.575 " transform="matrix(1.25,0,0,1.25,-68.75,-667.5)"/>
<path style=" stroke:none;fill-rule:nonzero;fill:rgb(0%,0%,0%);fill-opacity:1;" d="M 130.664062 215.71875 L 130.664062 215.445312 C 129.863281 215.328125 129.667969 215.210938 129.667969 214.625 L 129.667969 209.234375 C 129.667969 208.628906 129.902344 208.453125 130.664062 208.394531 L 130.664062 208.121094 L 126.855469 208.121094 L 126.855469 208.394531 C 127.636719 208.453125 127.851562 208.589844 127.851562 209.234375 L 127.851562 211.519531 L 125.136719 211.519531 L 125.136719 209.234375 C 125.136719 208.589844 125.351562 208.453125 126.152344 208.394531 L 126.152344 208.121094 L 122.363281 208.121094 L 122.363281 208.394531 C 123.125 208.453125 123.320312 208.609375 123.320312 209.234375 L 123.320312 214.625 C 123.320312 215.210938 123.144531 215.328125 122.363281 215.445312 L 122.363281 215.71875 L 126.152344 215.71875 L 126.152344 215.445312 C 125.332031 215.347656 125.136719 215.210938 125.136719 214.625 L 125.136719 212.046875 L 127.851562 212.046875 L 127.851562 214.625 C 127.851562 215.191406 127.675781 215.347656 126.855469 215.445312 L 126.855469 215.71875 Z M 130.664062 215.71875 "/>
<path style=" stroke:none;fill-rule:nonzero;fill:rgb(0%,0%,0%);fill-opacity:1;" d="M 131.332031 215.640625 C 131.644531 215.09375 131.996094 214.839844 132.464844 214.839844 C 132.953125 214.839844 133.265625 215.113281 133.265625 215.621094 C 133.265625 216.070312 133.03125 216.402344 132.660156 216.617188 C 132.503906 216.714844 132.308594 216.792969 132.035156 216.890625 L 132.035156 216.988281 C 132.464844 216.988281 132.621094 217.007812 132.796875 217.066406 C 133.304688 217.222656 133.578125 217.59375 133.578125 218.160156 C 133.578125 218.785156 133.148438 219.3125 132.601562 219.3125 C 132.386719 219.3125 132.230469 219.273438 131.957031 219.078125 C 131.742188 218.921875 131.625 218.882812 131.488281 218.882812 C 131.332031 218.882812 131.195312 218.980469 131.195312 219.136719 C 131.195312 219.410156 131.488281 219.566406 132.035156 219.566406 C 132.699219 219.566406 133.402344 219.351562 133.773438 218.882812 C 133.988281 218.589844 134.125 218.21875 134.125 217.828125 C 134.125 217.4375 133.988281 217.085938 133.792969 216.851562 C 133.636719 216.695312 133.5 216.597656 133.167969 216.460938 C 133.65625 216.167969 133.851562 215.777344 133.851562 215.425781 C 133.851562 214.820312 133.382812 214.390625 132.699219 214.390625 C 131.917969 214.390625 131.429688 214.898438 131.214844 215.621094 Z M 131.332031 215.640625 "/>
<path style=" stroke:none;fill-rule:nonzero;fill:rgb(0%,0%,0%);fill-opacity:1;" d="M 134.695312 208.925781 C 133.640625 208.046875 133.40625 207.207031 133.40625 205.800781 C 133.40625 204.355469 133.640625 203.652344 134.695312 202.773438 L 134.617188 202.636719 C 133.425781 203.359375 132.761719 204.433594 132.761719 205.820312 C 132.761719 207.109375 133.40625 208.359375 134.597656 209.042969 Z M 134.695312 208.925781 "/>
<path style=" stroke:none;fill-rule:nonzero;fill:rgb(0%,0%,0%);fill-opacity:1;" d="M 137.859375 207.714844 L 137.859375 207.597656 C 137.292969 207.597656 137.15625 207.460938 137.15625 207.148438 L 137.15625 202.675781 L 137.078125 202.636719 L 135.75 203.320312 L 135.75 203.4375 L 135.945312 203.359375 C 136.082031 203.300781 136.199219 203.261719 136.277344 203.261719 C 136.433594 203.261719 136.511719 203.378906 136.511719 203.632812 L 136.511719 207.011719 C 136.511719 207.421875 136.355469 207.578125 135.789062 207.597656 L 135.789062 207.714844 Z M 137.859375 207.714844 "/>
<path style=" stroke:none;fill-rule:nonzero;fill:rgb(0%,0%,0%);fill-opacity:1;" d="M 138.875 202.773438 C 139.96875 203.613281 140.144531 204.472656 140.144531 205.878906 C 140.144531 207.34375 139.949219 208.046875 138.875 208.925781 L 138.953125 209.042969 C 140.144531 208.320312 140.789062 207.246094 140.789062 205.859375 C 140.789062 204.589844 140.105469 203.339844 138.972656 202.636719 Z M 138.875 202.773438 "/>
<path style="fill:none;stroke-width:1;stroke-linecap:round;stroke-linejoin:round;stroke:rgb(0%,0%,0%);stroke-opacity:1;stroke-miterlimit:10;" d="M 147.703125 646.29375 L 171.703125 646.29375 L 171.703125 670.29375 L 147.703125 670.29375 Z M 147.703125 646.29375 " transform="matrix(1.25,0,0,1.25,-68.75,-667.5)"/>
<path style=" stroke:none;fill-rule:nonzero;fill:rgb(0%,0%,0%);fill-opacity:1;" d="M 130.664062 160.363281 L 130.664062 160.089844 C 129.863281 159.972656 129.667969 159.855469 129.667969 159.269531 L 129.667969 153.878906 C 129.667969 153.273438 129.902344 153.097656 130.664062 153.039062 L 130.664062 152.765625 L 126.855469 152.765625 L 126.855469 153.039062 C 127.636719 153.097656 127.851562 153.234375 127.851562 153.878906 L 127.851562 156.164062 L 125.136719 156.164062 L 125.136719 153.878906 C 125.136719 153.234375 125.351562 153.097656 126.152344 153.039062 L 126.152344 152.765625 L 122.363281 152.765625 L 122.363281 153.039062 C 123.125 153.097656 123.320312 153.253906 123.320312 153.878906 L 123.320312 159.269531 C 123.320312 159.855469 123.144531 159.972656 122.363281 160.089844 L 122.363281 160.363281 L 126.152344 160.363281 L 126.152344 160.089844 C 125.332031 159.992188 125.136719 159.855469 125.136719 159.269531 L 125.136719 156.691406 L 127.851562 156.691406 L 127.851562 159.269531 C 127.851562 159.835938 127.675781 159.992188 126.855469 160.089844 L 126.855469 160.363281 Z M 130.664062 160.363281 "/>
<path style=" stroke:none;fill-rule:nonzero;fill:rgb(0%,0%,0%);fill-opacity:1;" d="M 131.332031 160.285156 C 131.644531 159.738281 131.996094 159.484375 132.464844 159.484375 C 132.953125 159.484375 133.265625 159.757812 133.265625 160.265625 C 133.265625 160.714844 133.03125 161.046875 132.660156 161.261719 C 132.503906 161.359375 132.308594 161.4375 132.035156 161.535156 L 132.035156 161.632812 C 132.464844 161.632812 132.621094 161.652344 132.796875 161.710938 C 133.304688 161.867188 133.578125 162.238281 133.578125 162.804688 C 133.578125 163.429688 133.148438 163.957031 132.601562 163.957031 C 132.386719 163.957031 132.230469 163.917969 131.957031 163.722656 C 131.742188 163.566406 131.625 163.527344 131.488281 163.527344 C 131.332031 163.527344 131.195312 163.625 131.195312 163.78125 C 131.195312 164.054688 131.488281 164.210938 132.035156 164.210938 C 132.699219 164.210938 133.402344 163.996094 133.773438 163.527344 C 133.988281 163.234375 134.125 162.863281 134.125 162.472656 C 134.125 162.082031 133.988281 161.730469 133.792969 161.496094 C 133.636719 161.339844 133.5 161.242188 133.167969 161.105469 C 133.65625 160.8125 133.851562 160.421875 133.851562 160.070312 C 133.851562 159.464844 133.382812 159.035156 132.699219 159.035156 C 131.917969 159.035156 131.429688 159.542969 131.214844 160.265625 Z M 131.332031 160.285156 "/>
<path style=" stroke:none;fill-rule:nonzero;fill:rgb(0%,0%,0%);fill-opacity:1;" d="M 134.695312 153.570312 C 133.640625 152.691406 133.40625 151.851562 133.40625 150.445312 C 133.40625 149 133.640625 148.296875 134.695312 147.417969 L 134.617188 147.28125 C 133.425781 148.003906 132.761719 149.078125 132.761719 150.464844 C 132.761719 151.753906 133.40625 153.003906 134.597656 153.6875 Z M 134.695312 153.570312 "/>
<path style=" stroke:none;fill-rule:nonzero;fill:rgb(0%,0%,0%);fill-opacity:1;" d="M 138.464844 151.324219 L 138.367188 151.285156 C 138.113281 151.714844 137.957031 151.792969 137.644531 151.792969 L 135.886719 151.792969 L 137.117188 150.464844 C 137.78125 149.761719 138.074219 149.195312 138.074219 148.609375 C 138.074219 147.867188 137.546875 147.28125 136.6875 147.28125 C 135.769531 147.28125 135.300781 147.90625 135.144531 148.785156 L 135.300781 148.824219 C 135.59375 148.082031 135.847656 147.847656 136.394531 147.847656 C 137.039062 147.847656 137.429688 148.21875 137.429688 148.902344 C 137.429688 149.546875 137.175781 150.113281 136.453125 150.855469 L 135.125 152.261719 L 135.125 152.359375 L 138.054688 152.359375 Z M 138.464844 151.324219 "/>
<path style=" stroke:none;fill-rule:nonzero;fill:rgb(0%,0%,0%);fill-opacity:1;" d="M 138.875 147.417969 C 139.96875 148.257812 140.144531 149.117188 140.144531 150.523438 C 140.144531 151.988281 139.949219 152.691406 138.875 153.570312 L 138.953125 153.6875 C 140.144531 152.964844 140.789062 151.890625 140.789062 150.503906 C 140.789062 149.234375 140.105469 147.984375 138.972656 147.28125 Z M 138.875 147.417969 "/>
<path style="fill:none;stroke-width:1;stroke-linecap:round;stroke-linejoin:round;stroke:rgb(0%,0%,0%);stroke-opacity:1;stroke-miterlimit:10;" d="M 147.703125 579.565625 L 171.703125 579.565625 L 171.703125 603.565625 L 147.703125 603.565625 Z M 147.703125 579.565625 " transform="matrix(1.25,0,0,1.25,-68.75,-667.5)"/>
<path style=" stroke:none;fill-rule:nonzero;fill:rgb(0%,0%,0%);fill-opacity:1;" d="M 130.664062 76.957031 L 130.664062 76.683594 C 129.863281 76.566406 129.667969 76.449219 129.667969 75.863281 L 129.667969 70.472656 C 129.667969 69.867188 129.902344 69.691406 130.664062 69.632812 L 130.664062 69.359375 L 126.855469 69.359375 L 126.855469 69.632812 C 127.636719 69.691406 127.851562 69.828125 127.851562 70.472656 L 127.851562 72.757812 L 125.136719 72.757812 L 125.136719 70.472656 C 125.136719 69.828125 125.351562 69.691406 126.152344 69.632812 L 126.152344 69.359375 L 122.363281 69.359375 L 122.363281 69.632812 C 123.125 69.691406 123.320312 69.847656 123.320312 70.472656 L 123.320312 75.863281 C 123.320312 76.449219 123.144531 76.566406 122.363281 76.683594 L 122.363281 76.957031 L 126.152344 76.957031 L 126.152344 76.683594 C 125.332031 76.585938 125.136719 76.449219 125.136719 75.863281 L 125.136719 73.285156 L 127.851562 73.285156 L 127.851562 75.863281 C 127.851562 76.429688 127.675781 76.585938 126.855469 76.683594 L 126.855469 76.957031 Z M 130.664062 76.957031 "/>
<path style=" stroke:none;fill-rule:nonzero;fill:rgb(0%,0%,0%);fill-opacity:1;" d="M 131.332031 76.878906 C 131.644531 76.332031 131.996094 76.078125 132.464844 76.078125 C 132.953125 76.078125 133.265625 76.351562 133.265625 76.859375 C 133.265625 77.308594 133.03125 77.640625 132.660156 77.855469 C 132.503906 77.953125 132.308594 78.03125 132.035156 78.128906 L 132.035156 78.226562 C 132.464844 78.226562 132.621094 78.246094 132.796875 78.304688 C 133.304688 78.460938 133.578125 78.832031 133.578125 79.398438 C 133.578125 80.023438 133.148438 80.550781 132.601562 80.550781 C 132.386719 80.550781 132.230469 80.511719 131.957031 80.316406 C 131.742188 80.160156 131.625 80.121094 131.488281 80.121094 C 131.332031 80.121094 131.195312 80.21875 131.195312 80.375 C 131.195312 80.648438 131.488281 80.804688 132.035156 80.804688 C 132.699219 80.804688 133.402344 80.589844 133.773438 80.121094 C 133.988281 79.828125 134.125 79.457031 134.125 79.066406 C 134.125 78.675781 133.988281 78.324219 133.792969 78.089844 C 133.636719 77.933594 133.5 77.835938 133.167969 77.699219 C 133.65625 77.40625 133.851562 77.015625 133.851562 76.664062 C 133.851562 76.058594 133.382812 75.628906 132.699219 75.628906 C 131.917969 75.628906 131.429688 76.136719 131.214844 76.859375 Z M 131.332031 76.878906 "/>
<path style=" stroke:none;fill-rule:nonzero;fill:rgb(0%,0%,0%);fill-opacity:1;" d="M 134.484375 70.164062 C 133.429688 69.285156 133.195312 68.445312 133.195312 67.039062 C 133.195312 65.59375 133.429688 64.890625 134.484375 64.011719 L 134.40625 63.875 C 133.214844 64.597656 132.550781 65.671875 132.550781 67.058594 C 132.550781 68.347656 133.195312 69.597656 134.386719 70.28125 Z M 134.484375 70.164062 "/>
<path style=" stroke:none;fill-rule:nonzero;fill:rgb(0%,0%,0%);fill-opacity:1;" d="M 138.898438 67.605469 L 138.742188 67.566406 C 138.527344 67.996094 138.371094 68.25 138.117188 68.40625 C 137.765625 68.640625 137.53125 68.679688 136.769531 68.679688 C 136.164062 68.679688 135.988281 68.601562 135.988281 68.367188 C 135.988281 68.269531 136.027344 68.152344 136.066406 67.976562 L 136.964844 64.753906 C 137.082031 64.324219 137.277344 64.207031 137.726562 64.167969 L 137.726562 64.050781 L 135.675781 64.050781 L 135.675781 64.167969 C 136.144531 64.207031 136.242188 64.285156 136.242188 64.5 C 136.242188 64.617188 136.222656 64.753906 136.164062 64.96875 L 135.246094 68.25 C 135.128906 68.71875 135.050781 68.796875 134.640625 68.835938 L 134.640625 68.953125 L 138.449219 68.953125 Z M 138.898438 67.605469 "/>
<path style=" stroke:none;fill-rule:nonzero;fill:rgb(0%,0%,0%);fill-opacity:1;" d="M 139.082031 64.011719 C 140.175781 64.851562 140.351562 65.710938 140.351562 67.117188 C 140.351562 68.582031 140.15625 69.285156 139.082031 70.164062 L 139.160156 70.28125 C 140.351562 69.558594 140.996094 68.484375 140.996094 67.097656 C 140.996094 65.828125 140.3125 64.578125 139.179688 63.875 Z M 139.082031 64.011719 "/>
<path style="fill:none;stroke-width:1;stroke-linecap:round;stroke-linejoin:round;stroke:rgb(0%,0%,0%);stroke-opacity:1;stroke-miterlimit:10;" d="M 124.80625 702.575 L 141.80625 702.575 " transform="matrix(1.25,0,0,1.25,-68.75,-667.5)"/>
<path style="fill:none;stroke-width:1;stroke-linecap:butt;stroke-linejoin:miter;stroke:rgb(0%,0%,0%);stroke-opacity:1;stroke-miterlimit:10;" d="M 145.80625 702.575 L 141.80625 702.575 M 141.80625 701.075 L 145.80625 702.575 L 141.80625 704.075 " transform="matrix(1.25,0,0,1.25,-68.75,-667.5)"/>
<path style="fill:none;stroke-width:1;stroke-linecap:round;stroke-linejoin:round;stroke:rgb(0%,0%,0%);stroke-opacity:1;stroke-miterlimit:10;" d="M 124.80625 591.565625 L 141.80625 591.565625 " transform="matrix(1.25,0,0,1.25,-68.75,-667.5)"/>
<path style="fill:none;stroke-width:1;stroke-linecap:butt;stroke-linejoin:miter;stroke:rgb(0%,0%,0%);stroke-opacity:1;stroke-miterlimit:10;" d="M 145.80625 591.565625 L 141.80625 591.565625 M 141.80625 590.065625 L 145.80625 591.565625 L 141.80625 593.065625 " transform="matrix(1.25,0,0,1.25,-68.75,-667.5)"/>
<path style="fill:none;stroke-width:1;stroke-linecap:round;stroke-linejoin:round;stroke:rgb(0%,0%,0%);stroke-opacity:1;stroke-miterlimit:10;" d="M 124.80625 658.29375 L 141.80625 658.29375 " transform="matrix(1.25,0,0,1.25,-68.75,-667.5)"/>
<path style="fill:none;stroke-width:1;stroke-linecap:butt;stroke-linejoin:miter;stroke:rgb(0%,0%,0%);stroke-opacity:1;stroke-miterlimit:10;" d="M 145.80625 658.29375 L 141.80625 658.29375 M 141.80625 656.79375 L 145.80625 658.29375 L 141.80625 659.79375 " transform="matrix(1.25,0,0,1.25,-68.75,-667.5)"/>
<path style="fill:none;stroke-width:1;stroke-linecap:round;stroke-linejoin:round;stroke:rgb(0%,0%,0%);stroke-opacity:1;stroke-miterlimit:10;" d="M 159.703125 579.565625 L 159.703125 564.9 " transform="matrix(1.25,0,0,1.25,-68.75,-667.5)"/>
<path style="fill:none;stroke-width:1;stroke-linecap:butt;stroke-linejoin:miter;stroke:rgb(0%,0%,0%);stroke-opacity:1;stroke-miterlimit:10;" d="M 159.703125 560.9 L 159.703125 564.9 M 158.203125 564.9 L 159.703125 560.9 L 161.203125 564.9 " transform="matrix(1.25,0,0,1.25,-68.75,-667.5)"/>
<path style="fill:none;stroke-width:1;stroke-linecap:round;stroke-linejoin:round;stroke:rgb(0%,0%,0%);stroke-opacity:1;stroke-miterlimit:10;" d="M 159.703125 690.575 L 159.703125 676.190625 " transform="matrix(1.25,0,0,1.25,-68.75,-667.5)"/>
<path style="fill:none;stroke-width:1;stroke-linecap:butt;stroke-linejoin:miter;stroke:rgb(0%,0%,0%);stroke-opacity:1;stroke-miterlimit:10;" d="M 159.703125 672.190625 L 159.703125 676.190625 M 158.203125 676.190625 L 159.703125 672.190625 L 161.203125 676.190625 " transform="matrix(1.25,0,0,1.25,-68.75,-667.5)"/>
<path style=" stroke:none;fill-rule:nonzero;fill:rgb(0%,0%,0%);fill-opacity:1;" d="M 134.855469 117.738281 C 134.855469 117.367188 134.523438 117.035156 134.152344 117.035156 C 133.78125 117.035156 133.46875 117.347656 133.46875 117.738281 C 133.46875 118.109375 133.78125 118.421875 134.132812 118.421875 C 134.523438 118.421875 134.855469 118.128906 134.855469 117.738281 Z M 131.144531 117.738281 C 131.144531 117.367188 130.8125 117.035156 130.441406 117.035156 C 130.070312 117.035156 129.757812 117.347656 129.757812 117.738281 C 129.757812 118.109375 130.070312 118.421875 130.402344 118.421875 C 130.8125 118.421875 131.144531 118.128906 131.144531 117.738281 Z M 127.433594 117.738281 C 127.433594 117.367188 127.101562 117.035156 126.730469 117.035156 C 126.339844 117.035156 126.027344 117.347656 126.027344 117.738281 C 126.027344 118.109375 126.339844 118.421875 126.691406 118.421875 C 127.101562 118.421875 127.433594 118.128906 127.433594 117.738281 Z M 127.433594 117.738281 "/>
<path style="fill:none;stroke-width:1;stroke-linecap:round;stroke-linejoin:round;stroke:rgb(0%,0%,0%);stroke-opacity:1;stroke-miterlimit:10;" d="M 159.703125 646.29375 L 159.703125 640.53125 " transform="matrix(1.25,0,0,1.25,-68.75,-667.5)"/>
<path style="fill:none;stroke-width:1;stroke-linecap:butt;stroke-linejoin:miter;stroke:rgb(0%,0%,0%);stroke-opacity:1;stroke-miterlimit:10;" d="M 159.703125 636.53125 L 159.703125 640.53125 M 158.203125 640.53125 L 159.703125 636.53125 L 161.203125 640.53125 " transform="matrix(1.25,0,0,1.25,-68.75,-667.5)"/>
<path style="fill:none;stroke-width:1;stroke-linecap:round;stroke-linejoin:round;stroke:rgb(0%,0%,0%);stroke-opacity:1;stroke-miterlimit:10;" d="M 159.703125 616.628125 L 159.703125 609.465625 " transform="matrix(1.25,0,0,1.25,-68.75,-667.5)"/>
<path style="fill:none;stroke-width:1;stroke-linecap:butt;stroke-linejoin:miter;stroke:rgb(0%,0%,0%);stroke-opacity:1;stroke-miterlimit:10;" d="M 159.703125 605.465625 L 159.703125 609.465625 M 158.203125 609.465625 L 159.703125 605.465625 L 161.203125 609.465625 " transform="matrix(1.25,0,0,1.25,-68.75,-667.5)"/>
</g>
</svg>
