<?xml version="1.0" encoding="UTF-8"?>
<svg xmlns="http://www.w3.org/2000/svg" xmlns:xlink="http://www.w3.org/1999/xlink" width="314pt" height="109pt" viewBox="0 0 314 109" version="1.1">
<g id="surface1">
<path style="fill:none;stroke-width:1;stroke-linecap:round;stroke-linejoin:round;stroke:rgb(0%,0%,0%);stroke-opacity:1;stroke-miterlimit:10;" d="M 30 30 L 60 30 L 60 60 L 30 60 Z M 30 30 " transform="matrix(1.25,0,0,1.25,-36.25,32.5)"/>
<path style=" stroke:none;fill-rule:nonzero;fill:rgb(0%,0%,0%);fill-opacity:1;" d="M 22.636719 91.875 L 22.636719 91.601562 C 22.460938 91.542969 22.382812 91.503906 22.304688 91.386719 L 20.625 88.808594 L 21.757812 87.402344 C 21.972656 87.148438 22.207031 87.011719 22.558594 86.953125 L 22.558594 86.679688 L 20.664062 86.679688 L 20.664062 86.953125 L 20.898438 86.972656 C 21.152344 87.011719 21.230469 87.050781 21.230469 87.226562 C 21.230469 87.402344 21.113281 87.558594 20.800781 87.949219 L 20.410156 88.457031 C 20.351562 88.398438 20.3125 88.339844 20.253906 88.28125 C 19.882812 87.792969 19.609375 87.324219 19.609375 87.167969 C 19.609375 87.03125 19.765625 86.972656 20.136719 86.953125 L 20.136719 86.679688 L 17.324219 86.679688 L 17.324219 86.953125 C 17.617188 87.011719 17.675781 87.050781 17.910156 87.402344 L 19.355469 89.609375 C 19.179688 89.824219 19.277344 89.707031 19.101562 89.921875 L 18.613281 90.566406 C 17.988281 91.40625 17.753906 91.582031 17.34375 91.601562 L 17.34375 91.875 L 19.238281 91.875 L 19.238281 91.601562 C 18.847656 91.582031 18.691406 91.503906 18.691406 91.328125 C 18.691406 91.152344 18.964844 90.703125 19.394531 90.175781 C 19.472656 90.097656 19.53125 90.019531 19.589844 89.960938 C 19.726562 90.195312 19.882812 90.429688 20.058594 90.664062 C 20.332031 91.054688 20.429688 91.25 20.429688 91.386719 C 20.429688 91.523438 20.273438 91.582031 19.921875 91.601562 L 19.921875 91.875 Z M 22.636719 91.875 "/>
<path style="fill:none;stroke-width:1;stroke-linecap:round;stroke-linejoin:round;stroke:rgb(0%,0%,0%);stroke-opacity:1;stroke-miterlimit:10;" d="M 80 30 L 110 30 L 110 60 L 80 60 Z M 80 30 " transform="matrix(1.25,0,0,1.25,-36.25,32.5)"/>
<path style=" stroke:none;fill-rule:nonzero;fill:rgb(0%,0%,0%);fill-opacity:1;" d="M 72.972656 85.800781 L 72.894531 86.171875 L 73.910156 86.171875 L 72.914062 90.898438 C 72.660156 92.109375 72.308594 92.714844 71.820312 92.714844 C 71.703125 92.714844 71.605469 92.636719 71.605469 92.539062 C 71.605469 92.421875 71.703125 92.363281 71.703125 92.207031 C 71.703125 91.972656 71.527344 91.796875 71.273438 91.796875 C 71.039062 91.796875 70.84375 92.011719 70.84375 92.265625 C 70.84375 92.65625 71.234375 92.949219 71.742188 92.949219 C 72.757812 92.949219 73.519531 91.855469 73.988281 89.765625 L 74.808594 86.171875 L 76.019531 86.171875 L 76.078125 85.800781 L 74.886719 85.800781 C 75.199219 84.023438 75.628906 83.242188 76.253906 83.242188 C 76.410156 83.242188 76.488281 83.300781 76.488281 83.398438 C 76.488281 83.496094 76.390625 83.554688 76.390625 83.730469 C 76.390625 84.003906 76.605469 84.179688 76.800781 84.179688 C 77.054688 84.179688 77.269531 83.945312 77.269531 83.691406 C 77.269531 83.28125 76.859375 82.988281 76.3125 82.988281 C 75.628906 82.988281 75.160156 83.378906 74.828125 83.867188 C 74.457031 84.394531 74.261719 85.019531 74.007812 85.800781 Z M 72.972656 85.800781 "/>
<path style=" stroke:none;fill-rule:nonzero;fill:rgb(0%,0%,0%);fill-opacity:1;" d="M 78.578125 94.375 L 78.578125 94.257812 C 78.011719 94.257812 77.875 94.121094 77.875 93.808594 L 77.875 89.335938 L 77.796875 89.296875 L 76.46875 89.980469 L 76.46875 90.097656 L 76.664062 90.019531 C 76.800781 89.960938 76.917969 89.921875 76.996094 89.921875 C 77.152344 89.921875 77.230469 90.039062 77.230469 90.292969 L 77.230469 93.671875 C 77.230469 94.082031 77.074219 94.238281 76.507812 94.257812 L 76.507812 94.375 Z M 78.578125 94.375 "/>
<path style=" stroke:none;fill-rule:nonzero;fill:rgb(0%,0%,0%);fill-opacity:1;" d="M 82.796875 92.441406 C 81.214844 91.113281 80.882812 89.84375 80.882812 87.753906 C 80.882812 85.585938 81.234375 84.53125 82.796875 83.203125 L 82.699219 83.027344 C 80.902344 84.082031 79.925781 85.703125 79.925781 87.792969 C 79.925781 89.707031 80.882812 91.601562 82.660156 92.617188 Z M 82.796875 92.441406 "/>
<path style=" stroke:none;fill-rule:nonzero;fill:rgb(0%,0%,0%);fill-opacity:1;" d="M 88.574219 90.625 L 88.574219 90.351562 C 88.398438 90.292969 88.320312 90.253906 88.242188 90.136719 L 86.5625 87.558594 L 87.695312 86.152344 C 87.910156 85.898438 88.144531 85.761719 88.496094 85.703125 L 88.496094 85.429688 L 86.601562 85.429688 L 86.601562 85.703125 L 86.835938 85.722656 C 87.089844 85.761719 87.167969 85.800781 87.167969 85.976562 C 87.167969 86.152344 87.050781 86.308594 86.738281 86.699219 L 86.347656 87.207031 C 86.289062 87.148438 86.25 87.089844 86.191406 87.03125 C 85.820312 86.542969 85.546875 86.074219 85.546875 85.917969 C 85.546875 85.78125 85.703125 85.722656 86.074219 85.703125 L 86.074219 85.429688 L 83.261719 85.429688 L 83.261719 85.703125 C 83.554688 85.761719 83.613281 85.800781 83.847656 86.152344 L 85.292969 88.359375 C 85.117188 88.574219 85.214844 88.457031 85.039062 88.671875 L 84.550781 89.316406 C 83.925781 90.15625 83.691406 90.332031 83.28125 90.351562 L 83.28125 90.625 L 85.175781 90.625 L 85.175781 90.351562 C 84.785156 90.332031 84.628906 90.253906 84.628906 90.078125 C 84.628906 89.902344 84.902344 89.453125 85.332031 88.925781 C 85.410156 88.847656 85.46875 88.769531 85.527344 88.710938 C 85.664062 88.945312 85.820312 89.179688 85.996094 89.414062 C 86.269531 89.804688 86.367188 90 86.367188 90.136719 C 86.367188 90.273438 86.210938 90.332031 85.859375 90.351562 L 85.859375 90.625 Z M 88.574219 90.625 "/>
<path style=" stroke:none;fill-rule:nonzero;fill:rgb(0%,0%,0%);fill-opacity:1;" d="M 89.082031 83.203125 C 90.703125 84.492188 90.996094 85.78125 90.996094 87.871094 C 90.996094 90.058594 90.664062 91.113281 89.082031 92.441406 L 89.179688 92.617188 C 90.957031 91.523438 91.953125 89.921875 91.953125 87.851562 C 91.953125 85.9375 90.9375 84.0625 89.21875 83.027344 Z M 89.082031 83.203125 "/>
<path style="fill:none;stroke-width:1;stroke-linecap:round;stroke-linejoin:round;stroke:rgb(0%,0%,0%);stroke-opacity:1;stroke-miterlimit:10;" d="M 130 30 L 160 30 L 160 60 L 130 60 Z M 130 30 " transform="matrix(1.25,0,0,1.25,-36.25,32.5)"/>
<path style=" stroke:none;fill-rule:nonzero;fill:rgb(0%,0%,0%);fill-opacity:1;" d="M 135.472656 85.800781 L 135.394531 86.171875 L 136.410156 86.171875 L 135.414062 90.898438 C 135.160156 92.109375 134.808594 92.714844 134.320312 92.714844 C 134.203125 92.714844 134.105469 92.636719 134.105469 92.539062 C 134.105469 92.421875 134.203125 92.363281 134.203125 92.207031 C 134.203125 91.972656 134.027344 91.796875 133.773438 91.796875 C 133.539062 91.796875 133.34375 92.011719 133.34375 92.265625 C 133.34375 92.65625 133.734375 92.949219 134.242188 92.949219 C 135.257812 92.949219 136.019531 91.855469 136.488281 89.765625 L 137.308594 86.171875 L 138.519531 86.171875 L 138.578125 85.800781 L 137.386719 85.800781 C 137.699219 84.023438 138.128906 83.242188 138.753906 83.242188 C 138.910156 83.242188 138.988281 83.300781 138.988281 83.398438 C 138.988281 83.496094 138.890625 83.554688 138.890625 83.730469 C 138.890625 84.003906 139.105469 84.179688 139.300781 84.179688 C 139.554688 84.179688 139.769531 83.945312 139.769531 83.691406 C 139.769531 83.28125 139.359375 82.988281 138.8125 82.988281 C 138.128906 82.988281 137.660156 83.378906 137.328125 83.867188 C 136.957031 84.394531 136.761719 85.019531 136.507812 85.800781 Z M 135.472656 85.800781 "/>
<path style=" stroke:none;fill-rule:nonzero;fill:rgb(0%,0%,0%);fill-opacity:1;" d="M 141.683594 93.339844 L 141.585938 93.300781 C 141.332031 93.730469 141.175781 93.808594 140.863281 93.808594 L 139.105469 93.808594 L 140.335938 92.480469 C 141 91.777344 141.292969 91.210938 141.292969 90.625 C 141.292969 89.882812 140.765625 89.296875 139.90625 89.296875 C 138.988281 89.296875 138.519531 89.921875 138.363281 90.800781 L 138.519531 90.839844 C 138.8125 90.097656 139.066406 89.863281 139.613281 89.863281 C 140.257812 89.863281 140.648438 90.234375 140.648438 90.917969 C 140.648438 91.5625 140.394531 92.128906 139.671875 92.871094 L 138.34375 94.277344 L 138.34375 94.375 L 141.273438 94.375 Z M 141.683594 93.339844 "/>
<path style=" stroke:none;fill-rule:nonzero;fill:rgb(0%,0%,0%);fill-opacity:1;" d="M 145.296875 92.441406 C 143.714844 91.113281 143.382812 89.84375 143.382812 87.753906 C 143.382812 85.585938 143.734375 84.53125 145.296875 83.203125 L 145.199219 83.027344 C 143.402344 84.082031 142.425781 85.703125 142.425781 87.792969 C 142.425781 89.707031 143.382812 91.601562 145.160156 92.617188 Z M 145.296875 92.441406 "/>
<path style=" stroke:none;fill-rule:nonzero;fill:rgb(0%,0%,0%);fill-opacity:1;" d="M 151.074219 90.625 L 151.074219 90.351562 C 150.898438 90.292969 150.820312 90.253906 150.742188 90.136719 L 149.0625 87.558594 L 150.195312 86.152344 C 150.410156 85.898438 150.644531 85.761719 150.996094 85.703125 L 150.996094 85.429688 L 149.101562 85.429688 L 149.101562 85.703125 L 149.335938 85.722656 C 149.589844 85.761719 149.667969 85.800781 149.667969 85.976562 C 149.667969 86.152344 149.550781 86.308594 149.238281 86.699219 L 148.847656 87.207031 C 148.789062 87.148438 148.75 87.089844 148.691406 87.03125 C 148.320312 86.542969 148.046875 86.074219 148.046875 85.917969 C 148.046875 85.78125 148.203125 85.722656 148.574219 85.703125 L 148.574219 85.429688 L 145.761719 85.429688 L 145.761719 85.703125 C 146.054688 85.761719 146.113281 85.800781 146.347656 86.152344 L 147.792969 88.359375 C 147.617188 88.574219 147.714844 88.457031 147.539062 88.671875 L 147.050781 89.316406 C 146.425781 90.15625 146.191406 90.332031 145.78125 90.351562 L 145.78125 90.625 L 147.675781 90.625 L 147.675781 90.351562 C 147.285156 90.332031 147.128906 90.253906 147.128906 90.078125 C 147.128906 89.902344 147.402344 89.453125 147.832031 88.925781 C 147.910156 88.847656 147.96875 88.769531 148.027344 88.710938 C 148.164062 88.945312 148.320312 89.179688 148.496094 89.414062 C 148.769531 89.804688 148.867188 90 148.867188 90.136719 C 148.867188 90.273438 148.710938 90.332031 148.359375 90.351562 L 148.359375 90.625 Z M 151.074219 90.625 "/>
<path style=" stroke:none;fill-rule:nonzero;fill:rgb(0%,0%,0%);fill-opacity:1;" d="M 151.582031 83.203125 C 153.203125 84.492188 153.496094 85.78125 153.496094 87.871094 C 153.496094 90.058594 153.164062 91.113281 151.582031 92.441406 L 151.679688 92.617188 C 153.457031 91.523438 154.453125 89.921875 154.453125 87.851562 C 154.453125 85.9375 153.4375 84.0625 151.71875 83.027344 Z M 151.582031 83.203125 "/>
<path style="fill:none;stroke-width:1;stroke-linecap:round;stroke-linejoin:round;stroke:rgb(0%,0%,0%);stroke-opacity:1;stroke-miterlimit:10;" d="M 179 30 L 209 30 L 209 60 L 179 60 Z M 179 30 " transform="matrix(1.25,0,0,1.25,-36.25,32.5)"/>
<path style=" stroke:none;fill-rule:nonzero;fill:rgb(0%,0%,0%);fill-opacity:1;" d="M 196.722656 85.800781 L 196.644531 86.171875 L 197.660156 86.171875 L 196.664062 90.898438 C 196.410156 92.109375 196.058594 92.714844 195.570312 92.714844 C 195.453125 92.714844 195.355469 92.636719 195.355469 92.539062 C 195.355469 92.421875 195.453125 92.363281 195.453125 92.207031 C 195.453125 91.972656 195.277344 91.796875 195.023438 91.796875 C 194.789062 91.796875 194.59375 92.011719 194.59375 92.265625 C 194.59375 92.65625 194.984375 92.949219 195.492188 92.949219 C 196.507812 92.949219 197.269531 91.855469 197.738281 89.765625 L 198.558594 86.171875 L 199.769531 86.171875 L 199.828125 85.800781 L 198.636719 85.800781 C 198.949219 84.023438 199.378906 83.242188 200.003906 83.242188 C 200.160156 83.242188 200.238281 83.300781 200.238281 83.398438 C 200.238281 83.496094 200.140625 83.554688 200.140625 83.730469 C 200.140625 84.003906 200.355469 84.179688 200.550781 84.179688 C 200.804688 84.179688 201.019531 83.945312 201.019531 83.691406 C 201.019531 83.28125 200.609375 82.988281 200.0625 82.988281 C 199.378906 82.988281 198.910156 83.378906 198.578125 83.867188 C 198.207031 84.394531 198.011719 85.019531 197.757812 85.800781 Z M 196.722656 85.800781 "/>
<path style=" stroke:none;fill-rule:nonzero;fill:rgb(0%,0%,0%);fill-opacity:1;" d="M 199.828125 90.546875 C 200.140625 90 200.492188 89.746094 200.960938 89.746094 C 201.449219 89.746094 201.761719 90.019531 201.761719 90.527344 C 201.761719 90.976562 201.527344 91.308594 201.15625 91.523438 C 201 91.621094 200.804688 91.699219 200.53125 91.796875 L 200.53125 91.894531 C 200.960938 91.894531 201.117188 91.914062 201.292969 91.972656 C 201.800781 92.128906 202.074219 92.5 202.074219 93.066406 C 202.074219 93.691406 201.644531 94.21875 201.097656 94.21875 C 200.882812 94.21875 200.726562 94.179688 200.453125 93.984375 C 200.238281 93.828125 200.121094 93.789062 199.984375 93.789062 C 199.828125 93.789062 199.691406 93.886719 199.691406 94.042969 C 199.691406 94.316406 199.984375 94.472656 200.53125 94.472656 C 201.195312 94.472656 201.898438 94.257812 202.269531 93.789062 C 202.484375 93.496094 202.621094 93.125 202.621094 92.734375 C 202.621094 92.34375 202.484375 91.992188 202.289062 91.757812 C 202.132812 91.601562 201.996094 91.503906 201.664062 91.367188 C 202.152344 91.074219 202.347656 90.683594 202.347656 90.332031 C 202.347656 89.726562 201.878906 89.296875 201.195312 89.296875 C 200.414062 89.296875 199.925781 89.804688 199.710938 90.527344 Z M 199.828125 90.546875 "/>
<path style=" stroke:none;fill-rule:nonzero;fill:rgb(0%,0%,0%);fill-opacity:1;" d="M 206.546875 92.441406 C 204.964844 91.113281 204.632812 89.84375 204.632812 87.753906 C 204.632812 85.585938 204.984375 84.53125 206.546875 83.203125 L 206.449219 83.027344 C 204.652344 84.082031 203.675781 85.703125 203.675781 87.792969 C 203.675781 89.707031 204.632812 91.601562 206.410156 92.617188 Z M 206.546875 92.441406 "/>
<path style=" stroke:none;fill-rule:nonzero;fill:rgb(0%,0%,0%);fill-opacity:1;" d="M 212.324219 90.625 L 212.324219 90.351562 C 212.148438 90.292969 212.070312 90.253906 211.992188 90.136719 L 210.3125 87.558594 L 211.445312 86.152344 C 211.660156 85.898438 211.894531 85.761719 212.246094 85.703125 L 212.246094 85.429688 L 210.351562 85.429688 L 210.351562 85.703125 L 210.585938 85.722656 C 210.839844 85.761719 210.917969 85.800781 210.917969 85.976562 C 210.917969 86.152344 210.800781 86.308594 210.488281 86.699219 L 210.097656 87.207031 C 210.039062 87.148438 210 87.089844 209.941406 87.03125 C 209.570312 86.542969 209.296875 86.074219 209.296875 85.917969 C 209.296875 85.78125 209.453125 85.722656 209.824219 85.703125 L 209.824219 85.429688 L 207.011719 85.429688 L 207.011719 85.703125 C 207.304688 85.761719 207.363281 85.800781 207.597656 86.152344 L 209.042969 88.359375 C 208.867188 88.574219 208.964844 88.457031 208.789062 88.671875 L 208.300781 89.316406 C 207.675781 90.15625 207.441406 90.332031 207.03125 90.351562 L 207.03125 90.625 L 208.925781 90.625 L 208.925781 90.351562 C 208.535156 90.332031 208.378906 90.253906 208.378906 90.078125 C 208.378906 89.902344 208.652344 89.453125 209.082031 88.925781 C 209.160156 88.847656 209.21875 88.769531 209.277344 88.710938 C 209.414062 88.945312 209.570312 89.179688 209.746094 89.414062 C 210.019531 89.804688 210.117188 90 210.117188 90.136719 C 210.117188 90.273438 209.960938 90.332031 209.609375 90.351562 L 209.609375 90.625 Z M 212.324219 90.625 "/>
<path style=" stroke:none;fill-rule:nonzero;fill:rgb(0%,0%,0%);fill-opacity:1;" d="M 212.832031 83.203125 C 214.453125 84.492188 214.746094 85.78125 214.746094 87.871094 C 214.746094 90.058594 214.414062 91.113281 212.832031 92.441406 L 212.929688 92.617188 C 214.707031 91.523438 215.703125 89.921875 215.703125 87.851562 C 215.703125 85.9375 214.6875 84.0625 212.96875 83.027344 Z M 212.832031 83.203125 "/>
<path style="fill:none;stroke-width:1;stroke-linecap:round;stroke-linejoin:round;stroke:rgb(0%,0%,0%);stroke-opacity:1;stroke-miterlimit:10;" d="M 228 30 L 258 30 L 258 60 L 228 60 Z M 228 30 " transform="matrix(1.25,0,0,1.25,-36.25,32.5)"/>
<path style=" stroke:none;fill-rule:nonzero;fill:rgb(0%,0%,0%);fill-opacity:1;" d="M 257.972656 85.800781 L 257.894531 86.171875 L 258.910156 86.171875 L 257.914062 90.898438 C 257.660156 92.109375 257.308594 92.714844 256.820312 92.714844 C 256.703125 92.714844 256.605469 92.636719 256.605469 92.539062 C 256.605469 92.421875 256.703125 92.363281 256.703125 92.207031 C 256.703125 91.972656 256.527344 91.796875 256.273438 91.796875 C 256.039062 91.796875 255.84375 92.011719 255.84375 92.265625 C 255.84375 92.65625 256.234375 92.949219 256.742188 92.949219 C 257.757812 92.949219 258.519531 91.855469 258.988281 89.765625 L 259.808594 86.171875 L 261.019531 86.171875 L 261.078125 85.800781 L 259.886719 85.800781 C 260.199219 84.023438 260.628906 83.242188 261.253906 83.242188 C 261.410156 83.242188 261.488281 83.300781 261.488281 83.398438 C 261.488281 83.496094 261.390625 83.554688 261.390625 83.730469 C 261.390625 84.003906 261.605469 84.179688 261.800781 84.179688 C 262.054688 84.179688 262.269531 83.945312 262.269531 83.691406 C 262.269531 83.28125 261.859375 82.988281 261.3125 82.988281 C 260.628906 82.988281 260.160156 83.378906 259.828125 83.867188 C 259.457031 84.394531 259.261719 85.019531 259.007812 85.800781 Z M 257.972656 85.800781 "/>
<path style=" stroke:none;fill-rule:nonzero;fill:rgb(0%,0%,0%);fill-opacity:1;" d="M 264.183594 93.125 L 264.183594 92.636719 L 263.402344 92.636719 L 263.402344 89.296875 L 263.070312 89.296875 L 260.726562 92.636719 L 260.726562 93.125 L 262.816406 93.125 L 262.816406 94.375 L 263.402344 94.375 L 263.402344 93.125 Z M 262.816406 92.636719 L 261.019531 92.636719 L 262.816406 90.078125 Z M 262.816406 92.636719 "/>
<path style=" stroke:none;fill-rule:nonzero;fill:rgb(0%,0%,0%);fill-opacity:1;" d="M 267.796875 92.441406 C 266.214844 91.113281 265.882812 89.84375 265.882812 87.753906 C 265.882812 85.585938 266.234375 84.53125 267.796875 83.203125 L 267.699219 83.027344 C 265.902344 84.082031 264.925781 85.703125 264.925781 87.792969 C 264.925781 89.707031 265.882812 91.601562 267.660156 92.617188 Z M 267.796875 92.441406 "/>
<path style=" stroke:none;fill-rule:nonzero;fill:rgb(0%,0%,0%);fill-opacity:1;" d="M 273.574219 90.625 L 273.574219 90.351562 C 273.398438 90.292969 273.320312 90.253906 273.242188 90.136719 L 271.5625 87.558594 L 272.695312 86.152344 C 272.910156 85.898438 273.144531 85.761719 273.496094 85.703125 L 273.496094 85.429688 L 271.601562 85.429688 L 271.601562 85.703125 L 271.835938 85.722656 C 272.089844 85.761719 272.167969 85.800781 272.167969 85.976562 C 272.167969 86.152344 272.050781 86.308594 271.738281 86.699219 L 271.347656 87.207031 C 271.289062 87.148438 271.25 87.089844 271.191406 87.03125 C 270.820312 86.542969 270.546875 86.074219 270.546875 85.917969 C 270.546875 85.78125 270.703125 85.722656 271.074219 85.703125 L 271.074219 85.429688 L 268.261719 85.429688 L 268.261719 85.703125 C 268.554688 85.761719 268.613281 85.800781 268.847656 86.152344 L 270.292969 88.359375 C 270.117188 88.574219 270.214844 88.457031 270.039062 88.671875 L 269.550781 89.316406 C 268.925781 90.15625 268.691406 90.332031 268.28125 90.351562 L 268.28125 90.625 L 270.175781 90.625 L 270.175781 90.351562 C 269.785156 90.332031 269.628906 90.253906 269.628906 90.078125 C 269.628906 89.902344 269.902344 89.453125 270.332031 88.925781 C 270.410156 88.847656 270.46875 88.769531 270.527344 88.710938 C 270.664062 88.945312 270.820312 89.179688 270.996094 89.414062 C 271.269531 89.804688 271.367188 90 271.367188 90.136719 C 271.367188 90.273438 271.210938 90.332031 270.859375 90.351562 L 270.859375 90.625 Z M 273.574219 90.625 "/>
<path style=" stroke:none;fill-rule:nonzero;fill:rgb(0%,0%,0%);fill-opacity:1;" d="M 274.082031 83.203125 C 275.703125 84.492188 275.996094 85.78125 275.996094 87.871094 C 275.996094 90.058594 275.664062 91.113281 274.082031 92.441406 L 274.179688 92.617188 C 275.957031 91.523438 276.953125 89.921875 276.953125 87.851562 C 276.953125 85.9375 275.9375 84.0625 274.21875 83.027344 Z M 274.082031 83.203125 "/>
<path style="fill:none;stroke-width:1;stroke-linecap:round;stroke-linejoin:miter;stroke:rgb(0%,0%,0%);stroke-opacity:1;stroke-miterlimit:10;" d="M 60 45 L 74.1 45 " transform="matrix(1.25,0,0,1.25,-36.25,32.5)"/>
<path style="fill:none;stroke-width:1;stroke-linecap:butt;stroke-linejoin:miter;stroke:rgb(0%,0%,0%);stroke-opacity:1;stroke-miterlimit:10;" d="M 78.1 45 L 74.1 45 M 74.1 43.5 L 78.1 45 L 74.1 46.5 " transform="matrix(1.25,0,0,1.25,-36.25,32.5)"/>
<path style="fill:none;stroke-width:1;stroke-linecap:round;stroke-linejoin:miter;stroke:rgb(0%,0%,0%);stroke-opacity:1;stroke-miterlimit:10;" d="M 110 45 L 124.1 45 " transform="matrix(1.25,0,0,1.25,-36.25,32.5)"/>
<path style="fill:none;stroke-width:1;stroke-linecap:butt;stroke-linejoin:miter;stroke:rgb(0%,0%,0%);stroke-opacity:1;stroke-miterlimit:10;" d="M 128.1 45 L 124.1 45 M 124.1 43.5 L 128.1 45 L 124.1 46.5 " transform="matrix(1.25,0,0,1.25,-36.25,32.5)"/>
<path style="fill:none;stroke-width:1;stroke-linecap:round;stroke-linejoin:miter;stroke:rgb(0%,0%,0%);stroke-opacity:1;stroke-miterlimit:10;" d="M 160 45 L 173.1 45 " transform="matrix(1.25,0,0,1.25,-36.25,32.5)"/>
<path style="fill:none;stroke-width:1;stroke-linecap:butt;stroke-linejoin:miter;stroke:rgb(0%,0%,0%);stroke-opacity:1;stroke-miterlimit:10;" d="M 177.1 45 L 173.1 45 M 173.1 43.5 L 177.1 45 L 173.1 46.5 " transform="matrix(1.25,0,0,1.25,-36.25,32.5)"/>
<path style="fill:none;stroke-width:1;stroke-linecap:round;stroke-linejoin:miter;stroke:rgb(0%,0%,0%);stroke-opacity:1;stroke-miterlimit:10;" d="M 209 45 L 222.1 45 " transform="matrix(1.25,0,0,1.25,-36.25,32.5)"/>
<path style="fill:none;stroke-width:1;stroke-linecap:butt;stroke-linejoin:miter;stroke:rgb(0%,0%,0%);stroke-opacity:1;stroke-miterlimit:10;" d="M 226.1 45 L 222.1 45 M 222.1 43.5 L 226.1 45 L 222.1 46.5 " transform="matrix(1.25,0,0,1.25,-36.25,32.5)"/>
<path style="fill:none;stroke-width:1;stroke-linecap:round;stroke-linejoin:miter;stroke:rgb(0%,0%,0%);stroke-opacity:1;stroke-miterlimit:10;" d="M 60 36.9 L 94.96875 18.0125 C 96.846875 17 99.121875 17.059375 100.940625 18.16875 L 124.9625 32.796875 " transform="matrix(1.25,0,0,1.25,-36.25,32.5)"/>
<path style="fill:none;stroke-width:1;stroke-linecap:butt;stroke-linejoin:miter;stroke:rgb(0%,0%,0%);stroke-opacity:1;stroke-miterlimit:10;" d="M 128.378125 34.875 L 124.9625 32.796875 M 125.74375 31.515625 L 128.378125 34.875 L 124.18125 34.078125 " transform="matrix(1.25,0,0,1.25,-36.25,32.5)"/>
<path style="fill:none;stroke-width:1;stroke-linecap:round;stroke-linejoin:miter;stroke:rgb(0%,0%,0%);stroke-opacity:1;stroke-miterlimit:10;" d="M 110 36.9125 L 135.996875 22.9 M 146.3375 20.815625 L 173.7375 34.71875 " transform="matrix(1.25,0,0,1.25,-36.25,32.5)"/>
<path style="fill:none;stroke-width:1;stroke-linecap:butt;stroke-linejoin:miter;stroke:rgb(0%,0%,0%);stroke-opacity:1;stroke-miterlimit:10;" d="M 177.30625 36.53125 L 173.7375 34.71875 M 174.41875 33.38125 L 177.30625 36.53125 L 173.059375 36.059375 " transform="matrix(1.25,0,0,1.25,-36.25,32.5)"/>
<path style="fill:none;stroke-width:1;stroke-linecap:round;stroke-linejoin:miter;stroke:rgb(0%,0%,0%);stroke-opacity:1;stroke-miterlimit:10;" d="M 160 37.1125 L 168.78125 32.496875 M 178.515625 27.375 L 190.5 21.06875 C 192.221875 20.1625 194.28125 20.153125 196.01875 21.034375 L 222.746875 34.66875 " transform="matrix(1.25,0,0,1.25,-36.25,32.5)"/>
<path style="fill:none;stroke-width:1;stroke-linecap:butt;stroke-linejoin:miter;stroke:rgb(0%,0%,0%);stroke-opacity:1;stroke-miterlimit:10;" d="M 226.309375 36.484375 L 222.746875 34.66875 M 223.425 33.33125 L 226.309375 36.484375 L 222.0625 36.003125 " transform="matrix(1.25,0,0,1.25,-36.25,32.5)"/>
<path style="fill:none;stroke-width:1;stroke-linecap:round;stroke-linejoin:miter;stroke:rgb(0%,0%,0%);stroke-opacity:1;stroke-miterlimit:10;" d="M 60 36.640625 L 126.621875 -0.49375 C 128.675 -1.6375 131.215625 -1.471875 133.109375 -0.075 L 147.90625 10.878125 M 156.746875 17.425 L 174.25625 30.3875 " transform="matrix(1.25,0,0,1.25,-36.25,32.5)"/>
<path style="fill:none;stroke-width:1;stroke-linecap:butt;stroke-linejoin:miter;stroke:rgb(0%,0%,0%);stroke-opacity:1;stroke-miterlimit:10;" d="M 177.471875 32.765625 L 174.25625 30.3875 M 175.15 29.18125 L 177.471875 32.765625 L 173.36875 31.59375 " transform="matrix(1.25,0,0,1.25,-36.25,32.5)"/>
<path style="fill:none;stroke-width:1;stroke-linecap:round;stroke-linejoin:miter;stroke:rgb(0%,0%,0%);stroke-opacity:1;stroke-miterlimit:10;" d="M 110 36.93125 L 170.715625 4.25625 C 172.59375 3.246875 174.871875 3.309375 176.690625 4.425 L 222.96875 32.74375 " transform="matrix(1.25,0,0,1.25,-36.25,32.5)"/>
<path style="fill:none;stroke-width:1;stroke-linecap:butt;stroke-linejoin:miter;stroke:rgb(0%,0%,0%);stroke-opacity:1;stroke-miterlimit:10;" d="M 226.378125 34.828125 L 222.96875 32.74375 M 223.75 31.4625 L 226.378125 34.828125 L 222.184375 34.01875 " transform="matrix(1.25,0,0,1.25,-36.25,32.5)"/>
<path style="fill:none;stroke-width:1;stroke-linecap:round;stroke-linejoin:miter;stroke:rgb(0%,0%,0%);stroke-opacity:1;stroke-miterlimit:10;" d="M 60 36.60625 L 152.68125 -15.265625 C 154.70625 -16.403125 157.20625 -16.2625 159.096875 -14.9125 L 223.2 30.859375 " transform="matrix(1.25,0,0,1.25,-36.25,32.5)"/>
<path style="fill:none;stroke-width:1;stroke-linecap:butt;stroke-linejoin:miter;stroke:rgb(0%,0%,0%);stroke-opacity:1;stroke-miterlimit:10;" d="M 226.453125 33.184375 L 223.2 30.859375 M 224.06875 29.640625 L 226.453125 33.184375 L 222.328125 32.08125 " transform="matrix(1.25,0,0,1.25,-36.25,32.5)"/>
<path style=" stroke:none;fill-rule:nonzero;fill:rgb(0%,0%,0%);fill-opacity:1;" d="M 297.308594 89.25 L 297.308594 88.117188 L 298.441406 88.117188 L 298.441406 89.25 Z M 301.058594 89.25 L 301.058594 88.117188 L 302.191406 88.117188 L 302.191406 89.25 Z M 304.808594 89.25 L 304.808594 88.117188 L 305.941406 88.117188 L 305.941406 89.25 Z M 304.808594 89.25 "/>
</g>
</svg>
