<?xml version="1.0" encoding="UTF-8"?>
<svg xmlns="http://www.w3.org/2000/svg" xmlns:xlink="http://www.w3.org/1999/xlink" width="221pt" height="115pt" viewBox="0 0 221 115" version="1.1">
<g id="surface1">
<path style="fill:none;stroke-width:1;stroke-linecap:round;stroke-linejoin:round;stroke:rgb(0%,0%,0%);stroke-opacity:1;stroke-miterlimit:10;" d="M 103.5 184.5 L 166.5 184.5 L 166.5 202.5 L 103.5 202.5 Z M 103.5 184.5 " transform="matrix(1.25,0,0,1.25,-128.75,-190)"/>
<path style=" stroke:none;fill-rule:nonzero;fill:rgb(0%,0%,0%);fill-opacity:1;" d="M 37.070312 55.441406 L 37.070312 47.394531 L 40.097656 47.394531 C 40.707031 47.394531 41.195312 47.480469 41.5625 47.648438 C 41.9375 47.804688 42.230469 48.054688 42.441406 48.390625 C 42.660156 48.730469 42.773438 49.082031 42.773438 49.445312 C 42.773438 49.796875 42.675781 50.125 42.480469 50.421875 C 42.292969 50.722656 42.015625 50.96875 41.640625 51.164062 C 42.117188 51.308594 42.488281 51.550781 42.753906 51.886719 C 43.027344 52.226562 43.164062 52.628906 43.164062 53.097656 C 43.164062 53.476562 43.074219 53.828125 42.910156 54.152344 C 42.753906 54.480469 42.558594 54.734375 42.324219 54.914062 C 42.089844 55.085938 41.796875 55.214844 41.445312 55.304688 C 41.09375 55.398438 40.652344 55.441406 40.136719 55.441406 Z M 38.144531 50.773438 L 39.882812 50.773438 C 40.351562 50.773438 40.6875 50.742188 40.898438 50.675781 C 41.171875 50.597656 41.371094 50.46875 41.503906 50.285156 C 41.644531 50.089844 41.71875 49.855469 41.71875 49.582031 C 41.71875 49.308594 41.648438 49.074219 41.523438 48.878906 C 41.390625 48.671875 41.210938 48.527344 40.976562 48.449219 C 40.742188 48.371094 40.332031 48.332031 39.746094 48.332031 L 38.144531 48.332031 Z M 38.144531 54.484375 L 40.136719 54.484375 C 40.488281 54.484375 40.730469 54.472656 40.878906 54.445312 C 41.113281 54.40625 41.3125 54.335938 41.484375 54.230469 C 41.648438 54.128906 41.785156 53.976562 41.894531 53.78125 C 41.996094 53.585938 42.050781 53.359375 42.050781 53.097656 C 42.050781 52.800781 41.972656 52.539062 41.816406 52.316406 C 41.660156 52.097656 41.445312 51.945312 41.171875 51.867188 C 40.898438 51.777344 40.507812 51.730469 40 51.730469 L 38.144531 51.730469 Z M 38.144531 54.484375 "/>
<path style="fill-rule:nonzero;fill:rgb(69.803922%,85.098039%,100%);fill-opacity:1;stroke-width:1;stroke-linecap:round;stroke-linejoin:round;stroke:rgb(0%,0%,0%);stroke-opacity:1;stroke-miterlimit:10;" d="M 103.5 225 L 166.5 225 L 166.5 243 L 103.5 243 Z M 103.5 225 " transform="matrix(1.25,0,0,1.25,-128.75,-190)"/>
<path style=" stroke:none;fill-rule:nonzero;fill:rgb(0%,0%,0%);fill-opacity:1;" d="M 36.230469 106.066406 L 39.335938 98.019531 L 40.46875 98.019531 L 43.769531 106.066406 L 42.558594 106.066406 L 41.621094 103.625 L 38.242188 103.625 L 37.363281 106.066406 Z M 38.554688 102.765625 L 41.289062 102.765625 L 40.449219 100.519531 C 40.183594 99.84375 40 99.289062 39.882812 98.859375 C 39.773438 99.382812 39.628906 99.894531 39.433594 100.402344 Z M 38.554688 102.765625 "/>
<path style="fill-rule:nonzero;fill:rgb(40%,74.901961%,100%);fill-opacity:1;stroke-width:1;stroke-linecap:round;stroke-linejoin:round;stroke:rgb(0%,0%,0%);stroke-opacity:1;stroke-miterlimit:10;" d="M 140.075 154.975 C 142.7125 157.6125 142.7125 161.8875 140.075 164.525 C 137.4375 167.159375 133.1625 167.159375 130.528125 164.525 C 127.89375 161.8875 127.89375 157.6125 130.528125 154.975 C 133.1625 152.340625 137.4375 152.340625 140.075 154.975 " transform="matrix(1.25,0,0,1.25,-128.75,-190)"/>
<path style=" stroke:none;fill-rule:nonzero;fill:rgb(0%,0%,0%);fill-opacity:1;" d="M 39.90625 11.945312 L 39.90625 9.738281 L 37.71875 9.738281 L 37.71875 8.820312 L 39.90625 8.820312 L 39.90625 6.632812 L 40.84375 6.632812 L 40.84375 8.820312 L 43.03125 8.820312 L 43.03125 9.738281 L 40.84375 9.738281 L 40.84375 11.945312 Z M 39.90625 11.945312 "/>
<path style="fill:none;stroke-width:1;stroke-linecap:round;stroke-linejoin:round;stroke:rgb(0%,0%,0%);stroke-opacity:1;stroke-miterlimit:10;" d="M 135 225 L 135 208.4 " transform="matrix(1.25,0,0,1.25,-128.75,-190)"/>
<path style="fill:none;stroke-width:1;stroke-linecap:butt;stroke-linejoin:miter;stroke:rgb(0%,0%,0%);stroke-opacity:1;stroke-miterlimit:10;" d="M 135 204.4 L 135 208.4 M 133.5 208.4 L 135 204.4 L 136.5 208.4 " transform="matrix(1.25,0,0,1.25,-128.75,-190)"/>
<path style="fill:none;stroke-width:1;stroke-linecap:round;stroke-linejoin:round;stroke:rgb(0%,0%,0%);stroke-opacity:1;stroke-miterlimit:10;" d="M 135.08125 184.5 L 135.1875 172.4 " transform="matrix(1.25,0,0,1.25,-128.75,-190)"/>
<path style="fill:none;stroke-width:1;stroke-linecap:butt;stroke-linejoin:miter;stroke:rgb(0%,0%,0%);stroke-opacity:1;stroke-miterlimit:10;" d="M 135.221875 168.4 L 135.1875 172.4 M 133.6875 172.3875 L 135.221875 168.4 L 136.6875 172.4125 " transform="matrix(1.25,0,0,1.25,-128.75,-190)"/>
<path style="fill:none;stroke-width:1;stroke-linecap:round;stroke-linejoin:round;stroke:rgb(0%,0%,0%);stroke-opacity:1;stroke-miterlimit:10;" d="M 135 217.08125 L 172.5 217.08125 C 174.15625 217.08125 175.5 215.7375 175.5 214.08125 L 175.5 162.75 C 175.5 161.09375 174.15625 159.75 172.5 159.75 L 147.953125 159.75 " transform="matrix(1.25,0,0,1.25,-128.75,-190)"/>
<path style="fill:none;stroke-width:1;stroke-linecap:butt;stroke-linejoin:miter;stroke:rgb(0%,0%,0%);stroke-opacity:1;stroke-miterlimit:10;" d="M 143.953125 159.75 L 147.953125 159.75 M 147.953125 161.25 L 143.953125 159.75 L 147.953125 158.25 " transform="matrix(1.25,0,0,1.25,-128.75,-190)"/>
<path style="fill:none;stroke-width:1;stroke-linecap:round;stroke-linejoin:round;stroke:rgb(0%,0%,0%);stroke-opacity:1;stroke-miterlimit:10;" d="M 207 184.5 L 270 184.5 L 270 202.5 L 207 202.5 Z M 207 184.5 " transform="matrix(1.25,0,0,1.25,-128.75,-190)"/>
<path style=" stroke:none;fill-rule:nonzero;fill:rgb(0%,0%,0%);fill-opacity:1;" d="M 166.445312 55.441406 L 166.445312 47.394531 L 169.472656 47.394531 C 170.082031 47.394531 170.570312 47.480469 170.9375 47.648438 C 171.3125 47.804688 171.605469 48.054688 171.816406 48.390625 C 172.035156 48.730469 172.148438 49.082031 172.148438 49.445312 C 172.148438 49.796875 172.050781 50.125 171.855469 50.421875 C 171.667969 50.722656 171.390625 50.96875 171.015625 51.164062 C 171.492188 51.308594 171.863281 51.550781 172.128906 51.886719 C 172.402344 52.226562 172.539062 52.628906 172.539062 53.097656 C 172.539062 53.476562 172.449219 53.828125 172.285156 54.152344 C 172.128906 54.480469 171.933594 54.734375 171.699219 54.914062 C 171.464844 55.085938 171.171875 55.214844 170.820312 55.304688 C 170.46875 55.398438 170.027344 55.441406 169.511719 55.441406 Z M 167.519531 50.773438 L 169.257812 50.773438 C 169.726562 50.773438 170.0625 50.742188 170.273438 50.675781 C 170.546875 50.597656 170.746094 50.46875 170.878906 50.285156 C 171.019531 50.089844 171.09375 49.855469 171.09375 49.582031 C 171.09375 49.308594 171.023438 49.074219 170.898438 48.878906 C 170.765625 48.671875 170.585938 48.527344 170.351562 48.449219 C 170.117188 48.371094 169.707031 48.332031 169.121094 48.332031 L 167.519531 48.332031 Z M 167.519531 54.484375 L 169.511719 54.484375 C 169.863281 54.484375 170.105469 54.472656 170.253906 54.445312 C 170.488281 54.40625 170.6875 54.335938 170.859375 54.230469 C 171.023438 54.128906 171.160156 53.976562 171.269531 53.78125 C 171.371094 53.585938 171.425781 53.359375 171.425781 53.097656 C 171.425781 52.800781 171.347656 52.539062 171.191406 52.316406 C 171.035156 52.097656 170.820312 51.945312 170.546875 51.867188 C 170.273438 51.777344 169.882812 51.730469 169.375 51.730469 L 167.519531 51.730469 Z M 167.519531 54.484375 "/>
<path style="fill-rule:nonzero;fill:rgb(69.803922%,85.098039%,100%);fill-opacity:1;stroke-width:1;stroke-linecap:round;stroke-linejoin:round;stroke:rgb(0%,0%,0%);stroke-opacity:1;stroke-miterlimit:10;" d="M 207 225 L 270 225 L 270 243 L 207 243 Z M 207 225 " transform="matrix(1.25,0,0,1.25,-128.75,-190)"/>
<path style=" stroke:none;fill-rule:nonzero;fill:rgb(0%,0%,0%);fill-opacity:1;" d="M 165.605469 106.066406 L 168.710938 98.019531 L 169.84375 98.019531 L 173.144531 106.066406 L 171.933594 106.066406 L 170.996094 103.625 L 167.617188 103.625 L 166.738281 106.066406 Z M 167.929688 102.765625 L 170.664062 102.765625 L 169.824219 100.519531 C 169.558594 99.84375 169.375 99.289062 169.257812 98.859375 C 169.148438 99.382812 169.003906 99.894531 168.808594 100.402344 Z M 167.929688 102.765625 "/>
<path style="fill-rule:nonzero;fill:rgb(40%,74.901961%,100%);fill-opacity:1;stroke-width:1;stroke-linecap:round;stroke-linejoin:round;stroke:rgb(0%,0%,0%);stroke-opacity:1;stroke-miterlimit:10;" d="M 230.70625 153 L 248.24375 153 C 250.315625 153 252 156.025 252 159.75 C 252 163.475 250.315625 166.5 248.24375 166.5 L 230.70625 166.5 C 228.63125 166.5 226.95 163.475 226.95 159.75 C 226.95 156.025 228.63125 153 230.70625 153 Z M 230.70625 153 " transform="matrix(1.25,0,0,1.25,-128.75,-190)"/>
<path style=" stroke:none;fill-rule:nonzero;fill:rgb(0%,0%,0%);fill-opacity:1;" d="M 163.539062 15.480469 L 163.539062 5.207031 L 165.726562 5.207031 L 165.726562 6.027344 L 164.535156 6.027344 L 164.535156 14.679688 L 165.726562 14.679688 L 165.726562 15.480469 Z M 163.539062 15.480469 "/>
<path style=" stroke:none;fill-rule:nonzero;fill:rgb(0%,0%,0%);fill-opacity:1;" d="M 170.023438 13.253906 L 170.023438 12.121094 L 171.15625 12.121094 L 171.15625 13.253906 C 171.15625 13.667969 171.078125 14 170.921875 14.25 C 170.777344 14.507812 170.550781 14.707031 170.238281 14.855469 L 169.964844 14.425781 C 170.171875 14.332031 170.324219 14.195312 170.414062 14.015625 C 170.519531 13.84375 170.578125 13.589844 170.589844 13.253906 Z M 170.023438 13.253906 "/>
<path style=" stroke:none;fill-rule:nonzero;fill:rgb(0%,0%,0%);fill-opacity:1;" d="M 177.683594 15.480469 L 175.496094 15.480469 L 175.496094 14.679688 L 176.6875 14.679688 L 176.6875 6.027344 L 175.496094 6.027344 L 175.496094 5.207031 L 177.683594 5.207031 Z M 177.683594 15.480469 "/>
<path style="fill:none;stroke-width:1;stroke-linecap:round;stroke-linejoin:round;stroke:rgb(0%,0%,0%);stroke-opacity:1;stroke-miterlimit:10;" d="M 238.5 225 L 238.5 208.4 " transform="matrix(1.25,0,0,1.25,-128.75,-190)"/>
<path style="fill:none;stroke-width:1;stroke-linecap:butt;stroke-linejoin:miter;stroke:rgb(0%,0%,0%);stroke-opacity:1;stroke-miterlimit:10;" d="M 238.5 204.4 L 238.5 208.4 M 237 208.4 L 238.5 204.4 L 240 208.4 " transform="matrix(1.25,0,0,1.25,-128.75,-190)"/>
<path style="fill:none;stroke-width:1;stroke-linecap:round;stroke-linejoin:round;stroke:rgb(0%,0%,0%);stroke-opacity:1;stroke-miterlimit:10;" d="M 238.75625 184.5 L 239.109375 172.4 " transform="matrix(1.25,0,0,1.25,-128.75,-190)"/>
<path style="fill:none;stroke-width:1;stroke-linecap:butt;stroke-linejoin:miter;stroke:rgb(0%,0%,0%);stroke-opacity:1;stroke-miterlimit:10;" d="M 239.221875 168.4 L 239.109375 172.4 M 237.609375 172.35625 L 239.221875 168.4 L 240.609375 172.440625 " transform="matrix(1.25,0,0,1.25,-128.75,-190)"/>
<path style="fill:none;stroke-width:1;stroke-linecap:round;stroke-linejoin:round;stroke:rgb(0%,0%,0%);stroke-opacity:1;stroke-miterlimit:10;" d="M 238.5 216.66875 L 276 216.66875 C 277.65625 216.66875 279 215.325 279 213.66875 L 279 162.75 C 279 161.09375 277.65625 159.75 276 159.75 L 257.9 159.75 " transform="matrix(1.25,0,0,1.25,-128.75,-190)"/>
<path style="fill:none;stroke-width:1;stroke-linecap:butt;stroke-linejoin:miter;stroke:rgb(0%,0%,0%);stroke-opacity:1;stroke-miterlimit:10;" d="M 253.9 159.75 L 257.9 159.75 M 257.9 161.25 L 253.9 159.75 L 257.9 158.25 " transform="matrix(1.25,0,0,1.25,-128.75,-190)"/>
</g>
</svg>
