<?xml version="1.0" encoding="UTF-8"?>
<svg xmlns="http://www.w3.org/2000/svg" xmlns:xlink="http://www.w3.org/1999/xlink" width="488pt" height="249pt" viewBox="0 0 488 249" version="1.1">
<g id="surface1">
<path style="fill-rule:nonzero;fill:rgb(40%,74.901961%,100%);fill-opacity:1;stroke-width:1;stroke-linecap:round;stroke-linejoin:round;stroke:rgb(0%,0%,0%);stroke-opacity:1;stroke-miterlimit:10;" d="M 75.3125 116.1875 C 81.5625 122.434375 81.5625 132.565625 75.3125 138.8125 C 69.065625 145.0625 58.934375 145.0625 52.6875 138.8125 C 46.4375 132.565625 46.4375 122.434375 52.6875 116.1875 C 58.934375 109.9375 69.065625 109.9375 75.3125 116.1875 " transform="matrix(1.25,0,0,1.25,-30,2.5)"/>
<path style="fill-rule:nonzero;fill:rgb(40%,74.901961%,100%);fill-opacity:1;stroke-width:1;stroke-linecap:round;stroke-linejoin:round;stroke:rgb(0%,0%,0%);stroke-opacity:1;stroke-miterlimit:10;" d="M 181.8125 116.1875 C 188.0625 122.434375 188.0625 132.565625 181.8125 138.8125 C 175.565625 145.0625 165.434375 145.0625 159.1875 138.8125 C 152.9375 132.565625 152.9375 122.434375 159.1875 116.1875 C 165.434375 109.9375 175.565625 109.9375 181.8125 116.1875 " transform="matrix(1.25,0,0,1.25,-30,2.5)"/>
<path style="fill-rule:nonzero;fill:rgb(40%,74.901961%,100%);fill-opacity:1;stroke-width:1;stroke-linecap:round;stroke-linejoin:round;stroke:rgb(0%,0%,0%);stroke-opacity:1;stroke-miterlimit:10;" d="M 128.8125 72.1875 C 135.0625 78.434375 135.0625 88.565625 128.8125 94.8125 C 122.565625 101.0625 112.434375 101.0625 106.1875 94.8125 C 99.9375 88.565625 99.9375 78.434375 106.1875 72.1875 C 112.434375 65.9375 122.565625 65.9375 128.8125 72.1875 " transform="matrix(1.25,0,0,1.25,-30,2.5)"/>
<path style="fill-rule:nonzero;fill:rgb(69.803922%,85.098039%,100%);fill-opacity:1;stroke-width:1;stroke-linecap:round;stroke-linejoin:round;stroke:rgb(0%,0%,0%);stroke-opacity:1;stroke-miterlimit:10;" d="M 159.3125 168.6875 C 165.5625 174.934375 165.5625 185.065625 159.3125 191.3125 C 153.065625 197.5625 142.934375 197.5625 136.6875 191.3125 C 130.4375 185.065625 130.4375 174.934375 136.6875 168.6875 C 142.934375 162.4375 153.065625 162.4375 159.3125 168.6875 " transform="matrix(1.25,0,0,1.25,-30,2.5)"/>
<path style=" stroke:none;fill-rule:nonzero;fill:rgb(0%,0%,0%);fill-opacity:1;" d="M 149.988281 229.855469 L 149.382812 224.015625 L 150.339844 224.015625 L 150.59375 226.632812 L 150.710938 228.117188 C 150.710938 228.226562 150.714844 228.445312 150.730469 228.78125 C 150.847656 228.40625 150.9375 228.117188 151.003906 227.921875 C 151.082031 227.726562 151.203125 227.445312 151.375 227.0625 L 152.78125 224.015625 L 153.855469 224.015625 L 154.050781 226.945312 C 154.074219 227.390625 154.09375 227.976562 154.109375 228.703125 C 154.289062 228.226562 154.582031 227.546875 154.988281 226.671875 L 156.257812 224.015625 L 157.234375 224.015625 L 154.402344 229.855469 L 153.367188 229.855469 L 153.132812 226.4375 C 153.117188 226.21875 153.113281 225.804688 153.113281 225.1875 C 152.957031 225.578125 152.773438 226.003906 152.566406 226.457031 L 151.023438 229.855469 Z M 149.988281 229.855469 "/>
<path style=" stroke:none;fill-rule:nonzero;fill:rgb(0%,0%,0%);fill-opacity:1;" d="M 157.117188 231.964844 L 157.859375 231.867188 C 157.910156 232.3125 158.035156 232.628906 158.230469 232.824219 C 158.425781 233.011719 158.683594 233.097656 159.011719 233.097656 C 159.386719 233.097656 159.714844 232.960938 159.988281 232.6875 C 160.273438 232.414062 160.417969 232.101562 160.417969 231.75 C 160.417969 231.4375 160.3125 231.183594 160.105469 230.988281 C 159.894531 230.785156 159.617188 230.675781 159.265625 230.675781 C 159.226562 230.675781 159.140625 230.6875 159.011719 230.695312 L 159.148438 230.050781 C 159.226562 230.066406 159.296875 230.070312 159.363281 230.070312 C 159.804688 230.070312 160.144531 229.96875 160.378906 229.757812 C 160.613281 229.539062 160.730469 229.269531 160.730469 228.957031 C 160.730469 228.675781 160.632812 228.429688 160.4375 228.234375 C 160.242188 228.039062 160.007812 227.941406 159.734375 227.941406 C 159.445312 227.941406 159.191406 228.050781 158.972656 228.253906 C 158.75 228.449219 158.613281 228.734375 158.5625 229.09375 L 157.800781 228.9375 C 157.917969 228.421875 158.152344 228.019531 158.503906 227.746094 C 158.867188 227.464844 159.289062 227.316406 159.773438 227.316406 C 160.292969 227.316406 160.710938 227.472656 161.023438 227.785156 C 161.347656 228.097656 161.511719 228.480469 161.511719 228.917969 C 161.511719 229.261719 161.417969 229.554688 161.238281 229.796875 C 161.066406 230.046875 160.8125 230.246094 160.476562 230.402344 C 160.710938 230.550781 160.886719 230.726562 161.003906 230.929688 C 161.132812 231.140625 161.199219 231.375 161.199219 231.632812 C 161.199219 232.195312 160.988281 232.683594 160.574219 233.097656 C 160.15625 233.503906 159.65625 233.703125 159.070312 233.703125 C 158.496094 233.703125 158.035156 233.546875 157.683594 233.234375 C 157.34375 232.921875 157.15625 232.503906 157.117188 231.964844 Z M 157.117188 231.964844 "/>
<path style="fill-rule:nonzero;fill:rgb(69.803922%,85.098039%,100%);fill-opacity:1;stroke-width:1;stroke-linecap:round;stroke-linejoin:round;stroke:rgb(0%,0%,0%);stroke-opacity:1;stroke-miterlimit:10;" d="M 52.3125 168.6875 C 58.5625 174.934375 58.5625 185.065625 52.3125 191.3125 C 46.065625 197.5625 35.934375 197.5625 29.6875 191.3125 C 23.4375 185.065625 23.4375 174.934375 29.6875 168.6875 C 35.934375 162.4375 46.065625 162.4375 52.3125 168.6875 " transform="matrix(1.25,0,0,1.25,-30,2.5)"/>
<path style=" stroke:none;fill-rule:nonzero;fill:rgb(0%,0%,0%);fill-opacity:1;" d="M 16.238281 229.855469 L 15.632812 224.015625 L 16.589844 224.015625 L 16.84375 226.632812 L 16.960938 228.117188 C 16.960938 228.226562 16.964844 228.445312 16.980469 228.78125 C 17.097656 228.40625 17.1875 228.117188 17.253906 227.921875 C 17.332031 227.726562 17.453125 227.445312 17.625 227.0625 L 19.03125 224.015625 L 20.105469 224.015625 L 20.300781 226.945312 C 20.324219 227.390625 20.34375 227.976562 20.359375 228.703125 C 20.539062 228.226562 20.832031 227.546875 21.238281 226.671875 L 22.507812 224.015625 L 23.484375 224.015625 L 20.652344 229.855469 L 19.617188 229.855469 L 19.382812 226.4375 C 19.367188 226.21875 19.363281 225.804688 19.363281 225.1875 C 19.207031 225.578125 19.023438 226.003906 18.816406 226.457031 L 17.273438 229.855469 Z M 16.238281 229.855469 "/>
<path style=" stroke:none;fill-rule:nonzero;fill:rgb(0%,0%,0%);fill-opacity:1;" d="M 24.988281 233.605469 L 25.984375 228.878906 C 25.554688 229.222656 24.949219 229.484375 24.167969 229.679688 L 24.324219 228.976562 C 24.699219 228.820312 25.078125 228.621094 25.457031 228.371094 C 25.832031 228.128906 26.113281 227.914062 26.296875 227.726562 C 26.414062 227.609375 26.523438 227.472656 26.628906 227.316406 L 27.078125 227.316406 L 25.769531 233.605469 Z M 24.988281 233.605469 "/>
<path style="fill-rule:nonzero;fill:rgb(69.803922%,85.098039%,100%);fill-opacity:1;stroke-width:1;stroke-linecap:round;stroke-linejoin:round;stroke:rgb(0%,0%,0%);stroke-opacity:1;stroke-miterlimit:10;" d="M 97.8125 168.6875 C 104.0625 174.934375 104.0625 185.065625 97.8125 191.3125 C 91.565625 197.5625 81.434375 197.5625 75.1875 191.3125 C 68.9375 185.065625 68.9375 174.934375 75.1875 168.6875 C 81.434375 162.4375 91.565625 162.4375 97.8125 168.6875 " transform="matrix(1.25,0,0,1.25,-30,2.5)"/>
<path style=" stroke:none;fill-rule:nonzero;fill:rgb(0%,0%,0%);fill-opacity:1;" d="M 73.113281 229.855469 L 72.507812 224.015625 L 73.464844 224.015625 L 73.71875 226.632812 L 73.835938 228.117188 C 73.835938 228.226562 73.839844 228.445312 73.855469 228.78125 C 73.972656 228.40625 74.0625 228.117188 74.128906 227.921875 C 74.207031 227.726562 74.328125 227.445312 74.5 227.0625 L 75.90625 224.015625 L 76.980469 224.015625 L 77.175781 226.945312 C 77.199219 227.390625 77.21875 227.976562 77.234375 228.703125 C 77.414062 228.226562 77.707031 227.546875 78.113281 226.671875 L 79.382812 224.015625 L 80.359375 224.015625 L 77.527344 229.855469 L 76.492188 229.855469 L 76.257812 226.4375 C 76.242188 226.21875 76.238281 225.804688 76.238281 225.1875 C 76.082031 225.578125 75.898438 226.003906 75.691406 226.457031 L 74.148438 229.855469 Z M 73.113281 229.855469 "/>
<path style=" stroke:none;fill-rule:nonzero;fill:rgb(0%,0%,0%);fill-opacity:1;" d="M 80.261719 233.605469 C 80.339844 233.230469 80.449219 232.917969 80.59375 232.667969 C 80.734375 232.425781 80.925781 232.191406 81.160156 231.964844 C 81.394531 231.730469 81.84375 231.351562 82.507812 230.8125 C 82.910156 230.492188 83.191406 230.246094 83.347656 230.089844 C 83.554688 229.871094 83.703125 229.65625 83.796875 229.445312 C 83.859375 229.304688 83.894531 229.148438 83.894531 228.976562 C 83.894531 228.695312 83.789062 228.449219 83.582031 228.253906 C 83.386719 228.050781 83.136719 227.941406 82.839844 227.941406 C 82.550781 227.941406 82.296875 228.050781 82.078125 228.253906 C 81.855469 228.449219 81.699219 228.777344 81.609375 229.230469 L 80.847656 229.113281 C 80.925781 228.558594 81.140625 228.117188 81.492188 227.804688 C 81.855469 227.484375 82.304688 227.316406 82.839844 227.316406 C 83.191406 227.316406 83.507812 227.394531 83.796875 227.550781 C 84.082031 227.699219 84.296875 227.902344 84.441406 228.175781 C 84.597656 228.441406 84.675781 228.714844 84.675781 228.996094 C 84.675781 229.417969 84.523438 229.8125 84.226562 230.1875 C 84.042969 230.4375 83.507812 230.910156 82.625 231.613281 C 82.234375 231.917969 81.945312 232.160156 81.765625 232.355469 C 81.582031 232.550781 81.445312 232.738281 81.355469 232.902344 L 84.148438 232.902344 L 83.992188 233.605469 Z M 80.261719 233.605469 "/>
<path style="fill-rule:nonzero;fill:rgb(69.803922%,85.098039%,100%);fill-opacity:1;stroke-width:1;stroke-linecap:round;stroke-linejoin:round;stroke:rgb(0%,0%,0%);stroke-opacity:1;stroke-miterlimit:10;" d="M 205.3125 168.6875 C 211.5625 174.934375 211.5625 185.065625 205.3125 191.3125 C 199.065625 197.5625 188.934375 197.5625 182.6875 191.3125 C 176.4375 185.065625 176.4375 174.934375 182.6875 168.6875 C 188.934375 162.4375 199.065625 162.4375 205.3125 168.6875 " transform="matrix(1.25,0,0,1.25,-30,2.5)"/>
<path style=" stroke:none;fill-rule:nonzero;fill:rgb(0%,0%,0%);fill-opacity:1;" d="M 207.488281 229.855469 L 206.882812 224.015625 L 207.839844 224.015625 L 208.09375 226.632812 L 208.210938 228.117188 C 208.210938 228.226562 208.214844 228.445312 208.230469 228.78125 C 208.347656 228.40625 208.4375 228.117188 208.503906 227.921875 C 208.582031 227.726562 208.703125 227.445312 208.875 227.0625 L 210.28125 224.015625 L 211.355469 224.015625 L 211.550781 226.945312 C 211.574219 227.390625 211.59375 227.976562 211.609375 228.703125 C 211.789062 228.226562 212.082031 227.546875 212.488281 226.671875 L 213.757812 224.015625 L 214.734375 224.015625 L 211.902344 229.855469 L 210.867188 229.855469 L 210.632812 226.4375 C 210.617188 226.21875 210.613281 225.804688 210.613281 225.1875 C 210.457031 225.578125 210.273438 226.003906 210.066406 226.457031 L 208.523438 229.855469 Z M 207.488281 229.855469 "/>
<path style=" stroke:none;fill-rule:nonzero;fill:rgb(0%,0%,0%);fill-opacity:1;" d="M 216.746094 233.605469 L 217.078125 232.003906 L 214.519531 232.003906 L 214.695312 231.242188 L 218.191406 227.335938 L 218.835938 227.335938 L 217.996094 231.320312 L 218.875 231.320312 L 218.738281 232.003906 L 217.859375 232.003906 L 217.507812 233.605469 Z M 217.214844 231.320312 L 217.761719 228.703125 L 215.4375 231.320312 Z M 217.214844 231.320312 "/>
<path style="fill-rule:nonzero;fill:rgb(69.803922%,85.098039%,100%);fill-opacity:1;stroke-width:1;stroke-linecap:round;stroke-linejoin:round;stroke:rgb(0%,0%,0%);stroke-opacity:1;stroke-miterlimit:10;" d="M 408.8125 168.6875 C 415.0625 174.934375 415.0625 185.065625 408.8125 191.3125 C 402.565625 197.5625 392.434375 197.5625 386.1875 191.3125 C 379.9375 185.065625 379.9375 174.934375 386.1875 168.6875 C 392.434375 162.4375 402.565625 162.4375 408.8125 168.6875 " transform="matrix(1.25,0,0,1.25,-30,2.5)"/>
<path style=" stroke:none;fill-rule:nonzero;fill:rgb(0%,0%,0%);fill-opacity:1;" d="M 459.105469 229.855469 L 458.5 224.015625 L 459.457031 224.015625 L 459.710938 226.632812 L 459.828125 228.117188 C 459.828125 228.226562 459.832031 228.445312 459.847656 228.78125 C 459.964844 228.40625 460.054688 228.117188 460.121094 227.921875 C 460.199219 227.726562 460.320312 227.445312 460.492188 227.0625 L 461.898438 224.015625 L 462.972656 224.015625 L 463.167969 226.945312 C 463.191406 227.390625 463.210938 227.976562 463.226562 228.703125 C 463.40625 228.226562 463.699219 227.546875 464.105469 226.671875 L 465.375 224.015625 L 466.351562 224.015625 L 463.519531 229.855469 L 462.484375 229.855469 L 462.25 226.4375 C 462.234375 226.21875 462.230469 225.804688 462.230469 225.1875 C 462.074219 225.578125 461.890625 226.003906 461.683594 226.457031 L 460.140625 229.855469 Z M 459.105469 229.855469 "/>
<path style=" stroke:none;fill-rule:nonzero;fill:rgb(0%,0%,0%);fill-opacity:1;" d="M 466.546875 235.441406 L 466.546875 227.238281 L 467.210938 227.238281 L 467.210938 235.441406 Z M 466.546875 235.441406 "/>
<path style=" stroke:none;fill-rule:nonzero;fill:rgb(0%,0%,0%);fill-opacity:1;" d="M 470.304688 233.605469 L 469.113281 227.335938 L 469.914062 227.335938 L 470.636719 231.066406 C 470.761719 231.761719 470.851562 232.308594 470.890625 232.707031 C 471.164062 232.175781 471.378906 231.75 471.535156 231.4375 L 473.78125 227.335938 L 474.640625 227.335938 L 471.203125 233.605469 Z M 470.304688 233.605469 "/>
<path style=" stroke:none;fill-rule:nonzero;fill:rgb(0%,0%,0%);fill-opacity:1;" d="M 474.65625 235.441406 L 474.65625 227.238281 L 475.320312 227.238281 L 475.320312 235.441406 Z M 474.65625 235.441406 "/>
<path style="fill-rule:nonzero;fill:rgb(40%,74.901961%,100%);fill-opacity:1;stroke-width:1;stroke-linecap:round;stroke-linejoin:round;stroke:rgb(0%,0%,0%);stroke-opacity:1;stroke-miterlimit:10;" d="M 233.8125 21.6875 C 240.0625 27.934375 240.0625 38.065625 233.8125 44.3125 C 227.565625 50.5625 217.434375 50.5625 211.1875 44.3125 C 204.9375 38.065625 204.9375 27.934375 211.1875 21.6875 C 217.434375 15.4375 227.565625 15.4375 233.8125 21.6875 " transform="matrix(1.25,0,0,1.25,-30,2.5)"/>
<path style="fill-rule:nonzero;fill:rgb(40%,74.901961%,100%);fill-opacity:1;stroke-width:1;stroke-linecap:round;stroke-linejoin:round;stroke:rgb(0%,0%,0%);stroke-opacity:1;stroke-miterlimit:10;" d="M 384.8125 116.1875 C 391.0625 122.434375 391.0625 132.565625 384.8125 138.8125 C 378.565625 145.0625 368.434375 145.0625 362.1875 138.8125 C 355.9375 132.565625 355.9375 122.434375 362.1875 116.1875 C 368.434375 109.9375 378.565625 109.9375 384.8125 116.1875 " transform="matrix(1.25,0,0,1.25,-30,2.5)"/>
<path style="fill-rule:nonzero;fill:rgb(40%,74.901961%,100%);fill-opacity:1;stroke-width:1;stroke-linecap:round;stroke-linejoin:round;stroke:rgb(0%,0%,0%);stroke-opacity:1;stroke-miterlimit:10;" d="M 331.8125 72.1875 C 338.0625 78.434375 338.0625 88.565625 331.8125 94.8125 C 325.565625 101.0625 315.434375 101.0625 309.1875 94.8125 C 302.9375 88.565625 302.9375 78.434375 309.1875 72.1875 C 315.434375 65.9375 325.565625 65.9375 331.8125 72.1875 " transform="matrix(1.25,0,0,1.25,-30,2.5)"/>
<path style="fill:none;stroke-width:2;stroke-linecap:round;stroke-linejoin:round;stroke:rgb(0%,0%,0%);stroke-opacity:1;stroke-miterlimit:10;" d="M 131.921875 76.5625 L 208.078125 39.9375 " transform="matrix(1.25,0,0,1.25,-30,2.5)"/>
<path style="fill:none;stroke-width:2;stroke-linecap:round;stroke-linejoin:round;stroke:rgb(0%,0%,0%);stroke-opacity:1;stroke-miterlimit:10;" d="M 129.8125 93.721875 L 158.1875 117.28125 " transform="matrix(1.25,0,0,1.25,-30,2.5)"/>
<path style="fill:none;stroke-width:2;stroke-linecap:round;stroke-linejoin:round;stroke:rgb(0%,0%,0%);stroke-opacity:1;stroke-miterlimit:10;" d="M 164.19375 142.2125 L 154.30625 165.2875 " transform="matrix(1.25,0,0,1.25,-30,2.5)"/>
<path style="fill:none;stroke-width:1;stroke-linecap:round;stroke-linejoin:round;stroke:rgb(0%,0%,0%);stroke-opacity:1;stroke-miterlimit:10;" d="M 236.725 40.33125 L 306.275 76.16875 " transform="matrix(1.25,0,0,1.25,-30,2.5)"/>
<path style="fill:none;stroke-width:1;stroke-linecap:round;stroke-linejoin:round;stroke:rgb(0%,0%,0%);stroke-opacity:1;stroke-miterlimit:10;" d="M 332.8125 93.721875 L 361.1875 117.28125 " transform="matrix(1.25,0,0,1.25,-30,2.5)"/>
<path style="fill:none;stroke-width:1;stroke-linecap:round;stroke-linejoin:round;stroke:rgb(0%,0%,0%);stroke-opacity:1;stroke-miterlimit:10;" d="M 380.153125 142.05625 L 390.846875 165.44375 " transform="matrix(1.25,0,0,1.25,-30,2.5)"/>
<path style="fill:none;stroke-width:1;stroke-linecap:round;stroke-linejoin:round;stroke:rgb(0%,0%,0%);stroke-opacity:1;stroke-miterlimit:10;" d="M 105.140625 93.6625 L 76.359375 117.3375 " transform="matrix(1.25,0,0,1.25,-30,2.5)"/>
<path style="fill:none;stroke-width:1;stroke-linecap:round;stroke-linejoin:round;stroke:rgb(0%,0%,0%);stroke-opacity:1;stroke-miterlimit:10;" d="M 57.578125 142.159375 L 47.421875 165.340625 " transform="matrix(1.25,0,0,1.25,-30,2.5)"/>
<path style="fill:none;stroke-width:1;stroke-linecap:round;stroke-linejoin:round;stroke:rgb(0%,0%,0%);stroke-opacity:1;stroke-miterlimit:10;" d="M 70.30625 142.2125 L 80.19375 165.2875 " transform="matrix(1.25,0,0,1.25,-30,2.5)"/>
<path style="fill:none;stroke-width:1;stroke-linecap:round;stroke-linejoin:round;stroke:rgb(0%,0%,0%);stroke-opacity:1;stroke-miterlimit:10;" d="M 177.0375 142.109375 L 187.4625 165.390625 " transform="matrix(1.25,0,0,1.25,-30,2.5)"/>
<path style="fill:none;stroke-width:1;stroke-linecap:round;stroke-linejoin:round;stroke:rgb(0%,0%,0%);stroke-opacity:1;stroke-miterlimit:10;" d="M 308.296875 93.846875 L 279.49375 118.278125 " transform="matrix(1.25,0,0,1.25,-30,2.5)"/>
<path style="fill:none;stroke-width:1;stroke-linecap:round;stroke-linejoin:round;stroke:rgb(0%,0%,0%);stroke-opacity:1;stroke-miterlimit:10;" d="M 367.465625 142.31875 L 357.5 166.78125 " transform="matrix(1.25,0,0,1.25,-30,2.5)"/>
<path style=" stroke:none;fill-rule:nonzero;fill:rgb(0%,0%,0%);fill-opacity:1;" d="M 332.988281 201.882812 L 332.988281 205.203125 L 336.328125 205.203125 L 336.328125 201.882812 Z M 323.007812 201.882812 L 323.007812 205.203125 L 326.328125 205.203125 L 326.328125 201.882812 Z M 313.007812 201.882812 L 313.007812 205.203125 L 316.347656 205.203125 L 316.347656 201.882812 Z M 313.007812 201.882812 "/>
<path style=" stroke:none;fill-rule:nonzero;fill:rgb(0%,0%,0%);fill-opacity:1;" d="M 182.621094 16.730469 L 183.851562 10.890625 L 184.75 10.890625 L 184.535156 11.90625 C 184.925781 11.515625 185.289062 11.234375 185.628906 11.046875 C 185.964844 10.867188 186.3125 10.773438 186.664062 10.773438 C 187.144531 10.773438 187.515625 10.90625 187.777344 11.164062 C 188.050781 11.414062 188.1875 11.75 188.1875 12.179688 C 188.1875 12.390625 188.140625 12.726562 188.050781 13.195312 L 187.308594 16.730469 L 186.3125 16.730469 L 187.09375 13.039062 C 187.15625 12.679688 187.191406 12.410156 187.191406 12.238281 C 187.191406 12.042969 187.125 11.886719 186.996094 11.769531 C 186.863281 11.644531 186.667969 11.574219 186.410156 11.574219 C 185.902344 11.574219 185.445312 11.765625 185.042969 12.140625 C 184.652344 12.507812 184.363281 13.132812 184.183594 14.015625 L 183.617188 16.730469 Z M 182.621094 16.730469 "/>
<path style=" stroke:none;fill-rule:nonzero;fill:rgb(0%,0%,0%);fill-opacity:1;" d="M 191.144531 19.09375 C 190.597656 18.402344 190.132812 17.601562 189.757812 16.691406 C 189.375 15.769531 189.191406 14.8125 189.191406 13.820312 C 189.191406 12.953125 189.332031 12.113281 189.621094 11.300781 C 189.941406 10.378906 190.449219 9.460938 191.144531 8.546875 L 191.847656 8.546875 C 191.402344 9.304688 191.109375 9.847656 190.96875 10.167969 C 190.742188 10.675781 190.566406 11.203125 190.441406 11.75 C 190.285156 12.445312 190.207031 13.132812 190.207031 13.820312 C 190.207031 15.578125 190.753906 17.335938 191.847656 19.09375 Z M 191.144531 19.09375 "/>
<path style=" stroke:none;fill-rule:nonzero;fill:rgb(0%,0%,0%);fill-opacity:1;" d="M 193.738281 16.730469 L 193.132812 10.890625 L 194.089844 10.890625 L 194.34375 13.507812 L 194.460938 14.992188 C 194.460938 15.101562 194.464844 15.320312 194.480469 15.65625 C 194.597656 15.28125 194.6875 14.992188 194.753906 14.796875 C 194.832031 14.601562 194.953125 14.320312 195.125 13.9375 L 196.53125 10.890625 L 197.605469 10.890625 L 197.800781 13.820312 C 197.824219 14.265625 197.84375 14.851562 197.859375 15.578125 C 198.039062 15.101562 198.332031 14.421875 198.738281 13.546875 L 200.007812 10.890625 L 200.984375 10.890625 L 198.152344 16.730469 L 197.117188 16.730469 L 196.882812 13.3125 C 196.867188 13.09375 196.863281 12.679688 196.863281 12.0625 C 196.707031 12.453125 196.523438 12.878906 196.316406 13.332031 L 194.773438 16.730469 Z M 193.738281 16.730469 "/>
<path style=" stroke:none;fill-rule:nonzero;fill:rgb(0%,0%,0%);fill-opacity:1;" d="M 200.867188 17.589844 L 201.609375 17.492188 C 201.65625 17.9375 201.785156 18.253906 201.980469 18.449219 C 202.175781 18.636719 202.433594 18.722656 202.761719 18.722656 C 203.136719 18.722656 203.464844 18.585938 203.738281 18.3125 C 204.019531 18.039062 204.167969 17.726562 204.167969 17.375 C 204.167969 17.0625 204.058594 16.808594 203.855469 16.613281 C 203.644531 16.410156 203.367188 16.300781 203.015625 16.300781 C 202.976562 16.300781 202.886719 16.3125 202.761719 16.320312 L 202.898438 15.675781 C 202.976562 15.691406 203.042969 15.695312 203.113281 15.695312 C 203.550781 15.695312 203.894531 15.59375 204.128906 15.382812 C 204.363281 15.164062 204.480469 14.894531 204.480469 14.582031 C 204.480469 14.300781 204.382812 14.054688 204.1875 13.859375 C 203.992188 13.664062 203.757812 13.566406 203.484375 13.566406 C 203.195312 13.566406 202.941406 13.675781 202.722656 13.878906 C 202.496094 14.074219 202.359375 14.359375 202.3125 14.71875 L 201.550781 14.5625 C 201.667969 14.046875 201.902344 13.644531 202.253906 13.371094 C 202.613281 13.089844 203.039062 12.941406 203.523438 12.941406 C 204.039062 12.941406 204.460938 13.097656 204.773438 13.410156 C 205.09375 13.722656 205.261719 14.105469 205.261719 14.542969 C 205.261719 14.886719 205.167969 15.179688 204.988281 15.421875 C 204.816406 15.671875 204.5625 15.871094 204.226562 16.027344 C 204.460938 16.175781 204.636719 16.351562 204.753906 16.554688 C 204.878906 16.765625 204.949219 17 204.949219 17.257812 C 204.949219 17.820312 204.738281 18.308594 204.324219 18.722656 C 203.902344 19.128906 203.40625 19.328125 202.820312 19.328125 C 202.242188 19.328125 201.785156 19.171875 201.433594 18.859375 C 201.089844 18.546875 200.90625 18.128906 200.867188 17.589844 Z M 200.867188 17.589844 "/>
<path style=" stroke:none;fill-rule:nonzero;fill:rgb(0%,0%,0%);fill-opacity:1;" d="M 206.242188 16.730469 L 206.242188 15.597656 L 207.375 15.597656 L 207.375 16.730469 C 207.375 17.148438 207.296875 17.480469 207.140625 17.726562 C 206.992188 17.988281 206.769531 18.1875 206.457031 18.332031 L 206.183594 17.902344 C 206.386719 17.8125 206.539062 17.675781 206.632812 17.492188 C 206.734375 17.324219 206.792969 17.070312 206.808594 16.730469 Z M 206.242188 16.730469 "/>
<path style=" stroke:none;fill-rule:nonzero;fill:rgb(0%,0%,0%);fill-opacity:1;" d="M 215.695312 16.730469 L 214.699219 16.730469 L 214.699219 10.421875 C 214.464844 10.65625 214.152344 10.890625 213.761719 11.125 C 213.371094 11.351562 213.023438 11.511719 212.726562 11.613281 L 212.726562 10.65625 C 213.273438 10.414062 213.75 10.105469 214.171875 9.738281 C 214.585938 9.363281 214.878906 8.996094 215.050781 8.644531 L 215.695312 8.644531 Z M 215.695312 16.730469 "/>
<path style=" stroke:none;fill-rule:nonzero;fill:rgb(0%,0%,0%);fill-opacity:1;" d="M 219.132812 19.09375 L 218.429688 19.09375 C 219.523438 17.335938 220.070312 15.578125 220.070312 13.820312 C 220.070312 13.132812 219.992188 12.449219 219.835938 11.769531 C 219.707031 11.222656 219.53125 10.695312 219.308594 10.1875 C 219.164062 9.867188 218.871094 9.320312 218.429688 8.546875 L 219.132812 8.546875 C 219.824219 9.460938 220.332031 10.378906 220.65625 11.300781 C 220.941406 12.113281 221.085938 12.953125 221.085938 13.820312 C 221.085938 14.8125 220.898438 15.769531 220.519531 16.691406 C 220.140625 17.601562 219.679688 18.402344 219.132812 19.09375 Z M 219.132812 19.09375 "/>
<path style=" stroke:none;fill-rule:nonzero;fill:rgb(0%,0%,0%);fill-opacity:1;" d="M 58.871094 78.605469 L 60.101562 72.765625 L 61 72.765625 L 60.785156 73.78125 C 61.175781 73.390625 61.539062 73.109375 61.878906 72.921875 C 62.214844 72.742188 62.5625 72.648438 62.914062 72.648438 C 63.394531 72.648438 63.765625 72.78125 64.027344 73.039062 C 64.300781 73.289062 64.4375 73.625 64.4375 74.054688 C 64.4375 74.265625 64.390625 74.601562 64.300781 75.070312 L 63.558594 78.605469 L 62.5625 78.605469 L 63.34375 74.914062 C 63.40625 74.554688 63.441406 74.285156 63.441406 74.113281 C 63.441406 73.917969 63.375 73.761719 63.246094 73.644531 C 63.113281 73.519531 62.917969 73.449219 62.660156 73.449219 C 62.152344 73.449219 61.695312 73.640625 61.292969 74.015625 C 60.902344 74.382812 60.613281 75.007812 60.433594 75.890625 L 59.867188 78.605469 Z M 58.871094 78.605469 "/>
<path style=" stroke:none;fill-rule:nonzero;fill:rgb(0%,0%,0%);fill-opacity:1;" d="M 67.394531 80.96875 C 66.847656 80.277344 66.382812 79.476562 66.007812 78.566406 C 65.625 77.644531 65.441406 76.6875 65.441406 75.695312 C 65.441406 74.828125 65.582031 73.988281 65.871094 73.175781 C 66.191406 72.253906 66.699219 71.335938 67.394531 70.421875 L 68.097656 70.421875 C 67.652344 71.179688 67.359375 71.722656 67.21875 72.042969 C 66.992188 72.550781 66.816406 73.078125 66.691406 73.625 C 66.535156 74.320312 66.457031 75.007812 66.457031 75.695312 C 66.457031 77.453125 67.003906 79.210938 68.097656 80.96875 Z M 67.394531 80.96875 "/>
<path style=" stroke:none;fill-rule:nonzero;fill:rgb(0%,0%,0%);fill-opacity:1;" d="M 69.988281 78.605469 L 69.382812 72.765625 L 70.339844 72.765625 L 70.59375 75.382812 L 70.710938 76.867188 C 70.710938 76.976562 70.714844 77.195312 70.730469 77.53125 C 70.847656 77.15625 70.9375 76.867188 71.003906 76.671875 C 71.082031 76.476562 71.203125 76.195312 71.375 75.8125 L 72.78125 72.765625 L 73.855469 72.765625 L 74.050781 75.695312 C 74.074219 76.140625 74.09375 76.726562 74.109375 77.453125 C 74.289062 76.976562 74.582031 76.296875 74.988281 75.421875 L 76.257812 72.765625 L 77.234375 72.765625 L 74.402344 78.605469 L 73.367188 78.605469 L 73.132812 75.1875 C 73.117188 74.96875 73.113281 74.554688 73.113281 73.9375 C 72.957031 74.328125 72.773438 74.753906 72.566406 75.207031 L 71.023438 78.605469 Z M 69.988281 78.605469 "/>
<path style=" stroke:none;fill-rule:nonzero;fill:rgb(0%,0%,0%);fill-opacity:1;" d="M 77.117188 79.464844 L 77.859375 79.367188 C 77.90625 79.8125 78.035156 80.128906 78.230469 80.324219 C 78.425781 80.511719 78.683594 80.597656 79.011719 80.597656 C 79.386719 80.597656 79.714844 80.460938 79.988281 80.1875 C 80.269531 79.914062 80.417969 79.601562 80.417969 79.25 C 80.417969 78.9375 80.308594 78.683594 80.105469 78.488281 C 79.894531 78.285156 79.617188 78.175781 79.265625 78.175781 C 79.226562 78.175781 79.136719 78.1875 79.011719 78.195312 L 79.148438 77.550781 C 79.226562 77.566406 79.292969 77.570312 79.363281 77.570312 C 79.800781 77.570312 80.144531 77.46875 80.378906 77.257812 C 80.613281 77.039062 80.730469 76.769531 80.730469 76.457031 C 80.730469 76.175781 80.632812 75.929688 80.4375 75.734375 C 80.242188 75.539062 80.007812 75.441406 79.734375 75.441406 C 79.445312 75.441406 79.191406 75.550781 78.972656 75.753906 C 78.746094 75.949219 78.609375 76.234375 78.5625 76.59375 L 77.800781 76.4375 C 77.917969 75.921875 78.152344 75.519531 78.503906 75.246094 C 78.863281 74.964844 79.289062 74.816406 79.773438 74.816406 C 80.289062 74.816406 80.710938 74.972656 81.023438 75.285156 C 81.34375 75.597656 81.511719 75.980469 81.511719 76.417969 C 81.511719 76.761719 81.417969 77.054688 81.238281 77.296875 C 81.066406 77.546875 80.8125 77.746094 80.476562 77.902344 C 80.710938 78.050781 80.886719 78.226562 81.003906 78.429688 C 81.128906 78.640625 81.199219 78.875 81.199219 79.132812 C 81.199219 79.695312 80.988281 80.183594 80.574219 80.597656 C 80.152344 81.003906 79.65625 81.203125 79.070312 81.203125 C 78.492188 81.203125 78.035156 81.046875 77.683594 80.734375 C 77.339844 80.421875 77.15625 80.003906 77.117188 79.464844 Z M 77.117188 79.464844 "/>
<path style=" stroke:none;fill-rule:nonzero;fill:rgb(0%,0%,0%);fill-opacity:1;" d="M 82.492188 78.605469 L 82.492188 77.472656 L 83.625 77.472656 L 83.625 78.605469 C 83.625 79.023438 83.546875 79.355469 83.390625 79.601562 C 83.242188 79.863281 83.019531 80.0625 82.707031 80.207031 L 82.433594 79.777344 C 82.636719 79.6875 82.789062 79.550781 82.882812 79.367188 C 82.984375 79.199219 83.042969 78.945312 83.058594 78.605469 Z M 82.492188 78.605469 "/>
<path style=" stroke:none;fill-rule:nonzero;fill:rgb(0%,0%,0%);fill-opacity:1;" d="M 93.410156 77.648438 L 93.410156 78.605469 L 88.078125 78.605469 C 88.078125 78.371094 88.117188 78.148438 88.195312 77.921875 C 88.335938 77.5625 88.554688 77.199219 88.859375 76.847656 C 89.15625 76.496094 89.585938 76.097656 90.148438 75.636719 C 91.015625 74.910156 91.601562 74.339844 91.90625 73.917969 C 92.21875 73.503906 92.375 73.109375 92.375 72.726562 C 92.375 72.335938 92.226562 72.015625 91.945312 71.75 C 91.671875 71.476562 91.308594 71.339844 90.871094 71.339844 C 90.386719 71.339844 90 71.488281 89.71875 71.769531 C 89.429688 72.058594 89.289062 72.453125 89.289062 72.960938 L 88.273438 72.84375 C 88.335938 72.09375 88.59375 71.515625 89.054688 71.125 C 89.507812 70.726562 90.117188 70.519531 90.890625 70.519531 C 91.65625 70.519531 92.261719 70.734375 92.707031 71.164062 C 93.160156 71.59375 93.390625 72.121094 93.390625 72.746094 C 93.390625 73.074219 93.320312 73.390625 93.195312 73.703125 C 93.0625 74.015625 92.84375 74.347656 92.53125 74.699219 C 92.226562 75.042969 91.730469 75.511719 91.027344 76.105469 C 90.425781 76.605469 90.039062 76.941406 89.875 77.121094 C 89.703125 77.308594 89.566406 77.484375 89.464844 77.648438 Z M 93.410156 77.648438 "/>
<path style=" stroke:none;fill-rule:nonzero;fill:rgb(0%,0%,0%);fill-opacity:1;" d="M 95.382812 80.96875 L 94.679688 80.96875 C 95.773438 79.210938 96.320312 77.453125 96.320312 75.695312 C 96.320312 75.007812 96.242188 74.324219 96.085938 73.644531 C 95.957031 73.097656 95.78125 72.570312 95.558594 72.0625 C 95.414062 71.742188 95.121094 71.195312 94.679688 70.421875 L 95.382812 70.421875 C 96.074219 71.335938 96.582031 72.253906 96.90625 73.175781 C 97.191406 73.988281 97.335938 74.828125 97.335938 75.695312 C 97.335938 76.6875 97.148438 77.644531 96.769531 78.566406 C 96.390625 79.476562 95.929688 80.277344 95.382812 80.96875 Z M 95.382812 80.96875 "/>
<path style=" stroke:none;fill-rule:nonzero;fill:rgb(0%,0%,0%);fill-opacity:1;" d="M 199.496094 135.480469 L 200.726562 129.640625 L 201.625 129.640625 L 201.410156 130.65625 C 201.800781 130.265625 202.164062 129.984375 202.503906 129.796875 C 202.839844 129.617188 203.1875 129.523438 203.539062 129.523438 C 204.019531 129.523438 204.390625 129.65625 204.652344 129.914062 C 204.925781 130.164062 205.0625 130.5 205.0625 130.929688 C 205.0625 131.140625 205.015625 131.476562 204.925781 131.945312 L 204.183594 135.480469 L 203.1875 135.480469 L 203.96875 131.789062 C 204.03125 131.429688 204.066406 131.160156 204.066406 130.988281 C 204.066406 130.792969 204 130.636719 203.871094 130.519531 C 203.738281 130.394531 203.542969 130.324219 203.285156 130.324219 C 202.777344 130.324219 202.320312 130.515625 201.917969 130.890625 C 201.527344 131.257812 201.238281 131.882812 201.058594 132.765625 L 200.492188 135.480469 Z M 199.496094 135.480469 "/>
<path style=" stroke:none;fill-rule:nonzero;fill:rgb(0%,0%,0%);fill-opacity:1;" d="M 208.019531 137.84375 C 207.472656 137.152344 207.007812 136.351562 206.632812 135.441406 C 206.25 134.519531 206.066406 133.5625 206.066406 132.570312 C 206.066406 131.703125 206.207031 130.863281 206.496094 130.050781 C 206.816406 129.128906 207.324219 128.210938 208.019531 127.296875 L 208.722656 127.296875 C 208.277344 128.054688 207.984375 128.597656 207.84375 128.917969 C 207.617188 129.425781 207.441406 129.953125 207.316406 130.5 C 207.160156 131.195312 207.082031 131.882812 207.082031 132.570312 C 207.082031 134.328125 207.628906 136.085938 208.722656 137.84375 Z M 208.019531 137.84375 "/>
<path style=" stroke:none;fill-rule:nonzero;fill:rgb(0%,0%,0%);fill-opacity:1;" d="M 210.613281 135.480469 L 210.007812 129.640625 L 210.964844 129.640625 L 211.21875 132.257812 L 211.335938 133.742188 C 211.335938 133.851562 211.339844 134.070312 211.355469 134.40625 C 211.472656 134.03125 211.5625 133.742188 211.628906 133.546875 C 211.707031 133.351562 211.828125 133.070312 212 132.6875 L 213.40625 129.640625 L 214.480469 129.640625 L 214.675781 132.570312 C 214.699219 133.015625 214.71875 133.601562 214.734375 134.328125 C 214.914062 133.851562 215.207031 133.171875 215.613281 132.296875 L 216.882812 129.640625 L 217.859375 129.640625 L 215.027344 135.480469 L 213.992188 135.480469 L 213.757812 132.0625 C 213.742188 131.84375 213.738281 131.429688 213.738281 130.8125 C 213.582031 131.203125 213.398438 131.628906 213.191406 132.082031 L 211.648438 135.480469 Z M 210.613281 135.480469 "/>
<path style=" stroke:none;fill-rule:nonzero;fill:rgb(0%,0%,0%);fill-opacity:1;" d="M 217.742188 136.339844 L 218.484375 136.242188 C 218.53125 136.6875 218.660156 137.003906 218.855469 137.199219 C 219.050781 137.386719 219.308594 137.472656 219.636719 137.472656 C 220.011719 137.472656 220.339844 137.335938 220.613281 137.0625 C 220.894531 136.789062 221.042969 136.476562 221.042969 136.125 C 221.042969 135.8125 220.933594 135.558594 220.730469 135.363281 C 220.519531 135.160156 220.242188 135.050781 219.890625 135.050781 C 219.851562 135.050781 219.761719 135.0625 219.636719 135.070312 L 219.773438 134.425781 C 219.851562 134.441406 219.917969 134.445312 219.988281 134.445312 C 220.425781 134.445312 220.769531 134.34375 221.003906 134.132812 C 221.238281 133.914062 221.355469 133.644531 221.355469 133.332031 C 221.355469 133.050781 221.257812 132.804688 221.0625 132.609375 C 220.867188 132.414062 220.632812 132.316406 220.359375 132.316406 C 220.070312 132.316406 219.816406 132.425781 219.597656 132.628906 C 219.371094 132.824219 219.234375 133.109375 219.1875 133.46875 L 218.425781 133.3125 C 218.542969 132.796875 218.777344 132.394531 219.128906 132.121094 C 219.488281 131.839844 219.914062 131.691406 220.398438 131.691406 C 220.914062 131.691406 221.335938 131.847656 221.648438 132.160156 C 221.96875 132.472656 222.136719 132.855469 222.136719 133.292969 C 222.136719 133.636719 222.042969 133.929688 221.863281 134.171875 C 221.691406 134.421875 221.4375 134.621094 221.101562 134.777344 C 221.335938 134.925781 221.511719 135.101562 221.628906 135.304688 C 221.753906 135.515625 221.824219 135.75 221.824219 136.007812 C 221.824219 136.570312 221.613281 137.058594 221.199219 137.472656 C 220.777344 137.878906 220.28125 138.078125 219.695312 138.078125 C 219.117188 138.078125 218.660156 137.921875 218.308594 137.609375 C 217.964844 137.296875 217.78125 136.878906 217.742188 136.339844 Z M 217.742188 136.339844 "/>
<path style=" stroke:none;fill-rule:nonzero;fill:rgb(0%,0%,0%);fill-opacity:1;" d="M 223.117188 135.480469 L 223.117188 134.347656 L 224.25 134.347656 L 224.25 135.480469 C 224.25 135.898438 224.171875 136.230469 224.015625 136.476562 C 223.867188 136.738281 223.644531 136.9375 223.332031 137.082031 L 223.058594 136.652344 C 223.261719 136.5625 223.414062 136.425781 223.507812 136.242188 C 223.609375 136.074219 223.667969 135.820312 223.683594 135.480469 Z M 223.117188 135.480469 "/>
<path style=" stroke:none;fill-rule:nonzero;fill:rgb(0%,0%,0%);fill-opacity:1;" d="M 228.839844 133.351562 L 229.835938 133.214844 C 229.953125 133.777344 230.136719 134.183594 230.402344 134.425781 C 230.675781 134.675781 231.011719 134.796875 231.417969 134.796875 C 231.871094 134.796875 232.257812 134.640625 232.570312 134.328125 C 232.890625 134.007812 233.058594 133.601562 233.058594 133.117188 C 233.058594 132.664062 232.90625 132.292969 232.609375 132.003906 C 232.320312 131.707031 231.949219 131.554688 231.496094 131.554688 C 231.300781 131.554688 231.066406 131.59375 230.792969 131.671875 L 230.910156 130.792969 C 230.972656 130.808594 231.027344 130.8125 231.066406 130.8125 C 231.480469 130.8125 231.855469 130.707031 232.199219 130.480469 C 232.535156 130.261719 232.707031 129.925781 232.707031 129.464844 C 232.707031 129.105469 232.578125 128.800781 232.335938 128.566406 C 232.085938 128.332031 231.769531 128.214844 231.378906 128.214844 C 230.996094 128.214844 230.679688 128.34375 230.421875 128.585938 C 230.171875 128.820312 230.011719 129.183594 229.933594 129.660156 L 228.9375 129.484375 C 229.0625 128.820312 229.335938 128.308594 229.757812 127.941406 C 230.1875 127.582031 230.71875 127.394531 231.359375 127.394531 C 231.796875 127.394531 232.203125 127.492188 232.570312 127.6875 C 232.945312 127.875 233.234375 128.128906 233.429688 128.449219 C 233.625 128.777344 233.722656 129.125 233.722656 129.484375 C 233.722656 129.835938 233.625 130.160156 233.429688 130.441406 C 233.242188 130.730469 232.96875 130.960938 232.609375 131.125 C 233.085938 131.234375 233.457031 131.457031 233.722656 131.808594 C 233.980469 132.152344 234.113281 132.582031 234.113281 133.097656 C 234.113281 133.800781 233.847656 134.402344 233.332031 134.894531 C 232.824219 135.378906 232.179688 135.617188 231.398438 135.617188 C 230.695312 135.617188 230.109375 135.414062 229.640625 134.992188 C 229.171875 134.578125 228.902344 134.03125 228.839844 133.351562 Z M 228.839844 133.351562 "/>
<path style=" stroke:none;fill-rule:nonzero;fill:rgb(0%,0%,0%);fill-opacity:1;" d="M 236.007812 137.84375 L 235.304688 137.84375 C 236.398438 136.085938 236.945312 134.328125 236.945312 132.570312 C 236.945312 131.882812 236.867188 131.199219 236.710938 130.519531 C 236.582031 129.972656 236.40625 129.445312 236.183594 128.9375 C 236.039062 128.617188 235.746094 128.070312 235.304688 127.296875 L 236.007812 127.296875 C 236.699219 128.210938 237.207031 129.128906 237.53125 130.050781 C 237.816406 130.863281 237.960938 131.703125 237.960938 132.570312 C 237.960938 133.5625 237.773438 134.519531 237.394531 135.441406 C 237.015625 136.351562 236.554688 137.152344 236.007812 137.84375 Z M 236.007812 137.84375 "/>
</g>
</svg>
