<?xml version="1.0" encoding="UTF-8"?>
<svg xmlns="http://www.w3.org/2000/svg" xmlns:xlink="http://www.w3.org/1999/xlink" width="189pt" height="658pt" viewBox="0 0 189 658" version="1.1">
<defs>
<clipPath id="clip1">
  <path d="M 42.183594 642.070312 L 48 642.070312 L 48 648 L 42.183594 648 Z M 42.183594 642.070312 "/>
</clipPath>
<clipPath id="clip2">
  <path d="M 33.429688 571 L 39.367188 571 L 39.367188 576.71875 L 33.429688 576.71875 Z M 33.429688 571 "/>
</clipPath>
<clipPath id="clip3">
  <path d="M 174 194 L 181 194 L 181 200 L 174 200 Z M 174 194 "/>
</clipPath>
<clipPath id="clip4">
  <path d="M 174.4375 199.964844 L 180.6875 199.859375 L 180.578125 193.609375 L 174.328125 193.71875 Z M 174.4375 199.964844 "/>
</clipPath>
<clipPath id="clip5">
  <path d="M 174.332031 193.875 L 180.269531 193.769531 L 180.371094 199.707031 L 174.433594 199.808594 Z M 174.332031 193.875 "/>
</clipPath>
<clipPath id="clip6">
  <path d="M 174.433594 199.808594 L 180.371094 199.707031 L 180.269531 193.769531 L 174.332031 193.875 Z M 174.433594 199.808594 "/>
</clipPath>
</defs>
<g id="surface1">
<path style="fill:none;stroke-width:1;stroke-linecap:round;stroke-linejoin:round;stroke:rgb(0%,0%,0%);stroke-opacity:1;stroke-dasharray:4,4;stroke-miterlimit:10;" d="M 189.79375 230.5875 L 239.565625 230.5875 L 239.565625 297.2375 L 189.79375 297.2375 Z M 189.79375 230.5875 " transform="matrix(1.25,0,0,1.25,-208.75,177.5)"/>
<path style="fill-rule:nonzero;fill:rgb(69.803922%,85.098039%,100%);fill-opacity:1;stroke-width:1;stroke-linecap:round;stroke-linejoin:round;stroke:rgb(0%,0%,0%);stroke-opacity:1;stroke-miterlimit:10;" d="M 194.65625 284.590625 L 235.025 284.590625 L 235.025 292.31875 L 194.65625 292.31875 Z M 194.65625 284.590625 " transform="matrix(1.25,0,0,1.25,-208.75,177.5)"/>
<path style="fill:none;stroke-width:1;stroke-linecap:round;stroke-linejoin:round;stroke:rgb(0%,0%,0%);stroke-opacity:1;stroke-miterlimit:10;" d="M 214.840625 303.95625 L 214.840625 295.81875 " transform="matrix(1.25,0,0,1.25,-208.75,177.5)"/>
<path style="fill:none;stroke-width:1;stroke-linecap:butt;stroke-linejoin:miter;stroke:rgb(0%,0%,0%);stroke-opacity:1;stroke-miterlimit:10;" d="M 214.840625 294.21875 L 214.840625 295.81875 M 214.2375 295.81875 L 214.840625 294.21875 L 215.4375 295.81875 " transform="matrix(1.25,0,0,1.25,-208.75,177.5)"/>
<path style="fill-rule:nonzero;fill:rgb(40%,74.901961%,100%);fill-opacity:1;stroke-width:1;stroke-linecap:round;stroke-linejoin:round;stroke:rgb(0%,0%,0%);stroke-opacity:1;stroke-miterlimit:10;" d="M 216.725 221.215625 C 217.859375 222.346875 217.859375 224.184375 216.725 225.315625 C 215.59375 226.44375 213.7625 226.44375 212.628125 225.315625 C 211.496875 224.184375 211.496875 222.346875 212.628125 221.215625 C 213.7625 220.08125 215.59375 220.08125 216.725 221.215625 " transform="matrix(1.25,0,0,1.25,-208.75,177.5)"/>
<path style=" stroke:none;fill-rule:nonzero;fill:rgb(0%,0%,0%);fill-opacity:1;" d="M 59.511719 458.257812 L 59.511719 457.027344 L 58.300781 457.027344 L 58.300781 456.519531 L 59.511719 456.519531 L 59.511719 455.308594 L 60.039062 455.308594 L 60.039062 456.519531 L 61.25 456.519531 L 61.25 457.027344 L 60.039062 457.027344 L 60.039062 458.257812 Z M 59.511719 458.257812 "/>
<path style="fill:none;stroke-width:1;stroke-linecap:round;stroke-linejoin:round;stroke:rgb(0%,0%,0%);stroke-opacity:1;stroke-miterlimit:10;" d="M 194.65625 272.309375 L 235.025 272.309375 L 235.025 280.0375 L 194.65625 280.0375 Z M 194.65625 272.309375 " transform="matrix(1.25,0,0,1.25,-208.75,177.5)"/>
<path style="fill-rule:nonzero;fill:rgb(40%,74.901961%,100%);fill-opacity:1;stroke-width:1;stroke-linecap:round;stroke-linejoin:round;stroke:rgb(0%,0%,0%);stroke-opacity:1;stroke-miterlimit:10;" d="M 194.65625 208.215625 L 235.025 208.215625 L 235.025 215.940625 L 194.65625 215.940625 Z M 194.65625 208.215625 " transform="matrix(1.25,0,0,1.25,-208.75,177.5)"/>
<path style="fill-rule:nonzero;fill:rgb(40%,74.901961%,100%);fill-opacity:1;stroke-width:1;stroke-linecap:round;stroke-linejoin:round;stroke:rgb(0%,0%,0%);stroke-opacity:1;stroke-miterlimit:10;" d="M 194.65625 260.028125 L 235.025 260.028125 L 235.025 267.75625 L 194.65625 267.75625 Z M 194.65625 260.028125 " transform="matrix(1.25,0,0,1.25,-208.75,177.5)"/>
<path style="fill:none;stroke-width:1;stroke-linecap:round;stroke-linejoin:round;stroke:rgb(0%,0%,0%);stroke-opacity:1;stroke-miterlimit:10;" d="M 214.840625 284.590625 L 214.840625 283.5375 " transform="matrix(1.25,0,0,1.25,-208.75,177.5)"/>
<path style="fill:none;stroke-width:1;stroke-linecap:butt;stroke-linejoin:miter;stroke:rgb(0%,0%,0%);stroke-opacity:1;stroke-miterlimit:10;" d="M 214.840625 281.9375 L 214.840625 283.5375 M 214.2375 283.5375 L 214.840625 281.9375 L 215.4375 283.5375 " transform="matrix(1.25,0,0,1.25,-208.75,177.5)"/>
<path style="fill:none;stroke-width:1;stroke-linecap:round;stroke-linejoin:round;stroke:rgb(0%,0%,0%);stroke-opacity:1;stroke-miterlimit:10;" d="M 214.840625 272.309375 L 214.840625 271.25625 " transform="matrix(1.25,0,0,1.25,-208.75,177.5)"/>
<path style="fill:none;stroke-width:1;stroke-linecap:butt;stroke-linejoin:miter;stroke:rgb(0%,0%,0%);stroke-opacity:1;stroke-miterlimit:10;" d="M 214.840625 269.65625 L 214.840625 271.25625 M 214.2375 271.25625 L 214.840625 269.65625 L 215.4375 271.25625 " transform="matrix(1.25,0,0,1.25,-208.75,177.5)"/>
<path style="fill:none;stroke-width:1;stroke-linecap:round;stroke-linejoin:round;stroke:rgb(0%,0%,0%);stroke-opacity:1;stroke-miterlimit:10;" d="M 214.796875 234.471875 L 214.746875 229.6625 " transform="matrix(1.25,0,0,1.25,-208.75,177.5)"/>
<path style="fill:none;stroke-width:1;stroke-linecap:butt;stroke-linejoin:miter;stroke:rgb(0%,0%,0%);stroke-opacity:1;stroke-miterlimit:10;" d="M 214.73125 228.0625 L 214.746875 229.6625 M 214.14375 229.671875 L 214.73125 228.0625 L 215.346875 229.65625 " transform="matrix(1.25,0,0,1.25,-208.75,177.5)"/>
<path style="fill:none;stroke-width:1;stroke-linecap:round;stroke-linejoin:round;stroke:rgb(0%,0%,0%);stroke-opacity:1;stroke-miterlimit:10;" d="M 214.71875 220.36875 L 214.734375 219.440625 " transform="matrix(1.25,0,0,1.25,-208.75,177.5)"/>
<path style="fill:none;stroke-width:1;stroke-linecap:butt;stroke-linejoin:miter;stroke:rgb(0%,0%,0%);stroke-opacity:1;stroke-miterlimit:10;" d="M 214.75625 217.84375 L 214.734375 219.440625 M 214.13125 219.434375 L 214.75625 217.84375 L 215.33125 219.453125 " transform="matrix(1.25,0,0,1.25,-208.75,177.5)"/>
<path style="fill:none;stroke-width:1;stroke-linecap:round;stroke-linejoin:round;stroke:rgb(0%,0%,0%);stroke-opacity:1;stroke-miterlimit:10;" d="M 214.840625 300.715625 L 224.825 300.715625 C 224.83125 300.715625 224.84375 300.715625 224.85625 300.715625 L 241.54375 300.534375 C 243.184375 300.515625 244.50625 299.184375 244.5125 297.54375 L 244.71875 227.028125 C 244.71875 227.025 244.71875 227.01875 244.71875 227.01875 L 244.71875 225.14375 C 244.71875 224.10625 243.875 223.265625 242.840625 223.265625 L 221.078125 223.265625 " transform="matrix(1.25,0,0,1.25,-208.75,177.5)"/>
<path style="fill:none;stroke-width:1;stroke-linecap:butt;stroke-linejoin:miter;stroke:rgb(0%,0%,0%);stroke-opacity:1;stroke-miterlimit:10;" d="M 219.475 223.265625 L 221.078125 223.265625 M 221.078125 223.8625 L 219.475 223.265625 L 221.078125 222.6625 " transform="matrix(1.25,0,0,1.25,-208.75,177.5)"/>
<path style="fill-rule:nonzero;fill:rgb(69.803922%,85.098039%,100%);fill-opacity:1;stroke-width:1;stroke-linecap:round;stroke-linejoin:round;stroke:rgb(0%,0%,0%);stroke-opacity:1;stroke-miterlimit:10;" d="M 194.65625 246.75625 L 235.025 246.75625 L 235.025 254.484375 L 194.65625 254.484375 Z M 194.65625 246.75625 " transform="matrix(1.25,0,0,1.25,-208.75,177.5)"/>
<path style="fill:none;stroke-width:1;stroke-linecap:round;stroke-linejoin:round;stroke:rgb(0%,0%,0%);stroke-opacity:1;stroke-miterlimit:10;" d="M 214.840625 260.028125 L 214.840625 257.984375 " transform="matrix(1.25,0,0,1.25,-208.75,177.5)"/>
<path style="fill:none;stroke-width:1;stroke-linecap:butt;stroke-linejoin:miter;stroke:rgb(0%,0%,0%);stroke-opacity:1;stroke-miterlimit:10;" d="M 214.840625 256.3875 L 214.840625 257.984375 M 214.2375 257.984375 L 214.840625 256.3875 L 215.4375 257.984375 " transform="matrix(1.25,0,0,1.25,-208.75,177.5)"/>
<path style="fill:none;stroke-width:1;stroke-linecap:round;stroke-linejoin:round;stroke:rgb(0%,0%,0%);stroke-opacity:1;stroke-miterlimit:10;" d="M 194.65625 234.471875 L 235.025 234.471875 L 235.025 242.203125 L 194.65625 242.203125 Z M 194.65625 234.471875 " transform="matrix(1.25,0,0,1.25,-208.75,177.5)"/>
<path style="fill:none;stroke-width:1;stroke-linecap:round;stroke-linejoin:round;stroke:rgb(0%,0%,0%);stroke-opacity:1;stroke-miterlimit:10;" d="M 214.840625 246.75625 L 214.840625 245.703125 " transform="matrix(1.25,0,0,1.25,-208.75,177.5)"/>
<path style="fill:none;stroke-width:1;stroke-linecap:butt;stroke-linejoin:miter;stroke:rgb(0%,0%,0%);stroke-opacity:1;stroke-miterlimit:10;" d="M 214.840625 244.10625 L 214.840625 245.703125 M 214.2375 245.703125 L 214.840625 244.10625 L 215.4375 245.703125 " transform="matrix(1.25,0,0,1.25,-208.75,177.5)"/>
<path style="fill:none;stroke-width:1;stroke-linecap:round;stroke-linejoin:round;stroke:rgb(0%,0%,0%);stroke-opacity:1;stroke-dasharray:4,4;stroke-miterlimit:10;" d="M 189.79375 37.05625 L 239.565625 37.05625 L 239.565625 103.70625 L 189.79375 103.70625 Z M 189.79375 37.05625 " transform="matrix(1.25,0,0,1.25,-208.75,177.5)"/>
<path style="fill-rule:nonzero;fill:rgb(69.803922%,85.098039%,100%);fill-opacity:1;stroke-width:1;stroke-linecap:round;stroke-linejoin:round;stroke:rgb(0%,0%,0%);stroke-opacity:1;stroke-miterlimit:10;" d="M 194.65625 91.059375 L 235.025 91.059375 L 235.025 98.7875 L 194.65625 98.7875 Z M 194.65625 91.059375 " transform="matrix(1.25,0,0,1.25,-208.75,177.5)"/>
<path style="fill:none;stroke-width:1;stroke-linecap:round;stroke-linejoin:round;stroke:rgb(0%,0%,0%);stroke-opacity:1;stroke-miterlimit:10;" d="M 214.96875 111.8 L 214.89375 102.2875 " transform="matrix(1.25,0,0,1.25,-208.75,177.5)"/>
<path style="fill:none;stroke-width:1;stroke-linecap:butt;stroke-linejoin:miter;stroke:rgb(0%,0%,0%);stroke-opacity:1;stroke-miterlimit:10;" d="M 214.88125 100.6875 L 214.89375 102.2875 M 214.296875 102.29375 L 214.88125 100.6875 L 215.496875 102.284375 " transform="matrix(1.25,0,0,1.25,-208.75,177.5)"/>
<path style="fill-rule:nonzero;fill:rgb(40%,74.901961%,100%);fill-opacity:1;stroke-width:1;stroke-linecap:round;stroke-linejoin:round;stroke:rgb(0%,0%,0%);stroke-opacity:1;stroke-miterlimit:10;" d="M 216.725 27.684375 C 217.859375 28.815625 217.859375 30.653125 216.725 31.784375 C 215.59375 32.9125 213.7625 32.9125 212.628125 31.784375 C 211.496875 30.653125 211.496875 28.815625 212.628125 27.684375 C 213.7625 26.55 215.59375 26.55 216.725 27.684375 " transform="matrix(1.25,0,0,1.25,-208.75,177.5)"/>
<path style=" stroke:none;fill-rule:nonzero;fill:rgb(0%,0%,0%);fill-opacity:1;" d="M 59.511719 216.34375 L 59.511719 215.113281 L 58.300781 215.113281 L 58.300781 214.605469 L 59.511719 214.605469 L 59.511719 213.394531 L 60.039062 213.394531 L 60.039062 214.605469 L 61.25 214.605469 L 61.25 215.113281 L 60.039062 215.113281 L 60.039062 216.34375 Z M 59.511719 216.34375 "/>
<path style="fill:none;stroke-width:1;stroke-linecap:round;stroke-linejoin:round;stroke:rgb(0%,0%,0%);stroke-opacity:1;stroke-miterlimit:10;" d="M 194.65625 78.778125 L 235.025 78.778125 L 235.025 86.50625 L 194.65625 86.50625 Z M 194.65625 78.778125 " transform="matrix(1.25,0,0,1.25,-208.75,177.5)"/>
<path style="fill-rule:nonzero;fill:rgb(40%,74.901961%,100%);fill-opacity:1;stroke-width:1;stroke-linecap:round;stroke-linejoin:round;stroke:rgb(0%,0%,0%);stroke-opacity:1;stroke-miterlimit:10;" d="M 194.65625 14.68125 L 235.025 14.68125 L 235.025 22.409375 L 194.65625 22.409375 Z M 194.65625 14.68125 " transform="matrix(1.25,0,0,1.25,-208.75,177.5)"/>
<path style="fill-rule:nonzero;fill:rgb(40%,74.901961%,100%);fill-opacity:1;stroke-width:1;stroke-linecap:round;stroke-linejoin:round;stroke:rgb(0%,0%,0%);stroke-opacity:1;stroke-miterlimit:10;" d="M 194.65625 66.496875 L 235.025 66.496875 L 235.025 74.221875 L 194.65625 74.221875 Z M 194.65625 66.496875 " transform="matrix(1.25,0,0,1.25,-208.75,177.5)"/>
<path style="fill:none;stroke-width:1;stroke-linecap:round;stroke-linejoin:round;stroke:rgb(0%,0%,0%);stroke-opacity:1;stroke-miterlimit:10;" d="M 214.840625 91.059375 L 214.840625 90.00625 " transform="matrix(1.25,0,0,1.25,-208.75,177.5)"/>
<path style="fill:none;stroke-width:1;stroke-linecap:butt;stroke-linejoin:miter;stroke:rgb(0%,0%,0%);stroke-opacity:1;stroke-miterlimit:10;" d="M 214.840625 88.40625 L 214.840625 90.00625 M 214.2375 90.00625 L 214.840625 88.40625 L 215.4375 90.00625 " transform="matrix(1.25,0,0,1.25,-208.75,177.5)"/>
<path style="fill:none;stroke-width:1;stroke-linecap:round;stroke-linejoin:round;stroke:rgb(0%,0%,0%);stroke-opacity:1;stroke-miterlimit:10;" d="M 214.840625 78.778125 L 214.840625 77.721875 " transform="matrix(1.25,0,0,1.25,-208.75,177.5)"/>
<path style="fill:none;stroke-width:1;stroke-linecap:butt;stroke-linejoin:miter;stroke:rgb(0%,0%,0%);stroke-opacity:1;stroke-miterlimit:10;" d="M 214.840625 76.125 L 214.840625 77.721875 M 214.2375 77.721875 L 214.840625 76.125 L 215.4375 77.721875 " transform="matrix(1.25,0,0,1.25,-208.75,177.5)"/>
<path style="fill:none;stroke-width:1;stroke-linecap:round;stroke-linejoin:round;stroke:rgb(0%,0%,0%);stroke-opacity:1;stroke-miterlimit:10;" d="M 214.796875 40.940625 L 214.746875 36.13125 " transform="matrix(1.25,0,0,1.25,-208.75,177.5)"/>
<path style="fill:none;stroke-width:1;stroke-linecap:butt;stroke-linejoin:miter;stroke:rgb(0%,0%,0%);stroke-opacity:1;stroke-miterlimit:10;" d="M 214.73125 34.53125 L 214.746875 36.13125 M 214.14375 36.1375 L 214.73125 34.53125 L 215.346875 36.125 " transform="matrix(1.25,0,0,1.25,-208.75,177.5)"/>
<path style="fill:none;stroke-width:1;stroke-linecap:round;stroke-linejoin:round;stroke:rgb(0%,0%,0%);stroke-opacity:1;stroke-miterlimit:10;" d="M 214.71875 26.8375 L 214.734375 25.909375 " transform="matrix(1.25,0,0,1.25,-208.75,177.5)"/>
<path style="fill:none;stroke-width:1;stroke-linecap:butt;stroke-linejoin:miter;stroke:rgb(0%,0%,0%);stroke-opacity:1;stroke-miterlimit:10;" d="M 214.75625 24.3125 L 214.734375 25.909375 M 214.13125 25.903125 L 214.75625 24.3125 L 215.33125 25.91875 " transform="matrix(1.25,0,0,1.25,-208.75,177.5)"/>
<path style="fill:none;stroke-width:1;stroke-linecap:round;stroke-linejoin:round;stroke:rgb(0%,0%,0%);stroke-opacity:1;stroke-miterlimit:10;" d="M 214.940625 108.175 L 263.265625 108.175 C 264.921875 108.175 266.265625 106.83125 266.265625 105.175 L 266.265625 77.746875 " transform="matrix(1.25,0,0,1.25,-208.75,177.5)"/>
<path style="fill:none;stroke-width:1;stroke-linecap:butt;stroke-linejoin:miter;stroke:rgb(0%,0%,0%);stroke-opacity:1;stroke-miterlimit:10;" d="M 266.265625 76.14375 L 266.265625 77.746875 M 265.6625 77.746875 L 266.265625 76.14375 L 266.86875 77.746875 " transform="matrix(1.25,0,0,1.25,-208.75,177.5)"/>
<path style="fill-rule:nonzero;fill:rgb(69.803922%,85.098039%,100%);fill-opacity:1;stroke-width:1;stroke-linecap:round;stroke-linejoin:round;stroke:rgb(0%,0%,0%);stroke-opacity:1;stroke-miterlimit:10;" d="M 194.65625 53.221875 L 235.025 53.221875 L 235.025 60.953125 L 194.65625 60.953125 Z M 194.65625 53.221875 " transform="matrix(1.25,0,0,1.25,-208.75,177.5)"/>
<path style="fill:none;stroke-width:1;stroke-linecap:round;stroke-linejoin:round;stroke:rgb(0%,0%,0%);stroke-opacity:1;stroke-miterlimit:10;" d="M 214.840625 66.496875 L 214.840625 64.453125 " transform="matrix(1.25,0,0,1.25,-208.75,177.5)"/>
<path style="fill:none;stroke-width:1;stroke-linecap:butt;stroke-linejoin:miter;stroke:rgb(0%,0%,0%);stroke-opacity:1;stroke-miterlimit:10;" d="M 214.840625 62.85625 L 214.840625 64.453125 M 214.2375 64.453125 L 214.840625 62.85625 L 215.4375 64.453125 " transform="matrix(1.25,0,0,1.25,-208.75,177.5)"/>
<path style="fill:none;stroke-width:1;stroke-linecap:round;stroke-linejoin:round;stroke:rgb(0%,0%,0%);stroke-opacity:1;stroke-miterlimit:10;" d="M 194.65625 40.940625 L 235.025 40.940625 L 235.025 48.671875 L 194.65625 48.671875 Z M 194.65625 40.940625 " transform="matrix(1.25,0,0,1.25,-208.75,177.5)"/>
<path style="fill:none;stroke-width:1;stroke-linecap:round;stroke-linejoin:round;stroke:rgb(0%,0%,0%);stroke-opacity:1;stroke-miterlimit:10;" d="M 214.840625 53.221875 L 214.840625 52.171875 " transform="matrix(1.25,0,0,1.25,-208.75,177.5)"/>
<path style="fill:none;stroke-width:1;stroke-linecap:butt;stroke-linejoin:miter;stroke:rgb(0%,0%,0%);stroke-opacity:1;stroke-miterlimit:10;" d="M 214.840625 50.575 L 214.840625 52.171875 M 214.2375 52.171875 L 214.840625 50.575 L 215.4375 52.171875 " transform="matrix(1.25,0,0,1.25,-208.75,177.5)"/>
<path style="fill-rule:nonzero;fill:rgb(69.803922%,85.098039%,100%);fill-opacity:1;stroke-width:1;stroke-linecap:round;stroke-linejoin:round;stroke:rgb(0%,0%,0%);stroke-opacity:1;stroke-miterlimit:10;" d="M 246.08125 66.515625 L 286.45 66.515625 L 286.45 74.246875 L 246.08125 74.246875 Z M 246.08125 66.515625 " transform="matrix(1.25,0,0,1.25,-208.75,177.5)"/>
<path style="fill:none;stroke-width:1;stroke-linecap:round;stroke-linejoin:round;stroke:rgb(0%,0%,0%);stroke-opacity:1;stroke-miterlimit:10;" d="M 266.265625 66.515625 L 266.265625 32.734375 C 266.265625 31.078125 264.921875 29.734375 263.265625 29.734375 L 221.078125 29.734375 " transform="matrix(1.25,0,0,1.25,-208.75,177.5)"/>
<path style="fill:none;stroke-width:1;stroke-linecap:butt;stroke-linejoin:miter;stroke:rgb(0%,0%,0%);stroke-opacity:1;stroke-miterlimit:10;" d="M 219.475 29.734375 L 221.078125 29.734375 M 221.078125 30.33125 L 219.475 29.734375 L 221.078125 29.13125 " transform="matrix(1.25,0,0,1.25,-208.75,177.5)"/>
<path style="fill:none;stroke-width:1;stroke-linecap:round;stroke-linejoin:round;stroke:rgb(0%,0%,0%);stroke-opacity:1;stroke-dasharray:4,4;stroke-miterlimit:10;" d="M 189.953125 134.175 L 239.725 134.175 L 239.725 200.828125 L 189.953125 200.828125 Z M 189.953125 134.175 " transform="matrix(1.25,0,0,1.25,-208.75,177.5)"/>
<path style="fill-rule:nonzero;fill:rgb(69.803922%,85.098039%,100%);fill-opacity:1;stroke-width:1;stroke-linecap:round;stroke-linejoin:round;stroke:rgb(0%,0%,0%);stroke-opacity:1;stroke-miterlimit:10;" d="M 194.815625 188.18125 L 235.184375 188.18125 L 235.184375 195.909375 L 194.815625 195.909375 Z M 194.815625 188.18125 " transform="matrix(1.25,0,0,1.25,-208.75,177.5)"/>
<path style="fill:none;stroke-width:1;stroke-linecap:round;stroke-linejoin:round;stroke:rgb(0%,0%,0%);stroke-opacity:1;stroke-miterlimit:10;" d="M 214.871875 208.215625 L 214.940625 199.409375 " transform="matrix(1.25,0,0,1.25,-208.75,177.5)"/>
<path style="fill:none;stroke-width:1;stroke-linecap:butt;stroke-linejoin:miter;stroke:rgb(0%,0%,0%);stroke-opacity:1;stroke-miterlimit:10;" d="M 214.953125 197.809375 L 214.940625 199.409375 M 214.340625 199.403125 L 214.953125 197.809375 L 215.5375 199.4125 " transform="matrix(1.25,0,0,1.25,-208.75,177.5)"/>
<path style="fill-rule:nonzero;fill:rgb(40%,74.901961%,100%);fill-opacity:1;stroke-width:1;stroke-linecap:round;stroke-linejoin:round;stroke:rgb(0%,0%,0%);stroke-opacity:1;stroke-miterlimit:10;" d="M 216.890625 124.80625 C 218.01875 125.9375 218.01875 127.76875 216.890625 128.903125 C 215.75625 130.034375 213.921875 130.034375 212.7875 128.903125 C 211.65625 127.76875 211.65625 125.9375 212.7875 124.80625 C 213.921875 123.671875 215.75625 123.671875 216.890625 124.80625 " transform="matrix(1.25,0,0,1.25,-208.75,177.5)"/>
<path style=" stroke:none;fill-rule:nonzero;fill:rgb(0%,0%,0%);fill-opacity:1;" d="M 59.710938 337.742188 L 59.710938 336.511719 L 58.5 336.511719 L 58.5 336.003906 L 59.710938 336.003906 L 59.710938 334.792969 L 60.238281 334.792969 L 60.238281 336.003906 L 61.449219 336.003906 L 61.449219 336.511719 L 60.238281 336.511719 L 60.238281 337.742188 Z M 59.710938 337.742188 "/>
<path style="fill:none;stroke-width:1;stroke-linecap:round;stroke-linejoin:round;stroke:rgb(0%,0%,0%);stroke-opacity:1;stroke-miterlimit:10;" d="M 194.815625 175.9 L 235.184375 175.9 L 235.184375 183.625 L 194.815625 183.625 Z M 194.815625 175.9 " transform="matrix(1.25,0,0,1.25,-208.75,177.5)"/>
<path style="fill-rule:nonzero;fill:rgb(40%,74.901961%,100%);fill-opacity:1;stroke-width:1;stroke-linecap:round;stroke-linejoin:round;stroke:rgb(0%,0%,0%);stroke-opacity:1;stroke-miterlimit:10;" d="M 194.815625 111.8 L 235.184375 111.8 L 235.184375 119.53125 L 194.815625 119.53125 Z M 194.815625 111.8 " transform="matrix(1.25,0,0,1.25,-208.75,177.5)"/>
<path style="fill-rule:nonzero;fill:rgb(40%,74.901961%,100%);fill-opacity:1;stroke-width:1;stroke-linecap:round;stroke-linejoin:round;stroke:rgb(0%,0%,0%);stroke-opacity:1;stroke-miterlimit:10;" d="M 194.815625 163.6125 L 235.184375 163.6125 L 235.184375 171.34375 L 194.815625 171.34375 Z M 194.815625 163.6125 " transform="matrix(1.25,0,0,1.25,-208.75,177.5)"/>
<path style="fill:none;stroke-width:1;stroke-linecap:round;stroke-linejoin:round;stroke:rgb(0%,0%,0%);stroke-opacity:1;stroke-miterlimit:10;" d="M 215 188.18125 L 215 187.125 " transform="matrix(1.25,0,0,1.25,-208.75,177.5)"/>
<path style="fill:none;stroke-width:1;stroke-linecap:butt;stroke-linejoin:miter;stroke:rgb(0%,0%,0%);stroke-opacity:1;stroke-miterlimit:10;" d="M 215 185.528125 L 215 187.125 M 214.4 187.125 L 215 185.528125 L 215.6 187.125 " transform="matrix(1.25,0,0,1.25,-208.75,177.5)"/>
<path style="fill:none;stroke-width:1;stroke-linecap:round;stroke-linejoin:round;stroke:rgb(0%,0%,0%);stroke-opacity:1;stroke-miterlimit:10;" d="M 215 175.9 L 215 174.84375 " transform="matrix(1.25,0,0,1.25,-208.75,177.5)"/>
<path style="fill:none;stroke-width:1;stroke-linecap:butt;stroke-linejoin:miter;stroke:rgb(0%,0%,0%);stroke-opacity:1;stroke-miterlimit:10;" d="M 215 173.246875 L 215 174.84375 M 214.4 174.84375 L 215 173.246875 L 215.6 174.84375 " transform="matrix(1.25,0,0,1.25,-208.75,177.5)"/>
<path style="fill:none;stroke-width:1;stroke-linecap:round;stroke-linejoin:round;stroke:rgb(0%,0%,0%);stroke-opacity:1;stroke-miterlimit:10;" d="M 214.95625 138.0625 L 214.90625 133.253125 " transform="matrix(1.25,0,0,1.25,-208.75,177.5)"/>
<path style="fill:none;stroke-width:1;stroke-linecap:butt;stroke-linejoin:miter;stroke:rgb(0%,0%,0%);stroke-opacity:1;stroke-miterlimit:10;" d="M 214.890625 131.653125 L 214.90625 133.253125 M 214.309375 133.25625 L 214.890625 131.653125 L 215.50625 133.246875 " transform="matrix(1.25,0,0,1.25,-208.75,177.5)"/>
<path style="fill:none;stroke-width:1;stroke-linecap:round;stroke-linejoin:round;stroke:rgb(0%,0%,0%);stroke-opacity:1;stroke-miterlimit:10;" d="M 214.878125 123.95625 L 214.89375 123.03125 " transform="matrix(1.25,0,0,1.25,-208.75,177.5)"/>
<path style="fill:none;stroke-width:1;stroke-linecap:butt;stroke-linejoin:miter;stroke:rgb(0%,0%,0%);stroke-opacity:1;stroke-miterlimit:10;" d="M 214.91875 121.43125 L 214.89375 123.03125 M 214.29375 123.025 L 214.91875 121.43125 L 215.49375 123.0375 " transform="matrix(1.25,0,0,1.25,-208.75,177.5)"/>
<path style="fill:none;stroke-width:1;stroke-linecap:round;stroke-linejoin:round;stroke:rgb(0%,0%,0%);stroke-opacity:1;stroke-miterlimit:10;" d="M 214.903125 203.984375 L 224.89375 203.984375 C 224.903125 203.984375 224.90625 203.984375 224.9125 203.984375 L 241.65625 204.075 C 243.3125 204.08125 244.6625 202.746875 244.671875 201.090625 C 244.671875 201.0875 244.671875 201.0875 244.671875 201.08125 L 244.878125 130.61875 C 244.878125 130.6125 244.878125 130.609375 244.878125 130.60625 L 244.878125 128.734375 C 244.878125 127.69375 244.0375 126.85625 243 126.85625 L 221.2375 126.85625 " transform="matrix(1.25,0,0,1.25,-208.75,177.5)"/>
<path style="fill:none;stroke-width:1;stroke-linecap:butt;stroke-linejoin:miter;stroke:rgb(0%,0%,0%);stroke-opacity:1;stroke-miterlimit:10;" d="M 219.6375 126.85625 L 221.2375 126.85625 M 221.2375 127.453125 L 219.6375 126.85625 L 221.2375 126.253125 " transform="matrix(1.25,0,0,1.25,-208.75,177.5)"/>
<path style="fill-rule:nonzero;fill:rgb(69.803922%,85.098039%,100%);fill-opacity:1;stroke-width:1;stroke-linecap:round;stroke-linejoin:round;stroke:rgb(0%,0%,0%);stroke-opacity:1;stroke-miterlimit:10;" d="M 194.815625 150.34375 L 235.184375 150.34375 L 235.184375 158.075 L 194.815625 158.075 Z M 194.815625 150.34375 " transform="matrix(1.25,0,0,1.25,-208.75,177.5)"/>
<path style="fill:none;stroke-width:1;stroke-linecap:round;stroke-linejoin:round;stroke:rgb(0%,0%,0%);stroke-opacity:1;stroke-miterlimit:10;" d="M 215 163.6125 L 215 161.575 " transform="matrix(1.25,0,0,1.25,-208.75,177.5)"/>
<path style="fill:none;stroke-width:1;stroke-linecap:butt;stroke-linejoin:miter;stroke:rgb(0%,0%,0%);stroke-opacity:1;stroke-miterlimit:10;" d="M 215 159.975 L 215 161.575 M 214.4 161.575 L 215 159.975 L 215.6 161.575 " transform="matrix(1.25,0,0,1.25,-208.75,177.5)"/>
<path style="fill:none;stroke-width:1;stroke-linecap:round;stroke-linejoin:round;stroke:rgb(0%,0%,0%);stroke-opacity:1;stroke-miterlimit:10;" d="M 194.815625 138.0625 L 235.184375 138.0625 L 235.184375 145.79375 L 194.815625 145.79375 Z M 194.815625 138.0625 " transform="matrix(1.25,0,0,1.25,-208.75,177.5)"/>
<path style="fill:none;stroke-width:1;stroke-linecap:round;stroke-linejoin:round;stroke:rgb(0%,0%,0%);stroke-opacity:1;stroke-miterlimit:10;" d="M 215 150.34375 L 215 149.29375 " transform="matrix(1.25,0,0,1.25,-208.75,177.5)"/>
<path style="fill:none;stroke-width:1;stroke-linecap:butt;stroke-linejoin:miter;stroke:rgb(0%,0%,0%);stroke-opacity:1;stroke-miterlimit:10;" d="M 215 147.690625 L 215 149.29375 M 214.4 149.29375 L 215 147.690625 L 215.6 149.29375 " transform="matrix(1.25,0,0,1.25,-208.75,177.5)"/>
<path style="fill:none;stroke-width:1;stroke-linecap:round;stroke-linejoin:round;stroke:rgb(0%,0%,0%);stroke-opacity:1;stroke-dasharray:4,4;stroke-miterlimit:10;" d="M 189.79375 -59.35625 L 239.565625 -59.35625 L 239.565625 7.29375 L 189.79375 7.29375 Z M 189.79375 -59.35625 " transform="matrix(1.25,0,0,1.25,-208.75,177.5)"/>
<path style="fill-rule:nonzero;fill:rgb(69.803922%,85.098039%,100%);fill-opacity:1;stroke-width:1;stroke-linecap:round;stroke-linejoin:round;stroke:rgb(0%,0%,0%);stroke-opacity:1;stroke-miterlimit:10;" d="M 194.65625 -5.35 L 235.025 -5.35 L 235.025 2.378125 L 194.65625 2.378125 Z M 194.65625 -5.35 " transform="matrix(1.25,0,0,1.25,-208.75,177.5)"/>
<path style="fill:none;stroke-width:1;stroke-linecap:round;stroke-linejoin:round;stroke:rgb(0%,0%,0%);stroke-opacity:1;stroke-miterlimit:10;" d="M 214.840625 14.68125 L 214.840625 5.878125 " transform="matrix(1.25,0,0,1.25,-208.75,177.5)"/>
<path style="fill:none;stroke-width:1;stroke-linecap:butt;stroke-linejoin:miter;stroke:rgb(0%,0%,0%);stroke-opacity:1;stroke-miterlimit:10;" d="M 214.840625 4.278125 L 214.840625 5.878125 M 214.2375 5.878125 L 214.840625 4.278125 L 215.4375 5.878125 " transform="matrix(1.25,0,0,1.25,-208.75,177.5)"/>
<path style="fill-rule:nonzero;fill:rgb(40%,74.901961%,100%);fill-opacity:1;stroke-width:1;stroke-linecap:round;stroke-linejoin:round;stroke:rgb(0%,0%,0%);stroke-opacity:1;stroke-miterlimit:10;" d="M 216.725 -68.725 C 217.859375 -67.59375 217.859375 -65.7625 216.725 -64.628125 C 215.59375 -63.496875 213.7625 -63.496875 212.628125 -64.628125 C 211.496875 -65.7625 211.496875 -67.59375 212.628125 -68.725 C 213.7625 -69.859375 215.59375 -69.859375 216.725 -68.725 " transform="matrix(1.25,0,0,1.25,-208.75,177.5)"/>
<path style=" stroke:none;fill-rule:nonzero;fill:rgb(0%,0%,0%);fill-opacity:1;" d="M 59.511719 95.828125 L 59.511719 94.597656 L 58.300781 94.597656 L 58.300781 94.089844 L 59.511719 94.089844 L 59.511719 92.878906 L 60.039062 92.878906 L 60.039062 94.089844 L 61.25 94.089844 L 61.25 94.597656 L 60.039062 94.597656 L 60.039062 95.828125 Z M 59.511719 95.828125 "/>
<path style="fill:none;stroke-width:1;stroke-linecap:round;stroke-linejoin:round;stroke:rgb(0%,0%,0%);stroke-opacity:1;stroke-miterlimit:10;" d="M 194.65625 -17.63125 L 235.025 -17.63125 L 235.025 -9.90625 L 194.65625 -9.90625 Z M 194.65625 -17.63125 " transform="matrix(1.25,0,0,1.25,-208.75,177.5)"/>
<path style="fill-rule:nonzero;fill:rgb(40%,74.901961%,100%);fill-opacity:1;stroke-width:1;stroke-linecap:round;stroke-linejoin:round;stroke:rgb(0%,0%,0%);stroke-opacity:1;stroke-miterlimit:10;" d="M 194.65625 -81.73125 L 235.025 -81.73125 L 235.025 -74 L 194.65625 -74 Z M 194.65625 -81.73125 " transform="matrix(1.25,0,0,1.25,-208.75,177.5)"/>
<path style="fill-rule:nonzero;fill:rgb(40%,74.901961%,100%);fill-opacity:1;stroke-width:1;stroke-linecap:round;stroke-linejoin:round;stroke:rgb(0%,0%,0%);stroke-opacity:1;stroke-miterlimit:10;" d="M 194.65625 -29.91875 L 235.025 -29.91875 L 235.025 -22.1875 L 194.65625 -22.1875 Z M 194.65625 -29.91875 " transform="matrix(1.25,0,0,1.25,-208.75,177.5)"/>
<path style="fill:none;stroke-width:1;stroke-linecap:round;stroke-linejoin:round;stroke:rgb(0%,0%,0%);stroke-opacity:1;stroke-miterlimit:10;" d="M 214.840625 -5.35 L 214.840625 -6.40625 " transform="matrix(1.25,0,0,1.25,-208.75,177.5)"/>
<path style="fill:none;stroke-width:1;stroke-linecap:butt;stroke-linejoin:miter;stroke:rgb(0%,0%,0%);stroke-opacity:1;stroke-miterlimit:10;" d="M 214.840625 -8.003125 L 214.840625 -6.40625 M 214.2375 -6.40625 L 214.840625 -8.003125 L 215.4375 -6.40625 " transform="matrix(1.25,0,0,1.25,-208.75,177.5)"/>
<path style="fill:none;stroke-width:1;stroke-linecap:round;stroke-linejoin:round;stroke:rgb(0%,0%,0%);stroke-opacity:1;stroke-miterlimit:10;" d="M 214.840625 -17.63125 L 214.840625 -18.6875 " transform="matrix(1.25,0,0,1.25,-208.75,177.5)"/>
<path style="fill:none;stroke-width:1;stroke-linecap:butt;stroke-linejoin:miter;stroke:rgb(0%,0%,0%);stroke-opacity:1;stroke-miterlimit:10;" d="M 214.840625 -20.284375 L 214.840625 -18.6875 M 214.2375 -18.6875 L 214.840625 -20.284375 L 215.4375 -18.6875 " transform="matrix(1.25,0,0,1.25,-208.75,177.5)"/>
<path style="fill:none;stroke-width:1;stroke-linecap:round;stroke-linejoin:round;stroke:rgb(0%,0%,0%);stroke-opacity:1;stroke-miterlimit:10;" d="M 214.796875 -55.46875 L 214.746875 -60.28125 " transform="matrix(1.25,0,0,1.25,-208.75,177.5)"/>
<path style="fill:none;stroke-width:1;stroke-linecap:butt;stroke-linejoin:miter;stroke:rgb(0%,0%,0%);stroke-opacity:1;stroke-miterlimit:10;" d="M 214.73125 -61.878125 L 214.746875 -60.28125 M 214.14375 -60.275 L 214.73125 -61.878125 L 215.346875 -60.284375 " transform="matrix(1.25,0,0,1.25,-208.75,177.5)"/>
<path style="fill:none;stroke-width:1;stroke-linecap:round;stroke-linejoin:round;stroke:rgb(0%,0%,0%);stroke-opacity:1;stroke-miterlimit:10;" d="M 214.71875 -69.578125 L 214.734375 -70.5 " transform="matrix(1.25,0,0,1.25,-208.75,177.5)"/>
<path style="fill:none;stroke-width:1;stroke-linecap:butt;stroke-linejoin:miter;stroke:rgb(0%,0%,0%);stroke-opacity:1;stroke-miterlimit:10;" d="M 214.75625 -72.1 L 214.734375 -70.5 M 214.13125 -70.50625 L 214.75625 -72.1 L 215.33125 -70.49375 " transform="matrix(1.25,0,0,1.25,-208.75,177.5)"/>
<path style="fill:none;stroke-width:1;stroke-linecap:round;stroke-linejoin:round;stroke:rgb(0%,0%,0%);stroke-opacity:1;stroke-miterlimit:10;" d="M 214.840625 10.775 L 219.128125 10.775 C 219.13125 10.775 219.1375 10.775 219.140625 10.775 L 243.23125 10.56875 C 243.934375 10.5625 244.503125 9.99375 244.50625 9.284375 L 244.71875 -62.91875 C 244.71875 -62.91875 244.71875 -62.921875 244.71875 -62.921875 L 244.71875 -65.390625 C 244.71875 -66.1 244.140625 -66.68125 243.43125 -66.68125 L 221.078125 -66.68125 " transform="matrix(1.25,0,0,1.25,-208.75,177.5)"/>
<path style="fill:none;stroke-width:1;stroke-linecap:butt;stroke-linejoin:miter;stroke:rgb(0%,0%,0%);stroke-opacity:1;stroke-miterlimit:10;" d="M 219.475 -66.68125 L 221.078125 -66.68125 M 221.078125 -66.078125 L 219.475 -66.68125 L 221.078125 -67.278125 " transform="matrix(1.25,0,0,1.25,-208.75,177.5)"/>
<path style="fill-rule:nonzero;fill:rgb(69.803922%,85.098039%,100%);fill-opacity:1;stroke-width:1;stroke-linecap:round;stroke-linejoin:round;stroke:rgb(0%,0%,0%);stroke-opacity:1;stroke-miterlimit:10;" d="M 194.65625 -43.1875 L 235.025 -43.1875 L 235.025 -35.45625 L 194.65625 -35.45625 Z M 194.65625 -43.1875 " transform="matrix(1.25,0,0,1.25,-208.75,177.5)"/>
<path style="fill:none;stroke-width:1;stroke-linecap:round;stroke-linejoin:round;stroke:rgb(0%,0%,0%);stroke-opacity:1;stroke-miterlimit:10;" d="M 214.840625 -29.91875 L 214.840625 -31.95625 " transform="matrix(1.25,0,0,1.25,-208.75,177.5)"/>
<path style="fill:none;stroke-width:1;stroke-linecap:butt;stroke-linejoin:miter;stroke:rgb(0%,0%,0%);stroke-opacity:1;stroke-miterlimit:10;" d="M 214.840625 -33.559375 L 214.840625 -31.95625 M 214.2375 -31.95625 L 214.840625 -33.559375 L 215.4375 -31.95625 " transform="matrix(1.25,0,0,1.25,-208.75,177.5)"/>
<path style="fill:none;stroke-width:1;stroke-linecap:round;stroke-linejoin:round;stroke:rgb(0%,0%,0%);stroke-opacity:1;stroke-miterlimit:10;" d="M 194.65625 -55.46875 L 235.025 -55.46875 L 235.025 -47.7375 L 194.65625 -47.7375 Z M 194.65625 -55.46875 " transform="matrix(1.25,0,0,1.25,-208.75,177.5)"/>
<path style="fill:none;stroke-width:1;stroke-linecap:round;stroke-linejoin:round;stroke:rgb(0%,0%,0%);stroke-opacity:1;stroke-miterlimit:10;" d="M 214.840625 -43.1875 L 214.840625 -44.2375 " transform="matrix(1.25,0,0,1.25,-208.75,177.5)"/>
<path style="fill:none;stroke-width:1;stroke-linecap:butt;stroke-linejoin:miter;stroke:rgb(0%,0%,0%);stroke-opacity:1;stroke-miterlimit:10;" d="M 214.840625 -45.840625 L 214.840625 -44.2375 M 214.2375 -44.2375 L 214.840625 -45.840625 L 215.4375 -44.2375 " transform="matrix(1.25,0,0,1.25,-208.75,177.5)"/>
<path style="fill:none;stroke-width:1;stroke-linecap:round;stroke-linejoin:miter;stroke:rgb(0%,0%,0%);stroke-opacity:1;stroke-miterlimit:10;" d="M 304.95 -73.8 L 305.1875 102.425 " transform="matrix(1.25,0,0,1.25,-208.75,177.5)"/>
<path style="fill:none;stroke-width:1;stroke-linecap:butt;stroke-linejoin:miter;stroke:rgb(0%,0%,0%);stroke-opacity:1;stroke-miterlimit:10;" d="M 305.1875 102.425 L 305.2 110.425 M 300.2 110.434375 L 310.2 110.421875 M 303.1875 102.43125 L 305.2 109.425 L 307.1875 102.425 " transform="matrix(1.25,0,0,1.25,-208.75,177.5)"/>
<path style="fill:none;stroke-width:1;stroke-linecap:butt;stroke-linejoin:miter;stroke:rgb(0%,0%,0%);stroke-opacity:1;stroke-miterlimit:10;" d="M 304.95 -73.8 L 305 -81.8 M 310 -81.76875 L 300 -81.83125 M 306.95 -73.7875 L 304.99375 -80.8 L 302.95 -73.8125 " transform="matrix(1.25,0,0,1.25,-208.75,177.5)"/>
<path style="fill-rule:nonzero;fill:rgb(69.803922%,85.098039%,100%);fill-opacity:1;stroke-width:1;stroke-linecap:round;stroke-linejoin:round;stroke:rgb(0%,0%,0%);stroke-opacity:1;stroke-miterlimit:10;" d="M 168 364.68125 L 262 364.68125 L 262 382.68125 L 168 382.68125 Z M 168 364.68125 " transform="matrix(1.25,0,0,1.25,-208.75,177.5)"/>
<path style=" stroke:none;fill-rule:nonzero;fill:rgb(0%,0%,0%);fill-opacity:1;" d="M 33.324219 641.171875 L 33.324219 640.214844 L 38.539062 640.214844 L 38.539062 640.976562 C 38.03125 641.523438 37.523438 642.253906 37.015625 643.164062 C 36.507812 644.0625 36.117188 644.996094 35.84375 645.957031 C 35.648438 646.621094 35.523438 647.359375 35.472656 648.164062 L 34.457031 648.164062 C 34.46875 647.527344 34.59375 646.765625 34.828125 645.878906 C 35.0625 644.980469 35.402344 644.117188 35.84375 643.28125 C 36.300781 642.449219 36.773438 641.746094 37.269531 641.171875 Z M 33.324219 641.171875 "/>
<g clip-path="url(#clip1)" clip-rule="nonzero">
<path style=" stroke:none;fill-rule:nonzero;fill:rgb(0%,0%,0%);fill-opacity:1;" d="M 45.445312 645.023438 L 47.671875 642.796875 C 47.789062 642.660156 47.828125 642.640625 47.828125 642.5625 C 47.828125 642.425781 47.710938 642.328125 47.59375 642.328125 C 47.515625 642.328125 47.457031 642.367188 47.359375 642.484375 L 45.113281 644.710938 L 42.867188 642.484375 C 42.75 642.347656 42.710938 642.328125 42.632812 642.328125 C 42.515625 642.328125 42.398438 642.425781 42.398438 642.5625 C 42.398438 642.640625 42.457031 642.699219 42.554688 642.796875 L 44.78125 645.023438 L 42.554688 647.269531 C 42.4375 647.367188 42.398438 647.445312 42.398438 647.503906 C 42.398438 647.640625 42.515625 647.738281 42.632812 647.738281 C 42.710938 647.738281 42.75 647.71875 42.867188 647.582031 L 45.113281 645.355469 L 47.359375 647.582031 C 47.457031 647.699219 47.535156 647.738281 47.59375 647.738281 C 47.730469 647.738281 47.828125 647.640625 47.828125 647.503906 C 47.828125 647.425781 47.789062 647.40625 47.671875 647.269531 Z M 45.445312 645.023438 "/>
<path style=" stroke:none;fill-rule:nonzero;fill:rgb(0%,0%,0%);fill-opacity:1;" d="M 45.445312 645.023438 L 47.671875 642.796875 C 47.789062 642.660156 47.828125 642.640625 47.828125 642.5625 C 47.828125 642.425781 47.710938 642.328125 47.59375 642.328125 C 47.515625 642.328125 47.457031 642.367188 47.359375 642.484375 L 45.113281 644.710938 L 42.867188 642.484375 C 42.75 642.347656 42.710938 642.328125 42.632812 642.328125 C 42.515625 642.328125 42.398438 642.425781 42.398438 642.5625 C 42.398438 642.640625 42.457031 642.699219 42.554688 642.796875 L 44.78125 645.023438 L 42.554688 647.269531 C 42.4375 647.367188 42.398438 647.445312 42.398438 647.503906 C 42.398438 647.640625 42.515625 647.738281 42.632812 647.738281 C 42.710938 647.738281 42.75 647.71875 42.867188 647.582031 L 45.113281 645.355469 L 47.359375 647.582031 C 47.457031 647.699219 47.535156 647.738281 47.59375 647.738281 C 47.730469 647.738281 47.828125 647.640625 47.828125 647.503906 C 47.828125 647.425781 47.789062 647.40625 47.671875 647.269531 Z M 45.445312 645.023438 "/>
</g>
<path style=" stroke:none;fill-rule:nonzero;fill:rgb(0%,0%,0%);fill-opacity:1;" d="M 52.082031 641.171875 L 52.082031 640.214844 L 57.296875 640.214844 L 57.296875 640.976562 C 56.789062 641.523438 56.28125 642.253906 55.773438 643.164062 C 55.265625 644.0625 54.875 644.996094 54.601562 645.957031 C 54.40625 646.621094 54.28125 647.359375 54.230469 648.164062 L 53.214844 648.164062 C 53.226562 647.527344 53.351562 646.765625 53.585938 645.878906 C 53.820312 644.980469 54.160156 644.117188 54.601562 643.28125 C 55.058594 642.449219 55.53125 641.746094 56.027344 641.171875 Z M 52.082031 641.171875 "/>
<path style=" stroke:none;fill-rule:nonzero;fill:rgb(0%,0%,0%);fill-opacity:1;" d="M 67.554688 645.332031 L 68.609375 645.605469 C 68.386719 646.480469 67.984375 647.148438 67.398438 647.617188 C 66.824219 648.074219 66.113281 648.300781 65.269531 648.300781 C 64.410156 648.300781 63.707031 648.125 63.160156 647.773438 C 62.613281 647.421875 62.195312 646.914062 61.910156 646.25 C 61.636719 645.574219 61.5 644.851562 61.5 644.082031 C 61.5 643.238281 61.65625 642.5 61.96875 641.875 C 62.292969 641.25 62.75 640.78125 63.335938 640.46875 C 63.933594 640.144531 64.585938 639.980469 65.289062 639.980469 C 66.09375 639.980469 66.773438 640.191406 67.320312 640.605469 C 67.878906 641.011719 68.261719 641.582031 68.472656 642.324219 L 67.417969 642.558594 C 67.234375 641.972656 66.96875 641.550781 66.617188 641.289062 C 66.265625 641.015625 65.816406 640.878906 65.269531 640.878906 C 64.65625 640.878906 64.140625 641.03125 63.726562 641.328125 C 63.308594 641.628906 63.015625 642.03125 62.847656 642.539062 C 62.675781 643.035156 62.59375 643.542969 62.59375 644.0625 C 62.59375 644.753906 62.691406 645.359375 62.886719 645.878906 C 63.09375 646.386719 63.40625 646.765625 63.824219 647.011719 C 64.238281 647.261719 64.695312 647.382812 65.191406 647.382812 C 65.789062 647.382812 66.289062 647.214844 66.695312 646.875 C 67.109375 646.523438 67.398438 646.011719 67.554688 645.332031 Z M 67.554688 645.332031 "/>
<path style=" stroke:none;fill-rule:nonzero;fill:rgb(0%,0%,0%);fill-opacity:1;" d="M 69.425781 645.253906 C 69.425781 644.175781 69.722656 643.375 70.324219 642.851562 C 70.832031 642.421875 71.441406 642.207031 72.160156 642.207031 C 72.964844 642.207031 73.625 642.46875 74.132812 642.988281 C 74.640625 643.511719 74.894531 644.234375 74.894531 645.15625 C 74.894531 645.914062 74.777344 646.503906 74.542969 646.933594 C 74.316406 647.363281 73.996094 647.703125 73.566406 647.949219 C 73.136719 648.183594 72.667969 648.300781 72.160156 648.300781 C 71.339844 648.300781 70.675781 648.042969 70.167969 647.519531 C 69.667969 646.988281 69.425781 646.230469 69.425781 645.253906 Z M 70.441406 645.253906 C 70.441406 645.996094 70.601562 646.558594 70.929688 646.933594 C 71.25 647.300781 71.660156 647.480469 72.160156 647.480469 C 72.652344 647.480469 73.0625 647.300781 73.390625 646.933594 C 73.710938 646.558594 73.878906 645.984375 73.878906 645.214844 C 73.878906 644.5 73.710938 643.953125 73.390625 643.574219 C 73.0625 643.199219 72.652344 643.007812 72.160156 643.007812 C 71.660156 643.007812 71.25 643.199219 70.929688 643.574219 C 70.601562 643.941406 70.441406 644.5 70.441406 645.253906 Z M 70.441406 645.253906 "/>
<path style=" stroke:none;fill-rule:nonzero;fill:rgb(0%,0%,0%);fill-opacity:1;" d="M 76.050781 648.164062 L 76.050781 642.324219 L 76.949219 642.324219 L 76.949219 643.164062 C 77.363281 642.527344 77.984375 642.207031 78.804688 642.207031 C 79.15625 642.207031 79.472656 642.273438 79.761719 642.402344 C 80.058594 642.519531 80.277344 642.683594 80.425781 642.890625 C 80.566406 643.085938 80.667969 643.328125 80.738281 643.613281 C 80.777344 643.796875 80.796875 644.117188 80.796875 644.570312 L 80.796875 648.164062 L 79.800781 648.164062 L 79.800781 644.609375 C 79.800781 644.207031 79.761719 643.90625 79.683594 643.710938 C 79.605469 643.515625 79.46875 643.359375 79.273438 643.242188 C 79.078125 643.113281 78.847656 643.046875 78.589844 643.046875 C 78.167969 643.046875 77.808594 643.183594 77.496094 643.457031 C 77.191406 643.71875 77.046875 644.226562 77.046875 644.980469 L 77.046875 648.164062 Z M 76.050781 648.164062 "/>
<path style=" stroke:none;fill-rule:nonzero;fill:rgb(0%,0%,0%);fill-opacity:1;" d="M 83.921875 648.164062 L 81.695312 642.324219 L 82.75 642.324219 L 84 645.820312 C 84.128906 646.199219 84.253906 646.589844 84.371094 646.992188 C 84.460938 646.695312 84.585938 646.328125 84.742188 645.898438 L 86.03125 642.324219 L 87.046875 642.324219 L 84.839844 648.164062 Z M 83.921875 648.164062 "/>
<path style="fill:none;stroke-width:1;stroke-linecap:round;stroke-linejoin:round;stroke:rgb(0%,0%,0%);stroke-opacity:1;stroke-miterlimit:10;" d="M 168 336.078125 L 262 336.078125 L 262 354.078125 L 168 354.078125 Z M 168 336.078125 " transform="matrix(1.25,0,0,1.25,-208.75,177.5)"/>
<path style=" stroke:none;fill-rule:nonzero;fill:rgb(0%,0%,0%);fill-opacity:1;" d="M 32.058594 612.414062 L 32.058594 604.367188 L 35.085938 604.367188 C 35.695312 604.367188 36.183594 604.453125 36.550781 604.621094 C 36.925781 604.777344 37.21875 605.027344 37.429688 605.363281 C 37.648438 605.703125 37.761719 606.054688 37.761719 606.417969 C 37.761719 606.769531 37.664062 607.097656 37.46875 607.394531 C 37.28125 607.695312 37.003906 607.941406 36.628906 608.136719 C 37.105469 608.28125 37.476562 608.523438 37.742188 608.859375 C 38.015625 609.199219 38.152344 609.601562 38.152344 610.070312 C 38.152344 610.449219 38.0625 610.800781 37.898438 611.125 C 37.742188 611.453125 37.546875 611.707031 37.3125 611.886719 C 37.078125 612.058594 36.785156 612.1875 36.433594 612.277344 C 36.082031 612.371094 35.640625 612.414062 35.125 612.414062 Z M 33.132812 607.746094 L 34.871094 607.746094 C 35.339844 607.746094 35.675781 607.714844 35.886719 607.648438 C 36.160156 607.570312 36.359375 607.441406 36.492188 607.257812 C 36.632812 607.0625 36.707031 606.828125 36.707031 606.554688 C 36.707031 606.28125 36.636719 606.046875 36.511719 605.851562 C 36.378906 605.644531 36.199219 605.5 35.964844 605.421875 C 35.730469 605.34375 35.320312 605.304688 34.734375 605.304688 L 33.132812 605.304688 Z M 33.132812 611.457031 L 35.125 611.457031 C 35.476562 611.457031 35.71875 611.445312 35.867188 611.417969 C 36.101562 611.378906 36.300781 611.308594 36.472656 611.203125 C 36.636719 611.101562 36.773438 610.949219 36.882812 610.753906 C 36.984375 610.558594 37.039062 610.332031 37.039062 610.070312 C 37.039062 609.773438 36.960938 609.511719 36.804688 609.289062 C 36.648438 609.070312 36.433594 608.917969 36.160156 608.839844 C 35.886719 608.75 35.496094 608.703125 34.988281 608.703125 L 33.132812 608.703125 Z M 33.132812 611.457031 "/>
<path style=" stroke:none;fill-rule:nonzero;fill:rgb(0%,0%,0%);fill-opacity:1;" d="M 43.292969 611.691406 C 42.925781 612.003906 42.574219 612.226562 42.238281 612.355469 C 41.894531 612.480469 41.535156 612.550781 41.144531 612.550781 C 40.503906 612.550781 40.011719 612.394531 39.660156 612.082031 C 39.316406 611.769531 39.152344 611.367188 39.152344 610.871094 C 39.152344 610.585938 39.214844 610.324219 39.347656 610.089844 C 39.472656 609.855469 39.644531 609.667969 39.855469 609.523438 C 40.058594 609.382812 40.292969 609.269531 40.558594 609.191406 C 40.753906 609.152344 41.046875 609.109375 41.4375 609.054688 C 42.242188 608.964844 42.832031 608.847656 43.214844 608.703125 C 43.214844 608.574219 43.214844 608.488281 43.214844 608.449219 C 43.214844 608.046875 43.121094 607.765625 42.941406 607.609375 C 42.675781 607.375 42.300781 607.257812 41.808594 607.257812 C 41.339844 607.257812 40.992188 607.34375 40.773438 607.511719 C 40.546875 607.667969 40.386719 607.957031 40.285156 608.371094 L 39.328125 608.253906 C 39.40625 607.839844 39.542969 607.507812 39.738281 607.257812 C 39.941406 607 40.234375 606.804688 40.617188 606.671875 C 41.007812 606.53125 41.445312 606.457031 41.945312 606.457031 C 42.453125 606.457031 42.851562 606.515625 43.15625 606.632812 C 43.46875 606.75 43.691406 606.902344 43.839844 607.082031 C 43.996094 607.253906 44.097656 607.472656 44.152344 607.746094 C 44.191406 607.917969 44.210938 608.214844 44.210938 608.644531 L 44.210938 609.972656 C 44.210938 610.886719 44.230469 611.464844 44.269531 611.710938 C 44.308594 611.960938 44.390625 612.195312 44.523438 612.414062 L 43.488281 612.414062 C 43.378906 612.207031 43.316406 611.964844 43.292969 611.691406 Z M 43.214844 609.484375 C 42.847656 609.628906 42.304688 609.753906 41.59375 609.855469 C 41.1875 609.921875 40.898438 609.992188 40.734375 610.070312 C 40.5625 610.136719 40.429688 610.242188 40.34375 610.382812 C 40.25 610.527344 40.207031 610.683594 40.207031 610.851562 C 40.207031 611.113281 40.304688 611.335938 40.5 611.515625 C 40.695312 611.6875 40.988281 611.769531 41.378906 611.769531 C 41.753906 611.769531 42.089844 611.6875 42.394531 611.515625 C 42.691406 611.347656 42.910156 611.121094 43.058594 610.832031 C 43.160156 610.613281 43.214844 610.285156 43.214844 609.855469 Z M 43.214844 609.484375 "/>
<path style=" stroke:none;fill-rule:nonzero;fill:rgb(0%,0%,0%);fill-opacity:1;" d="M 47.910156 611.535156 L 48.046875 612.394531 C 47.757812 612.457031 47.507812 612.492188 47.304688 612.492188 C 46.9375 612.492188 46.660156 612.433594 46.464844 612.316406 C 46.269531 612.199219 46.121094 612.050781 46.035156 611.867188 C 45.957031 611.6875 45.917969 611.300781 45.917969 610.714844 L 45.917969 607.355469 L 45.195312 607.355469 L 45.195312 606.574219 L 45.917969 606.574219 L 45.917969 605.128906 L 46.914062 604.542969 L 46.914062 606.574219 L 47.910156 606.574219 L 47.910156 607.355469 L 46.914062 607.355469 L 46.914062 610.753906 C 46.914062 611.042969 46.921875 611.222656 46.953125 611.300781 C 46.992188 611.378906 47.050781 611.445312 47.128906 611.496094 C 47.207031 611.550781 47.3125 611.574219 47.460938 611.574219 C 47.578125 611.574219 47.722656 611.5625 47.910156 611.535156 Z M 47.910156 611.535156 "/>
<path style=" stroke:none;fill-rule:nonzero;fill:rgb(0%,0%,0%);fill-opacity:1;" d="M 52.675781 610.285156 L 53.652344 610.402344 C 53.542969 611.082031 53.269531 611.609375 52.832031 611.984375 C 52.386719 612.363281 51.84375 612.550781 51.210938 612.550781 C 50.414062 612.550781 49.773438 612.292969 49.296875 611.769531 C 48.8125 611.25 48.574219 610.5 48.574219 609.523438 C 48.574219 608.886719 48.675781 608.332031 48.886719 607.863281 C 49.089844 607.394531 49.402344 607.042969 49.824219 606.808594 C 50.253906 606.574219 50.722656 606.457031 51.230469 606.457031 C 51.855469 606.457031 52.367188 606.621094 52.773438 606.945312 C 53.171875 607.257812 53.4375 607.707031 53.554688 608.292969 L 52.597656 608.449219 C 52.503906 608.058594 52.34375 607.765625 52.109375 607.570312 C 51.875 607.363281 51.589844 607.257812 51.269531 607.257812 C 50.761719 607.257812 50.351562 607.441406 50.039062 607.804688 C 49.734375 608.15625 49.589844 608.71875 49.589844 609.484375 C 49.589844 610.28125 49.734375 610.851562 50.039062 611.203125 C 50.335938 611.554688 50.726562 611.730469 51.210938 611.730469 C 51.601562 611.730469 51.921875 611.613281 52.1875 611.378906 C 52.445312 611.144531 52.605469 610.78125 52.675781 610.285156 Z M 52.675781 610.285156 "/>
<path style=" stroke:none;fill-rule:nonzero;fill:rgb(0%,0%,0%);fill-opacity:1;" d="M 54.492188 612.414062 L 54.492188 604.367188 L 55.488281 604.367188 L 55.488281 607.257812 C 55.941406 606.726562 56.523438 606.457031 57.226562 606.457031 C 57.65625 606.457031 58.027344 606.542969 58.339844 606.710938 C 58.660156 606.882812 58.890625 607.117188 59.023438 607.414062 C 59.164062 607.714844 59.238281 608.152344 59.238281 608.722656 L 59.238281 612.414062 L 58.261719 612.414062 L 58.261719 608.722656 C 58.261719 608.230469 58.148438 607.871094 57.929688 607.648438 C 57.71875 607.414062 57.421875 607.296875 57.03125 607.296875 C 56.726562 607.296875 56.449219 607.375 56.191406 607.53125 C 55.925781 607.675781 55.746094 607.878906 55.644531 608.136719 C 55.535156 608.398438 55.488281 608.761719 55.488281 609.230469 L 55.488281 612.414062 Z M 54.492188 612.414062 "/>
<path style=" stroke:none;fill-rule:nonzero;fill:rgb(0%,0%,0%);fill-opacity:1;" d="M 63.875 612.414062 L 63.875 606.574219 L 64.773438 606.574219 L 64.773438 607.414062 C 65.1875 606.777344 65.808594 606.457031 66.628906 606.457031 C 66.980469 606.457031 67.296875 606.523438 67.585938 606.652344 C 67.882812 606.769531 68.101562 606.933594 68.25 607.140625 C 68.390625 607.335938 68.492188 607.578125 68.5625 607.863281 C 68.601562 608.046875 68.621094 608.367188 68.621094 608.820312 L 68.621094 612.414062 L 67.625 612.414062 L 67.625 608.859375 C 67.625 608.457031 67.585938 608.15625 67.507812 607.960938 C 67.429688 607.765625 67.292969 607.609375 67.097656 607.492188 C 66.902344 607.363281 66.671875 607.296875 66.414062 607.296875 C 65.992188 607.296875 65.632812 607.433594 65.320312 607.707031 C 65.015625 607.96875 64.871094 608.476562 64.871094 609.230469 L 64.871094 612.414062 Z M 63.875 612.414062 "/>
<path style=" stroke:none;fill-rule:nonzero;fill:rgb(0%,0%,0%);fill-opacity:1;" d="M 69.761719 609.503906 C 69.761719 608.425781 70.058594 607.625 70.660156 607.101562 C 71.167969 606.671875 71.777344 606.457031 72.496094 606.457031 C 73.300781 606.457031 73.960938 606.71875 74.46875 607.238281 C 74.976562 607.761719 75.230469 608.484375 75.230469 609.40625 C 75.230469 610.164062 75.113281 610.753906 74.878906 611.183594 C 74.652344 611.613281 74.332031 611.953125 73.902344 612.199219 C 73.472656 612.433594 73.003906 612.550781 72.496094 612.550781 C 71.675781 612.550781 71.011719 612.292969 70.503906 611.769531 C 70.003906 611.238281 69.761719 610.480469 69.761719 609.503906 Z M 70.777344 609.503906 C 70.777344 610.246094 70.9375 610.808594 71.265625 611.183594 C 71.585938 611.550781 71.996094 611.730469 72.496094 611.730469 C 72.988281 611.730469 73.398438 611.550781 73.726562 611.183594 C 74.046875 610.808594 74.214844 610.234375 74.214844 609.464844 C 74.214844 608.75 74.046875 608.203125 73.726562 607.824219 C 73.398438 607.449219 72.988281 607.257812 72.496094 607.257812 C 71.996094 607.257812 71.585938 607.449219 71.265625 607.824219 C 70.9375 608.191406 70.777344 608.75 70.777344 609.503906 Z M 70.777344 609.503906 "/>
<path style=" stroke:none;fill-rule:nonzero;fill:rgb(0%,0%,0%);fill-opacity:1;" d="M 76.367188 612.414062 L 76.367188 606.574219 L 77.265625 606.574219 L 77.265625 607.472656 C 77.488281 607.058594 77.695312 606.785156 77.890625 606.652344 C 78.085938 606.523438 78.300781 606.457031 78.535156 606.457031 C 78.859375 606.457031 79.199219 606.5625 79.550781 606.769531 L 79.199219 607.6875 C 78.964844 607.546875 78.722656 607.472656 78.476562 607.472656 C 78.269531 607.472656 78.074219 607.539062 77.890625 607.667969 C 77.722656 607.800781 77.597656 607.980469 77.519531 608.214844 C 77.414062 608.566406 77.363281 608.953125 77.363281 609.367188 L 77.363281 612.414062 Z M 76.367188 612.414062 "/>
<path style=" stroke:none;fill-rule:nonzero;fill:rgb(0%,0%,0%);fill-opacity:1;" d="M 80.132812 612.414062 L 80.132812 606.574219 L 81.011719 606.574219 L 81.011719 607.394531 C 81.195312 607.109375 81.433594 606.882812 81.734375 606.710938 C 82.046875 606.542969 82.398438 606.457031 82.789062 606.457031 C 83.21875 606.457031 83.570312 606.550781 83.84375 606.730469 C 84.117188 606.902344 84.3125 607.148438 84.429688 607.472656 C 84.898438 606.796875 85.496094 606.457031 86.226562 606.457031 C 86.8125 606.457031 87.261719 606.621094 87.574219 606.945312 C 87.886719 607.257812 88.042969 607.746094 88.042969 608.410156 L 88.042969 612.414062 L 87.046875 612.414062 L 87.046875 608.742188 C 87.046875 608.339844 87.015625 608.054688 86.949219 607.882812 C 86.898438 607.714844 86.785156 607.578125 86.617188 607.472656 C 86.449219 607.355469 86.246094 607.296875 86.011719 607.296875 C 85.609375 607.296875 85.269531 607.433594 84.996094 607.707031 C 84.722656 607.980469 84.585938 608.417969 84.585938 609.015625 L 84.585938 612.414062 L 83.589844 612.414062 L 83.589844 608.625 C 83.589844 608.183594 83.511719 607.851562 83.355469 607.628906 C 83.199219 607.410156 82.9375 607.296875 82.574219 607.296875 C 82.289062 607.296875 82.027344 607.375 81.792969 607.53125 C 81.558594 607.675781 81.390625 607.890625 81.285156 608.175781 C 81.179688 608.449219 81.128906 608.855469 81.128906 609.386719 L 81.128906 612.414062 Z M 80.132812 612.414062 "/>
<path style="fill-rule:nonzero;fill:rgb(40%,74.901961%,100%);fill-opacity:1;stroke-width:1;stroke-linecap:round;stroke-linejoin:round;stroke:rgb(0%,0%,0%);stroke-opacity:1;stroke-miterlimit:10;" d="M 168 307.475 L 262 307.475 L 262 325.475 L 168 325.475 Z M 168 307.475 " transform="matrix(1.25,0,0,1.25,-208.75,177.5)"/>
<path style=" stroke:none;fill-rule:nonzero;fill:rgb(0%,0%,0%);fill-opacity:1;" d="M 24.515625 574.535156 L 25.511719 574.398438 C 25.628906 574.960938 25.8125 575.363281 26.078125 575.609375 C 26.351562 575.859375 26.6875 575.980469 27.09375 575.980469 C 27.546875 575.980469 27.933594 575.824219 28.246094 575.511719 C 28.566406 575.1875 28.734375 574.785156 28.734375 574.300781 C 28.734375 573.847656 28.582031 573.476562 28.285156 573.1875 C 27.996094 572.890625 27.625 572.738281 27.171875 572.738281 C 26.976562 572.738281 26.742188 572.777344 26.46875 572.855469 L 26.585938 571.976562 C 26.648438 571.992188 26.703125 571.996094 26.742188 571.996094 C 27.15625 571.996094 27.53125 571.886719 27.875 571.664062 C 28.210938 571.445312 28.382812 571.105469 28.382812 570.648438 C 28.382812 570.285156 28.253906 569.984375 28.011719 569.75 C 27.761719 569.515625 27.445312 569.398438 27.054688 569.398438 C 26.671875 569.398438 26.355469 569.523438 26.097656 569.769531 C 25.847656 570.003906 25.6875 570.363281 25.609375 570.84375 L 24.613281 570.667969 C 24.738281 570.003906 25.011719 569.492188 25.433594 569.125 C 25.863281 568.761719 26.394531 568.578125 27.035156 568.578125 C 27.472656 568.578125 27.878906 568.675781 28.246094 568.871094 C 28.621094 569.054688 28.910156 569.308594 29.105469 569.632812 C 29.300781 569.960938 29.398438 570.304688 29.398438 570.667969 C 29.398438 571.019531 29.300781 571.339844 29.105469 571.625 C 28.917969 571.914062 28.644531 572.140625 28.285156 572.308594 C 28.761719 572.414062 29.132812 572.640625 29.398438 572.992188 C 29.65625 573.332031 29.789062 573.761719 29.789062 574.28125 C 29.789062 574.984375 29.523438 575.585938 29.007812 576.078125 C 28.5 576.5625 27.855469 576.800781 27.074219 576.800781 C 26.371094 576.800781 25.785156 576.59375 25.316406 576.175781 C 24.847656 575.761719 24.578125 575.214844 24.515625 574.535156 Z M 24.515625 574.535156 "/>
<g clip-path="url(#clip2)" clip-rule="nonzero">
<path style=" stroke:none;fill-rule:nonzero;fill:rgb(0%,0%,0%);fill-opacity:1;" d="M 36.691406 573.734375 L 38.917969 571.507812 C 39.035156 571.371094 39.074219 571.351562 39.074219 571.273438 C 39.074219 571.136719 38.957031 571.039062 38.839844 571.039062 C 38.761719 571.039062 38.703125 571.078125 38.605469 571.195312 L 36.359375 573.421875 L 34.113281 571.195312 C 33.996094 571.058594 33.957031 571.039062 33.878906 571.039062 C 33.761719 571.039062 33.644531 571.136719 33.644531 571.273438 C 33.644531 571.351562 33.703125 571.410156 33.800781 571.507812 L 36.027344 573.734375 L 33.800781 575.980469 C 33.683594 576.078125 33.644531 576.15625 33.644531 576.214844 C 33.644531 576.351562 33.761719 576.449219 33.878906 576.449219 C 33.957031 576.449219 33.996094 576.429688 34.113281 576.292969 L 36.359375 574.066406 L 38.605469 576.292969 C 38.703125 576.410156 38.78125 576.449219 38.839844 576.449219 C 38.976562 576.449219 39.074219 576.351562 39.074219 576.214844 C 39.074219 576.136719 39.035156 576.117188 38.917969 575.980469 Z M 36.691406 573.734375 "/>
<path style=" stroke:none;fill-rule:nonzero;fill:rgb(0%,0%,0%);fill-opacity:1;" d="M 36.691406 573.734375 L 38.917969 571.507812 C 39.035156 571.371094 39.074219 571.351562 39.074219 571.273438 C 39.074219 571.136719 38.957031 571.039062 38.839844 571.039062 C 38.761719 571.039062 38.703125 571.078125 38.605469 571.195312 L 36.359375 573.421875 L 34.113281 571.195312 C 33.996094 571.058594 33.957031 571.039062 33.878906 571.039062 C 33.761719 571.039062 33.644531 571.136719 33.644531 571.273438 C 33.644531 571.351562 33.703125 571.410156 33.800781 571.507812 L 36.027344 573.734375 L 33.800781 575.980469 C 33.683594 576.078125 33.644531 576.15625 33.644531 576.214844 C 33.644531 576.351562 33.761719 576.449219 33.878906 576.449219 C 33.957031 576.449219 33.996094 576.429688 34.113281 576.292969 L 36.359375 574.066406 L 38.605469 576.292969 C 38.703125 576.410156 38.78125 576.449219 38.839844 576.449219 C 38.976562 576.449219 39.074219 576.351562 39.074219 576.214844 C 39.074219 576.136719 39.035156 576.117188 38.917969 575.980469 Z M 36.691406 573.734375 "/>
</g>
<path style=" stroke:none;fill-rule:nonzero;fill:rgb(0%,0%,0%);fill-opacity:1;" d="M 43.269531 574.535156 L 44.265625 574.398438 C 44.382812 574.960938 44.570312 575.363281 44.832031 575.609375 C 45.105469 575.859375 45.445312 575.980469 45.847656 575.980469 C 46.304688 575.980469 46.6875 575.824219 47 575.511719 C 47.324219 575.1875 47.488281 574.785156 47.488281 574.300781 C 47.488281 573.847656 47.339844 573.476562 47.039062 573.1875 C 46.753906 572.890625 46.382812 572.738281 45.925781 572.738281 C 45.730469 572.738281 45.496094 572.777344 45.222656 572.855469 L 45.339844 571.976562 C 45.40625 571.992188 45.457031 571.996094 45.496094 571.996094 C 45.914062 571.996094 46.289062 571.886719 46.628906 571.664062 C 46.96875 571.445312 47.136719 571.105469 47.136719 570.648438 C 47.136719 570.285156 47.011719 569.984375 46.765625 569.75 C 46.519531 569.515625 46.199219 569.398438 45.808594 569.398438 C 45.429688 569.398438 45.113281 569.523438 44.851562 569.769531 C 44.605469 570.003906 44.441406 570.363281 44.363281 570.84375 L 43.367188 570.667969 C 43.496094 570.003906 43.769531 569.492188 44.1875 569.125 C 44.617188 568.761719 45.152344 568.578125 45.789062 568.578125 C 46.230469 568.578125 46.636719 568.675781 47 568.871094 C 47.378906 569.054688 47.664062 569.308594 47.859375 569.632812 C 48.054688 569.960938 48.152344 570.304688 48.152344 570.667969 C 48.152344 571.019531 48.054688 571.339844 47.859375 571.625 C 47.675781 571.914062 47.402344 572.140625 47.039062 572.308594 C 47.519531 572.414062 47.890625 572.640625 48.152344 572.992188 C 48.414062 573.332031 48.542969 573.761719 48.542969 574.28125 C 48.542969 574.984375 48.28125 575.585938 47.761719 576.078125 C 47.253906 576.5625 46.609375 576.800781 45.828125 576.800781 C 45.125 576.800781 44.539062 576.59375 44.070312 576.175781 C 43.601562 575.761719 43.335938 575.214844 43.269531 574.535156 Z M 43.269531 574.535156 "/>
<path style=" stroke:none;fill-rule:nonzero;fill:rgb(0%,0%,0%);fill-opacity:1;" d="M 53.023438 576.664062 L 53.023438 568.617188 L 54.625 568.617188 L 56.519531 574.320312 C 56.703125 574.84375 56.832031 575.238281 56.910156 575.511719 C 57 575.214844 57.144531 574.785156 57.339844 574.222656 L 59.273438 568.617188 L 60.699219 568.617188 L 60.699219 576.664062 L 59.683594 576.664062 L 59.683594 569.925781 L 57.339844 576.664062 L 56.382812 576.664062 L 54.039062 569.808594 L 54.039062 576.664062 Z M 53.023438 576.664062 "/>
<path style=" stroke:none;fill-rule:nonzero;fill:rgb(0%,0%,0%);fill-opacity:1;" d="M 66.105469 575.941406 C 65.742188 576.253906 65.390625 576.476562 65.050781 576.605469 C 64.710938 576.730469 64.347656 576.800781 63.957031 576.800781 C 63.320312 576.800781 62.824219 576.644531 62.472656 576.332031 C 62.132812 576.019531 61.964844 575.617188 61.964844 575.121094 C 61.964844 574.835938 62.03125 574.574219 62.160156 574.339844 C 62.289062 574.105469 62.460938 573.917969 62.667969 573.773438 C 62.875 573.632812 63.109375 573.519531 63.371094 573.441406 C 63.566406 573.402344 63.859375 573.359375 64.25 573.304688 C 65.058594 573.214844 65.648438 573.097656 66.027344 572.953125 C 66.027344 572.824219 66.027344 572.738281 66.027344 572.699219 C 66.027344 572.296875 65.9375 572.015625 65.753906 571.859375 C 65.492188 571.625 65.117188 571.507812 64.621094 571.507812 C 64.152344 571.507812 63.808594 571.59375 63.585938 571.761719 C 63.363281 571.917969 63.203125 572.207031 63.097656 572.621094 L 62.140625 572.503906 C 62.21875 572.089844 62.355469 571.757812 62.550781 571.507812 C 62.757812 571.25 63.050781 571.054688 63.429688 570.921875 C 63.820312 570.78125 64.261719 570.707031 64.757812 570.707031 C 65.265625 570.707031 65.667969 570.765625 65.96875 570.882812 C 66.28125 571 66.507812 571.152344 66.652344 571.332031 C 66.808594 571.503906 66.914062 571.722656 66.964844 571.996094 C 67.003906 572.167969 67.023438 572.464844 67.023438 572.894531 L 67.023438 574.222656 C 67.023438 575.136719 67.042969 575.714844 67.082031 575.960938 C 67.121094 576.210938 67.207031 576.445312 67.335938 576.664062 L 66.300781 576.664062 C 66.195312 576.457031 66.132812 576.214844 66.105469 575.941406 Z M 66.027344 573.734375 C 65.664062 573.878906 65.121094 574.003906 64.40625 574.105469 C 64.003906 574.171875 63.714844 574.242188 63.546875 574.320312 C 63.378906 574.386719 63.246094 574.492188 63.15625 574.632812 C 63.066406 574.777344 63.019531 574.933594 63.019531 575.101562 C 63.019531 575.363281 63.117188 575.585938 63.3125 575.765625 C 63.507812 575.9375 63.800781 576.019531 64.191406 576.019531 C 64.570312 576.019531 64.90625 575.9375 65.207031 575.765625 C 65.507812 575.597656 65.726562 575.371094 65.871094 575.082031 C 65.976562 574.863281 66.027344 574.535156 66.027344 574.105469 Z M 66.027344 573.734375 "/>
<path style=" stroke:none;fill-rule:nonzero;fill:rgb(0%,0%,0%);fill-opacity:1;" d="M 67.890625 576.664062 L 70.019531 573.636719 L 68.046875 570.824219 L 69.296875 570.824219 L 70.195312 572.191406 C 70.351562 572.453125 70.480469 572.675781 70.585938 572.855469 C 70.753906 572.609375 70.90625 572.394531 71.035156 572.210938 L 72.011719 570.824219 L 73.203125 570.824219 L 71.191406 573.578125 L 73.359375 576.664062 L 72.148438 576.664062 L 70.9375 574.847656 L 70.625 574.359375 L 69.101562 576.664062 Z M 67.890625 576.664062 "/>
<path style=" stroke:none;fill-rule:nonzero;fill:rgb(0%,0%,0%);fill-opacity:1;" d="M 74.296875 576.664062 L 74.296875 568.617188 L 77.34375 568.617188 C 77.878906 568.617188 78.289062 568.644531 78.574219 568.695312 C 78.964844 568.761719 79.289062 568.886719 79.550781 569.066406 C 79.824219 569.25 80.039062 569.511719 80.195312 569.847656 C 80.363281 570.175781 80.449219 570.539062 80.449219 570.941406 C 80.449219 571.632812 80.226562 572.210938 79.785156 572.679688 C 79.355469 573.148438 78.574219 573.382812 77.441406 573.382812 L 75.371094 573.382812 L 75.371094 576.664062 Z M 75.371094 572.445312 L 77.460938 572.445312 C 78.136719 572.445312 78.621094 572.316406 78.90625 572.054688 C 79.207031 571.796875 79.355469 571.4375 79.355469 570.980469 C 79.355469 570.644531 79.269531 570.355469 79.101562 570.121094 C 78.933594 569.875 78.703125 569.710938 78.417969 569.632812 C 78.25 569.582031 77.917969 569.554688 77.421875 569.554688 L 75.371094 569.554688 Z M 75.371094 572.445312 "/>
<path style=" stroke:none;fill-rule:nonzero;fill:rgb(0%,0%,0%);fill-opacity:1;" d="M 81.3125 573.753906 C 81.3125 572.675781 81.609375 571.875 82.210938 571.351562 C 82.71875 570.921875 83.328125 570.707031 84.046875 570.707031 C 84.851562 570.707031 85.511719 570.96875 86.019531 571.488281 C 86.527344 572.011719 86.78125 572.734375 86.78125 573.65625 C 86.78125 574.414062 86.664062 575.003906 86.429688 575.433594 C 86.207031 575.863281 85.882812 576.203125 85.453125 576.449219 C 85.023438 576.683594 84.554688 576.800781 84.046875 576.800781 C 83.226562 576.800781 82.5625 576.542969 82.054688 576.019531 C 81.558594 575.488281 81.3125 574.730469 81.3125 573.753906 Z M 82.328125 573.753906 C 82.328125 574.496094 82.488281 575.058594 82.816406 575.433594 C 83.140625 575.800781 83.550781 575.980469 84.046875 575.980469 C 84.539062 575.980469 84.949219 575.800781 85.277344 575.433594 C 85.601562 575.058594 85.765625 574.484375 85.765625 573.714844 C 85.765625 573 85.601562 572.453125 85.277344 572.074219 C 84.949219 571.699219 84.539062 571.507812 84.046875 571.507812 C 83.550781 571.507812 83.140625 571.699219 82.816406 572.074219 C 82.488281 572.441406 82.328125 573 82.328125 573.753906 Z M 82.328125 573.753906 "/>
<path style=" stroke:none;fill-rule:nonzero;fill:rgb(0%,0%,0%);fill-opacity:1;" d="M 87.570312 573.753906 C 87.570312 572.675781 87.867188 571.875 88.46875 571.351562 C 88.976562 570.921875 89.585938 570.707031 90.304688 570.707031 C 91.109375 570.707031 91.769531 570.96875 92.277344 571.488281 C 92.785156 572.011719 93.039062 572.734375 93.039062 573.65625 C 93.039062 574.414062 92.921875 575.003906 92.6875 575.433594 C 92.464844 575.863281 92.140625 576.203125 91.710938 576.449219 C 91.28125 576.683594 90.8125 576.800781 90.304688 576.800781 C 89.484375 576.800781 88.820312 576.542969 88.3125 576.019531 C 87.816406 575.488281 87.570312 574.730469 87.570312 573.753906 Z M 88.585938 573.753906 C 88.585938 574.496094 88.746094 575.058594 89.074219 575.433594 C 89.398438 575.800781 89.808594 575.980469 90.304688 575.980469 C 90.796875 575.980469 91.207031 575.800781 91.535156 575.433594 C 91.859375 575.058594 92.023438 574.484375 92.023438 573.714844 C 92.023438 573 91.859375 572.453125 91.535156 572.074219 C 91.207031 571.699219 90.796875 571.507812 90.304688 571.507812 C 89.808594 571.507812 89.398438 571.699219 89.074219 572.074219 C 88.746094 572.441406 88.585938 573 88.585938 573.753906 Z M 88.585938 573.753906 "/>
<path style=" stroke:none;fill-rule:nonzero;fill:rgb(0%,0%,0%);fill-opacity:1;" d="M 94.179688 576.664062 L 94.179688 568.617188 L 95.15625 568.617188 L 95.15625 576.664062 Z M 94.179688 576.664062 "/>
<path style="fill:none;stroke-width:1;stroke-linecap:round;stroke-linejoin:round;stroke:rgb(0%,0%,0%);stroke-opacity:1;stroke-miterlimit:10;" d="M 215 364.68125 L 215 359.975 " transform="matrix(1.25,0,0,1.25,-208.75,177.5)"/>
<path style="fill:none;stroke-width:1;stroke-linecap:butt;stroke-linejoin:miter;stroke:rgb(0%,0%,0%);stroke-opacity:1;stroke-miterlimit:10;" d="M 215 355.975 L 215 359.975 M 213.5 359.975 L 215 355.975 L 216.5 359.975 " transform="matrix(1.25,0,0,1.25,-208.75,177.5)"/>
<path style="fill:none;stroke-width:1;stroke-linecap:round;stroke-linejoin:round;stroke:rgb(0%,0%,0%);stroke-opacity:1;stroke-miterlimit:10;" d="M 215 336.078125 L 215 331.378125 " transform="matrix(1.25,0,0,1.25,-208.75,177.5)"/>
<path style="fill:none;stroke-width:1;stroke-linecap:butt;stroke-linejoin:miter;stroke:rgb(0%,0%,0%);stroke-opacity:1;stroke-miterlimit:10;" d="M 215 327.378125 L 215 331.378125 M 213.5 331.378125 L 215 327.378125 L 216.5 331.378125 " transform="matrix(1.25,0,0,1.25,-208.75,177.5)"/>
<path style="fill:none;stroke-width:1;stroke-linecap:round;stroke-linejoin:round;stroke:rgb(0%,0%,0%);stroke-opacity:1;stroke-miterlimit:10;" d="M 214.95 307.475 L 214.89375 298.21875 " transform="matrix(1.25,0,0,1.25,-208.75,177.5)"/>
<path style="fill:none;stroke-width:1;stroke-linecap:butt;stroke-linejoin:miter;stroke:rgb(0%,0%,0%);stroke-opacity:1;stroke-miterlimit:10;" d="M 214.871875 294.21875 L 214.89375 298.21875 M 213.39375 298.23125 L 214.871875 294.21875 L 216.39375 298.2125 " transform="matrix(1.25,0,0,1.25,-208.75,177.5)"/>
<path style=" stroke:none;fill-rule:nonzero;fill:rgb(100%,100%,100%);fill-opacity:1;" d="M 156.742188 184.015625 L 187.992188 183.472656 L 188.4375 208.832031 L 157.183594 209.378906 Z M 156.742188 184.015625 "/>
<path style=" stroke:none;fill-rule:nonzero;fill:rgb(0%,0%,0%);fill-opacity:1;" d="M 165.265625 197.996094 L 166.261719 197.839844 C 166.390625 198.402344 166.585938 198.808594 166.847656 199.050781 C 167.121094 199.285156 167.457031 199.398438 167.863281 199.382812 C 168.316406 199.382812 168.703125 199.222656 169.015625 198.894531 C 169.339844 198.574219 169.496094 198.167969 169.484375 197.683594 C 169.46875 197.230469 169.3125 196.859375 169.015625 196.570312 C 168.714844 196.289062 168.335938 196.140625 167.882812 196.140625 C 167.6875 196.140625 167.457031 196.191406 167.199219 196.277344 L 167.296875 195.398438 C 167.359375 195.414062 167.414062 195.417969 167.453125 195.417969 C 167.867188 195.410156 168.238281 195.292969 168.566406 195.066406 C 168.902344 194.832031 169.074219 194.492188 169.074219 194.03125 C 169.058594 193.671875 168.929688 193.378906 168.683594 193.152344 C 168.433594 192.917969 168.117188 192.800781 167.726562 192.800781 C 167.347656 192.816406 167.027344 192.949219 166.769531 193.191406 C 166.519531 193.441406 166.363281 193.808594 166.300781 194.285156 L 165.304688 194.109375 C 165.421875 193.445312 165.6875 192.933594 166.105469 192.566406 C 166.519531 192.191406 167.046875 191.996094 167.6875 191.980469 C 168.128906 191.980469 168.53125 192.074219 168.898438 192.253906 C 169.273438 192.441406 169.5625 192.695312 169.757812 193.015625 C 169.964844 193.328125 170.074219 193.671875 170.089844 194.03125 C 170.089844 194.382812 169.996094 194.710938 169.816406 195.007812 C 169.632812 195.296875 169.359375 195.527344 168.996094 195.691406 C 169.476562 195.800781 169.847656 196.019531 170.109375 196.355469 C 170.382812 196.699219 170.523438 197.128906 170.539062 197.644531 C 170.550781 198.347656 170.304688 198.949219 169.796875 199.441406 C 169.289062 199.941406 168.644531 200.191406 167.863281 200.203125 C 167.160156 200.214844 166.566406 200.023438 166.085938 199.617188 C 165.617188 199.203125 165.34375 198.660156 165.265625 197.996094 Z M 165.265625 197.996094 "/>
<g clip-path="url(#clip3)" clip-rule="nonzero">
<g clip-path="url(#clip4)" clip-rule="nonzero">
<g clip-path="url(#clip5)" clip-rule="nonzero">
<g clip-path="url(#clip6)" clip-rule="nonzero">
<path style=" stroke:none;fill-rule:nonzero;fill:rgb(0%,0%,0%);fill-opacity:1;" d="M 177.636719 196.773438 L 179.84375 194.507812 C 179.941406 194.371094 179.980469 194.351562 179.980469 194.273438 C 179.980469 194.136719 179.863281 194.039062 179.746094 194.039062 C 179.667969 194.039062 179.609375 194.078125 179.511719 194.195312 L 177.304688 196.460938 L 175.019531 194.273438 C 174.902344 194.136719 174.863281 194.117188 174.785156 194.117188 C 174.667969 194.117188 174.550781 194.234375 174.550781 194.371094 C 174.550781 194.449219 174.609375 194.488281 174.726562 194.585938 L 176.972656 196.773438 L 174.785156 199.058594 C 174.6875 199.175781 174.648438 199.253906 174.648438 199.3125 C 174.648438 199.449219 174.765625 199.527344 174.882812 199.527344 C 174.960938 199.527344 175 199.507812 175.117188 199.371094 L 177.324219 197.105469 L 179.609375 199.292969 C 179.707031 199.410156 179.785156 199.449219 179.84375 199.449219 C 179.980469 199.449219 180.078125 199.351562 180.078125 199.214844 C 180.078125 199.136719 180.039062 199.117188 179.902344 198.980469 Z M 177.636719 196.773438 "/>
<path style=" stroke:none;fill-rule:nonzero;fill:rgb(0%,0%,0%);fill-opacity:1;" d="M 177.636719 196.773438 L 179.84375 194.507812 C 179.941406 194.371094 179.980469 194.351562 179.980469 194.273438 C 179.980469 194.136719 179.863281 194.039062 179.746094 194.039062 C 179.667969 194.039062 179.609375 194.078125 179.511719 194.195312 L 177.304688 196.460938 L 175.019531 194.273438 C 174.902344 194.136719 174.863281 194.117188 174.785156 194.117188 C 174.667969 194.117188 174.550781 194.234375 174.550781 194.371094 C 174.550781 194.449219 174.609375 194.488281 174.726562 194.585938 L 176.972656 196.773438 L 174.785156 199.058594 C 174.6875 199.175781 174.648438 199.253906 174.648438 199.3125 C 174.648438 199.449219 174.765625 199.527344 174.882812 199.527344 C 174.960938 199.527344 175 199.507812 175.117188 199.371094 L 177.324219 197.105469 L 179.609375 199.292969 C 179.707031 199.410156 179.785156 199.449219 179.84375 199.449219 C 179.980469 199.449219 180.078125 199.351562 180.078125 199.214844 C 180.078125 199.136719 180.039062 199.117188 179.902344 198.980469 Z M 177.636719 196.773438 "/>
</g>
</g>
</g>
</g>
<path style="fill-rule:nonzero;fill:rgb(40%,74.901961%,100%);fill-opacity:1;stroke-width:1;stroke-linecap:round;stroke-linejoin:round;stroke:rgb(0%,0%,0%);stroke-opacity:1;stroke-miterlimit:10;" d="M 168 -111.6 L 262 -111.6 L 262 -93.6 L 168 -93.6 Z M 168 -111.6 " transform="matrix(1.25,0,0,1.25,-208.75,177.5)"/>
<path style=" stroke:none;fill-rule:nonzero;fill:rgb(0%,0%,0%);fill-opacity:1;" d="M 26.265625 49.652344 L 26.265625 48.714844 L 29.683594 48.714844 L 29.683594 51.703125 C 29.164062 52.121094 28.621094 52.433594 28.0625 52.640625 C 27.503906 52.84375 26.929688 52.953125 26.34375 52.953125 C 25.5625 52.953125 24.847656 52.785156 24.195312 52.445312 C 23.542969 52.109375 23.054688 51.621094 22.730469 50.980469 C 22.40625 50.34375 22.242188 49.628906 22.242188 48.832031 C 22.242188 48.050781 22.40625 47.324219 22.730469 46.644531 C 23.054688 45.957031 23.523438 45.449219 24.136719 45.121094 C 24.761719 44.796875 25.472656 44.632812 26.265625 44.632812 C 26.851562 44.632812 27.378906 44.730469 27.847656 44.925781 C 28.316406 45.109375 28.679688 45.371094 28.941406 45.707031 C 29.214844 46.035156 29.421875 46.46875 29.566406 47.015625 L 28.609375 47.269531 C 28.480469 46.867188 28.324219 46.546875 28.140625 46.3125 C 27.972656 46.078125 27.71875 45.890625 27.378906 45.746094 C 27.054688 45.605469 26.683594 45.53125 26.265625 45.53125 C 25.785156 45.53125 25.359375 45.609375 24.996094 45.765625 C 24.644531 45.910156 24.359375 46.105469 24.136719 46.351562 C 23.929688 46.585938 23.765625 46.847656 23.648438 47.132812 C 23.441406 47.640625 23.335938 48.183594 23.335938 48.753906 C 23.335938 49.484375 23.460938 50.089844 23.707031 50.570312 C 23.953125 51.054688 24.3125 51.410156 24.78125 51.644531 C 25.25 51.878906 25.75 51.996094 26.285156 51.996094 C 26.753906 51.996094 27.203125 51.914062 27.632812 51.742188 C 28.074219 51.5625 28.414062 51.367188 28.648438 51.15625 L 28.648438 49.652344 Z M 26.265625 49.652344 "/>
<path style=" stroke:none;fill-rule:nonzero;fill:rgb(0%,0%,0%);fill-opacity:1;" d="M 31.113281 52.816406 L 31.113281 44.769531 L 32.089844 44.769531 L 32.089844 52.816406 Z M 31.113281 52.816406 "/>
<path style=" stroke:none;fill-rule:nonzero;fill:rgb(0%,0%,0%);fill-opacity:1;" d="M 33.257812 49.90625 C 33.257812 48.828125 33.558594 48.027344 34.15625 47.503906 C 34.664062 47.074219 35.277344 46.859375 35.992188 46.859375 C 36.800781 46.859375 37.457031 47.121094 37.964844 47.640625 C 38.472656 48.164062 38.726562 48.886719 38.726562 49.808594 C 38.726562 50.566406 38.609375 51.15625 38.375 51.585938 C 38.152344 52.015625 37.828125 52.355469 37.398438 52.601562 C 36.96875 52.835938 36.5 52.953125 35.992188 52.953125 C 35.171875 52.953125 34.507812 52.695312 34 52.171875 C 33.503906 51.640625 33.257812 50.882812 33.257812 49.90625 Z M 34.273438 49.90625 C 34.273438 50.648438 34.4375 51.210938 34.761719 51.585938 C 35.085938 51.953125 35.496094 52.132812 35.992188 52.132812 C 36.488281 52.132812 36.898438 51.953125 37.222656 51.585938 C 37.546875 51.210938 37.710938 50.636719 37.710938 49.867188 C 37.710938 49.152344 37.546875 48.605469 37.222656 48.226562 C 36.898438 47.851562 36.488281 47.660156 35.992188 47.660156 C 35.496094 47.660156 35.085938 47.851562 34.761719 48.226562 C 34.4375 48.59375 34.273438 49.152344 34.273438 49.90625 Z M 34.273438 49.90625 "/>
<path style=" stroke:none;fill-rule:nonzero;fill:rgb(0%,0%,0%);fill-opacity:1;" d="M 40.804688 52.816406 L 39.886719 52.816406 L 39.886719 44.769531 L 40.863281 44.769531 L 40.863281 47.640625 C 41.28125 47.121094 41.8125 46.859375 42.464844 46.859375 C 42.828125 46.859375 43.167969 46.933594 43.480469 47.074219 C 43.804688 47.21875 44.074219 47.421875 44.28125 47.679688 C 44.488281 47.941406 44.652344 48.261719 44.769531 48.636719 C 44.886719 49.003906 44.945312 49.394531 44.945312 49.808594 C 44.945312 50.8125 44.699219 51.585938 44.203125 52.132812 C 43.707031 52.679688 43.117188 52.953125 42.425781 52.953125 C 41.734375 52.953125 41.195312 52.667969 40.804688 52.09375 Z M 40.785156 49.847656 C 40.785156 50.550781 40.882812 51.058594 41.078125 51.371094 C 41.390625 51.878906 41.808594 52.132812 42.328125 52.132812 C 42.769531 52.132812 43.148438 51.945312 43.460938 51.566406 C 43.773438 51.191406 43.929688 50.628906 43.929688 49.886719 C 43.929688 49.132812 43.78125 48.574219 43.480469 48.207031 C 43.179688 47.84375 42.816406 47.660156 42.386719 47.660156 C 41.945312 47.660156 41.566406 47.851562 41.253906 48.226562 C 40.941406 48.605469 40.785156 49.144531 40.785156 49.847656 Z M 40.785156 49.847656 "/>
<path style=" stroke:none;fill-rule:nonzero;fill:rgb(0%,0%,0%);fill-opacity:1;" d="M 49.953125 52.09375 C 49.585938 52.40625 49.234375 52.628906 48.898438 52.757812 C 48.558594 52.882812 48.195312 52.953125 47.804688 52.953125 C 47.164062 52.953125 46.671875 52.796875 46.320312 52.484375 C 45.980469 52.171875 45.8125 51.769531 45.8125 51.273438 C 45.8125 50.988281 45.875 50.726562 46.007812 50.492188 C 46.136719 50.257812 46.304688 50.070312 46.515625 49.925781 C 46.722656 49.785156 46.957031 49.671875 47.21875 49.59375 C 47.414062 49.554688 47.707031 49.511719 48.097656 49.457031 C 48.902344 49.367188 49.496094 49.25 49.875 49.105469 C 49.875 48.976562 49.875 48.890625 49.875 48.851562 C 49.875 48.449219 49.78125 48.167969 49.601562 48.011719 C 49.339844 47.777344 48.960938 47.660156 48.46875 47.660156 C 48 47.660156 47.652344 47.746094 47.433594 47.914062 C 47.210938 48.070312 47.046875 48.359375 46.945312 48.773438 L 45.988281 48.65625 C 46.066406 48.242188 46.203125 47.910156 46.398438 47.660156 C 46.605469 47.402344 46.898438 47.207031 47.277344 47.074219 C 47.667969 46.933594 48.109375 46.859375 48.605469 46.859375 C 49.113281 46.859375 49.515625 46.917969 49.816406 47.035156 C 50.128906 47.152344 50.355469 47.304688 50.5 47.484375 C 50.65625 47.65625 50.757812 47.875 50.8125 48.148438 C 50.851562 48.320312 50.871094 48.617188 50.871094 49.046875 L 50.871094 50.375 C 50.871094 51.289062 50.890625 51.867188 50.929688 52.113281 C 50.96875 52.363281 51.050781 52.597656 51.183594 52.816406 L 50.148438 52.816406 C 50.042969 52.609375 49.976562 52.367188 49.953125 52.09375 Z M 49.875 49.886719 C 49.507812 50.03125 48.96875 50.15625 48.253906 50.257812 C 47.847656 50.324219 47.5625 50.394531 47.394531 50.472656 C 47.222656 50.539062 47.09375 50.644531 47.003906 50.785156 C 46.910156 50.929688 46.867188 51.085938 46.867188 51.253906 C 46.867188 51.515625 46.964844 51.738281 47.160156 51.917969 C 47.355469 52.089844 47.648438 52.171875 48.039062 52.171875 C 48.414062 52.171875 48.753906 52.089844 49.054688 51.917969 C 49.351562 51.75 49.574219 51.523438 49.71875 51.234375 C 49.820312 51.015625 49.875 50.6875 49.875 50.257812 Z M 49.875 49.886719 "/>
<path style=" stroke:none;fill-rule:nonzero;fill:rgb(0%,0%,0%);fill-opacity:1;" d="M 52.382812 52.816406 L 52.382812 44.769531 L 53.359375 44.769531 L 53.359375 52.816406 Z M 52.382812 52.816406 "/>
<path style=" stroke:none;fill-rule:nonzero;fill:rgb(0%,0%,0%);fill-opacity:1;" d="M 56.644531 52.816406 L 59.75 44.769531 L 60.882812 44.769531 L 64.183594 52.816406 L 62.972656 52.816406 L 62.035156 50.375 L 58.65625 50.375 L 57.777344 52.816406 Z M 58.96875 49.515625 L 61.703125 49.515625 L 60.863281 47.269531 C 60.601562 46.59375 60.414062 46.039062 60.296875 45.609375 C 60.191406 46.132812 60.042969 46.644531 59.847656 47.152344 Z M 58.96875 49.515625 "/>
<path style=" stroke:none;fill-rule:nonzero;fill:rgb(0%,0%,0%);fill-opacity:1;" d="M 66.328125 52.816406 L 64.101562 46.976562 L 65.15625 46.976562 L 66.40625 50.472656 C 66.535156 50.851562 66.660156 51.242188 66.777344 51.644531 C 66.867188 51.347656 66.992188 50.980469 67.148438 50.550781 L 68.4375 46.976562 L 69.453125 46.976562 L 67.246094 52.816406 Z M 66.328125 52.816406 "/>
<path style=" stroke:none;fill-rule:nonzero;fill:rgb(0%,0%,0%);fill-opacity:1;" d="M 74.316406 50.941406 L 75.351562 51.058594 C 75.179688 51.660156 74.875 52.128906 74.433594 52.464844 C 74.003906 52.792969 73.449219 52.953125 72.773438 52.953125 C 71.925781 52.953125 71.25 52.695312 70.742188 52.171875 C 70.246094 51.640625 70 50.898438 70 49.945312 C 70 48.96875 70.253906 48.214844 70.761719 47.679688 C 71.269531 47.132812 71.925781 46.859375 72.734375 46.859375 C 73.515625 46.859375 74.144531 47.128906 74.628906 47.660156 C 75.121094 48.183594 75.371094 48.925781 75.371094 49.886719 C 75.371094 49.953125 75.371094 50.042969 75.371094 50.160156 L 71.015625 50.160156 C 71.054688 50.800781 71.234375 51.289062 71.5625 51.625 C 71.886719 51.964844 72.296875 52.132812 72.792969 52.132812 C 73.15625 52.132812 73.460938 52.042969 73.710938 51.859375 C 73.96875 51.664062 74.171875 51.359375 74.316406 50.941406 Z M 71.074219 49.339844 L 74.335938 49.339844 C 74.296875 48.847656 74.171875 48.476562 73.964844 48.226562 C 73.652344 47.851562 73.242188 47.660156 72.734375 47.660156 C 72.277344 47.660156 71.894531 47.816406 71.582031 48.128906 C 71.28125 48.429688 71.113281 48.832031 71.074219 49.339844 Z M 71.074219 49.339844 "/>
<path style=" stroke:none;fill-rule:nonzero;fill:rgb(0%,0%,0%);fill-opacity:1;" d="M 76.707031 52.816406 L 76.707031 44.769531 L 79.753906 44.769531 C 80.285156 44.769531 80.695312 44.796875 80.984375 44.847656 C 81.375 44.914062 81.699219 45.039062 81.960938 45.21875 C 82.234375 45.402344 82.449219 45.664062 82.605469 46 C 82.773438 46.328125 82.859375 46.691406 82.859375 47.09375 C 82.859375 47.785156 82.636719 48.363281 82.195312 48.832031 C 81.765625 49.300781 80.984375 49.535156 79.851562 49.535156 L 77.78125 49.535156 L 77.78125 52.816406 Z M 77.78125 48.597656 L 79.871094 48.597656 C 80.546875 48.597656 81.027344 48.46875 81.316406 48.207031 C 81.613281 47.949219 81.765625 47.589844 81.765625 47.132812 C 81.765625 46.796875 81.679688 46.507812 81.511719 46.273438 C 81.339844 46.027344 81.113281 45.863281 80.828125 45.785156 C 80.65625 45.734375 80.324219 45.707031 79.832031 45.707031 L 77.78125 45.707031 Z M 77.78125 48.597656 "/>
<path style=" stroke:none;fill-rule:nonzero;fill:rgb(0%,0%,0%);fill-opacity:1;" d="M 83.722656 49.90625 C 83.722656 48.828125 84.019531 48.027344 84.621094 47.503906 C 85.128906 47.074219 85.738281 46.859375 86.457031 46.859375 C 87.261719 46.859375 87.921875 47.121094 88.429688 47.640625 C 88.9375 48.164062 89.191406 48.886719 89.191406 49.808594 C 89.191406 50.566406 89.074219 51.15625 88.839844 51.585938 C 88.613281 52.015625 88.292969 52.355469 87.863281 52.601562 C 87.433594 52.835938 86.964844 52.953125 86.457031 52.953125 C 85.636719 52.953125 84.972656 52.695312 84.464844 52.171875 C 83.964844 51.640625 83.722656 50.882812 83.722656 49.90625 Z M 84.738281 49.90625 C 84.738281 50.648438 84.898438 51.210938 85.226562 51.585938 C 85.546875 51.953125 85.957031 52.132812 86.457031 52.132812 C 86.949219 52.132812 87.359375 51.953125 87.6875 51.585938 C 88.007812 51.210938 88.175781 50.636719 88.175781 49.867188 C 88.175781 49.152344 88.007812 48.605469 87.6875 48.226562 C 87.359375 47.851562 86.949219 47.660156 86.457031 47.660156 C 85.957031 47.660156 85.546875 47.851562 85.226562 48.226562 C 84.898438 48.59375 84.738281 49.152344 84.738281 49.90625 Z M 84.738281 49.90625 "/>
<path style=" stroke:none;fill-rule:nonzero;fill:rgb(0%,0%,0%);fill-opacity:1;" d="M 89.980469 49.90625 C 89.980469 48.828125 90.277344 48.027344 90.878906 47.503906 C 91.386719 47.074219 91.996094 46.859375 92.714844 46.859375 C 93.519531 46.859375 94.179688 47.121094 94.6875 47.640625 C 95.195312 48.164062 95.449219 48.886719 95.449219 49.808594 C 95.449219 50.566406 95.332031 51.15625 95.097656 51.585938 C 94.871094 52.015625 94.550781 52.355469 94.121094 52.601562 C 93.691406 52.835938 93.222656 52.953125 92.714844 52.953125 C 91.894531 52.953125 91.230469 52.695312 90.722656 52.171875 C 90.222656 51.640625 89.980469 50.882812 89.980469 49.90625 Z M 90.996094 49.90625 C 90.996094 50.648438 91.15625 51.210938 91.484375 51.585938 C 91.804688 51.953125 92.214844 52.132812 92.714844 52.132812 C 93.207031 52.132812 93.617188 51.953125 93.945312 51.585938 C 94.265625 51.210938 94.433594 50.636719 94.433594 49.867188 C 94.433594 49.152344 94.265625 48.605469 93.945312 48.226562 C 93.617188 47.851562 93.207031 47.660156 92.714844 47.660156 C 92.214844 47.660156 91.804688 47.851562 91.484375 48.226562 C 91.15625 48.59375 90.996094 49.152344 90.996094 49.90625 Z M 90.996094 49.90625 "/>
<path style=" stroke:none;fill-rule:nonzero;fill:rgb(0%,0%,0%);fill-opacity:1;" d="M 96.589844 52.816406 L 96.589844 44.769531 L 97.566406 44.769531 L 97.566406 52.816406 Z M 96.589844 52.816406 "/>
<path style="fill:none;stroke-width:1;stroke-linecap:round;stroke-linejoin:round;stroke:rgb(0%,0%,0%);stroke-opacity:1;stroke-miterlimit:10;" d="M 214.8625 -81.73125 L 214.903125 -87.7 " transform="matrix(1.25,0,0,1.25,-208.75,177.5)"/>
<path style="fill:none;stroke-width:1;stroke-linecap:butt;stroke-linejoin:miter;stroke:rgb(0%,0%,0%);stroke-opacity:1;stroke-miterlimit:10;" d="M 214.93125 -91.7 L 214.903125 -87.7 M 213.403125 -87.7125 L 214.93125 -91.7 L 216.403125 -87.690625 " transform="matrix(1.25,0,0,1.25,-208.75,177.5)"/>
<path style="fill:none;stroke-width:1;stroke-linecap:round;stroke-linejoin:round;stroke:rgb(0%,0%,0%);stroke-opacity:1;stroke-miterlimit:10;" d="M 167.68125 -141.46875 L 261.68125 -141.46875 L 261.68125 -123.46875 L 167.68125 -123.46875 Z M 167.68125 -141.46875 " transform="matrix(1.25,0,0,1.25,-208.75,177.5)"/>
<path style=" stroke:none;fill-rule:nonzero;fill:rgb(0%,0%,0%);fill-opacity:1;" d="M 53.015625 15.480469 L 53.015625 7.433594 L 58.445312 7.433594 L 58.445312 8.371094 L 54.089844 8.371094 L 54.089844 10.871094 L 57.859375 10.871094 L 57.859375 11.828125 L 54.089844 11.828125 L 54.089844 15.480469 Z M 53.015625 15.480469 "/>
<path style=" stroke:none;fill-rule:nonzero;fill:rgb(0%,0%,0%);fill-opacity:1;" d="M 65.59375 12.648438 L 66.648438 12.921875 C 66.421875 13.792969 66.023438 14.464844 65.4375 14.933594 C 64.859375 15.390625 64.152344 15.617188 63.308594 15.617188 C 62.449219 15.617188 61.746094 15.441406 61.199219 15.089844 C 60.652344 14.738281 60.230469 14.230469 59.949219 13.566406 C 59.675781 12.890625 59.539062 12.167969 59.539062 11.398438 C 59.539062 10.550781 59.695312 9.816406 60.007812 9.191406 C 60.328125 8.566406 60.789062 8.097656 61.375 7.785156 C 61.96875 7.460938 62.625 7.296875 63.328125 7.296875 C 64.132812 7.296875 64.8125 7.503906 65.359375 7.921875 C 65.914062 8.324219 66.300781 8.898438 66.511719 9.640625 L 65.457031 9.875 C 65.269531 9.289062 65.007812 8.867188 64.65625 8.605469 C 64.304688 8.332031 63.855469 8.195312 63.308594 8.195312 C 62.691406 8.195312 62.179688 8.34375 61.765625 8.644531 C 61.34375 8.945312 61.050781 9.347656 60.886719 9.855469 C 60.714844 10.351562 60.632812 10.859375 60.632812 11.378906 C 60.632812 12.070312 60.730469 12.675781 60.925781 13.195312 C 61.128906 13.703125 61.441406 14.082031 61.863281 14.328125 C 62.277344 14.574219 62.730469 14.699219 63.230469 14.699219 C 63.824219 14.699219 64.328125 14.53125 64.734375 14.191406 C 65.148438 13.839844 65.4375 13.324219 65.59375 12.648438 Z M 65.59375 12.648438 "/>
<path style="fill:none;stroke-width:1;stroke-linecap:round;stroke-linejoin:round;stroke:rgb(0%,0%,0%);stroke-opacity:1;stroke-miterlimit:10;" d="M 214.903125 -111.6 L 214.840625 -117.56875 " transform="matrix(1.25,0,0,1.25,-208.75,177.5)"/>
<path style="fill:none;stroke-width:1;stroke-linecap:butt;stroke-linejoin:miter;stroke:rgb(0%,0%,0%);stroke-opacity:1;stroke-miterlimit:10;" d="M 214.796875 -121.56875 L 214.840625 -117.56875 M 213.340625 -117.55625 L 214.796875 -121.56875 L 216.340625 -117.5875 " transform="matrix(1.25,0,0,1.25,-208.75,177.5)"/>
</g>
</svg>
