<?xml version="1.0" encoding="UTF-8"?>
<svg xmlns="http://www.w3.org/2000/svg" xmlns:xlink="http://www.w3.org/1999/xlink" width="430pt" height="188pt" viewBox="0 0 430 188" version="1.1">
<g id="surface1">
<path style=" stroke:none;fill-rule:nonzero;fill:rgb(0%,0%,0%);fill-opacity:1;" d="M 95.75 11.347656 C 95.496094 11.640625 95.183594 11.914062 94.792969 12.167969 C 94.402344 12.382812 94.03125 12.539062 93.660156 12.65625 L 93.660156 13.574219 C 94.421875 13.339844 95.046875 12.988281 95.554688 12.460938 L 95.554688 19.375 L 96.472656 19.375 L 96.472656 11.347656 Z M 95.75 11.347656 "/>
<path style=" stroke:none;fill-rule:nonzero;fill:rgb(0%,0%,0%);fill-opacity:1;" d="M 157.878906 11.191406 C 157.058594 11.191406 156.394531 11.445312 155.90625 11.992188 C 155.398438 12.519531 155.144531 13.242188 155.144531 14.140625 L 156.0625 14.140625 C 156.082031 13.4375 156.257812 12.890625 156.570312 12.539062 C 156.863281 12.148438 157.292969 11.972656 157.839844 11.972656 C 158.347656 11.972656 158.777344 12.109375 159.070312 12.382812 C 159.363281 12.65625 159.5 13.027344 159.5 13.515625 C 159.5 14.023438 159.285156 14.511719 158.875 14.960938 C 158.660156 15.175781 158.25 15.507812 157.625 15.957031 C 156.765625 16.542969 156.199219 17.03125 155.886719 17.382812 C 155.339844 17.988281 155.085938 18.652344 155.085938 19.375 L 160.4375 19.375 L 160.4375 18.554688 L 156.21875 18.554688 C 156.355469 18.007812 156.941406 17.402344 157.976562 16.699219 C 158.796875 16.152344 159.363281 15.703125 159.636719 15.410156 C 160.144531 14.84375 160.417969 14.21875 160.417969 13.515625 C 160.417969 12.832031 160.183594 12.246094 159.695312 11.835938 C 159.226562 11.40625 158.621094 11.191406 157.878906 11.191406 Z M 157.878906 11.191406 "/>
<path style=" stroke:none;fill-rule:nonzero;fill:rgb(0%,0%,0%);fill-opacity:1;" d="M 222.417969 11.191406 C 221.65625 11.191406 221.03125 11.40625 220.5625 11.835938 C 220.054688 12.285156 219.761719 12.890625 219.703125 13.652344 L 220.621094 13.652344 C 220.679688 13.125 220.855469 12.695312 221.167969 12.402344 C 221.460938 12.109375 221.890625 11.992188 222.417969 11.992188 C 222.945312 11.992188 223.355469 12.109375 223.648438 12.382812 C 223.921875 12.617188 224.078125 12.96875 224.078125 13.417969 C 224.078125 13.867188 223.921875 14.21875 223.648438 14.472656 C 223.355469 14.707031 222.945312 14.824219 222.417969 14.824219 L 221.792969 14.824219 L 221.792969 15.546875 L 222.457031 15.546875 C 223.003906 15.546875 223.433594 15.664062 223.746094 15.9375 C 224.078125 16.210938 224.234375 16.582031 224.234375 17.070312 C 224.234375 17.539062 224.058594 17.929688 223.746094 18.242188 C 223.394531 18.574219 222.925781 18.75 222.359375 18.75 C 221.851562 18.75 221.441406 18.59375 221.089844 18.320312 C 220.699219 18.007812 220.484375 17.519531 220.464844 16.894531 L 219.527344 16.894531 C 219.605469 17.792969 219.917969 18.476562 220.484375 18.945312 C 220.972656 19.335938 221.597656 19.53125 222.359375 19.53125 C 223.199219 19.53125 223.863281 19.296875 224.390625 18.828125 C 224.898438 18.359375 225.152344 17.773438 225.152344 17.03125 C 225.152344 16.5625 225.015625 16.171875 224.742188 15.859375 C 224.488281 15.546875 224.136719 15.3125 223.667969 15.175781 C 224.546875 14.882812 224.976562 14.257812 224.976562 13.359375 C 224.976562 12.695312 224.742188 12.167969 224.273438 11.777344 C 223.804688 11.367188 223.179688 11.191406 222.417969 11.191406 Z M 222.417969 11.191406 "/>
<path style=" stroke:none;fill-rule:nonzero;fill:rgb(0%,0%,0%);fill-opacity:1;" d="M 7.339844 11.972656 L 7.339844 12.773438 L 10.171875 12.773438 L 10.171875 20 L 11.089844 20 L 11.089844 12.773438 L 13.921875 12.773438 L 13.921875 11.972656 Z M 7.339844 11.972656 "/>
<path style=" stroke:none;fill-rule:nonzero;fill:rgb(0%,0%,0%);fill-opacity:1;" d="M 15.550781 11.992188 C 15.355469 11.992188 15.199219 12.050781 15.0625 12.1875 C 14.925781 12.285156 14.867188 12.460938 14.867188 12.65625 C 14.867188 12.851562 14.925781 13.007812 15.0625 13.144531 C 15.199219 13.261719 15.355469 13.320312 15.550781 13.320312 C 15.746094 13.320312 15.902344 13.261719 16.019531 13.144531 C 16.15625 13.007812 16.234375 12.851562 16.234375 12.65625 C 16.234375 12.460938 16.15625 12.285156 16.019531 12.1875 C 15.902344 12.050781 15.746094 11.992188 15.550781 11.992188 Z M 15.101562 14.179688 L 15.101562 20 L 16 20 L 16 14.179688 Z M 15.101562 14.179688 "/>
<path style=" stroke:none;fill-rule:nonzero;fill:rgb(0%,0%,0%);fill-opacity:1;" d="M 20.230469 14.023438 C 19.566406 14.023438 19.019531 14.335938 18.589844 14.960938 L 18.589844 14.179688 L 17.691406 14.179688 L 17.691406 20 L 18.589844 20 L 18.589844 16.464844 C 18.589844 15.996094 18.726562 15.605469 19 15.292969 C 19.253906 14.941406 19.605469 14.785156 20.015625 14.785156 C 20.894531 14.785156 21.34375 15.292969 21.34375 16.328125 L 21.34375 20 L 22.261719 20 L 22.261719 16.347656 C 22.261719 15.878906 22.378906 15.507812 22.652344 15.214844 C 22.886719 14.921875 23.21875 14.785156 23.609375 14.785156 C 24.097656 14.785156 24.449219 14.921875 24.683594 15.175781 C 24.898438 15.429688 25.015625 15.820312 25.015625 16.328125 L 25.015625 20 L 25.914062 20 L 25.914062 16.191406 C 25.914062 15.527344 25.71875 15 25.367188 14.609375 C 24.976562 14.21875 24.488281 14.023438 23.882812 14.023438 C 23.472656 14.023438 23.140625 14.121094 22.867188 14.296875 C 22.554688 14.472656 22.28125 14.746094 22.046875 15.136719 C 21.714844 14.394531 21.109375 14.023438 20.230469 14.023438 Z M 20.230469 14.023438 "/>
<path style=" stroke:none;fill-rule:nonzero;fill:rgb(0%,0%,0%);fill-opacity:1;" d="M 29.691406 14.023438 C 28.851562 14.023438 28.1875 14.335938 27.699219 14.941406 C 27.210938 15.507812 26.957031 16.230469 26.957031 17.089844 C 26.957031 18.027344 27.210938 18.769531 27.738281 19.335938 C 28.226562 19.882812 28.910156 20.15625 29.730469 20.15625 C 30.492188 20.15625 31.097656 19.941406 31.585938 19.511719 C 31.976562 19.140625 32.25 18.691406 32.367188 18.125 L 31.46875 18.125 C 31.332031 18.535156 31.136719 18.847656 30.882812 19.042969 C 30.589844 19.277344 30.199219 19.394531 29.730469 19.394531 C 29.183594 19.394531 28.734375 19.21875 28.421875 18.867188 C 28.109375 18.496094 27.953125 17.988281 27.894531 17.34375 L 32.484375 17.34375 C 32.464844 16.328125 32.25 15.527344 31.820312 14.980469 C 31.332031 14.335938 30.628906 14.023438 29.691406 14.023438 Z M 29.730469 14.785156 C 30.824219 14.785156 31.449219 15.390625 31.546875 16.640625 L 27.914062 16.640625 C 27.972656 16.074219 28.148438 15.625 28.480469 15.292969 C 28.792969 14.941406 29.203125 14.785156 29.730469 14.785156 Z M 29.730469 14.785156 "/>
<path style=" stroke:none;fill-rule:nonzero;fill:rgb(0%,0%,0%);fill-opacity:1;" d="M 39.347656 14.023438 C 38.703125 14.023438 38.15625 14.179688 37.746094 14.472656 C 37.316406 14.765625 37.101562 15.136719 37.101562 15.644531 C 37.101562 16.132812 37.316406 16.503906 37.765625 16.777344 C 38.039062 16.953125 38.507812 17.128906 39.210938 17.285156 C 39.835938 17.441406 40.246094 17.578125 40.441406 17.65625 C 40.792969 17.832031 40.988281 18.085938 40.988281 18.417969 C 40.988281 19.0625 40.460938 19.394531 39.425781 19.394531 C 38.9375 19.394531 38.566406 19.316406 38.3125 19.140625 C 38.058594 18.925781 37.902344 18.613281 37.824219 18.144531 L 36.945312 18.144531 C 37.082031 19.492188 37.921875 20.15625 39.445312 20.15625 C 41.085938 20.15625 41.90625 19.550781 41.90625 18.359375 C 41.90625 17.851562 41.671875 17.460938 41.222656 17.167969 C 40.910156 16.972656 40.421875 16.796875 39.71875 16.621094 C 39.132812 16.464844 38.722656 16.347656 38.507812 16.25 C 38.175781 16.074219 38.019531 15.859375 38.019531 15.605469 C 38.019531 15.351562 38.136719 15.15625 38.390625 15 C 38.625 14.84375 38.9375 14.785156 39.347656 14.785156 C 39.796875 14.785156 40.167969 14.863281 40.402344 15.058594 C 40.636719 15.214844 40.773438 15.46875 40.851562 15.839844 L 41.730469 15.839844 C 41.574219 14.628906 40.792969 14.023438 39.347656 14.023438 Z M 39.347656 14.023438 "/>
<path style=" stroke:none;fill-rule:nonzero;fill:rgb(0%,0%,0%);fill-opacity:1;" d="M 44.523438 12.304688 L 43.644531 12.675781 L 43.644531 14.179688 L 42.472656 14.179688 L 42.472656 14.941406 L 43.644531 14.941406 L 43.644531 18.632812 C 43.644531 19.082031 43.722656 19.394531 43.917969 19.628906 C 44.113281 19.882812 44.464844 20 44.953125 20 L 45.8125 20 L 45.8125 19.238281 L 45.070312 19.238281 C 44.875 19.238281 44.738281 19.199219 44.660156 19.101562 C 44.5625 19.003906 44.523438 18.847656 44.523438 18.632812 L 44.523438 14.941406 L 45.96875 14.941406 L 45.96875 14.179688 L 44.523438 14.179688 Z M 44.523438 12.304688 "/>
<path style=" stroke:none;fill-rule:nonzero;fill:rgb(0%,0%,0%);fill-opacity:1;" d="M 49.355469 14.023438 C 48.515625 14.023438 47.851562 14.335938 47.363281 14.941406 C 46.875 15.507812 46.621094 16.230469 46.621094 17.089844 C 46.621094 18.027344 46.875 18.769531 47.402344 19.335938 C 47.890625 19.882812 48.574219 20.15625 49.394531 20.15625 C 50.15625 20.15625 50.761719 19.941406 51.25 19.511719 C 51.640625 19.140625 51.914062 18.691406 52.03125 18.125 L 51.132812 18.125 C 50.996094 18.535156 50.800781 18.847656 50.546875 19.042969 C 50.253906 19.277344 49.863281 19.394531 49.394531 19.394531 C 48.847656 19.394531 48.398438 19.21875 48.085938 18.867188 C 47.773438 18.496094 47.617188 17.988281 47.558594 17.34375 L 52.148438 17.34375 C 52.128906 16.328125 51.914062 15.527344 51.484375 14.980469 C 50.996094 14.335938 50.292969 14.023438 49.355469 14.023438 Z M 49.394531 14.785156 C 50.488281 14.785156 51.113281 15.390625 51.210938 16.640625 L 47.578125 16.640625 C 47.636719 16.074219 47.8125 15.625 48.144531 15.292969 C 48.457031 14.941406 48.867188 14.785156 49.394531 14.785156 Z M 49.394531 14.785156 "/>
<path style=" stroke:none;fill-rule:nonzero;fill:rgb(0%,0%,0%);fill-opacity:1;" d="M 55.992188 14.023438 C 55.113281 14.023438 54.46875 14.394531 54.058594 15.136719 L 54.058594 14.179688 L 53.21875 14.179688 L 53.21875 22.226562 L 54.117188 22.226562 L 54.117188 18.945312 C 54.566406 19.746094 55.210938 20.15625 56.03125 20.15625 C 56.871094 20.15625 57.515625 19.84375 57.984375 19.238281 C 58.414062 18.671875 58.628906 17.96875 58.628906 17.109375 C 58.628906 16.230469 58.414062 15.527344 57.964844 14.960938 C 57.496094 14.335938 56.832031 14.023438 55.992188 14.023438 Z M 55.875 14.765625 C 56.5 14.765625 56.96875 15 57.300781 15.46875 C 57.574219 15.878906 57.710938 16.425781 57.710938 17.109375 C 57.710938 17.8125 57.574219 18.359375 57.28125 18.769531 C 56.949219 19.199219 56.480469 19.414062 55.835938 19.414062 C 55.308594 19.414062 54.898438 19.199219 54.566406 18.789062 C 54.234375 18.378906 54.078125 17.832031 54.078125 17.167969 L 54.078125 17.050781 C 54.078125 16.40625 54.234375 15.859375 54.527344 15.449219 C 54.839844 15 55.289062 14.765625 55.875 14.765625 Z M 55.875 14.765625 "/>
<path style=" stroke:none;fill-rule:nonzero;fill:rgb(0%,0%,0%);fill-opacity:1;" d="M 19.734375 40.097656 L 19.734375 48.125 L 25.300781 48.125 L 25.300781 47.324219 L 20.652344 47.324219 L 20.652344 40.097656 Z M 19.734375 40.097656 "/>
<path style=" stroke:none;fill-rule:nonzero;fill:rgb(0%,0%,0%);fill-opacity:1;" d="M 28.769531 42.148438 C 28.085938 42.148438 27.519531 42.285156 27.089844 42.558594 C 26.621094 42.851562 26.328125 43.300781 26.191406 43.925781 L 27.089844 43.984375 C 27.1875 43.613281 27.363281 43.339844 27.675781 43.144531 C 27.949219 42.96875 28.300781 42.890625 28.710938 42.890625 C 29.726562 42.890625 30.234375 43.378906 30.234375 44.355469 L 30.234375 44.667969 L 28.847656 44.6875 C 27.96875 44.6875 27.285156 44.863281 26.816406 45.175781 C 26.269531 45.507812 26.015625 46.015625 26.015625 46.679688 C 26.015625 47.148438 26.191406 47.539062 26.5625 47.851562 C 26.914062 48.144531 27.363281 48.28125 27.949219 48.28125 C 28.496094 48.28125 28.984375 48.164062 29.414062 47.929688 C 29.765625 47.714844 30.078125 47.460938 30.292969 47.148438 L 30.292969 48.125 L 31.132812 48.125 L 31.132812 44.394531 C 31.132812 43.710938 30.957031 43.183594 30.625 42.8125 C 30.214844 42.363281 29.609375 42.148438 28.769531 42.148438 Z M 30.234375 45.332031 L 30.234375 45.820312 C 30.234375 46.289062 30.019531 46.679688 29.609375 47.03125 C 29.179688 47.402344 28.691406 47.578125 28.144531 47.578125 C 27.792969 47.578125 27.5 47.480469 27.265625 47.324219 C 27.050781 47.128906 26.933594 46.914062 26.933594 46.660156 C 26.933594 45.800781 27.597656 45.371094 28.90625 45.351562 Z M 30.234375 45.332031 "/>
<path style=" stroke:none;fill-rule:nonzero;fill:rgb(0%,0%,0%);fill-opacity:1;" d="M 32.539062 39.941406 L 32.539062 48.125 L 33.378906 48.125 L 33.378906 47.167969 C 33.769531 47.910156 34.414062 48.28125 35.3125 48.28125 C 36.152344 48.28125 36.816406 47.96875 37.304688 47.363281 C 37.734375 46.796875 37.949219 46.074219 37.949219 45.195312 C 37.949219 44.335938 37.734375 43.652344 37.304688 43.085938 C 36.835938 42.460938 36.171875 42.148438 35.351562 42.148438 C 34.53125 42.148438 33.886719 42.558594 33.4375 43.378906 L 33.4375 39.941406 Z M 35.15625 42.890625 C 35.800781 42.890625 36.269531 43.125 36.601562 43.574219 C 36.894531 43.964844 37.03125 44.511719 37.03125 45.195312 C 37.03125 45.898438 36.894531 46.445312 36.621094 46.855469 C 36.308594 47.304688 35.820312 47.539062 35.195312 47.539062 C 34.609375 47.539062 34.160156 47.324219 33.847656 46.855469 C 33.554688 46.464844 33.398438 45.9375 33.398438 45.273438 L 33.398438 45.175781 C 33.398438 44.492188 33.554688 43.945312 33.886719 43.515625 C 34.21875 43.105469 34.628906 42.890625 35.15625 42.890625 Z M 35.15625 42.890625 "/>
<path style=" stroke:none;fill-rule:nonzero;fill:rgb(0%,0%,0%);fill-opacity:1;" d="M 41.515625 42.148438 C 40.675781 42.148438 40.011719 42.460938 39.523438 43.066406 C 39.035156 43.632812 38.78125 44.355469 38.78125 45.214844 C 38.78125 46.152344 39.035156 46.894531 39.5625 47.460938 C 40.050781 48.007812 40.734375 48.28125 41.554688 48.28125 C 42.316406 48.28125 42.921875 48.066406 43.410156 47.636719 C 43.800781 47.265625 44.074219 46.816406 44.191406 46.25 L 43.292969 46.25 C 43.15625 46.660156 42.960938 46.972656 42.707031 47.167969 C 42.414062 47.402344 42.023438 47.519531 41.554688 47.519531 C 41.007812 47.519531 40.558594 47.34375 40.246094 46.992188 C 39.933594 46.621094 39.777344 46.113281 39.71875 45.46875 L 44.308594 45.46875 C 44.289062 44.453125 44.074219 43.652344 43.644531 43.105469 C 43.15625 42.460938 42.453125 42.148438 41.515625 42.148438 Z M 41.554688 42.910156 C 42.648438 42.910156 43.273438 43.515625 43.371094 44.765625 L 39.738281 44.765625 C 39.796875 44.199219 39.972656 43.75 40.304688 43.417969 C 40.617188 43.066406 41.027344 42.910156 41.554688 42.910156 Z M 41.554688 42.910156 "/>
<path style=" stroke:none;fill-rule:nonzero;fill:rgb(0%,0%,0%);fill-opacity:1;" d="M 45.550781 39.941406 L 45.550781 48.125 L 46.429688 48.125 L 46.429688 39.941406 Z M 45.550781 39.941406 "/>
<path style=" stroke:none;fill-rule:nonzero;fill:rgb(0%,0%,0%);fill-opacity:1;" d="M 21.082031 169.074219 L 21.082031 177.101562 L 22 177.101562 L 22 169.074219 Z M 21.082031 169.074219 "/>
<path style=" stroke:none;fill-rule:nonzero;fill:rgb(0%,0%,0%);fill-opacity:1;" d="M 26.289062 171.125 C 25.917969 171.125 25.566406 171.222656 25.253906 171.398438 C 24.921875 171.574219 24.667969 171.808594 24.472656 172.140625 L 24.472656 171.28125 L 23.574219 171.28125 L 23.574219 177.101562 L 24.472656 177.101562 L 24.472656 173.585938 C 24.511719 173.058594 24.667969 172.648438 24.980469 172.335938 C 25.273438 172.042969 25.625 171.886719 26.035156 171.886719 C 27.050781 171.886719 27.558594 172.453125 27.558594 173.585938 L 27.558594 177.101562 L 28.457031 177.101562 L 28.457031 173.527344 C 28.457031 171.925781 27.734375 171.125 26.289062 171.125 Z M 26.289062 171.125 "/>
<path style=" stroke:none;fill-rule:nonzero;fill:rgb(0%,0%,0%);fill-opacity:1;" d="M 32.636719 171.125 C 31.757812 171.125 31.113281 171.496094 30.703125 172.238281 L 30.703125 171.28125 L 29.863281 171.28125 L 29.863281 179.328125 L 30.761719 179.328125 L 30.761719 176.046875 C 31.210938 176.847656 31.855469 177.257812 32.675781 177.257812 C 33.515625 177.257812 34.160156 176.945312 34.628906 176.339844 C 35.058594 175.773438 35.273438 175.070312 35.273438 174.210938 C 35.273438 173.332031 35.058594 172.628906 34.609375 172.0625 C 34.140625 171.4375 33.476562 171.125 32.636719 171.125 Z M 32.519531 171.867188 C 33.144531 171.867188 33.613281 172.101562 33.945312 172.570312 C 34.21875 172.980469 34.355469 173.527344 34.355469 174.210938 C 34.355469 174.914062 34.21875 175.460938 33.925781 175.871094 C 33.59375 176.300781 33.125 176.515625 32.480469 176.515625 C 31.953125 176.515625 31.542969 176.300781 31.210938 175.890625 C 30.878906 175.480469 30.722656 174.933594 30.722656 174.269531 L 30.722656 174.152344 C 30.722656 173.507812 30.878906 172.960938 31.171875 172.550781 C 31.484375 172.101562 31.933594 171.867188 32.519531 171.867188 Z M 32.519531 171.867188 "/>
<path style=" stroke:none;fill-rule:nonzero;fill:rgb(0%,0%,0%);fill-opacity:1;" d="M 36.453125 171.28125 L 36.453125 174.894531 C 36.453125 176.457031 37.136719 177.257812 38.5625 177.257812 C 39.34375 177.257812 39.988281 176.90625 40.457031 176.203125 L 40.457031 177.101562 L 41.355469 177.101562 L 41.355469 171.28125 L 40.457031 171.28125 L 40.457031 174.835938 C 40.378906 175.324219 40.203125 175.734375 39.871094 176.046875 C 39.578125 176.339844 39.226562 176.496094 38.835938 176.496094 C 38.308594 176.496094 37.9375 176.339844 37.703125 176.085938 C 37.46875 175.8125 37.351562 175.382812 37.351562 174.835938 L 37.351562 171.28125 Z M 36.453125 171.28125 "/>
<path style=" stroke:none;fill-rule:nonzero;fill:rgb(0%,0%,0%);fill-opacity:1;" d="M 44.296875 169.40625 L 43.417969 169.777344 L 43.417969 171.28125 L 42.246094 171.28125 L 42.246094 172.042969 L 43.417969 172.042969 L 43.417969 175.734375 C 43.417969 176.183594 43.496094 176.496094 43.691406 176.730469 C 43.886719 176.984375 44.238281 177.101562 44.726562 177.101562 L 45.585938 177.101562 L 45.585938 176.339844 L 44.84375 176.339844 C 44.648438 176.339844 44.511719 176.300781 44.433594 176.203125 C 44.335938 176.105469 44.296875 175.949219 44.296875 175.734375 L 44.296875 172.042969 L 45.742188 172.042969 L 45.742188 171.28125 L 44.296875 171.28125 Z M 44.296875 169.40625 "/>
<path style=" stroke:none;fill-rule:nonzero;fill:rgb(0%,0%,0%);fill-opacity:1;" d="M 95.03125 170.5 C 94.367188 170.5 93.820312 170.8125 93.390625 171.4375 L 93.390625 170.65625 L 92.492188 170.65625 L 92.492188 176.476562 L 93.390625 176.476562 L 93.390625 172.941406 C 93.390625 172.472656 93.527344 172.082031 93.800781 171.769531 C 94.054688 171.417969 94.40625 171.261719 94.816406 171.261719 C 95.695312 171.261719 96.144531 171.769531 96.144531 172.804688 L 96.144531 176.476562 L 97.0625 176.476562 L 97.0625 172.824219 C 97.0625 172.355469 97.179688 171.984375 97.453125 171.691406 C 97.6875 171.398438 98.019531 171.261719 98.410156 171.261719 C 98.898438 171.261719 99.25 171.398438 99.484375 171.652344 C 99.699219 171.90625 99.816406 172.296875 99.816406 172.804688 L 99.816406 176.476562 L 100.714844 176.476562 L 100.714844 172.667969 C 100.714844 172.003906 100.519531 171.476562 100.167969 171.085938 C 99.777344 170.695312 99.289062 170.5 98.683594 170.5 C 98.273438 170.5 97.941406 170.597656 97.667969 170.773438 C 97.355469 170.949219 97.082031 171.222656 96.847656 171.613281 C 96.515625 170.871094 95.910156 170.5 95.03125 170.5 Z M 95.03125 170.5 "/>
<path style=" stroke:none;fill-rule:nonzero;fill:rgb(0%,0%,0%);fill-opacity:1;" d="M 159.945312 170.5 C 159.261719 170.5 158.695312 170.636719 158.265625 170.910156 C 157.796875 171.203125 157.503906 171.652344 157.367188 172.277344 L 158.265625 172.335938 C 158.363281 171.964844 158.539062 171.691406 158.851562 171.496094 C 159.125 171.320312 159.476562 171.242188 159.886719 171.242188 C 160.902344 171.242188 161.410156 171.730469 161.410156 172.707031 L 161.410156 173.019531 L 160.023438 173.039062 C 159.144531 173.039062 158.460938 173.214844 157.992188 173.527344 C 157.445312 173.859375 157.191406 174.367188 157.191406 175.03125 C 157.191406 175.5 157.367188 175.890625 157.738281 176.203125 C 158.089844 176.496094 158.539062 176.632812 159.125 176.632812 C 159.671875 176.632812 160.160156 176.515625 160.589844 176.28125 C 160.941406 176.066406 161.253906 175.8125 161.46875 175.5 L 161.46875 176.476562 L 162.308594 176.476562 L 162.308594 172.746094 C 162.308594 172.0625 162.132812 171.535156 161.800781 171.164062 C 161.390625 170.714844 160.785156 170.5 159.945312 170.5 Z M 161.410156 173.683594 L 161.410156 174.171875 C 161.410156 174.640625 161.195312 175.03125 160.785156 175.382812 C 160.355469 175.753906 159.867188 175.929688 159.320312 175.929688 C 158.96875 175.929688 158.675781 175.832031 158.441406 175.675781 C 158.226562 175.480469 158.109375 175.265625 158.109375 175.011719 C 158.109375 174.152344 158.773438 173.722656 160.082031 173.703125 Z M 161.410156 173.683594 "/>
<path style=" stroke:none;fill-rule:nonzero;fill:rgb(0%,0%,0%);fill-opacity:1;" d="M 223.632812 170.5 C 222.773438 170.5 222.089844 170.8125 221.582031 171.417969 C 221.132812 171.984375 220.898438 172.707031 220.898438 173.605469 C 220.898438 174.484375 221.132812 175.207031 221.582031 175.753906 C 222.070312 176.339844 222.753906 176.632812 223.632812 176.632812 C 224.335938 176.632812 224.921875 176.4375 225.351562 176.066406 C 225.800781 175.695312 226.09375 175.109375 226.230469 174.367188 L 225.332031 174.367188 C 225.195312 175.382812 224.609375 175.871094 223.632812 175.871094 C 223.046875 175.871094 222.597656 175.675781 222.285156 175.265625 C 221.972656 174.855469 221.816406 174.289062 221.816406 173.585938 C 221.816406 172.882812 221.972656 172.316406 222.304688 171.90625 C 222.617188 171.476562 223.066406 171.261719 223.632812 171.261719 C 224.101562 171.261719 224.472656 171.359375 224.765625 171.574219 C 225.039062 171.808594 225.214844 172.140625 225.292969 172.589844 L 226.191406 172.589844 C 226.09375 171.886719 225.820312 171.359375 225.371094 171.007812 C 224.921875 170.675781 224.355469 170.5 223.632812 170.5 Z M 223.632812 170.5 "/>
<path style=" stroke:none;fill-rule:nonzero;fill:rgb(0%,0%,0%);fill-opacity:1;" d="M 96.679688 41.523438 C 95.996094 41.523438 95.429688 41.660156 95 41.933594 C 94.53125 42.226562 94.238281 42.675781 94.101562 43.300781 L 95 43.359375 C 95.097656 42.988281 95.273438 42.714844 95.585938 42.519531 C 95.859375 42.34375 96.210938 42.265625 96.621094 42.265625 C 97.636719 42.265625 98.144531 42.753906 98.144531 43.730469 L 98.144531 44.042969 L 96.757812 44.0625 C 95.878906 44.0625 95.195312 44.238281 94.726562 44.550781 C 94.179688 44.882812 93.925781 45.390625 93.925781 46.054688 C 93.925781 46.523438 94.101562 46.914062 94.472656 47.226562 C 94.824219 47.519531 95.273438 47.65625 95.859375 47.65625 C 96.40625 47.65625 96.894531 47.539062 97.324219 47.304688 C 97.675781 47.089844 97.988281 46.835938 98.203125 46.523438 L 98.203125 47.5 L 99.042969 47.5 L 99.042969 43.769531 C 99.042969 43.085938 98.867188 42.558594 98.535156 42.1875 C 98.125 41.738281 97.519531 41.523438 96.679688 41.523438 Z M 98.144531 44.707031 L 98.144531 45.195312 C 98.144531 45.664062 97.929688 46.054688 97.519531 46.40625 C 97.089844 46.777344 96.601562 46.953125 96.054688 46.953125 C 95.703125 46.953125 95.410156 46.855469 95.175781 46.699219 C 94.960938 46.503906 94.84375 46.289062 94.84375 46.035156 C 94.84375 45.175781 95.507812 44.746094 96.816406 44.726562 Z M 98.144531 44.707031 "/>
<path style=" stroke:none;fill-rule:nonzero;fill:rgb(0%,0%,0%);fill-opacity:1;" d="M 159.992188 41.523438 C 159.132812 41.523438 158.449219 41.835938 157.941406 42.441406 C 157.492188 43.007812 157.257812 43.730469 157.257812 44.628906 C 157.257812 45.507812 157.492188 46.230469 157.941406 46.777344 C 158.429688 47.363281 159.113281 47.65625 159.992188 47.65625 C 160.695312 47.65625 161.28125 47.460938 161.710938 47.089844 C 162.160156 46.71875 162.453125 46.132812 162.589844 45.390625 L 161.691406 45.390625 C 161.554688 46.40625 160.96875 46.894531 159.992188 46.894531 C 159.40625 46.894531 158.957031 46.699219 158.644531 46.289062 C 158.332031 45.878906 158.175781 45.3125 158.175781 44.609375 C 158.175781 43.90625 158.332031 43.339844 158.664062 42.929688 C 158.976562 42.5 159.425781 42.285156 159.992188 42.285156 C 160.460938 42.285156 160.832031 42.382812 161.125 42.597656 C 161.398438 42.832031 161.574219 43.164062 161.652344 43.613281 L 162.550781 43.613281 C 162.453125 42.910156 162.179688 42.382812 161.730469 42.03125 C 161.28125 41.699219 160.714844 41.523438 159.992188 41.523438 Z M 159.992188 41.523438 "/>
<path style=" stroke:none;fill-rule:nonzero;fill:rgb(0%,0%,0%);fill-opacity:1;" d="M 221.082031 39.316406 L 221.082031 47.5 L 221.980469 47.5 L 221.980469 44.179688 C 221.980469 43.632812 222.117188 43.183594 222.429688 42.8125 C 222.722656 42.460938 223.09375 42.285156 223.542969 42.285156 C 224.03125 42.285156 224.402344 42.421875 224.65625 42.714844 C 224.910156 43.007812 225.046875 43.417969 225.046875 43.964844 L 225.046875 47.5 L 225.945312 47.5 L 225.945312 43.828125 C 225.945312 43.085938 225.769531 42.519531 225.398438 42.128906 C 225.046875 41.71875 224.519531 41.523438 223.835938 41.523438 C 223.445312 41.523438 223.09375 41.621094 222.78125 41.796875 C 222.449219 41.992188 222.175781 42.265625 221.980469 42.636719 L 221.980469 39.316406 Z M 221.082031 39.316406 "/>
<path style="fill-rule:nonzero;fill:rgb(69.803922%,85.098039%,100%);fill-opacity:1;stroke-width:1;stroke-linecap:round;stroke-linejoin:round;stroke:rgb(0%,0%,0%);stroke-opacity:1;stroke-miterlimit:10;" d="M 72.28125 111.1 L 98.28125 111.1 L 98.28125 131.1 L 72.28125 131.1 Z M 72.28125 111.1 " transform="matrix(1.25,0,0,1.25,-10,-26.25)"/>
<path style=" stroke:none;fill-rule:nonzero;fill:rgb(0%,0%,0%);fill-opacity:1;" d="M 98.882812 127 L 98.882812 126.726562 C 98.082031 126.609375 97.886719 126.492188 97.886719 125.90625 L 97.886719 120.515625 C 97.886719 119.910156 98.121094 119.734375 98.882812 119.675781 L 98.882812 119.402344 L 95.074219 119.402344 L 95.074219 119.675781 C 95.855469 119.734375 96.070312 119.871094 96.070312 120.515625 L 96.070312 122.800781 L 93.355469 122.800781 L 93.355469 120.515625 C 93.355469 119.871094 93.570312 119.734375 94.371094 119.675781 L 94.371094 119.402344 L 90.582031 119.402344 L 90.582031 119.675781 C 91.34375 119.734375 91.539062 119.890625 91.539062 120.515625 L 91.539062 125.90625 C 91.539062 126.492188 91.363281 126.609375 90.582031 126.726562 L 90.582031 127 L 94.371094 127 L 94.371094 126.726562 C 93.550781 126.628906 93.355469 126.492188 93.355469 125.90625 L 93.355469 123.328125 L 96.070312 123.328125 L 96.070312 125.90625 C 96.070312 126.472656 95.894531 126.628906 95.074219 126.726562 L 95.074219 127 Z M 98.882812 127 "/>
<path style=" stroke:none;fill-rule:nonzero;fill:rgb(0%,0%,0%);fill-opacity:1;" d="M 102.050781 130.75 L 102.050781 130.632812 C 101.484375 130.632812 101.347656 130.496094 101.347656 130.183594 L 101.347656 125.710938 L 101.269531 125.671875 L 99.941406 126.355469 L 99.941406 126.472656 L 100.136719 126.394531 C 100.273438 126.335938 100.390625 126.296875 100.46875 126.296875 C 100.625 126.296875 100.703125 126.414062 100.703125 126.667969 L 100.703125 130.046875 C 100.703125 130.457031 100.546875 130.613281 99.980469 130.632812 L 99.980469 130.75 Z M 102.050781 130.75 "/>
<path style="fill-rule:nonzero;fill:rgb(69.803922%,85.098039%,100%);fill-opacity:1;stroke-width:1;stroke-linecap:round;stroke-linejoin:round;stroke:rgb(0%,0%,0%);stroke-opacity:1;stroke-miterlimit:10;" d="M 122.89375 111.1 L 148.89375 111.1 L 148.89375 131.1 L 122.89375 131.1 Z M 122.89375 111.1 " transform="matrix(1.25,0,0,1.25,-10,-26.25)"/>
<path style=" stroke:none;fill-rule:nonzero;fill:rgb(0%,0%,0%);fill-opacity:1;" d="M 162.152344 127 L 162.152344 126.726562 C 161.351562 126.609375 161.15625 126.492188 161.15625 125.90625 L 161.15625 120.515625 C 161.15625 119.910156 161.390625 119.734375 162.152344 119.675781 L 162.152344 119.402344 L 158.34375 119.402344 L 158.34375 119.675781 C 159.125 119.734375 159.339844 119.871094 159.339844 120.515625 L 159.339844 122.800781 L 156.625 122.800781 L 156.625 120.515625 C 156.625 119.871094 156.839844 119.734375 157.640625 119.675781 L 157.640625 119.402344 L 153.851562 119.402344 L 153.851562 119.675781 C 154.613281 119.734375 154.808594 119.890625 154.808594 120.515625 L 154.808594 125.90625 C 154.808594 126.492188 154.632812 126.609375 153.851562 126.726562 L 153.851562 127 L 157.640625 127 L 157.640625 126.726562 C 156.820312 126.628906 156.625 126.492188 156.625 125.90625 L 156.625 123.328125 L 159.339844 123.328125 L 159.339844 125.90625 C 159.339844 126.472656 159.164062 126.628906 158.34375 126.726562 L 158.34375 127 Z M 162.152344 127 "/>
<path style=" stroke:none;fill-rule:nonzero;fill:rgb(0%,0%,0%);fill-opacity:1;" d="M 165.921875 129.714844 L 165.824219 129.675781 C 165.570312 130.105469 165.414062 130.183594 165.101562 130.183594 L 163.34375 130.183594 L 164.574219 128.855469 C 165.238281 128.152344 165.53125 127.585938 165.53125 127 C 165.53125 126.257812 165.003906 125.671875 164.144531 125.671875 C 163.226562 125.671875 162.757812 126.296875 162.601562 127.175781 L 162.757812 127.214844 C 163.050781 126.472656 163.304688 126.238281 163.851562 126.238281 C 164.496094 126.238281 164.886719 126.609375 164.886719 127.292969 C 164.886719 127.9375 164.632812 128.503906 163.910156 129.246094 L 162.582031 130.652344 L 162.582031 130.75 L 165.511719 130.75 Z M 165.921875 129.714844 "/>
<path style="fill-rule:nonzero;fill:rgb(69.803922%,85.098039%,100%);fill-opacity:1;stroke-width:1;stroke-linecap:round;stroke-linejoin:round;stroke:rgb(0%,0%,0%);stroke-opacity:1;stroke-miterlimit:10;" d="M 173.80625 111.1 L 199.80625 111.1 L 199.80625 131.1 L 173.80625 131.1 Z M 173.80625 111.1 " transform="matrix(1.25,0,0,1.25,-10,-26.25)"/>
<path style=" stroke:none;fill-rule:nonzero;fill:rgb(0%,0%,0%);fill-opacity:1;" d="M 225.792969 127 L 225.792969 126.726562 C 224.992188 126.609375 224.796875 126.492188 224.796875 125.90625 L 224.796875 120.515625 C 224.796875 119.910156 225.03125 119.734375 225.792969 119.675781 L 225.792969 119.402344 L 221.984375 119.402344 L 221.984375 119.675781 C 222.765625 119.734375 222.980469 119.871094 222.980469 120.515625 L 222.980469 122.800781 L 220.265625 122.800781 L 220.265625 120.515625 C 220.265625 119.871094 220.480469 119.734375 221.28125 119.675781 L 221.28125 119.402344 L 217.492188 119.402344 L 217.492188 119.675781 C 218.253906 119.734375 218.449219 119.890625 218.449219 120.515625 L 218.449219 125.90625 C 218.449219 126.492188 218.273438 126.609375 217.492188 126.726562 L 217.492188 127 L 221.28125 127 L 221.28125 126.726562 C 220.460938 126.628906 220.265625 126.492188 220.265625 125.90625 L 220.265625 123.328125 L 222.980469 123.328125 L 222.980469 125.90625 C 222.980469 126.472656 222.804688 126.628906 221.984375 126.726562 L 221.984375 127 Z M 225.792969 127 "/>
<path style=" stroke:none;fill-rule:nonzero;fill:rgb(0%,0%,0%);fill-opacity:1;" d="M 226.457031 126.921875 C 226.769531 126.375 227.121094 126.121094 227.589844 126.121094 C 228.078125 126.121094 228.390625 126.394531 228.390625 126.902344 C 228.390625 127.351562 228.15625 127.683594 227.785156 127.898438 C 227.628906 127.996094 227.433594 128.074219 227.160156 128.171875 L 227.160156 128.269531 C 227.589844 128.269531 227.746094 128.289062 227.921875 128.347656 C 228.429688 128.503906 228.703125 128.875 228.703125 129.441406 C 228.703125 130.066406 228.273438 130.59375 227.726562 130.59375 C 227.511719 130.59375 227.355469 130.554688 227.082031 130.359375 C 226.867188 130.203125 226.75 130.164062 226.613281 130.164062 C 226.457031 130.164062 226.320312 130.261719 226.320312 130.417969 C 226.320312 130.691406 226.613281 130.847656 227.160156 130.847656 C 227.824219 130.847656 228.527344 130.632812 228.898438 130.164062 C 229.113281 129.871094 229.25 129.5 229.25 129.109375 C 229.25 128.71875 229.113281 128.367188 228.917969 128.132812 C 228.761719 127.976562 228.625 127.878906 228.292969 127.742188 C 228.78125 127.449219 228.976562 127.058594 228.976562 126.707031 C 228.976562 126.101562 228.507812 125.671875 227.824219 125.671875 C 227.042969 125.671875 226.554688 126.179688 226.339844 126.902344 Z M 226.457031 126.921875 "/>
<path style="fill-rule:nonzero;fill:rgb(40%,74.901961%,100%);fill-opacity:1;stroke-width:1;stroke-linecap:round;stroke-linejoin:round;stroke:rgb(0%,0%,0%);stroke-opacity:1;stroke-miterlimit:10;" d="M 72.28125 74 L 98.28125 74 L 98.28125 94 L 72.28125 94 Z M 72.28125 74 " transform="matrix(1.25,0,0,1.25,-10,-26.25)"/>
<path style=" stroke:none;fill-rule:nonzero;fill:rgb(0%,0%,0%);fill-opacity:1;" d="M 98.707031 76.855469 C 98.707031 74.53125 97.046875 72.851562 94.78125 72.851562 C 92.4375 72.851562 90.738281 74.472656 90.738281 76.875 C 90.738281 79.199219 92.378906 80.839844 94.703125 80.839844 C 97.046875 80.839844 98.707031 79.199219 98.707031 76.855469 Z M 96.714844 76.933594 C 96.714844 79.257812 96.03125 80.46875 94.742188 80.46875 C 93.453125 80.46875 92.730469 79.277344 92.730469 76.914062 C 92.730469 74.550781 93.433594 73.222656 94.683594 73.222656 C 95.992188 73.222656 96.714844 74.53125 96.714844 76.933594 Z M 96.714844 76.933594 "/>
<path style=" stroke:none;fill-rule:nonzero;fill:rgb(0%,0%,0%);fill-opacity:1;" d="M 102.050781 84.375 L 102.050781 84.257812 C 101.484375 84.257812 101.347656 84.121094 101.347656 83.808594 L 101.347656 79.335938 L 101.269531 79.296875 L 99.941406 79.980469 L 99.941406 80.097656 L 100.136719 80.019531 C 100.273438 79.960938 100.390625 79.921875 100.46875 79.921875 C 100.625 79.921875 100.703125 80.039062 100.703125 80.292969 L 100.703125 83.671875 C 100.703125 84.082031 100.546875 84.238281 99.980469 84.257812 L 99.980469 84.375 Z M 102.050781 84.375 "/>
<path style="fill-rule:nonzero;fill:rgb(40%,74.901961%,100%);fill-opacity:1;stroke-width:1;stroke-linecap:round;stroke-linejoin:round;stroke:rgb(0%,0%,0%);stroke-opacity:1;stroke-miterlimit:10;" d="M 122.89375 74 L 148.89375 74 L 148.89375 94 L 122.89375 94 Z M 122.89375 74 " transform="matrix(1.25,0,0,1.25,-10,-26.25)"/>
<path style=" stroke:none;fill-rule:nonzero;fill:rgb(0%,0%,0%);fill-opacity:1;" d="M 161.976562 76.855469 C 161.976562 74.53125 160.316406 72.851562 158.050781 72.851562 C 155.707031 72.851562 154.007812 74.472656 154.007812 76.875 C 154.007812 79.199219 155.648438 80.839844 157.972656 80.839844 C 160.316406 80.839844 161.976562 79.199219 161.976562 76.855469 Z M 159.984375 76.933594 C 159.984375 79.257812 159.300781 80.46875 158.011719 80.46875 C 156.722656 80.46875 156 79.277344 156 76.914062 C 156 74.550781 156.703125 73.222656 157.953125 73.222656 C 159.261719 73.222656 159.984375 74.53125 159.984375 76.933594 Z M 159.984375 76.933594 "/>
<path style=" stroke:none;fill-rule:nonzero;fill:rgb(0%,0%,0%);fill-opacity:1;" d="M 165.921875 83.339844 L 165.824219 83.300781 C 165.570312 83.730469 165.414062 83.808594 165.101562 83.808594 L 163.34375 83.808594 L 164.574219 82.480469 C 165.238281 81.777344 165.53125 81.210938 165.53125 80.625 C 165.53125 79.882812 165.003906 79.296875 164.144531 79.296875 C 163.226562 79.296875 162.757812 79.921875 162.601562 80.800781 L 162.757812 80.839844 C 163.050781 80.097656 163.304688 79.863281 163.851562 79.863281 C 164.496094 79.863281 164.886719 80.234375 164.886719 80.917969 C 164.886719 81.5625 164.632812 82.128906 163.910156 82.871094 L 162.582031 84.277344 L 162.582031 84.375 L 165.511719 84.375 Z M 165.921875 83.339844 "/>
<path style="fill-rule:nonzero;fill:rgb(40%,74.901961%,100%);fill-opacity:1;stroke-width:1;stroke-linecap:round;stroke-linejoin:round;stroke:rgb(0%,0%,0%);stroke-opacity:1;stroke-miterlimit:10;" d="M 173.80625 74 L 199.80625 74 L 199.80625 94 L 173.80625 94 Z M 173.80625 74 " transform="matrix(1.25,0,0,1.25,-10,-26.25)"/>
<path style=" stroke:none;fill-rule:nonzero;fill:rgb(0%,0%,0%);fill-opacity:1;" d="M 225.617188 76.855469 C 225.617188 74.53125 223.957031 72.851562 221.691406 72.851562 C 219.347656 72.851562 217.648438 74.472656 217.648438 76.875 C 217.648438 79.199219 219.289062 80.839844 221.613281 80.839844 C 223.957031 80.839844 225.617188 79.199219 225.617188 76.855469 Z M 223.625 76.933594 C 223.625 79.257812 222.941406 80.46875 221.652344 80.46875 C 220.363281 80.46875 219.640625 79.277344 219.640625 76.914062 C 219.640625 74.550781 220.34375 73.222656 221.59375 73.222656 C 222.902344 73.222656 223.625 74.53125 223.625 76.933594 Z M 223.625 76.933594 "/>
<path style=" stroke:none;fill-rule:nonzero;fill:rgb(0%,0%,0%);fill-opacity:1;" d="M 226.457031 80.546875 C 226.769531 80 227.121094 79.746094 227.589844 79.746094 C 228.078125 79.746094 228.390625 80.019531 228.390625 80.527344 C 228.390625 80.976562 228.15625 81.308594 227.785156 81.523438 C 227.628906 81.621094 227.433594 81.699219 227.160156 81.796875 L 227.160156 81.894531 C 227.589844 81.894531 227.746094 81.914062 227.921875 81.972656 C 228.429688 82.128906 228.703125 82.5 228.703125 83.066406 C 228.703125 83.691406 228.273438 84.21875 227.726562 84.21875 C 227.511719 84.21875 227.355469 84.179688 227.082031 83.984375 C 226.867188 83.828125 226.75 83.789062 226.613281 83.789062 C 226.457031 83.789062 226.320312 83.886719 226.320312 84.042969 C 226.320312 84.316406 226.613281 84.472656 227.160156 84.472656 C 227.824219 84.472656 228.527344 84.257812 228.898438 83.789062 C 229.113281 83.496094 229.25 83.125 229.25 82.734375 C 229.25 82.34375 229.113281 81.992188 228.917969 81.757812 C 228.761719 81.601562 228.625 81.503906 228.292969 81.367188 C 228.78125 81.074219 228.976562 80.683594 228.976562 80.332031 C 228.976562 79.726562 228.507812 79.296875 227.824219 79.296875 C 227.042969 79.296875 226.554688 79.804688 226.339844 80.527344 Z M 226.457031 80.546875 "/>
<path style="fill:none;stroke-width:1;stroke-linecap:round;stroke-linejoin:round;stroke:rgb(0%,0%,0%);stroke-opacity:1;stroke-miterlimit:10;" d="M 98.28125 121.1 L 116.99375 121.1 " transform="matrix(1.25,0,0,1.25,-10,-26.25)"/>
<path style="fill:none;stroke-width:1;stroke-linecap:butt;stroke-linejoin:miter;stroke:rgb(0%,0%,0%);stroke-opacity:1;stroke-miterlimit:10;" d="M 120.99375 121.1 L 116.99375 121.1 M 116.99375 119.6 L 120.99375 121.1 L 116.99375 122.6 " transform="matrix(1.25,0,0,1.25,-10,-26.25)"/>
<path style="fill:none;stroke-width:1;stroke-linecap:round;stroke-linejoin:round;stroke:rgb(0%,0%,0%);stroke-opacity:1;stroke-miterlimit:10;" d="M 148.89375 121.1 L 167.90625 121.1 " transform="matrix(1.25,0,0,1.25,-10,-26.25)"/>
<path style="fill:none;stroke-width:1;stroke-linecap:butt;stroke-linejoin:miter;stroke:rgb(0%,0%,0%);stroke-opacity:1;stroke-miterlimit:10;" d="M 171.90625 121.1 L 167.90625 121.1 M 167.90625 119.6 L 171.90625 121.1 L 167.90625 122.6 " transform="matrix(1.25,0,0,1.25,-10,-26.25)"/>
<path style="fill:none;stroke-width:1;stroke-linecap:round;stroke-linejoin:round;stroke:rgb(0%,0%,0%);stroke-opacity:1;stroke-miterlimit:10;" d="M 85.28125 111.1 L 85.28125 99.9 " transform="matrix(1.25,0,0,1.25,-10,-26.25)"/>
<path style="fill:none;stroke-width:1;stroke-linecap:butt;stroke-linejoin:miter;stroke:rgb(0%,0%,0%);stroke-opacity:1;stroke-miterlimit:10;" d="M 85.28125 95.9 L 85.28125 99.9 M 83.78125 99.9 L 85.28125 95.9 L 86.78125 99.9 " transform="matrix(1.25,0,0,1.25,-10,-26.25)"/>
<path style="fill:none;stroke-width:1;stroke-linecap:round;stroke-linejoin:round;stroke:rgb(0%,0%,0%);stroke-opacity:1;stroke-miterlimit:10;" d="M 135.89375 111.1 L 135.89375 99.9 " transform="matrix(1.25,0,0,1.25,-10,-26.25)"/>
<path style="fill:none;stroke-width:1;stroke-linecap:butt;stroke-linejoin:miter;stroke:rgb(0%,0%,0%);stroke-opacity:1;stroke-miterlimit:10;" d="M 135.89375 95.9 L 135.89375 99.9 M 134.39375 99.9 L 135.89375 95.9 L 137.39375 99.9 " transform="matrix(1.25,0,0,1.25,-10,-26.25)"/>
<path style="fill:none;stroke-width:1;stroke-linecap:round;stroke-linejoin:round;stroke:rgb(0%,0%,0%);stroke-opacity:1;stroke-miterlimit:10;" d="M 186.80625 111.1 L 186.80625 99.9 " transform="matrix(1.25,0,0,1.25,-10,-26.25)"/>
<path style="fill:none;stroke-width:1;stroke-linecap:butt;stroke-linejoin:miter;stroke:rgb(0%,0%,0%);stroke-opacity:1;stroke-miterlimit:10;" d="M 186.80625 95.9 L 186.80625 99.9 M 185.30625 99.9 L 186.80625 95.9 L 188.30625 99.9 " transform="matrix(1.25,0,0,1.25,-10,-26.25)"/>
<path style="fill:none;stroke-width:1;stroke-linecap:round;stroke-linejoin:round;stroke:rgb(0%,0%,0%);stroke-opacity:1;stroke-miterlimit:10;" d="M 85.28125 147.18125 L 85.28125 137 " transform="matrix(1.25,0,0,1.25,-10,-26.25)"/>
<path style="fill:none;stroke-width:1;stroke-linecap:butt;stroke-linejoin:miter;stroke:rgb(0%,0%,0%);stroke-opacity:1;stroke-miterlimit:10;" d="M 85.28125 133 L 85.28125 137 M 83.78125 137 L 85.28125 133 L 86.78125 137 " transform="matrix(1.25,0,0,1.25,-10,-26.25)"/>
<path style="fill:none;stroke-width:1;stroke-linecap:round;stroke-linejoin:round;stroke:rgb(0%,0%,0%);stroke-opacity:1;stroke-miterlimit:10;" d="M 135.89375 147.18125 L 135.89375 137 " transform="matrix(1.25,0,0,1.25,-10,-26.25)"/>
<path style="fill:none;stroke-width:1;stroke-linecap:butt;stroke-linejoin:miter;stroke:rgb(0%,0%,0%);stroke-opacity:1;stroke-miterlimit:10;" d="M 135.89375 133 L 135.89375 137 M 134.39375 137 L 135.89375 133 L 137.39375 137 " transform="matrix(1.25,0,0,1.25,-10,-26.25)"/>
<path style="fill:none;stroke-width:1;stroke-linecap:round;stroke-linejoin:round;stroke:rgb(0%,0%,0%);stroke-opacity:1;stroke-miterlimit:10;" d="M 186.80625 147.18125 L 186.80625 137 " transform="matrix(1.25,0,0,1.25,-10,-26.25)"/>
<path style="fill:none;stroke-width:1;stroke-linecap:butt;stroke-linejoin:miter;stroke:rgb(0%,0%,0%);stroke-opacity:1;stroke-miterlimit:10;" d="M 186.80625 133 L 186.80625 137 M 185.30625 137 L 186.80625 133 L 188.30625 137 " transform="matrix(1.25,0,0,1.25,-10,-26.25)"/>
<path style=" stroke:none;fill-rule:nonzero;fill:rgb(0%,0%,0%);fill-opacity:1;" d="M 15.578125 113.347656 L 15.578125 121.375 L 16.515625 121.375 L 16.515625 117.625 L 21.164062 117.625 L 21.164062 121.375 L 22.082031 121.375 L 22.082031 113.347656 L 21.164062 113.347656 L 21.164062 116.824219 L 16.515625 116.824219 L 16.515625 113.347656 Z M 15.578125 113.347656 "/>
<path style=" stroke:none;fill-rule:nonzero;fill:rgb(0%,0%,0%);fill-opacity:1;" d="M 24.320312 113.367188 C 24.125 113.367188 23.96875 113.425781 23.832031 113.5625 C 23.695312 113.660156 23.636719 113.835938 23.636719 114.03125 C 23.636719 114.226562 23.695312 114.382812 23.832031 114.519531 C 23.96875 114.636719 24.125 114.695312 24.320312 114.695312 C 24.515625 114.695312 24.671875 114.636719 24.789062 114.519531 C 24.925781 114.382812 25.003906 114.226562 25.003906 114.03125 C 25.003906 113.835938 24.925781 113.660156 24.789062 113.5625 C 24.671875 113.425781 24.515625 113.367188 24.320312 113.367188 Z M 23.871094 115.554688 L 23.871094 121.375 L 24.769531 121.375 L 24.769531 115.554688 Z M 23.871094 115.554688 "/>
<path style=" stroke:none;fill-rule:nonzero;fill:rgb(0%,0%,0%);fill-opacity:1;" d="M 30.757812 113.191406 L 30.757812 116.628906 C 30.308594 115.808594 29.664062 115.398438 28.824219 115.398438 C 28.003906 115.398438 27.359375 115.710938 26.890625 116.335938 C 26.441406 116.902344 26.226562 117.585938 26.226562 118.445312 C 26.226562 119.324219 26.441406 120.046875 26.890625 120.613281 C 27.359375 121.21875 28.023438 121.53125 28.882812 121.53125 C 29.742188 121.53125 30.40625 121.160156 30.816406 120.417969 L 30.816406 121.375 L 31.65625 121.375 L 31.65625 113.191406 Z M 29.019531 116.140625 C 29.546875 116.140625 29.957031 116.355469 30.289062 116.765625 C 30.601562 117.195312 30.777344 117.742188 30.777344 118.425781 L 30.777344 118.523438 C 30.777344 119.1875 30.621094 119.714844 30.347656 120.105469 C 30.015625 120.574219 29.566406 120.789062 28.980469 120.789062 C 28.355469 120.789062 27.886719 120.554688 27.574219 120.105469 C 27.28125 119.695312 27.144531 119.148438 27.144531 118.445312 C 27.144531 117.761719 27.28125 117.214844 27.574219 116.824219 C 27.886719 116.375 28.375 116.140625 29.019531 116.140625 Z M 29.019531 116.140625 "/>
<path style=" stroke:none;fill-rule:nonzero;fill:rgb(0%,0%,0%);fill-opacity:1;" d="M 37.347656 113.191406 L 37.347656 116.628906 C 36.898438 115.808594 36.253906 115.398438 35.414062 115.398438 C 34.59375 115.398438 33.949219 115.710938 33.480469 116.335938 C 33.03125 116.902344 32.816406 117.585938 32.816406 118.445312 C 32.816406 119.324219 33.03125 120.046875 33.480469 120.613281 C 33.949219 121.21875 34.613281 121.53125 35.472656 121.53125 C 36.332031 121.53125 36.996094 121.160156 37.40625 120.417969 L 37.40625 121.375 L 38.246094 121.375 L 38.246094 113.191406 Z M 35.609375 116.140625 C 36.136719 116.140625 36.546875 116.355469 36.878906 116.765625 C 37.191406 117.195312 37.367188 117.742188 37.367188 118.425781 L 37.367188 118.523438 C 37.367188 119.1875 37.210938 119.714844 36.9375 120.105469 C 36.605469 120.574219 36.15625 120.789062 35.570312 120.789062 C 34.945312 120.789062 34.476562 120.554688 34.164062 120.105469 C 33.871094 119.695312 33.734375 119.148438 33.734375 118.445312 C 33.734375 117.761719 33.871094 117.214844 34.164062 116.824219 C 34.476562 116.375 34.964844 116.140625 35.609375 116.140625 Z M 35.609375 116.140625 "/>
<path style=" stroke:none;fill-rule:nonzero;fill:rgb(0%,0%,0%);fill-opacity:1;" d="M 42.027344 115.398438 C 41.1875 115.398438 40.523438 115.710938 40.035156 116.316406 C 39.546875 116.882812 39.292969 117.605469 39.292969 118.464844 C 39.292969 119.402344 39.546875 120.144531 40.074219 120.710938 C 40.5625 121.257812 41.246094 121.53125 42.066406 121.53125 C 42.828125 121.53125 43.433594 121.316406 43.921875 120.886719 C 44.3125 120.515625 44.585938 120.066406 44.703125 119.5 L 43.804688 119.5 C 43.667969 119.910156 43.472656 120.222656 43.21875 120.417969 C 42.925781 120.652344 42.535156 120.769531 42.066406 120.769531 C 41.519531 120.769531 41.070312 120.59375 40.757812 120.242188 C 40.445312 119.871094 40.289062 119.363281 40.230469 118.71875 L 44.820312 118.71875 C 44.800781 117.703125 44.585938 116.902344 44.15625 116.355469 C 43.667969 115.710938 42.964844 115.398438 42.027344 115.398438 Z M 42.066406 116.160156 C 43.160156 116.160156 43.785156 116.765625 43.882812 118.015625 L 40.25 118.015625 C 40.308594 117.449219 40.484375 117 40.816406 116.667969 C 41.128906 116.316406 41.539062 116.160156 42.066406 116.160156 Z M 42.066406 116.160156 "/>
<path style=" stroke:none;fill-rule:nonzero;fill:rgb(0%,0%,0%);fill-opacity:1;" d="M 48.601562 115.398438 C 48.230469 115.398438 47.878906 115.496094 47.566406 115.671875 C 47.234375 115.847656 46.980469 116.082031 46.785156 116.414062 L 46.785156 115.554688 L 45.886719 115.554688 L 45.886719 121.375 L 46.785156 121.375 L 46.785156 117.859375 C 46.824219 117.332031 46.980469 116.921875 47.292969 116.609375 C 47.585938 116.316406 47.9375 116.160156 48.347656 116.160156 C 49.363281 116.160156 49.871094 116.726562 49.871094 117.859375 L 49.871094 121.375 L 50.769531 121.375 L 50.769531 117.800781 C 50.769531 116.199219 50.046875 115.398438 48.601562 115.398438 Z M 48.601562 115.398438 "/>
<path style=" stroke:none;fill-rule:nonzero;fill:rgb(0%,0%,0%);fill-opacity:1;" d="M 21.574219 129.441406 L 21.574219 137.625 L 22.453125 137.625 L 22.453125 129.441406 Z M 21.574219 129.441406 "/>
<path style=" stroke:none;fill-rule:nonzero;fill:rgb(0%,0%,0%);fill-opacity:1;" d="M 26.558594 131.648438 C 25.875 131.648438 25.308594 131.785156 24.878906 132.058594 C 24.410156 132.351562 24.117188 132.800781 23.980469 133.425781 L 24.878906 133.484375 C 24.976562 133.113281 25.152344 132.839844 25.464844 132.644531 C 25.738281 132.46875 26.089844 132.390625 26.5 132.390625 C 27.515625 132.390625 28.023438 132.878906 28.023438 133.855469 L 28.023438 134.167969 L 26.636719 134.1875 C 25.757812 134.1875 25.074219 134.363281 24.605469 134.675781 C 24.058594 135.007812 23.804688 135.515625 23.804688 136.179688 C 23.804688 136.648438 23.980469 137.039062 24.351562 137.351562 C 24.703125 137.644531 25.152344 137.78125 25.738281 137.78125 C 26.285156 137.78125 26.773438 137.664062 27.203125 137.429688 C 27.554688 137.214844 27.867188 136.960938 28.082031 136.648438 L 28.082031 137.625 L 28.921875 137.625 L 28.921875 133.894531 C 28.921875 133.210938 28.746094 132.683594 28.414062 132.3125 C 28.003906 131.863281 27.398438 131.648438 26.558594 131.648438 Z M 28.023438 134.832031 L 28.023438 135.320312 C 28.023438 135.789062 27.808594 136.179688 27.398438 136.53125 C 26.96875 136.902344 26.480469 137.078125 25.933594 137.078125 C 25.582031 137.078125 25.289062 136.980469 25.054688 136.824219 C 24.839844 136.628906 24.722656 136.414062 24.722656 136.160156 C 24.722656 135.300781 25.386719 134.871094 26.695312 134.851562 Z M 28.023438 134.832031 "/>
<path style=" stroke:none;fill-rule:nonzero;fill:rgb(0%,0%,0%);fill-opacity:1;" d="M 29.683594 131.804688 L 31.988281 137.488281 L 30.992188 139.851562 L 31.96875 139.851562 L 35.152344 131.804688 L 34.15625 131.804688 L 32.4375 136.394531 L 30.660156 131.804688 Z M 29.683594 131.804688 "/>
<path style=" stroke:none;fill-rule:nonzero;fill:rgb(0%,0%,0%);fill-opacity:1;" d="M 38.292969 131.648438 C 37.453125 131.648438 36.789062 131.960938 36.300781 132.566406 C 35.8125 133.132812 35.558594 133.855469 35.558594 134.714844 C 35.558594 135.652344 35.8125 136.394531 36.339844 136.960938 C 36.828125 137.507812 37.511719 137.78125 38.332031 137.78125 C 39.09375 137.78125 39.699219 137.566406 40.1875 137.136719 C 40.578125 136.765625 40.851562 136.316406 40.96875 135.75 L 40.070312 135.75 C 39.933594 136.160156 39.738281 136.472656 39.484375 136.667969 C 39.191406 136.902344 38.800781 137.019531 38.332031 137.019531 C 37.785156 137.019531 37.335938 136.84375 37.023438 136.492188 C 36.710938 136.121094 36.554688 135.613281 36.496094 134.96875 L 41.085938 134.96875 C 41.066406 133.953125 40.851562 133.152344 40.421875 132.605469 C 39.933594 131.960938 39.230469 131.648438 38.292969 131.648438 Z M 38.332031 132.410156 C 39.425781 132.410156 40.050781 133.015625 40.148438 134.265625 L 36.515625 134.265625 C 36.574219 133.699219 36.75 133.25 37.082031 132.917969 C 37.394531 132.566406 37.804688 132.410156 38.332031 132.410156 Z M 38.332031 132.410156 "/>
<path style=" stroke:none;fill-rule:nonzero;fill:rgb(0%,0%,0%);fill-opacity:1;" d="M 44.691406 131.648438 C 44.300781 131.648438 43.949219 131.765625 43.636719 132.019531 C 43.402344 132.214844 43.1875 132.488281 43.03125 132.820312 L 43.03125 131.804688 L 42.152344 131.804688 L 42.152344 137.625 L 43.03125 137.625 L 43.03125 134.539062 C 43.03125 134.011719 43.1875 133.542969 43.5 133.152344 C 43.792969 132.761719 44.183594 132.566406 44.632812 132.566406 C 44.90625 132.566406 45.199219 132.605469 45.492188 132.683594 L 45.492188 131.785156 C 45.277344 131.6875 45.023438 131.648438 44.691406 131.648438 Z M 44.691406 131.648438 "/>
<path style=" stroke:none;fill-rule:nonzero;fill:rgb(0%,0%,0%);fill-opacity:1;" d="M 19.535156 66.816406 C 18.324219 66.816406 17.386719 67.207031 16.683594 68.027344 C 16.019531 68.789062 15.6875 69.785156 15.6875 70.996094 C 15.6875 72.207031 16.019531 73.183594 16.683594 73.945312 C 17.386719 74.746094 18.324219 75.15625 19.535156 75.15625 C 20.726562 75.15625 21.683594 74.746094 22.386719 73.945312 C 23.03125 73.183594 23.382812 72.207031 23.382812 70.996094 C 23.382812 69.765625 23.03125 68.769531 22.386719 68.007812 C 21.683594 67.207031 20.726562 66.816406 19.535156 66.816406 Z M 19.535156 67.636719 C 20.453125 67.636719 21.175781 67.929688 21.703125 68.554688 C 22.191406 69.160156 22.445312 69.980469 22.445312 70.996094 C 22.445312 72.011719 22.191406 72.8125 21.703125 73.417969 C 21.175781 74.023438 20.453125 74.335938 19.535156 74.335938 C 18.597656 74.335938 17.875 74.023438 17.347656 73.398438 C 16.859375 72.792969 16.605469 71.992188 16.605469 70.996094 C 16.605469 70 16.859375 69.199219 17.347656 68.59375 C 17.894531 67.949219 18.617188 67.636719 19.535156 67.636719 Z M 19.535156 67.636719 "/>
<path style=" stroke:none;fill-rule:nonzero;fill:rgb(0%,0%,0%);fill-opacity:1;" d="M 24.550781 69.179688 L 24.550781 72.792969 C 24.550781 74.355469 25.234375 75.15625 26.660156 75.15625 C 27.441406 75.15625 28.085938 74.804688 28.554688 74.101562 L 28.554688 75 L 29.453125 75 L 29.453125 69.179688 L 28.554688 69.179688 L 28.554688 72.734375 C 28.476562 73.222656 28.300781 73.632812 27.96875 73.945312 C 27.675781 74.238281 27.324219 74.394531 26.933594 74.394531 C 26.40625 74.394531 26.035156 74.238281 25.800781 73.984375 C 25.566406 73.710938 25.449219 73.28125 25.449219 72.734375 L 25.449219 69.179688 Z M 24.550781 69.179688 "/>
<path style=" stroke:none;fill-rule:nonzero;fill:rgb(0%,0%,0%);fill-opacity:1;" d="M 32.394531 67.304688 L 31.515625 67.675781 L 31.515625 69.179688 L 30.34375 69.179688 L 30.34375 69.941406 L 31.515625 69.941406 L 31.515625 73.632812 C 31.515625 74.082031 31.59375 74.394531 31.789062 74.628906 C 31.984375 74.882812 32.335938 75 32.824219 75 L 33.683594 75 L 33.683594 74.238281 L 32.941406 74.238281 C 32.746094 74.238281 32.609375 74.199219 32.53125 74.101562 C 32.433594 74.003906 32.394531 73.847656 32.394531 73.632812 L 32.394531 69.941406 L 33.839844 69.941406 L 33.839844 69.179688 L 32.394531 69.179688 Z M 32.394531 67.304688 "/>
<path style=" stroke:none;fill-rule:nonzero;fill:rgb(0%,0%,0%);fill-opacity:1;" d="M 37.621094 69.023438 C 36.742188 69.023438 36.097656 69.394531 35.6875 70.136719 L 35.6875 69.179688 L 34.847656 69.179688 L 34.847656 77.226562 L 35.746094 77.226562 L 35.746094 73.945312 C 36.195312 74.746094 36.839844 75.15625 37.660156 75.15625 C 38.5 75.15625 39.144531 74.84375 39.613281 74.238281 C 40.042969 73.671875 40.257812 72.96875 40.257812 72.109375 C 40.257812 71.230469 40.042969 70.527344 39.59375 69.960938 C 39.125 69.335938 38.460938 69.023438 37.621094 69.023438 Z M 37.503906 69.765625 C 38.128906 69.765625 38.597656 70 38.929688 70.46875 C 39.203125 70.878906 39.339844 71.425781 39.339844 72.109375 C 39.339844 72.8125 39.203125 73.359375 38.910156 73.769531 C 38.578125 74.199219 38.109375 74.414062 37.464844 74.414062 C 36.9375 74.414062 36.527344 74.199219 36.195312 73.789062 C 35.863281 73.378906 35.707031 72.832031 35.707031 72.167969 L 35.707031 72.050781 C 35.707031 71.40625 35.863281 70.859375 36.15625 70.449219 C 36.46875 70 36.917969 69.765625 37.503906 69.765625 Z M 37.503906 69.765625 "/>
<path style=" stroke:none;fill-rule:nonzero;fill:rgb(0%,0%,0%);fill-opacity:1;" d="M 41.4375 69.179688 L 41.4375 72.792969 C 41.4375 74.355469 42.121094 75.15625 43.546875 75.15625 C 44.328125 75.15625 44.972656 74.804688 45.441406 74.101562 L 45.441406 75 L 46.339844 75 L 46.339844 69.179688 L 45.441406 69.179688 L 45.441406 72.734375 C 45.363281 73.222656 45.1875 73.632812 44.855469 73.945312 C 44.5625 74.238281 44.210938 74.394531 43.820312 74.394531 C 43.292969 74.394531 42.921875 74.238281 42.6875 73.984375 C 42.453125 73.710938 42.335938 73.28125 42.335938 72.734375 L 42.335938 69.179688 Z M 41.4375 69.179688 "/>
<path style=" stroke:none;fill-rule:nonzero;fill:rgb(0%,0%,0%);fill-opacity:1;" d="M 49.28125 67.304688 L 48.402344 67.675781 L 48.402344 69.179688 L 47.230469 69.179688 L 47.230469 69.941406 L 48.402344 69.941406 L 48.402344 73.632812 C 48.402344 74.082031 48.480469 74.394531 48.675781 74.628906 C 48.871094 74.882812 49.222656 75 49.710938 75 L 50.570312 75 L 50.570312 74.238281 L 49.828125 74.238281 C 49.632812 74.238281 49.496094 74.199219 49.417969 74.101562 C 49.320312 74.003906 49.28125 73.847656 49.28125 73.632812 L 49.28125 69.941406 L 50.726562 69.941406 L 50.726562 69.179688 L 49.28125 69.179688 Z M 49.28125 67.304688 "/>
<path style=" stroke:none;fill-rule:nonzero;fill:rgb(0%,0%,0%);fill-opacity:1;" d="M 21.574219 83.066406 L 21.574219 91.25 L 22.453125 91.25 L 22.453125 83.066406 Z M 21.574219 83.066406 "/>
<path style=" stroke:none;fill-rule:nonzero;fill:rgb(0%,0%,0%);fill-opacity:1;" d="M 26.558594 85.273438 C 25.875 85.273438 25.308594 85.410156 24.878906 85.683594 C 24.410156 85.976562 24.117188 86.425781 23.980469 87.050781 L 24.878906 87.109375 C 24.976562 86.738281 25.152344 86.464844 25.464844 86.269531 C 25.738281 86.09375 26.089844 86.015625 26.5 86.015625 C 27.515625 86.015625 28.023438 86.503906 28.023438 87.480469 L 28.023438 87.792969 L 26.636719 87.8125 C 25.757812 87.8125 25.074219 87.988281 24.605469 88.300781 C 24.058594 88.632812 23.804688 89.140625 23.804688 89.804688 C 23.804688 90.273438 23.980469 90.664062 24.351562 90.976562 C 24.703125 91.269531 25.152344 91.40625 25.738281 91.40625 C 26.285156 91.40625 26.773438 91.289062 27.203125 91.054688 C 27.554688 90.839844 27.867188 90.585938 28.082031 90.273438 L 28.082031 91.25 L 28.921875 91.25 L 28.921875 87.519531 C 28.921875 86.835938 28.746094 86.308594 28.414062 85.9375 C 28.003906 85.488281 27.398438 85.273438 26.558594 85.273438 Z M 28.023438 88.457031 L 28.023438 88.945312 C 28.023438 89.414062 27.808594 89.804688 27.398438 90.15625 C 26.96875 90.527344 26.480469 90.703125 25.933594 90.703125 C 25.582031 90.703125 25.289062 90.605469 25.054688 90.449219 C 24.839844 90.253906 24.722656 90.039062 24.722656 89.785156 C 24.722656 88.925781 25.386719 88.496094 26.695312 88.476562 Z M 28.023438 88.457031 "/>
<path style=" stroke:none;fill-rule:nonzero;fill:rgb(0%,0%,0%);fill-opacity:1;" d="M 29.683594 85.429688 L 31.988281 91.113281 L 30.992188 93.476562 L 31.96875 93.476562 L 35.152344 85.429688 L 34.15625 85.429688 L 32.4375 90.019531 L 30.660156 85.429688 Z M 29.683594 85.429688 "/>
<path style=" stroke:none;fill-rule:nonzero;fill:rgb(0%,0%,0%);fill-opacity:1;" d="M 38.292969 85.273438 C 37.453125 85.273438 36.789062 85.585938 36.300781 86.191406 C 35.8125 86.757812 35.558594 87.480469 35.558594 88.339844 C 35.558594 89.277344 35.8125 90.019531 36.339844 90.585938 C 36.828125 91.132812 37.511719 91.40625 38.332031 91.40625 C 39.09375 91.40625 39.699219 91.191406 40.1875 90.761719 C 40.578125 90.390625 40.851562 89.941406 40.96875 89.375 L 40.070312 89.375 C 39.933594 89.785156 39.738281 90.097656 39.484375 90.292969 C 39.191406 90.527344 38.800781 90.644531 38.332031 90.644531 C 37.785156 90.644531 37.335938 90.46875 37.023438 90.117188 C 36.710938 89.746094 36.554688 89.238281 36.496094 88.59375 L 41.085938 88.59375 C 41.066406 87.578125 40.851562 86.777344 40.421875 86.230469 C 39.933594 85.585938 39.230469 85.273438 38.292969 85.273438 Z M 38.332031 86.035156 C 39.425781 86.035156 40.050781 86.640625 40.148438 87.890625 L 36.515625 87.890625 C 36.574219 87.324219 36.75 86.875 37.082031 86.542969 C 37.394531 86.191406 37.804688 86.035156 38.332031 86.035156 Z M 38.332031 86.035156 "/>
<path style=" stroke:none;fill-rule:nonzero;fill:rgb(0%,0%,0%);fill-opacity:1;" d="M 44.691406 85.273438 C 44.300781 85.273438 43.949219 85.390625 43.636719 85.644531 C 43.402344 85.839844 43.1875 86.113281 43.03125 86.445312 L 43.03125 85.429688 L 42.152344 85.429688 L 42.152344 91.25 L 43.03125 91.25 L 43.03125 88.164062 C 43.03125 87.636719 43.1875 87.167969 43.5 86.777344 C 43.792969 86.386719 44.183594 86.191406 44.632812 86.191406 C 44.90625 86.191406 45.199219 86.230469 45.492188 86.308594 L 45.492188 85.410156 C 45.277344 85.3125 45.023438 85.273438 44.691406 85.273438 Z M 44.691406 85.273438 "/>
<path style=" stroke:none;fill-rule:nonzero;fill:rgb(0%,0%,0%);fill-opacity:1;" d="M 286.183594 11.347656 L 282.140625 16.679688 L 282.140625 17.558594 L 286.183594 17.558594 L 286.183594 19.375 L 287.0625 19.375 L 287.0625 17.558594 L 288.351562 17.558594 L 288.351562 16.796875 L 287.0625 16.796875 L 287.0625 11.347656 Z M 286.144531 12.539062 L 286.183594 12.539062 L 286.183594 16.796875 L 282.921875 16.796875 Z M 286.144531 12.539062 "/>
<path style=" stroke:none;fill-rule:nonzero;fill:rgb(0%,0%,0%);fill-opacity:1;" d="M 283.988281 168.292969 L 283.988281 176.476562 L 284.886719 176.476562 L 284.886719 173.15625 C 284.886719 172.609375 285.023438 172.160156 285.335938 171.789062 C 285.628906 171.4375 286 171.261719 286.449219 171.261719 C 286.9375 171.261719 287.308594 171.398438 287.5625 171.691406 C 287.816406 171.984375 287.953125 172.394531 287.953125 172.941406 L 287.953125 176.476562 L 288.851562 176.476562 L 288.851562 172.804688 C 288.851562 172.0625 288.675781 171.496094 288.304688 171.105469 C 287.953125 170.695312 287.425781 170.5 286.742188 170.5 C 286.351562 170.5 286 170.597656 285.6875 170.773438 C 285.355469 170.96875 285.082031 171.242188 284.886719 171.613281 L 284.886719 168.292969 Z M 283.988281 168.292969 "/>
<path style=" stroke:none;fill-rule:nonzero;fill:rgb(0%,0%,0%);fill-opacity:1;" d="M 286.417969 39.492188 C 286.222656 39.492188 286.066406 39.550781 285.929688 39.6875 C 285.792969 39.785156 285.734375 39.960938 285.734375 40.15625 C 285.734375 40.351562 285.792969 40.507812 285.929688 40.644531 C 286.066406 40.761719 286.222656 40.820312 286.417969 40.820312 C 286.613281 40.820312 286.769531 40.761719 286.886719 40.644531 C 287.023438 40.507812 287.101562 40.351562 287.101562 40.15625 C 287.101562 39.960938 287.023438 39.785156 286.886719 39.6875 C 286.769531 39.550781 286.613281 39.492188 286.417969 39.492188 Z M 285.96875 41.679688 L 285.96875 47.5 L 286.867188 47.5 L 286.867188 41.679688 Z M 285.96875 41.679688 "/>
<path style="fill-rule:nonzero;fill:rgb(69.803922%,85.098039%,100%);fill-opacity:1;stroke-width:1;stroke-linecap:round;stroke-linejoin:round;stroke:rgb(0%,0%,0%);stroke-opacity:1;stroke-miterlimit:10;" d="M 224.128125 111.1 L 250.128125 111.1 L 250.128125 131.1 L 224.128125 131.1 Z M 224.128125 111.1 " transform="matrix(1.25,0,0,1.25,-10,-26.25)"/>
<path style=" stroke:none;fill-rule:nonzero;fill:rgb(0%,0%,0%);fill-opacity:1;" d="M 288.695312 127 L 288.695312 126.726562 C 287.894531 126.609375 287.699219 126.492188 287.699219 125.90625 L 287.699219 120.515625 C 287.699219 119.910156 287.933594 119.734375 288.695312 119.675781 L 288.695312 119.402344 L 284.886719 119.402344 L 284.886719 119.675781 C 285.667969 119.734375 285.882812 119.871094 285.882812 120.515625 L 285.882812 122.800781 L 283.167969 122.800781 L 283.167969 120.515625 C 283.167969 119.871094 283.382812 119.734375 284.183594 119.675781 L 284.183594 119.402344 L 280.394531 119.402344 L 280.394531 119.675781 C 281.15625 119.734375 281.351562 119.890625 281.351562 120.515625 L 281.351562 125.90625 C 281.351562 126.492188 281.175781 126.609375 280.394531 126.726562 L 280.394531 127 L 284.183594 127 L 284.183594 126.726562 C 283.363281 126.628906 283.167969 126.492188 283.167969 125.90625 L 283.167969 123.328125 L 285.882812 123.328125 L 285.882812 125.90625 C 285.882812 126.472656 285.707031 126.628906 284.886719 126.726562 L 284.886719 127 Z M 288.695312 127 "/>
<path style=" stroke:none;fill-rule:nonzero;fill:rgb(0%,0%,0%);fill-opacity:1;" d="M 292.46875 129.5 L 292.46875 129.011719 L 291.6875 129.011719 L 291.6875 125.671875 L 291.355469 125.671875 L 289.011719 129.011719 L 289.011719 129.5 L 291.101562 129.5 L 291.101562 130.75 L 291.6875 130.75 L 291.6875 129.5 Z M 291.101562 129.011719 L 289.304688 129.011719 L 291.101562 126.453125 Z M 291.101562 129.011719 "/>
<path style="fill-rule:nonzero;fill:rgb(40%,74.901961%,100%);fill-opacity:1;stroke-width:1;stroke-linecap:round;stroke-linejoin:round;stroke:rgb(0%,0%,0%);stroke-opacity:1;stroke-miterlimit:10;" d="M 224.128125 74 L 250.128125 74 L 250.128125 94 L 224.128125 94 Z M 224.128125 74 " transform="matrix(1.25,0,0,1.25,-10,-26.25)"/>
<path style=" stroke:none;fill-rule:nonzero;fill:rgb(0%,0%,0%);fill-opacity:1;" d="M 288.519531 76.855469 C 288.519531 74.53125 286.859375 72.851562 284.59375 72.851562 C 282.25 72.851562 280.550781 74.472656 280.550781 76.875 C 280.550781 79.199219 282.191406 80.839844 284.515625 80.839844 C 286.859375 80.839844 288.519531 79.199219 288.519531 76.855469 Z M 286.527344 76.933594 C 286.527344 79.257812 285.84375 80.46875 284.554688 80.46875 C 283.265625 80.46875 282.542969 79.277344 282.542969 76.914062 C 282.542969 74.550781 283.246094 73.222656 284.496094 73.222656 C 285.804688 73.222656 286.527344 74.53125 286.527344 76.933594 Z M 286.527344 76.933594 "/>
<path style=" stroke:none;fill-rule:nonzero;fill:rgb(0%,0%,0%);fill-opacity:1;" d="M 292.46875 83.125 L 292.46875 82.636719 L 291.6875 82.636719 L 291.6875 79.296875 L 291.355469 79.296875 L 289.011719 82.636719 L 289.011719 83.125 L 291.101562 83.125 L 291.101562 84.375 L 291.6875 84.375 L 291.6875 83.125 Z M 291.101562 82.636719 L 289.304688 82.636719 L 291.101562 80.078125 Z M 291.101562 82.636719 "/>
<path style=" stroke:none;fill-rule:nonzero;fill:rgb(0%,0%,0%);fill-opacity:1;" d="M 346.097656 11.347656 L 345.6875 15.78125 L 346.566406 15.78125 C 346.722656 15.46875 346.957031 15.214844 347.269531 15.058594 C 347.582031 14.882812 347.914062 14.804688 348.304688 14.804688 C 348.890625 14.804688 349.339844 14.980469 349.671875 15.332031 C 350.003906 15.683594 350.199219 16.171875 350.199219 16.816406 C 350.199219 17.382812 350.003906 17.851562 349.632812 18.203125 C 349.261719 18.574219 348.8125 18.75 348.246094 18.75 C 347.757812 18.75 347.328125 18.613281 347.015625 18.378906 C 346.664062 18.105469 346.449219 17.714844 346.410156 17.207031 L 345.492188 17.207031 C 345.550781 17.949219 345.863281 18.535156 346.429688 18.964844 C 346.917969 19.335938 347.523438 19.53125 348.226562 19.53125 C 349.027344 19.53125 349.691406 19.277344 350.238281 18.808594 C 350.804688 18.28125 351.097656 17.617188 351.097656 16.816406 C 351.097656 15.9375 350.863281 15.273438 350.375 14.765625 C 349.90625 14.296875 349.28125 14.0625 348.519531 14.0625 C 348.148438 14.0625 347.816406 14.101562 347.503906 14.238281 C 347.152344 14.375 346.859375 14.589844 346.644531 14.84375 L 346.585938 14.84375 L 346.859375 12.167969 L 350.785156 12.167969 L 350.785156 11.347656 Z M 346.097656 11.347656 "/>
<path style=" stroke:none;fill-rule:nonzero;fill:rgb(0%,0%,0%);fill-opacity:1;" d="M 349.480469 168.46875 C 349.285156 168.46875 349.128906 168.527344 348.992188 168.664062 C 348.855469 168.761719 348.796875 168.9375 348.796875 169.132812 C 348.796875 169.328125 348.855469 169.484375 348.992188 169.621094 C 349.128906 169.738281 349.285156 169.796875 349.480469 169.796875 C 349.675781 169.796875 349.832031 169.738281 349.949219 169.621094 C 350.085938 169.484375 350.164062 169.328125 350.164062 169.132812 C 350.164062 168.9375 350.085938 168.761719 349.949219 168.664062 C 349.832031 168.527344 349.675781 168.46875 349.480469 168.46875 Z M 349.03125 170.65625 L 349.03125 176.476562 L 349.929688 176.476562 L 349.929688 170.65625 Z M 349.03125 170.65625 "/>
<path style=" stroke:none;fill-rule:nonzero;fill:rgb(0%,0%,0%);fill-opacity:1;" d="M 349.746094 41.523438 C 349.375 41.523438 349.023438 41.621094 348.710938 41.796875 C 348.378906 41.972656 348.125 42.207031 347.929688 42.539062 L 347.929688 41.679688 L 347.03125 41.679688 L 347.03125 47.5 L 347.929688 47.5 L 347.929688 43.984375 C 347.96875 43.457031 348.125 43.046875 348.4375 42.734375 C 348.730469 42.441406 349.082031 42.285156 349.492188 42.285156 C 350.507812 42.285156 351.015625 42.851562 351.015625 43.984375 L 351.015625 47.5 L 351.914062 47.5 L 351.914062 43.925781 C 351.914062 42.324219 351.191406 41.523438 349.746094 41.523438 Z M 349.746094 41.523438 "/>
<path style="fill-rule:nonzero;fill:rgb(69.803922%,85.098039%,100%);fill-opacity:1;stroke-width:1;stroke-linecap:round;stroke-linejoin:round;stroke:rgb(0%,0%,0%);stroke-opacity:1;stroke-miterlimit:10;" d="M 274.578125 111.1 L 300.578125 111.1 L 300.578125 131.1 L 274.578125 131.1 Z M 274.578125 111.1 " transform="matrix(1.25,0,0,1.25,-10,-26.25)"/>
<path style=" stroke:none;fill-rule:nonzero;fill:rgb(0%,0%,0%);fill-opacity:1;" d="M 351.757812 127 L 351.757812 126.726562 C 350.957031 126.609375 350.761719 126.492188 350.761719 125.90625 L 350.761719 120.515625 C 350.761719 119.910156 350.996094 119.734375 351.757812 119.675781 L 351.757812 119.402344 L 347.949219 119.402344 L 347.949219 119.675781 C 348.730469 119.734375 348.945312 119.871094 348.945312 120.515625 L 348.945312 122.800781 L 346.230469 122.800781 L 346.230469 120.515625 C 346.230469 119.871094 346.445312 119.734375 347.246094 119.675781 L 347.246094 119.402344 L 343.457031 119.402344 L 343.457031 119.675781 C 344.21875 119.734375 344.414062 119.890625 344.414062 120.515625 L 344.414062 125.90625 C 344.414062 126.492188 344.238281 126.609375 343.457031 126.726562 L 343.457031 127 L 347.246094 127 L 347.246094 126.726562 C 346.425781 126.628906 346.230469 126.492188 346.230469 125.90625 L 346.230469 123.328125 L 348.945312 123.328125 L 348.945312 125.90625 C 348.945312 126.472656 348.769531 126.628906 347.949219 126.726562 L 347.949219 127 Z M 351.757812 127 "/>
<path style=" stroke:none;fill-rule:nonzero;fill:rgb(0%,0%,0%);fill-opacity:1;" d="M 355.257812 125.632812 L 355.199219 125.59375 C 355.082031 125.75 355.003906 125.789062 354.828125 125.789062 L 353.285156 125.789062 L 352.464844 127.566406 C 352.464844 127.566406 352.464844 127.585938 352.464844 127.605469 C 352.464844 127.644531 352.484375 127.664062 352.542969 127.664062 C 353.265625 127.664062 353.792969 127.898438 354.144531 128.191406 C 354.476562 128.445312 354.652344 128.835938 354.652344 129.304688 C 354.652344 129.949219 354.164062 130.574219 353.636719 130.574219 C 353.480469 130.574219 353.304688 130.515625 353.109375 130.339844 C 352.855469 130.144531 352.71875 130.105469 352.542969 130.105469 C 352.328125 130.105469 352.210938 130.203125 352.210938 130.398438 C 352.210938 130.671875 352.601562 130.847656 353.167969 130.847656 C 353.675781 130.847656 354.085938 130.75 354.4375 130.496094 C 354.945312 130.105469 355.179688 129.65625 355.179688 128.933594 C 355.179688 128.523438 355.101562 128.25 354.90625 127.976562 C 354.476562 127.390625 354.105469 127.214844 353.03125 127.019531 L 353.34375 126.375 L 354.789062 126.375 C 354.90625 126.375 354.964844 126.335938 354.984375 126.277344 Z M 355.257812 125.632812 "/>
<path style="fill-rule:nonzero;fill:rgb(40%,74.901961%,100%);fill-opacity:1;stroke-width:1;stroke-linecap:round;stroke-linejoin:round;stroke:rgb(0%,0%,0%);stroke-opacity:1;stroke-miterlimit:10;" d="M 274.578125 74 L 300.578125 74 L 300.578125 94 L 274.578125 94 Z M 274.578125 74 " transform="matrix(1.25,0,0,1.25,-10,-26.25)"/>
<path style=" stroke:none;fill-rule:nonzero;fill:rgb(0%,0%,0%);fill-opacity:1;" d="M 351.582031 76.855469 C 351.582031 74.53125 349.921875 72.851562 347.65625 72.851562 C 345.3125 72.851562 343.613281 74.472656 343.613281 76.875 C 343.613281 79.199219 345.253906 80.839844 347.578125 80.839844 C 349.921875 80.839844 351.582031 79.199219 351.582031 76.855469 Z M 349.589844 76.933594 C 349.589844 79.257812 348.90625 80.46875 347.617188 80.46875 C 346.328125 80.46875 345.605469 79.277344 345.605469 76.914062 C 345.605469 74.550781 346.308594 73.222656 347.558594 73.222656 C 348.867188 73.222656 349.589844 74.53125 349.589844 76.933594 Z M 349.589844 76.933594 "/>
<path style=" stroke:none;fill-rule:nonzero;fill:rgb(0%,0%,0%);fill-opacity:1;" d="M 355.257812 79.257812 L 355.199219 79.21875 C 355.082031 79.375 355.003906 79.414062 354.828125 79.414062 L 353.285156 79.414062 L 352.464844 81.191406 C 352.464844 81.191406 352.464844 81.210938 352.464844 81.230469 C 352.464844 81.269531 352.484375 81.289062 352.542969 81.289062 C 353.265625 81.289062 353.792969 81.523438 354.144531 81.816406 C 354.476562 82.070312 354.652344 82.460938 354.652344 82.929688 C 354.652344 83.574219 354.164062 84.199219 353.636719 84.199219 C 353.480469 84.199219 353.304688 84.140625 353.109375 83.964844 C 352.855469 83.769531 352.71875 83.730469 352.542969 83.730469 C 352.328125 83.730469 352.210938 83.828125 352.210938 84.023438 C 352.210938 84.296875 352.601562 84.472656 353.167969 84.472656 C 353.675781 84.472656 354.085938 84.375 354.4375 84.121094 C 354.945312 83.730469 355.179688 83.28125 355.179688 82.558594 C 355.179688 82.148438 355.101562 81.875 354.90625 81.601562 C 354.476562 81.015625 354.105469 80.839844 353.03125 80.644531 L 353.34375 80 L 354.789062 80 C 354.90625 80 354.964844 79.960938 354.984375 79.902344 Z M 355.257812 79.257812 "/>
<path style="fill:none;stroke-width:1;stroke-linecap:round;stroke-linejoin:round;stroke:rgb(0%,0%,0%);stroke-opacity:1;stroke-miterlimit:10;" d="M 199.80625 121.1 L 218.23125 121.1 " transform="matrix(1.25,0,0,1.25,-10,-26.25)"/>
<path style="fill:none;stroke-width:1;stroke-linecap:butt;stroke-linejoin:miter;stroke:rgb(0%,0%,0%);stroke-opacity:1;stroke-miterlimit:10;" d="M 222.23125 121.1 L 218.23125 121.1 M 218.23125 119.6 L 222.23125 121.1 L 218.23125 122.6 " transform="matrix(1.25,0,0,1.25,-10,-26.25)"/>
<path style="fill:none;stroke-width:1;stroke-linecap:round;stroke-linejoin:round;stroke:rgb(0%,0%,0%);stroke-opacity:1;stroke-miterlimit:10;" d="M 250.128125 121.1 L 268.68125 121.1 " transform="matrix(1.25,0,0,1.25,-10,-26.25)"/>
<path style="fill:none;stroke-width:1;stroke-linecap:butt;stroke-linejoin:miter;stroke:rgb(0%,0%,0%);stroke-opacity:1;stroke-miterlimit:10;" d="M 272.68125 121.1 L 268.68125 121.1 M 268.68125 119.6 L 272.68125 121.1 L 268.68125 122.6 " transform="matrix(1.25,0,0,1.25,-10,-26.25)"/>
<path style="fill:none;stroke-width:1;stroke-linecap:round;stroke-linejoin:round;stroke:rgb(0%,0%,0%);stroke-opacity:1;stroke-miterlimit:10;" d="M 237.128125 147.18125 L 237.128125 137 " transform="matrix(1.25,0,0,1.25,-10,-26.25)"/>
<path style="fill:none;stroke-width:1;stroke-linecap:butt;stroke-linejoin:miter;stroke:rgb(0%,0%,0%);stroke-opacity:1;stroke-miterlimit:10;" d="M 237.128125 133 L 237.128125 137 M 235.628125 137 L 237.128125 133 L 238.628125 137 " transform="matrix(1.25,0,0,1.25,-10,-26.25)"/>
<path style="fill:none;stroke-width:1;stroke-linecap:round;stroke-linejoin:round;stroke:rgb(0%,0%,0%);stroke-opacity:1;stroke-miterlimit:10;" d="M 237.128125 111.1 L 237.128125 99.9 " transform="matrix(1.25,0,0,1.25,-10,-26.25)"/>
<path style="fill:none;stroke-width:1;stroke-linecap:butt;stroke-linejoin:miter;stroke:rgb(0%,0%,0%);stroke-opacity:1;stroke-miterlimit:10;" d="M 237.128125 95.9 L 237.128125 99.9 M 235.628125 99.9 L 237.128125 95.9 L 238.628125 99.9 " transform="matrix(1.25,0,0,1.25,-10,-26.25)"/>
<path style="fill:none;stroke-width:1;stroke-linecap:round;stroke-linejoin:round;stroke:rgb(0%,0%,0%);stroke-opacity:1;stroke-miterlimit:10;" d="M 287.578125 147.18125 L 287.578125 137 " transform="matrix(1.25,0,0,1.25,-10,-26.25)"/>
<path style="fill:none;stroke-width:1;stroke-linecap:butt;stroke-linejoin:miter;stroke:rgb(0%,0%,0%);stroke-opacity:1;stroke-miterlimit:10;" d="M 287.578125 133 L 287.578125 137 M 286.078125 137 L 287.578125 133 L 289.078125 137 " transform="matrix(1.25,0,0,1.25,-10,-26.25)"/>
<path style="fill:none;stroke-width:1;stroke-linecap:round;stroke-linejoin:round;stroke:rgb(0%,0%,0%);stroke-opacity:1;stroke-miterlimit:10;" d="M 287.578125 111.1 L 287.578125 99.9 " transform="matrix(1.25,0,0,1.25,-10,-26.25)"/>
<path style="fill:none;stroke-width:1;stroke-linecap:butt;stroke-linejoin:miter;stroke:rgb(0%,0%,0%);stroke-opacity:1;stroke-miterlimit:10;" d="M 287.578125 95.9 L 287.578125 99.9 M 286.078125 99.9 L 287.578125 95.9 L 289.078125 99.9 " transform="matrix(1.25,0,0,1.25,-10,-26.25)"/>
<path style="fill-rule:nonzero;fill:rgb(69.803922%,85.098039%,100%);fill-opacity:1;stroke-width:1;stroke-linecap:round;stroke-linejoin:round;stroke:rgb(0%,0%,0%);stroke-opacity:1;stroke-miterlimit:10;" d="M 325.028125 111.1 L 351.028125 111.1 L 351.028125 131.1 L 325.028125 131.1 Z M 325.028125 111.1 " transform="matrix(1.25,0,0,1.25,-10,-26.25)"/>
<path style=" stroke:none;fill-rule:nonzero;fill:rgb(0%,0%,0%);fill-opacity:1;" d="M 414.820312 127 L 414.820312 126.726562 C 414.019531 126.609375 413.824219 126.492188 413.824219 125.90625 L 413.824219 120.515625 C 413.824219 119.910156 414.058594 119.734375 414.820312 119.675781 L 414.820312 119.402344 L 411.011719 119.402344 L 411.011719 119.675781 C 411.792969 119.734375 412.007812 119.871094 412.007812 120.515625 L 412.007812 122.800781 L 409.292969 122.800781 L 409.292969 120.515625 C 409.292969 119.871094 409.507812 119.734375 410.308594 119.675781 L 410.308594 119.402344 L 406.519531 119.402344 L 406.519531 119.675781 C 407.28125 119.734375 407.476562 119.890625 407.476562 120.515625 L 407.476562 125.90625 C 407.476562 126.492188 407.300781 126.609375 406.519531 126.726562 L 406.519531 127 L 410.308594 127 L 410.308594 126.726562 C 409.488281 126.628906 409.292969 126.492188 409.292969 125.90625 L 409.292969 123.328125 L 412.007812 123.328125 L 412.007812 125.90625 C 412.007812 126.472656 411.832031 126.628906 411.011719 126.726562 L 411.011719 127 Z M 414.820312 127 "/>
<path style=" stroke:none;fill-rule:nonzero;fill:rgb(0%,0%,0%);fill-opacity:1;" d="M 418.375 125.613281 C 417.339844 125.730469 416.753906 125.90625 416.109375 126.589844 C 415.582031 127.136719 415.289062 127.839844 415.289062 128.660156 C 415.289062 129.1875 415.425781 129.714844 415.640625 130.105469 C 415.914062 130.574219 416.382812 130.847656 416.96875 130.847656 C 417.457031 130.847656 417.886719 130.652344 418.160156 130.300781 C 418.414062 130.007812 418.550781 129.578125 418.550781 129.109375 C 418.550781 128.132812 418.003906 127.546875 417.125 127.546875 C 416.792969 127.546875 416.539062 127.585938 416.167969 127.878906 C 416.382812 126.746094 417.222656 125.925781 418.394531 125.730469 Z M 417.867188 129.34375 C 417.867188 130.105469 417.59375 130.652344 417.046875 130.652344 C 416.34375 130.652344 415.992188 129.890625 415.992188 128.757812 C 415.992188 128.074219 416.421875 127.878906 416.851562 127.878906 C 417.554688 127.878906 417.867188 128.386719 417.867188 129.34375 Z M 417.867188 129.34375 "/>
<path style="fill-rule:nonzero;fill:rgb(40%,74.901961%,100%);fill-opacity:1;stroke-width:1;stroke-linecap:round;stroke-linejoin:round;stroke:rgb(0%,0%,0%);stroke-opacity:1;stroke-miterlimit:10;" d="M 325.028125 74 L 351.028125 74 L 351.028125 94 L 325.028125 94 Z M 325.028125 74 " transform="matrix(1.25,0,0,1.25,-10,-26.25)"/>
<path style=" stroke:none;fill-rule:nonzero;fill:rgb(0%,0%,0%);fill-opacity:1;" d="M 414.644531 76.855469 C 414.644531 74.53125 412.984375 72.851562 410.71875 72.851562 C 408.375 72.851562 406.675781 74.472656 406.675781 76.875 C 406.675781 79.199219 408.316406 80.839844 410.640625 80.839844 C 412.984375 80.839844 414.644531 79.199219 414.644531 76.855469 Z M 412.652344 76.933594 C 412.652344 79.257812 411.96875 80.46875 410.679688 80.46875 C 409.390625 80.46875 408.667969 79.277344 408.667969 76.914062 C 408.667969 74.550781 409.371094 73.222656 410.621094 73.222656 C 411.929688 73.222656 412.652344 74.53125 412.652344 76.933594 Z M 412.652344 76.933594 "/>
<path style=" stroke:none;fill-rule:nonzero;fill:rgb(0%,0%,0%);fill-opacity:1;" d="M 418.375 79.238281 C 417.339844 79.355469 416.753906 79.53125 416.109375 80.214844 C 415.582031 80.761719 415.289062 81.464844 415.289062 82.285156 C 415.289062 82.8125 415.425781 83.339844 415.640625 83.730469 C 415.914062 84.199219 416.382812 84.472656 416.96875 84.472656 C 417.457031 84.472656 417.886719 84.277344 418.160156 83.925781 C 418.414062 83.632812 418.550781 83.203125 418.550781 82.734375 C 418.550781 81.757812 418.003906 81.171875 417.125 81.171875 C 416.792969 81.171875 416.539062 81.210938 416.167969 81.503906 C 416.382812 80.371094 417.222656 79.550781 418.394531 79.355469 Z M 417.867188 82.96875 C 417.867188 83.730469 417.59375 84.277344 417.046875 84.277344 C 416.34375 84.277344 415.992188 83.515625 415.992188 82.382812 C 415.992188 81.699219 416.421875 81.503906 416.851562 81.503906 C 417.554688 81.503906 417.867188 82.011719 417.867188 82.96875 Z M 417.867188 82.96875 "/>
<path style="fill:none;stroke-width:1;stroke-linecap:round;stroke-linejoin:round;stroke:rgb(0%,0%,0%);stroke-opacity:1;stroke-miterlimit:10;" d="M 300.578125 121.1 L 319.128125 121.1 " transform="matrix(1.25,0,0,1.25,-10,-26.25)"/>
<path style="fill:none;stroke-width:1;stroke-linecap:butt;stroke-linejoin:miter;stroke:rgb(0%,0%,0%);stroke-opacity:1;stroke-miterlimit:10;" d="M 323.128125 121.1 L 319.128125 121.1 M 319.128125 119.6 L 323.128125 121.1 L 319.128125 122.6 " transform="matrix(1.25,0,0,1.25,-10,-26.25)"/>
<path style="fill:none;stroke-width:1;stroke-linecap:round;stroke-linejoin:round;stroke:rgb(0%,0%,0%);stroke-opacity:1;stroke-miterlimit:10;" d="M 338.028125 111.1 L 338.028125 99.9 " transform="matrix(1.25,0,0,1.25,-10,-26.25)"/>
<path style="fill:none;stroke-width:1;stroke-linecap:butt;stroke-linejoin:miter;stroke:rgb(0%,0%,0%);stroke-opacity:1;stroke-miterlimit:10;" d="M 338.028125 95.9 L 338.028125 99.9 M 336.528125 99.9 L 338.028125 95.9 L 339.528125 99.9 " transform="matrix(1.25,0,0,1.25,-10,-26.25)"/>
<path style=" stroke:none;fill-rule:nonzero;fill:rgb(0%,0%,0%);fill-opacity:1;" d="M 412.65625 11.292969 C 411.738281 11.292969 411.015625 11.703125 410.488281 12.542969 C 409.980469 13.34375 409.726562 14.398438 409.726562 15.667969 C 409.726562 16.898438 409.960938 17.855469 410.429688 18.539062 C 410.917969 19.261719 411.660156 19.632812 412.636719 19.632812 C 413.417969 19.632812 414.0625 19.359375 414.589844 18.851562 C 415.097656 18.324219 415.351562 17.660156 415.351562 16.878906 C 415.351562 16.097656 415.117188 15.453125 414.648438 14.964844 C 414.179688 14.476562 413.554688 14.222656 412.792969 14.222656 C 412.324219 14.222656 411.914062 14.339844 411.542969 14.574219 C 411.171875 14.789062 410.878906 15.121094 410.683594 15.53125 L 410.625 15.53125 C 410.625 15.394531 410.625 15.296875 410.625 15.238281 C 410.625 14.339844 410.800781 13.578125 411.152344 12.992188 C 411.503906 12.367188 412.011719 12.054688 412.636719 12.054688 C 413.574219 12.054688 414.121094 12.503906 414.296875 13.441406 L 415.214844 13.441406 C 414.980469 11.996094 414.140625 11.292969 412.65625 11.292969 Z M 412.617188 14.984375 C 413.164062 14.984375 413.613281 15.160156 413.945312 15.511719 C 414.277344 15.863281 414.433594 16.3125 414.433594 16.878906 C 414.433594 17.445312 414.277344 17.933594 413.925781 18.304688 C 413.59375 18.675781 413.144531 18.851562 412.617188 18.851562 C 412.050781 18.851562 411.621094 18.675781 411.269531 18.285156 C 410.9375 17.933594 410.78125 17.464844 410.78125 16.898438 C 410.78125 16.332031 410.957031 15.882812 411.289062 15.53125 C 411.640625 15.160156 412.089844 14.984375 412.617188 14.984375 Z M 412.617188 14.984375 "/>
<path style="fill:none;stroke-width:1;stroke-linecap:round;stroke-linejoin:round;stroke:rgb(0%,0%,0%);stroke-opacity:1;stroke-miterlimit:10;" d="M 338.028125 147.18125 L 338.028125 137 " transform="matrix(1.25,0,0,1.25,-10,-26.25)"/>
<path style="fill:none;stroke-width:1;stroke-linecap:butt;stroke-linejoin:miter;stroke:rgb(0%,0%,0%);stroke-opacity:1;stroke-miterlimit:10;" d="M 338.028125 133 L 338.028125 137 M 336.528125 137 L 338.028125 133 L 339.528125 137 " transform="matrix(1.25,0,0,1.25,-10,-26.25)"/>
<path style=" stroke:none;fill-rule:nonzero;fill:rgb(0%,0%,0%);fill-opacity:1;" d="M 412.808594 170.5 C 412.4375 170.5 412.085938 170.597656 411.773438 170.773438 C 411.441406 170.949219 411.1875 171.183594 410.992188 171.515625 L 410.992188 170.65625 L 410.09375 170.65625 L 410.09375 176.476562 L 410.992188 176.476562 L 410.992188 172.960938 C 411.03125 172.433594 411.1875 172.023438 411.5 171.710938 C 411.792969 171.417969 412.144531 171.261719 412.554688 171.261719 C 413.570312 171.261719 414.078125 171.828125 414.078125 172.960938 L 414.078125 176.476562 L 414.976562 176.476562 L 414.976562 172.902344 C 414.976562 171.300781 414.253906 170.5 412.808594 170.5 Z M 412.808594 170.5 "/>
<path style=" stroke:none;fill-rule:nonzero;fill:rgb(0%,0%,0%);fill-opacity:1;" d="M 412.5 42.148438 C 411.660156 42.148438 410.996094 42.460938 410.507812 43.066406 C 410.019531 43.632812 409.765625 44.355469 409.765625 45.214844 C 409.765625 46.152344 410.019531 46.894531 410.546875 47.460938 C 411.035156 48.007812 411.71875 48.28125 412.539062 48.28125 C 413.300781 48.28125 413.90625 48.066406 414.394531 47.636719 C 414.785156 47.265625 415.058594 46.816406 415.175781 46.25 L 414.277344 46.25 C 414.140625 46.660156 413.945312 46.972656 413.691406 47.167969 C 413.398438 47.402344 413.007812 47.519531 412.539062 47.519531 C 411.992188 47.519531 411.542969 47.34375 411.230469 46.992188 C 410.917969 46.621094 410.761719 46.113281 410.703125 45.46875 L 415.292969 45.46875 C 415.273438 44.453125 415.058594 43.652344 414.628906 43.105469 C 414.140625 42.460938 413.4375 42.148438 412.5 42.148438 Z M 412.539062 42.910156 C 413.632812 42.910156 414.257812 43.515625 414.355469 44.765625 L 410.722656 44.765625 C 410.78125 44.199219 410.957031 43.75 411.289062 43.417969 C 411.601562 43.066406 412.011719 42.910156 412.539062 42.910156 Z M 412.539062 42.910156 "/>
</g>
</svg>
