<?xml version="1.0" encoding="UTF-8"?>
<svg xmlns="http://www.w3.org/2000/svg" xmlns:xlink="http://www.w3.org/1999/xlink" width="284pt" height="92pt" viewBox="0 0 284 92" version="1.1">
<g id="surface1">
<path style="fill:none;stroke-width:1;stroke-linecap:round;stroke-linejoin:round;stroke:rgb(0%,0%,0%);stroke-opacity:1;stroke-miterlimit:10;" d="M 54 243 L 72 243 L 72 261 L 54 261 Z M 54 243 " transform="matrix(1.25,0,0,1.25,-66.25,-235)"/>
<path style=" stroke:none;fill-rule:nonzero;fill:rgb(0%,0%,0%);fill-opacity:1;" d="M 10.441406 83.566406 L 9.445312 83.566406 L 9.445312 77.257812 C 9.210938 77.492188 8.898438 77.726562 8.507812 77.960938 C 8.117188 78.183594 7.773438 78.347656 7.472656 78.449219 L 7.472656 77.492188 C 8.019531 77.246094 8.5 76.941406 8.917969 76.574219 C 9.335938 76.199219 9.628906 75.832031 9.796875 75.480469 L 10.441406 75.480469 Z M 10.441406 83.566406 "/>
<path style=" stroke:none;fill-rule:nonzero;fill:rgb(0%,0%,0%);fill-opacity:1;" d="M 18.164062 82.609375 L 18.164062 83.566406 L 12.832031 83.566406 C 12.832031 83.332031 12.871094 83.105469 12.949219 82.882812 C 13.089844 82.519531 13.3125 82.160156 13.613281 81.808594 C 13.910156 81.457031 14.339844 81.054688 14.902344 80.597656 C 15.773438 79.871094 16.359375 79.296875 16.660156 78.878906 C 16.972656 78.464844 17.128906 78.066406 17.128906 77.6875 C 17.128906 77.296875 16.984375 76.972656 16.699219 76.710938 C 16.425781 76.4375 16.066406 76.300781 15.625 76.300781 C 15.140625 76.300781 14.757812 76.445312 14.472656 76.730469 C 14.183594 77.019531 14.042969 77.414062 14.042969 77.921875 L 13.027344 77.804688 C 13.089844 77.050781 13.351562 76.476562 13.808594 76.085938 C 14.261719 75.683594 14.875 75.480469 15.644531 75.480469 C 16.410156 75.480469 17.015625 75.695312 17.460938 76.125 C 17.914062 76.554688 18.144531 77.082031 18.144531 77.707031 C 18.144531 78.035156 18.078125 78.351562 17.949219 78.664062 C 17.816406 78.976562 17.597656 79.308594 17.285156 79.660156 C 16.984375 80 16.484375 80.46875 15.78125 81.066406 C 15.179688 81.5625 14.796875 81.902344 14.628906 82.082031 C 14.457031 82.265625 14.320312 82.441406 14.21875 82.609375 Z M 18.164062 82.609375 "/>
<path style="fill:none;stroke-width:1;stroke-linecap:round;stroke-linejoin:round;stroke:rgb(0%,0%,0%);stroke-opacity:1;stroke-miterlimit:10;" d="M 108 243 L 126 243 L 126 261 L 108 261 Z M 108 243 " transform="matrix(1.25,0,0,1.25,-66.25,-235)"/>
<path style=" stroke:none;fill-rule:nonzero;fill:rgb(0%,0%,0%);fill-opacity:1;" d="M 77.941406 83.566406 L 76.945312 83.566406 L 76.945312 77.257812 C 76.710938 77.492188 76.398438 77.726562 76.007812 77.960938 C 75.617188 78.183594 75.273438 78.347656 74.972656 78.449219 L 74.972656 77.492188 C 75.519531 77.246094 76 76.941406 76.417969 76.574219 C 76.835938 76.199219 77.128906 75.832031 77.296875 75.480469 L 77.941406 75.480469 Z M 77.941406 83.566406 "/>
<path style=" stroke:none;fill-rule:nonzero;fill:rgb(0%,0%,0%);fill-opacity:1;" d="M 80.46875 81.457031 L 81.503906 81.359375 C 81.582031 81.867188 81.757812 82.253906 82.03125 82.511719 C 82.316406 82.761719 82.65625 82.882812 83.046875 82.882812 C 83.527344 82.882812 83.929688 82.707031 84.257812 82.355469 C 84.59375 81.992188 84.765625 81.515625 84.765625 80.929688 C 84.765625 80.359375 84.601562 79.910156 84.277344 79.582031 C 83.964844 79.257812 83.554688 79.09375 83.046875 79.09375 C 82.71875 79.09375 82.425781 79.171875 82.167969 79.328125 C 81.917969 79.472656 81.71875 79.65625 81.5625 79.875 L 80.644531 79.757812 L 81.425781 75.617188 L 85.429688 75.617188 L 85.429688 76.574219 L 82.207031 76.574219 L 81.777344 78.722656 C 82.257812 78.398438 82.765625 78.234375 83.300781 78.234375 C 84.003906 78.234375 84.59375 78.476562 85.078125 78.957031 C 85.558594 79.441406 85.800781 80.066406 85.800781 80.832031 C 85.800781 81.5625 85.589844 82.195312 85.175781 82.726562 C 84.652344 83.378906 83.945312 83.703125 83.046875 83.703125 C 82.316406 83.703125 81.71875 83.503906 81.25 83.097656 C 80.792969 82.683594 80.53125 82.136719 80.46875 81.457031 Z M 80.46875 81.457031 "/>
<path style="fill:none;stroke-width:1;stroke-linecap:round;stroke-linejoin:round;stroke:rgb(0%,0%,0%);stroke-opacity:1;stroke-miterlimit:10;" d="M 72 243 L 90 243 L 90 261 L 72 261 Z M 72 243 " transform="matrix(1.25,0,0,1.25,-66.25,-235)"/>
<path style=" stroke:none;fill-rule:nonzero;fill:rgb(0%,0%,0%);fill-opacity:1;" d="M 32.941406 83.566406 L 31.945312 83.566406 L 31.945312 77.257812 C 31.710938 77.492188 31.398438 77.726562 31.007812 77.960938 C 30.617188 78.183594 30.273438 78.347656 29.972656 78.449219 L 29.972656 77.492188 C 30.519531 77.246094 31 76.941406 31.417969 76.574219 C 31.835938 76.199219 32.128906 75.832031 32.296875 75.480469 L 32.941406 75.480469 Z M 32.941406 83.566406 "/>
<path style=" stroke:none;fill-rule:nonzero;fill:rgb(0%,0%,0%);fill-opacity:1;" d="M 35.46875 81.4375 L 36.464844 81.300781 C 36.582031 81.863281 36.769531 82.265625 37.03125 82.511719 C 37.304688 82.761719 37.640625 82.882812 38.046875 82.882812 C 38.5 82.882812 38.886719 82.726562 39.199219 82.414062 C 39.523438 82.089844 39.6875 81.6875 39.6875 81.203125 C 39.6875 80.75 39.535156 80.378906 39.238281 80.089844 C 38.949219 79.792969 38.578125 79.640625 38.125 79.640625 C 37.929688 79.640625 37.695312 79.679688 37.421875 79.757812 L 37.539062 78.878906 C 37.601562 78.894531 37.65625 78.898438 37.695312 78.898438 C 38.109375 78.898438 38.488281 78.789062 38.828125 78.566406 C 39.164062 78.347656 39.335938 78.007812 39.335938 77.550781 C 39.335938 77.1875 39.210938 76.886719 38.964844 76.652344 C 38.714844 76.417969 38.398438 76.300781 38.007812 76.300781 C 37.628906 76.300781 37.308594 76.425781 37.050781 76.671875 C 36.800781 76.90625 36.640625 77.265625 36.5625 77.746094 L 35.566406 77.570312 C 35.695312 76.90625 35.96875 76.394531 36.386719 76.027344 C 36.816406 75.664062 37.347656 75.480469 37.988281 75.480469 C 38.429688 75.480469 38.832031 75.578125 39.199219 75.773438 C 39.574219 75.957031 39.863281 76.210938 40.058594 76.535156 C 40.253906 76.863281 40.351562 77.207031 40.351562 77.570312 C 40.351562 77.921875 40.253906 78.242188 40.058594 78.527344 C 39.875 78.816406 39.601562 79.042969 39.238281 79.210938 C 39.71875 79.316406 40.089844 79.542969 40.351562 79.894531 C 40.609375 80.234375 40.742188 80.664062 40.742188 81.183594 C 40.742188 81.886719 40.480469 82.488281 39.960938 82.980469 C 39.453125 83.464844 38.808594 83.703125 38.027344 83.703125 C 37.324219 83.703125 36.738281 83.496094 36.269531 83.078125 C 35.800781 82.664062 35.53125 82.117188 35.46875 81.4375 Z M 35.46875 81.4375 "/>
<path style="fill:none;stroke-width:1;stroke-linecap:round;stroke-linejoin:round;stroke:rgb(0%,0%,0%);stroke-opacity:1;stroke-miterlimit:10;" d="M 90 243 L 108 243 L 108 261 L 90 261 Z M 90 243 " transform="matrix(1.25,0,0,1.25,-66.25,-235)"/>
<path style=" stroke:none;fill-rule:nonzero;fill:rgb(0%,0%,0%);fill-opacity:1;" d="M 55.441406 83.566406 L 54.445312 83.566406 L 54.445312 77.257812 C 54.210938 77.492188 53.898438 77.726562 53.507812 77.960938 C 53.117188 78.183594 52.773438 78.347656 52.472656 78.449219 L 52.472656 77.492188 C 53.019531 77.246094 53.5 76.941406 53.917969 76.574219 C 54.335938 76.199219 54.628906 75.832031 54.796875 75.480469 L 55.441406 75.480469 Z M 55.441406 83.566406 "/>
<path style=" stroke:none;fill-rule:nonzero;fill:rgb(0%,0%,0%);fill-opacity:1;" d="M 61.132812 83.566406 L 61.132812 81.632812 L 57.636719 81.632812 L 57.636719 80.734375 L 61.308594 75.519531 L 62.128906 75.519531 L 62.128906 80.734375 L 63.222656 80.734375 L 63.222656 81.632812 L 62.128906 81.632812 L 62.128906 83.566406 Z M 61.132812 80.734375 L 61.132812 77.101562 L 58.613281 80.734375 Z M 61.132812 80.734375 "/>
<path style="fill:none;stroke-width:1;stroke-linecap:round;stroke-linejoin:round;stroke:rgb(0%,0%,0%);stroke-opacity:1;stroke-miterlimit:10;" d="M 108 225 L 126 225 L 126 243 L 108 243 Z M 108 225 " transform="matrix(1.25,0,0,1.25,-66.25,-235)"/>
<path style=" stroke:none;fill-rule:nonzero;fill:rgb(0%,0%,0%);fill-opacity:1;" d="M 78.359375 61.066406 L 77.363281 61.066406 L 77.363281 54.757812 C 77.128906 54.992188 76.816406 55.226562 76.425781 55.460938 C 76.035156 55.683594 75.6875 55.847656 75.390625 55.949219 L 75.390625 54.992188 C 75.9375 54.746094 76.417969 54.441406 76.835938 54.074219 C 77.25 53.699219 77.542969 53.332031 77.714844 52.980469 L 78.359375 52.980469 Z M 78.359375 61.066406 "/>
<path style=" stroke:none;fill-rule:nonzero;fill:rgb(0%,0%,0%);fill-opacity:1;" d="M 83.78125 61.066406 L 82.785156 61.066406 L 82.785156 54.757812 C 82.550781 54.992188 82.238281 55.226562 81.847656 55.460938 C 81.457031 55.683594 81.109375 55.847656 80.8125 55.949219 L 80.8125 54.992188 C 81.359375 54.746094 81.839844 54.441406 82.257812 54.074219 C 82.671875 53.699219 82.964844 53.332031 83.136719 52.980469 L 83.78125 52.980469 Z M 83.78125 61.066406 "/>
<path style="fill:none;stroke-width:1;stroke-linecap:round;stroke-linejoin:round;stroke:rgb(0%,0%,0%);stroke-opacity:1;stroke-miterlimit:10;" d="M 108 189 L 126 189 L 126 207 L 108 207 Z M 108 189 " transform="matrix(1.25,0,0,1.25,-66.25,-235)"/>
<path style=" stroke:none;fill-rule:nonzero;fill:rgb(0%,0%,0%);fill-opacity:1;" d="M 77.339844 13.9375 L 78.335938 13.800781 C 78.453125 14.363281 78.640625 14.765625 78.902344 15.011719 C 79.175781 15.261719 79.511719 15.382812 79.917969 15.382812 C 80.371094 15.382812 80.757812 15.226562 81.070312 14.914062 C 81.394531 14.589844 81.558594 14.1875 81.558594 13.703125 C 81.558594 13.25 81.40625 12.878906 81.109375 12.589844 C 80.820312 12.292969 80.449219 12.140625 79.996094 12.140625 C 79.800781 12.140625 79.566406 12.179688 79.292969 12.257812 L 79.410156 11.378906 C 79.472656 11.394531 79.527344 11.398438 79.566406 11.398438 C 79.980469 11.398438 80.359375 11.289062 80.699219 11.066406 C 81.035156 10.847656 81.207031 10.507812 81.207031 10.050781 C 81.207031 9.6875 81.082031 9.386719 80.835938 9.152344 C 80.585938 8.917969 80.269531 8.800781 79.878906 8.800781 C 79.5 8.800781 79.179688 8.925781 78.921875 9.171875 C 78.671875 9.40625 78.511719 9.765625 78.433594 10.246094 L 77.4375 10.070312 C 77.566406 9.40625 77.839844 8.894531 78.257812 8.527344 C 78.6875 8.164062 79.21875 7.980469 79.859375 7.980469 C 80.300781 7.980469 80.703125 8.078125 81.070312 8.273438 C 81.445312 8.457031 81.734375 8.710938 81.929688 9.035156 C 82.125 9.363281 82.222656 9.707031 82.222656 10.070312 C 82.222656 10.421875 82.125 10.742188 81.929688 11.027344 C 81.746094 11.316406 81.472656 11.542969 81.109375 11.710938 C 81.589844 11.816406 81.960938 12.042969 82.222656 12.394531 C 82.480469 12.734375 82.613281 13.164062 82.613281 13.683594 C 82.613281 14.386719 82.351562 14.988281 81.832031 15.480469 C 81.324219 15.964844 80.679688 16.203125 79.898438 16.203125 C 79.195312 16.203125 78.609375 15.996094 78.140625 15.578125 C 77.671875 15.164062 77.402344 14.617188 77.339844 13.9375 Z M 77.339844 13.9375 "/>
<path style="fill:none;stroke-width:1;stroke-linecap:round;stroke-linejoin:round;stroke:rgb(0%,0%,0%);stroke-opacity:1;stroke-miterlimit:10;" d="M 108 207 L 126 207 L 126 225 L 108 225 Z M 108 207 " transform="matrix(1.25,0,0,1.25,-66.25,-235)"/>
<path style=" stroke:none;fill-rule:nonzero;fill:rgb(0%,0%,0%);fill-opacity:1;" d="M 77.398438 31.574219 L 77.398438 30.617188 L 82.613281 30.617188 L 82.613281 31.378906 C 82.105469 31.925781 81.597656 32.65625 81.089844 33.566406 C 80.582031 34.464844 80.191406 35.398438 79.917969 36.359375 C 79.722656 37.023438 79.597656 37.761719 79.546875 38.566406 L 78.53125 38.566406 C 78.542969 37.929688 78.667969 37.167969 78.902344 36.28125 C 79.136719 35.382812 79.472656 34.519531 79.917969 33.683594 C 80.371094 32.851562 80.847656 32.148438 81.34375 31.574219 Z M 77.398438 31.574219 "/>
<path style="fill-rule:nonzero;fill:rgb(69.803922%,85.098039%,100%);fill-opacity:1;stroke-width:1;stroke-linecap:round;stroke-linejoin:round;stroke:rgb(0%,0%,0%);stroke-opacity:1;stroke-miterlimit:10;" d="M 72 225 L 90 225 L 90 243 L 72 243 Z M 72 225 " transform="matrix(1.25,0,0,1.25,-66.25,-235)"/>
<path style=" stroke:none;fill-rule:nonzero;fill:rgb(0%,0%,0%);fill-opacity:1;" d="M 32.496094 59.210938 L 33.433594 59.113281 C 33.511719 59.558594 33.660156 59.882812 33.882812 60.089844 C 34.117188 60.285156 34.414062 60.382812 34.78125 60.382812 C 35.078125 60.382812 35.339844 60.320312 35.5625 60.1875 C 35.796875 60.046875 35.984375 59.855469 36.128906 59.621094 C 36.285156 59.386719 36.40625 59.074219 36.5 58.683594 C 36.601562 58.292969 36.65625 57.890625 36.65625 57.472656 C 36.65625 57.433594 36.648438 57.371094 36.636719 57.277344 C 36.441406 57.589844 36.171875 57.84375 35.835938 58.039062 C 35.496094 58.234375 35.125 58.332031 34.722656 58.332031 C 34.058594 58.332031 33.492188 58.09375 33.023438 57.609375 C 32.566406 57.128906 32.339844 56.492188 32.339844 55.695312 C 32.339844 54.875 32.578125 54.21875 33.0625 53.722656 C 33.542969 53.230469 34.148438 52.980469 34.878906 52.980469 C 35.398438 52.980469 35.875 53.125 36.304688 53.410156 C 36.734375 53.683594 37.058594 54.082031 37.28125 54.601562 C 37.515625 55.125 37.632812 55.878906 37.632812 56.867188 C 37.632812 57.898438 37.519531 58.71875 37.300781 59.328125 C 37.078125 59.941406 36.746094 60.410156 36.304688 60.734375 C 35.859375 61.046875 35.339844 61.203125 34.742188 61.203125 C 34.117188 61.203125 33.601562 61.027344 33.199219 60.675781 C 32.808594 60.324219 32.574219 59.835938 32.496094 59.210938 Z M 36.539062 55.65625 C 36.539062 55.085938 36.382812 54.636719 36.070312 54.308594 C 35.769531 53.972656 35.410156 53.800781 34.996094 53.800781 C 34.550781 53.800781 34.167969 53.984375 33.84375 54.347656 C 33.515625 54.699219 33.355469 55.164062 33.355469 55.734375 C 33.355469 56.242188 33.503906 56.660156 33.804688 56.984375 C 34.117188 57.296875 34.5 57.453125 34.957031 57.453125 C 35.425781 57.453125 35.800781 57.296875 36.089844 56.984375 C 36.386719 56.660156 36.539062 56.21875 36.539062 55.65625 Z M 36.539062 55.65625 "/>
<path style="fill-rule:nonzero;fill:rgb(40%,74.901961%,100%);fill-opacity:1;stroke-width:1;stroke-linecap:round;stroke-linejoin:round;stroke:rgb(0%,0%,0%);stroke-opacity:1;stroke-miterlimit:10;" d="M 72 189 L 90 189 L 90 207 L 72 207 Z M 72 189 " transform="matrix(1.25,0,0,1.25,-66.25,-235)"/>
<path style=" stroke:none;fill-rule:nonzero;fill:rgb(0%,0%,0%);fill-opacity:1;" d="M 36.070312 16.066406 L 35.074219 16.066406 L 35.074219 9.757812 C 34.839844 9.992188 34.527344 10.226562 34.136719 10.460938 C 33.746094 10.683594 33.398438 10.847656 33.101562 10.949219 L 33.101562 9.992188 C 33.648438 9.746094 34.128906 9.441406 34.546875 9.074219 C 34.960938 8.699219 35.253906 8.332031 35.425781 7.980469 L 36.070312 7.980469 Z M 36.070312 16.066406 "/>
<path style="fill-rule:nonzero;fill:rgb(40%,74.901961%,100%);fill-opacity:1;stroke-width:1;stroke-linecap:round;stroke-linejoin:round;stroke:rgb(0%,0%,0%);stroke-opacity:1;stroke-miterlimit:10;" d="M 72 207 L 90 207 L 90 225 L 72 225 Z M 72 207 " transform="matrix(1.25,0,0,1.25,-66.25,-235)"/>
<path style=" stroke:none;fill-rule:nonzero;fill:rgb(0%,0%,0%);fill-opacity:1;" d="M 32.339844 36.457031 L 33.375 36.359375 C 33.453125 36.867188 33.628906 37.253906 33.902344 37.511719 C 34.1875 37.761719 34.527344 37.882812 34.917969 37.882812 C 35.398438 37.882812 35.800781 37.707031 36.128906 37.355469 C 36.464844 36.992188 36.636719 36.515625 36.636719 35.929688 C 36.636719 35.359375 36.472656 34.910156 36.148438 34.582031 C 35.835938 34.257812 35.425781 34.09375 34.917969 34.09375 C 34.589844 34.09375 34.296875 34.171875 34.039062 34.328125 C 33.789062 34.472656 33.589844 34.65625 33.433594 34.875 L 32.515625 34.757812 L 33.296875 30.617188 L 37.300781 30.617188 L 37.300781 31.574219 L 34.078125 31.574219 L 33.648438 33.722656 C 34.128906 33.398438 34.636719 33.234375 35.171875 33.234375 C 35.875 33.234375 36.464844 33.476562 36.949219 33.957031 C 37.429688 34.441406 37.671875 35.066406 37.671875 35.832031 C 37.671875 36.5625 37.460938 37.195312 37.046875 37.726562 C 36.523438 38.378906 35.816406 38.703125 34.917969 38.703125 C 34.1875 38.703125 33.589844 38.503906 33.121094 38.097656 C 32.664062 37.683594 32.402344 37.136719 32.339844 36.457031 Z M 32.339844 36.457031 "/>
<path style="fill-rule:nonzero;fill:rgb(69.803922%,85.098039%,100%);fill-opacity:1;stroke-width:1;stroke-linecap:round;stroke-linejoin:round;stroke:rgb(0%,0%,0%);stroke-opacity:1;stroke-miterlimit:10;" d="M 54 225 L 72 225 L 72 243 L 54 243 Z M 54 225 " transform="matrix(1.25,0,0,1.25,-66.25,-235)"/>
<path style=" stroke:none;fill-rule:nonzero;fill:rgb(0%,0%,0%);fill-opacity:1;" d="M 11.363281 56.691406 C 10.945312 56.550781 10.640625 56.339844 10.445312 56.066406 C 10.25 55.78125 10.152344 55.441406 10.152344 55.050781 C 10.152344 54.464844 10.359375 53.976562 10.777344 53.585938 C 11.207031 53.183594 11.765625 52.980469 12.457031 52.980469 C 13.160156 52.980469 13.726562 53.191406 14.15625 53.605469 C 14.585938 54.011719 14.800781 54.503906 14.800781 55.089844 C 14.800781 55.457031 14.703125 55.78125 14.507812 56.066406 C 14.3125 56.339844 14.011719 56.550781 13.609375 56.691406 C 14.101562 56.863281 14.480469 57.128906 14.742188 57.492188 C 15 57.84375 15.132812 58.269531 15.132812 58.761719 C 15.132812 59.453125 14.882812 60.03125 14.390625 60.5 C 13.90625 60.96875 13.269531 61.203125 12.476562 61.203125 C 11.679688 61.203125 11.035156 60.96875 10.542969 60.5 C 10.058594 60.03125 9.820312 59.445312 9.820312 58.742188 C 9.820312 58.222656 9.949219 57.785156 10.210938 57.433594 C 10.484375 57.070312 10.867188 56.824219 11.363281 56.691406 Z M 11.167969 55.03125 C 11.167969 55.410156 11.285156 55.722656 11.519531 55.96875 C 11.765625 56.203125 12.085938 56.320312 12.476562 56.320312 C 12.867188 56.320312 13.179688 56.203125 13.414062 55.96875 C 13.660156 55.722656 13.785156 55.421875 13.785156 55.070312 C 13.785156 54.71875 13.660156 54.421875 13.414062 54.171875 C 13.164062 53.925781 12.851562 53.800781 12.476562 53.800781 C 12.097656 53.800781 11.785156 53.925781 11.539062 54.171875 C 11.289062 54.40625 11.167969 54.695312 11.167969 55.03125 Z M 10.835938 58.742188 C 10.835938 59.03125 10.898438 59.304688 11.03125 59.5625 C 11.171875 59.824219 11.375 60.027344 11.636719 60.167969 C 11.894531 60.3125 12.183594 60.382812 12.496094 60.382812 C 12.964844 60.382812 13.347656 60.234375 13.648438 59.933594 C 13.960938 59.636719 14.117188 59.25 14.117188 58.78125 C 14.117188 58.300781 13.960938 57.902344 13.648438 57.589844 C 13.335938 57.277344 12.9375 57.121094 12.457031 57.121094 C 11.988281 57.121094 11.597656 57.277344 11.285156 57.589844 C 10.984375 57.902344 10.835938 58.289062 10.835938 58.742188 Z M 10.835938 58.742188 "/>
<path style="fill-rule:nonzero;fill:rgb(69.803922%,85.098039%,100%);fill-opacity:1;stroke-width:1;stroke-linecap:round;stroke-linejoin:round;stroke:rgb(0%,0%,0%);stroke-opacity:1;stroke-miterlimit:10;" d="M 90 207 L 108 207 L 108 225 L 90 225 Z M 90 207 " transform="matrix(1.25,0,0,1.25,-66.25,-235)"/>
<path style=" stroke:none;fill-rule:nonzero;fill:rgb(0%,0%,0%);fill-opacity:1;" d="M 59.976562 32.492188 L 58.980469 32.570312 C 58.902344 32.179688 58.777344 31.894531 58.609375 31.710938 C 58.347656 31.4375 58.023438 31.300781 57.632812 31.300781 C 57.304688 31.300781 57.027344 31.386719 56.792969 31.554688 C 56.480469 31.789062 56.230469 32.121094 56.050781 32.550781 C 55.878906 32.980469 55.789062 33.601562 55.777344 34.40625 C 56.011719 34.054688 56.296875 33.796875 56.636719 33.625 C 56.988281 33.445312 57.351562 33.351562 57.730469 33.351562 C 58.394531 33.351562 58.953125 33.59375 59.410156 34.074219 C 59.878906 34.558594 60.113281 35.183594 60.113281 35.949219 C 60.113281 36.457031 60 36.933594 59.78125 37.375 C 59.558594 37.804688 59.257812 38.136719 58.882812 38.371094 C 58.503906 38.589844 58.074219 38.703125 57.59375 38.703125 C 56.773438 38.703125 56.101562 38.40625 55.582031 37.804688 C 55.058594 37.195312 54.800781 36.191406 54.800781 34.796875 C 54.800781 33.25 55.085938 32.117188 55.660156 31.398438 C 56.152344 30.789062 56.832031 30.480469 57.691406 30.480469 C 58.316406 30.480469 58.828125 30.664062 59.234375 31.027344 C 59.636719 31.378906 59.882812 31.867188 59.976562 32.492188 Z M 55.933594 35.949219 C 55.933594 36.300781 56.003906 36.632812 56.148438 36.945312 C 56.289062 37.246094 56.492188 37.480469 56.753906 37.648438 C 57.011719 37.804688 57.285156 37.882812 57.574219 37.882812 C 57.988281 37.882812 58.347656 37.722656 58.648438 37.394531 C 58.945312 37.058594 59.097656 36.59375 59.097656 36.007812 C 59.097656 35.449219 58.945312 35.011719 58.648438 34.699219 C 58.359375 34.375 57.988281 34.210938 57.535156 34.210938 C 57.089844 34.210938 56.714844 34.375 56.402344 34.699219 C 56.089844 35.011719 55.933594 35.429688 55.933594 35.949219 Z M 55.933594 35.949219 "/>
<path style="fill-rule:nonzero;fill:rgb(40%,74.901961%,100%);fill-opacity:1;stroke-width:1;stroke-linecap:round;stroke-linejoin:round;stroke:rgb(0%,0%,0%);stroke-opacity:1;stroke-miterlimit:10;" d="M 54 207 L 72 207 L 72 225 L 54 225 Z M 54 207 " transform="matrix(1.25,0,0,1.25,-66.25,-235)"/>
<path style=" stroke:none;fill-rule:nonzero;fill:rgb(0%,0%,0%);fill-opacity:1;" d="M 13.003906 38.566406 L 13.003906 36.632812 L 9.507812 36.632812 L 9.507812 35.734375 L 13.179688 30.519531 L 14 30.519531 L 14 35.734375 L 15.09375 35.734375 L 15.09375 36.632812 L 14 36.632812 L 14 38.566406 Z M 13.003906 35.734375 L 13.003906 32.101562 L 10.484375 35.734375 Z M 13.003906 35.734375 "/>
<path style="fill-rule:nonzero;fill:rgb(40%,74.901961%,100%);fill-opacity:1;stroke-width:1;stroke-linecap:round;stroke-linejoin:round;stroke:rgb(0%,0%,0%);stroke-opacity:1;stroke-miterlimit:10;" d="M 90 225 L 108 225 L 108 243 L 90 243 Z M 90 225 " transform="matrix(1.25,0,0,1.25,-66.25,-235)"/>
<path style=" stroke:none;fill-rule:nonzero;fill:rgb(0%,0%,0%);fill-opacity:1;" d="M 55.441406 61.066406 L 54.445312 61.066406 L 54.445312 54.757812 C 54.210938 54.992188 53.898438 55.226562 53.507812 55.460938 C 53.117188 55.683594 52.773438 55.847656 52.472656 55.949219 L 52.472656 54.992188 C 53.019531 54.746094 53.5 54.441406 53.917969 54.074219 C 54.335938 53.699219 54.628906 53.332031 54.796875 52.980469 L 55.441406 52.980469 Z M 55.441406 61.066406 "/>
<path style=" stroke:none;fill-rule:nonzero;fill:rgb(0%,0%,0%);fill-opacity:1;" d="M 57.96875 57.101562 C 57.96875 56.152344 58.066406 55.382812 58.261719 54.796875 C 58.457031 54.210938 58.742188 53.761719 59.121094 53.449219 C 59.511719 53.136719 60 52.980469 60.585938 52.980469 C 61.027344 52.980469 61.410156 53.074219 61.738281 53.253906 C 62.0625 53.425781 62.328125 53.671875 62.539062 53.996094 C 62.746094 54.324219 62.910156 54.71875 63.027344 55.1875 C 63.15625 55.65625 63.222656 56.296875 63.222656 57.101562 C 63.222656 58.039062 63.125 58.800781 62.929688 59.386719 C 62.734375 59.960938 62.441406 60.410156 62.050781 60.734375 C 61.671875 61.046875 61.183594 61.203125 60.585938 61.203125 C 59.816406 61.203125 59.210938 60.925781 58.769531 60.363281 C 58.234375 59.699219 57.96875 58.613281 57.96875 57.101562 Z M 58.984375 57.101562 C 58.984375 58.417969 59.132812 59.296875 59.433594 59.738281 C 59.746094 60.167969 60.128906 60.382812 60.585938 60.382812 C 61.039062 60.382812 61.425781 60.167969 61.738281 59.738281 C 62.050781 59.296875 62.207031 58.417969 62.207031 57.101562 C 62.207031 55.773438 62.050781 54.894531 61.738281 54.464844 C 61.425781 54.023438 61.039062 53.800781 60.585938 53.800781 C 60.128906 53.800781 59.765625 53.992188 59.492188 54.367188 C 59.152344 54.863281 58.984375 55.773438 58.984375 57.101562 Z M 58.984375 57.101562 "/>
<path style="fill-rule:nonzero;fill:rgb(69.803922%,85.098039%,100%);fill-opacity:1;stroke-width:1;stroke-linecap:round;stroke-linejoin:round;stroke:rgb(0%,0%,0%);stroke-opacity:1;stroke-miterlimit:10;" d="M 90 189 L 108 189 L 108 207 L 90 207 Z M 90 189 " transform="matrix(1.25,0,0,1.25,-66.25,-235)"/>
<path style=" stroke:none;fill-rule:nonzero;fill:rgb(0%,0%,0%);fill-opacity:1;" d="M 60.035156 15.109375 L 60.035156 16.066406 L 54.703125 16.066406 C 54.703125 15.832031 54.742188 15.605469 54.820312 15.382812 C 54.960938 15.019531 55.183594 14.660156 55.484375 14.308594 C 55.78125 13.957031 56.210938 13.554688 56.773438 13.097656 C 57.644531 12.371094 58.230469 11.796875 58.53125 11.378906 C 58.84375 10.964844 59 10.566406 59 10.1875 C 59 9.796875 58.855469 9.472656 58.570312 9.210938 C 58.296875 8.9375 57.9375 8.800781 57.496094 8.800781 C 57.011719 8.800781 56.628906 8.945312 56.34375 9.230469 C 56.054688 9.519531 55.914062 9.914062 55.914062 10.421875 L 54.898438 10.304688 C 54.960938 9.550781 55.222656 8.976562 55.679688 8.585938 C 56.132812 8.183594 56.746094 7.980469 57.515625 7.980469 C 58.28125 7.980469 58.886719 8.195312 59.332031 8.625 C 59.785156 9.054688 60.015625 9.582031 60.015625 10.207031 C 60.015625 10.535156 59.949219 10.851562 59.820312 11.164062 C 59.6875 11.476562 59.46875 11.808594 59.15625 12.160156 C 58.855469 12.5 58.355469 12.96875 57.652344 13.566406 C 57.050781 14.0625 56.667969 14.402344 56.5 14.582031 C 56.328125 14.765625 56.191406 14.941406 56.089844 15.109375 Z M 60.035156 15.109375 "/>
<path style="fill-rule:nonzero;fill:rgb(40%,74.901961%,100%);fill-opacity:1;stroke-width:1;stroke-linecap:round;stroke-linejoin:round;stroke:rgb(0%,0%,0%);stroke-opacity:1;stroke-miterlimit:10;" d="M 54 189 L 72 189 L 72 207 L 54 207 Z M 54 189 " transform="matrix(1.25,0,0,1.25,-66.25,-235)"/>
<path style=" stroke:none;fill-rule:nonzero;fill:rgb(0%,0%,0%);fill-opacity:1;" d="M 9.839844 12.101562 C 9.839844 11.152344 9.9375 10.382812 10.132812 9.796875 C 10.328125 9.210938 10.613281 8.761719 10.992188 8.449219 C 11.382812 8.136719 11.871094 7.980469 12.457031 7.980469 C 12.898438 7.980469 13.28125 8.074219 13.609375 8.253906 C 13.933594 8.425781 14.199219 8.671875 14.410156 8.996094 C 14.617188 9.324219 14.78125 9.71875 14.898438 10.1875 C 15.027344 10.65625 15.09375 11.296875 15.09375 12.101562 C 15.09375 13.039062 14.996094 13.800781 14.800781 14.386719 C 14.605469 14.960938 14.3125 15.410156 13.921875 15.734375 C 13.542969 16.046875 13.054688 16.203125 12.457031 16.203125 C 11.6875 16.203125 11.082031 15.925781 10.640625 15.363281 C 10.105469 14.699219 9.839844 13.613281 9.839844 12.101562 Z M 10.855469 12.101562 C 10.855469 13.417969 11.003906 14.296875 11.304688 14.738281 C 11.617188 15.167969 12 15.382812 12.457031 15.382812 C 12.910156 15.382812 13.296875 15.167969 13.609375 14.738281 C 13.921875 14.296875 14.078125 13.417969 14.078125 12.101562 C 14.078125 10.773438 13.921875 9.894531 13.609375 9.464844 C 13.296875 9.023438 12.910156 8.800781 12.457031 8.800781 C 12 8.800781 11.636719 8.992188 11.363281 9.367188 C 11.023438 9.863281 10.855469 10.773438 10.855469 12.101562 Z M 10.855469 12.101562 "/>
<path style="fill:none;stroke-width:2;stroke-linecap:round;stroke-linejoin:round;stroke:rgb(0%,0%,0%);stroke-opacity:1;stroke-miterlimit:10;" d="M 54 189 L 108 189 L 108 243 L 54 243 Z M 54 189 " transform="matrix(1.25,0,0,1.25,-66.25,-235)"/>
<path style="fill-rule:nonzero;fill:rgb(40%,74.901961%,100%);fill-opacity:1;stroke-width:1;stroke-linecap:round;stroke-linejoin:round;stroke:rgb(0%,0%,0%);stroke-opacity:1;stroke-miterlimit:10;" d="M 261 225 L 279 225 L 279 243 L 261 243 Z M 261 225 " transform="matrix(1.25,0,0,1.25,-66.25,-235)"/>
<path style=" stroke:none;fill-rule:nonzero;fill:rgb(0%,0%,0%);fill-opacity:1;" d="M 269.191406 61.066406 L 268.195312 61.066406 L 268.195312 54.757812 C 267.960938 54.992188 267.648438 55.226562 267.257812 55.460938 C 266.867188 55.683594 266.523438 55.847656 266.222656 55.949219 L 266.222656 54.992188 C 266.769531 54.746094 267.25 54.441406 267.667969 54.074219 C 268.085938 53.699219 268.378906 53.332031 268.546875 52.980469 L 269.191406 52.980469 Z M 269.191406 61.066406 "/>
<path style=" stroke:none;fill-rule:nonzero;fill:rgb(0%,0%,0%);fill-opacity:1;" d="M 271.71875 57.101562 C 271.71875 56.152344 271.816406 55.382812 272.011719 54.796875 C 272.207031 54.210938 272.492188 53.761719 272.871094 53.449219 C 273.261719 53.136719 273.75 52.980469 274.335938 52.980469 C 274.777344 52.980469 275.160156 53.074219 275.488281 53.253906 C 275.8125 53.425781 276.078125 53.671875 276.289062 53.996094 C 276.496094 54.324219 276.660156 54.71875 276.777344 55.1875 C 276.90625 55.65625 276.972656 56.296875 276.972656 57.101562 C 276.972656 58.039062 276.875 58.800781 276.679688 59.386719 C 276.484375 59.960938 276.191406 60.410156 275.800781 60.734375 C 275.421875 61.046875 274.933594 61.203125 274.335938 61.203125 C 273.566406 61.203125 272.960938 60.925781 272.519531 60.363281 C 271.984375 59.699219 271.71875 58.613281 271.71875 57.101562 Z M 272.734375 57.101562 C 272.734375 58.417969 272.882812 59.296875 273.183594 59.738281 C 273.496094 60.167969 273.878906 60.382812 274.335938 60.382812 C 274.789062 60.382812 275.175781 60.167969 275.488281 59.738281 C 275.800781 59.296875 275.957031 58.417969 275.957031 57.101562 C 275.957031 55.773438 275.800781 54.894531 275.488281 54.464844 C 275.175781 54.023438 274.789062 53.800781 274.335938 53.800781 C 273.878906 53.800781 273.515625 53.992188 273.242188 54.367188 C 272.902344 54.863281 272.734375 55.773438 272.734375 57.101562 Z M 272.734375 57.101562 "/>
<path style="fill-rule:nonzero;fill:rgb(69.803922%,85.098039%,100%);fill-opacity:1;stroke-width:1;stroke-linecap:round;stroke-linejoin:round;stroke:rgb(0%,0%,0%);stroke-opacity:1;stroke-miterlimit:10;" d="M 243 225 L 261 225 L 261 243 L 243 243 Z M 243 225 " transform="matrix(1.25,0,0,1.25,-66.25,-235)"/>
<path style=" stroke:none;fill-rule:nonzero;fill:rgb(0%,0%,0%);fill-opacity:1;" d="M 246.246094 59.210938 L 247.183594 59.113281 C 247.261719 59.558594 247.410156 59.882812 247.632812 60.089844 C 247.867188 60.285156 248.164062 60.382812 248.53125 60.382812 C 248.828125 60.382812 249.089844 60.320312 249.3125 60.1875 C 249.546875 60.046875 249.734375 59.855469 249.878906 59.621094 C 250.035156 59.386719 250.15625 59.074219 250.25 58.683594 C 250.351562 58.292969 250.40625 57.890625 250.40625 57.472656 C 250.40625 57.433594 250.398438 57.371094 250.386719 57.277344 C 250.191406 57.589844 249.921875 57.84375 249.585938 58.039062 C 249.246094 58.234375 248.875 58.332031 248.472656 58.332031 C 247.808594 58.332031 247.242188 58.09375 246.773438 57.609375 C 246.316406 57.128906 246.089844 56.492188 246.089844 55.695312 C 246.089844 54.875 246.328125 54.21875 246.8125 53.722656 C 247.292969 53.230469 247.898438 52.980469 248.628906 52.980469 C 249.148438 52.980469 249.625 53.125 250.054688 53.410156 C 250.484375 53.683594 250.808594 54.082031 251.03125 54.601562 C 251.265625 55.125 251.382812 55.878906 251.382812 56.867188 C 251.382812 57.898438 251.269531 58.71875 251.050781 59.328125 C 250.828125 59.941406 250.496094 60.410156 250.054688 60.734375 C 249.609375 61.046875 249.089844 61.203125 248.492188 61.203125 C 247.867188 61.203125 247.351562 61.027344 246.949219 60.675781 C 246.558594 60.324219 246.324219 59.835938 246.246094 59.210938 Z M 250.289062 55.65625 C 250.289062 55.085938 250.132812 54.636719 249.820312 54.308594 C 249.519531 53.972656 249.160156 53.800781 248.746094 53.800781 C 248.300781 53.800781 247.917969 53.984375 247.59375 54.347656 C 247.265625 54.699219 247.105469 55.164062 247.105469 55.734375 C 247.105469 56.242188 247.253906 56.660156 247.554688 56.984375 C 247.867188 57.296875 248.25 57.453125 248.707031 57.453125 C 249.175781 57.453125 249.550781 57.296875 249.839844 56.984375 C 250.136719 56.660156 250.289062 56.21875 250.289062 55.65625 Z M 250.289062 55.65625 "/>
<path style="fill-rule:nonzero;fill:rgb(69.803922%,85.098039%,100%);fill-opacity:1;stroke-width:1;stroke-linecap:round;stroke-linejoin:round;stroke:rgb(0%,0%,0%);stroke-opacity:1;stroke-miterlimit:10;" d="M 261 207 L 279 207 L 279 225 L 261 225 Z M 261 207 " transform="matrix(1.25,0,0,1.25,-66.25,-235)"/>
<path style=" stroke:none;fill-rule:nonzero;fill:rgb(0%,0%,0%);fill-opacity:1;" d="M 273.726562 32.492188 L 272.730469 32.570312 C 272.652344 32.179688 272.527344 31.894531 272.359375 31.710938 C 272.097656 31.4375 271.773438 31.300781 271.382812 31.300781 C 271.054688 31.300781 270.777344 31.386719 270.542969 31.554688 C 270.230469 31.789062 269.980469 32.121094 269.800781 32.550781 C 269.628906 32.980469 269.539062 33.601562 269.527344 34.40625 C 269.761719 34.054688 270.046875 33.796875 270.386719 33.625 C 270.738281 33.445312 271.101562 33.351562 271.480469 33.351562 C 272.144531 33.351562 272.703125 33.59375 273.160156 34.074219 C 273.628906 34.558594 273.863281 35.183594 273.863281 35.949219 C 273.863281 36.457031 273.75 36.933594 273.53125 37.375 C 273.308594 37.804688 273.007812 38.136719 272.632812 38.371094 C 272.253906 38.589844 271.824219 38.703125 271.34375 38.703125 C 270.523438 38.703125 269.851562 38.40625 269.332031 37.804688 C 268.808594 37.195312 268.550781 36.191406 268.550781 34.796875 C 268.550781 33.25 268.835938 32.117188 269.410156 31.398438 C 269.902344 30.789062 270.582031 30.480469 271.441406 30.480469 C 272.066406 30.480469 272.578125 30.664062 272.984375 31.027344 C 273.386719 31.378906 273.632812 31.867188 273.726562 32.492188 Z M 269.683594 35.949219 C 269.683594 36.300781 269.753906 36.632812 269.898438 36.945312 C 270.039062 37.246094 270.242188 37.480469 270.503906 37.648438 C 270.761719 37.804688 271.035156 37.882812 271.324219 37.882812 C 271.738281 37.882812 272.097656 37.722656 272.398438 37.394531 C 272.695312 37.058594 272.847656 36.59375 272.847656 36.007812 C 272.847656 35.449219 272.695312 35.011719 272.398438 34.699219 C 272.109375 34.375 271.738281 34.210938 271.285156 34.210938 C 270.839844 34.210938 270.464844 34.375 270.152344 34.699219 C 269.839844 35.011719 269.683594 35.429688 269.683594 35.949219 Z M 269.683594 35.949219 "/>
<path style="fill-rule:nonzero;fill:rgb(40%,74.901961%,100%);fill-opacity:1;stroke-width:1;stroke-linecap:round;stroke-linejoin:round;stroke:rgb(0%,0%,0%);stroke-opacity:1;stroke-miterlimit:10;" d="M 243 207 L 261 207 L 261 225 L 243 225 Z M 243 207 " transform="matrix(1.25,0,0,1.25,-66.25,-235)"/>
<path style=" stroke:none;fill-rule:nonzero;fill:rgb(0%,0%,0%);fill-opacity:1;" d="M 246.089844 36.457031 L 247.125 36.359375 C 247.203125 36.867188 247.378906 37.253906 247.652344 37.511719 C 247.9375 37.761719 248.277344 37.882812 248.667969 37.882812 C 249.148438 37.882812 249.550781 37.707031 249.878906 37.355469 C 250.214844 36.992188 250.386719 36.515625 250.386719 35.929688 C 250.386719 35.359375 250.222656 34.910156 249.898438 34.582031 C 249.585938 34.257812 249.175781 34.09375 248.667969 34.09375 C 248.339844 34.09375 248.046875 34.171875 247.789062 34.328125 C 247.539062 34.472656 247.339844 34.65625 247.183594 34.875 L 246.265625 34.757812 L 247.046875 30.617188 L 251.050781 30.617188 L 251.050781 31.574219 L 247.828125 31.574219 L 247.398438 33.722656 C 247.878906 33.398438 248.386719 33.234375 248.921875 33.234375 C 249.625 33.234375 250.214844 33.476562 250.699219 33.957031 C 251.179688 34.441406 251.421875 35.066406 251.421875 35.832031 C 251.421875 36.5625 251.210938 37.195312 250.796875 37.726562 C 250.273438 38.378906 249.566406 38.703125 248.667969 38.703125 C 247.9375 38.703125 247.339844 38.503906 246.871094 38.097656 C 246.414062 37.683594 246.152344 37.136719 246.089844 36.457031 Z M 246.089844 36.457031 "/>
<path style="fill:none;stroke-width:2;stroke-linecap:round;stroke-linejoin:round;stroke:rgb(0%,0%,0%);stroke-opacity:1;stroke-miterlimit:10;" d="M 243 207 L 279 207 L 279 243 L 243 243 Z M 243 207 " transform="matrix(1.25,0,0,1.25,-66.25,-235)"/>
<path style="fill:none;stroke-width:1;stroke-linecap:round;stroke-linejoin:round;stroke:rgb(0%,0%,0%);stroke-opacity:1;stroke-miterlimit:10;" d="M 153 211.809375 L 216 211.809375 L 216 238.809375 L 153 238.809375 Z M 153 211.809375 " transform="matrix(1.25,0,0,1.25,-66.25,-235)"/>
<path style=" stroke:none;fill-rule:nonzero;fill:rgb(0%,0%,0%);fill-opacity:1;" d="M 147.527344 42.808594 L 147.527344 43.765625 L 142.195312 43.765625 C 142.195312 43.53125 142.234375 43.308594 142.3125 43.082031 C 142.453125 42.722656 142.675781 42.359375 142.976562 42.007812 C 143.273438 41.65625 143.703125 41.257812 144.265625 40.796875 C 145.136719 40.070312 145.722656 39.5 146.023438 39.078125 C 146.335938 38.664062 146.492188 38.269531 146.492188 37.886719 C 146.492188 37.496094 146.347656 37.175781 146.0625 36.910156 C 145.789062 36.636719 145.429688 36.5 144.988281 36.5 C 144.503906 36.5 144.121094 36.648438 143.835938 36.929688 C 143.546875 37.21875 143.40625 37.613281 143.40625 38.121094 L 142.390625 38.003906 C 142.453125 37.253906 142.714844 36.675781 143.171875 36.285156 C 143.625 35.886719 144.238281 35.679688 145.007812 35.679688 C 145.773438 35.679688 146.378906 35.894531 146.824219 36.324219 C 147.277344 36.753906 147.507812 37.28125 147.507812 37.90625 C 147.507812 38.234375 147.441406 38.550781 147.3125 38.863281 C 147.179688 39.175781 146.960938 39.507812 146.648438 39.859375 C 146.347656 40.203125 145.847656 40.671875 145.144531 41.265625 C 144.542969 41.765625 144.160156 42.101562 143.992188 42.28125 C 143.820312 42.46875 143.683594 42.644531 143.582031 42.808594 Z M 147.527344 42.808594 "/>
<path style=" stroke:none;fill-rule:nonzero;fill:rgb(0%,0%,0%);fill-opacity:1;" d="M 151.324219 43.765625 L 153.453125 40.738281 L 151.480469 37.925781 L 152.730469 37.925781 L 153.628906 39.292969 C 153.785156 39.558594 153.914062 39.777344 154.019531 39.957031 C 154.1875 39.714844 154.335938 39.5 154.46875 39.3125 L 155.445312 37.925781 L 156.636719 37.925781 L 154.625 40.679688 L 156.792969 43.765625 L 155.582031 43.765625 L 154.371094 41.949219 L 154.058594 41.460938 L 152.535156 43.765625 Z M 151.324219 43.765625 "/>
<path style=" stroke:none;fill-rule:nonzero;fill:rgb(0%,0%,0%);fill-opacity:1;" d="M 165.660156 42.808594 L 165.660156 43.765625 L 160.328125 43.765625 C 160.328125 43.53125 160.367188 43.308594 160.445312 43.082031 C 160.585938 42.722656 160.808594 42.359375 161.109375 42.007812 C 161.40625 41.65625 161.835938 41.257812 162.398438 40.796875 C 163.269531 40.070312 163.855469 39.5 164.15625 39.078125 C 164.46875 38.664062 164.625 38.269531 164.625 37.886719 C 164.625 37.496094 164.480469 37.175781 164.195312 36.910156 C 163.921875 36.636719 163.5625 36.5 163.121094 36.5 C 162.636719 36.5 162.253906 36.648438 161.96875 36.929688 C 161.679688 37.21875 161.539062 37.613281 161.539062 38.121094 L 160.523438 38.003906 C 160.585938 37.253906 160.847656 36.675781 161.304688 36.285156 C 161.757812 35.886719 162.371094 35.679688 163.140625 35.679688 C 163.90625 35.679688 164.511719 35.894531 164.957031 36.324219 C 165.410156 36.753906 165.640625 37.28125 165.640625 37.90625 C 165.640625 38.234375 165.574219 38.550781 165.445312 38.863281 C 165.3125 39.175781 165.09375 39.507812 164.78125 39.859375 C 164.480469 40.203125 163.980469 40.671875 163.277344 41.265625 C 162.675781 41.765625 162.292969 42.101562 162.125 42.28125 C 161.953125 42.46875 161.816406 42.644531 161.714844 42.808594 Z M 165.660156 42.808594 "/>
<path style=" stroke:none;fill-rule:nonzero;fill:rgb(0%,0%,0%);fill-opacity:1;" d="M 170.257812 43.765625 L 170.257812 35.71875 L 173.832031 35.71875 C 174.546875 35.71875 175.09375 35.792969 175.472656 35.933594 C 175.847656 36.082031 176.148438 36.335938 176.371094 36.695312 C 176.589844 37.0625 176.703125 37.46875 176.703125 37.90625 C 176.703125 38.484375 176.511719 38.960938 176.136719 39.351562 C 175.769531 39.742188 175.203125 39.992188 174.4375 40.09375 C 174.710938 40.242188 174.925781 40.378906 175.082031 40.503906 C 175.394531 40.792969 175.6875 41.148438 175.960938 41.578125 L 177.367188 43.765625 L 176.019531 43.765625 L 174.945312 42.085938 C 174.644531 41.609375 174.390625 41.242188 174.183594 40.992188 C 173.988281 40.734375 173.804688 40.554688 173.636719 40.445312 C 173.480469 40.34375 173.324219 40.269531 173.167969 40.230469 C 173.035156 40.207031 172.835938 40.191406 172.5625 40.191406 L 171.332031 40.191406 L 171.332031 43.765625 Z M 171.332031 39.273438 L 173.617188 39.273438 C 174.109375 39.273438 174.496094 39.226562 174.769531 39.117188 C 175.042969 39.015625 175.25 38.855469 175.394531 38.628906 C 175.535156 38.410156 175.609375 38.171875 175.609375 37.90625 C 175.609375 37.53125 175.464844 37.21875 175.179688 36.96875 C 174.90625 36.726562 174.46875 36.597656 173.871094 36.597656 L 171.332031 36.597656 Z M 171.332031 39.273438 "/>
<path style=" stroke:none;fill-rule:nonzero;fill:rgb(0%,0%,0%);fill-opacity:1;" d="M 177.875 40.855469 C 177.875 39.777344 178.171875 38.976562 178.773438 38.453125 C 179.28125 38.023438 179.890625 37.808594 180.609375 37.808594 C 181.414062 37.808594 182.074219 38.074219 182.582031 38.589844 C 183.089844 39.113281 183.34375 39.835938 183.34375 40.757812 C 183.34375 41.515625 183.226562 42.105469 182.992188 42.535156 C 182.769531 42.964844 182.445312 43.308594 182.015625 43.550781 C 181.585938 43.785156 181.117188 43.902344 180.609375 43.902344 C 179.789062 43.902344 179.125 43.644531 178.617188 43.121094 C 178.121094 42.589844 177.875 41.832031 177.875 40.855469 Z M 178.890625 40.855469 C 178.890625 41.597656 179.050781 42.160156 179.378906 42.535156 C 179.703125 42.902344 180.113281 43.082031 180.609375 43.082031 C 181.101562 43.082031 181.511719 42.902344 181.839844 42.535156 C 182.164062 42.160156 182.328125 41.589844 182.328125 40.816406 C 182.328125 40.105469 182.164062 39.558594 181.839844 39.175781 C 181.511719 38.800781 181.101562 38.609375 180.609375 38.609375 C 180.113281 38.609375 179.703125 38.800781 179.378906 39.175781 C 179.050781 39.542969 178.890625 40.105469 178.890625 40.855469 Z M 178.890625 40.855469 "/>
<path style=" stroke:none;fill-rule:nonzero;fill:rgb(0%,0%,0%);fill-opacity:1;" d="M 184.816406 43.765625 L 184.816406 35.71875 L 185.871094 35.71875 L 185.871094 43.765625 Z M 184.816406 43.765625 "/>
<path style=" stroke:none;fill-rule:nonzero;fill:rgb(0%,0%,0%);fill-opacity:1;" d="M 146.46875 56.632812 L 146.46875 48.585938 L 149.515625 48.585938 C 150.050781 48.585938 150.460938 48.617188 150.746094 48.664062 C 151.136719 48.734375 151.460938 48.855469 151.722656 49.035156 C 151.996094 49.222656 152.210938 49.480469 152.367188 49.816406 C 152.535156 50.144531 152.621094 50.511719 152.621094 50.910156 C 152.621094 51.605469 152.398438 52.179688 151.957031 52.648438 C 151.527344 53.117188 150.746094 53.351562 149.613281 53.351562 L 147.542969 53.351562 L 147.542969 56.632812 Z M 147.542969 52.414062 L 149.632812 52.414062 C 150.308594 52.414062 150.792969 52.289062 151.078125 52.023438 C 151.378906 51.765625 151.527344 51.410156 151.527344 50.949219 C 151.527344 50.613281 151.441406 50.324219 151.273438 50.089844 C 151.105469 49.847656 150.875 49.679688 150.589844 49.601562 C 150.421875 49.554688 150.089844 49.523438 149.59375 49.523438 L 147.542969 49.523438 Z M 147.542969 52.414062 "/>
<path style=" stroke:none;fill-rule:nonzero;fill:rgb(0%,0%,0%);fill-opacity:1;" d="M 153.484375 53.722656 C 153.484375 52.644531 153.78125 51.84375 154.382812 51.320312 C 154.890625 50.890625 155.5 50.675781 156.21875 50.675781 C 157.023438 50.675781 157.683594 50.941406 158.191406 51.457031 C 158.699219 51.980469 158.953125 52.703125 158.953125 53.625 C 158.953125 54.382812 158.835938 54.972656 158.601562 55.402344 C 158.378906 55.832031 158.054688 56.175781 157.625 56.417969 C 157.195312 56.652344 156.726562 56.769531 156.21875 56.769531 C 155.398438 56.769531 154.734375 56.511719 154.226562 55.988281 C 153.730469 55.457031 153.484375 54.699219 153.484375 53.722656 Z M 154.5 53.722656 C 154.5 54.464844 154.660156 55.027344 154.988281 55.402344 C 155.3125 55.769531 155.722656 55.949219 156.21875 55.949219 C 156.710938 55.949219 157.121094 55.769531 157.449219 55.402344 C 157.773438 55.027344 157.9375 54.457031 157.9375 53.683594 C 157.9375 52.972656 157.773438 52.425781 157.449219 52.042969 C 157.121094 51.667969 156.710938 51.476562 156.21875 51.476562 C 155.722656 51.476562 155.3125 51.667969 154.988281 52.042969 C 154.660156 52.410156 154.5 52.972656 154.5 53.722656 Z M 154.5 53.722656 "/>
<path style=" stroke:none;fill-rule:nonzero;fill:rgb(0%,0%,0%);fill-opacity:1;" d="M 159.742188 53.722656 C 159.742188 52.644531 160.039062 51.84375 160.640625 51.320312 C 161.148438 50.890625 161.757812 50.675781 162.476562 50.675781 C 163.28125 50.675781 163.941406 50.941406 164.449219 51.457031 C 164.957031 51.980469 165.210938 52.703125 165.210938 53.625 C 165.210938 54.382812 165.09375 54.972656 164.859375 55.402344 C 164.636719 55.832031 164.3125 56.175781 163.882812 56.417969 C 163.453125 56.652344 162.984375 56.769531 162.476562 56.769531 C 161.65625 56.769531 160.992188 56.511719 160.484375 55.988281 C 159.988281 55.457031 159.742188 54.699219 159.742188 53.722656 Z M 160.757812 53.722656 C 160.757812 54.464844 160.917969 55.027344 161.246094 55.402344 C 161.570312 55.769531 161.980469 55.949219 162.476562 55.949219 C 162.96875 55.949219 163.378906 55.769531 163.707031 55.402344 C 164.03125 55.027344 164.195312 54.457031 164.195312 53.683594 C 164.195312 52.972656 164.03125 52.425781 163.707031 52.042969 C 163.378906 51.667969 162.96875 51.476562 162.476562 51.476562 C 161.980469 51.476562 161.570312 51.667969 161.246094 52.042969 C 160.917969 52.410156 160.757812 52.972656 160.757812 53.722656 Z M 160.757812 53.722656 "/>
<path style=" stroke:none;fill-rule:nonzero;fill:rgb(0%,0%,0%);fill-opacity:1;" d="M 166.351562 56.632812 L 166.351562 48.585938 L 167.328125 48.585938 L 167.328125 56.632812 Z M 166.351562 56.632812 "/>
<path style=" stroke:none;fill-rule:nonzero;fill:rgb(0%,0%,0%);fill-opacity:1;" d="M 168.871094 49.71875 L 168.871094 48.585938 L 169.867188 48.585938 L 169.867188 49.71875 Z M 168.871094 56.632812 L 168.871094 50.792969 L 169.867188 50.792969 L 169.867188 56.632812 Z M 168.871094 56.632812 "/>
<path style=" stroke:none;fill-rule:nonzero;fill:rgb(0%,0%,0%);fill-opacity:1;" d="M 171.371094 56.632812 L 171.371094 50.792969 L 172.269531 50.792969 L 172.269531 51.632812 C 172.683594 51 173.304688 50.675781 174.125 50.675781 C 174.476562 50.675781 174.792969 50.746094 175.082031 50.871094 C 175.378906 50.988281 175.597656 51.15625 175.746094 51.359375 C 175.886719 51.554688 175.988281 51.800781 176.058594 52.082031 C 176.097656 52.269531 176.117188 52.585938 176.117188 53.039062 L 176.117188 56.632812 L 175.121094 56.632812 L 175.121094 53.078125 C 175.121094 52.679688 175.082031 52.375 175.003906 52.179688 C 174.925781 51.984375 174.789062 51.828125 174.59375 51.710938 C 174.398438 51.585938 174.167969 51.515625 173.910156 51.515625 C 173.488281 51.515625 173.128906 51.652344 172.816406 51.925781 C 172.511719 52.191406 172.367188 52.699219 172.367188 53.449219 L 172.367188 56.632812 Z M 171.371094 56.632812 "/>
<path style=" stroke:none;fill-rule:nonzero;fill:rgb(0%,0%,0%);fill-opacity:1;" d="M 177.453125 57.121094 L 178.410156 57.257812 C 178.449219 57.558594 178.554688 57.773438 178.742188 57.902344 C 178.984375 58.085938 179.328125 58.175781 179.757812 58.175781 C 180.210938 58.175781 180.5625 58.085938 180.8125 57.902344 C 181.054688 57.71875 181.226562 57.464844 181.320312 57.140625 C 181.367188 56.933594 181.386719 56.511719 181.378906 55.871094 C 180.949219 56.378906 180.410156 56.632812 179.777344 56.632812 C 178.964844 56.632812 178.339844 56.351562 177.902344 55.773438 C 177.472656 55.1875 177.257812 54.496094 177.257812 53.683594 C 177.257812 53.128906 177.355469 52.609375 177.550781 52.140625 C 177.753906 51.671875 178.046875 51.316406 178.429688 51.066406 C 178.804688 50.808594 179.253906 50.675781 179.777344 50.675781 C 180.464844 50.675781 181.03125 50.949219 181.476562 51.496094 L 181.476562 50.792969 L 182.394531 50.792969 L 182.394531 55.832031 C 182.394531 56.742188 182.296875 57.386719 182.101562 57.765625 C 181.914062 58.144531 181.621094 58.441406 181.222656 58.664062 C 180.832031 58.886719 180.34375 58.996094 179.757812 58.996094 C 179.054688 58.996094 178.488281 58.839844 178.058594 58.527344 C 177.636719 58.214844 177.4375 57.746094 177.453125 57.121094 Z M 178.273438 53.605469 C 178.273438 54.378906 178.417969 54.933594 178.722656 55.285156 C 179.019531 55.636719 179.394531 55.8125 179.855469 55.8125 C 180.308594 55.8125 180.695312 55.636719 181.007812 55.285156 C 181.320312 54.933594 181.476562 54.386719 181.476562 53.644531 C 181.476562 52.933594 181.308594 52.390625 180.988281 52.023438 C 180.675781 51.664062 180.292969 51.476562 179.855469 51.476562 C 179.410156 51.476562 179.035156 51.664062 178.722656 52.023438 C 178.417969 52.375 178.273438 52.902344 178.273438 53.605469 Z M 178.273438 53.605469 "/>
</g>
</svg>
