<?xml version="1.0" encoding="UTF-8"?>
<svg xmlns="http://www.w3.org/2000/svg" xmlns:xlink="http://www.w3.org/1999/xlink" width="305pt" height="170pt" viewBox="0 0 305 170" version="1.1">
<defs>
<clipPath id="clip1">
  <path d="M 16.25 81.40625 L 22 81.40625 L 22 87.34375 L 16.25 87.34375 Z M 16.25 81.40625 "/>
</clipPath>
<clipPath id="clip2">
  <path d="M 283.125 81.40625 L 289 81.40625 L 289 87.34375 L 283.125 87.34375 Z M 283.125 81.40625 "/>
</clipPath>
</defs>
<g id="surface1">
<path style="fill:none;stroke-width:1;stroke-linecap:round;stroke-linejoin:round;stroke:rgb(0%,0%,0%);stroke-opacity:1;stroke-miterlimit:10;" d="M 471.4 309.253125 L 549 309.253125 L 549 327.253125 L 471.4 327.253125 Z M 471.4 309.253125 " transform="matrix(1.25,0,0,1.25,-556.25,-273.75)"/>
<path style=" stroke:none;fill-rule:nonzero;fill:rgb(0%,0%,0%);fill-opacity:1;" d="M 53.941406 127.636719 L 53.941406 119.589844 L 59.761719 119.589844 L 59.761719 120.527344 L 54.996094 120.527344 L 54.996094 123.007812 L 59.449219 123.007812 L 59.449219 123.945312 L 54.996094 123.945312 L 54.996094 126.679688 L 59.9375 126.679688 L 59.9375 127.636719 Z M 53.941406 127.636719 "/>
<path style=" stroke:none;fill-rule:nonzero;fill:rgb(0%,0%,0%);fill-opacity:1;" d="M 61.289062 127.636719 L 61.289062 121.796875 L 62.167969 121.796875 L 62.167969 122.617188 C 62.347656 122.332031 62.589844 122.101562 62.890625 121.933594 C 63.203125 121.765625 63.554688 121.679688 63.945312 121.679688 C 64.375 121.679688 64.726562 121.769531 65 121.953125 C 65.273438 122.121094 65.46875 122.371094 65.585938 122.695312 C 66.054688 122.019531 66.652344 121.679688 67.382812 121.679688 C 67.96875 121.679688 68.417969 121.84375 68.730469 122.167969 C 69.042969 122.480469 69.199219 122.96875 69.199219 123.632812 L 69.199219 127.636719 L 68.203125 127.636719 L 68.203125 123.964844 C 68.203125 123.5625 68.167969 123.273438 68.105469 123.105469 C 68.050781 122.9375 67.941406 122.800781 67.773438 122.695312 C 67.601562 122.578125 67.402344 122.519531 67.167969 122.519531 C 66.761719 122.519531 66.425781 122.65625 66.152344 122.929688 C 65.878906 123.203125 65.742188 123.640625 65.742188 124.238281 L 65.742188 127.636719 L 64.746094 127.636719 L 64.746094 123.847656 C 64.746094 123.40625 64.667969 123.074219 64.511719 122.851562 C 64.355469 122.628906 64.09375 122.519531 63.730469 122.519531 C 63.441406 122.519531 63.183594 122.597656 62.949219 122.753906 C 62.714844 122.898438 62.542969 123.113281 62.441406 123.398438 C 62.335938 123.671875 62.285156 124.074219 62.285156 124.609375 L 62.285156 127.636719 Z M 61.289062 127.636719 "/>
<path style=" stroke:none;fill-rule:nonzero;fill:rgb(0%,0%,0%);fill-opacity:1;" d="M 71.578125 127.636719 L 70.660156 127.636719 L 70.660156 119.589844 L 71.636719 119.589844 L 71.636719 122.460938 C 72.050781 121.941406 72.585938 121.679688 73.238281 121.679688 C 73.601562 121.679688 73.941406 121.75 74.253906 121.894531 C 74.578125 122.039062 74.84375 122.238281 75.054688 122.5 C 75.261719 122.761719 75.425781 123.078125 75.542969 123.457031 C 75.660156 123.820312 75.71875 124.210938 75.71875 124.628906 C 75.71875 125.632812 75.46875 126.40625 74.976562 126.953125 C 74.480469 127.5 73.886719 127.773438 73.199219 127.773438 C 72.507812 127.773438 71.96875 127.488281 71.578125 126.914062 Z M 71.558594 124.667969 C 71.558594 125.371094 71.65625 125.878906 71.851562 126.191406 C 72.164062 126.699219 72.578125 126.953125 73.101562 126.953125 C 73.542969 126.953125 73.921875 126.765625 74.234375 126.386719 C 74.546875 126.007812 74.703125 125.449219 74.703125 124.707031 C 74.703125 123.953125 74.550781 123.390625 74.253906 123.027344 C 73.953125 122.664062 73.589844 122.480469 73.160156 122.480469 C 72.714844 122.480469 72.339844 122.667969 72.027344 123.046875 C 71.714844 123.425781 71.558594 123.964844 71.558594 124.667969 Z M 71.558594 124.667969 "/>
<path style=" stroke:none;fill-rule:nonzero;fill:rgb(0%,0%,0%);fill-opacity:1;" d="M 80.902344 125.761719 L 81.9375 125.878906 C 81.765625 126.476562 81.457031 126.945312 81.019531 127.285156 C 80.589844 127.609375 80.03125 127.773438 79.359375 127.773438 C 78.507812 127.773438 77.835938 127.511719 77.328125 126.992188 C 76.828125 126.457031 76.585938 125.714844 76.585938 124.765625 C 76.585938 123.789062 76.839844 123.035156 77.347656 122.5 C 77.855469 121.953125 78.507812 121.679688 79.320312 121.679688 C 80.101562 121.679688 80.730469 121.945312 81.214844 122.480469 C 81.707031 123 81.957031 123.742188 81.957031 124.707031 C 81.957031 124.773438 81.957031 124.863281 81.957031 124.980469 L 77.601562 124.980469 C 77.640625 125.617188 77.820312 126.105469 78.148438 126.445312 C 78.46875 126.785156 78.878906 126.953125 79.378906 126.953125 C 79.738281 126.953125 80.046875 126.863281 80.296875 126.679688 C 80.554688 126.484375 80.753906 126.179688 80.902344 125.761719 Z M 77.660156 124.160156 L 80.921875 124.160156 C 80.882812 123.664062 80.753906 123.292969 80.550781 123.046875 C 80.238281 122.667969 79.828125 122.480469 79.320312 122.480469 C 78.859375 122.480469 78.480469 122.636719 78.167969 122.949219 C 77.863281 123.25 77.699219 123.652344 77.660156 124.160156 Z M 77.660156 124.160156 "/>
<path style=" stroke:none;fill-rule:nonzero;fill:rgb(0%,0%,0%);fill-opacity:1;" d="M 86.964844 127.636719 L 86.964844 126.894531 C 86.582031 127.480469 86.035156 127.773438 85.324219 127.773438 C 84.863281 127.773438 84.445312 127.640625 84.054688 127.382812 C 83.664062 127.121094 83.355469 126.765625 83.136719 126.308594 C 82.925781 125.851562 82.824219 125.324219 82.824219 124.726562 C 82.824219 124.140625 82.921875 123.613281 83.117188 123.144531 C 83.3125 122.664062 83.59375 122.296875 83.976562 122.050781 C 84.367188 121.804688 84.800781 121.679688 85.285156 121.679688 C 85.636719 121.679688 85.949219 121.75 86.222656 121.894531 C 86.496094 122.039062 86.714844 122.234375 86.886719 122.480469 L 86.886719 119.589844 L 87.882812 119.589844 L 87.882812 127.636719 Z M 83.839844 124.726562 C 83.839844 125.46875 83.996094 126.027344 84.308594 126.40625 C 84.621094 126.769531 84.992188 126.953125 85.421875 126.953125 C 85.851562 126.953125 86.210938 126.777344 86.515625 126.425781 C 86.828125 126.074219 86.984375 125.535156 86.984375 124.804688 C 86.984375 124.011719 86.828125 123.425781 86.515625 123.046875 C 86.203125 122.667969 85.820312 122.480469 85.382812 122.480469 C 84.9375 122.480469 84.566406 122.664062 84.269531 123.027344 C 83.980469 123.390625 83.839844 123.957031 83.839844 124.726562 Z M 83.839844 124.726562 "/>
<path style=" stroke:none;fill-rule:nonzero;fill:rgb(0%,0%,0%);fill-opacity:1;" d="M 93.222656 127.636719 L 93.222656 126.894531 C 92.839844 127.480469 92.292969 127.773438 91.582031 127.773438 C 91.121094 127.773438 90.703125 127.640625 90.3125 127.382812 C 89.921875 127.121094 89.613281 126.765625 89.394531 126.308594 C 89.183594 125.851562 89.082031 125.324219 89.082031 124.726562 C 89.082031 124.140625 89.179688 123.613281 89.375 123.144531 C 89.570312 122.664062 89.851562 122.296875 90.234375 122.050781 C 90.625 121.804688 91.058594 121.679688 91.542969 121.679688 C 91.894531 121.679688 92.207031 121.75 92.480469 121.894531 C 92.753906 122.039062 92.972656 122.234375 93.144531 122.480469 L 93.144531 119.589844 L 94.140625 119.589844 L 94.140625 127.636719 Z M 90.097656 124.726562 C 90.097656 125.46875 90.253906 126.027344 90.566406 126.40625 C 90.878906 126.769531 91.25 126.953125 91.679688 126.953125 C 92.109375 126.953125 92.46875 126.777344 92.773438 126.425781 C 93.085938 126.074219 93.242188 125.535156 93.242188 124.804688 C 93.242188 124.011719 93.085938 123.425781 92.773438 123.046875 C 92.460938 122.667969 92.078125 122.480469 91.640625 122.480469 C 91.195312 122.480469 90.824219 122.664062 90.527344 123.027344 C 90.238281 123.390625 90.097656 123.957031 90.097656 124.726562 Z M 90.097656 124.726562 "/>
<path style=" stroke:none;fill-rule:nonzero;fill:rgb(0%,0%,0%);fill-opacity:1;" d="M 95.691406 120.722656 L 95.691406 119.589844 L 96.6875 119.589844 L 96.6875 120.722656 Z M 95.691406 127.636719 L 95.691406 121.796875 L 96.6875 121.796875 L 96.6875 127.636719 Z M 95.691406 127.636719 "/>
<path style=" stroke:none;fill-rule:nonzero;fill:rgb(0%,0%,0%);fill-opacity:1;" d="M 98.1875 127.636719 L 98.1875 121.796875 L 99.085938 121.796875 L 99.085938 122.636719 C 99.503906 122 100.121094 121.679688 100.941406 121.679688 C 101.292969 121.679688 101.613281 121.746094 101.898438 121.875 C 102.199219 121.992188 102.417969 122.15625 102.5625 122.363281 C 102.707031 122.558594 102.808594 122.800781 102.875 123.085938 C 102.914062 123.269531 102.933594 123.585938 102.933594 124.042969 L 102.933594 127.636719 L 101.9375 127.636719 L 101.9375 124.082031 C 101.9375 123.679688 101.898438 123.378906 101.820312 123.183594 C 101.742188 122.988281 101.605469 122.832031 101.410156 122.714844 C 101.214844 122.585938 100.988281 122.519531 100.726562 122.519531 C 100.308594 122.519531 99.945312 122.65625 99.632812 122.929688 C 99.332031 123.191406 99.183594 123.699219 99.183594 124.453125 L 99.183594 127.636719 Z M 98.1875 127.636719 "/>
<path style=" stroke:none;fill-rule:nonzero;fill:rgb(0%,0%,0%);fill-opacity:1;" d="M 104.269531 128.125 L 105.226562 128.261719 C 105.265625 128.558594 105.375 128.773438 105.558594 128.90625 C 105.804688 129.085938 106.144531 129.179688 106.574219 129.179688 C 107.03125 129.179688 107.382812 129.085938 107.628906 128.90625 C 107.875 128.71875 108.046875 128.464844 108.136719 128.144531 C 108.1875 127.933594 108.207031 127.511719 108.195312 126.875 C 107.765625 127.382812 107.230469 127.636719 106.59375 127.636719 C 105.785156 127.636719 105.160156 127.351562 104.71875 126.777344 C 104.289062 126.191406 104.074219 125.496094 104.074219 124.6875 C 104.074219 124.128906 104.171875 123.613281 104.367188 123.144531 C 104.574219 122.675781 104.867188 122.316406 105.246094 122.070312 C 105.625 121.808594 106.074219 121.679688 106.59375 121.679688 C 107.285156 121.679688 107.851562 121.953125 108.292969 122.5 L 108.292969 121.796875 L 109.210938 121.796875 L 109.210938 126.835938 C 109.210938 127.742188 109.113281 128.386719 108.917969 128.769531 C 108.734375 129.144531 108.441406 129.441406 108.039062 129.667969 C 107.648438 129.886719 107.160156 130 106.574219 130 C 105.871094 130 105.304688 129.84375 104.875 129.53125 C 104.457031 129.21875 104.257812 128.75 104.269531 128.125 Z M 105.089844 124.609375 C 105.089844 125.378906 105.238281 125.9375 105.539062 126.289062 C 105.839844 126.640625 106.214844 126.816406 106.671875 126.816406 C 107.128906 126.816406 107.511719 126.640625 107.824219 126.289062 C 108.136719 125.9375 108.292969 125.390625 108.292969 124.648438 C 108.292969 123.933594 108.128906 123.390625 107.804688 123.027344 C 107.492188 122.664062 107.113281 122.480469 106.671875 122.480469 C 106.230469 122.480469 105.851562 122.664062 105.539062 123.027344 C 105.238281 123.378906 105.089844 123.90625 105.089844 124.609375 Z M 105.089844 124.609375 "/>
<path style=" stroke:none;fill-rule:nonzero;fill:rgb(0%,0%,0%);fill-opacity:1;" d="M 61.375 160.671875 L 62.371094 160.574219 C 62.417969 160.980469 62.53125 161.3125 62.703125 161.570312 C 62.882812 161.835938 63.15625 162.039062 63.523438 162.195312 C 63.882812 162.351562 64.292969 162.429688 64.753906 162.429688 C 65.152344 162.429688 65.515625 162.371094 65.828125 162.253906 C 66.140625 162.136719 66.375 161.976562 66.53125 161.765625 C 66.6875 161.546875 66.765625 161.3125 66.765625 161.0625 C 66.765625 160.820312 66.6875 160.601562 66.53125 160.417969 C 66.382812 160.222656 66.144531 160.0625 65.808594 159.929688 C 65.597656 159.84375 65.125 159.710938 64.382812 159.539062 C 63.640625 159.359375 63.117188 159.1875 62.820312 159.03125 C 62.4375 158.835938 62.15625 158.59375 61.960938 158.289062 C 61.773438 157.992188 61.6875 157.65625 61.6875 157.273438 C 61.6875 156.875 61.792969 156.492188 62.019531 156.140625 C 62.253906 155.789062 62.589844 155.523438 63.035156 155.339844 C 63.472656 155.160156 63.972656 155.066406 64.519531 155.066406 C 65.113281 155.066406 65.640625 155.164062 66.101562 155.359375 C 66.554688 155.546875 66.902344 155.824219 67.136719 156.199219 C 67.378906 156.578125 67.515625 157 67.546875 157.46875 L 66.511719 157.546875 C 66.457031 157.039062 66.277344 156.65625 65.964844 156.394531 C 65.652344 156.136719 65.183594 156.003906 64.558594 156.003906 C 63.917969 156.003906 63.449219 156.121094 63.152344 156.355469 C 62.847656 156.589844 62.703125 156.878906 62.703125 157.214844 C 62.703125 157.503906 62.804688 157.738281 63.015625 157.917969 C 63.21875 158.113281 63.757812 158.308594 64.617188 158.503906 C 65.484375 158.699219 66.085938 158.871094 66.414062 159.011719 C 66.882812 159.222656 67.222656 159.496094 67.449219 159.832031 C 67.667969 160.160156 67.78125 160.546875 67.78125 160.984375 C 67.78125 161.40625 67.652344 161.804688 67.410156 162.195312 C 67.160156 162.578125 66.808594 162.867188 66.355469 163.074219 C 65.894531 163.28125 65.382812 163.386719 64.8125 163.386719 C 64.078125 163.386719 63.46875 163.28125 62.976562 163.074219 C 62.476562 162.855469 62.085938 162.539062 61.804688 162.117188 C 61.53125 161.6875 61.382812 161.210938 61.375 160.671875 Z M 61.375 160.671875 "/>
<path style=" stroke:none;fill-rule:nonzero;fill:rgb(0%,0%,0%);fill-opacity:1;" d="M 68.742188 160.339844 C 68.742188 159.261719 69.039062 158.460938 69.640625 157.9375 C 70.148438 157.507812 70.757812 157.292969 71.476562 157.292969 C 72.28125 157.292969 72.941406 157.554688 73.449219 158.074219 C 73.957031 158.597656 74.210938 159.320312 74.210938 160.242188 C 74.210938 161 74.09375 161.589844 73.859375 162.019531 C 73.632812 162.449219 73.3125 162.789062 72.882812 163.035156 C 72.453125 163.269531 71.984375 163.386719 71.476562 163.386719 C 70.65625 163.386719 69.992188 163.128906 69.484375 162.605469 C 68.984375 162.074219 68.742188 161.316406 68.742188 160.339844 Z M 69.757812 160.339844 C 69.757812 161.082031 69.917969 161.644531 70.246094 162.019531 C 70.566406 162.386719 70.976562 162.566406 71.476562 162.566406 C 71.96875 162.566406 72.378906 162.386719 72.707031 162.019531 C 73.027344 161.644531 73.195312 161.070312 73.195312 160.300781 C 73.195312 159.585938 73.027344 159.039062 72.707031 158.660156 C 72.378906 158.285156 71.96875 158.09375 71.476562 158.09375 C 70.976562 158.09375 70.566406 158.285156 70.246094 158.660156 C 69.917969 159.027344 69.757812 159.585938 69.757812 160.339844 Z M 69.757812 160.339844 "/>
<path style=" stroke:none;fill-rule:nonzero;fill:rgb(0%,0%,0%);fill-opacity:1;" d="M 79.195312 163.25 L 79.195312 162.390625 C 78.738281 163.054688 78.121094 163.386719 77.339844 163.386719 C 77 163.386719 76.683594 163.320312 76.382812 163.191406 C 76.082031 163.050781 75.855469 162.878906 75.699219 162.683594 C 75.554688 162.488281 75.457031 162.25 75.40625 161.960938 C 75.367188 161.765625 75.347656 161.453125 75.347656 161.023438 L 75.347656 157.410156 L 76.324219 157.410156 L 76.324219 160.652344 C 76.324219 161.175781 76.351562 161.523438 76.402344 161.6875 C 76.453125 161.953125 76.578125 162.15625 76.773438 162.3125 C 76.980469 162.460938 77.234375 162.527344 77.535156 162.527344 C 77.835938 162.527344 78.113281 162.460938 78.375 162.3125 C 78.636719 162.15625 78.816406 161.953125 78.921875 161.6875 C 79.027344 161.429688 79.078125 161.042969 79.078125 160.535156 L 79.078125 157.410156 L 80.074219 157.410156 L 80.074219 163.25 Z M 79.195312 163.25 "/>
<path style=" stroke:none;fill-rule:nonzero;fill:rgb(0%,0%,0%);fill-opacity:1;" d="M 81.605469 163.25 L 81.605469 157.410156 L 82.503906 157.410156 L 82.503906 158.308594 C 82.726562 157.894531 82.933594 157.621094 83.128906 157.488281 C 83.324219 157.359375 83.539062 157.292969 83.773438 157.292969 C 84.097656 157.292969 84.4375 157.398438 84.789062 157.605469 L 84.4375 158.523438 C 84.203125 158.382812 83.960938 158.308594 83.714844 158.308594 C 83.507812 158.308594 83.3125 158.375 83.128906 158.503906 C 82.960938 158.636719 82.835938 158.816406 82.757812 159.050781 C 82.652344 159.402344 82.601562 159.789062 82.601562 160.203125 L 82.601562 163.25 Z M 81.605469 163.25 "/>
<path style=" stroke:none;fill-rule:nonzero;fill:rgb(0%,0%,0%);fill-opacity:1;" d="M 89.179688 161.121094 L 90.15625 161.238281 C 90.050781 161.917969 89.777344 162.445312 89.335938 162.820312 C 88.894531 163.203125 88.351562 163.386719 87.714844 163.386719 C 86.921875 163.386719 86.28125 163.128906 85.800781 162.605469 C 85.320312 162.085938 85.078125 161.335938 85.078125 160.359375 C 85.078125 159.726562 85.183594 159.167969 85.390625 158.699219 C 85.597656 158.230469 85.910156 157.878906 86.328125 157.644531 C 86.757812 157.410156 87.226562 157.292969 87.734375 157.292969 C 88.359375 157.292969 88.875 157.460938 89.277344 157.78125 C 89.679688 158.09375 89.941406 158.542969 90.058594 159.128906 L 89.101562 159.285156 C 89.011719 158.894531 88.847656 158.601562 88.613281 158.40625 C 88.378906 158.203125 88.097656 158.09375 87.773438 158.09375 C 87.265625 158.09375 86.855469 158.28125 86.542969 158.640625 C 86.242188 158.992188 86.09375 159.554688 86.09375 160.320312 C 86.09375 161.117188 86.242188 161.6875 86.542969 162.039062 C 86.84375 162.390625 87.234375 162.566406 87.714844 162.566406 C 88.105469 162.566406 88.429688 162.449219 88.691406 162.214844 C 88.953125 161.980469 89.113281 161.617188 89.179688 161.121094 Z M 89.179688 161.121094 "/>
<path style=" stroke:none;fill-rule:nonzero;fill:rgb(0%,0%,0%);fill-opacity:1;" d="M 94.980469 161.375 L 96.015625 161.492188 C 95.847656 162.09375 95.539062 162.5625 95.097656 162.898438 C 94.667969 163.226562 94.113281 163.386719 93.4375 163.386719 C 92.589844 163.386719 91.914062 163.128906 91.40625 162.605469 C 90.910156 162.074219 90.664062 161.332031 90.664062 160.378906 C 90.664062 159.402344 90.917969 158.648438 91.425781 158.113281 C 91.933594 157.566406 92.589844 157.292969 93.398438 157.292969 C 94.179688 157.292969 94.8125 157.5625 95.292969 158.09375 C 95.789062 158.617188 96.035156 159.359375 96.035156 160.320312 C 96.035156 160.390625 96.035156 160.476562 96.035156 160.59375 L 91.679688 160.59375 C 91.71875 161.234375 91.902344 161.722656 92.226562 162.058594 C 92.550781 162.398438 92.960938 162.566406 93.457031 162.566406 C 93.820312 162.566406 94.128906 162.476562 94.375 162.292969 C 94.636719 162.097656 94.835938 161.796875 94.980469 161.375 Z M 91.738281 159.773438 L 95 159.773438 C 94.960938 159.28125 94.835938 158.910156 94.628906 158.660156 C 94.316406 158.285156 93.90625 158.09375 93.398438 158.09375 C 92.941406 158.09375 92.558594 158.25 92.246094 158.5625 C 91.945312 158.867188 91.777344 159.265625 91.738281 159.773438 Z M 91.738281 159.773438 "/>
<path style=" stroke:none;fill-rule:nonzero;fill:rgb(0%,0%,0%);fill-opacity:1;" d="M 96.863281 161.511719 L 97.839844 161.355469 C 97.890625 161.746094 98.039062 162.046875 98.289062 162.253906 C 98.546875 162.464844 98.898438 162.566406 99.34375 162.566406 C 99.796875 162.566406 100.136719 162.476562 100.359375 162.292969 C 100.578125 162.113281 100.691406 161.898438 100.691406 161.648438 C 100.691406 161.414062 100.59375 161.238281 100.398438 161.121094 C 100.253906 161.03125 99.914062 160.914062 99.382812 160.769531 C 98.652344 160.589844 98.144531 160.433594 97.859375 160.300781 C 97.585938 160.171875 97.375 159.988281 97.234375 159.753906 C 97.089844 159.519531 97.019531 159.261719 97.019531 158.972656 C 97.019531 158.714844 97.078125 158.476562 97.195312 158.25 C 97.3125 158.03125 97.472656 157.839844 97.683594 157.683594 C 97.839844 157.582031 98.046875 157.488281 98.308594 157.410156 C 98.582031 157.332031 98.867188 157.292969 99.167969 157.292969 C 99.621094 157.292969 100.019531 157.359375 100.359375 157.488281 C 100.710938 157.621094 100.96875 157.796875 101.140625 158.015625 C 101.308594 158.242188 101.425781 158.539062 101.492188 158.914062 L 100.515625 159.050781 C 100.476562 158.753906 100.34375 158.519531 100.125 158.347656 C 99.914062 158.179688 99.621094 158.09375 99.246094 158.09375 C 98.789062 158.09375 98.464844 158.171875 98.269531 158.328125 C 98.074219 158.476562 97.976562 158.648438 97.976562 158.855469 C 97.976562 158.988281 98.015625 159.101562 98.09375 159.1875 C 98.171875 159.304688 98.300781 159.398438 98.484375 159.460938 C 98.574219 159.5 98.859375 159.585938 99.34375 159.714844 C 100.046875 159.898438 100.535156 160.046875 100.808594 160.164062 C 101.09375 160.28125 101.316406 160.457031 101.472656 160.691406 C 101.628906 160.914062 101.707031 161.195312 101.707031 161.53125 C 101.707031 161.875 101.609375 162.1875 101.414062 162.46875 C 101.21875 162.757812 100.9375 162.984375 100.574219 163.152344 C 100.222656 163.308594 99.8125 163.386719 99.34375 163.386719 C 98.585938 163.386719 98.007812 163.230469 97.605469 162.917969 C 97.214844 162.59375 96.964844 162.125 96.863281 161.511719 Z M 96.863281 161.511719 "/>
<path style="fill:none;stroke-width:1;stroke-linecap:round;stroke-linejoin:round;stroke:rgb(0%,0%,0%);stroke-opacity:1;stroke-miterlimit:10;" d="M 549 286.34375 L 579.5 286.34375 " transform="matrix(1.25,0,0,1.25,-556.25,-273.75)"/>
<path style="fill:none;stroke-width:1;stroke-linecap:butt;stroke-linejoin:miter;stroke:rgb(0%,0%,0%);stroke-opacity:1;stroke-miterlimit:10;" d="M 583.5 286.34375 L 579.5 286.34375 M 579.5 284.84375 L 583.5 286.34375 L 579.5 287.84375 " transform="matrix(1.25,0,0,1.25,-556.25,-273.75)"/>
<path style="fill:none;stroke-width:1;stroke-linecap:round;stroke-linejoin:round;stroke:rgb(0%,0%,0%);stroke-opacity:1;stroke-miterlimit:10;" d="M 510.2 339.6 L 510.2 333.15625 " transform="matrix(1.25,0,0,1.25,-556.25,-273.75)"/>
<path style="fill:none;stroke-width:1;stroke-linecap:butt;stroke-linejoin:miter;stroke:rgb(0%,0%,0%);stroke-opacity:1;stroke-miterlimit:10;" d="M 510.2 329.15625 L 510.2 333.15625 M 508.7 333.15625 L 510.2 329.15625 L 511.7 333.15625 " transform="matrix(1.25,0,0,1.25,-556.25,-273.75)"/>
<path style=" stroke:none;fill-rule:nonzero;fill:rgb(0%,0%,0%);fill-opacity:1;" d="M 62.0625 16.25 L 62.0625 8.203125 L 67.882812 8.203125 L 67.882812 9.140625 L 63.117188 9.140625 L 63.117188 11.621094 L 67.570312 11.621094 L 67.570312 12.558594 L 63.117188 12.558594 L 63.117188 15.292969 L 68.058594 15.292969 L 68.058594 16.25 Z M 62.0625 16.25 "/>
<path style=" stroke:none;fill-rule:nonzero;fill:rgb(0%,0%,0%);fill-opacity:1;" d="M 69.410156 16.25 L 69.410156 10.410156 L 70.308594 10.410156 L 70.308594 11.25 C 70.722656 10.617188 71.34375 10.292969 72.164062 10.292969 C 72.515625 10.292969 72.832031 10.359375 73.121094 10.488281 C 73.417969 10.605469 73.640625 10.773438 73.785156 10.976562 C 73.925781 11.171875 74.03125 11.414062 74.097656 11.699219 C 74.136719 11.882812 74.15625 12.203125 74.15625 12.65625 L 74.15625 16.25 L 73.160156 16.25 L 73.160156 12.695312 C 73.160156 12.296875 73.121094 11.992188 73.042969 11.796875 C 72.964844 11.601562 72.828125 11.445312 72.632812 11.328125 C 72.4375 11.203125 72.207031 11.132812 71.949219 11.132812 C 71.53125 11.132812 71.167969 11.269531 70.855469 11.542969 C 70.554688 11.804688 70.40625 12.3125 70.40625 13.066406 L 70.40625 16.25 Z M 69.410156 16.25 "/>
<path style=" stroke:none;fill-rule:nonzero;fill:rgb(0%,0%,0%);fill-opacity:1;" d="M 79.476562 14.121094 L 80.453125 14.238281 C 80.34375 14.917969 80.070312 15.445312 79.632812 15.820312 C 79.1875 16.203125 78.644531 16.386719 78.011719 16.386719 C 77.214844 16.386719 76.574219 16.128906 76.097656 15.605469 C 75.613281 15.085938 75.375 14.335938 75.375 13.359375 C 75.375 12.726562 75.476562 12.167969 75.6875 11.699219 C 75.890625 11.230469 76.203125 10.878906 76.625 10.644531 C 77.054688 10.410156 77.523438 10.292969 78.03125 10.292969 C 78.65625 10.292969 79.167969 10.460938 79.574219 10.78125 C 79.972656 11.09375 80.238281 11.542969 80.355469 12.128906 L 79.398438 12.285156 C 79.304688 11.894531 79.144531 11.601562 78.910156 11.40625 C 78.675781 11.203125 78.390625 11.09375 78.070312 11.09375 C 77.5625 11.09375 77.152344 11.28125 76.839844 11.640625 C 76.535156 11.992188 76.390625 12.554688 76.390625 13.320312 C 76.390625 14.117188 76.535156 14.6875 76.839844 15.039062 C 77.136719 15.390625 77.527344 15.566406 78.011719 15.566406 C 78.402344 15.566406 78.722656 15.449219 78.988281 15.214844 C 79.246094 14.980469 79.40625 14.617188 79.476562 14.121094 Z M 79.476562 14.121094 "/>
<path style=" stroke:none;fill-rule:nonzero;fill:rgb(0%,0%,0%);fill-opacity:1;" d="M 80.921875 13.339844 C 80.921875 12.261719 81.21875 11.460938 81.820312 10.9375 C 82.328125 10.507812 82.9375 10.292969 83.65625 10.292969 C 84.460938 10.292969 85.121094 10.554688 85.628906 11.074219 C 86.136719 11.597656 86.390625 12.320312 86.390625 13.242188 C 86.390625 14 86.273438 14.589844 86.039062 15.019531 C 85.8125 15.449219 85.492188 15.789062 85.0625 16.035156 C 84.632812 16.269531 84.164062 16.386719 83.65625 16.386719 C 82.835938 16.386719 82.171875 16.128906 81.664062 15.605469 C 81.164062 15.074219 80.921875 14.316406 80.921875 13.339844 Z M 81.9375 13.339844 C 81.9375 14.082031 82.097656 14.644531 82.425781 15.019531 C 82.746094 15.386719 83.15625 15.566406 83.65625 15.566406 C 84.148438 15.566406 84.558594 15.386719 84.886719 15.019531 C 85.207031 14.644531 85.375 14.070312 85.375 13.300781 C 85.375 12.585938 85.207031 12.039062 84.886719 11.660156 C 84.558594 11.285156 84.148438 11.09375 83.65625 11.09375 C 83.15625 11.09375 82.746094 11.285156 82.425781 11.660156 C 82.097656 12.027344 81.9375 12.585938 81.9375 13.339844 Z M 81.9375 13.339844 "/>
<path style=" stroke:none;fill-rule:nonzero;fill:rgb(0%,0%,0%);fill-opacity:1;" d="M 91.339844 16.25 L 91.339844 15.507812 C 90.957031 16.09375 90.410156 16.386719 89.699219 16.386719 C 89.238281 16.386719 88.820312 16.253906 88.429688 15.996094 C 88.039062 15.738281 87.730469 15.382812 87.511719 14.921875 C 87.300781 14.46875 87.199219 13.941406 87.199219 13.339844 C 87.199219 12.753906 87.296875 12.226562 87.492188 11.757812 C 87.6875 11.28125 87.96875 10.914062 88.351562 10.664062 C 88.742188 10.421875 89.175781 10.292969 89.660156 10.292969 C 90.011719 10.292969 90.324219 10.367188 90.597656 10.507812 C 90.871094 10.65625 91.089844 10.851562 91.261719 11.09375 L 91.261719 8.203125 L 92.257812 8.203125 L 92.257812 16.25 Z M 88.214844 13.339844 C 88.214844 14.082031 88.371094 14.644531 88.683594 15.019531 C 88.996094 15.386719 89.367188 15.566406 89.796875 15.566406 C 90.226562 15.566406 90.585938 15.390625 90.890625 15.039062 C 91.203125 14.6875 91.359375 14.148438 91.359375 13.417969 C 91.359375 12.625 91.203125 12.039062 90.890625 11.660156 C 90.578125 11.285156 90.195312 11.09375 89.757812 11.09375 C 89.3125 11.09375 88.941406 11.28125 88.644531 11.640625 C 88.355469 12.007812 88.214844 12.574219 88.214844 13.339844 Z M 88.214844 13.339844 "/>
<path style=" stroke:none;fill-rule:nonzero;fill:rgb(0%,0%,0%);fill-opacity:1;" d="M 97.792969 14.375 L 98.828125 14.492188 C 98.65625 15.09375 98.347656 15.5625 97.910156 15.898438 C 97.480469 16.226562 96.921875 16.386719 96.25 16.386719 C 95.398438 16.386719 94.726562 16.128906 94.21875 15.605469 C 93.71875 15.074219 93.476562 14.332031 93.476562 13.378906 C 93.476562 12.402344 93.730469 11.648438 94.238281 11.113281 C 94.746094 10.566406 95.398438 10.292969 96.210938 10.292969 C 96.992188 10.292969 97.621094 10.5625 98.105469 11.09375 C 98.597656 11.617188 98.847656 12.359375 98.847656 13.320312 C 98.847656 13.390625 98.847656 13.476562 98.847656 13.59375 L 94.492188 13.59375 C 94.53125 14.234375 94.710938 14.722656 95.039062 15.058594 C 95.359375 15.398438 95.769531 15.566406 96.269531 15.566406 C 96.628906 15.566406 96.9375 15.476562 97.1875 15.292969 C 97.445312 15.097656 97.644531 14.796875 97.792969 14.375 Z M 94.550781 12.773438 L 97.8125 12.773438 C 97.773438 12.28125 97.644531 11.910156 97.441406 11.660156 C 97.128906 11.285156 96.71875 11.09375 96.210938 11.09375 C 95.75 11.09375 95.371094 11.25 95.058594 11.5625 C 94.753906 11.867188 94.589844 12.265625 94.550781 12.773438 Z M 94.550781 12.773438 "/>
<path style=" stroke:none;fill-rule:nonzero;fill:rgb(0%,0%,0%);fill-opacity:1;" d="M 100.046875 16.25 L 100.046875 10.410156 L 100.945312 10.410156 L 100.945312 11.308594 C 101.164062 10.894531 101.375 10.621094 101.570312 10.488281 C 101.765625 10.359375 101.980469 10.292969 102.214844 10.292969 C 102.535156 10.292969 102.878906 10.398438 103.230469 10.605469 L 102.878906 11.523438 C 102.644531 11.382812 102.398438 11.308594 102.15625 11.308594 C 101.945312 11.308594 101.75 11.375 101.570312 11.503906 C 101.398438 11.636719 101.277344 11.816406 101.199219 12.050781 C 101.089844 12.402344 101.042969 12.789062 101.042969 13.203125 L 101.042969 16.25 Z M 100.046875 16.25 "/>
<path style=" stroke:none;fill-rule:nonzero;fill:rgb(0%,0%,0%);fill-opacity:1;" d="M 202.222656 16.25 L 202.222656 8.203125 L 204.996094 8.203125 C 205.632812 8.203125 206.113281 8.242188 206.441406 8.320312 C 206.894531 8.429688 207.285156 8.613281 207.613281 8.886719 C 208.042969 9.253906 208.359375 9.71875 208.570312 10.273438 C 208.777344 10.820312 208.882812 11.460938 208.882812 12.1875 C 208.882812 12.804688 208.808594 13.339844 208.667969 13.808594 C 208.523438 14.277344 208.339844 14.667969 208.121094 14.980469 C 207.898438 15.292969 207.652344 15.542969 207.378906 15.722656 C 207.117188 15.894531 206.796875 16.023438 206.421875 16.113281 C 206.054688 16.207031 205.625 16.25 205.132812 16.25 Z M 203.296875 15.292969 L 205.015625 15.292969 C 205.546875 15.292969 205.964844 15.25 206.265625 15.15625 C 206.5625 15.054688 206.804688 14.914062 206.988281 14.726562 C 207.234375 14.484375 207.429688 14.140625 207.574219 13.710938 C 207.714844 13.28125 207.789062 12.769531 207.789062 12.167969 C 207.789062 11.324219 207.652344 10.679688 207.378906 10.234375 C 207.105469 9.78125 206.765625 9.472656 206.363281 9.316406 C 206.074219 9.199219 205.621094 9.140625 204.996094 9.140625 L 203.296875 9.140625 Z M 203.296875 15.292969 "/>
<path style=" stroke:none;fill-rule:nonzero;fill:rgb(0%,0%,0%);fill-opacity:1;" d="M 214.214844 14.375 L 215.25 14.492188 C 215.078125 15.09375 214.773438 15.5625 214.332031 15.898438 C 213.902344 16.226562 213.347656 16.386719 212.671875 16.386719 C 211.824219 16.386719 211.148438 16.128906 210.640625 15.605469 C 210.144531 15.074219 209.898438 14.332031 209.898438 13.378906 C 209.898438 12.402344 210.152344 11.648438 210.660156 11.113281 C 211.167969 10.566406 211.824219 10.292969 212.632812 10.292969 C 213.414062 10.292969 214.042969 10.5625 214.527344 11.09375 C 215.019531 11.617188 215.269531 12.359375 215.269531 13.320312 C 215.269531 13.390625 215.269531 13.476562 215.269531 13.59375 L 210.914062 13.59375 C 210.953125 14.234375 211.132812 14.722656 211.460938 15.058594 C 211.785156 15.398438 212.195312 15.566406 212.691406 15.566406 C 213.054688 15.566406 213.359375 15.476562 213.609375 15.292969 C 213.867188 15.097656 214.070312 14.796875 214.214844 14.375 Z M 210.972656 12.773438 L 214.234375 12.773438 C 214.195312 12.28125 214.070312 11.910156 213.863281 11.660156 C 213.550781 11.285156 213.140625 11.09375 212.632812 11.09375 C 212.175781 11.09375 211.792969 11.25 211.480469 11.5625 C 211.179688 11.867188 211.011719 12.265625 210.972656 12.773438 Z M 210.972656 12.773438 "/>
<path style=" stroke:none;fill-rule:nonzero;fill:rgb(0%,0%,0%);fill-opacity:1;" d="M 220.296875 14.121094 L 221.273438 14.238281 C 221.164062 14.917969 220.890625 15.445312 220.453125 15.820312 C 220.007812 16.203125 219.464844 16.386719 218.832031 16.386719 C 218.035156 16.386719 217.394531 16.128906 216.917969 15.605469 C 216.433594 15.085938 216.195312 14.335938 216.195312 13.359375 C 216.195312 12.726562 216.296875 12.167969 216.507812 11.699219 C 216.710938 11.230469 217.023438 10.878906 217.445312 10.644531 C 217.875 10.410156 218.34375 10.292969 218.851562 10.292969 C 219.476562 10.292969 219.988281 10.460938 220.394531 10.78125 C 220.792969 11.09375 221.058594 11.542969 221.175781 12.128906 L 220.21875 12.285156 C 220.125 11.894531 219.964844 11.601562 219.730469 11.40625 C 219.496094 11.203125 219.210938 11.09375 218.890625 11.09375 C 218.382812 11.09375 217.972656 11.28125 217.660156 11.640625 C 217.355469 11.992188 217.210938 12.554688 217.210938 13.320312 C 217.210938 14.117188 217.355469 14.6875 217.660156 15.039062 C 217.957031 15.390625 218.347656 15.566406 218.832031 15.566406 C 219.222656 15.566406 219.542969 15.449219 219.808594 15.214844 C 220.066406 14.980469 220.226562 14.617188 220.296875 14.121094 Z M 220.296875 14.121094 "/>
<path style=" stroke:none;fill-rule:nonzero;fill:rgb(0%,0%,0%);fill-opacity:1;" d="M 221.742188 13.339844 C 221.742188 12.261719 222.039062 11.460938 222.640625 10.9375 C 223.148438 10.507812 223.757812 10.292969 224.476562 10.292969 C 225.28125 10.292969 225.941406 10.554688 226.449219 11.074219 C 226.957031 11.597656 227.210938 12.320312 227.210938 13.242188 C 227.210938 14 227.09375 14.589844 226.859375 15.019531 C 226.632812 15.449219 226.3125 15.789062 225.882812 16.035156 C 225.453125 16.269531 224.984375 16.386719 224.476562 16.386719 C 223.65625 16.386719 222.992188 16.128906 222.484375 15.605469 C 221.984375 15.074219 221.742188 14.316406 221.742188 13.339844 Z M 222.757812 13.339844 C 222.757812 14.082031 222.917969 14.644531 223.246094 15.019531 C 223.566406 15.386719 223.976562 15.566406 224.476562 15.566406 C 224.96875 15.566406 225.378906 15.386719 225.707031 15.019531 C 226.027344 14.644531 226.195312 14.070312 226.195312 13.300781 C 226.195312 12.585938 226.027344 12.039062 225.707031 11.660156 C 225.378906 11.285156 224.96875 11.09375 224.476562 11.09375 C 223.976562 11.09375 223.566406 11.285156 223.246094 11.660156 C 222.917969 12.027344 222.757812 12.585938 222.757812 13.339844 Z M 222.757812 13.339844 "/>
<path style=" stroke:none;fill-rule:nonzero;fill:rgb(0%,0%,0%);fill-opacity:1;" d="M 232.160156 16.25 L 232.160156 15.507812 C 231.777344 16.09375 231.230469 16.386719 230.519531 16.386719 C 230.058594 16.386719 229.640625 16.253906 229.25 15.996094 C 228.859375 15.738281 228.550781 15.382812 228.332031 14.921875 C 228.121094 14.46875 228.019531 13.941406 228.019531 13.339844 C 228.019531 12.753906 228.117188 12.226562 228.3125 11.757812 C 228.507812 11.28125 228.789062 10.914062 229.171875 10.664062 C 229.5625 10.421875 229.996094 10.292969 230.480469 10.292969 C 230.832031 10.292969 231.144531 10.367188 231.417969 10.507812 C 231.691406 10.65625 231.910156 10.851562 232.082031 11.09375 L 232.082031 8.203125 L 233.078125 8.203125 L 233.078125 16.25 Z M 229.035156 13.339844 C 229.035156 14.082031 229.191406 14.644531 229.503906 15.019531 C 229.816406 15.386719 230.1875 15.566406 230.617188 15.566406 C 231.046875 15.566406 231.40625 15.390625 231.710938 15.039062 C 232.023438 14.6875 232.179688 14.148438 232.179688 13.417969 C 232.179688 12.625 232.023438 12.039062 231.710938 11.660156 C 231.398438 11.285156 231.015625 11.09375 230.578125 11.09375 C 230.132812 11.09375 229.761719 11.28125 229.464844 11.640625 C 229.175781 12.007812 229.035156 12.574219 229.035156 13.339844 Z M 229.035156 13.339844 "/>
<path style=" stroke:none;fill-rule:nonzero;fill:rgb(0%,0%,0%);fill-opacity:1;" d="M 238.613281 14.375 L 239.648438 14.492188 C 239.476562 15.09375 239.167969 15.5625 238.730469 15.898438 C 238.300781 16.226562 237.742188 16.386719 237.070312 16.386719 C 236.21875 16.386719 235.546875 16.128906 235.039062 15.605469 C 234.539062 15.074219 234.296875 14.332031 234.296875 13.378906 C 234.296875 12.402344 234.550781 11.648438 235.058594 11.113281 C 235.566406 10.566406 236.21875 10.292969 237.03125 10.292969 C 237.8125 10.292969 238.441406 10.5625 238.925781 11.09375 C 239.417969 11.617188 239.667969 12.359375 239.667969 13.320312 C 239.667969 13.390625 239.667969 13.476562 239.667969 13.59375 L 235.3125 13.59375 C 235.351562 14.234375 235.53125 14.722656 235.859375 15.058594 C 236.179688 15.398438 236.589844 15.566406 237.089844 15.566406 C 237.449219 15.566406 237.757812 15.476562 238.007812 15.292969 C 238.265625 15.097656 238.464844 14.796875 238.613281 14.375 Z M 235.371094 12.773438 L 238.632812 12.773438 C 238.59375 12.28125 238.464844 11.910156 238.261719 11.660156 C 237.949219 11.285156 237.539062 11.09375 237.03125 11.09375 C 236.570312 11.09375 236.191406 11.25 235.878906 11.5625 C 235.574219 11.867188 235.410156 12.265625 235.371094 12.773438 Z M 235.371094 12.773438 "/>
<path style=" stroke:none;fill-rule:nonzero;fill:rgb(0%,0%,0%);fill-opacity:1;" d="M 240.863281 16.25 L 240.863281 10.410156 L 241.761719 10.410156 L 241.761719 11.308594 C 241.984375 10.894531 242.191406 10.621094 242.386719 10.488281 C 242.582031 10.359375 242.796875 10.292969 243.03125 10.292969 C 243.355469 10.292969 243.695312 10.398438 244.046875 10.605469 L 243.695312 11.523438 C 243.460938 11.382812 243.21875 11.308594 242.972656 11.308594 C 242.765625 11.308594 242.570312 11.375 242.386719 11.503906 C 242.21875 11.636719 242.09375 11.816406 242.015625 12.050781 C 241.910156 12.402344 241.859375 12.789062 241.859375 13.203125 L 241.859375 16.25 Z M 240.863281 16.25 "/>
<path style="fill-rule:nonzero;fill:rgb(69.803922%,85.098039%,100%);fill-opacity:1;stroke-width:1;stroke-linecap:round;stroke-linejoin:round;stroke:rgb(0%,0%,0%);stroke-opacity:1;stroke-miterlimit:10;" d="M 471.4 277.34375 L 549 277.34375 L 549 295.34375 L 471.4 295.34375 Z M 471.4 277.34375 " transform="matrix(1.25,0,0,1.25,-556.25,-273.75)"/>
<path style=" stroke:none;fill-rule:nonzero;fill:rgb(0%,0%,0%);fill-opacity:1;" d="M 57.683594 87.746094 L 57.683594 79.699219 L 61.257812 79.699219 C 61.96875 79.699219 62.515625 79.773438 62.898438 79.914062 C 63.273438 80.0625 63.570312 80.316406 63.796875 80.675781 C 64.015625 81.042969 64.128906 81.449219 64.128906 81.886719 C 64.128906 82.464844 63.9375 82.941406 63.5625 83.332031 C 63.195312 83.722656 62.628906 83.972656 61.863281 84.074219 C 62.136719 84.222656 62.351562 84.359375 62.507812 84.484375 C 62.820312 84.773438 63.113281 85.128906 63.386719 85.558594 L 64.792969 87.746094 L 63.445312 87.746094 L 62.371094 86.066406 C 62.066406 85.589844 61.8125 85.222656 61.609375 84.972656 C 61.414062 84.714844 61.226562 84.535156 61.0625 84.425781 C 60.90625 84.324219 60.75 84.25 60.59375 84.210938 C 60.460938 84.1875 60.261719 84.171875 59.988281 84.171875 L 58.757812 84.171875 L 58.757812 87.746094 Z M 58.757812 83.253906 L 61.042969 83.253906 C 61.535156 83.253906 61.921875 83.207031 62.195312 83.097656 C 62.46875 82.996094 62.671875 82.835938 62.820312 82.609375 C 62.960938 82.390625 63.035156 82.152344 63.035156 81.886719 C 63.035156 81.511719 62.886719 81.199219 62.605469 80.949219 C 62.332031 80.707031 61.890625 80.578125 61.296875 80.578125 L 58.757812 80.578125 Z M 58.757812 83.253906 "/>
<path style=" stroke:none;fill-rule:nonzero;fill:rgb(0%,0%,0%);fill-opacity:1;" d="M 69.65625 85.871094 L 70.691406 85.988281 C 70.519531 86.589844 70.210938 87.058594 69.773438 87.394531 C 69.34375 87.722656 68.785156 87.882812 68.113281 87.882812 C 67.261719 87.882812 66.589844 87.625 66.082031 87.101562 C 65.582031 86.570312 65.339844 85.828125 65.339844 84.875 C 65.339844 83.898438 65.59375 83.148438 66.101562 82.609375 C 66.609375 82.0625 67.261719 81.789062 68.074219 81.789062 C 68.855469 81.789062 69.484375 82.058594 69.96875 82.589844 C 70.460938 83.113281 70.710938 83.855469 70.710938 84.816406 C 70.710938 84.886719 70.710938 84.972656 70.710938 85.089844 L 66.355469 85.089844 C 66.394531 85.730469 66.574219 86.21875 66.902344 86.554688 C 67.222656 86.898438 67.632812 87.0625 68.132812 87.0625 C 68.492188 87.0625 68.800781 86.976562 69.050781 86.789062 C 69.308594 86.59375 69.507812 86.292969 69.65625 85.871094 Z M 66.414062 84.269531 L 69.675781 84.269531 C 69.636719 83.777344 69.507812 83.40625 69.304688 83.15625 C 68.992188 82.78125 68.582031 82.589844 68.074219 82.589844 C 67.613281 82.589844 67.234375 82.746094 66.921875 83.058594 C 66.617188 83.363281 66.453125 83.761719 66.414062 84.269531 Z M 66.414062 84.269531 "/>
<path style=" stroke:none;fill-rule:nonzero;fill:rgb(0%,0%,0%);fill-opacity:1;" d="M 75.734375 85.617188 L 76.710938 85.734375 C 76.605469 86.414062 76.332031 86.941406 75.890625 87.316406 C 75.449219 87.699219 74.90625 87.882812 74.269531 87.882812 C 73.476562 87.882812 72.835938 87.625 72.355469 87.101562 C 71.875 86.585938 71.632812 85.832031 71.632812 84.855469 C 71.632812 84.222656 71.738281 83.664062 71.945312 83.195312 C 72.152344 82.726562 72.464844 82.375 72.882812 82.140625 C 73.3125 81.90625 73.78125 81.789062 74.289062 81.789062 C 74.914062 81.789062 75.429688 81.957031 75.832031 82.277344 C 76.234375 82.589844 76.496094 83.039062 76.613281 83.625 L 75.65625 83.78125 C 75.566406 83.390625 75.402344 83.097656 75.167969 82.902344 C 74.933594 82.699219 74.652344 82.589844 74.328125 82.589844 C 73.820312 82.589844 73.410156 82.777344 73.097656 83.136719 C 72.796875 83.488281 72.648438 84.050781 72.648438 84.816406 C 72.648438 85.613281 72.796875 86.183594 73.097656 86.535156 C 73.398438 86.886719 73.789062 87.0625 74.269531 87.0625 C 74.660156 87.0625 74.984375 86.945312 75.246094 86.710938 C 75.507812 86.476562 75.667969 86.117188 75.734375 85.617188 Z M 75.734375 85.617188 "/>
<path style=" stroke:none;fill-rule:nonzero;fill:rgb(0%,0%,0%);fill-opacity:1;" d="M 81.378906 87.746094 L 81.378906 86.886719 C 80.921875 87.550781 80.304688 87.882812 79.523438 87.882812 C 79.183594 87.882812 78.867188 87.816406 78.566406 87.6875 C 78.265625 87.546875 78.039062 87.375 77.882812 87.179688 C 77.738281 86.984375 77.640625 86.746094 77.589844 86.457031 C 77.550781 86.261719 77.53125 85.949219 77.53125 85.519531 L 77.53125 81.90625 L 78.507812 81.90625 L 78.507812 85.148438 C 78.507812 85.671875 78.535156 86.019531 78.585938 86.183594 C 78.636719 86.449219 78.761719 86.652344 78.957031 86.808594 C 79.164062 86.957031 79.417969 87.023438 79.71875 87.023438 C 80.019531 87.023438 80.296875 86.957031 80.558594 86.808594 C 80.820312 86.652344 81 86.449219 81.105469 86.183594 C 81.210938 85.925781 81.261719 85.539062 81.261719 85.03125 L 81.261719 81.90625 L 82.257812 81.90625 L 82.257812 87.746094 Z M 81.378906 87.746094 "/>
<path style=" stroke:none;fill-rule:nonzero;fill:rgb(0%,0%,0%);fill-opacity:1;" d="M 83.789062 87.746094 L 83.789062 81.90625 L 84.6875 81.90625 L 84.6875 82.804688 C 84.910156 82.390625 85.117188 82.117188 85.3125 81.984375 C 85.507812 81.859375 85.722656 81.789062 85.957031 81.789062 C 86.28125 81.789062 86.621094 81.898438 86.972656 82.101562 L 86.621094 83.019531 C 86.386719 82.878906 86.144531 82.804688 85.898438 82.804688 C 85.691406 82.804688 85.496094 82.875 85.3125 83 C 85.144531 83.132812 85.019531 83.3125 84.941406 83.546875 C 84.835938 83.898438 84.785156 84.285156 84.785156 84.699219 L 84.785156 87.746094 Z M 83.789062 87.746094 "/>
<path style=" stroke:none;fill-rule:nonzero;fill:rgb(0%,0%,0%);fill-opacity:1;" d="M 87.535156 87.746094 L 87.535156 81.90625 L 88.433594 81.90625 L 88.433594 82.804688 C 88.65625 82.390625 88.863281 82.117188 89.058594 81.984375 C 89.253906 81.859375 89.46875 81.789062 89.703125 81.789062 C 90.027344 81.789062 90.367188 81.898438 90.71875 82.101562 L 90.367188 83.019531 C 90.132812 82.878906 89.890625 82.804688 89.644531 82.804688 C 89.4375 82.804688 89.242188 82.875 89.058594 83 C 88.890625 83.132812 88.765625 83.3125 88.6875 83.546875 C 88.582031 83.898438 88.53125 84.285156 88.53125 84.699219 L 88.53125 87.746094 Z M 87.535156 87.746094 "/>
<path style=" stroke:none;fill-rule:nonzero;fill:rgb(0%,0%,0%);fill-opacity:1;" d="M 95.285156 85.871094 L 96.320312 85.988281 C 96.152344 86.589844 95.84375 87.058594 95.402344 87.394531 C 94.972656 87.722656 94.417969 87.882812 93.742188 87.882812 C 92.894531 87.882812 92.21875 87.625 91.710938 87.101562 C 91.214844 86.570312 90.96875 85.828125 90.96875 84.875 C 90.96875 83.898438 91.222656 83.148438 91.730469 82.609375 C 92.238281 82.0625 92.894531 81.789062 93.703125 81.789062 C 94.484375 81.789062 95.117188 82.058594 95.597656 82.589844 C 96.09375 83.113281 96.339844 83.855469 96.339844 84.816406 C 96.339844 84.886719 96.339844 84.972656 96.339844 85.089844 L 91.984375 85.089844 C 92.023438 85.730469 92.207031 86.21875 92.53125 86.554688 C 92.855469 86.898438 93.265625 87.0625 93.761719 87.0625 C 94.125 87.0625 94.433594 86.976562 94.679688 86.789062 C 94.941406 86.59375 95.140625 86.292969 95.285156 85.871094 Z M 92.042969 84.269531 L 95.304688 84.269531 C 95.265625 83.777344 95.140625 83.40625 94.933594 83.15625 C 94.621094 82.78125 94.210938 82.589844 93.703125 82.589844 C 93.246094 82.589844 92.863281 82.746094 92.550781 83.058594 C 92.25 83.363281 92.082031 83.761719 92.042969 84.269531 Z M 92.042969 84.269531 "/>
<path style=" stroke:none;fill-rule:nonzero;fill:rgb(0%,0%,0%);fill-opacity:1;" d="M 97.558594 87.746094 L 97.558594 81.90625 L 98.457031 81.90625 L 98.457031 82.746094 C 98.875 82.113281 99.492188 81.789062 100.3125 81.789062 C 100.664062 81.789062 100.984375 81.859375 101.269531 81.984375 C 101.570312 82.101562 101.789062 82.269531 101.933594 82.472656 C 102.078125 82.667969 102.179688 82.914062 102.246094 83.195312 C 102.285156 83.382812 102.304688 83.699219 102.304688 84.152344 L 102.304688 87.746094 L 101.308594 87.746094 L 101.308594 84.191406 C 101.308594 83.792969 101.269531 83.488281 101.191406 83.292969 C 101.113281 83.097656 100.976562 82.941406 100.78125 82.824219 C 100.585938 82.699219 100.359375 82.628906 100.097656 82.628906 C 99.679688 82.628906 99.316406 82.765625 99.003906 83.039062 C 98.703125 83.304688 98.554688 83.8125 98.554688 84.5625 L 98.554688 87.746094 Z M 97.558594 87.746094 "/>
<path style=" stroke:none;fill-rule:nonzero;fill:rgb(0%,0%,0%);fill-opacity:1;" d="M 105.984375 86.867188 L 106.121094 87.726562 C 105.832031 87.789062 105.585938 87.824219 105.378906 87.824219 C 105.011719 87.824219 104.734375 87.765625 104.539062 87.648438 C 104.34375 87.53125 104.199219 87.386719 104.109375 87.199219 C 104.03125 87.019531 103.992188 86.632812 103.992188 86.046875 L 103.992188 82.6875 L 103.269531 82.6875 L 103.269531 81.90625 L 103.992188 81.90625 L 103.992188 80.460938 L 104.988281 79.875 L 104.988281 81.90625 L 105.984375 81.90625 L 105.984375 82.6875 L 104.988281 82.6875 L 104.988281 86.085938 C 104.988281 86.375 105 86.554688 105.027344 86.632812 C 105.066406 86.710938 105.125 86.78125 105.203125 86.828125 C 105.28125 86.882812 105.390625 86.90625 105.535156 86.90625 C 105.652344 86.90625 105.800781 86.898438 105.984375 86.867188 Z M 105.984375 86.867188 "/>
<path style=" stroke:none;fill-rule:nonzero;fill:rgb(0%,0%,0%);fill-opacity:1;" d="M 12.425781 85.996094 C 12.347656 86.09375 12.269531 86.191406 12.191406 86.289062 C 11.859375 86.699219 11.664062 86.875 11.507812 86.875 C 11.371094 86.875 11.332031 86.777344 11.332031 86.679688 C 11.332031 86.582031 11.371094 86.386719 11.488281 85.996094 L 12.113281 83.710938 C 12.171875 83.476562 12.230469 83.222656 12.230469 83.027344 C 12.230469 82.617188 11.976562 82.34375 11.488281 82.34375 C 10.765625 82.34375 10.023438 83.027344 8.890625 84.824219 L 9.652344 82.363281 L 9.59375 82.34375 C 9.007812 82.460938 8.695312 82.519531 7.777344 82.695312 L 7.777344 82.871094 C 8.34375 82.890625 8.519531 82.949219 8.519531 83.183594 C 8.519531 83.242188 8.5 83.320312 8.480469 83.359375 L 7.40625 87.304688 L 8.246094 87.304688 C 8.773438 85.527344 8.871094 85.273438 9.378906 84.511719 C 10.082031 83.476562 10.589844 82.910156 11.039062 82.910156 C 11.214844 82.910156 11.3125 83.046875 11.3125 83.242188 C 11.3125 83.378906 11.234375 83.789062 11.15625 84.140625 L 10.667969 85.957031 C 10.492188 86.542969 10.472656 86.679688 10.472656 86.796875 C 10.472656 87.226562 10.726562 87.402344 11 87.402344 C 11.527344 87.402344 11.820312 87.1875 12.582031 86.132812 Z M 12.425781 85.996094 "/>
<g clip-path="url(#clip1)" clip-rule="nonzero">
<path style=" stroke:none;fill-rule:nonzero;fill:rgb(0%,0%,0%);fill-opacity:1;" d="M 19.515625 84.359375 L 21.742188 82.132812 C 21.859375 81.996094 21.898438 81.976562 21.898438 81.898438 C 21.898438 81.761719 21.78125 81.664062 21.664062 81.664062 C 21.585938 81.664062 21.527344 81.703125 21.429688 81.820312 L 19.183594 84.046875 L 16.9375 81.820312 C 16.820312 81.683594 16.78125 81.664062 16.703125 81.664062 C 16.585938 81.664062 16.46875 81.761719 16.46875 81.898438 C 16.46875 81.976562 16.527344 82.035156 16.625 82.132812 L 18.851562 84.359375 L 16.625 86.605469 C 16.507812 86.703125 16.46875 86.78125 16.46875 86.839844 C 16.46875 86.976562 16.585938 87.074219 16.703125 87.074219 C 16.78125 87.074219 16.820312 87.054688 16.9375 86.917969 L 19.183594 84.691406 L 21.429688 86.917969 C 21.527344 87.035156 21.605469 87.074219 21.664062 87.074219 C 21.800781 87.074219 21.898438 86.976562 21.898438 86.839844 C 21.898438 86.761719 21.859375 86.742188 21.742188 86.605469 Z M 19.515625 84.359375 "/>
<path style=" stroke:none;fill-rule:nonzero;fill:rgb(0%,0%,0%);fill-opacity:1;" d="M 19.515625 84.359375 L 21.742188 82.132812 C 21.859375 81.996094 21.898438 81.976562 21.898438 81.898438 C 21.898438 81.761719 21.78125 81.664062 21.664062 81.664062 C 21.585938 81.664062 21.527344 81.703125 21.429688 81.820312 L 19.183594 84.046875 L 16.9375 81.820312 C 16.820312 81.683594 16.78125 81.664062 16.703125 81.664062 C 16.585938 81.664062 16.46875 81.761719 16.46875 81.898438 C 16.46875 81.976562 16.527344 82.035156 16.625 82.132812 L 18.851562 84.359375 L 16.625 86.605469 C 16.507812 86.703125 16.46875 86.78125 16.46875 86.839844 C 16.46875 86.976562 16.585938 87.074219 16.703125 87.074219 C 16.78125 87.074219 16.820312 87.054688 16.9375 86.917969 L 19.183594 84.691406 L 21.429688 86.917969 C 21.527344 87.035156 21.605469 87.074219 21.664062 87.074219 C 21.800781 87.074219 21.898438 86.976562 21.898438 86.839844 C 21.898438 86.761719 21.859375 86.742188 21.742188 86.605469 Z M 19.515625 84.359375 "/>
</g>
<path style="fill:none;stroke-width:1;stroke-linecap:round;stroke-linejoin:round;stroke:rgb(0%,0%,0%);stroke-opacity:1;stroke-miterlimit:10;" d="M 510.2 309.253125 L 510.2 301.246875 " transform="matrix(1.25,0,0,1.25,-556.25,-273.75)"/>
<path style="fill:none;stroke-width:1;stroke-linecap:butt;stroke-linejoin:miter;stroke:rgb(0%,0%,0%);stroke-opacity:1;stroke-miterlimit:10;" d="M 510.2 297.246875 L 510.2 301.246875 M 508.7 301.246875 L 510.2 297.246875 L 511.7 301.246875 " transform="matrix(1.25,0,0,1.25,-556.25,-273.75)"/>
<path style="fill:none;stroke-width:1;stroke-linecap:round;stroke-linejoin:round;stroke:rgb(0%,0%,0%);stroke-opacity:1;stroke-miterlimit:10;" d="M 585.4 309.253125 L 663 309.253125 L 663 327.253125 L 585.4 327.253125 Z M 585.4 309.253125 " transform="matrix(1.25,0,0,1.25,-556.25,-273.75)"/>
<path style=" stroke:none;fill-rule:nonzero;fill:rgb(0%,0%,0%);fill-opacity:1;" d="M 196.441406 127.636719 L 196.441406 119.589844 L 202.261719 119.589844 L 202.261719 120.527344 L 197.496094 120.527344 L 197.496094 123.007812 L 201.949219 123.007812 L 201.949219 123.945312 L 197.496094 123.945312 L 197.496094 126.679688 L 202.4375 126.679688 L 202.4375 127.636719 Z M 196.441406 127.636719 "/>
<path style=" stroke:none;fill-rule:nonzero;fill:rgb(0%,0%,0%);fill-opacity:1;" d="M 203.789062 127.636719 L 203.789062 121.796875 L 204.667969 121.796875 L 204.667969 122.617188 C 204.847656 122.332031 205.089844 122.101562 205.390625 121.933594 C 205.703125 121.765625 206.054688 121.679688 206.445312 121.679688 C 206.875 121.679688 207.226562 121.769531 207.5 121.953125 C 207.773438 122.121094 207.96875 122.371094 208.085938 122.695312 C 208.554688 122.019531 209.152344 121.679688 209.882812 121.679688 C 210.46875 121.679688 210.917969 121.84375 211.230469 122.167969 C 211.542969 122.480469 211.699219 122.96875 211.699219 123.632812 L 211.699219 127.636719 L 210.703125 127.636719 L 210.703125 123.964844 C 210.703125 123.5625 210.667969 123.273438 210.605469 123.105469 C 210.550781 122.9375 210.441406 122.800781 210.273438 122.695312 C 210.101562 122.578125 209.902344 122.519531 209.667969 122.519531 C 209.261719 122.519531 208.925781 122.65625 208.652344 122.929688 C 208.378906 123.203125 208.242188 123.640625 208.242188 124.238281 L 208.242188 127.636719 L 207.246094 127.636719 L 207.246094 123.847656 C 207.246094 123.40625 207.167969 123.074219 207.011719 122.851562 C 206.855469 122.628906 206.59375 122.519531 206.230469 122.519531 C 205.941406 122.519531 205.683594 122.597656 205.449219 122.753906 C 205.214844 122.898438 205.042969 123.113281 204.941406 123.398438 C 204.835938 123.671875 204.785156 124.074219 204.785156 124.609375 L 204.785156 127.636719 Z M 203.789062 127.636719 "/>
<path style=" stroke:none;fill-rule:nonzero;fill:rgb(0%,0%,0%);fill-opacity:1;" d="M 214.078125 127.636719 L 213.160156 127.636719 L 213.160156 119.589844 L 214.136719 119.589844 L 214.136719 122.460938 C 214.550781 121.941406 215.085938 121.679688 215.738281 121.679688 C 216.101562 121.679688 216.441406 121.75 216.753906 121.894531 C 217.078125 122.039062 217.34375 122.238281 217.554688 122.5 C 217.761719 122.761719 217.925781 123.078125 218.042969 123.457031 C 218.160156 123.820312 218.21875 124.210938 218.21875 124.628906 C 218.21875 125.632812 217.96875 126.40625 217.476562 126.953125 C 216.980469 127.5 216.386719 127.773438 215.699219 127.773438 C 215.007812 127.773438 214.46875 127.488281 214.078125 126.914062 Z M 214.058594 124.667969 C 214.058594 125.371094 214.15625 125.878906 214.351562 126.191406 C 214.664062 126.699219 215.078125 126.953125 215.601562 126.953125 C 216.042969 126.953125 216.421875 126.765625 216.734375 126.386719 C 217.046875 126.007812 217.203125 125.449219 217.203125 124.707031 C 217.203125 123.953125 217.050781 123.390625 216.753906 123.027344 C 216.453125 122.664062 216.089844 122.480469 215.660156 122.480469 C 215.214844 122.480469 214.839844 122.667969 214.527344 123.046875 C 214.214844 123.425781 214.058594 123.964844 214.058594 124.667969 Z M 214.058594 124.667969 "/>
<path style=" stroke:none;fill-rule:nonzero;fill:rgb(0%,0%,0%);fill-opacity:1;" d="M 223.402344 125.761719 L 224.4375 125.878906 C 224.265625 126.476562 223.957031 126.945312 223.519531 127.285156 C 223.089844 127.609375 222.53125 127.773438 221.859375 127.773438 C 221.007812 127.773438 220.335938 127.511719 219.828125 126.992188 C 219.328125 126.457031 219.085938 125.714844 219.085938 124.765625 C 219.085938 123.789062 219.339844 123.035156 219.847656 122.5 C 220.355469 121.953125 221.007812 121.679688 221.820312 121.679688 C 222.601562 121.679688 223.230469 121.945312 223.714844 122.480469 C 224.207031 123 224.457031 123.742188 224.457031 124.707031 C 224.457031 124.773438 224.457031 124.863281 224.457031 124.980469 L 220.101562 124.980469 C 220.140625 125.617188 220.320312 126.105469 220.648438 126.445312 C 220.96875 126.785156 221.378906 126.953125 221.878906 126.953125 C 222.238281 126.953125 222.546875 126.863281 222.796875 126.679688 C 223.054688 126.484375 223.253906 126.179688 223.402344 125.761719 Z M 220.160156 124.160156 L 223.421875 124.160156 C 223.382812 123.664062 223.253906 123.292969 223.050781 123.046875 C 222.738281 122.667969 222.328125 122.480469 221.820312 122.480469 C 221.359375 122.480469 220.980469 122.636719 220.667969 122.949219 C 220.363281 123.25 220.199219 123.652344 220.160156 124.160156 Z M 220.160156 124.160156 "/>
<path style=" stroke:none;fill-rule:nonzero;fill:rgb(0%,0%,0%);fill-opacity:1;" d="M 229.464844 127.636719 L 229.464844 126.894531 C 229.082031 127.480469 228.535156 127.773438 227.824219 127.773438 C 227.363281 127.773438 226.945312 127.640625 226.554688 127.382812 C 226.164062 127.121094 225.855469 126.765625 225.636719 126.308594 C 225.425781 125.851562 225.324219 125.324219 225.324219 124.726562 C 225.324219 124.140625 225.421875 123.613281 225.617188 123.144531 C 225.8125 122.664062 226.09375 122.296875 226.476562 122.050781 C 226.867188 121.804688 227.300781 121.679688 227.785156 121.679688 C 228.136719 121.679688 228.449219 121.75 228.722656 121.894531 C 228.996094 122.039062 229.214844 122.234375 229.386719 122.480469 L 229.386719 119.589844 L 230.382812 119.589844 L 230.382812 127.636719 Z M 226.339844 124.726562 C 226.339844 125.46875 226.496094 126.027344 226.808594 126.40625 C 227.121094 126.769531 227.492188 126.953125 227.921875 126.953125 C 228.351562 126.953125 228.710938 126.777344 229.015625 126.425781 C 229.328125 126.074219 229.484375 125.535156 229.484375 124.804688 C 229.484375 124.011719 229.328125 123.425781 229.015625 123.046875 C 228.703125 122.667969 228.320312 122.480469 227.882812 122.480469 C 227.4375 122.480469 227.066406 122.664062 226.769531 123.027344 C 226.480469 123.390625 226.339844 123.957031 226.339844 124.726562 Z M 226.339844 124.726562 "/>
<path style=" stroke:none;fill-rule:nonzero;fill:rgb(0%,0%,0%);fill-opacity:1;" d="M 235.722656 127.636719 L 235.722656 126.894531 C 235.339844 127.480469 234.792969 127.773438 234.082031 127.773438 C 233.621094 127.773438 233.203125 127.640625 232.8125 127.382812 C 232.421875 127.121094 232.113281 126.765625 231.894531 126.308594 C 231.683594 125.851562 231.582031 125.324219 231.582031 124.726562 C 231.582031 124.140625 231.679688 123.613281 231.875 123.144531 C 232.070312 122.664062 232.351562 122.296875 232.734375 122.050781 C 233.125 121.804688 233.558594 121.679688 234.042969 121.679688 C 234.394531 121.679688 234.707031 121.75 234.980469 121.894531 C 235.253906 122.039062 235.472656 122.234375 235.644531 122.480469 L 235.644531 119.589844 L 236.640625 119.589844 L 236.640625 127.636719 Z M 232.597656 124.726562 C 232.597656 125.46875 232.753906 126.027344 233.066406 126.40625 C 233.378906 126.769531 233.75 126.953125 234.179688 126.953125 C 234.609375 126.953125 234.96875 126.777344 235.273438 126.425781 C 235.585938 126.074219 235.742188 125.535156 235.742188 124.804688 C 235.742188 124.011719 235.585938 123.425781 235.273438 123.046875 C 234.960938 122.667969 234.578125 122.480469 234.140625 122.480469 C 233.695312 122.480469 233.324219 122.664062 233.027344 123.027344 C 232.738281 123.390625 232.597656 123.957031 232.597656 124.726562 Z M 232.597656 124.726562 "/>
<path style=" stroke:none;fill-rule:nonzero;fill:rgb(0%,0%,0%);fill-opacity:1;" d="M 238.191406 120.722656 L 238.191406 119.589844 L 239.1875 119.589844 L 239.1875 120.722656 Z M 238.191406 127.636719 L 238.191406 121.796875 L 239.1875 121.796875 L 239.1875 127.636719 Z M 238.191406 127.636719 "/>
<path style=" stroke:none;fill-rule:nonzero;fill:rgb(0%,0%,0%);fill-opacity:1;" d="M 240.6875 127.636719 L 240.6875 121.796875 L 241.585938 121.796875 L 241.585938 122.636719 C 242.003906 122 242.621094 121.679688 243.441406 121.679688 C 243.792969 121.679688 244.113281 121.746094 244.398438 121.875 C 244.699219 121.992188 244.917969 122.15625 245.0625 122.363281 C 245.207031 122.558594 245.308594 122.800781 245.375 123.085938 C 245.414062 123.269531 245.433594 123.585938 245.433594 124.042969 L 245.433594 127.636719 L 244.4375 127.636719 L 244.4375 124.082031 C 244.4375 123.679688 244.398438 123.378906 244.320312 123.183594 C 244.242188 122.988281 244.105469 122.832031 243.910156 122.714844 C 243.714844 122.585938 243.488281 122.519531 243.226562 122.519531 C 242.808594 122.519531 242.445312 122.65625 242.132812 122.929688 C 241.832031 123.191406 241.683594 123.699219 241.683594 124.453125 L 241.683594 127.636719 Z M 240.6875 127.636719 "/>
<path style=" stroke:none;fill-rule:nonzero;fill:rgb(0%,0%,0%);fill-opacity:1;" d="M 246.769531 128.125 L 247.726562 128.261719 C 247.765625 128.558594 247.875 128.773438 248.058594 128.90625 C 248.304688 129.085938 248.644531 129.179688 249.074219 129.179688 C 249.53125 129.179688 249.882812 129.085938 250.128906 128.90625 C 250.375 128.71875 250.546875 128.464844 250.636719 128.144531 C 250.6875 127.933594 250.707031 127.511719 250.695312 126.875 C 250.265625 127.382812 249.730469 127.636719 249.09375 127.636719 C 248.285156 127.636719 247.660156 127.351562 247.21875 126.777344 C 246.789062 126.191406 246.574219 125.496094 246.574219 124.6875 C 246.574219 124.128906 246.671875 123.613281 246.867188 123.144531 C 247.074219 122.675781 247.367188 122.316406 247.746094 122.070312 C 248.125 121.808594 248.574219 121.679688 249.09375 121.679688 C 249.785156 121.679688 250.351562 121.953125 250.792969 122.5 L 250.792969 121.796875 L 251.710938 121.796875 L 251.710938 126.835938 C 251.710938 127.742188 251.613281 128.386719 251.417969 128.769531 C 251.234375 129.144531 250.941406 129.441406 250.539062 129.667969 C 250.148438 129.886719 249.660156 130 249.074219 130 C 248.371094 130 247.804688 129.84375 247.375 129.53125 C 246.957031 129.21875 246.757812 128.75 246.769531 128.125 Z M 247.589844 124.609375 C 247.589844 125.378906 247.738281 125.9375 248.039062 126.289062 C 248.339844 126.640625 248.714844 126.816406 249.171875 126.816406 C 249.628906 126.816406 250.011719 126.640625 250.324219 126.289062 C 250.636719 125.9375 250.792969 125.390625 250.792969 124.648438 C 250.792969 123.933594 250.628906 123.390625 250.304688 123.027344 C 249.992188 122.664062 249.613281 122.480469 249.171875 122.480469 C 248.730469 122.480469 248.351562 122.664062 248.039062 123.027344 C 247.738281 123.378906 247.589844 123.90625 247.589844 124.609375 Z M 247.589844 124.609375 "/>
<path style=" stroke:none;fill-rule:nonzero;fill:rgb(0%,0%,0%);fill-opacity:1;" d="M 208.464844 163.25 L 208.464844 156.140625 L 205.828125 156.140625 L 205.828125 155.203125 L 212.195312 155.203125 L 212.195312 156.140625 L 209.539062 156.140625 L 209.539062 163.25 Z M 208.464844 163.25 "/>
<path style=" stroke:none;fill-rule:nonzero;fill:rgb(0%,0%,0%);fill-opacity:1;" d="M 215.730469 162.527344 C 215.363281 162.839844 215.011719 163.0625 214.675781 163.191406 C 214.335938 163.320312 213.972656 163.386719 213.582031 163.386719 C 212.941406 163.386719 212.449219 163.230469 212.097656 162.917969 C 211.757812 162.605469 211.589844 162.203125 211.589844 161.707031 C 211.589844 161.421875 211.652344 161.160156 211.785156 160.925781 C 211.914062 160.691406 212.082031 160.507812 212.292969 160.359375 C 212.5 160.21875 212.734375 160.105469 212.996094 160.027344 C 213.191406 159.988281 213.484375 159.945312 213.875 159.890625 C 214.679688 159.804688 215.273438 159.6875 215.652344 159.539062 C 215.652344 159.414062 215.652344 159.324219 215.652344 159.285156 C 215.652344 158.882812 215.558594 158.601562 215.378906 158.445312 C 215.117188 158.210938 214.738281 158.09375 214.246094 158.09375 C 213.777344 158.09375 213.429688 158.179688 213.210938 158.347656 C 212.988281 158.503906 212.824219 158.792969 212.722656 159.207031 L 211.765625 159.089844 C 211.84375 158.675781 211.980469 158.34375 212.175781 158.09375 C 212.382812 157.835938 212.675781 157.640625 213.054688 157.507812 C 213.445312 157.367188 213.886719 157.292969 214.382812 157.292969 C 214.890625 157.292969 215.292969 157.351562 215.59375 157.46875 C 215.90625 157.585938 216.132812 157.738281 216.277344 157.917969 C 216.433594 158.089844 216.535156 158.308594 216.589844 158.582031 C 216.628906 158.753906 216.648438 159.050781 216.648438 159.480469 L 216.648438 160.808594 C 216.648438 161.722656 216.667969 162.304688 216.707031 162.546875 C 216.746094 162.796875 216.828125 163.03125 216.960938 163.25 L 215.925781 163.25 C 215.820312 163.046875 215.753906 162.800781 215.730469 162.527344 Z M 215.652344 160.320312 C 215.285156 160.46875 214.746094 160.589844 214.03125 160.691406 C 213.625 160.757812 213.339844 160.828125 213.171875 160.90625 C 213 160.976562 212.871094 161.078125 212.78125 161.21875 C 212.6875 161.367188 212.644531 161.523438 212.644531 161.6875 C 212.644531 161.953125 212.742188 162.171875 212.9375 162.351562 C 213.132812 162.523438 213.425781 162.605469 213.816406 162.605469 C 214.191406 162.605469 214.53125 162.523438 214.832031 162.351562 C 215.128906 162.1875 215.351562 161.957031 215.496094 161.667969 C 215.597656 161.449219 215.652344 161.121094 215.652344 160.691406 Z M 215.652344 160.320312 "/>
<path style=" stroke:none;fill-rule:nonzero;fill:rgb(0%,0%,0%);fill-opacity:1;" d="M 218.160156 163.25 L 218.160156 157.410156 L 219.058594 157.410156 L 219.058594 158.308594 C 219.277344 157.894531 219.488281 157.621094 219.683594 157.488281 C 219.878906 157.359375 220.09375 157.292969 220.328125 157.292969 C 220.648438 157.292969 220.992188 157.398438 221.34375 157.605469 L 220.992188 158.523438 C 220.757812 158.382812 220.511719 158.308594 220.269531 158.308594 C 220.058594 158.308594 219.863281 158.375 219.683594 158.503906 C 219.511719 158.636719 219.390625 158.816406 219.3125 159.050781 C 219.203125 159.402344 219.15625 159.789062 219.15625 160.203125 L 219.15625 163.25 Z M 218.160156 163.25 "/>
<path style=" stroke:none;fill-rule:nonzero;fill:rgb(0%,0%,0%);fill-opacity:1;" d="M 221.75 163.738281 L 222.707031 163.875 C 222.746094 164.171875 222.851562 164.386719 223.039062 164.519531 C 223.28125 164.699219 223.625 164.792969 224.054688 164.792969 C 224.507812 164.792969 224.859375 164.699219 225.109375 164.519531 C 225.351562 164.335938 225.523438 164.078125 225.617188 163.757812 C 225.664062 163.546875 225.683594 163.128906 225.675781 162.488281 C 225.246094 162.996094 224.707031 163.25 224.074219 163.25 C 223.261719 163.25 222.636719 162.96875 222.199219 162.390625 C 221.769531 161.804688 221.554688 161.109375 221.554688 160.300781 C 221.554688 159.742188 221.652344 159.226562 221.847656 158.757812 C 222.050781 158.289062 222.34375 157.933594 222.726562 157.683594 C 223.101562 157.425781 223.550781 157.292969 224.074219 157.292969 C 224.761719 157.292969 225.328125 157.566406 225.773438 158.113281 L 225.773438 157.410156 L 226.691406 157.410156 L 226.691406 162.449219 C 226.691406 163.359375 226.59375 164 226.398438 164.382812 C 226.210938 164.757812 225.917969 165.054688 225.519531 165.28125 C 225.128906 165.5 224.640625 165.613281 224.054688 165.613281 C 223.351562 165.613281 222.785156 165.457031 222.355469 165.144531 C 221.933594 164.832031 221.734375 164.363281 221.75 163.738281 Z M 222.570312 160.222656 C 222.570312 160.992188 222.714844 161.550781 223.019531 161.902344 C 223.316406 162.253906 223.691406 162.429688 224.152344 162.429688 C 224.605469 162.429688 224.992188 162.253906 225.304688 161.902344 C 225.617188 161.550781 225.773438 161.003906 225.773438 160.261719 C 225.773438 159.546875 225.605469 159.007812 225.285156 158.640625 C 224.972656 158.28125 224.589844 158.09375 224.152344 158.09375 C 223.707031 158.09375 223.332031 158.28125 223.019531 158.640625 C 222.714844 158.992188 222.570312 159.519531 222.570312 160.222656 Z M 222.570312 160.222656 "/>
<path style=" stroke:none;fill-rule:nonzero;fill:rgb(0%,0%,0%);fill-opacity:1;" d="M 232.167969 161.375 L 233.203125 161.492188 C 233.03125 162.09375 232.722656 162.5625 232.285156 162.898438 C 231.855469 163.226562 231.296875 163.386719 230.625 163.386719 C 229.773438 163.386719 229.101562 163.128906 228.59375 162.605469 C 228.09375 162.074219 227.851562 161.332031 227.851562 160.378906 C 227.851562 159.402344 228.105469 158.648438 228.613281 158.113281 C 229.121094 157.566406 229.773438 157.292969 230.585938 157.292969 C 231.367188 157.292969 231.996094 157.5625 232.480469 158.09375 C 232.972656 158.617188 233.222656 159.359375 233.222656 160.320312 C 233.222656 160.390625 233.222656 160.476562 233.222656 160.59375 L 228.867188 160.59375 C 228.90625 161.234375 229.085938 161.722656 229.414062 162.058594 C 229.734375 162.398438 230.144531 162.566406 230.644531 162.566406 C 231.003906 162.566406 231.3125 162.476562 231.5625 162.292969 C 231.820312 162.097656 232.019531 161.796875 232.167969 161.375 Z M 228.925781 159.773438 L 232.1875 159.773438 C 232.148438 159.28125 232.019531 158.910156 231.816406 158.660156 C 231.503906 158.285156 231.09375 158.09375 230.585938 158.09375 C 230.125 158.09375 229.746094 158.25 229.433594 158.5625 C 229.128906 158.867188 228.964844 159.265625 228.925781 159.773438 Z M 228.925781 159.773438 "/>
<path style=" stroke:none;fill-rule:nonzero;fill:rgb(0%,0%,0%);fill-opacity:1;" d="M 236.609375 162.371094 L 236.746094 163.230469 C 236.457031 163.292969 236.207031 163.328125 236.003906 163.328125 C 235.636719 163.328125 235.359375 163.269531 235.164062 163.152344 C 234.96875 163.035156 234.820312 162.890625 234.734375 162.703125 C 234.65625 162.523438 234.617188 162.136719 234.617188 161.550781 L 234.617188 158.191406 L 233.894531 158.191406 L 233.894531 157.410156 L 234.617188 157.410156 L 234.617188 155.964844 L 235.613281 155.378906 L 235.613281 157.410156 L 236.609375 157.410156 L 236.609375 158.191406 L 235.613281 158.191406 L 235.613281 161.589844 C 235.613281 161.878906 235.621094 162.058594 235.652344 162.136719 C 235.691406 162.214844 235.75 162.28125 235.828125 162.332031 C 235.90625 162.386719 236.011719 162.410156 236.160156 162.410156 C 236.277344 162.410156 236.421875 162.398438 236.609375 162.371094 Z M 236.609375 162.371094 "/>
<path style=" stroke:none;fill-rule:nonzero;fill:rgb(0%,0%,0%);fill-opacity:1;" d="M 237.175781 161.511719 L 238.152344 161.355469 C 238.199219 161.746094 238.351562 162.046875 238.601562 162.253906 C 238.859375 162.464844 239.210938 162.566406 239.65625 162.566406 C 240.109375 162.566406 240.445312 162.476562 240.671875 162.292969 C 240.890625 162.113281 241.003906 161.898438 241.003906 161.648438 C 241.003906 161.414062 240.90625 161.238281 240.710938 161.121094 C 240.5625 161.03125 240.226562 160.914062 239.695312 160.769531 C 238.960938 160.589844 238.453125 160.433594 238.171875 160.300781 C 237.898438 160.171875 237.6875 159.988281 237.546875 159.753906 C 237.398438 159.519531 237.332031 159.261719 237.332031 158.972656 C 237.332031 158.714844 237.390625 158.476562 237.507812 158.25 C 237.625 158.03125 237.785156 157.839844 237.996094 157.683594 C 238.152344 157.582031 238.355469 157.488281 238.621094 157.410156 C 238.894531 157.332031 239.175781 157.292969 239.480469 157.292969 C 239.933594 157.292969 240.328125 157.359375 240.671875 157.488281 C 241.023438 157.621094 241.28125 157.796875 241.453125 158.015625 C 241.617188 158.242188 241.734375 158.539062 241.804688 158.914062 L 240.828125 159.050781 C 240.789062 158.753906 240.65625 158.519531 240.4375 158.347656 C 240.226562 158.179688 239.933594 158.09375 239.558594 158.09375 C 239.097656 158.09375 238.777344 158.171875 238.582031 158.328125 C 238.386719 158.476562 238.289062 158.648438 238.289062 158.855469 C 238.289062 158.988281 238.328125 159.101562 238.40625 159.1875 C 238.484375 159.304688 238.609375 159.398438 238.796875 159.460938 C 238.882812 159.5 239.171875 159.585938 239.65625 159.714844 C 240.359375 159.898438 240.847656 160.046875 241.121094 160.164062 C 241.402344 160.28125 241.628906 160.457031 241.785156 160.691406 C 241.941406 160.914062 242.019531 161.195312 242.019531 161.53125 C 242.019531 161.875 241.921875 162.1875 241.726562 162.46875 C 241.53125 162.757812 241.246094 162.984375 240.886719 163.152344 C 240.535156 163.308594 240.125 163.386719 239.65625 163.386719 C 238.898438 163.386719 238.316406 163.230469 237.917969 162.917969 C 237.527344 162.59375 237.277344 162.125 237.175781 161.511719 Z M 237.175781 161.511719 "/>
<path style="fill:none;stroke-width:1;stroke-linecap:round;stroke-linejoin:round;stroke:rgb(0%,0%,0%);stroke-opacity:1;stroke-miterlimit:10;" d="M 624.2 339.6 L 624.2 333.15625 " transform="matrix(1.25,0,0,1.25,-556.25,-273.75)"/>
<path style="fill:none;stroke-width:1;stroke-linecap:butt;stroke-linejoin:miter;stroke:rgb(0%,0%,0%);stroke-opacity:1;stroke-miterlimit:10;" d="M 624.2 329.15625 L 624.2 333.15625 M 622.7 333.15625 L 624.2 329.15625 L 625.7 333.15625 " transform="matrix(1.25,0,0,1.25,-556.25,-273.75)"/>
<path style="fill:none;stroke-width:1;stroke-linecap:round;stroke-linejoin:round;stroke:rgb(0%,0%,0%);stroke-opacity:1;stroke-miterlimit:10;" d="M 624.2 309.253125 L 624.2 301.246875 " transform="matrix(1.25,0,0,1.25,-556.25,-273.75)"/>
<path style="fill:none;stroke-width:1;stroke-linecap:butt;stroke-linejoin:miter;stroke:rgb(0%,0%,0%);stroke-opacity:1;stroke-miterlimit:10;" d="M 624.2 297.246875 L 624.2 301.246875 M 622.7 301.246875 L 624.2 297.246875 L 625.7 301.246875 " transform="matrix(1.25,0,0,1.25,-556.25,-273.75)"/>
<path style="fill-rule:nonzero;fill:rgb(69.803922%,85.098039%,100%);fill-opacity:1;stroke-width:1;stroke-linecap:round;stroke-linejoin:round;stroke:rgb(0%,0%,0%);stroke-opacity:1;stroke-miterlimit:10;" d="M 585.4 277.34375 L 663 277.34375 L 663 295.34375 L 585.4 295.34375 Z M 585.4 277.34375 " transform="matrix(1.25,0,0,1.25,-556.25,-273.75)"/>
<path style=" stroke:none;fill-rule:nonzero;fill:rgb(0%,0%,0%);fill-opacity:1;" d="M 200.183594 87.746094 L 200.183594 79.699219 L 203.757812 79.699219 C 204.46875 79.699219 205.015625 79.773438 205.398438 79.914062 C 205.773438 80.0625 206.070312 80.316406 206.296875 80.675781 C 206.515625 81.042969 206.628906 81.449219 206.628906 81.886719 C 206.628906 82.464844 206.4375 82.941406 206.0625 83.332031 C 205.695312 83.722656 205.128906 83.972656 204.363281 84.074219 C 204.636719 84.222656 204.851562 84.359375 205.007812 84.484375 C 205.320312 84.773438 205.613281 85.128906 205.886719 85.558594 L 207.292969 87.746094 L 205.945312 87.746094 L 204.871094 86.066406 C 204.566406 85.589844 204.3125 85.222656 204.109375 84.972656 C 203.914062 84.714844 203.726562 84.535156 203.5625 84.425781 C 203.40625 84.324219 203.25 84.25 203.09375 84.210938 C 202.960938 84.1875 202.761719 84.171875 202.488281 84.171875 L 201.257812 84.171875 L 201.257812 87.746094 Z M 201.257812 83.253906 L 203.542969 83.253906 C 204.035156 83.253906 204.421875 83.207031 204.695312 83.097656 C 204.96875 82.996094 205.171875 82.835938 205.320312 82.609375 C 205.460938 82.390625 205.535156 82.152344 205.535156 81.886719 C 205.535156 81.511719 205.386719 81.199219 205.105469 80.949219 C 204.832031 80.707031 204.390625 80.578125 203.796875 80.578125 L 201.257812 80.578125 Z M 201.257812 83.253906 "/>
<path style=" stroke:none;fill-rule:nonzero;fill:rgb(0%,0%,0%);fill-opacity:1;" d="M 212.15625 85.871094 L 213.191406 85.988281 C 213.019531 86.589844 212.710938 87.058594 212.273438 87.394531 C 211.84375 87.722656 211.285156 87.882812 210.613281 87.882812 C 209.761719 87.882812 209.089844 87.625 208.582031 87.101562 C 208.082031 86.570312 207.839844 85.828125 207.839844 84.875 C 207.839844 83.898438 208.09375 83.148438 208.601562 82.609375 C 209.109375 82.0625 209.761719 81.789062 210.574219 81.789062 C 211.355469 81.789062 211.984375 82.058594 212.46875 82.589844 C 212.960938 83.113281 213.210938 83.855469 213.210938 84.816406 C 213.210938 84.886719 213.210938 84.972656 213.210938 85.089844 L 208.855469 85.089844 C 208.894531 85.730469 209.074219 86.21875 209.402344 86.554688 C 209.722656 86.898438 210.132812 87.0625 210.632812 87.0625 C 210.992188 87.0625 211.300781 86.976562 211.550781 86.789062 C 211.808594 86.59375 212.007812 86.292969 212.15625 85.871094 Z M 208.914062 84.269531 L 212.175781 84.269531 C 212.136719 83.777344 212.007812 83.40625 211.804688 83.15625 C 211.492188 82.78125 211.082031 82.589844 210.574219 82.589844 C 210.113281 82.589844 209.734375 82.746094 209.421875 83.058594 C 209.117188 83.363281 208.953125 83.761719 208.914062 84.269531 Z M 208.914062 84.269531 "/>
<path style=" stroke:none;fill-rule:nonzero;fill:rgb(0%,0%,0%);fill-opacity:1;" d="M 218.234375 85.617188 L 219.210938 85.734375 C 219.105469 86.414062 218.832031 86.941406 218.390625 87.316406 C 217.949219 87.699219 217.40625 87.882812 216.769531 87.882812 C 215.976562 87.882812 215.335938 87.625 214.855469 87.101562 C 214.375 86.585938 214.132812 85.832031 214.132812 84.855469 C 214.132812 84.222656 214.238281 83.664062 214.445312 83.195312 C 214.652344 82.726562 214.964844 82.375 215.382812 82.140625 C 215.8125 81.90625 216.28125 81.789062 216.789062 81.789062 C 217.414062 81.789062 217.929688 81.957031 218.332031 82.277344 C 218.734375 82.589844 218.996094 83.039062 219.113281 83.625 L 218.15625 83.78125 C 218.066406 83.390625 217.902344 83.097656 217.667969 82.902344 C 217.433594 82.699219 217.152344 82.589844 216.828125 82.589844 C 216.320312 82.589844 215.910156 82.777344 215.597656 83.136719 C 215.296875 83.488281 215.148438 84.050781 215.148438 84.816406 C 215.148438 85.613281 215.296875 86.183594 215.597656 86.535156 C 215.898438 86.886719 216.289062 87.0625 216.769531 87.0625 C 217.160156 87.0625 217.484375 86.945312 217.746094 86.710938 C 218.007812 86.476562 218.167969 86.117188 218.234375 85.617188 Z M 218.234375 85.617188 "/>
<path style=" stroke:none;fill-rule:nonzero;fill:rgb(0%,0%,0%);fill-opacity:1;" d="M 223.878906 87.746094 L 223.878906 86.886719 C 223.421875 87.550781 222.804688 87.882812 222.023438 87.882812 C 221.683594 87.882812 221.367188 87.816406 221.066406 87.6875 C 220.765625 87.546875 220.539062 87.375 220.382812 87.179688 C 220.238281 86.984375 220.140625 86.746094 220.089844 86.457031 C 220.050781 86.261719 220.03125 85.949219 220.03125 85.519531 L 220.03125 81.90625 L 221.007812 81.90625 L 221.007812 85.148438 C 221.007812 85.671875 221.035156 86.019531 221.085938 86.183594 C 221.136719 86.449219 221.261719 86.652344 221.457031 86.808594 C 221.664062 86.957031 221.917969 87.023438 222.21875 87.023438 C 222.519531 87.023438 222.796875 86.957031 223.058594 86.808594 C 223.320312 86.652344 223.5 86.449219 223.605469 86.183594 C 223.710938 85.925781 223.761719 85.539062 223.761719 85.03125 L 223.761719 81.90625 L 224.757812 81.90625 L 224.757812 87.746094 Z M 223.878906 87.746094 "/>
<path style=" stroke:none;fill-rule:nonzero;fill:rgb(0%,0%,0%);fill-opacity:1;" d="M 226.289062 87.746094 L 226.289062 81.90625 L 227.1875 81.90625 L 227.1875 82.804688 C 227.410156 82.390625 227.617188 82.117188 227.8125 81.984375 C 228.007812 81.859375 228.222656 81.789062 228.457031 81.789062 C 228.78125 81.789062 229.121094 81.898438 229.472656 82.101562 L 229.121094 83.019531 C 228.886719 82.878906 228.644531 82.804688 228.398438 82.804688 C 228.191406 82.804688 227.996094 82.875 227.8125 83 C 227.644531 83.132812 227.519531 83.3125 227.441406 83.546875 C 227.335938 83.898438 227.285156 84.285156 227.285156 84.699219 L 227.285156 87.746094 Z M 226.289062 87.746094 "/>
<path style=" stroke:none;fill-rule:nonzero;fill:rgb(0%,0%,0%);fill-opacity:1;" d="M 230.035156 87.746094 L 230.035156 81.90625 L 230.933594 81.90625 L 230.933594 82.804688 C 231.15625 82.390625 231.363281 82.117188 231.558594 81.984375 C 231.753906 81.859375 231.96875 81.789062 232.203125 81.789062 C 232.527344 81.789062 232.867188 81.898438 233.21875 82.101562 L 232.867188 83.019531 C 232.632812 82.878906 232.390625 82.804688 232.144531 82.804688 C 231.9375 82.804688 231.742188 82.875 231.558594 83 C 231.390625 83.132812 231.265625 83.3125 231.1875 83.546875 C 231.082031 83.898438 231.03125 84.285156 231.03125 84.699219 L 231.03125 87.746094 Z M 230.035156 87.746094 "/>
<path style=" stroke:none;fill-rule:nonzero;fill:rgb(0%,0%,0%);fill-opacity:1;" d="M 237.785156 85.871094 L 238.820312 85.988281 C 238.652344 86.589844 238.34375 87.058594 237.902344 87.394531 C 237.472656 87.722656 236.917969 87.882812 236.242188 87.882812 C 235.394531 87.882812 234.71875 87.625 234.210938 87.101562 C 233.714844 86.570312 233.46875 85.828125 233.46875 84.875 C 233.46875 83.898438 233.722656 83.148438 234.230469 82.609375 C 234.738281 82.0625 235.394531 81.789062 236.203125 81.789062 C 236.984375 81.789062 237.617188 82.058594 238.097656 82.589844 C 238.59375 83.113281 238.839844 83.855469 238.839844 84.816406 C 238.839844 84.886719 238.839844 84.972656 238.839844 85.089844 L 234.484375 85.089844 C 234.523438 85.730469 234.707031 86.21875 235.03125 86.554688 C 235.355469 86.898438 235.765625 87.0625 236.261719 87.0625 C 236.625 87.0625 236.933594 86.976562 237.179688 86.789062 C 237.441406 86.59375 237.640625 86.292969 237.785156 85.871094 Z M 234.542969 84.269531 L 237.804688 84.269531 C 237.765625 83.777344 237.640625 83.40625 237.433594 83.15625 C 237.121094 82.78125 236.710938 82.589844 236.203125 82.589844 C 235.746094 82.589844 235.363281 82.746094 235.050781 83.058594 C 234.75 83.363281 234.582031 83.761719 234.542969 84.269531 Z M 234.542969 84.269531 "/>
<path style=" stroke:none;fill-rule:nonzero;fill:rgb(0%,0%,0%);fill-opacity:1;" d="M 240.058594 87.746094 L 240.058594 81.90625 L 240.957031 81.90625 L 240.957031 82.746094 C 241.375 82.113281 241.992188 81.789062 242.8125 81.789062 C 243.164062 81.789062 243.484375 81.859375 243.769531 81.984375 C 244.070312 82.101562 244.289062 82.269531 244.433594 82.472656 C 244.578125 82.667969 244.679688 82.914062 244.746094 83.195312 C 244.785156 83.382812 244.804688 83.699219 244.804688 84.152344 L 244.804688 87.746094 L 243.808594 87.746094 L 243.808594 84.191406 C 243.808594 83.792969 243.769531 83.488281 243.691406 83.292969 C 243.613281 83.097656 243.476562 82.941406 243.28125 82.824219 C 243.085938 82.699219 242.859375 82.628906 242.597656 82.628906 C 242.179688 82.628906 241.816406 82.765625 241.503906 83.039062 C 241.203125 83.304688 241.054688 83.8125 241.054688 84.5625 L 241.054688 87.746094 Z M 240.058594 87.746094 "/>
<path style=" stroke:none;fill-rule:nonzero;fill:rgb(0%,0%,0%);fill-opacity:1;" d="M 248.484375 86.867188 L 248.621094 87.726562 C 248.332031 87.789062 248.085938 87.824219 247.878906 87.824219 C 247.511719 87.824219 247.234375 87.765625 247.039062 87.648438 C 246.84375 87.53125 246.699219 87.386719 246.609375 87.199219 C 246.53125 87.019531 246.492188 86.632812 246.492188 86.046875 L 246.492188 82.6875 L 245.769531 82.6875 L 245.769531 81.90625 L 246.492188 81.90625 L 246.492188 80.460938 L 247.488281 79.875 L 247.488281 81.90625 L 248.484375 81.90625 L 248.484375 82.6875 L 247.488281 82.6875 L 247.488281 86.085938 C 247.488281 86.375 247.5 86.554688 247.527344 86.632812 C 247.566406 86.710938 247.625 86.78125 247.703125 86.828125 C 247.78125 86.882812 247.890625 86.90625 248.035156 86.90625 C 248.152344 86.90625 248.300781 86.898438 248.484375 86.867188 Z M 248.484375 86.867188 "/>
<g clip-path="url(#clip2)" clip-rule="nonzero">
<path style=" stroke:none;fill-rule:nonzero;fill:rgb(0%,0%,0%);fill-opacity:1;" d="M 286.390625 84.359375 L 288.617188 82.132812 C 288.734375 81.996094 288.773438 81.976562 288.773438 81.898438 C 288.773438 81.761719 288.65625 81.664062 288.539062 81.664062 C 288.460938 81.664062 288.402344 81.703125 288.304688 81.820312 L 286.058594 84.046875 L 283.8125 81.820312 C 283.695312 81.683594 283.65625 81.664062 283.578125 81.664062 C 283.460938 81.664062 283.34375 81.761719 283.34375 81.898438 C 283.34375 81.976562 283.402344 82.035156 283.5 82.132812 L 285.726562 84.359375 L 283.5 86.605469 C 283.382812 86.703125 283.34375 86.78125 283.34375 86.839844 C 283.34375 86.976562 283.460938 87.074219 283.578125 87.074219 C 283.65625 87.074219 283.695312 87.054688 283.8125 86.917969 L 286.058594 84.691406 L 288.304688 86.917969 C 288.402344 87.035156 288.480469 87.074219 288.539062 87.074219 C 288.675781 87.074219 288.773438 86.976562 288.773438 86.839844 C 288.773438 86.761719 288.734375 86.742188 288.617188 86.605469 Z M 286.390625 84.359375 "/>
<path style=" stroke:none;fill-rule:nonzero;fill:rgb(0%,0%,0%);fill-opacity:1;" d="M 286.390625 84.359375 L 288.617188 82.132812 C 288.734375 81.996094 288.773438 81.976562 288.773438 81.898438 C 288.773438 81.761719 288.65625 81.664062 288.539062 81.664062 C 288.460938 81.664062 288.402344 81.703125 288.304688 81.820312 L 286.058594 84.046875 L 283.8125 81.820312 C 283.695312 81.683594 283.65625 81.664062 283.578125 81.664062 C 283.460938 81.664062 283.34375 81.761719 283.34375 81.898438 C 283.34375 81.976562 283.402344 82.035156 283.5 82.132812 L 285.726562 84.359375 L 283.5 86.605469 C 283.382812 86.703125 283.34375 86.78125 283.34375 86.839844 C 283.34375 86.976562 283.460938 87.074219 283.578125 87.074219 C 283.65625 87.074219 283.695312 87.054688 283.8125 86.917969 L 286.058594 84.691406 L 288.304688 86.917969 C 288.402344 87.035156 288.480469 87.074219 288.539062 87.074219 C 288.675781 87.074219 288.773438 86.976562 288.773438 86.839844 C 288.773438 86.761719 288.734375 86.742188 288.617188 86.605469 Z M 286.390625 84.359375 "/>
</g>
<path style=" stroke:none;fill-rule:nonzero;fill:rgb(0%,0%,0%);fill-opacity:1;" d="M 297.550781 85.996094 C 297.472656 86.09375 297.394531 86.191406 297.316406 86.289062 C 296.984375 86.699219 296.789062 86.875 296.632812 86.875 C 296.496094 86.875 296.457031 86.777344 296.457031 86.679688 C 296.457031 86.582031 296.496094 86.386719 296.613281 85.996094 L 297.238281 83.710938 C 297.296875 83.476562 297.355469 83.222656 297.355469 83.027344 C 297.355469 82.617188 297.101562 82.34375 296.613281 82.34375 C 295.890625 82.34375 295.148438 83.027344 294.015625 84.824219 L 294.777344 82.363281 L 294.71875 82.34375 C 294.132812 82.460938 293.820312 82.519531 292.902344 82.695312 L 292.902344 82.871094 C 293.46875 82.890625 293.644531 82.949219 293.644531 83.183594 C 293.644531 83.242188 293.625 83.320312 293.605469 83.359375 L 292.53125 87.304688 L 293.371094 87.304688 C 293.898438 85.527344 293.996094 85.273438 294.503906 84.511719 C 295.207031 83.476562 295.714844 82.910156 296.164062 82.910156 C 296.339844 82.910156 296.4375 83.046875 296.4375 83.242188 C 296.4375 83.378906 296.359375 83.789062 296.28125 84.140625 L 295.792969 85.957031 C 295.617188 86.542969 295.597656 86.679688 295.597656 86.796875 C 295.597656 87.226562 295.851562 87.402344 296.125 87.402344 C 296.652344 87.402344 296.945312 87.1875 297.707031 86.132812 Z M 297.550781 85.996094 "/>
<path style="fill:none;stroke-width:1;stroke-linecap:round;stroke-linejoin:round;stroke:rgb(0%,0%,0%);stroke-opacity:1;stroke-miterlimit:10;" d="M 585.4 245.434375 L 663 245.434375 L 663 263.434375 L 585.4 263.434375 Z M 585.4 245.434375 " transform="matrix(1.25,0,0,1.25,-556.25,-273.75)"/>
<path style=" stroke:none;fill-rule:nonzero;fill:rgb(0%,0%,0%);fill-opacity:1;" d="M 217.421875 47.859375 L 217.421875 39.8125 L 222.851562 39.8125 L 222.851562 40.75 L 218.496094 40.75 L 218.496094 43.25 L 222.265625 43.25 L 222.265625 44.207031 L 218.496094 44.207031 L 218.496094 47.859375 Z M 217.421875 47.859375 "/>
<path style=" stroke:none;fill-rule:nonzero;fill:rgb(0%,0%,0%);fill-opacity:1;" d="M 229.996094 45.027344 L 231.050781 45.300781 C 230.824219 46.171875 230.425781 46.84375 229.839844 47.3125 C 229.261719 47.769531 228.554688 47.996094 227.710938 47.996094 C 226.851562 47.996094 226.148438 47.820312 225.601562 47.46875 C 225.054688 47.117188 224.632812 46.609375 224.351562 45.945312 C 224.078125 45.269531 223.941406 44.546875 223.941406 43.777344 C 223.941406 42.929688 224.097656 42.195312 224.410156 41.570312 C 224.730469 40.945312 225.191406 40.476562 225.777344 40.164062 C 226.371094 39.839844 227.027344 39.675781 227.730469 39.675781 C 228.535156 39.675781 229.214844 39.882812 229.761719 40.300781 C 230.316406 40.703125 230.703125 41.277344 230.914062 42.019531 L 229.859375 42.253906 C 229.671875 41.667969 229.410156 41.246094 229.058594 40.984375 C 228.707031 40.710938 228.257812 40.574219 227.710938 40.574219 C 227.09375 40.574219 226.582031 40.722656 226.167969 41.023438 C 225.746094 41.324219 225.453125 41.726562 225.289062 42.234375 C 225.117188 42.730469 225.035156 43.238281 225.035156 43.757812 C 225.035156 44.449219 225.132812 45.054688 225.328125 45.574219 C 225.53125 46.082031 225.84375 46.460938 226.265625 46.707031 C 226.679688 46.953125 227.132812 47.078125 227.632812 47.078125 C 228.226562 47.078125 228.730469 46.910156 229.136719 46.570312 C 229.550781 46.21875 229.839844 45.703125 229.996094 45.027344 Z M 229.996094 45.027344 "/>
<path style="fill:none;stroke-width:1;stroke-linecap:round;stroke-linejoin:round;stroke:rgb(0%,0%,0%);stroke-opacity:1;stroke-miterlimit:10;" d="M 624.2 277.34375 L 624.2 269.33125 " transform="matrix(1.25,0,0,1.25,-556.25,-273.75)"/>
<path style="fill:none;stroke-width:1;stroke-linecap:butt;stroke-linejoin:miter;stroke:rgb(0%,0%,0%);stroke-opacity:1;stroke-miterlimit:10;" d="M 624.2 265.33125 L 624.2 269.33125 M 622.7 269.33125 L 624.2 265.33125 L 625.7 269.33125 " transform="matrix(1.25,0,0,1.25,-556.25,-273.75)"/>
</g>
</svg>
