<?xml version="1.0" encoding="UTF-8"?>
<svg xmlns="http://www.w3.org/2000/svg" xmlns:xlink="http://www.w3.org/1999/xlink" width="223pt" height="146pt" viewBox="0 0 223 146" version="1.1">
<g id="surface1">
<path style=" stroke:none;fill-rule:nonzero;fill:rgb(0%,0%,0%);fill-opacity:1;" d="M 98.839844 136.25 L 98.839844 128.203125 L 99.816406 128.203125 L 99.816406 136.25 Z M 98.839844 136.25 "/>
<path style=" stroke:none;fill-rule:nonzero;fill:rgb(0%,0%,0%);fill-opacity:1;" d="M 100.988281 133.339844 C 100.988281 132.261719 101.289062 131.460938 101.886719 130.9375 C 102.394531 130.507812 103.007812 130.292969 103.722656 130.292969 C 104.53125 130.292969 105.1875 130.554688 105.695312 131.074219 C 106.203125 131.597656 106.457031 132.320312 106.457031 133.242188 C 106.457031 134 106.339844 134.589844 106.105469 135.019531 C 105.882812 135.449219 105.558594 135.789062 105.128906 136.035156 C 104.699219 136.269531 104.230469 136.386719 103.722656 136.386719 C 102.902344 136.386719 102.238281 136.128906 101.730469 135.605469 C 101.234375 135.074219 100.988281 134.316406 100.988281 133.339844 Z M 102.003906 133.339844 C 102.003906 134.082031 102.167969 134.644531 102.492188 135.019531 C 102.816406 135.386719 103.226562 135.566406 103.722656 135.566406 C 104.21875 135.566406 104.628906 135.386719 104.953125 135.019531 C 105.277344 134.644531 105.441406 134.070312 105.441406 133.300781 C 105.441406 132.585938 105.277344 132.039062 104.953125 131.660156 C 104.628906 131.285156 104.21875 131.09375 103.722656 131.09375 C 103.226562 131.09375 102.816406 131.285156 102.492188 131.660156 C 102.167969 132.027344 102.003906 132.585938 102.003906 133.339844 Z M 102.003906 133.339844 "/>
<path style=" stroke:none;fill-rule:nonzero;fill:rgb(0%,0%,0%);fill-opacity:1;" d="M 109.238281 136.25 L 107.011719 130.410156 L 108.066406 130.410156 L 109.316406 133.90625 C 109.445312 134.289062 109.570312 134.679688 109.6875 135.078125 C 109.777344 134.78125 109.902344 134.414062 110.058594 133.984375 L 111.347656 130.410156 L 112.363281 130.410156 L 110.15625 136.25 Z M 109.238281 136.25 "/>
<path style=" stroke:none;fill-rule:nonzero;fill:rgb(0%,0%,0%);fill-opacity:1;" d="M 117.226562 134.375 L 118.261719 134.492188 C 118.089844 135.09375 117.785156 135.5625 117.34375 135.898438 C 116.914062 136.226562 116.359375 136.386719 115.683594 136.386719 C 114.835938 136.386719 114.160156 136.128906 113.652344 135.605469 C 113.15625 135.074219 112.910156 134.332031 112.910156 133.378906 C 112.910156 132.402344 113.164062 131.648438 113.671875 131.113281 C 114.179688 130.566406 114.835938 130.292969 115.644531 130.292969 C 116.425781 130.292969 117.054688 130.5625 117.539062 131.09375 C 118.03125 131.617188 118.28125 132.359375 118.28125 133.320312 C 118.28125 133.390625 118.28125 133.476562 118.28125 133.59375 L 113.925781 133.59375 C 113.964844 134.234375 114.144531 134.722656 114.472656 135.058594 C 114.796875 135.398438 115.207031 135.566406 115.703125 135.566406 C 116.066406 135.566406 116.371094 135.476562 116.621094 135.292969 C 116.878906 135.097656 117.082031 134.796875 117.226562 134.375 Z M 113.984375 132.773438 L 117.246094 132.773438 C 117.207031 132.28125 117.082031 131.910156 116.875 131.660156 C 116.5625 131.285156 116.152344 131.09375 115.644531 131.09375 C 115.1875 131.09375 114.804688 131.25 114.492188 131.5625 C 114.191406 131.867188 114.023438 132.265625 113.984375 132.773438 Z M 113.984375 132.773438 "/>
<path style=" stroke:none;fill-rule:nonzero;fill:rgb(0%,0%,0%);fill-opacity:1;" d="M 119.109375 134.511719 L 120.085938 134.355469 C 120.136719 134.746094 120.285156 135.046875 120.535156 135.253906 C 120.792969 135.464844 121.144531 135.566406 121.589844 135.566406 C 122.042969 135.566406 122.382812 135.476562 122.605469 135.292969 C 122.824219 135.113281 122.9375 134.898438 122.9375 134.648438 C 122.9375 134.414062 122.839844 134.238281 122.644531 134.121094 C 122.5 134.03125 122.160156 133.914062 121.628906 133.769531 C 120.898438 133.589844 120.390625 133.433594 120.105469 133.300781 C 119.832031 133.171875 119.621094 132.988281 119.480469 132.753906 C 119.335938 132.519531 119.265625 132.261719 119.265625 131.972656 C 119.265625 131.714844 119.324219 131.476562 119.441406 131.25 C 119.558594 131.03125 119.71875 130.839844 119.929688 130.683594 C 120.085938 130.582031 120.292969 130.488281 120.554688 130.410156 C 120.828125 130.332031 121.113281 130.292969 121.414062 130.292969 C 121.867188 130.292969 122.265625 130.359375 122.605469 130.488281 C 122.957031 130.621094 123.214844 130.796875 123.386719 131.015625 C 123.554688 131.242188 123.671875 131.539062 123.738281 131.914062 L 122.761719 132.050781 C 122.722656 131.753906 122.589844 131.519531 122.371094 131.347656 C 122.160156 131.179688 121.867188 131.09375 121.492188 131.09375 C 121.035156 131.09375 120.710938 131.171875 120.515625 131.328125 C 120.320312 131.476562 120.222656 131.648438 120.222656 131.855469 C 120.222656 131.988281 120.261719 132.101562 120.339844 132.1875 C 120.417969 132.304688 120.546875 132.398438 120.730469 132.460938 C 120.820312 132.5 121.105469 132.585938 121.589844 132.714844 C 122.292969 132.898438 122.78125 133.046875 123.054688 133.164062 C 123.339844 133.28125 123.5625 133.457031 123.71875 133.691406 C 123.875 133.914062 123.953125 134.195312 123.953125 134.53125 C 123.953125 134.875 123.855469 135.1875 123.660156 135.46875 C 123.464844 135.757812 123.183594 135.984375 122.820312 136.152344 C 122.46875 136.308594 122.058594 136.386719 121.589844 136.386719 C 120.832031 136.386719 120.253906 136.230469 119.851562 135.917969 C 119.460938 135.59375 119.210938 135.125 119.109375 134.511719 Z M 119.109375 134.511719 "/>
<path style="fill-rule:nonzero;fill:rgb(40%,74.901961%,100%);fill-opacity:1;stroke-width:1;stroke-linecap:round;stroke-linejoin:round;stroke:rgb(0%,0%,0%);stroke-opacity:1;stroke-miterlimit:10;" d="M 472.484375 639.515625 C 477.171875 644.2 477.171875 651.8 472.484375 656.484375 C 467.8 661.171875 460.2 661.171875 455.515625 656.484375 C 450.828125 651.8 450.828125 644.2 455.515625 639.515625 C 460.2 634.828125 467.8 634.828125 472.484375 639.515625 " transform="matrix(1.25,0,0,1.25,-468.75,-710)"/>
<path style="fill-rule:nonzero;fill:rgb(69.803922%,85.098039%,100%);fill-opacity:1;stroke-width:1;stroke-linecap:round;stroke-linejoin:round;stroke:rgb(0%,0%,0%);stroke-opacity:1;stroke-miterlimit:10;" d="M 440.484375 595.515625 C 445.171875 600.2 445.171875 607.8 440.484375 612.484375 C 435.8 617.171875 428.2 617.171875 423.515625 612.484375 C 418.828125 607.8 418.828125 600.2 423.515625 595.515625 C 428.2 590.828125 435.8 590.828125 440.484375 595.515625 " transform="matrix(1.25,0,0,1.25,-468.75,-710)"/>
<path style="fill-rule:nonzero;fill:rgb(69.803922%,85.098039%,100%);fill-opacity:1;stroke-width:1;stroke-linecap:round;stroke-linejoin:round;stroke:rgb(0%,0%,0%);stroke-opacity:1;stroke-miterlimit:10;" d="M 396.484375 595.515625 C 401.171875 600.2 401.171875 607.8 396.484375 612.484375 C 391.8 617.171875 384.2 617.171875 379.515625 612.484375 C 374.828125 607.8 374.828125 600.2 379.515625 595.515625 C 384.2 590.828125 391.8 590.828125 396.484375 595.515625 " transform="matrix(1.25,0,0,1.25,-468.75,-710)"/>
<path style="fill-rule:nonzero;fill:rgb(69.803922%,85.098039%,100%);fill-opacity:1;stroke-width:1;stroke-linecap:round;stroke-linejoin:round;stroke:rgb(0%,0%,0%);stroke-opacity:1;stroke-miterlimit:10;" d="M 504.484375 595.515625 C 509.171875 600.2 509.171875 607.8 504.484375 612.484375 C 499.8 617.171875 492.2 617.171875 487.515625 612.484375 C 482.828125 607.8 482.828125 600.2 487.515625 595.515625 C 492.2 590.828125 499.8 590.828125 504.484375 595.515625 " transform="matrix(1.25,0,0,1.25,-468.75,-710)"/>
<path style="fill-rule:nonzero;fill:rgb(69.803922%,85.098039%,100%);fill-opacity:1;stroke-width:1;stroke-linecap:round;stroke-linejoin:round;stroke:rgb(0%,0%,0%);stroke-opacity:1;stroke-miterlimit:10;" d="M 548.484375 595.515625 C 553.171875 600.2 553.171875 607.8 548.484375 612.484375 C 543.8 617.171875 536.2 617.171875 531.515625 612.484375 C 526.828125 607.8 526.828125 600.2 531.515625 595.515625 C 536.2 590.828125 543.8 590.828125 548.484375 595.515625 " transform="matrix(1.25,0,0,1.25,-468.75,-710)"/>
<path style="fill:none;stroke-width:1;stroke-linecap:round;stroke-linejoin:round;stroke:rgb(0%,0%,0%);stroke-opacity:1;stroke-miterlimit:10;" d="M 456.940625 638.29375 L 442.53125 618.475 " transform="matrix(1.25,0,0,1.25,-468.75,-710)"/>
<path style="fill:none;stroke-width:1;stroke-linecap:butt;stroke-linejoin:miter;stroke:rgb(0%,0%,0%);stroke-opacity:1;stroke-miterlimit:10;" d="M 440.175 615.24375 L 442.53125 618.475 M 441.315625 619.359375 L 440.175 615.24375 L 443.74375 617.59375 " transform="matrix(1.25,0,0,1.25,-468.75,-710)"/>
<path style="fill:none;stroke-width:1;stroke-linecap:round;stroke-linejoin:round;stroke:rgb(0%,0%,0%);stroke-opacity:1;stroke-miterlimit:10;" d="M 453.6125 641.984375 L 403.49375 612.96875 " transform="matrix(1.25,0,0,1.25,-468.75,-710)"/>
<path style="fill:none;stroke-width:1;stroke-linecap:butt;stroke-linejoin:miter;stroke:rgb(0%,0%,0%);stroke-opacity:1;stroke-miterlimit:10;" d="M 400.03125 610.965625 L 403.49375 612.96875 M 402.74375 614.26875 L 400.03125 610.965625 L 404.246875 611.671875 " transform="matrix(1.25,0,0,1.25,-468.75,-710)"/>
<path style="fill:none;stroke-width:1;stroke-linecap:round;stroke-linejoin:round;stroke:rgb(0%,0%,0%);stroke-opacity:1;stroke-miterlimit:10;" d="M 471.059375 638.29375 L 485.46875 618.475 " transform="matrix(1.25,0,0,1.25,-468.75,-710)"/>
<path style="fill:none;stroke-width:1;stroke-linecap:butt;stroke-linejoin:miter;stroke:rgb(0%,0%,0%);stroke-opacity:1;stroke-miterlimit:10;" d="M 487.825 615.24375 L 485.46875 618.475 M 484.25625 617.59375 L 487.825 615.24375 L 486.684375 619.359375 " transform="matrix(1.25,0,0,1.25,-468.75,-710)"/>
<path style="fill:none;stroke-width:1;stroke-linecap:round;stroke-linejoin:round;stroke:rgb(0%,0%,0%);stroke-opacity:1;stroke-miterlimit:10;" d="M 474.3875 641.984375 L 524.50625 612.96875 " transform="matrix(1.25,0,0,1.25,-468.75,-710)"/>
<path style="fill:none;stroke-width:1;stroke-linecap:butt;stroke-linejoin:miter;stroke:rgb(0%,0%,0%);stroke-opacity:1;stroke-miterlimit:10;" d="M 527.96875 610.965625 L 524.50625 612.96875 M 523.753125 611.671875 L 527.96875 610.965625 L 525.25625 614.26875 " transform="matrix(1.25,0,0,1.25,-468.75,-710)"/>
<path style=" stroke:none;fill-rule:nonzero;fill:rgb(0%,0%,0%);fill-opacity:1;" d="M 10.714844 15.371094 L 10.851562 16.230469 C 10.5625 16.292969 10.316406 16.328125 10.109375 16.328125 C 9.742188 16.328125 9.464844 16.269531 9.269531 16.152344 C 9.074219 16.035156 8.929688 15.890625 8.839844 15.703125 C 8.761719 15.523438 8.722656 15.136719 8.722656 14.550781 L 8.722656 11.191406 L 8 11.191406 L 8 10.410156 L 8.722656 10.410156 L 8.722656 8.964844 L 9.71875 8.378906 L 9.71875 10.410156 L 10.714844 10.410156 L 10.714844 11.191406 L 9.71875 11.191406 L 9.71875 14.589844 C 9.71875 14.878906 9.730469 15.058594 9.757812 15.136719 C 9.796875 15.214844 9.855469 15.28125 9.933594 15.332031 C 10.011719 15.386719 10.121094 15.410156 10.265625 15.410156 C 10.382812 15.410156 10.53125 15.398438 10.714844 15.371094 Z M 10.714844 15.371094 "/>
<path style=" stroke:none;fill-rule:nonzero;fill:rgb(0%,0%,0%);fill-opacity:1;" d="M 11.671875 16.25 L 11.671875 8.203125 L 12.667969 8.203125 L 12.667969 11.09375 C 13.125 10.5625 13.703125 10.292969 14.40625 10.292969 C 14.835938 10.292969 15.207031 10.382812 15.519531 10.546875 C 15.84375 10.71875 16.074219 10.953125 16.203125 11.25 C 16.347656 11.554688 16.417969 11.988281 16.417969 12.558594 L 16.417969 16.25 L 15.441406 16.25 L 15.441406 12.558594 C 15.441406 12.066406 15.332031 11.710938 15.109375 11.484375 C 14.902344 11.25 14.601562 11.132812 14.210938 11.132812 C 13.910156 11.132812 13.632812 11.210938 13.371094 11.367188 C 13.109375 11.515625 12.929688 11.714844 12.824219 11.972656 C 12.71875 12.234375 12.667969 12.597656 12.667969 13.066406 L 12.667969 16.25 Z M 11.671875 16.25 "/>
<path style=" stroke:none;fill-rule:nonzero;fill:rgb(0%,0%,0%);fill-opacity:1;" d="M 21.910156 14.375 L 22.945312 14.492188 C 22.773438 15.09375 22.464844 15.5625 22.027344 15.898438 C 21.597656 16.226562 21.039062 16.386719 20.367188 16.386719 C 19.515625 16.386719 18.84375 16.128906 18.335938 15.605469 C 17.835938 15.074219 17.59375 14.332031 17.59375 13.378906 C 17.59375 12.402344 17.847656 11.648438 18.355469 11.113281 C 18.863281 10.566406 19.515625 10.292969 20.328125 10.292969 C 21.109375 10.292969 21.738281 10.5625 22.222656 11.09375 C 22.714844 11.617188 22.964844 12.359375 22.964844 13.320312 C 22.964844 13.390625 22.964844 13.476562 22.964844 13.59375 L 18.609375 13.59375 C 18.648438 14.234375 18.828125 14.722656 19.15625 15.058594 C 19.476562 15.398438 19.886719 15.566406 20.386719 15.566406 C 20.746094 15.566406 21.054688 15.476562 21.304688 15.292969 C 21.5625 15.097656 21.761719 14.796875 21.910156 14.375 Z M 18.667969 12.773438 L 21.929688 12.773438 C 21.890625 12.28125 21.761719 11.910156 21.558594 11.660156 C 21.246094 11.285156 20.835938 11.09375 20.328125 11.09375 C 19.867188 11.09375 19.488281 11.25 19.175781 11.5625 C 18.871094 11.867188 18.707031 12.265625 18.667969 12.773438 Z M 18.667969 12.773438 "/>
<path style=" stroke:none;fill-rule:nonzero;fill:rgb(0%,0%,0%);fill-opacity:1;" d="M 59.703125 16.25 L 59.703125 10.410156 L 60.582031 10.410156 L 60.582031 11.230469 C 60.761719 10.945312 61 10.71875 61.304688 10.546875 C 61.617188 10.382812 61.96875 10.292969 62.359375 10.292969 C 62.789062 10.292969 63.140625 10.386719 63.414062 10.566406 C 63.6875 10.738281 63.882812 10.984375 64 11.308594 C 64.46875 10.632812 65.0625 10.292969 65.796875 10.292969 C 66.382812 10.292969 66.832031 10.460938 67.144531 10.78125 C 67.457031 11.09375 67.613281 11.582031 67.613281 12.246094 L 67.613281 16.25 L 66.617188 16.25 L 66.617188 12.578125 C 66.617188 12.179688 66.582031 11.890625 66.519531 11.71875 C 66.464844 11.554688 66.351562 11.414062 66.1875 11.308594 C 66.015625 11.191406 65.816406 11.132812 65.582031 11.132812 C 65.175781 11.132812 64.839844 11.269531 64.566406 11.542969 C 64.292969 11.816406 64.15625 12.257812 64.15625 12.851562 L 64.15625 16.25 L 63.160156 16.25 L 63.160156 12.460938 C 63.160156 12.023438 63.082031 11.6875 62.925781 11.464844 C 62.769531 11.246094 62.503906 11.132812 62.144531 11.132812 C 61.855469 11.132812 61.597656 11.210938 61.363281 11.367188 C 61.128906 11.515625 60.957031 11.726562 60.855469 12.011719 C 60.746094 12.285156 60.699219 12.691406 60.699219 13.222656 L 60.699219 16.25 Z M 59.703125 16.25 "/>
<path style=" stroke:none;fill-rule:nonzero;fill:rgb(0%,0%,0%);fill-opacity:1;" d="M 72.882812 15.527344 C 72.515625 15.839844 72.164062 16.0625 71.828125 16.191406 C 71.484375 16.320312 71.125 16.386719 70.734375 16.386719 C 70.09375 16.386719 69.601562 16.230469 69.25 15.917969 C 68.90625 15.605469 68.742188 15.203125 68.742188 14.707031 C 68.742188 14.421875 68.804688 14.160156 68.9375 13.925781 C 69.0625 13.691406 69.234375 13.507812 69.445312 13.359375 C 69.648438 13.21875 69.882812 13.105469 70.148438 13.027344 C 70.34375 12.988281 70.636719 12.945312 71.027344 12.890625 C 71.832031 12.804688 72.421875 12.6875 72.804688 12.539062 C 72.804688 12.414062 72.804688 12.324219 72.804688 12.285156 C 72.804688 11.882812 72.710938 11.601562 72.53125 11.445312 C 72.265625 11.210938 71.890625 11.09375 71.398438 11.09375 C 70.929688 11.09375 70.582031 11.179688 70.363281 11.347656 C 70.136719 11.503906 69.976562 11.792969 69.875 12.207031 L 68.917969 12.089844 C 68.996094 11.675781 69.132812 11.34375 69.328125 11.09375 C 69.53125 10.835938 69.824219 10.640625 70.207031 10.507812 C 70.597656 10.367188 71.035156 10.292969 71.535156 10.292969 C 72.042969 10.292969 72.441406 10.351562 72.746094 10.46875 C 73.058594 10.585938 73.28125 10.738281 73.429688 10.917969 C 73.585938 11.089844 73.6875 11.308594 73.742188 11.582031 C 73.78125 11.753906 73.800781 12.050781 73.800781 12.480469 L 73.800781 13.808594 C 73.800781 14.722656 73.820312 15.304688 73.859375 15.546875 C 73.898438 15.796875 73.980469 16.03125 74.113281 16.25 L 73.078125 16.25 C 72.96875 16.046875 72.90625 15.800781 72.882812 15.527344 Z M 72.804688 13.320312 C 72.4375 13.46875 71.894531 13.589844 71.183594 13.691406 C 70.777344 13.757812 70.488281 13.828125 70.324219 13.90625 C 70.152344 13.976562 70.019531 14.078125 69.933594 14.21875 C 69.839844 14.367188 69.796875 14.523438 69.796875 14.6875 C 69.796875 14.953125 69.894531 15.171875 70.089844 15.351562 C 70.285156 15.523438 70.578125 15.605469 70.96875 15.605469 C 71.34375 15.605469 71.679688 15.523438 71.984375 15.351562 C 72.28125 15.1875 72.5 14.957031 72.648438 14.667969 C 72.75 14.449219 72.804688 14.121094 72.804688 13.691406 Z M 72.804688 13.320312 "/>
<path style=" stroke:none;fill-rule:nonzero;fill:rgb(0%,0%,0%);fill-opacity:1;" d="M 75.332031 16.25 L 75.332031 10.410156 L 76.230469 10.410156 L 76.230469 11.25 C 76.644531 10.617188 77.265625 10.292969 78.085938 10.292969 C 78.4375 10.292969 78.753906 10.359375 79.042969 10.488281 C 79.339844 10.605469 79.558594 10.773438 79.707031 10.976562 C 79.847656 11.171875 79.949219 11.414062 80.019531 11.699219 C 80.058594 11.882812 80.078125 12.203125 80.078125 12.65625 L 80.078125 16.25 L 79.082031 16.25 L 79.082031 12.695312 C 79.082031 12.296875 79.042969 11.992188 78.964844 11.796875 C 78.886719 11.601562 78.75 11.445312 78.554688 11.328125 C 78.359375 11.203125 78.128906 11.132812 77.871094 11.132812 C 77.449219 11.132812 77.089844 11.269531 76.777344 11.542969 C 76.472656 11.804688 76.328125 12.3125 76.328125 13.066406 L 76.328125 16.25 Z M 75.332031 16.25 "/>
<path style=" stroke:none;fill-rule:nonzero;fill:rgb(0%,0%,0%);fill-opacity:1;" d="M 144.128906 16.25 L 144.128906 8.203125 L 145.125 8.203125 L 145.125 11.09375 C 145.578125 10.5625 146.160156 10.292969 146.863281 10.292969 C 147.292969 10.292969 147.664062 10.382812 147.976562 10.546875 C 148.296875 10.71875 148.527344 10.953125 148.660156 11.25 C 148.800781 11.554688 148.875 11.988281 148.875 12.558594 L 148.875 16.25 L 147.898438 16.25 L 147.898438 12.558594 C 147.898438 12.066406 147.785156 11.710938 147.566406 11.484375 C 147.355469 11.25 147.058594 11.132812 146.667969 11.132812 C 146.363281 11.132812 146.085938 11.210938 145.828125 11.367188 C 145.5625 11.515625 145.382812 11.714844 145.28125 11.972656 C 145.171875 12.234375 145.125 12.597656 145.125 13.066406 L 145.125 16.25 Z M 144.128906 16.25 "/>
<path style=" stroke:none;fill-rule:nonzero;fill:rgb(0%,0%,0%);fill-opacity:1;" d="M 150.386719 9.335938 L 150.386719 8.203125 L 151.382812 8.203125 L 151.382812 9.335938 Z M 150.386719 16.25 L 150.386719 10.410156 L 151.382812 10.410156 L 151.382812 16.25 Z M 150.386719 16.25 "/>
<path style=" stroke:none;fill-rule:nonzero;fill:rgb(0%,0%,0%);fill-opacity:1;" d="M 152.492188 14.511719 L 153.46875 14.355469 C 153.519531 14.746094 153.671875 15.046875 153.917969 15.253906 C 154.179688 15.464844 154.53125 15.566406 154.972656 15.566406 C 155.429688 15.566406 155.765625 15.476562 155.988281 15.292969 C 156.210938 15.113281 156.320312 14.898438 156.320312 14.648438 C 156.320312 14.414062 156.222656 14.238281 156.027344 14.121094 C 155.882812 14.03125 155.546875 13.914062 155.011719 13.769531 C 154.28125 13.589844 153.773438 13.433594 153.488281 13.300781 C 153.214844 13.171875 153.007812 12.988281 152.863281 12.753906 C 152.71875 12.519531 152.648438 12.261719 152.648438 11.972656 C 152.648438 11.714844 152.707031 11.476562 152.824219 11.25 C 152.941406 11.03125 153.105469 10.839844 153.3125 10.683594 C 153.46875 10.582031 153.675781 10.488281 153.9375 10.410156 C 154.210938 10.332031 154.496094 10.292969 154.796875 10.292969 C 155.253906 10.292969 155.648438 10.359375 155.988281 10.488281 C 156.339844 10.621094 156.601562 10.796875 156.769531 11.015625 C 156.9375 11.242188 157.054688 11.539062 157.121094 11.914062 L 156.144531 12.050781 C 156.105469 11.753906 155.976562 11.519531 155.753906 11.347656 C 155.546875 11.179688 155.253906 11.09375 154.875 11.09375 C 154.417969 11.09375 154.09375 11.171875 153.898438 11.328125 C 153.703125 11.476562 153.605469 11.648438 153.605469 11.855469 C 153.605469 11.988281 153.644531 12.101562 153.722656 12.1875 C 153.800781 12.304688 153.929688 12.398438 154.113281 12.460938 C 154.203125 12.5 154.492188 12.585938 154.972656 12.714844 C 155.675781 12.898438 156.164062 13.046875 156.4375 13.164062 C 156.722656 13.28125 156.945312 13.457031 157.101562 13.691406 C 157.257812 13.914062 157.335938 14.195312 157.335938 14.53125 C 157.335938 14.875 157.238281 15.1875 157.042969 15.46875 C 156.847656 15.757812 156.566406 15.984375 156.203125 16.152344 C 155.851562 16.308594 155.441406 16.386719 154.972656 16.386719 C 154.21875 16.386719 153.636719 16.230469 153.234375 15.917969 C 152.84375 15.59375 152.597656 15.125 152.492188 14.511719 Z M 152.492188 14.511719 "/>
<path style=" stroke:none;fill-rule:nonzero;fill:rgb(0%,0%,0%);fill-opacity:1;" d="M 198.15625 14.511719 L 199.132812 14.355469 C 199.183594 14.746094 199.335938 15.046875 199.582031 15.253906 C 199.84375 15.464844 200.195312 15.566406 200.636719 15.566406 C 201.09375 15.566406 201.429688 15.476562 201.652344 15.292969 C 201.875 15.113281 201.984375 14.898438 201.984375 14.648438 C 201.984375 14.414062 201.886719 14.238281 201.691406 14.121094 C 201.546875 14.03125 201.210938 13.914062 200.675781 13.769531 C 199.945312 13.589844 199.4375 13.433594 199.152344 13.300781 C 198.878906 13.171875 198.671875 12.988281 198.527344 12.753906 C 198.382812 12.519531 198.3125 12.261719 198.3125 11.972656 C 198.3125 11.714844 198.371094 11.476562 198.488281 11.25 C 198.605469 11.03125 198.769531 10.839844 198.976562 10.683594 C 199.132812 10.582031 199.339844 10.488281 199.601562 10.410156 C 199.875 10.332031 200.160156 10.292969 200.460938 10.292969 C 200.917969 10.292969 201.3125 10.359375 201.652344 10.488281 C 202.003906 10.621094 202.265625 10.796875 202.433594 11.015625 C 202.601562 11.242188 202.71875 11.539062 202.785156 11.914062 L 201.808594 12.050781 C 201.769531 11.753906 201.640625 11.519531 201.417969 11.347656 C 201.210938 11.179688 200.917969 11.09375 200.539062 11.09375 C 200.082031 11.09375 199.757812 11.171875 199.5625 11.328125 C 199.367188 11.476562 199.269531 11.648438 199.269531 11.855469 C 199.269531 11.988281 199.308594 12.101562 199.386719 12.1875 C 199.464844 12.304688 199.59375 12.398438 199.777344 12.460938 C 199.867188 12.5 200.15625 12.585938 200.636719 12.714844 C 201.339844 12.898438 201.828125 13.046875 202.101562 13.164062 C 202.386719 13.28125 202.609375 13.457031 202.765625 13.691406 C 202.921875 13.914062 203 14.195312 203 14.53125 C 203 14.875 202.902344 15.1875 202.707031 15.46875 C 202.511719 15.757812 202.230469 15.984375 201.867188 16.152344 C 201.515625 16.308594 201.105469 16.386719 200.636719 16.386719 C 199.882812 16.386719 199.300781 16.230469 198.898438 15.917969 C 198.507812 15.59375 198.261719 15.125 198.15625 14.511719 Z M 198.15625 14.511719 "/>
<path style=" stroke:none;fill-rule:nonzero;fill:rgb(0%,0%,0%);fill-opacity:1;" d="M 203.800781 13.339844 C 203.800781 12.261719 204.101562 11.460938 204.699219 10.9375 C 205.207031 10.507812 205.820312 10.292969 206.535156 10.292969 C 207.34375 10.292969 208 10.554688 208.507812 11.074219 C 209.015625 11.597656 209.269531 12.320312 209.269531 13.242188 C 209.269531 14 209.152344 14.589844 208.917969 15.019531 C 208.695312 15.449219 208.371094 15.789062 207.941406 16.035156 C 207.511719 16.269531 207.042969 16.386719 206.535156 16.386719 C 205.714844 16.386719 205.050781 16.128906 204.542969 15.605469 C 204.046875 15.074219 203.800781 14.316406 203.800781 13.339844 Z M 204.816406 13.339844 C 204.816406 14.082031 204.980469 14.644531 205.304688 15.019531 C 205.628906 15.386719 206.039062 15.566406 206.535156 15.566406 C 207.03125 15.566406 207.441406 15.386719 207.765625 15.019531 C 208.089844 14.644531 208.253906 14.070312 208.253906 13.300781 C 208.253906 12.585938 208.089844 12.039062 207.765625 11.660156 C 207.441406 11.285156 207.03125 11.09375 206.535156 11.09375 C 206.039062 11.09375 205.628906 11.285156 205.304688 11.660156 C 204.980469 12.027344 204.816406 12.585938 204.816406 13.339844 Z M 204.816406 13.339844 "/>
<path style=" stroke:none;fill-rule:nonzero;fill:rgb(0%,0%,0%);fill-opacity:1;" d="M 210.429688 16.25 L 210.429688 10.410156 L 211.328125 10.410156 L 211.328125 11.25 C 211.742188 10.617188 212.363281 10.292969 213.183594 10.292969 C 213.535156 10.292969 213.851562 10.359375 214.140625 10.488281 C 214.4375 10.605469 214.660156 10.773438 214.804688 10.976562 C 214.945312 11.171875 215.050781 11.414062 215.117188 11.699219 C 215.15625 11.882812 215.175781 12.203125 215.175781 12.65625 L 215.175781 16.25 L 214.179688 16.25 L 214.179688 12.695312 C 214.179688 12.296875 214.140625 11.992188 214.0625 11.796875 C 213.984375 11.601562 213.847656 11.445312 213.652344 11.328125 C 213.457031 11.203125 213.226562 11.132812 212.96875 11.132812 C 212.550781 11.132812 212.1875 11.269531 211.875 11.542969 C 211.574219 11.804688 211.425781 12.3125 211.425781 13.066406 L 211.425781 16.25 Z M 210.429688 16.25 "/>
</g>
</svg>
